<svg  viewBox="0 0 708.66144 102.85516"
   xmlns:svg="http://www.w3.org/2000/svg"
   xmlns="http://www.w3.org/2000/svg"
   version="1.0"
   width="708.66144"
   height="102.85516"
   id="svg4391">
  <defs
     id="defs4393" />
  <g
     transform="translate(-118.66005,-242.46545)"
     id="layer1">
    <g
       id="g4405">
      <path
         d="M 287.72992,250.6078 L 311.17417,250.6078 L 363.30365,337.08469 L 338.68952,337.08469 L 299.33505,271.75908 L 278.6049,306.15327 L 312.29719,306.15327 L 322.12412,322.53148 L 268.77798,322.53148 L 259.98058,337.08469 L 235.64723,337.08469 L 287.72992,250.6078 z"
         id="path224"
         style="font-size:8px;letter-spacing:0;word-spacing:0;fill:#000000;fill-opacity:1;fill-rule:nonzero;stroke:none;stroke-width:1;stroke-linecap:butt;stroke-linejoin:miter;stroke-miterlimit:4;stroke-dasharray:none;font-family:fnt1" />
      <path
         d="M 610.05294,337.13147 L 588.90166,337.08469 L 588.90166,250.6078 L 668.12537,250.6078 C 695.73436,250.6078 702.75355,287.20133 683.47405,299.83598 C 691.94396,303.01805 693.25419,313.54687 693.6286,317.0565 L 694.28371,337.08469 L 673.45999,337.08469 L 672.80488,319.39626 C 672.14969,311.81545 667.42347,306.66804 659.79588,306.62125 L 619.55231,306.62125 L 615.34078,288.65198 L 661.99521,288.65198 C 669.29525,288.65198 673.45999,285.23598 673.45999,278.87191 C 673.45999,272.78854 669.29525,269.09177 661.99521,269.09177 L 610.09973,269.09177 L 610.05294,337.13147 z"
         id="path226"
         style="font-size:8px;letter-spacing:0;word-spacing:0;fill:#000000;fill-opacity:1;fill-rule:nonzero;stroke:none;stroke-width:1;stroke-linecap:butt;stroke-linejoin:miter;stroke-miterlimit:4;stroke-dasharray:none;font-family:fnt1" />
      <path
         d="M 383.33183,293.89303 L 383.33183,283.08344 C 383.61261,275.68984 385.0164,268.34302 395.35809,268.3898 L 460.44978,268.3898 L 460.44978,250.65459 L 395.07731,250.65459 C 374.72157,250.65459 362.22734,259.73276 361.99335,282.42825 L 361.99335,293.89303 L 361.99335,305.31095 C 362.22734,328.00645 374.72157,337.13147 395.07731,337.08469 L 460.44978,337.08469 L 460.44978,319.39626 L 395.35809,319.39626 C 385.0164,319.39626 383.61261,312.09622 383.33183,304.65584 L 383.33183,293.89303 z"
         id="path228"
         style="font-size:8px;letter-spacing:0;word-spacing:0;fill:#000000;fill-opacity:1;fill-rule:nonzero;stroke:none;stroke-width:1;stroke-linecap:butt;stroke-linejoin:miter;stroke-miterlimit:4;stroke-dasharray:none;font-family:fnt1" />
      <path
         d="M 523.99718,337.17826 L 543.32347,337.17826 C 565.97218,337.13147 575.0972,324.63724 575.0972,304.23471 L 575.0972,250.6078 L 553.75872,250.6078 L 553.75872,307.83791 C 553.71194,318.74107 546.17798,320.19172 539.29907,320.37893 L 523.99718,320.37893 L 508.74207,320.37893 C 501.86323,320.19172 494.32921,318.74107 494.28242,307.83791 L 494.28242,250.6078 L 472.89716,250.6078 L 472.89716,304.23471 C 472.94401,324.63724 482.06896,337.13147 504.71768,337.17826 L 523.99718,337.17826 z"
         id="path230"
         style="font-size:8px;letter-spacing:0;word-spacing:0;fill:#000000;fill-opacity:1;fill-rule:nonzero;stroke:none;stroke-width:1;stroke-linecap:butt;stroke-linejoin:miter;stroke-miterlimit:4;stroke-dasharray:none;font-family:fnt1" />
      <path
         d="M 751.74781,250.6078 L 775.19199,250.6078 L 827.32147,337.08469 L 802.70741,337.08469 L 763.35294,271.75908 L 742.62279,306.15327 L 776.31508,306.15327 L 786.142,322.53148 L 732.79587,322.53148 L 723.9984,337.08469 L 699.66512,337.08469 L 751.74781,250.6078 z"
         id="path232"
         style="font-size:8px;letter-spacing:0;word-spacing:0;fill:#000000;fill-opacity:1;fill-rule:nonzero;stroke:none;stroke-width:1;stroke-linecap:butt;stroke-linejoin:miter;stroke-miterlimit:4;stroke-dasharray:none;font-family:fnt1" />
      <path
         d="M 118.66005,293.70582 C 118.66005,246.72383 153.47544,242.46545 172.66137,242.46545 C 191.80046,242.46545 226.61584,246.72383 226.61584,293.70582 C 226.61584,339.56479 191.0517,345.32061 172.66137,345.32061 C 154.22419,345.32061 118.66005,339.56479 118.66005,293.70582 z M 192.78313,292.16161 L 198.8665,335.44683 C 201.95493,333.76226 219.31581,325.43278 219.12867,293.70582 C 219.12867,256.59754 196.33954,246.8174 176.91969,246.8174 L 192.78313,292.16161 z M 172.66137,283.45778 L 175.09469,283.45778 L 175.09469,246.77062 C 175.09469,246.77062 172.66137,246.72383 172.66137,246.72383 C 172.61452,246.72383 170.1812,246.77062 170.1812,246.77062 L 170.1812,283.45778 L 172.66137,283.45778 z M 172.66137,341.10901 C 183.28376,341.10901 193.0639,338.161 197.08829,336.19559 L 175.89016,289.91549 L 172.66137,289.91549 L 169.38573,289.91549 L 148.28124,336.19559 C 152.30556,338.161 161.99213,341.10901 172.66137,341.10901 z M 168.35621,246.8174 C 148.93635,246.8174 126.14722,256.59754 126.14722,293.70582 C 125.96008,325.43278 143.41453,333.76226 146.50303,335.44683 L 152.49277,292.16161 L 168.35621,246.8174 z"
         id="path234"
         style="font-size:8px;letter-spacing:0;word-spacing:0;fill:#000000;fill-opacity:1;fill-rule:nonzero;stroke:none;stroke-width:1;stroke-linecap:butt;stroke-linejoin:miter;stroke-miterlimit:4;stroke-dasharray:none;font-family:fnt1" />
    </g>
  </g>
</svg>
