<svg
   xmlns:dc="http://purl.org/dc/elements/1.1/"
   xmlns:cc="http://creativecommons.org/ns#"
   xmlns:rdf="http://www.w3.org/1999/02/22-rdf-syntax-ns#"
   xmlns:svg="http://www.w3.org/2000/svg"
   xmlns="http://www.w3.org/2000/svg"
   version="1.1"
   width="800"
   height="800"
   viewBox="0 0 800 800"
   id="Alfa_Romeo_Logo">
  <title
     id="title3082">Alfa Romeo Logo</title>
  <desc
     id="desc3084">For more information see: http://de.wikipedia.org/wiki/Datei:Alfa_Romeo.svg</desc>
  <metadata
     id="metadata3137">
    <rdf:RDF>
      <cc:Work
         rdf:about="">
        <dc:format>image/svg+xml</dc:format>
        <dc:type
           rdf:resource="http://purl.org/dc/dcmitype/StillImage" />
        <dc:title>Alfa Romeo Logo</dc:title>
      </cc:Work>
    </rdf:RDF>
  </metadata>
  <defs
     id="defs3135" />
  <path
     d="m 771.184,399.995 c 0,205 -166.185,371.184 -371.184,371.184 C 195,771.179 28.815,604.994 28.815,399.995 28.815,194.996 195,28.811 400,28.811 c 204.999,0 371.184,166.185 371.184,371.184 z"
     id="path3086"
     style="fill:#1e1d51" />
  <linearGradient
     x1="442.72"
     y1="254.033"
     x2="608.761"
     y2="-196.85"
     id="SVGID_1_"
     gradientUnits="userSpaceOnUse"
     gradientTransform="matrix(1,0,0,-1,-197.6,480.01)">
    <stop
       id="stop3089"
       style="stop-color:#ffffff;stop-opacity:1"
       offset="0" />
    <stop
       id="stop3091"
       style="stop-color:#53eeef;stop-opacity:1"
       offset="1" />
  </linearGradient>
  <path
     d="m 398.556,139.469 c -31.702,0.596 -62.115,6.238 -90.389,16.107 v 203.771 h 90.389 V 139.469 z m -164.412,60.727 c -47.136,40.006 -80.376,95.182 -91.678,157.693 h 91.678 V 200.196 z m 70.825,231.446 v 213.029 c 29.017,9.852 60.227,15.486 92.762,16.082 V 431.642 h -92.762 z m -162.8,0.58 c 9.396,66.57 43.341,125.454 92.556,167.546 V 432.222 h -92.556 z"
     id="path3093"
     style="fill:#ffffff;fill-opacity:1" />
  <linearGradient
     x1="605.794"
     y1="326.527"
     x2="779.582"
     y2="-171.6"
     id="SVGID_2_"
     gradientUnits="userSpaceOnUse"
     gradientTransform="matrix(1,0,0,-1,-197.6,480.01)">
    <stop
       id="stop3096"
       style="stop-color:#2f7fbe;stop-opacity:1"
       offset="0" />
    <stop
       id="stop3098"
       style="stop-color:#225d8b;stop-opacity:1"
       offset="1" />
  </linearGradient>
  <path
     d="m 405.132,142.093 c 140.058,2.738 252.776,117.195 252.776,257.908 0,140.711 -112.719,255.106 -252.776,257.843 V 142.093 z"
     id="path3100"
     style="fill:url(#SVGID_2_)" />
  <linearGradient
     x1="2539.69"
     y1="414.642"
     x2="2766.14"
     y2="-24.7228"
     id="SVGID_3_"
     gradientUnits="userSpaceOnUse"
     gradientTransform="matrix(1.0207,0,0,-1.0134,-2409.69,638.847)">
    <stop
       id="stop3103"
       style="stop-color:#d50d16;stop-opacity:1"
       offset="0" />
    <stop
       id="stop3105"
       style="stop-color:#880d16;stop-opacity:1"
       offset="0.5" />
    <stop
       id="stop3107"
       style="stop-color:#520d16;stop-opacity:1"
       offset="1" />
  </linearGradient>
  <path
     d="m 301.433,158.812 v 206.311 h 95.71 v 60.902 h -95.71 V 641.72 C 279.307,632.587 258.7,620.552 240.106,606.08 V 426.025 h -99.711 c -0.834,-8.466 -1.264,-17.05 -1.264,-25.733 0,-11.928 0.81,-23.665 2.369,-35.169 0.119,-0.877 0.241,-1.752 0.368,-2.626 -0.127,0.874 -0.249,1.75 -0.368,2.626 h 98.605 V 194.465 c 18.593,-14.477 39.202,-26.516 61.328,-35.653 z"
     id="path3109"
     style="fill:url(#SVGID_3_)" />
  <rect
     width="88.725"
     height="12.38"
     x="470.423"
     y="228.948"
     id="rect3111"
     style="fill:#9d0d16" />
  <linearGradient
     x1="2475.39"
     y1="471.996"
     x2="2980.16"
     y2="40.8597"
     id="SVGID_4_"
     gradientUnits="userSpaceOnUse"
     gradientTransform="matrix(1,0,0,-1,-2342.91,643.5)">
    <stop
       id="stop3114"
       style="stop-color:#f8ffbf;stop-opacity:1"
       offset="0" />
    <stop
       id="stop3116"
       style="stop-color:#f8e45e;stop-opacity:1"
       offset="0.5089" />
    <stop
       id="stop3118"
       style="stop-color:#f8d35e;stop-opacity:1"
       offset="0.75" />
    <stop
       id="stop3120"
       style="stop-color:#ee8e0a;stop-opacity:1"
       offset="1" />
  </linearGradient>
  <path
     d="M 401.083,10.005 C 266.055,9.791 134.581,79.751 62.266,205.006 -45.368,391.434 18.585,630.096 205.012,737.729 391.439,845.362 630.101,781.41 737.735,594.982 845.368,408.556 781.415,169.894 594.988,62.26 533.816,26.943 467.027,10.11 401.083,10.005 z M 400,28.808 c 204.894,0 371.188,166.293 371.188,371.187 C 771.188,604.888 604.894,771.182 400,771.182 195.106,771.182 28.813,604.888 28.813,399.995 28.813,195.101 195.106,28.808 400,28.808 z m -22.349,12.999 v 76.938 h 23.444 V 92.824 l 18.932,25.921 30.848,4.514 L 424.142,88.71 C 430.007,87.49 441.01,81.262 441.01,68.141 441.009,48.497 423.32,42.22 412.213,42.22 l -34.562,-0.413 z m 29.622,16.868 c 6.376,0 10.897,4.322 11.104,9.053 0.205,4.731 -3.067,9.865 -10.278,9.865 h -7.415 l -0.4,-18.506 6.989,-0.412 z m 110.519,4.371 c -0.416,-0 -0.837,0.01 -1.251,0.013 -20.227,0.412 -37.328,12.676 -41.422,32.705 -4.077,19.948 14.04,43.553 36.187,48.579 24.027,5.454 46.452,-5.956 51.507,-31.853 4.328,-22.177 -11.971,-43.952 -36.174,-48.567 -2.978,-0.567 -5.935,-0.859 -8.847,-0.877 z m -283.713,20.312 -20.981,11.104 9.865,86.803 22.22,-16.455 -2.876,-13.154 24.271,-14.405 11.104,8.228 25.509,-10.278 -69.112,-51.843 z m 284.255,0.954 c 1.426,0 2.873,0.135 4.333,0.413 11.678,2.227 19.091,12.323 17.049,23.032 -2.043,10.709 -12.773,17.999 -24.451,15.772 -11.678,-2.227 -17.44,-13.536 -15.397,-24.245 1.785,-9.37 8.484,-14.999 18.466,-14.972 z m -283.43,26.605 17.681,13.58 -12.754,7.402 -4.927,-20.982 z m 391.228,11.116 -65.821,45.665 19.331,15.217 31.686,-24.683 -16.056,39.9 8.229,7.815 40.325,-16.455 -24.27,32.911 14.804,20.982 46.491,-66.647 -14.818,-17.681 -37.85,15.217 15.23,-38.262 -17.281,-13.979 z M 400,131.757 c -148.011,0 -268.251,120.24 -268.251,268.251 0,148.011 120.24,268.237 268.251,268.237 148.011,0 268.251,-120.227 268.251,-268.237 C 668.25,251.997 548.011,131.757 400,131.757 z m -245.734,8.782 -32.085,37.024 55.942,49.779 15.644,-18.093 -21.395,-18.932 15.63,-16.868 -13.58,-12.341 -15.63,17.281 -7.814,-7.402 16.868,-18.519 -13.58,-11.929 z m 240.549,1.561 v 212.888 h -83.45 V 157.691 c 26.105,-9.556 54.181,-15.014 83.45,-15.591 z m 10.318,0 c 98.227,1.92 183.001,58.794 224.881,141.134 -0.543,-0.723 -1.09,-1.432 -1.65,-2.128 -10.262,-12.746 -23.188,-21.2 -34.2,-28.281 -0.876,-0.561 -1.901,-0.844 -2.94,-0.813 -1.605,0.05 -3.098,0.838 -4.036,2.141 -2.563,3.549 -7.401,6.5 -13.709,6.5 h -47.521 c -2.386,0 -4.649,0.65 -6.604,2.063 -1.953,1.414 -3.688,3.944 -3.688,6.938 v 5.417 c -0.02,0.03 -0.07,0.114 -0.271,0.271 -0.465,0.357 -1.379,0.735 -2.398,0.735 H 472.05 l 0.04,-3.417 v -0.04 -0.03 c 0,-6.234 -3.179,-11.897 -8.086,-15.475 l -0.08,-0.06 -0.06,-0.04 -17.9,-12.135 -0.02,-0.03 -0.03,-0.01 c -2.851,-1.881 -6.035,-2.772 -9.04,-2.708 -1.003,0.02 -1.984,0.155 -2.928,0.387 -3.776,0.925 -6.85,3.311 -8.834,6.358 -3.971,6.095 -3.059,15.729 4.578,21.188 l 8.396,6.422 0.06,0.05 0.06,0.04 c 1.767,1.264 2.747,2.791 2.747,3.211 l -0.207,13.605 v 0.04 0.04 c 0,0.166 -0.02,0.207 -0.04,0.271 -0.236,-0 -0.688,-0.05 -1.625,-0.361 -1.985,-0.651 -3.492,-1.49 -5.829,-2.373 -2.337,-0.883 -5.342,-1.586 -9.208,-1.586 -6.806,0 -12.398,3.071 -15.9,7.157 -1.228,1.431 -2.229,2.965 -3.018,4.552 V 142.1 z m -104.084,19.627 v 203.577 h 93.767 v 60.095 h -93.767 v 212.837 c -21.678,-9.012 -41.867,-20.888 -60.083,-35.168 V 425.399 h -97.688 c -0.817,-8.354 -1.238,-16.823 -1.238,-25.392 0,-11.77 0.793,-23.351 2.321,-34.704 h 96.604 V 196.908 c 18.216,-14.285 38.406,-26.165 60.084,-35.181 z m 174.857,39.656 c -4.215,0 -7.635,3.42 -7.635,7.634 0,4.214 3.42,7.635 7.635,7.635 4.214,0 7.634,-3.42 7.634,-7.635 0,-4.215 -3.42,-7.634 -7.634,-7.634 z m 19.448,0 c -4.215,0 -7.635,3.42 -7.635,7.634 0,4.214 3.42,7.635 7.635,7.635 4.214,0 7.634,-3.42 7.634,-7.635 0,-4.215 -3.421,-7.634 -7.634,-7.634 z m 19.434,0 c -4.215,0 -7.635,3.42 -7.635,7.634 0,4.214 3.42,7.635 7.635,7.635 4.214,0 7.634,-3.42 7.634,-7.635 0,-4.215 -3.42,-7.634 -7.634,-7.634 z m 19.434,0 c -4.214,0 -7.634,3.42 -7.634,7.634 0,4.214 3.42,7.635 7.634,7.635 4.215,0 7.635,-3.42 7.635,-7.635 0,-4.215 -3.42,-7.634 -7.635,-7.634 z m 19.447,0 c -4.214,0 -7.635,3.42 -7.634,7.634 0,4.214 3.42,7.635 7.634,7.635 4.215,0 7.635,-3.42 7.635,-7.635 0,-4.215 -3.42,-7.634 -7.635,-7.634 z m -323.02,4.062 v 149.543 h -84.688 c 10.441,-59.283 41.142,-111.603 84.688,-149.543 z m 239.776,15.888 v 12.38 h 88.726 v -12.38 h -88.726 z m 0,16.662 v 12.38 h 88.726 v -12.38 h -88.726 z m 247.037,0.05 -69.936,28.384 19.744,46.078 18.506,-7.815 -10.278,-23.458 8.641,-4.114 9.878,22.633 16.855,-7.002 -9.453,-21.794 8.229,-3.701 9.865,23.445 17.28,-6.99 -19.331,-45.666 z m -638.897,8.641 -9.865,21.794 68.285,31.686 21.807,-44.44 -16.868,-8.64 -13.167,23.045 -50.192,-23.445 z m 358.601,5.738 c 0.813,-0.05 1.764,0.165 3.057,1.019 l 17.848,12.109 c 2.225,1.622 3.701,4.622 3.701,7.042 l -0.206,16.726 v 0.03 0.04 c 0,6.587 3.332,12.201 7.635,16.12 2.536,2.311 5.441,4.134 8.55,5.249 -3.108,1.114 -6.014,2.938 -8.55,5.249 -4.303,3.919 -7.635,9.533 -7.635,16.12 v 0.04 0.03 l 0.206,16.791 c 0,2.419 -1.631,5.458 -3.855,7.08 l -17.745,12.032 c -1.724,1.138 -2.779,1.122 -3.778,0.877 -0.999,-0.245 -1.98,-0.954 -2.644,-1.973 -1.328,-2.038 -1.905,-4.412 1.935,-7.157 l 0.06,-0.05 0.06,-0.05 8.537,-6.513 c 2.887,-2.065 6.925,-5.538 6.925,-11.503 v -0.04 -0.04 l -0.206,-13.683 c 0,-2.919 -1.049,-6.215 -3.998,-8.447 -2.949,-2.232 -7.162,-2.508 -11.193,-1.187 -2.879,0.944 -4.761,1.958 -6.268,2.527 -1.508,0.57 -2.784,0.916 -5.559,0.916 -3.888,0 -6.275,-1.462 -8.072,-3.56 -1.799,-2.098 -2.722,-5.019 -2.722,-6.938 v -1.032 c 0,-1.919 0.923,-4.84 2.722,-6.938 1.798,-2.098 4.185,-3.56 8.072,-3.56 2.774,0 4.051,0.346 5.559,0.916 1.507,0.569 3.389,1.583 6.268,2.527 4.031,1.322 8.244,1.046 11.193,-1.187 2.949,-2.232 3.998,-5.605 3.998,-8.524 l 0.206,-13.605 v -0.04 -0.04 c 0,-5.965 -4.167,-9.527 -7.054,-11.593 l -8.408,-6.422 -0.06,-0.05 -0.06,-0.05 c -3.84,-2.746 -3.263,-5.12 -1.935,-7.158 0.663,-1.019 1.645,-1.728 2.644,-1.973 0.248,-0.06 0.501,-0.1 0.772,-0.115 z m 155.037,11.465 c 9.873,6.454 20.114,13.739 28.126,23.69 8.991,11.169 15.359,25.539 15.359,46.722 0,39.799 -37.167,71.766 -72.915,71.766 h -86.391 c -2.455,0 -4.966,1.125 -6.486,2.863 -1.52,1.738 -2.132,3.836 -2.115,5.842 0.02,2.006 0.662,4.056 2.167,5.765 1.504,1.709 3.976,2.85 6.435,2.85 h 84.341 c 30.322,0 46.49,19.517 46.49,42.558 0,22.453 -16.793,43.563 -46.284,43.563 h -86.906 c -2.106,0 -4.345,0.954 -5.727,2.489 -1.381,1.534 -1.958,3.399 -1.947,5.184 0.01,1.785 0.593,3.62 1.961,5.133 1.367,1.513 3.599,2.476 5.713,2.476 h 64.687 c 13.923,0 25.767,13.568 25.767,26.527 0,6.571 -1.868,12.638 -5.997,17.049 -4.129,4.411 -10.726,7.608 -21.82,7.608 H 497.87 c -1.547,0 -3.173,0.339 -4.669,1.419 -1.496,1.08 -2.72,3.145 -2.656,5.287 0.06,2.144 1.298,3.981 2.734,5.004 1.436,1.022 3.039,1.393 4.591,1.393 h 25.728 c 3.629,0 6.313,1.588 8.434,4.166 2.12,2.577 3.354,6.19 3.354,9.078 0,3.597 -1.329,6.92 -3.676,9.002 -1.522,1.35 -3.627,2.287 -6.513,2.515 0.142,-1.486 0.166,-3.17 -0.825,-5.185 -1.177,-2.391 -4.458,-4.294 -7.247,-4.294 h -15.437 c -5.377,0 -11.311,-2.027 -15.694,-5.855 -4.385,-3.827 -7.39,-9.251 -7.39,-17.061 0,-7.182 3.001,-12.302 7.26,-15.979 4.259,-3.678 9.916,-5.597 14.083,-5.597 h 37.94 c 1.713,0 3.381,-0.296 4.978,-1.265 1.596,-0.968 3.239,-3.008 3.237,-5.545 -0,-2.537 -1.656,-4.578 -3.25,-5.545 -1.595,-0.968 -3.253,-1.251 -4.965,-1.251 h -59.438 c -22.87,0 -35.605,-16.184 -35.605,-33.633 0,-15.567 13.332,-34.021 33.542,-34.021 h 88.454 c 2.408,0 4.885,-1.123 6.358,-2.837 1.473,-1.714 2.051,-3.753 2.037,-5.7 -0.01,-1.946 -0.618,-3.948 -2.076,-5.635 -1.458,-1.688 -3.906,-2.824 -6.319,-2.824 h -90.092 c -25.186,0 -45.11,-18.676 -45.11,-46.878 0,-23.556 19.275,-47.715 47.78,-47.715 h 81.657 c 4.453,0 8.448,-2.003 10.897,-4.926 2.449,-2.923 3.54,-6.525 3.56,-10.072 0.02,-3.547 -1.039,-7.18 -3.495,-10.124 -2.456,-2.943 -6.48,-4.939 -10.962,-4.939 H 471.95 l -0.06,-4.888 c 0,-3.017 1.639,-6.052 4.269,-8.447 2.629,-2.395 6.166,-3.766 8.33,-3.766 h 48.825 c 1.889,0 3.759,-0.437 5.597,-1.702 1.838,-1.266 3.546,-3.995 3.546,-7.402 0,-3.51 -1.045,-5.285 -3.546,-7.402 -1.838,-1.266 -3.708,-1.703 -5.597,-1.703 h -48.825 c -2.164,0 -5.701,-1.371 -8.33,-3.766 -2.63,-2.395 -4.269,-5.481 -4.269,-8.499 l 0.04,-2.992 h 59.593 c 3.299,0 6.309,-1.058 8.68,-2.876 2.369,-1.818 4.307,-4.607 4.307,-8.125 v -4.423 h 28.978 c 7.513,0 14.044,-2.799 18.721,-7.077 z m 52.577,54.653 c 8.517,25.607 13.128,53.001 13.128,81.464 0,90.1 -46.205,169.403 -116.22,215.519 2.733,-3.889 4.011,-8.577 4.011,-13.206 0,-5.515 -1.979,-11.106 -5.7,-15.63 -0.147,-0.179 -0.323,-0.34 -0.477,-0.516 11.734,-0.566 20.668,-4.538 26.488,-10.756 6.291,-6.72 8.782,-15.552 8.782,-24.103 0,-12.632 -7.072,-24.787 -17.783,-31.492 h 3.92 c 34.562,0 56.601,-26.108 56.601,-53.879 0,-23.546 -15.315,-44.64 -40.79,-50.927 36.576,-6.871 69.265,-39.784 69.265,-80.716 0,-5.602 -0.436,-10.843 -1.225,-15.758 z m -239.647,1.832 c 0.789,1.587 1.79,3.121 3.018,4.552 3.502,4.086 9.095,7.158 15.9,7.158 3.866,0 6.871,-0.704 9.208,-1.586 2.337,-0.883 3.844,-1.722 5.829,-2.373 0.938,-0.307 1.389,-0.36 1.625,-0.361 0.01,0.06 0.04,0.11 0.04,0.271 v 0.04 0.04 l 0.207,13.683 c 0,0.421 -0.98,1.87 -2.747,3.134 l -0.06,0.04 -0.06,0.05 -8.524,6.525 c -7.637,5.459 -8.42,14.99 -4.449,21.085 1.688,2.593 4.169,4.699 7.196,5.842 -8.264,10.346 -12.986,23.271 -12.986,36.263 0,28.656 18.582,50.379 43.228,55.827 -18.459,6.308 -30.022,24.746 -30.022,42.067 0,22.71 17.987,43.949 45.923,43.949 h 2.025 c -0.453,0.354 -0.915,0.69 -1.354,1.07 -6.19,5.345 -10.833,13.587 -10.833,23.794 0,10.607 4.485,19.229 10.91,24.837 6.425,5.608 14.608,8.396 22.491,8.396 h 12.922 c -0.268,0.942 -0.567,1.818 -0.567,1.818 -0.633,1.433 -0.581,3.072 0.142,4.462 0.722,1.39 2.036,2.378 3.572,2.683 3.692,0.731 7.182,0.781 10.343,0.245 -36.354,20.844 -78.267,33.095 -122.964,33.968 V 320.375 z m -278.014,8.988 -80.226,26.333 -2.876,23.858 76.112,41.138 -0.413,-27.558 -11.503,-5.326 1.729,-28.333 13.476,-3.366 3.701,-26.746 z m 589.931,2.476 c -26.854,0 -40.313,22.004 -40.313,44.014 0,22.009 15.924,44.026 40.313,44.026 24.378,0 40.726,-19.96 40.726,-44.026 -0,-23.655 -14.286,-44.014 -40.726,-44.014 z m -244.987,15.437 h 87.01 c 1.763,0 2.41,0.479 3.044,1.238 0.634,0.759 1.104,2.066 1.096,3.456 -0,1.39 -0.494,2.716 -1.147,3.495 -0.653,0.779 -1.305,1.238 -2.992,1.238 h -81.657 c -2.487,0 -4.916,0.159 -7.286,0.452 1.251,-2.519 1.96,-5.314 1.96,-8.241 v -0.03 -0.04 l -0.03,-1.573 z m 245.502,8.421 c 11.836,0 18.737,11.053 18.737,20.157 0,8.898 -7.157,20.156 -18.737,20.156 -11.587,0 -18.325,-9.769 -18.325,-20.156 0,-10.387 6.489,-20.157 18.325,-20.157 z m -625.677,8.292 -0.98,15.785 -21.794,-10.098 22.774,-5.687 z m 52.602,71.728 h 86.159 V 594.531 C 184.837,554.632 153.236,498.819 144.49,435.717 z m 166.875,0 h 83.45 v 222.134 c -29.27,-0.576 -57.346,-6.04 -83.45,-15.591 V 435.717 z"
     id="path3122"
     style="fill:url(#SVGID_4_)" />
  <path
     d="m 437.166,252.425 c 0.813,-0.05 1.764,0.165 3.057,1.019 l 17.848,12.109 c 2.225,1.622 3.701,4.622 3.701,7.042 l -0.206,16.726 v 0.03 0.04 c 0,6.587 3.332,12.201 7.635,16.12 2.536,2.311 5.441,4.134 8.55,5.249 -3.108,1.114 -6.014,2.938 -8.55,5.249 -4.303,3.919 -7.635,9.533 -7.635,16.12 v 0.04 0.03 l 0.206,16.791 c 0,2.419 -1.631,5.458 -3.855,7.08 l -17.745,12.032 c -1.724,1.138 -2.779,1.122 -3.778,0.877 -0.999,-0.245 -1.98,-0.954 -2.644,-1.973 -1.328,-2.038 -1.905,-4.412 1.935,-7.157 l 0.06,-0.05 0.06,-0.05 8.537,-6.513 c 2.887,-2.065 6.925,-5.538 6.925,-11.503 v -0.04 -0.04 l -0.206,-13.683 c 0,-2.919 -1.049,-6.215 -3.998,-8.447 -2.949,-2.232 -7.162,-2.508 -11.193,-1.187 -2.879,0.944 -4.761,1.958 -6.268,2.527 -1.508,0.57 -2.784,0.916 -5.559,0.916 -3.888,0 -6.275,-1.462 -8.072,-3.56 -1.799,-2.098 -2.722,-5.019 -2.722,-6.938 v -1.032 c 0,-1.919 0.923,-4.84 2.722,-6.938 1.798,-2.098 4.185,-3.56 8.072,-3.56 2.774,0 4.051,0.346 5.559,0.916 1.507,0.569 3.389,1.583 6.268,2.527 4.031,1.322 8.244,1.046 11.193,-1.187 2.949,-2.232 3.998,-5.605 3.998,-8.524 l 0.206,-13.605 v -0.04 -0.04 c 0,-5.965 -4.167,-9.527 -7.054,-11.593 l -8.408,-6.422 -0.06,-0.05 -0.06,-0.05 c -3.84,-2.746 -3.263,-5.12 -1.935,-7.158 0.663,-1.019 1.645,-1.728 2.644,-1.973 0.248,-0.06 0.501,-0.1 0.772,-0.115 z"
     id="path3124"
     style="fill:#9d0d16" />
  <linearGradient
     x1="693.756"
     y1="189.016"
     x2="796.138"
     y2="-115.412"
     id="SVGID_5_"
     gradientUnits="userSpaceOnUse"
     gradientTransform="matrix(1,0,0,-1,-197.6,480.01)">
    <stop
       id="stop3127"
       style="stop-color:#157031;stop-opacity:1"
       offset="0" />
    <stop
       id="stop3129"
       style="stop-color:#0f5324;stop-opacity:1"
       offset="1" />
  </linearGradient>
  <path
     d="m 592.203,263.89 c 9.873,6.454 20.114,13.739 28.126,23.69 8.991,11.169 15.359,25.539 15.359,46.722 0,39.799 -37.167,71.766 -72.915,71.766 h -86.391 c -2.455,0 -4.966,1.125 -6.486,2.863 -1.52,1.738 -2.132,3.836 -2.115,5.842 0.02,2.006 0.662,4.056 2.167,5.765 1.504,1.709 3.976,2.85 6.435,2.85 h 84.341 c 30.322,0 46.49,19.517 46.49,42.558 0,22.453 -16.793,43.563 -46.284,43.563 h -86.906 c -2.106,0 -4.345,0.954 -5.727,2.489 -1.381,1.534 -1.958,3.399 -1.947,5.184 0.01,1.785 0.593,3.62 1.961,5.133 1.367,1.513 3.599,2.476 5.713,2.476 h 64.687 c 13.923,0 25.767,13.568 25.767,26.527 0,6.571 -1.868,12.638 -5.997,17.049 -4.129,4.411 -10.726,7.608 -21.82,7.608 H 497.87 c -1.547,0 -3.173,0.339 -4.669,1.419 -1.496,1.08 -2.72,3.145 -2.656,5.287 0.06,2.144 1.298,3.981 2.734,5.004 1.436,1.022 3.039,1.393 4.591,1.393 h 25.728 c 3.629,0 6.313,1.588 8.434,4.166 2.12,2.577 3.354,6.19 3.354,9.078 0,3.597 -1.329,6.92 -3.676,9.002 -1.522,1.35 -3.627,2.287 -6.513,2.515 0.142,-1.486 0.166,-3.17 -0.825,-5.185 -1.177,-2.391 -4.458,-4.294 -7.247,-4.294 h -15.437 c -5.377,0 -11.311,-2.027 -15.694,-5.855 -4.385,-3.827 -7.39,-9.251 -7.39,-17.061 0,-7.182 3.001,-12.302 7.26,-15.979 4.259,-3.678 9.916,-5.597 14.083,-5.597 h 37.94 c 1.713,0 3.381,-0.296 4.978,-1.265 1.596,-0.968 3.239,-3.008 3.237,-5.545 -0,-2.537 -1.656,-4.578 -3.25,-5.545 -1.595,-0.968 -3.253,-1.251 -4.965,-1.251 h -59.438 c -22.87,0 -35.605,-16.184 -35.605,-33.633 0,-15.567 13.332,-34.021 33.542,-34.021 h 88.454 c 2.408,0 4.885,-1.123 6.358,-2.837 1.473,-1.714 2.051,-3.753 2.037,-5.7 -0.01,-1.946 -0.618,-3.948 -2.076,-5.635 -1.458,-1.688 -3.906,-2.824 -6.319,-2.824 h -90.092 c -25.186,0 -45.11,-18.676 -45.11,-46.878 0,-23.556 19.275,-47.715 47.78,-47.715 h 81.657 c 4.453,0 8.448,-2.003 10.897,-4.926 2.449,-2.923 3.54,-6.525 3.56,-10.072 0.02,-3.547 -1.039,-7.18 -3.495,-10.124 -2.456,-2.943 -6.48,-4.939 -10.962,-4.939 H 471.95 l -0.06,-4.888 c 0,-3.017 1.639,-6.052 4.269,-8.447 2.629,-2.395 6.166,-3.766 8.33,-3.766 h 48.825 c 1.889,0 3.759,-0.437 5.597,-1.702 1.838,-1.266 3.546,-3.995 3.546,-7.402 0,-3.51 -1.045,-5.285 -3.546,-7.402 -1.838,-1.266 -3.708,-1.703 -5.597,-1.703 h -48.825 c -2.164,0 -5.701,-1.371 -8.33,-3.766 -2.63,-2.395 -4.269,-5.481 -4.269,-8.499 l 0.04,-2.992 h 59.593 c 3.299,0 6.309,-1.058 8.68,-2.876 2.369,-1.818 4.307,-4.607 4.307,-8.125 v -4.423 h 28.978 c 7.513,0 14.044,-2.799 18.721,-7.077 z"
     id="path3131"
     style="fill:url(#SVGID_5_)" />
</svg>
