<!DOCTYPE svg PUBLIC "-//W3C//DTD SVG 1.1//EN" "http://www.w3.org/Graphics/SVG/1.1/DTD/svg11.dtd">
<svg width="767pt" height="171pt" viewBox="0 0 767 171" version="1.1" xmlns="http://www.w3.org/2000/svg">
<path fill="#ffffff" d=" M 0.00 0.00 L 767.00 0.00 L 767.00 171.00 L 0.00 171.00 L 0.00 0.00 Z" />
<path fill="#59be48" d=" M 95.21 5.01 C 107.02 6.19 118.20 11.33 127.97 17.92 C 145.43 30.04 158.19 48.97 162.21 69.91 C 165.68 87.35 163.06 105.94 154.89 121.74 C 146.94 137.44 133.64 150.36 117.73 157.88 C 99.60 166.60 78.15 168.01 58.97 161.99 C 31.76 153.72 10.06 129.93 4.33 102.07 C 4.04 100.58 4.15 99.11 4.67 97.67 C 7.75 100.79 10.36 104.36 13.68 107.24 C 25.94 118.21 42.50 124.44 58.98 123.83 C 79.99 123.78 100.99 123.85 122.00 123.79 C 122.16 102.54 121.69 81.29 121.82 60.04 C 121.99 43.21 115.49 26.33 103.75 14.22 C 101.09 11.38 97.81 9.23 95.11 6.44 C 95.13 6.08 95.19 5.37 95.21 5.01 Z" />
<path fill="#59be48" d=" M 28.55 25.53 C 35.31 20.14 43.62 16.73 52.18 15.55 C 63.28 14.42 74.94 17.28 83.80 24.22 C 94.63 32.23 101.04 45.61 101.02 59.03 C 101.02 73.75 100.87 88.47 101.21 103.18 C 86.47 103.17 71.72 103.15 56.98 103.19 C 44.42 103.43 31.92 97.72 23.76 88.18 C 14.58 77.97 11.06 63.23 14.01 49.90 C 16.17 40.55 21.17 31.72 28.55 25.53 Z" />
<path fill="#414141" d=" M 378.34 38.11 C 378.79 34.86 382.72 35.54 385.09 35.47 C 389.94 35.84 395.04 34.72 399.73 36.19 C 401.59 39.21 399.77 43.23 401.74 46.17 C 404.12 49.26 408.23 50.22 411.95 50.25 C 419.29 50.34 426.63 50.14 433.97 50.29 C 435.50 50.11 437.06 51.33 437.06 52.92 C 437.31 56.47 437.44 60.08 436.89 63.61 C 435.55 65.48 433.03 65.10 431.04 65.22 C 420.94 65.19 410.85 65.20 400.75 65.21 C 400.75 77.16 400.74 89.11 400.74 101.07 C 400.36 105.89 405.69 108.58 409.84 108.87 C 417.22 109.20 424.61 108.90 432.00 109.02 C 435.95 109.14 440.27 108.16 442.99 105.09 C 445.49 102.35 443.68 98.32 445.14 95.23 C 446.77 93.86 448.99 94.34 450.94 94.22 C 455.45 94.38 460.00 93.96 464.50 94.45 C 467.57 95.60 466.70 99.54 466.70 102.09 C 466.37 110.57 459.37 116.81 452.12 120.07 C 440.46 125.44 427.39 123.73 414.97 124.01 C 405.30 124.25 395.12 122.68 387.14 116.85 C 381.96 113.39 377.92 107.55 378.23 101.12 C 378.34 80.12 378.12 59.11 378.34 38.11 Z" />
<path fill="#414141" d=" M 197.32 50.40 C 209.53 50.02 221.77 50.39 233.99 50.24 C 243.91 49.98 254.30 52.43 262.04 58.90 C 266.21 62.28 269.04 67.52 268.77 72.97 C 268.69 82.97 268.83 92.98 268.70 102.98 C 268.11 111.20 261.07 117.00 254.08 120.21 C 243.11 125.35 230.72 123.73 219.01 124.01 C 209.89 124.27 200.36 123.44 192.30 118.81 C 187.06 115.86 182.14 111.39 180.72 105.33 C 179.16 99.45 181.66 93.11 186.06 89.12 C 193.05 82.71 202.62 79.76 211.97 79.52 C 219.93 79.43 227.88 79.58 235.84 79.49 C 239.65 79.43 243.77 78.06 245.92 74.71 C 247.26 72.35 246.16 69.43 244.13 67.88 C 241.56 65.92 238.29 65.06 235.09 65.18 C 223.38 65.21 211.68 65.20 199.98 65.21 C 198.16 65.21 195.67 65.08 195.24 62.87 C 194.78 59.61 194.89 56.28 195.12 53.01 C 195.12 51.73 196.17 50.75 197.32 50.40 Z" />
<path fill="#414141" d=" M 308.23 50.35 C 316.49 50.10 324.75 50.34 333.01 50.24 C 342.70 50.02 352.85 52.33 360.52 58.51 C 364.62 61.75 367.74 66.60 367.74 71.96 C 367.77 81.68 367.74 91.39 367.75 101.11 C 367.84 105.51 366.15 109.89 363.09 113.07 C 356.52 120.27 346.61 123.51 337.07 123.97 C 328.28 124.13 319.49 123.85 310.70 124.07 C 307.12 124.39 302.61 126.10 301.87 130.05 C 301.44 136.67 302.05 143.32 301.64 149.94 C 301.57 151.76 299.89 153.08 298.12 152.95 C 292.78 153.01 287.41 153.16 282.08 152.87 C 280.06 152.87 279.11 150.78 279.27 149.03 C 279.21 123.67 279.28 98.31 279.24 72.96 C 279.08 68.75 280.67 64.61 283.44 61.46 C 289.71 54.51 299.07 51.08 308.23 50.35 Z" />
<path fill="#414141" d=" M 506.31 50.34 C 511.85 50.12 517.39 50.31 522.94 50.25 C 529.91 50.36 537.00 49.70 543.84 51.48 C 550.43 53.12 556.82 56.37 561.45 61.42 C 566.36 66.81 567.05 75.59 562.75 81.53 C 558.15 87.83 550.77 91.56 543.28 93.23 C 534.99 95.26 526.40 94.28 517.97 94.50 C 513.25 94.65 508.24 93.81 503.82 95.90 C 501.02 97.26 498.34 100.63 500.07 103.81 C 502.19 107.65 506.86 109.09 511.02 109.01 C 523.69 108.99 536.36 109.02 549.04 108.98 C 550.52 109.01 552.08 108.96 553.50 109.52 C 555.34 112.64 554.27 116.48 554.51 119.92 C 554.86 122.01 553.29 124.08 551.11 123.93 C 538.40 124.12 525.69 123.93 512.99 124.01 C 504.11 124.14 494.87 122.67 487.34 117.70 C 481.59 114.20 476.76 108.12 477.23 101.06 C 477.28 91.37 477.23 81.68 477.25 71.98 C 477.18 67.58 479.24 63.39 482.36 60.36 C 488.72 54.15 497.55 50.96 506.31 50.34 Z" />
<path fill="#414141" d=" M 605.28 50.34 C 613.85 50.11 622.44 50.34 631.03 50.23 C 642.96 50.02 656.41 54.40 662.81 65.13 C 664.84 68.98 664.76 73.51 664.33 77.72 C 663.64 79.99 660.86 79.72 659.01 79.77 C 654.18 79.63 649.31 80.04 644.50 79.55 C 640.21 77.73 643.95 71.77 640.92 69.02 C 638.51 66.20 634.69 65.06 631.08 65.18 C 623.36 65.25 615.64 65.11 607.92 65.24 C 603.70 65.51 598.27 68.03 598.52 72.98 C 598.44 88.67 598.57 104.37 598.47 120.06 C 598.78 122.21 597.13 123.99 594.99 123.91 C 589.67 124.06 584.32 124.15 579.01 123.86 C 576.58 123.76 575.90 121.14 576.03 119.16 C 575.96 104.09 576.01 89.01 576.01 73.93 C 575.90 69.41 577.21 64.79 580.32 61.41 C 586.66 54.48 596.05 51.00 605.28 50.34 Z" />
<path fill="#414141" d=" M 678.48 50.42 C 691.31 50.00 704.17 50.39 717.01 50.24 C 727.83 50.31 739.53 53.75 746.57 62.43 C 751.99 69.46 749.40 78.81 750.00 86.98 C 749.41 94.74 751.75 103.36 747.40 110.37 C 742.60 117.41 734.40 121.43 726.23 123.07 C 717.24 124.66 708.07 123.76 698.99 124.01 C 688.80 124.30 677.95 122.74 669.69 116.31 C 664.21 112.56 660.49 105.83 661.66 99.09 C 662.41 93.50 666.60 89.16 671.08 86.11 C 677.73 81.51 685.91 79.66 693.90 79.50 C 701.62 79.46 709.35 79.57 717.07 79.49 C 720.80 79.48 724.91 78.11 726.97 74.81 C 728.67 72.23 727.07 68.84 724.65 67.38 C 720.66 64.54 715.56 65.26 710.97 65.19 C 700.62 65.14 690.26 65.33 679.92 65.11 C 678.02 65.30 676.13 64.08 676.30 62.01 C 676.48 58.44 675.38 54.40 677.14 51.14 C 677.48 50.96 678.15 50.60 678.48 50.42 Z" />
<path fill="#414141" d=" M 749.99 51.80 C 752.40 51.81 754.82 51.84 757.24 51.83 C 757.77 53.35 758.28 54.88 758.81 56.40 C 759.60 54.55 760.39 52.67 761.67 51.09 C 762.05 53.55 762.25 56.04 762.45 58.52 L 761.32 58.51 C 761.27 57.31 761.15 54.91 761.09 53.70 C 760.32 55.54 759.59 57.37 758.76 59.18 C 758.29 57.85 757.37 55.19 756.90 53.87 C 756.67 55.24 756.20 57.97 755.96 59.34 C 755.46 56.94 755.71 54.49 755.77 52.07 C 752.01 51.97 753.56 55.61 753.15 57.71 C 752.87 58.06 752.31 58.75 752.03 59.10 C 752.00 56.99 751.99 54.87 751.99 52.76 C 751.49 52.75 750.50 52.74 750.00 52.73 L 749.99 51.80 Z" />
<path fill="#ffffff" d=" M 301.74 73.00 C 301.35 68.00 306.97 65.47 311.19 65.24 C 318.82 65.11 326.45 65.26 334.08 65.18 C 338.19 65.01 342.70 66.50 344.98 70.11 C 345.67 71.98 345.46 74.01 345.53 75.97 C 345.44 84.31 345.57 92.66 345.48 101.01 C 345.56 106.25 339.64 108.91 335.11 108.97 C 323.99 109.06 312.87 108.97 301.74 109.00 C 301.76 97.00 301.73 85.00 301.74 73.00 Z" />
<path fill="#ffffff" d=" M 500.08 70.15 C 502.04 66.78 506.11 65.24 509.86 65.20 C 517.27 65.18 524.67 65.21 532.08 65.18 C 535.68 65.10 539.54 66.12 542.00 68.89 C 543.77 70.77 543.81 74.18 541.87 75.96 C 539.36 78.61 535.57 79.56 532.03 79.51 C 521.18 79.51 510.33 79.50 499.49 79.50 C 499.60 76.39 499.08 73.15 500.08 70.15 Z" />
<path fill="#ffffff" d=" M 204.11 98.11 C 206.55 95.36 210.42 94.47 213.96 94.49 C 224.80 94.50 235.65 94.51 246.50 94.50 C 246.21 98.01 247.42 102.06 245.20 105.14 C 242.67 107.93 238.74 109.05 235.06 109.01 C 228.01 109.00 220.96 109.02 213.91 109.00 C 210.28 109.02 206.37 107.93 203.98 105.05 C 202.22 103.15 202.35 99.97 204.11 98.11 Z" />
<path fill="#ffffff" d=" M 684.08 100.18 C 685.52 96.23 690.13 94.64 694.01 94.52 C 705.27 94.46 716.54 94.51 727.80 94.51 C 727.65 97.70 728.32 101.10 727.02 104.12 C 724.75 107.80 720.10 109.12 716.00 109.01 C 708.27 108.90 700.52 109.21 692.80 108.85 C 688.47 108.49 682.89 105.25 684.08 100.18 Z" />
</svg>
