<?xml version="1.0" encoding="UTF-8" ?>
<!DOCTYPE svg PUBLIC "-//W3C//DTD SVG 1.1//EN" "http://www.w3.org/Graphics/SVG/1.1/DTD/svg11.dtd">
<svg width="144pt" height="145pt" viewBox="0 0 144 145" version="1.1" xmlns="http://www.w3.org/2000/svg">
<path fill="#ffffff" d=" M 0.00 0.00 L 144.00 0.00 L 144.00 145.00 L 0.00 145.00 L 0.00 0.00 Z" />
<path fill="#3f4042" d=" M 61.55 9.78 C 70.76 8.76 80.25 9.07 89.12 11.95 C 107.52 17.65 123.12 31.99 130.03 50.02 C 134.41 61.01 135.44 73.18 133.45 84.81 C 133.16 85.13 132.58 85.77 132.29 86.09 C 130.63 94.62 126.80 102.62 121.66 109.59 C 119.11 112.93 116.68 116.86 112.40 118.14 C 115.74 114.87 118.88 111.39 121.56 107.54 C 129.47 96.74 132.65 83.17 132.57 69.95 C 131.25 58.21 128.55 46.17 121.67 36.35 C 117.35 30.79 112.55 25.49 106.78 21.40 C 99.33 16.19 90.88 12.23 81.87 10.75 C 62.30 7.17 41.33 13.30 27.08 27.26 C 16.51 37.36 9.74 51.42 8.69 66.03 C 8.37 70.33 8.55 74.66 8.76 78.96 C 9.55 79.86 10.35 80.74 11.11 81.67 C 10.18 82.26 9.24 82.84 8.31 83.42 C 6.05 70.12 7.88 56.07 14.06 44.03 C 23.05 25.77 41.45 12.66 61.55 9.78 Z" />
<path fill="#ffffff" d=" M 27.08 27.26 C 41.33 13.30 62.30 7.17 81.87 10.75 C 82.94 12.66 83.44 15.43 85.93 15.97 C 93.00 18.19 99.54 21.75 105.61 25.97 C 107.68 27.47 109.62 29.12 111.50 30.85 C 110.80 30.97 110.11 31.08 109.41 31.18 C 105.07 26.48 99.43 23.18 93.63 20.60 C 93.46 20.51 93.11 20.33 92.94 20.24 L 92.46 20.00 C 92.11 19.81 91.41 19.44 91.06 19.25 C 90.64 19.13 89.78 18.88 89.35 18.76 C 89.05 18.62 88.43 18.33 88.13 18.19 C 87.69 18.09 86.83 17.87 86.39 17.76 C 86.18 17.74 85.74 17.69 85.52 17.66 C 77.55 15.04 69.09 15.77 60.87 16.26 C 60.11 16.42 59.40 16.72 58.73 17.15 C 57.46 16.63 56.57 16.94 56.03 18.09 C 56.67 18.08 57.94 18.05 58.58 18.04 C 60.83 18.20 63.08 18.45 65.34 18.60 C 58.37 19.29 51.64 21.47 45.20 24.09 C 40.07 27.52 35.04 31.14 30.22 35.01 C 29.23 34.95 28.24 34.90 27.24 34.88 C 26.93 35.25 26.29 35.99 25.98 36.36 C 26.89 33.08 29.97 30.91 30.48 27.46 C 29.63 27.41 27.93 27.31 27.08 27.26 Z" />
<path fill="#d7dcdf" d=" M 81.87 10.75 C 90.88 12.23 99.33 16.19 106.78 21.40 C 106.38 22.93 105.99 24.45 105.61 25.97 C 99.54 21.75 93.00 18.19 85.93 15.97 C 83.44 15.43 82.94 12.66 81.87 10.75 Z" />
<path fill="#3f4042" d=" M 60.87 16.26 C 69.09 15.77 77.55 15.04 85.52 17.66 C 80.32 17.79 75.27 15.97 70.06 16.43 C 66.99 16.53 63.81 17.69 60.87 16.26 Z" />
<path fill="#b0b6b9" d=" M 58.73 17.15 C 59.40 16.72 60.11 16.42 60.87 16.26 C 63.81 17.69 66.99 16.53 70.06 16.43 C 75.27 15.97 80.32 17.79 85.52 17.66 C 85.74 17.69 86.18 17.74 86.39 17.76 L 86.30 18.61 L 87.03 19.09 C 87.31 18.86 87.85 18.42 88.13 18.19 C 88.43 18.33 89.05 18.62 89.35 18.76 L 89.23 19.60 L 89.94 20.10 C 90.22 19.89 90.78 19.46 91.06 19.25 C 91.41 19.44 92.11 19.81 92.46 20.00 L 92.45 20.54 L 92.87 20.70 L 92.94 20.24 C 93.11 20.33 93.46 20.51 93.63 20.60 C 95.40 22.31 97.27 23.92 99.33 25.28 C 100.81 25.72 102.28 26.26 103.53 27.21 C 103.14 27.69 102.35 28.66 101.96 29.14 C 103.50 30.04 105.02 30.97 106.51 31.95 C 101.85 32.15 97.16 31.76 92.67 30.47 C 95.38 30.42 98.09 30.26 100.80 30.06 C 99.53 29.60 98.27 29.15 97.00 28.70 C 98.04 28.21 99.11 27.76 100.15 27.28 C 99.77 27.19 98.99 27.01 98.60 26.92 C 89.29 19.57 76.82 18.18 65.34 18.60 C 63.08 18.45 60.83 18.20 58.58 18.04 L 58.73 17.15 Z" />
<path fill="#5f6367" d=" M 56.03 18.09 C 56.57 16.94 57.46 16.63 58.73 17.15 L 58.58 18.04 C 57.94 18.05 56.67 18.08 56.03 18.09 Z" />
<path fill="#221f20" d=" M 36.08 27.41 C 41.92 23.06 48.53 19.24 55.79 18.02 C 46.19 21.44 36.50 26.06 29.98 34.19 C 29.56 33.86 29.15 33.51 28.74 33.17 C 31.51 31.70 33.52 29.19 36.08 27.41 Z" />
<path fill="#5f6367" d=" M 86.39 17.76 C 86.83 17.87 87.69 18.09 88.13 18.19 C 87.85 18.42 87.31 18.86 87.03 19.09 L 86.30 18.61 L 86.39 17.76 Z" />
<path fill="#81888e" d=" M 45.20 24.09 C 51.64 21.47 58.37 19.29 65.34 18.60 C 76.82 18.18 89.29 19.57 98.60 26.92 C 96.75 27.38 94.90 27.85 93.02 28.19 C 93.02 27.79 93.02 26.99 93.02 26.59 C 93.25 26.25 93.71 25.56 93.94 25.22 C 83.89 21.17 72.71 19.28 61.98 21.44 C 51.71 23.16 41.99 28.18 34.56 35.45 C 32.38 37.38 31.14 40.48 28.30 41.56 C 28.40 40.46 28.50 39.36 28.60 38.26 C 28.15 38.66 27.26 39.47 26.81 39.87 C 26.48 39.29 25.83 38.15 25.50 37.57 C 25.62 37.27 25.86 36.66 25.98 36.36 C 26.29 35.99 26.93 35.25 27.24 34.88 C 28.24 34.90 29.23 34.95 30.22 35.01 C 35.04 31.14 40.07 27.52 45.20 24.09 Z" />
<path fill="#5f6367" d=" M 89.35 18.76 C 89.78 18.88 90.64 19.13 91.06 19.25 C 90.78 19.46 90.22 19.89 89.94 20.10 L 89.23 19.60 L 89.35 18.76 Z" />
<path fill="#3f4042" d=" M 92.46 20.00 L 92.94 20.24 L 92.87 20.70 L 92.45 20.54 L 92.46 20.00 Z" />
<path fill="#ffffff" d=" M 34.56 35.45 C 41.99 28.18 51.71 23.16 61.98 21.44 C 72.71 19.28 83.89 21.17 93.94 25.22 C 93.71 25.56 93.25 26.25 93.02 26.59 C 89.71 26.53 86.42 26.14 83.11 26.20 C 83.09 26.55 83.05 27.25 83.02 27.60 C 82.79 30.98 82.82 34.37 82.88 37.75 C 73.85 37.54 64.80 37.49 55.77 37.71 C 55.44 37.90 54.78 38.27 54.44 38.45 C 53.54 42.16 54.15 46.08 53.98 49.87 C 44.47 49.99 34.85 49.08 25.40 50.32 C 25.39 50.64 25.37 51.28 25.36 51.59 C 25.41 61.40 25.24 71.21 25.52 81.02 C 25.84 89.55 27.20 97.96 29.44 106.19 C 27.87 104.79 26.52 103.16 25.62 101.26 C 22.64 95.51 19.82 89.52 18.95 83.03 C 18.19 75.28 19.27 67.58 19.43 59.85 C 19.70 58.12 20.19 56.43 20.70 54.76 C 22.36 51.22 24.37 47.78 25.18 43.92 C 25.32 45.28 25.58 46.66 27.20 46.60 C 27.27 45.03 27.35 43.47 27.45 41.91 L 28.30 41.56 C 31.14 40.48 32.38 37.38 34.56 35.45 Z" />
<path fill="#3f4042" d=" M 93.63 20.60 C 99.43 23.18 105.07 26.48 109.41 31.18 C 107.24 30.18 105.41 28.64 103.53 27.21 C 102.28 26.26 100.81 25.72 99.33 25.28 C 97.27 23.92 95.40 22.31 93.63 20.60 Z" />
<path fill="#b0b6b9" d=" M 106.78 21.40 C 112.55 25.49 117.35 30.79 121.67 36.35 C 128.55 46.17 131.25 58.21 132.57 69.95 C 132.65 83.17 129.47 96.74 121.56 107.54 C 119.98 107.93 118.40 108.38 116.88 108.96 C 126.10 98.22 132.32 84.39 131.44 70.01 C 131.83 58.14 125.32 47.49 118.06 38.68 C 115.54 36.34 114.17 33.05 111.50 30.85 C 109.62 29.12 107.68 27.47 105.61 25.97 C 105.99 24.45 106.38 22.93 106.78 21.40 Z" />
<path fill="#5f6367" d=" M 83.11 26.20 C 86.42 26.14 89.71 26.53 93.02 26.59 C 93.02 26.99 93.02 27.79 93.02 28.19 C 94.90 27.85 96.75 27.38 98.60 26.92 C 98.99 27.01 99.77 27.19 100.15 27.28 C 99.11 27.76 98.04 28.21 97.00 28.70 C 98.27 29.15 99.53 29.60 100.80 30.06 C 98.09 30.26 95.38 30.42 92.67 30.47 C 90.02 29.98 87.36 29.59 84.70 29.15 C 84.28 28.76 83.44 27.98 83.02 27.60 C 83.05 27.25 83.09 26.55 83.11 26.20 Z" />
<path fill="#d7dcdf" d=" M 27.08 27.26 C 27.93 27.31 29.63 27.41 30.48 27.46 C 29.97 30.91 26.89 33.08 25.98 36.36 C 25.86 36.66 25.62 37.27 25.50 37.57 C 18.91 46.75 13.40 57.71 14.42 69.33 C 15.18 66.88 13.37 61.94 17.47 62.65 C 16.35 68.80 16.32 75.16 17.70 81.27 C 17.58 74.14 16.56 66.60 19.43 59.85 C 19.27 67.58 18.19 75.28 18.95 83.03 C 18.56 84.15 18.18 85.28 17.80 86.40 C 16.80 86.88 15.80 87.36 14.80 87.84 C 13.75 85.68 12.50 83.63 11.11 81.67 C 10.35 80.74 9.55 79.86 8.76 78.96 C 8.55 74.66 8.37 70.33 8.69 66.03 C 9.74 51.42 16.51 37.36 27.08 27.26 Z" />
<path fill="#221f20" d=" M 83.02 27.60 C 83.44 27.98 84.28 28.76 84.70 29.15 C 85.12 29.77 85.53 30.39 85.93 31.03 C 84.69 33.07 84.50 35.46 84.36 37.79 C 83.99 37.78 83.25 37.76 82.88 37.75 C 82.82 34.37 82.79 30.98 83.02 27.60 Z" />
<path fill="#d7dcdf" d=" M 103.53 27.21 C 105.41 28.64 107.24 30.18 109.41 31.18 C 110.11 31.08 110.80 30.97 111.50 30.85 C 114.17 33.05 115.54 36.34 118.06 38.68 L 118.49 39.38 C 117.92 39.67 116.78 40.24 116.21 40.53 L 115.76 39.90 C 115.72 37.15 113.62 35.24 111.75 33.51 C 111.91 34.63 112.30 35.66 112.92 36.60 L 112.28 37.31 C 111.91 42.86 112.05 48.44 112.01 54.00 C 112.23 57.84 111.74 62.22 114.55 65.29 C 114.02 66.88 113.41 68.44 112.64 69.93 L 110.82 68.74 L 111.43 70.99 C 110.91 71.05 109.87 71.16 109.35 71.22 C 109.62 68.85 109.91 66.49 110.20 64.12 C 110.77 61.48 111.14 58.78 110.95 56.07 C 110.63 49.20 111.47 42.27 110.40 35.44 L 110.60 34.93 C 110.67 34.75 110.83 34.39 110.91 34.21 C 103.22 33.87 95.52 33.74 87.84 34.05 C 87.20 33.04 86.56 32.03 85.93 31.03 C 85.53 30.39 85.12 29.77 84.70 29.15 C 87.36 29.59 90.02 29.98 92.67 30.47 C 97.16 31.76 101.85 32.15 106.51 31.95 C 105.02 30.97 103.50 30.04 101.96 29.14 C 102.35 28.66 103.14 27.69 103.53 27.21 Z" />
<path fill="#5f6367" d=" M 84.36 37.79 C 84.50 35.46 84.69 33.07 85.93 31.03 C 86.56 32.03 87.20 33.04 87.84 34.05 C 95.52 33.74 103.22 33.87 110.91 34.21 C 110.83 34.39 110.67 34.75 110.60 34.93 C 103.49 34.29 96.36 34.65 89.25 34.98 L 88.16 35.03 C 88.11 40.08 87.73 45.13 87.98 50.18 C 87.55 50.32 86.70 50.61 86.27 50.75 C 85.88 46.95 86.39 43.16 86.67 39.37 C 86.26 39.44 85.43 39.58 85.02 39.65 C 83.53 42.97 79.71 40.74 77.03 40.83 C 69.90 40.48 62.74 40.58 55.65 39.49 C 55.95 40.05 56.55 41.15 56.85 41.70 C 57.46 42.83 58.09 43.95 58.68 45.08 C 58.79 45.38 59.01 45.96 59.13 46.26 C 58.86 50.50 58.92 54.75 58.71 58.99 C 58.48 59.30 58.01 59.92 57.77 60.23 C 57.34 57.73 57.03 55.19 56.31 52.75 C 51.25 54.56 46.09 52.50 40.94 52.60 C 36.13 52.59 31.33 52.30 26.55 51.76 C 26.26 51.72 25.66 51.64 25.36 51.59 C 25.37 51.28 25.39 50.64 25.40 50.32 C 34.85 49.08 44.47 49.99 53.98 49.87 C 54.15 46.08 53.54 42.16 54.44 38.45 C 54.78 38.27 55.44 37.90 55.77 37.71 C 64.80 37.49 73.85 37.54 82.88 37.75 C 83.25 37.76 83.99 37.78 84.36 37.79 Z" />
<path fill="#3f4042" d=" M 111.75 33.51 C 113.62 35.24 115.72 37.15 115.76 39.90 L 116.21 40.53 C 116.60 41.66 117.12 42.77 117.31 43.96 C 116.02 51.59 116.83 59.37 116.06 67.05 C 115.56 70.52 114.64 73.92 113.98 77.37 C 113.27 75.32 112.83 73.19 112.74 71.02 C 112.69 70.66 112.66 70.30 112.64 69.93 C 113.41 68.44 114.02 66.88 114.55 65.29 C 115.87 61.69 115.47 57.81 115.23 54.07 C 114.81 49.00 115.03 43.83 113.54 38.91 C 113.70 38.47 114.02 37.59 114.18 37.15 L 112.92 36.60 C 112.30 35.66 111.91 34.63 111.75 33.51 Z" />
<path fill="#ffffff" d=" M 88.16 35.03 L 89.25 34.98 C 87.82 45.06 89.90 55.14 89.45 65.24 C 89.62 62.29 89.51 59.25 90.65 56.47 C 91.77 57.30 92.87 58.16 93.95 59.05 C 95.50 61.15 97.06 63.25 98.64 65.33 C 99.00 65.83 99.72 66.83 100.08 67.33 L 100.28 67.69 L 100.52 67.97 C 101.26 69.12 102.01 70.26 102.83 71.35 C 105.07 73.91 107.33 76.62 107.63 80.17 C 108.43 77.28 108.83 74.31 109.04 71.32 C 109.50 71.99 109.95 72.68 110.39 73.37 L 110.06 75.04 C 108.56 81.97 105.92 88.68 101.98 94.59 L 100.65 94.69 C 102.94 91.68 104.69 88.28 105.86 84.68 C 103.17 87.17 102.20 90.86 99.99 93.72 C 93.93 85.66 91.23 75.57 90.37 65.65 C 89.69 67.13 89.02 68.61 88.36 70.09 C 87.63 68.76 86.76 67.53 85.76 66.39 C 85.96 71.86 87.22 77.20 88.02 82.59 C 87.85 82.68 87.50 82.86 87.33 82.95 L 87.12 81.95 C 85.31 73.10 85.54 64.00 84.19 55.08 C 84.35 54.80 84.66 54.23 84.82 53.95 C 85.64 55.05 86.47 56.15 87.31 57.25 C 88.08 54.97 88.21 52.56 87.98 50.18 C 87.73 45.13 88.11 40.08 88.16 35.03 Z" />
<path fill="#81888e" d=" M 89.25 34.98 C 96.36 34.65 103.49 34.29 110.60 34.93 L 110.40 35.44 L 109.76 37.17 C 103.77 37.52 97.76 37.21 91.76 37.33 C 94.15 41.64 97.44 45.33 100.26 49.34 L 99.67 48.79 C 96.06 45.43 93.70 40.99 90.30 37.43 C 90.18 42.03 89.19 46.72 90.26 51.27 C 89.39 54.33 92.71 56.52 93.95 59.05 C 92.87 58.16 91.77 57.30 90.65 56.47 C 89.51 59.25 89.62 62.29 89.45 65.24 C 89.90 55.14 87.82 45.06 89.25 34.98 Z" />
<path fill="#5f6367" d=" M 110.40 35.44 C 111.47 42.27 110.63 49.20 110.95 56.07 L 109.92 56.70 C 110.11 50.19 109.98 43.68 109.76 37.17 L 110.40 35.44 Z" />
<path fill="#ffffff" d=" M 91.76 37.33 C 97.76 37.21 103.77 37.52 109.76 37.17 C 109.98 43.68 110.11 50.19 109.92 56.70 C 109.66 57.93 109.40 59.16 109.15 60.39 C 107.69 58.65 106.30 56.86 104.88 55.10 C 104.31 54.36 103.76 53.62 103.20 52.87 C 102.83 52.33 102.08 51.24 101.70 50.69 C 101.22 50.24 100.74 49.80 100.26 49.34 C 97.44 45.33 94.15 41.64 91.76 37.33 Z" />
<path fill="#81888e" d=" M 112.28 37.31 L 112.92 36.60 L 114.18 37.15 C 114.02 37.59 113.70 38.47 113.54 38.91 C 115.03 43.83 114.81 49.00 115.23 54.07 C 115.47 57.81 115.87 61.69 114.55 65.29 C 111.74 62.22 112.23 57.84 112.01 54.00 C 112.05 48.44 111.91 42.86 112.28 37.31 Z" />
<path fill="#3f4042" d=" M 14.42 69.33 C 13.40 57.71 18.91 46.75 25.50 37.57 C 25.83 38.15 26.48 39.29 26.81 39.87 C 27.26 39.47 28.15 38.66 28.60 38.26 C 28.50 39.36 28.40 40.46 28.30 41.56 L 27.45 41.91 C 27.35 43.47 27.27 45.03 27.20 46.60 C 25.58 46.66 25.32 45.28 25.18 43.92 C 24.37 47.78 22.36 51.22 20.70 54.76 C 20.19 56.43 19.70 58.12 19.43 59.85 C 16.56 66.60 17.58 74.14 17.70 81.27 C 16.32 75.16 16.35 68.80 17.47 62.65 C 13.37 61.94 15.18 66.88 14.42 69.33 Z" />
<path fill="#ffffff" d=" M 90.30 37.43 C 93.70 40.99 96.06 45.43 99.67 48.79 C 98.35 51.64 96.09 53.82 93.69 55.77 C 92.56 54.25 91.40 52.77 90.26 51.27 C 89.19 46.72 90.18 42.03 90.30 37.43 Z" />
<path fill="#010303" d=" M 118.06 38.68 C 125.32 47.49 131.83 58.14 131.44 70.01 C 132.32 84.39 126.10 98.22 116.88 108.96 C 114.00 111.99 110.72 114.61 107.59 117.38 C 93.41 128.86 73.77 133.33 56.08 128.71 C 52.88 127.79 49.75 126.65 46.62 125.51 L 47.66 124.76 C 58.34 129.36 70.62 131.00 81.96 128.12 C 82.18 128.12 82.63 128.11 82.86 128.11 C 102.27 124.15 118.67 108.95 124.56 90.08 C 124.09 90.08 123.16 90.08 122.69 90.07 C 121.33 96.87 116.99 102.62 112.80 107.96 C 109.92 111.86 105.27 113.83 102.27 117.61 C 102.36 117.23 102.53 116.49 102.62 116.11 C 110.38 110.60 116.23 102.70 120.25 94.13 C 120.85 92.42 121.49 90.72 122.20 89.05 C 122.52 87.25 122.83 85.46 123.13 83.67 C 123.17 85.03 123.23 86.40 123.32 87.77 C 123.95 88.36 124.58 88.96 125.22 89.55 C 127.29 81.18 128.82 72.49 127.69 63.85 C 126.51 58.37 124.96 52.93 122.71 47.78 C 121.38 44.95 120.03 42.11 118.49 39.38 L 118.06 38.68 Z" />
<path fill="#b0b6b9" d=" M 85.02 39.65 C 85.43 39.58 86.26 39.44 86.67 39.37 C 86.39 43.16 85.88 46.95 86.27 50.75 C 86.70 50.61 87.55 50.32 87.98 50.18 C 88.21 52.56 88.08 54.97 87.31 57.25 C 86.47 56.15 85.64 55.05 84.82 53.95 C 84.66 54.23 84.35 54.80 84.19 55.08 C 83.86 52.90 83.46 50.73 83.14 48.56 C 83.13 46.90 83.69 45.31 84.08 43.72 C 74.98 43.35 65.93 42.31 56.85 41.70 C 56.55 41.15 55.95 40.05 55.65 39.49 C 62.74 40.58 69.90 40.48 77.03 40.83 C 79.71 40.74 83.53 42.97 85.02 39.65 Z" />
<path fill="#ffffff" d=" M 116.21 40.53 C 116.78 40.24 117.92 39.67 118.49 39.38 C 120.03 42.11 121.38 44.95 122.71 47.78 C 121.57 46.44 120.37 45.14 119.13 43.88 C 119.34 47.05 119.50 50.29 120.77 53.25 C 124.61 62.88 124.99 73.55 123.13 83.67 C 122.83 85.46 122.52 87.25 122.20 89.05 C 121.49 90.72 120.85 92.42 120.25 94.13 C 116.23 102.70 110.38 110.60 102.62 116.11 C 99.19 117.77 95.88 119.64 92.52 121.43 C 92.56 121.79 92.63 122.50 92.67 122.85 C 90.85 123.55 89.04 124.24 87.21 124.88 C 85.54 124.58 83.73 123.70 82.10 124.71 C 82.92 124.83 84.55 125.08 85.37 125.21 L 85.35 126.20 C 84.68 126.21 83.34 126.23 82.67 126.24 C 82.72 126.71 82.81 127.64 82.86 128.11 C 82.63 128.11 82.18 128.12 81.96 128.12 C 75.47 125.09 68.23 126.54 61.37 125.47 C 56.73 124.67 51.98 123.78 47.89 121.31 C 52.64 114.85 56.59 107.07 55.37 98.81 C 58.29 99.33 58.32 96.61 58.63 94.46 C 59.22 97.60 60.53 100.50 61.71 103.45 C 63.13 108.25 67.36 111.59 68.47 116.53 C 70.15 116.29 72.23 116.93 73.55 115.54 C 78.45 111.14 81.53 105.10 83.83 99.02 C 85.40 95.06 85.62 90.54 88.28 87.05 C 89.09 89.18 90.03 91.25 90.98 93.32 C 91.86 95.24 92.85 97.11 94.02 98.87 C 94.67 99.50 95.33 100.12 96.00 100.72 C 96.97 101.88 98.03 103.00 99.36 103.77 C 101.10 103.85 101.92 102.12 102.98 101.05 C 108.86 94.43 112.04 85.89 113.98 77.37 C 114.64 73.92 115.56 70.52 116.06 67.05 C 116.83 59.37 116.02 51.59 117.31 43.96 C 117.12 42.77 116.60 41.66 116.21 40.53 Z" />
<path fill="#d7dcdf" d=" M 56.85 41.70 C 65.93 42.31 74.98 43.35 84.08 43.72 C 83.69 45.31 83.13 46.90 83.14 48.56 C 83.14 51.41 83.34 54.25 83.33 57.11 L 81.87 57.12 C 81.76 53.22 81.87 49.31 81.88 45.41 C 74.16 44.77 66.41 45.00 58.68 45.08 C 58.09 43.95 57.46 42.83 56.85 41.70 Z" />
<path fill="#b0b6b9" d=" M 58.68 45.08 C 66.41 45.00 74.16 44.77 81.88 45.41 C 81.87 49.31 81.76 53.22 81.87 57.12 C 82.39 63.98 80.92 70.99 82.73 77.72 C 82.70 78.06 82.62 78.74 82.59 79.08 C 82.20 78.77 81.41 78.14 81.02 77.83 C 81.00 77.05 80.97 75.50 80.95 74.72 C 80.95 74.38 80.95 73.69 80.95 73.35 C 81.21 65.46 81.36 57.57 80.93 49.69 C 75.11 50.08 68.76 48.25 63.33 50.87 C 62.71 50.36 62.10 49.85 61.49 49.34 C 61.24 53.62 61.09 57.90 60.79 62.18 C 60.75 62.88 60.66 64.28 60.62 64.98 C 58.86 58.87 61.25 52.28 59.13 46.26 C 59.01 45.96 58.79 45.38 58.68 45.08 Z" />
<path fill="#81888e" d=" M 119.13 43.88 C 120.37 45.14 121.57 46.44 122.71 47.78 C 124.96 52.93 126.51 58.37 127.69 63.85 C 128.82 72.49 127.29 81.18 125.22 89.55 C 124.58 88.96 123.95 88.36 123.32 87.77 C 123.23 86.40 123.17 85.03 123.13 83.67 C 124.99 73.55 124.61 62.88 120.77 53.25 C 119.50 50.29 119.34 47.05 119.13 43.88 Z" />
<path fill="#d7dcdf" d=" M 59.13 46.26 C 61.25 52.28 58.86 58.87 60.62 64.98 C 61.70 66.51 62.92 67.92 64.04 69.42 C 63.53 69.81 62.51 70.59 62.00 70.98 C 61.83 77.75 62.80 84.44 64.20 91.04 C 63.82 91.61 63.07 92.74 62.69 93.31 C 59.89 84.88 59.57 75.93 57.31 67.38 C 56.73 72.30 57.27 77.27 56.56 82.18 C 55.93 75.11 55.31 68.04 54.62 60.98 C 54.72 60.82 54.92 60.50 55.02 60.34 C 55.52 60.87 56.51 61.93 57.00 62.47 C 59.22 63.36 58.24 60.08 58.71 58.99 C 58.92 54.75 58.86 50.50 59.13 46.26 Z" />
<path fill="#ffffff" d=" M 60.79 62.18 C 61.09 57.90 61.24 53.62 61.49 49.34 C 62.10 49.85 62.71 50.36 63.33 50.87 C 68.76 48.25 75.11 50.08 80.93 49.69 C 81.36 57.57 81.21 65.46 80.95 73.35 L 80.14 72.18 C 77.14 68.04 73.90 64.07 70.84 59.98 C 68.59 57.00 66.65 53.73 63.73 51.34 C 65.88 55.38 68.97 58.80 71.59 62.52 C 69.33 64.16 67.05 65.77 64.75 67.35 C 63.45 65.61 62.13 63.89 60.79 62.18 Z" />
<path fill="#221f20" d=" M 83.14 48.56 C 83.46 50.73 83.86 52.90 84.19 55.08 C 85.54 64.00 85.31 73.10 87.12 81.95 C 84.96 86.51 80.60 91.36 82.94 96.69 C 80.37 103.26 76.94 109.74 71.59 114.47 C 70.47 115.37 69.48 114.97 69.18 113.58 C 69.92 113.79 70.65 114.02 71.39 114.25 C 71.56 112.00 71.06 109.44 72.54 107.50 C 76.35 101.94 79.21 95.71 80.72 89.13 C 81.43 85.80 82.03 82.44 82.59 79.08 C 82.62 78.74 82.70 78.06 82.73 77.72 C 83.22 70.86 83.19 63.98 83.33 57.11 C 83.34 54.25 83.14 51.41 83.14 48.56 Z" />
<path fill="#d7dcdf" d=" M 99.67 48.79 L 100.26 49.34 C 100.74 49.80 101.22 50.24 101.70 50.69 C 99.85 51.54 101.83 53.41 103.20 52.87 C 103.76 53.62 104.31 54.36 104.88 55.10 L 104.15 54.49 C 104.18 58.26 102.80 61.73 100.75 64.84 C 98.45 61.77 95.93 58.87 93.69 55.77 C 96.09 53.82 98.35 51.64 99.67 48.79 Z" />
<path fill="#b0b6b9" d=" M 103.20 52.87 C 101.83 53.41 99.85 51.54 101.70 50.69 C 102.08 51.24 102.83 52.33 103.20 52.87 Z" />
<path fill="#221f20" d=" M 25.36 51.59 C 25.66 51.64 26.26 51.72 26.55 51.76 C 26.83 52.21 27.38 53.11 27.65 53.56 C 25.77 61.83 27.95 70.34 27.25 78.72 C 26.82 79.29 25.95 80.44 25.52 81.02 C 25.24 71.21 25.41 61.40 25.36 51.59 Z" />
<path fill="#b0b6b9" d=" M 26.55 51.76 C 31.33 52.30 36.13 52.59 40.94 52.60 C 46.09 52.50 51.25 54.56 56.31 52.75 C 57.03 55.19 57.34 57.73 57.77 60.23 C 58.01 59.92 58.48 59.30 58.71 58.99 C 58.24 60.08 59.22 63.36 57.00 62.47 C 56.51 61.93 55.52 60.87 55.02 60.34 C 54.92 60.50 54.72 60.82 54.62 60.98 L 54.28 61.53 C 54.30 59.54 54.69 57.59 55.13 55.66 C 51.08 55.71 47.02 55.66 43.00 55.11 C 37.90 54.38 32.70 54.72 27.65 53.56 C 27.38 53.11 26.83 52.21 26.55 51.76 Z" />
<path fill="#b0b6b9" d=" M 63.73 51.34 C 66.65 53.73 68.59 57.00 70.84 59.98 C 73.90 64.07 77.14 68.04 80.14 72.18 C 77.62 73.89 75.35 75.93 73.30 78.17 L 73.15 77.99 C 72.85 77.66 72.27 77.00 71.97 76.67 C 73.32 74.23 74.96 71.83 75.47 69.05 C 74.91 66.54 73.02 64.59 71.59 62.52 C 68.97 58.80 65.88 55.38 63.73 51.34 Z" />
<path fill="#010303" d=" M 93.95 59.05 C 92.71 56.52 89.39 54.33 90.26 51.27 C 91.40 52.77 92.56 54.25 93.69 55.77 C 95.93 58.87 98.45 61.77 100.75 64.84 C 100.86 65.00 101.09 65.33 101.21 65.49 C 100.57 65.45 99.28 65.37 98.64 65.33 C 97.06 63.25 95.50 61.15 93.95 59.05 Z" />
<path fill="#d7dcdf" d=" M 27.25 78.72 C 27.95 70.34 25.77 61.83 27.65 53.56 C 32.70 54.72 37.90 54.38 43.00 55.11 C 47.02 55.66 51.08 55.71 55.13 55.66 C 54.69 57.59 54.30 59.54 54.28 61.53 C 54.40 71.00 54.51 80.49 53.90 89.95 C 52.59 88.21 52.65 86.00 52.62 83.94 C 52.70 75.07 52.65 66.20 52.91 57.33 C 45.12 56.81 37.30 56.88 29.52 57.32 C 29.16 56.70 28.43 55.46 28.06 54.85 C 28.18 61.16 27.40 67.52 28.46 73.80 L 29.89 73.41 C 30.37 75.21 29.44 76.47 27.93 77.32 C 28.15 78.39 28.36 79.45 28.59 80.51 C 28.25 80.70 27.57 81.06 27.24 81.25 C 27.24 80.61 27.25 79.35 27.25 78.72 Z" />
<path fill="#b0b6b9" d=" M 104.15 54.49 L 104.88 55.10 C 106.30 56.86 107.69 58.65 109.15 60.39 C 109.40 59.16 109.66 57.93 109.92 56.70 L 110.95 56.07 C 111.14 58.78 110.77 61.48 110.20 64.12 L 110.03 62.17 C 109.68 62.46 108.99 63.04 108.65 63.33 C 106.90 64.65 105.43 66.28 104.27 68.13 C 103.74 67.80 102.69 67.12 102.16 66.79 C 101.93 66.46 101.45 65.82 101.21 65.49 C 101.09 65.33 100.86 65.00 100.75 64.84 C 102.80 61.73 104.18 58.26 104.15 54.49 Z" />
<path fill="#3f4042" d=" M 28.06 54.85 C 28.43 55.46 29.16 56.70 29.52 57.32 C 29.72 57.64 30.12 58.28 30.32 58.61 C 29.45 63.49 29.72 68.48 29.89 73.41 L 28.46 73.80 C 27.40 67.52 28.18 61.16 28.06 54.85 Z" />
<path fill="#b0b6b9" d=" M 29.52 57.32 C 37.30 56.88 45.12 56.81 52.91 57.33 C 52.65 66.20 52.70 75.07 52.62 83.94 C 52.65 86.00 52.59 88.21 53.90 89.95 C 53.30 96.08 51.99 102.16 49.79 107.92 C 48.49 111.42 46.31 114.52 45.11 118.06 C 45.88 118.24 47.42 118.60 48.19 118.78 C 46.74 119.19 45.30 119.63 43.87 120.07 C 44.81 120.94 45.75 121.81 46.72 122.66 C 48.09 122.52 49.40 122.73 50.66 123.30 C 54.06 124.67 57.73 125.19 61.37 125.47 C 68.23 126.54 75.47 125.09 81.96 128.12 C 70.62 131.00 58.34 129.36 47.66 124.76 C 43.82 122.13 39.32 120.60 35.76 117.55 L 35.54 115.84 C 36.95 116.99 38.44 118.02 39.94 119.05 C 38.92 116.76 37.72 114.57 36.47 112.41 C 33.93 108.14 32.89 103.22 31.97 98.39 L 33.35 98.61 L 34.02 98.72 C 34.15 99.00 34.42 99.56 34.56 99.84 C 33.67 100.85 33.63 101.84 34.44 102.81 L 35.22 102.78 C 35.35 103.06 35.62 103.63 35.76 103.91 C 34.45 104.70 34.58 105.30 36.16 105.71 C 36.22 105.85 36.33 106.12 36.38 106.26 C 36.39 111.00 39.66 114.95 42.14 118.74 C 42.68 117.74 43.21 116.73 43.74 115.73 C 46.32 111.07 48.25 106.10 49.90 101.06 C 50.00 100.71 50.20 100.02 50.30 99.68 C 51.29 95.78 52.01 91.79 52.06 87.76 C 52.05 87.18 52.02 86.01 52.00 85.43 C 52.09 77.48 52.22 69.54 52.01 61.59 C 46.19 61.42 40.36 61.36 34.55 61.67 C 39.48 69.42 45.52 76.39 50.89 83.84 C 48.69 85.94 46.55 88.11 44.15 89.99 C 43.86 89.66 43.28 89.01 42.99 88.68 C 44.60 86.31 45.82 83.70 46.77 81.00 C 45.36 78.46 43.79 76.00 42.00 73.70 C 39.05 69.84 36.29 65.82 33.03 62.21 C 32.59 63.56 32.19 64.92 31.80 66.29 C 31.87 63.91 32.02 61.54 32.23 59.18 C 38.94 59.39 45.66 60.06 52.37 59.51 C 45.39 59.55 38.46 58.90 31.50 58.63 L 30.32 58.61 C 30.12 58.28 29.72 57.64 29.52 57.32 Z" />
<path fill="#ffffff" d=" M 81.87 57.12 L 83.33 57.11 C 83.19 63.98 83.22 70.86 82.73 77.72 C 80.92 70.99 82.39 63.98 81.87 57.12 Z" />
<path fill="#010303" d=" M 31.50 58.63 C 38.46 58.90 45.39 59.55 52.37 59.51 C 45.66 60.06 38.94 59.39 32.23 59.18 C 32.02 61.54 31.87 63.91 31.80 66.29 C 31.72 68.83 31.53 71.40 31.86 73.93 C 32.98 75.97 34.54 77.71 35.91 79.58 C 38.25 82.62 40.45 85.79 42.99 88.68 C 43.28 89.01 43.86 89.66 44.15 89.99 C 43.55 90.09 42.34 90.29 41.73 90.40 C 38.58 86.09 35.38 81.82 31.98 77.71 C 32.14 83.52 32.78 89.31 32.73 95.13 C 30.69 83.09 31.43 70.78 31.50 58.63 Z" />
<path fill="#ffffff" d=" M 30.32 58.61 L 31.50 58.63 C 31.43 70.78 30.69 83.09 32.73 95.13 C 32.78 89.31 32.14 83.52 31.98 77.71 C 35.38 81.82 38.58 86.09 41.73 90.40 C 42.09 90.89 42.82 91.88 43.19 92.37 C 43.28 92.49 43.46 92.74 43.55 92.87 C 44.01 93.51 44.92 94.78 45.38 95.42 C 45.74 95.90 46.12 96.37 46.50 96.84 C 47.64 98.24 48.77 99.65 49.90 101.06 C 48.25 106.10 46.32 111.07 43.74 115.73 C 43.37 116.13 42.62 116.94 42.24 117.35 C 39.91 113.87 37.92 110.16 36.38 106.26 C 36.33 106.12 36.22 105.85 36.16 105.71 C 36.06 105.26 35.86 104.36 35.76 103.91 C 35.62 103.63 35.35 103.06 35.22 102.78 C 35.05 102.05 34.72 100.57 34.56 99.84 C 34.42 99.56 34.15 99.00 34.02 98.72 C 34.10 97.45 34.31 95.73 32.97 95.02 C 32.32 96.32 32.45 97.51 33.35 98.61 L 31.97 98.39 C 30.91 92.24 29.86 86.05 29.90 79.79 L 28.59 80.51 C 28.36 79.45 28.15 78.39 27.93 77.32 C 29.44 76.47 30.37 75.21 29.89 73.41 C 29.72 68.48 29.45 63.49 30.32 58.61 Z" />
<path fill="#221f20" d=" M 54.28 61.53 L 54.62 60.98 C 55.31 68.04 55.93 75.11 56.56 82.18 C 57.27 77.27 56.73 72.30 57.31 67.38 C 59.57 75.93 59.89 84.88 62.69 93.31 C 63.52 96.41 64.61 99.44 65.58 102.50 C 65.88 102.77 66.50 103.31 66.80 103.58 C 65.10 103.52 63.41 103.48 61.71 103.45 C 60.53 100.50 59.22 97.60 58.63 94.46 C 58.32 96.61 58.29 99.33 55.37 98.81 C 56.59 107.07 52.64 114.85 47.89 121.31 C 51.98 123.78 56.73 124.67 61.37 125.47 C 57.73 125.19 54.06 124.67 50.66 123.30 C 49.40 122.73 48.09 122.52 46.72 122.66 C 45.75 121.81 44.81 120.94 43.87 120.07 C 45.30 119.63 46.74 119.19 48.19 118.78 C 47.42 118.60 45.88 118.24 45.11 118.06 C 46.31 114.52 48.49 111.42 49.79 107.92 C 51.99 102.16 53.30 96.08 53.90 89.95 C 54.51 80.49 54.40 71.00 54.28 61.53 Z" />
<path fill="#ffffff" d=" M 34.55 61.67 C 40.36 61.36 46.19 61.42 52.01 61.59 C 52.22 69.54 52.09 77.48 52.00 85.43 C 51.72 85.03 51.16 84.24 50.89 83.84 C 45.52 76.39 39.48 69.42 34.55 61.67 Z" />
<path fill="#ffffff" d=" M 33.03 62.21 C 36.29 65.82 39.05 69.84 42.00 73.70 C 40.03 75.72 38.00 77.68 35.91 79.58 C 34.54 77.71 32.98 75.97 31.86 73.93 C 31.53 71.40 31.72 68.83 31.80 66.29 C 32.19 64.92 32.59 63.56 33.03 62.21 Z" />
<path fill="#010303" d=" M 60.79 62.18 C 62.13 63.89 63.45 65.61 64.75 67.35 C 67.14 70.47 69.39 73.70 71.97 76.67 C 72.27 77.00 72.85 77.66 73.15 77.99 C 72.47 77.96 71.12 77.90 70.45 77.87 C 68.28 75.08 66.16 72.25 64.04 69.42 C 62.92 67.92 61.70 66.51 60.62 64.98 C 60.66 64.28 60.75 62.88 60.79 62.18 Z" />
<path fill="#d7dcdf" d=" M 64.75 67.35 C 67.05 65.77 69.33 64.16 71.59 62.52 C 73.02 64.59 74.91 66.54 75.47 69.05 C 74.96 71.83 73.32 74.23 71.97 76.67 C 69.39 73.70 67.14 70.47 64.75 67.35 Z" />
<path fill="#5f6367" d=" M 108.65 63.33 C 108.99 63.04 109.68 62.46 110.03 62.17 L 110.20 64.12 C 109.91 66.49 109.62 68.85 109.35 71.22 C 109.87 71.16 110.91 71.05 111.43 70.99 L 110.82 68.74 L 112.64 69.93 C 112.66 70.30 112.69 70.66 112.74 71.02 C 111.57 72.16 110.61 73.50 110.06 75.04 L 110.39 73.37 C 109.95 72.68 109.50 71.99 109.04 71.32 C 108.83 74.31 108.43 77.28 107.63 80.17 C 107.33 76.62 105.07 73.91 102.83 71.35 C 106.22 70.13 108.91 67.10 108.65 63.33 Z" />
<path fill="#81888e" d=" M 104.27 68.13 C 105.43 66.28 106.90 64.65 108.65 63.33 C 108.91 67.10 106.22 70.13 102.83 71.35 C 102.01 70.26 101.26 69.12 100.52 67.97 L 100.34 67.62 L 100.08 67.33 C 99.72 66.83 99.00 65.83 98.64 65.33 C 99.28 65.37 100.57 65.45 101.21 65.49 C 101.45 65.82 101.93 66.46 102.16 66.79 C 101.63 68.19 103.51 70.10 104.27 68.13 Z" />
<path fill="#b0b6b9" d=" M 88.36 70.09 C 89.02 68.61 89.69 67.13 90.37 65.65 C 91.23 75.57 93.93 85.66 99.99 93.72 C 99.81 93.99 99.45 94.54 99.27 94.81 C 99.62 94.78 100.31 94.72 100.65 94.69 L 101.98 94.59 C 101.37 95.51 100.76 96.43 100.15 97.35 L 100.07 96.00 C 98.04 96.93 96.03 97.90 94.02 98.87 C 92.85 97.11 91.86 95.24 90.98 93.32 C 92.58 93.39 94.18 93.45 95.78 93.51 C 94.54 89.26 92.90 85.15 91.37 81.01 C 90.16 77.43 89.60 73.66 88.36 70.09 Z" />
<path fill="#221f20" d=" M 100.08 67.33 L 100.34 67.62 L 100.52 67.97 L 100.28 67.69 L 100.08 67.33 Z" />
<path fill="#5f6367" d=" M 102.16 66.79 C 102.69 67.12 103.74 67.80 104.27 68.13 C 103.51 70.10 101.63 68.19 102.16 66.79 Z" />
<path fill="#221f20" d=" M 85.76 66.39 C 86.76 67.53 87.63 68.76 88.36 70.09 C 89.60 73.66 90.16 77.43 91.37 81.01 C 90.25 81.53 89.13 82.05 88.02 82.59 C 87.22 77.20 85.96 71.86 85.76 66.39 Z" />
<path fill="#ffffff" d=" M 62.00 70.98 C 62.51 70.59 63.53 69.81 64.04 69.42 C 66.16 72.25 68.28 75.08 70.45 77.87 C 70.87 78.49 71.72 79.73 72.14 80.35 L 72.33 80.65 L 72.56 80.91 C 73.66 82.42 74.81 83.90 75.93 85.40 C 76.87 86.55 77.64 88.12 79.19 88.53 C 79.30 88.13 79.51 87.34 79.61 86.94 C 80.38 83.96 81.04 80.93 81.02 77.83 C 81.41 78.14 82.20 78.77 82.59 79.08 C 82.03 82.44 81.43 85.80 80.72 89.13 C 80.15 89.14 79.02 89.15 78.46 89.16 C 77.12 94.96 74.71 100.51 71.12 105.27 C 68.10 100.91 65.84 96.07 64.20 91.04 C 62.80 84.44 61.83 77.75 62.00 70.98 Z" />
<path fill="#221f20" d=" M 110.06 75.04 C 110.61 73.50 111.57 72.16 112.74 71.02 C 112.83 73.19 113.27 75.32 113.98 77.37 C 112.04 85.89 108.86 94.43 102.98 101.05 C 101.92 102.12 101.10 103.85 99.36 103.77 C 98.03 103.00 96.97 101.88 96.00 100.72 C 97.24 101.41 98.19 103.34 99.80 102.77 C 100.35 101.02 100.16 99.15 100.15 97.35 C 100.76 96.43 101.37 95.51 101.98 94.59 C 105.92 88.68 108.56 81.97 110.06 75.04 Z" />
<path fill="#81888e" d=" M 73.30 78.17 C 75.35 75.93 77.62 73.89 80.14 72.18 L 80.95 73.35 C 80.95 73.69 80.95 74.38 80.95 74.72 C 79.07 76.83 77.13 78.89 75.46 81.18 L 75.37 81.33 C 74.68 80.28 73.98 79.23 73.30 78.17 Z" />
<path fill="#d7dcdf" d=" M 42.00 73.70 C 43.79 76.00 45.36 78.46 46.77 81.00 C 45.82 83.70 44.60 86.31 42.99 88.68 C 40.45 85.79 38.25 82.62 35.91 79.58 C 38.00 77.68 40.03 75.72 42.00 73.70 Z" />
<path fill="#5f6367" d=" M 75.46 81.18 C 77.13 78.89 79.07 76.83 80.95 74.72 C 80.97 75.50 81.00 77.05 81.02 77.83 C 81.04 80.93 80.38 83.96 79.61 86.94 C 79.10 86.40 78.06 85.32 77.54 84.78 C 77.14 84.93 76.33 85.25 75.93 85.40 C 74.81 83.90 73.66 82.42 72.56 80.91 L 72.36 80.61 L 72.14 80.35 C 71.72 79.73 70.87 78.49 70.45 77.87 C 71.12 77.90 72.47 77.96 73.15 77.99 L 73.30 78.17 C 73.98 79.23 74.68 80.28 75.37 81.33 C 75.37 81.35 75.36 81.41 75.35 81.43 L 75.46 81.18 Z" />
<path fill="#3f4042" d=" M 25.52 81.02 C 25.95 80.44 26.82 79.29 27.25 78.72 C 27.25 79.35 27.24 80.61 27.24 81.25 C 27.57 81.06 28.25 80.70 28.59 80.51 L 29.90 79.79 C 29.86 86.05 30.91 92.24 31.97 98.39 C 32.89 103.22 33.93 108.14 36.47 112.41 C 37.72 114.57 38.92 116.76 39.94 119.05 C 38.44 118.02 36.95 116.99 35.54 115.84 C 30.86 111.60 26.44 107.06 23.09 101.66 C 23.93 101.53 24.78 101.39 25.62 101.26 C 26.52 103.16 27.87 104.79 29.44 106.19 C 27.20 97.96 25.84 89.55 25.52 81.02 Z" />
<path fill="#221f20" d=" M 72.14 80.35 L 72.36 80.61 L 72.56 80.91 L 72.33 80.65 L 72.14 80.35 Z" />
<path fill="#81888e" d=" M 106.57 80.16 C 108.07 80.74 106.90 84.76 105.31 84.70 C 104.78 83.18 105.67 81.37 106.57 80.16 Z" />
<path fill="#221f20" d=" M 75.37 81.33 L 75.46 81.18 L 75.35 81.43 C 75.36 81.41 75.37 81.35 75.37 81.33 Z" />
<path fill="#5f6367" d=" M 88.02 82.59 C 89.13 82.05 90.25 81.53 91.37 81.01 C 92.90 85.15 94.54 89.26 95.78 93.51 C 94.18 93.45 92.58 93.39 90.98 93.32 C 90.03 91.25 89.09 89.18 88.28 87.05 C 88.26 86.22 88.22 84.56 88.20 83.72 C 85.89 85.91 85.46 89.22 83.81 91.84 C 83.77 93.49 83.68 95.17 82.94 96.69 C 80.60 91.36 84.96 86.51 87.12 81.95 L 87.33 82.95 C 87.50 82.86 87.85 82.68 88.02 82.59 Z" />
<path fill="#010303" d=" M 8.31 83.42 C 9.24 82.84 10.18 82.26 11.11 81.67 C 12.50 83.63 13.75 85.68 14.80 87.84 C 18.18 96.11 21.98 104.43 28.26 110.95 C 25.33 111.18 22.57 110.35 20.48 108.24 C 20.32 108.69 20.00 109.60 19.84 110.05 C 17.97 107.30 16.23 104.46 14.46 101.63 C 12.79 98.28 11.70 94.69 10.08 91.33 C 10.55 91.22 11.51 90.99 11.99 90.88 C 11.51 90.87 10.56 90.86 10.08 90.85 C 10.42 89.04 10.69 87.22 10.90 85.40 C 10.40 86.63 9.92 87.87 9.47 89.13 C 9.34 87.17 9.05 85.24 8.31 83.42 Z" />
<path fill="#81888e" d=" M 57.65 83.07 C 59.23 87.65 60.64 92.42 60.87 97.28 C 59.28 94.98 58.73 92.24 58.95 89.48 C 58.59 89.47 57.87 89.44 57.51 89.43 C 57.53 87.31 57.56 85.19 57.65 83.07 Z" />
<path fill="#81888e" d=" M 17.80 86.40 C 18.18 85.28 18.56 84.15 18.95 83.03 C 19.82 89.52 22.64 95.51 25.62 101.26 C 24.78 101.39 23.93 101.53 23.09 101.66 C 26.44 107.06 30.86 111.60 35.54 115.84 L 35.76 117.55 C 33.05 115.60 30.58 113.34 28.26 110.95 C 21.98 104.43 18.18 96.11 14.80 87.84 C 15.80 87.36 16.80 86.88 17.80 86.40 Z" />
<path fill="#81888e" d=" M 44.15 89.99 C 46.55 88.11 48.69 85.94 50.89 83.84 C 51.16 84.24 51.72 85.03 52.00 85.43 C 52.02 86.01 52.05 87.18 52.06 87.76 C 50.44 89.81 48.71 91.77 46.75 93.51 C 46.67 93.57 46.49 93.69 46.40 93.76 L 46.57 93.75 C 46.27 94.17 45.68 95.00 45.38 95.42 C 44.92 94.78 44.01 93.51 43.55 92.87 L 43.38 92.60 L 43.19 92.37 C 42.82 91.88 42.09 90.89 41.73 90.40 C 42.34 90.29 43.55 90.09 44.15 89.99 Z" />
<path fill="#3f4042" d=" M 75.93 85.40 C 76.33 85.25 77.14 84.93 77.54 84.78 C 78.06 85.32 79.10 86.40 79.61 86.94 C 79.51 87.34 79.30 88.13 79.19 88.53 C 77.64 88.12 76.87 86.55 75.93 85.40 Z" />
<path fill="#b0b6b9" d=" M 83.81 91.84 C 85.46 89.22 85.89 85.91 88.20 83.72 C 88.22 84.56 88.26 86.22 88.28 87.05 C 85.62 90.54 85.40 95.06 83.83 99.02 C 81.53 105.10 78.45 111.14 73.55 115.54 C 72.23 116.93 70.15 116.29 68.47 116.53 C 67.36 111.59 63.13 108.25 61.71 103.45 C 63.41 103.48 65.10 103.52 66.80 103.58 C 66.50 103.31 65.88 102.77 65.58 102.50 C 64.61 99.44 63.52 96.41 62.69 93.31 C 63.07 92.74 63.82 91.61 64.20 91.04 C 65.84 96.07 68.10 100.91 71.12 105.27 C 74.71 100.51 77.12 94.96 78.46 89.16 C 79.02 89.15 80.15 89.14 80.72 89.13 C 79.21 95.71 76.35 101.94 72.54 107.50 C 71.06 109.44 71.56 112.00 71.39 114.25 C 70.65 114.02 69.92 113.79 69.18 113.58 C 69.48 114.97 70.47 115.37 71.59 114.47 C 76.94 109.74 80.37 103.26 82.94 96.69 C 83.68 95.17 83.77 93.49 83.81 91.84 Z" />
<path fill="#5f6367" d=" M 132.29 86.09 C 132.58 85.77 133.16 85.13 133.45 84.81 C 129.07 112.41 103.94 135.08 76.00 136.53 C 68.59 136.62 60.70 136.93 53.82 133.76 C 63.10 135.24 72.58 135.51 81.91 134.45 C 92.11 132.09 102.67 128.53 110.25 120.99 C 109.78 121.12 108.85 121.37 108.39 121.50 L 108.30 120.96 C 109.63 119.97 111.00 119.04 112.40 118.14 C 116.68 116.86 119.11 112.93 121.66 109.59 C 126.80 102.62 130.63 94.62 132.29 86.09 Z" />
<path fill="#5f6367" d=" M 99.99 93.72 C 102.20 90.86 103.17 87.17 105.86 84.68 C 104.69 88.28 102.94 91.68 100.65 94.69 C 100.31 94.72 99.62 94.78 99.27 94.81 C 99.45 94.54 99.81 93.99 99.99 93.72 Z" />
<path fill="#5f6367" d=" M 46.75 93.51 C 48.71 91.77 50.44 89.81 52.06 87.76 C 52.01 91.79 51.29 95.78 50.30 99.68 C 49.80 97.88 48.81 95.62 46.50 96.84 C 46.12 96.37 45.74 95.90 45.38 95.42 C 45.68 95.00 46.27 94.17 46.57 93.75 L 46.75 93.51 Z" />
<path fill="#b0b6b9" d=" M 122.69 90.07 C 123.16 90.08 124.09 90.08 124.56 90.08 C 118.67 108.95 102.27 124.15 82.86 128.11 C 82.81 127.64 82.72 126.71 82.67 126.24 C 83.34 126.23 84.68 126.21 85.35 126.20 L 85.37 125.21 C 84.55 125.08 82.92 124.83 82.10 124.71 C 83.73 123.70 85.54 124.58 87.21 124.88 C 89.04 124.24 90.85 123.55 92.67 122.85 C 92.63 122.50 92.56 121.79 92.52 121.43 C 95.88 119.64 99.19 117.77 102.62 116.11 C 102.53 116.49 102.36 117.23 102.27 117.61 C 105.27 113.83 109.92 111.86 112.80 107.96 C 116.99 102.62 121.33 96.87 122.69 90.07 Z" />
<path fill="#221f20" d=" M 43.19 92.37 L 43.38 92.60 L 43.55 92.87 C 43.46 92.74 43.28 92.49 43.19 92.37 Z" />
<path fill="#221f20" d=" M 46.40 93.76 C 46.49 93.69 46.67 93.57 46.75 93.51 L 46.57 93.75 L 46.40 93.76 Z" />
<path fill="#5f6367" d=" M 32.97 95.02 C 34.31 95.73 34.10 97.45 34.02 98.72 L 33.35 98.61 C 32.45 97.51 32.32 96.32 32.97 95.02 Z" />
<path fill="#221f20" d=" M 46.50 96.84 C 48.81 95.62 49.80 97.88 50.30 99.68 C 50.20 100.02 50.00 100.71 49.90 101.06 C 48.77 99.65 47.64 98.24 46.50 96.84 Z" />
<path fill="#d7dcdf" d=" M 94.02 98.87 C 96.03 97.90 98.04 96.93 100.07 96.00 L 100.15 97.35 C 100.16 99.15 100.35 101.02 99.80 102.77 C 98.19 103.34 97.24 101.41 96.00 100.72 C 95.33 100.12 94.67 99.50 94.02 98.87 Z" />
<path fill="#5f6367" d=" M 34.44 102.81 C 33.63 101.84 33.67 100.85 34.56 99.84 C 34.72 100.57 35.05 102.05 35.22 102.78 L 34.44 102.81 Z" />
<path fill="#5f6367" d=" M 36.16 105.71 C 34.58 105.30 34.45 104.70 35.76 103.91 C 35.86 104.36 36.06 105.26 36.16 105.71 Z" />
<path fill="#d7dcdf" d=" M 29.15 106.18 C 29.76 106.80 29.76 106.80 29.15 106.18 Z" />
<path fill="#3f4042" d=" M 42.14 118.74 C 39.66 114.95 36.39 111.00 36.38 106.26 C 37.92 110.16 39.91 113.87 42.24 117.35 C 42.62 116.94 43.37 116.13 43.74 115.73 C 43.21 116.73 42.68 117.74 42.14 118.74 Z" />
<path fill="#d7dcdf" d=" M 116.88 108.96 C 118.40 108.38 119.98 107.93 121.56 107.54 C 118.88 111.39 115.74 114.87 112.40 118.14 C 111.00 119.04 109.63 119.97 108.30 120.96 C 108.12 120.06 107.77 118.27 107.59 117.38 C 110.72 114.61 114.00 111.99 116.88 108.96 Z" />
<path fill="#221f20" d=" M 19.84 110.05 C 20.00 109.60 20.32 108.69 20.48 108.24 C 22.57 110.35 25.33 111.18 28.26 110.95 C 30.58 113.34 33.05 115.60 35.76 117.55 C 39.32 120.60 43.82 122.13 47.66 124.76 C 43.38 124.87 39.96 122.00 36.32 120.20 C 35.95 121.83 35.57 123.47 35.19 125.11 C 29.40 120.85 23.93 116.02 19.84 110.05 Z" />
<path fill="#81888e" d=" M 56.08 128.71 C 73.77 133.33 93.41 128.86 107.59 117.38 C 107.77 118.27 108.12 120.06 108.30 120.96 L 108.39 121.50 C 93.68 132.61 74.07 136.88 56.14 132.30 C 56.13 131.40 56.10 129.61 56.08 128.71 Z" />
<path fill="#3f4042" d=" M 36.32 120.20 C 39.96 122.00 43.38 124.87 47.66 124.76 L 46.62 125.51 C 46.35 126.12 45.81 127.35 45.54 127.96 C 48.43 130.62 52.43 131.46 56.14 132.30 C 74.07 136.88 93.68 132.61 108.39 121.50 C 108.85 121.37 109.78 121.12 110.25 120.99 C 102.67 128.53 92.11 132.09 81.91 134.45 C 72.58 135.51 63.10 135.24 53.82 133.76 C 47.07 132.36 40.87 128.93 35.19 125.11 C 35.57 123.47 35.95 121.83 36.32 120.20 Z" />
<path fill="#b0b6b9" d=" M 78.13 125.79 C 78.18 124.44 81.73 124.46 81.72 125.84 C 80.52 126.51 79.32 126.49 78.13 125.79 Z" />
<path fill="#5f6367" d=" M 45.54 127.96 C 45.81 127.35 46.35 126.12 46.62 125.51 C 49.75 126.65 52.88 127.79 56.08 128.71 C 56.10 129.61 56.13 131.40 56.14 132.30 C 52.43 131.46 48.43 130.62 45.54 127.96 Z" />
</svg>
