<?xml version="1.0" encoding="utf-8"?>
<!-- Generator: Adobe Illustrator 13.0.0, SVG Export Plug-In  -->
<!DOCTYPE svg PUBLIC "-//W3C//DTD SVG 1.1//EN" "http://www.w3.org/Graphics/SVG/1.1/DTD/svg11.dtd" [
	<!ENTITY ns_flows "http://ns.adobe.com/Flows/1.0/">
]>
<svg version="1.1"
	 xmlns="http://www.w3.org/2000/svg" xmlns:xlink="http://www.w3.org/1999/xlink" xmlns:a="http://ns.adobe.com/AdobeSVGViewerExtensions/3.0/"
	 x="0px" y="0px" width="372px" height="343px" viewBox="-0.212 0.058 372 343" enable-background="new -0.212 0.058 372 343"
	 xml:space="preserve">
<defs>
</defs>
<linearGradient id="SVGID_8_" gradientUnits="userSpaceOnUse" x1="1101.2119" y1="-596.4165" x2="1096.161" y2="-550.672" gradientTransform="matrix(0.0934 0 0 0.0934 143.6888 142.9721)">
	<stop  offset="0" style="stop-color:#8DB3DF"/>
	<stop  offset="1" style="stop-color:#BACEEB"/>
</linearGradient>
<polygon fill="url(#SVGID_8_)" points="308.085,92.619 301.618,91.891 185.329,78.928 185.329,83.281 301.165,96.174 "/>
<linearGradient id="SVGID_9_" gradientUnits="userSpaceOnUse" x1="1449.5781" y1="394.3237" x2="518.457" y2="169.7085" gradientTransform="matrix(0.0934 0 0 0.0934 143.6888 142.9721)">
	<stop  offset="0" style="stop-color:#C2D5EE"/>
	<stop  offset="1" style="stop-color:#8BAFDC"/>
</linearGradient>
<path fill="url(#SVGID_9_)" d="M185.329,83.281l115.836,12.893l-17.508,31.146c0,0-2.137,41.918-3.555,58.375
	c-1.439,16.482-1.797,29.375-14.287,34.723c-24.994,10.744-55.849,20.377-80.486,25.725V83.281z"/>
<linearGradient id="SVGID_10_" gradientUnits="userSpaceOnUse" x1="1629.3477" y1="-655.2715" x2="1669.3694" y2="-632.6652" gradientTransform="matrix(0.0934 0 0 0.0934 143.6888 171.1708)">
	<stop  offset="0.58" style="stop-color:#505E62"/>
	<stop  offset="1" style="stop-color:#636D71"/>
</linearGradient>
<polygon fill="url(#SVGID_10_)" points="308.085,92.619 301.165,96.174 283.657,127.319 287.958,127.954 304.882,98.279 "/>
<linearGradient id="SVGID_11_" gradientUnits="userSpaceOnUse" x1="-142.4863" y1="-1448.9907" x2="-412.8785" y2="852.0209" gradientTransform="matrix(0.0726 0 0 0.0728 146.414 173.7859)">
	<stop  offset="0" style="stop-color:#EEF3FA"/>
	<stop  offset="0.52" style="stop-color:#697F92"/>
	<stop  offset="1" style="stop-color:#5A6E7D"/>
</linearGradient>
<path fill="url(#SVGID_11_)" d="M62.598,92.619l6.426-0.729l116.305-12.963v4.354L69.5,96.174l17.488,31.146
	c0,0,2.146,41.918,3.595,58.375c1.417,16.482,1.766,29.375,14.284,34.723c24.988,10.744,55.826,20.377,80.462,25.725v4.449
	c-26.179-5.719-58.085-15.869-82.174-26.225c-14.144-6.074-15.288-19.725-16.621-35.541l-0.226-2.771
	c-1.307-14.91-3.255-51.623-3.594-58.1L65.762,98.279L62.598,92.619z"/>
<linearGradient id="SVGID_12_" gradientUnits="userSpaceOnUse" x1="-1213.6201" y1="-3811.5" x2="-1091.9641" y2="-3413.3647" gradientTransform="matrix(0.0261 0 0 0.0261 154.5327 181.6341)">
	<stop  offset="0" style="stop-color:#AFC1D8"/>
	<stop  offset="1" style="stop-color:#C7DAF1"/>
</linearGradient>
<polygon fill="url(#SVGID_12_)" points="62.598,92.619 69.024,91.891 185.329,78.928 185.329,83.281 69.5,96.174 "/>
<linearGradient id="SVGID_13_" gradientUnits="userSpaceOnUse" x1="407.585" y1="-124.6421" x2="-924.7743" y2="-124.6422" gradientTransform="matrix(0.0726 0 0 0.0728 146.414 173.7859)">
	<stop  offset="0" style="stop-color:#EBF0F9"/>
	<stop  offset="1" style="stop-color:#B6CFEC"/>
</linearGradient>
<path fill="url(#SVGID_13_)" d="M185.329,83.281L69.5,96.174l17.488,31.146c0,0,2.146,41.918,3.595,58.375
	c1.417,16.482,1.766,29.375,14.284,34.723c24.988,10.744,55.826,20.377,80.462,25.725V83.281z"/>
<linearGradient id="SVGID_14_" gradientUnits="userSpaceOnUse" x1="-711.8911" y1="-669.8081" x2="-751.8835" y2="-647.2183" gradientTransform="matrix(0.0934 0 0 0.0934 143.6888 171.1708)">
	<stop  offset="0.58" style="stop-color:#505E62"/>
	<stop  offset="1" style="stop-color:#636D71"/>
</linearGradient>
<polygon fill="url(#SVGID_14_)" points="62.598,92.619 69.5,96.174 86.987,127.319 82.714,127.954 65.762,98.279 "/>
<g>
	<defs>
		<path id="SVGID_7_" d="M283.657,127.319c0,0-2.137,41.918-3.555,58.375c-1.439,16.482-1.797,29.375-14.287,34.723
			c-24.994,10.744-55.849,20.377-80.486,25.725v4.449c26.174-5.719,58.08-15.869,82.17-26.225
			c14.154-6.074,15.305-19.725,16.639-35.541l0.229-2.771c1.285-14.91,3.252-51.623,3.592-58.1L283.657,127.319z"/>
	</defs>
	<clipPath id="SVGID_15_">
		<use xlink:href="#SVGID_7_"  overflow="visible"/>
	</clipPath>
	<g clip-path="url(#SVGID_15_)">
		<path fill="#81878B" d="M283.657,127.319c0,0-2.137,41.918-3.555,58.375c-1.439,16.482-1.797,29.375-14.287,34.723
			c-24.994,10.744-55.849,20.377-80.486,25.725v4.449c26.174-5.719,58.08-15.869,82.17-26.225
			c14.154-6.074,15.305-19.725,16.639-35.541l0.229-2.771c1.285-14.91,3.252-51.623,3.592-58.1L283.657,127.319z"/>
		<g>
			<path fill="#7D8488" d="M287.618,127.901c-0.313,5.995-2.279,43.091-3.582,58.135c0,0.082-0.238,2.73-0.238,2.818
				c-1.322,15.734-2.477,29.221-16.432,35.205c-24.145,10.404-55.969,20.512-82.037,26.189l-0.32-4.395
				c24.631-5.385,55.5-14.992,80.496-25.73c12.48-5.373,12.848-18.141,14.266-34.611c1.447-16.487,3.582-58.377,3.582-58.377
				L287.618,127.901z"/>
			<path fill="#798186" d="M287.288,127.843c-0.287,5.495-2.254,42.995-3.596,58.141c0,0.211-0.217,2.707-0.244,2.9
				c-1.285,15.646-2.457,28.967-16.205,34.883c-24.219,10.432-55.969,20.482-81.914,26.131l-0.639-4.367
				c24.646-5.359,55.486-14.992,80.473-25.736c12.498-5.355,12.877-18,14.287-34.482c1.436-16.463,3.572-58.364,3.572-58.364
				L287.288,127.843z"/>
			<path fill="#757D82" d="M286.966,127.819c-0.264,4.971-2.25,42.86-3.576,58.153c-0.027,0.258-0.236,2.672-0.254,2.918
				c-1.303,15.598-2.459,28.744-16.025,34.588c-24.295,10.434-55.971,20.459-81.781,26.09l-0.982-4.348
				c24.658-5.361,55.508-15,80.496-25.719c12.498-5.375,12.873-17.895,14.295-34.365c1.445-16.469,3.563-58.376,3.563-58.376
				L286.966,127.819z"/>
			<path fill="#71797F" d="M286.626,127.761c-0.23,4.482-2.23,42.789-3.572,58.18c-0.041,0.359-0.232,2.615-0.25,2.979
				c-1.324,15.492-2.438,28.498-15.813,34.246c-24.367,10.475-55.953,20.459-81.662,26.055l-1.281-4.301
				c24.627-5.371,55.475-14.975,80.471-25.736c12.484-5.361,12.881-17.764,14.314-34.223c1.42-16.482,3.557-58.383,3.557-58.383
				L286.626,127.761z"/>
			<path fill="#6E777D" d="M286.306,127.712c-0.209,4.014-2.246,42.679-3.576,58.217c-0.029,0.432-0.219,2.586-0.264,3.008
				c-1.313,15.422-2.43,28.279-15.621,33.934c-24.439,10.48-55.93,20.432-81.516,26.016l-1.613-4.285
				c24.648-5.365,55.486-14.992,80.465-25.707c12.506-5.391,12.898-17.664,14.324-34.135c1.445-16.458,3.582-58.371,3.582-58.371
				L286.306,127.712z"/>
			<path fill="#6A737A" d="M285.972,127.642c-0.188,3.502-2.221,42.596-3.582,58.241c-0.049,0.549-0.227,2.561-0.273,3.072
				c-1.268,15.375-2.404,28.033-15.412,33.611c-24.475,10.533-55.924,20.436-81.375,25.973l-1.945-4.242
				c24.656-5.379,55.506-14.975,80.498-25.738c12.488-5.373,12.883-17.516,14.287-33.986c1.451-16.47,3.596-58.353,3.596-58.353
				L285.972,127.642z"/>
			<path fill="#667077" d="M285.651,127.612c-0.16,3.001-2.211,42.479-3.592,58.258c-0.059,0.607-0.209,2.514-0.277,3.113
				c-1.273,15.275-2.391,27.779-15.191,33.252c-24.574,10.592-55.912,20.432-81.262,25.961l-2.266-4.213
				c24.637-5.371,55.484-14.986,80.494-25.721c12.488-5.377,12.885-17.41,14.334-33.873c1.4-16.482,3.535-58.361,3.535-58.361
				L285.651,127.612z"/>
			<path fill="#626E75" d="M285.302,127.571c-0.111,2.483-2.174,42.391-3.563,58.264c-0.068,0.707-0.219,2.49-0.277,3.148
				c-1.277,15.234-2.41,27.545-14.992,32.969c-24.66,10.592-55.914,20.414-81.141,25.904l-2.598-4.184
				c24.646-5.385,55.5-14.988,80.504-25.727c12.488-5.361,12.895-17.264,14.314-33.734c1.426-16.464,3.563-58.371,3.563-58.371
				L285.302,127.571z"/>
			<path fill="#5E6A72" d="M284.999,127.524c-0.115,1.989-2.195,42.283-3.584,58.282c-0.076,0.818-0.227,2.432-0.273,3.207
				c-1.268,15.135-2.402,27.303-14.805,32.635c-24.715,10.619-55.894,20.389-81.008,25.879l-2.91-4.16
				c24.629-5.367,55.486-14.994,80.484-25.732c12.49-5.371,12.904-17.146,14.334-33.609c1.426-16.476,3.563-58.365,3.563-58.365
				L284.999,127.524z"/>
			<path fill="#5A6770" d="M284.64,127.478c-0.059,1.495-2.164,42.184-3.563,58.293c-0.086,0.918-0.191,2.426-0.277,3.26
				c-1.273,15.07-2.402,27.068-14.596,32.299c-24.789,10.65-55.884,20.389-80.875,25.844l-3.23-4.131
				c24.627-5.354,55.484-14.992,80.484-25.721c12.494-5.383,12.904-17.01,14.33-33.492c1.432-16.482,3.57-58.359,3.57-58.359
				L284.64,127.478z"/>
			<path fill="#57656E" d="M284.327,127.413c-0.066,1-2.164,42.107-3.574,58.346c-0.086,0.979-0.205,2.355-0.281,3.309
				c-1.258,14.969-2.387,26.809-14.402,31.969c-24.846,10.684-55.854,20.375-80.74,25.801l-3.563-4.105
				c24.631-5.361,55.508-14.977,80.482-25.732c12.494-5.355,12.918-16.859,14.334-33.363c1.449-16.453,3.594-58.365,3.594-58.365
				L284.327,127.413z"/>
			<path fill="#52626B" d="M284.005,127.384c-0.045,0.488-2.154,41.977-3.58,58.346c-0.094,1.055-0.201,2.32-0.287,3.379
				c-1.256,14.893-2.371,26.537-14.197,31.615c-24.914,10.732-55.859,20.377-80.611,25.771l-3.895-4.053
				c24.643-5.385,55.498-15.006,80.496-25.727c12.5-5.4,12.936-16.77,14.354-33.256c1.432-16.464,3.553-58.373,3.553-58.373
				L284.005,127.384z"/>
		</g>
		<path fill="#4F6069" d="M181.133,242.113c24.621-5.385,55.481-14.971,80.458-25.707c12.516-5.391,12.943-16.654,14.381-33.111
			c1.428-16.47,3.555-58.388,3.555-58.388l4.131,2.413c0,0-2.137,41.918-3.555,58.375c-0.105,1.154-0.189,2.289-0.307,3.414
			c-1.244,14.832-2.369,26.332-13.98,31.309c-24.994,10.744-55.849,20.377-80.486,25.725L181.133,242.113z"/>
	</g>
</g>
<g>
	<defs>
		<path id="SVGID_6_" d="M86.933,127.319c0,0,2.145,41.918,3.563,58.375c1.418,16.482,1.795,29.375,14.287,34.723
			c24.995,10.744,55.855,20.377,80.492,25.725v4.449c-26.188-5.719-58.098-15.869-82.167-26.225
			c-14.173-6.074-15.307-19.725-16.631-35.541l-0.243-2.771c-1.288-14.91-3.255-51.623-3.594-58.1L86.933,127.319z"/>
	</defs>
	<clipPath id="SVGID_16_">
		<use xlink:href="#SVGID_6_"  overflow="visible"/>
	</clipPath>
	<g clip-path="url(#SVGID_16_)">
		<path fill="#81878B" d="M86.933,127.319c0,0,2.145,41.918,3.563,58.375c1.418,16.482,1.795,29.375,14.287,34.723
			c24.995,10.744,55.855,20.377,80.492,25.725v4.449c-26.188-5.719-58.098-15.869-82.167-26.225
			c-14.173-6.074-15.307-19.725-16.631-35.541l-0.243-2.771c-1.288-14.91-3.255-51.623-3.594-58.1L86.933,127.319z"/>
		<g>
			<path fill="#7D8488" d="M82.979,127.901c0.302,5.995,2.271,43.091,3.573,58.135c0.021,0.082,0.248,2.73,0.248,2.818
				c1.304,15.734,2.467,29.221,16.421,35.205c24.137,10.404,55.989,20.512,82.055,26.189l0.304-4.395
				c-24.623-5.385-55.478-14.992-80.467-25.73c-12.508-5.373-12.866-18.141-14.304-34.611c-1.399-16.487-3.564-58.377-3.564-58.377
				L82.979,127.901z"/>
			<path fill="#798186" d="M83.301,127.843c0.293,5.495,2.269,42.995,3.592,58.141c0,0.211,0.217,2.707,0.238,2.9
				c1.313,15.646,2.467,28.967,16.213,34.883c24.231,10.432,55.971,20.482,81.931,26.131l0.64-4.367
				c-24.638-5.359-55.485-14.992-80.472-25.736c-12.518-5.355-12.888-18-14.315-34.482c-1.424-16.463-3.563-58.364-3.563-58.364
				L83.301,127.843z"/>
			<path fill="#757D82" d="M83.643,127.819c0.245,4.971,2.249,42.86,3.572,58.153c0.029,0.258,0.228,2.672,0.247,2.918
				c1.316,15.598,2.458,28.744,16.015,34.588c24.297,10.434,55.969,20.459,81.799,26.09l0.962-4.348
				c-24.637-5.361-55.495-15-80.473-25.719c-12.518-5.375-12.876-17.895-14.315-34.365c-1.436-16.469-3.564-58.376-3.564-58.376
				L83.643,127.819z"/>
			<path fill="#71797F" d="M83.962,127.761c0.236,4.482,2.261,42.789,3.573,58.18c0.04,0.359,0.228,2.615,0.266,2.979
				c1.295,15.492,2.439,28.498,15.807,34.246c24.374,10.475,55.97,20.459,81.667,26.055l1.284-4.301
				c-24.637-5.371-55.476-14.975-80.483-25.736c-12.508-5.361-12.879-17.764-14.315-34.223c-1.417-16.482-3.583-58.383-3.583-58.383
				L83.962,127.761z"/>
			<path fill="#6E777D" d="M84.285,127.712c0.207,4.014,2.249,42.679,3.582,58.217c0.047,0.432,0.236,2.586,0.255,3.008
				c1.304,15.422,2.46,28.279,15.621,33.934c24.447,10.48,55.938,20.432,81.532,26.016l1.606-4.285
				c-24.639-5.365-55.477-14.992-80.475-25.707c-12.517-5.391-12.886-17.664-14.315-34.135c-1.436-16.458-3.582-58.371-3.582-58.371
				L84.285,127.712z"/>
			<path fill="#6A737A" d="M84.608,127.642c0.198,3.502,2.238,42.596,3.591,58.241c0.057,0.549,0.217,2.561,0.273,3.072
				c1.276,15.375,2.413,28.033,15.393,33.611c24.523,10.533,55.94,20.436,81.411,25.973l1.94-4.242
				c-24.631-5.379-55.509-14.975-80.488-25.738c-12.509-5.373-12.894-17.516-14.331-33.986c-1.42-16.47-3.564-58.353-3.564-58.353
				L84.608,127.642z"/>
			<path fill="#667077" d="M84.956,127.612c0.143,3.001,2.193,42.479,3.592,58.258c0.037,0.607,0.201,2.514,0.238,3.113
				c1.304,15.275,2.42,27.779,15.201,33.252c24.592,10.592,55.931,20.432,81.289,25.961l2.251-4.213
				c-24.638-5.371-55.479-14.986-80.476-25.721c-12.499-5.377-12.905-17.41-14.333-33.873c-1.427-16.482-3.564-58.361-3.564-58.361
				L84.956,127.612z"/>
			<path fill="#626E75" d="M85.267,127.571c0.133,2.483,2.212,42.391,3.595,58.264c0.056,0.707,0.206,2.49,0.271,3.148
				c1.277,15.234,2.413,27.545,14.985,32.969c24.646,10.592,55.915,20.414,81.157,25.904l2.589-4.184
				c-24.646-5.385-55.496-14.988-80.494-25.727c-12.498-5.361-12.904-17.264-14.331-33.734c-1.418-16.464-3.575-58.371-3.575-58.371
				L85.267,127.571z"/>
			<path fill="#5E6A72" d="M85.608,127.524c0.105,1.989,2.193,42.283,3.573,58.282c0.076,0.818,0.228,2.432,0.266,3.207
				c1.285,15.135,2.421,27.303,14.824,32.635c24.695,10.619,55.892,20.389,81.004,25.879l2.903-4.16
				c-24.629-5.367-55.487-14.994-80.485-25.732c-12.498-5.371-12.896-17.146-14.334-33.609c-1.435-16.476-3.572-58.365-3.572-58.365
				L85.608,127.524z"/>
			<path fill="#5A6770" d="M85.938,127.478c0.066,1.495,2.165,42.184,3.583,58.293c0.076,0.918,0.19,2.426,0.266,3.26
				c1.286,15.07,2.401,27.068,14.597,32.299c24.779,10.65,55.896,20.389,80.891,25.844l3.223-4.131
				c-24.628-5.354-55.469-14.992-80.485-25.721c-12.498-5.383-12.913-17.01-14.341-33.492c-1.426-16.482-3.575-58.359-3.575-58.359
				L85.938,127.478z"/>
			<path fill="#57656E" d="M86.271,127.413c0.056,1,2.164,42.107,3.57,58.346c0.086,0.979,0.199,2.355,0.285,3.309
				c1.257,14.969,2.383,26.809,14.39,31.969c24.866,10.684,55.877,20.375,80.759,25.801l3.556-4.105
				c-24.639-5.361-55.499-14.977-80.476-25.732c-12.509-5.355-12.934-16.859-14.36-33.363c-1.439-16.453-3.566-58.365-3.566-58.365
				L86.271,127.413z"/>
			<path fill="#52626B" d="M86.6,127.384c0.029,0.488,2.149,41.977,3.563,58.346c0.098,1.055,0.211,2.32,0.286,3.379
				c1.247,14.893,2.382,26.537,14.199,31.615c24.923,10.732,55.858,20.377,80.627,25.771l3.876-4.053
				c-24.637-5.385-55.496-15.006-80.485-25.727c-12.506-5.4-12.934-16.77-14.361-33.256c-1.408-16.464-3.554-58.373-3.554-58.373
				L86.6,127.384z"/>
		</g>
		<path fill="#4F6069" d="M189.474,242.113c-24.641-5.385-55.478-14.971-80.494-25.707c-12.48-5.391-12.934-16.654-14.354-33.111
			c-1.429-16.47-3.553-58.388-3.553-58.388l-4.141,2.413c0,0,2.145,41.918,3.563,58.375c0.103,1.154,0.208,2.289,0.293,3.414
			c1.257,14.832,2.383,26.332,13.994,31.309c24.995,10.744,55.855,20.377,80.492,25.725L189.474,242.113z"/>
	</g>
</g>
<path fill="#FFFFFF" d="M185.315,83.105L69.479,96.003l-0.247,0.023l0.114,0.241l17.5,31.146l-0.01-0.094
	c0.01,0.436,2.147,42.1,3.556,58.387l0.236,2.76c1.276,15.105,2.269,27.033,14.155,32.129
	c23.832,10.238,54.672,20.094,80.511,25.748h0.035h0.041c25.811-5.654,56.68-15.51,80.514-25.748
	c11.883-5.096,12.883-17.023,14.152-32.129l0.217-2.76c1.418-16.288,3.563-57.952,3.592-58.387l-0.029,0.094l17.482-31.146
	l0.123-0.241l-0.234-0.023L185.352,83.105h-0.022H185.315z M301.017,96.085l-17.492,31.158l-0.02,0.035v0.041
	c-0.029,0.424-2.166,42.088-3.584,58.375l-0.236,2.748c-1.256,14.98-2.25,26.797-13.924,31.828
	c-23.834,10.232-54.656,20.088-80.467,25.701h0.076c-25.81-5.613-56.651-15.469-80.458-25.701
	c-11.685-5.031-12.696-16.848-13.935-31.828l-0.245-2.748c-1.41-16.288-3.537-57.952-3.575-58.375v-0.041l-0.009-0.035l-17.5-31.158
	l-0.123,0.271l115.826-12.897h-0.036l115.83,12.897L301.017,96.085z"/>
<path fill="#CFCFCF" d="M139.27,3.851C73.563,23.045,16.706,72.036,16.706,154.769c0,85.09,73.042,157.584,168.682,162.534
	l-0.018,16.639c-84.085,0-180.974-69.057-180.974-174.689c0-90.799,56.31-136.631,123.452-158.262
	c0.833-0.164,1.723-0.117,2.496,0.037C133.219,1.604,136.169,2.228,139.27,3.851"/>
<g>
	<defs>
		<path id="SVGID_5_" d="M139.27,3.851C73.563,23.045,16.706,72.036,16.706,154.769c0,85.09,73.042,157.584,168.682,162.534
			l-0.059,16.639c-84.084,0-180.933-69.057-180.933-174.689c0-90.799,56.31-136.631,123.452-158.262
			c0.833-0.164,1.723-0.117,2.496,0.037C133.219,1.604,136.169,2.228,139.27,3.851"/>
	</defs>
	<clipPath id="SVGID_17_">
		<use xlink:href="#SVGID_5_"  overflow="visible"/>
	</clipPath>
	<path clip-path="url(#SVGID_17_)" fill="#CFCFCF" d="M185.483,339.142C77.582,339.142,0,247.339,0,160.099
		C0,127.978,22.056,56.373,70.709,56.373c-10.098,10.086-38.093,43.608-38.093,91.582c0,65.867,44.521,137.496,152.753,148.41
		C214.174,299.271,239.638,339.142,185.483,339.142z"/>
	<g clip-path="url(#SVGID_17_)">
		<path fill="#CED0D2" d="M184.405,296.599c24.395,2.32,45.076,30.475,19.695,39.061c-4.945,1.664-11.603,2.629-20.263,2.564
			C81.562,337.388,7.325,254.904,1.096,171.479c-0.292-3.871-0.433-7.708-0.433-11.526c0.113-25.995,14.095-75.076,43.213-94.347
			c7.544-4.891,16.15-7.673,25.925-7.372c-8.104,8.572-27.417,32.004-34.442,65.354c-1.684,8.051-2.656,16.636-2.601,25.727
			C33.174,215.306,78.479,286.097,184.405,296.599z"/>
		<path fill="#C9CBCD" d="M183.431,296.824c24.658,2.248,44.256,30.127,18.869,38.166c-4.961,1.541-11.561,2.418-20.089,2.305
			C80.729,335.648,7.705,254.458,1.729,171.209c-0.274-3.809-0.417-7.638-0.407-11.427c0.208-26.65,14.446-74.795,42.951-93.447
			c7.166-4.472,15.333-6.831,24.582-6.214c-7.99,8.969-26.783,32.346-33.535,65.037c-1.579,7.997-2.504,16.53-2.42,25.532
			C33.742,216.798,79.784,286.761,183.431,296.824z"/>
		<path fill="#C6C8CB" d="M182.477,297.07c24.884,2.131,43.413,29.77,18.036,37.248c-4.999,1.453-11.551,2.23-19.908,2.066
			C79.896,333.894,8.111,254.064,2.355,170.949c-0.267-3.783-0.38-7.584-0.362-11.351c0.304-27.285,14.779-74.487,42.697-92.527
			c6.768-4.043,14.484-6.015,23.238-5.066c-7.902,9.344-26.142,32.691-32.617,64.743c-1.55,7.949-2.384,16.393-2.27,25.29
			C34.299,218.263,81.118,287.396,182.477,297.07z"/>
		<path fill="#C1C4C7" d="M181.513,297.3c25.149,2.066,42.582,29.416,17.215,36.369c-5.02,1.303-11.512,2.014-19.768,1.785
			C79.066,332.134,8.481,253.646,2.986,170.68c-0.254-3.76-0.359-7.521-0.329-11.228C3.052,131.526,17.763,85.2,45.105,67.812
			c6.381-3.624,13.631-5.178,21.896-3.912c-7.81,9.726-25.526,33.046-31.728,64.432c-1.455,7.896-2.24,16.286-2.08,25.095
			C34.877,219.748,82.45,288.05,181.513,297.3z"/>
		<path fill="#BEC1C3" d="M180.548,297.517c25.395,1.99,41.744,29.082,16.377,35.465c-5.049,1.211-11.48,1.818-19.582,1.553
			C78.233,330.376,8.86,253.228,3.639,170.408c-0.264-3.736-0.359-7.432-0.34-11.138C3.811,130.707,18.777,85.3,45.504,68.565
			c5.991-3.226,12.8-4.378,20.59-2.808c-7.752,10.134-24.923,33.423-30.84,64.15c-1.399,7.854-2.118,16.181-1.919,24.86
			C35.435,221.242,83.773,288.71,180.548,297.517z"/>
		<path fill="#BABDC0" d="M179.563,297.765c25.67,1.854,40.918,28.721,15.572,34.559c-5.06,1.094-11.447,1.605-19.427,1.293
			C77.391,328.628,9.265,252.822,4.263,170.155c-0.244-3.688-0.321-7.396-0.283-11.057c0.588-29.19,15.808-73.682,41.939-89.815
			c5.597-2.76,11.969-3.525,19.23-1.63c-7.629,10.526-24.297,33.774-29.914,63.832c-1.325,7.819-1.985,16.052-1.749,24.648
			C36.01,222.73,85.098,289.351,179.563,297.765z"/>
		<path fill="#B7BABD" d="M178.599,298.007c25.913,1.766,40.088,28.367,14.734,33.645c-5.07,0.971-11.423,1.4-19.253,1.047
			C76.561,326.875,9.643,252.406,4.887,169.896c-0.218-3.665-0.303-7.325-0.246-10.955c0.701-29.845,16.15-73.428,41.684-88.917
			c5.228-2.353,11.148-2.706,17.916-0.506c-7.583,10.916-23.674,34.135-29.023,63.55c-1.267,7.779-1.873,15.946-1.588,24.442
			C36.577,224.214,86.43,290.017,178.599,298.007z"/>
		<path fill="#B3B7BA" d="M177.636,298.218c26.17,1.695,39.253,28.039,13.918,32.764c-5.127,0.877-11.402,1.229-19.097,0.789
			C75.738,325.138,10.023,252,5.531,169.632c-0.227-3.636-0.304-7.267-0.227-10.874c0.785-30.456,16.498-73.146,41.428-87.98
			c4.84-1.953,10.305-1.877,16.583,0.624c-7.487,11.321-23.05,34.499-28.118,63.237c-1.191,7.726-1.757,15.835-1.418,24.242
			C37.145,225.691,87.763,290.658,177.636,298.218z"/>
		<path fill="#AFB3B7" d="M176.683,298.46c26.412,1.611,38.412,27.68,13.074,31.838c-5.143,0.783-11.373,1.014-18.936,0.561
			C74.915,323.378,10.409,251.593,6.153,169.36c-0.207-3.624-0.264-7.196-0.207-10.762c0.908-31.115,16.849-72.863,41.192-87.092
			c4.443-1.513,9.473-1.03,15.258,1.777c-7.392,11.703-22.444,34.852-27.228,62.914c-1.135,7.708-1.599,15.733-1.238,24.043
			C37.709,227.173,89.086,291.328,176.683,298.46z"/>
		<path fill="#ACB0B3" d="M175.708,298.689c26.679,1.506,37.587,27.326,12.269,30.951c-5.16,0.646-11.381,0.83-18.784,0.287
			C74.092,321.621,10.786,251.179,6.777,169.091c-0.179-3.572-0.245-7.144-0.169-10.634c1.002-31.786,17.217-72.64,40.938-86.202
			c4.063-1.101,8.619-0.23,13.925,2.918c-7.318,12.087-21.812,35.199-26.323,62.625c-1.059,7.645-1.481,15.587-1.074,23.825
			C38.273,228.656,90.411,291.974,175.708,298.689z"/>
		<path fill="#A9ADB0" d="M174.743,298.919c26.928,1.412,36.748,26.996,11.439,30.055c-5.199,0.541-11.335,0.605-18.615,0.023
			C73.26,319.871,11.164,250.75,7.42,168.837c-0.18-3.561-0.226-7.077-0.142-10.556c1.088-32.393,17.538-72.335,40.673-85.298
			c3.679-0.67,7.81,0.612,12.584,4.066c-7.213,12.475-21.177,35.553-25.396,62.325c-1.021,7.597-1.361,15.493-0.943,23.602
			C38.847,230.138,91.744,292.634,174.743,298.919z"/>
		<path fill="#A5AAAE" d="M173.76,299.154c27.188,1.318,35.935,26.65,10.625,29.162c-5.209,0.395-11.308,0.395-18.454-0.242
			c-93.512-9.973-154.388-77.74-157.877-159.5c-0.158-3.525-0.209-7.003-0.132-10.464c1.201-33.045,17.897-72.079,40.434-84.371
			c3.304-0.266,6.96,1.416,11.251,5.189c-7.135,12.874-20.551,35.922-24.502,62.024c-0.917,7.562-1.25,15.387-0.758,23.396
			C39.404,231.621,93.076,293.277,173.76,299.154z"/>
		<path fill="#A2A7AB" d="M172.785,299.384c27.446,1.217,35.104,26.314,9.806,28.262c-5.229,0.316-11.271,0.176-18.286-0.494
			C71.578,316.341,11.922,249.945,8.688,168.319c-0.151-3.506-0.188-6.967-0.094-10.392c1.304-33.669,18.227-71.78,40.182-83.449
			c2.891,0.146,6.125,2.235,9.916,6.331c-7.043,13.281-19.958,36.294-23.597,61.72c-0.897,7.515-1.118,15.258-0.576,23.201
			C39.982,233.123,94.392,293.941,172.785,299.384z"/>
		<path fill="#9EA4A8" d="M171.832,299.619c27.701,1.135,34.259,25.943,8.978,27.361c-5.255,0.172-11.256,0-18.131-0.752
			C70.756,314.593,12.308,249.527,9.31,168.055c-0.131-3.478-0.159-6.902-0.045-10.273c1.389-34.323,18.578-71.528,39.917-82.561
			c2.523,0.576,5.283,3.077,8.594,7.461c-6.979,13.681-19.336,36.652-22.71,61.436c-0.796,7.468-0.977,15.135-0.419,22.961
			C40.549,234.587,95.732,294.587,171.832,299.619z"/>
		<path fill="#9BA1A5" d="M170.866,299.855c27.947,1.023,33.432,25.584,8.151,26.432c-5.295,0.1-11.215-0.182-17.963-0.973
			C69.932,312.847,12.687,249.109,9.937,167.807c-0.135-3.458-0.135-6.843,0-10.195c1.464-34.976,18.918-71.247,39.652-81.673
			c2.127,1.029,4.45,3.925,7.261,8.644c-6.875,14.057-18.72,36.994-21.803,61.112c-0.747,7.421-0.849,15.035-0.228,22.736
			C41.116,236.07,97.047,295.236,170.866,299.855z"/>
		<path fill="#989EA2" d="M169.901,300.101c28.215,0.936,32.572,25.232,7.327,25.525c-5.313-0.018-11.202-0.383-17.8-1.242
			C69.121,311.087,13.065,248.685,10.57,167.525c-0.103-3.401-0.103-6.772,0-10.086c1.608-35.611,19.295-70.987,39.413-80.743
			c1.76,1.431,3.623,4.727,5.938,9.744c-6.796,14.481-18.083,37.395-20.913,60.819c-0.662,7.397-0.708,14.922-0.056,22.548
			C41.684,237.564,98.388,295.894,169.901,300.101z"/>
		<path fill="#949B9F" d="M168.917,300.332c28.478,0.84,31.768,24.889,6.507,24.643c-5.333-0.16-11.167-0.619-17.631-1.512
			c-89.505-14.123-144.34-75.188-146.571-156.214c-0.113-3.371-0.113-6.714,0.009-9.973c1.712-36.23,19.647-70.698,39.169-79.843
			c1.363,1.864,2.78,5.556,4.606,10.903c-6.723,14.852-17.482,37.723-19.998,60.512c-0.625,7.339-0.604,14.806,0.086,22.338
			C42.251,239.048,99.724,296.541,168.917,300.332z"/>
		<path fill="#91989C" d="M167.955,300.566c28.733,0.752,30.925,24.531,5.691,23.748c-5.36-0.27-11.154-0.811-17.473-1.764
			C67.437,307.593,13.841,247.857,11.845,166.996c-0.103-3.36-0.075-6.644,0.057-9.898c1.797-36.869,19.968-70.421,38.914-78.918
			c0.973,2.271,1.929,6.367,3.25,12.04c-6.617,15.228-16.847,38.082-19.097,60.213c-0.511,7.319-0.452,14.691,0.266,22.129
			C42.807,240.529,101.037,297.207,167.955,300.566z"/>
		<path fill="#8E9599" d="M167.01,300.783c28.958,0.66,30.062,24.203,4.841,22.85c-5.38-0.359-11.122-1-17.312-2
			C66.625,305.832,14.22,247.451,12.471,166.725c-0.078-3.307-0.059-6.573,0.094-9.785c1.879-37.5,20.326-70.146,38.659-78.018
			c0.575,2.688,1.096,7.202,1.92,13.186c-6.524,15.617-16.216,38.418-18.192,59.896c-0.463,7.268-0.34,14.587,0.444,21.918
			C43.375,242.013,102.361,297.853,167.01,300.783z"/>
		<path fill="#8B9296" d="M166.048,301.019c29.202,0.564,29.229,23.865,4.025,21.941c-5.417-0.48-11.098-1.211-17.169-2.27
			c-87.112-16.6-138.296-73.652-139.809-154.224c-0.057-3.291-0.029-6.515,0.113-9.697C15.23,118.61,33.893,86.906,51.63,79.656
			c0.208,3.113,0.264,8.051,0.586,14.328c-6.45,16.022-15.583,38.788-17.284,59.596c-0.408,7.22-0.208,14.475,0.595,21.707
			C43.934,243.513,103.693,298.496,166.048,301.019z"/>
		<path fill="#888F94" d="M165.072,301.253c29.488,0.488,28.419,23.525,3.202,21.037c-5.424-0.588-11.078-1.4-16.986-2.514
			c-86.329-17.445-136.304-73.15-137.553-153.587c-0.064-3.248-0.007-6.437,0.143-9.585c2.09-38.789,21.017-69.61,38.159-76.212
			c-0.182,3.541-0.578,8.861-0.729,15.47c-6.372,16.411-14.984,39.159-16.404,59.307c-0.332,7.173-0.085,14.352,0.786,21.476
			C44.521,244.972,105.027,299.154,165.072,301.253z"/>
		<path fill="#858C91" d="M164.098,301.49c29.743,0.371,27.579,23.166,2.372,20.143c-5.443-0.725-11.032-1.631-16.82-2.791
			C64.128,300.578,15.362,246.214,14.369,165.948c-0.038-3.237,0.01-6.42,0.162-9.509c2.194-39.43,21.376-69.333,37.928-75.3
			c-0.584,3.972-1.426,9.68-2.086,16.593c-6.278,16.8-14.363,39.507-15.496,59.008c-0.266,7.137,0.056,14.252,0.953,21.265
			C45.088,246.46,106.351,299.808,164.098,301.49z"/>
		<path fill="#818A8F" d="M163.131,301.742c29.992,0.271,26.756,22.779,1.551,19.225c-5.473-0.836-11.031-1.836-16.656-3.041
			C63.305,298.837,15.742,245.796,15.003,165.666c-0.038-3.189,0.021-6.319,0.198-9.403c2.281-40.071,21.701-69.045,37.648-74.395
			c-0.955,4.385-2.24,10.522-3.396,17.748c-6.192,17.204-13.745,39.864-14.587,58.7c-0.22,7.091,0.179,14.133,1.117,21.071
			C45.637,247.957,107.674,300.46,163.131,301.742z"/>
		<path fill="#7F878C" d="M162.169,301.955c30.234,0.188,25.921,22.453,0.719,18.34c-5.495-0.916-10.987-2.012-16.487-3.287
			C62.483,297.07,16.138,245.39,15.627,165.407c-0.009-3.167,0.058-6.279,0.228-9.297c2.401-40.706,22.064-68.798,37.4-73.506
			c-1.344,4.813-3.082,11.345-4.726,18.895c-6.108,17.588-13.124,40.225-13.681,58.4c-0.143,7.038,0.3,14.01,1.266,20.84
			C46.22,249.445,108.998,301.125,162.169,301.955z"/>
		<path fill="#7C8489" d="M161.204,302.185c30.499,0.094,25.072,22.129-0.104,17.439c-5.513-1.047-10.958-2.217-16.345-3.541
			C61.65,295.318,16.515,244.955,16.27,165.153c-0.037-3.147,0.066-6.213,0.245-9.209c2.497-41.365,22.408-68.526,37.145-72.581
			c-1.719,5.215-3.903,12.157-6.067,20.013c-6.016,17.999-12.489,40.589-12.775,58.095c-0.073,7.008,0.436,13.91,1.448,20.648
			C46.769,250.898,110.331,301.771,161.204,302.185z"/>
	</g>
	<path clip-path="url(#SVGID_17_)" fill="#788186" d="M159.315,318.955c-92.74-19.283-142.421-69.328-142.421-154.071
		c0-47.285,22.029-77.124,37.194-80.79c-6.903,18.346-19.285,54.611-19.285,78.971c0,79.218,72.172,139.355,125.428,139.355
		C190.966,302.419,184.472,324.191,159.315,318.955z"/>
</g>
<linearGradient id="SVGID_18_" gradientUnits="userSpaceOnUse" x1="2088.5215" y1="-1846.127" x2="1026.1841" y2="1687.5433" gradientTransform="matrix(0.0726 0 0 0.0728 146.3876 173.7859)">
	<stop  offset="0" style="stop-color:#4C616C"/>
	<stop  offset="0.27" style="stop-color:#4C616C"/>
	<stop  offset="0.51" style="stop-color:#BACBDE"/>
	<stop  offset="0.91" style="stop-color:#BACBDE"/>
	<stop  offset="1" style="stop-color:#829FC1"/>
</linearGradient>
<path fill="url(#SVGID_18_)" d="M224.632,8.817c-0.076,0.065-0.129,0.153-0.188,0.241l-0.283,0.729
	c53.689,16.782,113.961,63.797,113.961,138.104c0,64.56-44.936,139.218-152.752,148.474l0.018,4.307
	c107.855-9.309,156.299-87.027,156.299-150.428C341.687,75.962,288.509,25.663,224.632,8.817z"/>
<path fill="#D6DDE4" d="M231.442,3.804c65.703,19.188,122.742,68.232,122.742,150.965c0,85.09-73.146,157.584-168.797,162.534
	l-0.018,16.639c84.094,0,180.971-69.109,180.971-174.753c0-90.781-56.328-136.619-123.479-158.256
	c-0.846-0.17-1.93-0.059-2.686,0.059c-1.26,0.178-2.943,0.572-4.871,1.161C233.966,2.622,232.354,3.321,231.442,3.804"/>
<linearGradient id="SVGID_19_" gradientUnits="userSpaceOnUse" x1="1783.7568" y1="-21.3027" x2="1354.562" y2="-1873.6073" gradientTransform="matrix(0.0934 0 0 0.0934 144.9949 169.9989)">
	<stop  offset="0" style="stop-color:#B3CCEA"/>
	<stop  offset="1" style="stop-color:#7E9EC3"/>
</linearGradient>
<path fill="url(#SVGID_19_)" d="M224.632,8.817c63.877,16.846,117.055,67.145,117.055,141.426l12.498,4.525
	c0-82.732-57.039-131.776-122.742-150.965C228.378,5.24,225.919,7.353,224.632,8.817z"/>
<linearGradient id="SVGID_20_" gradientUnits="userSpaceOnUse" x1="4958.4844" y1="4813.5493" x2="2049.2725" y2="973.9759" gradientTransform="matrix(0.0726 0 0 0.0728 127.5805 173.7913)">
	<stop  offset="0" style="stop-color:#FFFFFF"/>
	<stop  offset="0.92" style="stop-color:#FFFFFF"/>
	<stop  offset="0.9292" style="stop-color:#EDF3FA"/>
	<stop  offset="0.9455" style="stop-color:#D4E2F3"/>
	<stop  offset="0.9624" style="stop-color:#C1D6EE"/>
	<stop  offset="0.9801" style="stop-color:#B7CEEB"/>
	<stop  offset="1" style="stop-color:#B3CCEA"/>
</linearGradient>
<path fill="url(#SVGID_20_)" d="M354.185,154.769c0,85.09-73.072,157.614-168.721,162.563v-16.654
	c107.826-9.291,156.223-87.033,156.223-150.434L354.185,154.769z"/>
<linearGradient id="SVGID_21_" gradientUnits="userSpaceOnUse" x1="-968.585" y1="-1483.1509" x2="388.655" y2="1630.9863" gradientTransform="matrix(0.0934 0 0 0.0934 143.6888 171.1791)">
	<stop  offset="0" style="stop-color:#7192B4"/>
	<stop  offset="0.48" style="stop-color:#8BADD8"/>
	<stop  offset="0.94" style="stop-color:#CCDFF3"/>
	<stop  offset="1" style="stop-color:#EEF3FA"/>
</linearGradient>
<path fill="url(#SVGID_21_)" d="M146.097,8.858C82.224,25.71,29.035,76.021,29.035,150.278c0,63.401,48.537,141.084,156.353,150.393
	v16.631c-95.64-4.949-168.682-77.443-168.682-162.534c0-82.732,56.856-131.724,122.564-150.918
	C141.652,4.957,144.658,7.151,146.097,8.858"/>
<linearGradient id="SVGID_22_" gradientUnits="userSpaceOnUse" x1="-766.0518" y1="-2190.5083" x2="-463.6855" y2="1696.3431" gradientTransform="matrix(0.0726 0 0 0.0728 146.414 173.7913)">
	<stop  offset="0" style="stop-color:#4C616C"/>
	<stop  offset="0.91" style="stop-color:#98B2D2"/>
	<stop  offset="1" style="stop-color:#82A2C8"/>
</linearGradient>
<path fill="url(#SVGID_22_)" d="M32.617,147.955c0-74.313,60.232-121.321,113.916-138.119l-0.286-0.719
	c-0.047-0.105-0.092-0.188-0.149-0.259C82.224,25.71,29.035,76.021,29.035,150.278c0,63.401,48.537,141.084,156.353,150.393
	l-0.018-4.307C77.611,287.109,32.617,211.316,32.617,147.955z"/>
<g>
	<defs>
		<path id="SVGID_4_" d="M185.444,300.671l0.02,16.631c-0.02,0-0.036,0-0.076,0l-0.018,16.639
			c84.094,0,180.971-69.109,180.971-174.753c0-90.781-56.328-136.619-123.479-158.256c-0.846-0.17-1.93-0.059-2.686,0.059
			c-1.26,0.178-2.943,0.572-4.871,1.161c-1.34,0.471-2.951,1.17-3.863,1.652c-3.064,1.437-5.523,3.549-6.811,5.014
			c-0.076,0.065-0.129,0.153-0.188,0.241l-0.283,0.729c53.689,16.782,113.961,63.797,113.961,138.104
			c0,64.56-44.936,139.218-152.752,148.474L185.444,300.671z"/>
	</defs>
	<clipPath id="SVGID_23_">
		<use xlink:href="#SVGID_4_"  overflow="visible"/>
	</clipPath>
	<path clip-path="url(#SVGID_23_)" fill="#E1E8F5" d="M224.548,8.93c16.063,4.242,31.209,10.52,45.041,18.682
		c14.285,8.421,26.85,18.652,37.266,30.409c11.016,12.333,19.533,26.185,25.357,41.166c6.186,15.935,9.324,33.098,9.324,51.057
		c0,16.099-3.178,33.01-9.227,48.891c-6.525,17.1-16.086,32.764-28.441,46.508c-13.453,15.006-29.797,27.25-48.611,36.395
		c-20.68,10.051-44.189,16.271-69.869,18.5l0.02,0.246c25.715-2.211,49.256-8.426,69.961-18.521
		c18.846-9.15,35.238-21.424,48.711-36.436c12.361-13.787,21.924-29.473,28.48-46.609c6.064-15.904,9.268-32.857,9.268-48.973
		c0-17.994-3.156-35.198-9.357-51.139c-5.824-15.022-14.373-28.903-25.363-41.248c-10.498-11.78-23.07-22.037-37.369-30.469
		c-13.818-8.155-28.957-14.428-44.971-18.677C224.698,8.676,224.479,8.9,224.548,8.93z"/>
</g>
<g>
	<defs>
		<path id="SVGID_3_" d="M231.536,3.851c65.695,19.194,122.564,68.186,122.564,150.918c0,85.09-73.063,157.584-168.713,162.534
			l-0.018,16.639c84.094,0,181.039-69.057,181.039-174.689c0-90.799-56.289-136.631-123.461-158.262
			c-0.828-0.164-1.725-0.117-2.486,0.037C237.583,1.604,234.646,2.228,231.536,3.851"/>
	</defs>
	<clipPath id="SVGID_24_">
		<use xlink:href="#SVGID_3_"  overflow="visible"/>
	</clipPath>
	<path clip-path="url(#SVGID_24_)" fill="#D6DDE4" d="M183.874,342.501c107.877,0,186.934-95.162,186.934-182.403
		c0-32.121-22.039-103.726-70.711-103.726c10.1,10.086,38.102,43.608,38.102,91.582c0,65.867-44.541,137.496-152.771,148.41
		C156.617,299.271,129.702,342.501,183.874,342.501z"/>
	<g clip-path="url(#SVGID_24_)">
		<path fill="#CCD4DB" d="M184.709,341.609c107.153-0.912,184.886-94.064,184.886-181.174c0-32.863-22.018-102.49-69.121-102.643
			c9.947,10.479,37.242,44.13,37.242,90.956c0,66.527-45.871,137.601-151.493,148C157.337,299.507,131.065,342.039,184.709,341.609z
			"/>
		<path fill="#C6CED4" d="M185.579,340.755c106.424-1.813,182.826-93.018,182.826-180.002c0-33.582-22.041-101.214-67.535-101.562
			c9.813,10.881,36.332,44.649,36.332,90.369c0,67.156-47.176,137.689-150.168,147.562
			C158.027,299.753,132.424,341.609,185.579,340.755z"/>
		<path fill="#C0C7CE" d="M186.39,339.884c105.717-2.719,180.822-91.945,180.822-178.802c0-34.322-22.057-99.955-65.961-100.496
			c9.652,11.286,35.434,45.185,35.434,89.774c0,67.792-48.49,137.76-148.857,147.139
			C158.728,300.001,133.768,341.162,186.39,339.884z"/>
		<path fill="#B9C1C8" d="M187.242,338.996c105.007-3.629,178.753-90.863,178.753-177.625c0-35.018-22.041-98.667-64.348-99.366
			c9.502,11.686,34.525,45.702,34.525,89.191c0,68.393-49.791,137.844-147.559,146.688
			C159.445,300.242,135.148,340.697,187.242,338.996z"/>
		<path fill="#B3BBC1" d="M188.091,338.125c104.281-4.525,176.676-89.773,176.676-176.425c0-35.734-22.023-97.4-62.721-98.276
			c9.35,12.056,33.619,46.225,33.619,88.58c0,69.051-51.109,137.942-146.26,146.264C160.144,300.472,136.5,340.273,188.091,338.125z
			"/>
		<path fill="#ACB4BB" d="M188.925,337.253c103.559-5.453,174.66-88.715,174.66-175.248c0-36.459-22.049-96.137-61.135-97.184
			c9.162,12.47,32.715,46.756,32.715,87.963c0,69.716-52.436,138.06-144.953,145.839
			C160.843,300.724,137.87,339.796,188.925,337.253z"/>
		<path fill="#A5AEB4" d="M189.776,336.396c102.85-6.361,172.566-87.641,172.566-174.054c0-37.184-22.018-94.884-59.521-96.102
			c9.045,12.852,31.84,47.274,31.84,87.375c0,70.322-53.746,138.13-143.656,145.398
			C161.544,300.943,139.225,339.367,189.776,336.396z"/>
		<path fill="#9FA7AD" d="M190.625,335.531c102.126-7.285,170.528-86.604,170.528-172.878c0-37.898-22.029-93.599-57.945-94.999
			c8.885,13.24,30.953,47.81,30.953,86.779c0,70.952-55.08,138.202-142.361,144.952
			C162.243,301.183,140.584,338.925,190.625,335.531z"/>
		<path fill="#99A0A6" d="M191.456,334.648c101.428-8.168,168.486-85.521,168.486-171.671c0-38.629-22.02-92.346-56.346-93.923
			c8.738,13.651,30.055,48.344,30.055,86.18c0,71.586-56.387,138.295-141.059,144.54
			C162.942,301.425,141.946,338.455,191.456,334.648z"/>
		<path fill="#929AA0" d="M192.312,333.783c100.684-9.08,166.432-84.449,166.432-170.5c0-39.359-22.031-91.074-54.74-92.806
			c8.566,14.029,29.154,48.857,29.154,85.551c0,72.251-57.717,138.408-139.771,144.132
			C163.644,301.671,143.317,338.025,192.312,333.783z"/>
		<path fill="#8C9499" d="M193.151,332.9c99.967-10.004,164.398-83.373,164.398-169.299c0-40.072-22.037-89.798-53.17-91.717
			c8.434,14.439,28.26,49.38,28.26,84.968c0,72.876-59.025,138.484-138.479,143.685C164.342,301.908,144.679,337.566,193.151,332.9z
			"/>
		<path fill="#858D93" d="M194.012,332.041c99.231-10.908,162.339-82.291,162.339-168.116c0-40.783-22.037-88.546-51.576-90.641
			c8.266,14.835,27.354,49.904,27.354,84.368c0,73.509-60.336,138.583-137.154,143.261
			C165.042,302.167,146.042,337.113,194.012,332.041z"/>
		<path fill="#7F878C" d="M194.825,331.152c98.561-11.816,160.305-81.225,160.305-166.911c0-41.523-22.027-87.273-49.975-89.544
			c8.141,15.228,26.473,50.432,26.473,83.777c0,74.14-61.654,138.648-135.84,142.808
			C165.762,302.396,147.401,336.671,194.825,331.152z"/>
		<path fill="#798186" d="M195.694,330.287c97.813-12.715,158.225-80.172,158.225-165.721c0-42.242-22.035-86.003-48.367-88.445
			c7.979,15.6,25.576,50.939,25.576,83.15c0,74.793-62.986,138.76-134.554,142.401C166.461,302.644,148.753,336.224,195.694,330.287
			z"/>
		<path fill="#737B7F" d="M196.536,329.427c97.094-13.639,156.172-79.094,156.172-164.561c0-42.938-22.025-84.716-46.777-87.346
			c7.82,16.017,24.686,51.481,24.686,82.561c0,75.43-64.297,138.838-133.251,141.956
			C167.163,302.875,150.125,335.771,196.536,329.427z"/>
		<path fill="#6D7479" d="M197.377,328.55c96.378-14.539,154.132-78.023,154.132-163.374c0-43.666-22.02-83.438-45.174-86.226
			c7.666,16.394,23.77,51.975,23.77,81.954c0,76.042-65.594,138.92-131.944,141.514C167.87,303.109,151.475,335.335,197.377,328.55z
			"/>
		<path fill="#676E73" d="M198.216,327.687c95.66-15.451,152.072-76.967,152.072-162.174c0-44.407-22.027-82.19-43.545-85.155
			c7.488,16.77,22.854,52.51,22.854,81.342c0,76.695-66.912,139.025-130.633,141.103
			C168.581,303.355,152.83,334.876,198.216,327.687z"/>
		<path fill="#62686D" d="M199.069,326.816c94.949-16.371,150.029-75.889,150.029-160.986c0-45.113-22.049-80.925-41.986-84.085
			c7.357,17.188,21.99,53.063,21.99,80.767c0,77.335-68.238,139.095-129.363,140.662C169.279,303.591,154.2,334.453,199.069,326.816
			z"/>
		<path fill="#5B6266" d="M199.91,325.945c94.212-17.275,147.979-74.824,147.979-159.791c0-45.844-22.02-79.661-40.373-82.99
			c7.188,17.563,21.066,53.575,21.066,80.16c0,77.958-69.545,139.203-128.031,140.255
			C169.969,303.855,155.568,334.011,199.91,325.945z"/>
		<path fill="#555C60" d="M200.761,325.05c93.484-18.164,145.936-73.723,145.936-158.583c0-46.563-22.035-78.385-38.787-81.885
			c7.031,17.965,20.174,54.1,20.174,79.56c0,78.59-70.871,139.28-126.734,139.797C170.68,304.085,156.921,333.541,200.761,325.05z"
			/>
	</g>
	<path clip-path="url(#SVGID_24_)" fill="#4F5559" d="M201.603,324.203c92.773-19.088,143.891-72.67,143.891-157.425
		c0-47.278-22.045-77.129-37.199-80.79c6.873,18.365,19.275,54.635,19.275,78.967c0,79.219-72.184,139.36-125.428,139.36
		C171.378,304.314,158.273,333.111,201.603,324.203z"/>
	<path clip-path="url(#SVGID_24_)" fill="#E0E0E0" d="M185.37,334.193c22.719,0,46.703-5.078,69.385-14.703
		c23.096-9.785,44.463-24.143,61.842-41.514c15.543-15.551,27.746-33.215,36.271-52.486c9.162-20.813,13.799-43.09,13.799-66.238
		c0-21.872-3.309-42.078-9.873-60.071c-6.072-16.729-15.061-31.922-26.721-45.156c-20.617-23.377-49.889-41.307-87.049-53.292l0,0
		c-0.135-0.035-0.277,0.047-0.316,0.17c-0.047,0.131,0.029,0.283,0.164,0.318l0,0c37.078,11.951,66.285,29.839,86.799,53.116
		c11.619,13.229,20.6,28.368,26.68,45.002c6.496,17.936,9.805,38.111,9.805,59.913c0,25.232-5.531,49.38-16.422,71.74
		c-10.07,20.619-24.355,39.137-42.479,55.018c-16.926,14.84-37.053,27.037-58.221,35.24c-20.924,8.131-42.943,12.42-63.664,12.42
		l0,0c-0.152,0-0.267,0.119-0.267,0.271C185.104,334.099,185.218,334.193,185.37,334.193L185.37,334.193z"/>
</g>
<path fill="#E1E8F5" d="M146.042,8.711c-16.149,4.255-31.4,10.574-45.277,18.766c-14.288,8.442-26.851,18.682-37.279,30.456
	C52.518,70.283,44,84.135,38.185,99.157c-6.194,15.952-9.331,33.15-9.331,51.121c0,16.159,3.224,33.094,9.291,49.002
	c6.524,17.125,16.121,32.816,28.517,46.604c28.483,31.697,69.546,50.715,118.725,54.947l0.02-0.354
	c-49.087-4.207-90.083-23.189-118.482-54.836c-12.366-13.744-21.941-29.391-28.457-46.479c-6.07-15.869-9.246-32.761-9.246-48.885
	c0-17.924,3.12-35.093,9.275-50.986C44.3,84.316,52.802,70.477,63.739,58.167c10.429-11.749,22.925-21.982,37.193-30.392
	c13.852-8.189,29.168-14.498,45.296-18.734L146.042,8.711z"/>
<path fill="#E0E0E0" d="M234.485,10.912c16.686,0.259,26.951,2.766,43.555,13.057C261.165,23.352,246.802,16.19,234.485,10.912z"/>
<linearGradient id="SVGID_25_" gradientUnits="userSpaceOnUse" x1="1232.9961" y1="-1911.1631" x2="1291.0605" y2="-1849.4119" gradientTransform="matrix(0.0934 0 0 0.0934 143.6888 198.6952)">
	<stop  offset="0" style="stop-color:#2A383D"/>
	<stop  offset="1" style="stop-color:#8293A4"/>
</linearGradient>
<path fill="url(#SVGID_25_)" d="M278.04,23.969c-16.604-10.291-26.869-12.798-43.555-13.057
	C251.446,14.602,262.591,17.996,278.04,23.969z"/>
<linearGradient id="SVGID_26_" gradientUnits="userSpaceOnUse" x1="1100.124" y1="-1796.3862" x2="1672.9003" y2="-1466.9827" gradientTransform="matrix(0.0934 0 0 0.0934 143.6888 171.1791)">
	<stop  offset="0" style="stop-color:#7192B4"/>
	<stop  offset="0.48" style="stop-color:#8BADD8"/>
	<stop  offset="0.94" style="stop-color:#CCDFF3"/>
	<stop  offset="1" style="stop-color:#EEF3FA"/>
</linearGradient>
<path fill="url(#SVGID_26_)" d="M279.214,16.008c5.861,10.392,16.678,20.33,29.639,29.732
	C303.483,32.76,300.978,27.299,279.214,16.008z"/>
<linearGradient id="SVGID_27_" gradientUnits="userSpaceOnUse" x1="1465.8789" y1="-1339.9746" x2="1783.2458" y2="-1021.6768" gradientTransform="matrix(0.0934 0 0 0.0934 143.6888 142.9789)">
	<stop  offset="0" style="stop-color:#2A383D"/>
	<stop  offset="1" style="stop-color:#8293A4"/>
</linearGradient>
<path fill="url(#SVGID_27_)" d="M308.853,45.74c-8.494-10.567-17.443-21.219-29.639-29.732
	C285.075,26.399,295.892,36.338,308.853,45.74z"/>
<linearGradient id="SVGID_28_" gradientUnits="userSpaceOnUse" x1="2128.5537" y1="-1053.9834" x2="1828.672" y2="-1211.2974" gradientTransform="matrix(0.0934 0 0 0.0934 143.6888 171.1791)">
	<stop  offset="0" style="stop-color:#8EAAC9"/>
	<stop  offset="1" style="stop-color:#E7EEF8"/>
</linearGradient>
<path fill="url(#SVGID_28_)" d="M295.976,46.1c13.793,3.754,20.742,6.443,31.859,22.818C311.519,62.216,308.304,59.121,295.976,46.1
	z"/>
<linearGradient id="SVGID_29_" gradientUnits="userSpaceOnUse" x1="1833.2314" y1="-1419.9946" x2="1785.3081" y2="-1556.3933" gradientTransform="matrix(0.0934 0 0 0.0934 143.6888 198.6952)">
	<stop  offset="0" style="stop-color:#2A383D"/>
	<stop  offset="1" style="stop-color:#8293A4"/>
</linearGradient>
<path fill="url(#SVGID_29_)" d="M295.976,46.1c9.094,4.695,20.732,12.733,31.859,22.818C316.718,52.543,309.769,49.854,295.976,46.1
	z"/>
<linearGradient id="SVGID_30_" gradientUnits="userSpaceOnUse" x1="2036.4795" y1="-1495.5054" x2="2058.6013" y2="-1377.5225" gradientTransform="matrix(0.0934 0 0 0.0934 143.6888 198.6952)">
	<stop  offset="0" style="stop-color:#8EAAC9"/>
	<stop  offset="1" style="stop-color:#E7EEF8"/>
</linearGradient>
<path fill="url(#SVGID_30_)" d="M327.45,52.543c1.465,13.697,7.23,27.926,16.334,41.618C343.54,80.204,344.847,68.918,327.45,52.543
	z"/>
<linearGradient id="SVGID_31_" gradientUnits="userSpaceOnUse" x1="2049.8193" y1="-964.0415" x2="2086.7141" y2="-1019.3826" gradientTransform="matrix(0.0934 0 0 0.0934 143.6888 198.6952)">
	<stop  offset="0" style="stop-color:#8EAAC9"/>
	<stop  offset="1" style="stop-color:#E7EEF8"/>
</linearGradient>
<path fill="url(#SVGID_31_)" d="M326.599,84.328c15.049,11.274,21.393,20.589,24.059,38.194
	C342.04,113.333,334.985,105.9,326.599,84.328z"/>
<linearGradient id="SVGID_32_" gradientUnits="userSpaceOnUse" x1="2078.8037" y1="-1075.6079" x2="2095.4028" y2="-964.9514" gradientTransform="matrix(0.0934 0 0 0.0934 143.6888 198.6952)">
	<stop  offset="0" style="stop-color:#2A383D"/>
	<stop  offset="1" style="stop-color:#8293A4"/>
</linearGradient>
<path fill="url(#SVGID_32_)" d="M326.599,84.328c11.543,13.393,17.654,23.632,24.059,38.194
	C347.991,104.917,341.647,95.603,326.599,84.328z"/>
<linearGradient id="SVGID_33_" gradientUnits="userSpaceOnUse" x1="2258.499" y1="-44.2964" x2="2306.8809" y2="-296.3187" gradientTransform="matrix(0.0934 0 0 0.0934 143.6888 171.1791)">
	<stop  offset="0" style="stop-color:#8EAAC9"/>
	<stop  offset="1" style="stop-color:#E7EEF8"/>
</linearGradient>
<path fill="url(#SVGID_33_)" d="M361.058,116.992c-2.268,9.396-4.813,11.815-5.625,19.07c-0.803,7.25-0.531,20.554-0.932,29.674
	C359.198,156.068,370.698,146.548,361.058,116.992z"/>
<linearGradient id="SVGID_34_" gradientUnits="userSpaceOnUse" x1="2345.7363" y1="-612.0337" x2="2288.0996" y2="-613.9551" gradientTransform="matrix(0.0934 0 0 0.0934 143.6888 198.6952)">
	<stop  offset="0" style="stop-color:#2A383D"/>
	<stop  offset="1" style="stop-color:#8293A4"/>
</linearGradient>
<path fill="url(#SVGID_34_)" d="M355.433,136.063c-0.803,7.25-0.531,20.554-0.932,29.674c5.574-18.518,7.299-31.516,6.557-48.744
	C358.79,126.389,356.245,128.808,355.433,136.063z"/>
<linearGradient id="SVGID_35_" gradientUnits="userSpaceOnUse" x1="2180.4287" y1="632.8091" x2="2150.0352" y2="130.5401" gradientTransform="matrix(0.0934 0 0 0.0934 143.6888 142.9789)">
	<stop  offset="0" style="stop-color:#8EAAC9"/>
	<stop  offset="1" style="stop-color:#E7EEF8"/>
</linearGradient>
<path fill="url(#SVGID_35_)" d="M343.122,153.004c4.02,13.01,12.869,24.819,2.799,48.451
	C345.394,190.308,337.487,183.33,343.122,153.004z"/>
<linearGradient id="SVGID_36_" gradientUnits="userSpaceOnUse" x1="2166.9805" y1="129.5625" x2="2198.1233" y2="642.769" gradientTransform="matrix(0.0934 0 0 0.0934 143.6888 142.9789)">
	<stop  offset="0" style="stop-color:#2A383D"/>
	<stop  offset="1" style="stop-color:#8293A4"/>
</linearGradient>
<path fill="url(#SVGID_36_)" d="M345.921,201.455c10.07-23.631,1.221-35.441-2.799-48.451
	C345.192,172.962,348.466,184.917,345.921,201.455z"/>
<linearGradient id="SVGID_37_" gradientUnits="userSpaceOnUse" x1="1995.3662" y1="662.0532" x2="2216.6348" y2="454.0146" gradientTransform="matrix(0.0934 0 0 0.0934 143.6888 171.1791)">
	<stop  offset="0" style="stop-color:#8EAAC9"/>
	<stop  offset="1" style="stop-color:#E7EEF8"/>
</linearGradient>
<path fill="url(#SVGID_37_)" d="M362.142,195.281c-6.15,8.727-15.936,11.463-30.684,39.348
	C351.435,224.431,357.718,215.275,362.142,195.281z"/>
<linearGradient id="SVGID_38_" gradientUnits="userSpaceOnUse" x1="2300.6934" y1="159.4556" x2="2094.2346" y2="183.4196" gradientTransform="matrix(0.0934 0 0 0.0934 143.6888 198.6952)">
	<stop  offset="0" style="stop-color:#2A383D"/>
	<stop  offset="1" style="stop-color:#8293A4"/>
</linearGradient>
<path fill="url(#SVGID_38_)" d="M331.458,234.628c15.904-14.834,24.201-24.484,30.684-39.348
	C355.991,204.007,346.206,206.744,331.458,234.628z"/>
<linearGradient id="SVGID_39_" gradientUnits="userSpaceOnUse" x1="2006.1016" y1="345.0532" x2="1944.0927" y2="324.3839" gradientTransform="matrix(0.0934 0 0 0.0934 143.6888 198.6952)">
	<stop  offset="0" style="stop-color:#8EAAC9"/>
	<stop  offset="1" style="stop-color:#E7EEF8"/>
</linearGradient>
<path fill="url(#SVGID_39_)" d="M330.7,205.996c-6.342,11.896-9.104,18.5-10.25,22.377c-1.17,3.836-1.842,19.619-2.619,22.949
	c8.91-10.133,10.281-17.352,11.17-21.371C329.907,225.914,331.163,214.851,330.7,205.996z"/>
<linearGradient id="SVGID_40_" gradientUnits="userSpaceOnUse" x1="1968.3438" y1="331.021" x2="1924.0358" y2="318.0977" gradientTransform="matrix(0.0934 0 0 0.0934 143.6888 198.6952)">
	<stop  offset="0" style="stop-color:#2A383D"/>
	<stop  offset="1" style="stop-color:#8293A4"/>
</linearGradient>
<path fill="url(#SVGID_40_)" d="M317.831,251.322c4.803-11.557,10.299-31.869,12.869-45.326c-6.342,11.896-9.104,18.5-10.25,22.377
	C319.317,232.08,318.608,247.992,317.831,251.322C317.841,251.322,317.831,251.328,317.831,251.322z"/>
<linearGradient id="SVGID_41_" gradientUnits="userSpaceOnUse" x1="1621.1689" y1="821.7046" x2="1565.4083" y2="790.107" gradientTransform="matrix(0.0934 0 0 0.0934 143.6888 198.6952)">
	<stop  offset="0" style="stop-color:#8EAAC9"/>
	<stop  offset="1" style="stop-color:#E7EEF8"/>
</linearGradient>
<path fill="url(#SVGID_41_)" d="M299.548,251.015c-8.395,7.873-13.375,12.705-17.396,18.977c-4.025,6.25-5.188,13.557-9.385,19.736
	C295.267,277.207,295.71,263.001,299.548,251.015z"/>
<linearGradient id="SVGID_42_" gradientUnits="userSpaceOnUse" x1="1922.4053" y1="1325.7847" x2="1818.9617" y2="1288.8414" gradientTransform="matrix(0.0726 0 0 0.0728 146.414 173.7913)">
	<stop  offset="0" style="stop-color:#2A383D"/>
	<stop  offset="1" style="stop-color:#8293A4"/>
</linearGradient>
<path fill="url(#SVGID_42_)" d="M282.151,269.992c-4.025,6.25-5.188,13.557-9.385,19.736c9.234-8.902,19.541-24.578,26.781-38.713
	C291.153,258.888,286.173,263.72,282.151,269.992z"/>
<linearGradient id="SVGID_43_" gradientUnits="userSpaceOnUse" x1="1676.3896" y1="724.7905" x2="1849.6385" y2="746.9065" gradientTransform="matrix(0.0934 0 0 0.0934 143.6888 198.6952)">
	<stop  offset="0" style="stop-color:#8EAAC9"/>
	<stop  offset="1" style="stop-color:#E7EEF8"/>
</linearGradient>
<path fill="url(#SVGID_43_)" d="M333.462,256.482c-7.006,3.148-13.797,4.266-21.008,7.426c-7.234,3.166-16.098,11.904-21.453,15.447
	C310.196,278.07,324.177,271.916,333.462,256.482z"/>
<linearGradient id="SVGID_44_" gradientUnits="userSpaceOnUse" x1="1258.8516" y1="1741.1577" x2="1211.7966" y2="1699.0558" gradientTransform="matrix(0.0726 0 0 0.0728 146.414 173.7913)">
	<stop  offset="0" style="stop-color:#8EAAC9"/>
	<stop  offset="1" style="stop-color:#E7EEF8"/>
</linearGradient>
<path fill="url(#SVGID_44_)" d="M215.321,312.511c6.676-6.18,8.756-11.945,15.193-16.93c6.41-4.959,17.008-10.32,23.816-12.346
	C246.435,292.775,236.462,308.357,215.321,312.511z"/>
<linearGradient id="SVGID_45_" gradientUnits="userSpaceOnUse" x1="1209.8096" y1="1696.0894" x2="1152.5626" y2="1636.3538" gradientTransform="matrix(0.0726 0 0 0.0728 146.414 173.7913)">
	<stop  offset="0" style="stop-color:#2A383D"/>
	<stop  offset="1" style="stop-color:#8293A4"/>
</linearGradient>
<path fill="url(#SVGID_45_)" d="M215.321,312.511c16.574-9.049,23.898-19.477,39.01-29.275c-6.809,2.025-17.406,7.387-23.816,12.346
	C224.077,300.566,221.997,306.332,215.321,312.511z"/>
<linearGradient id="SVGID_46_" gradientUnits="userSpaceOnUse" x1="1034.7578" y1="1439.5142" x2="1317.7546" y2="1421.9817" gradientTransform="matrix(0.0934 0 0 0.0934 143.6888 171.1791)">
	<stop  offset="0" style="stop-color:#8EAAC9"/>
	<stop  offset="1" style="stop-color:#E7EEF8"/>
</linearGradient>
<path fill="url(#SVGID_46_)" d="M262.78,308.88c-14.352,0.947-16.885-1.535-23.844-1.611c20.896-8.35,24.629-8.99,49.549-7.385
	C280.331,306.332,272.407,308.123,262.78,308.88z"/>
<linearGradient id="SVGID_47_" gradientUnits="userSpaceOnUse" x1="1611.7266" y1="1752.6147" x2="1596.9069" y2="1638.9939" gradientTransform="matrix(0.0726 0 0 0.0728 146.414 173.7913)">
	<stop  offset="0" style="stop-color:#2A383D"/>
	<stop  offset="1" style="stop-color:#8293A4"/>
</linearGradient>
<path fill="url(#SVGID_47_)" d="M238.937,307.269c17.539-5.084,33.867-1.332,49.549-7.385
	C263.565,298.279,259.833,298.919,238.937,307.269z"/>
<linearGradient id="SVGID_48_" gradientUnits="userSpaceOnUse" x1="479.1191" y1="1559.5122" x2="714.5062" y2="1598.4069" gradientTransform="matrix(0.0934 0 0 0.0934 143.6888 171.1791)">
	<stop  offset="0" style="stop-color:#8EAAC9"/>
	<stop  offset="1" style="stop-color:#E7EEF8"/>
</linearGradient>
<path fill="url(#SVGID_48_)" d="M215.095,326.599c-13.878-1.043-22.783-6.691-28.648-8.969c13.908-1.289,27.728-2.295,36.439-0.682
	c8.867,1.641,12.506,5.9,18.879,6.166C231.044,326.886,222.468,327.152,215.095,326.599z"/>
<linearGradient id="SVGID_49_" gradientUnits="userSpaceOnUse" x1="942.6406" y1="1958.812" x2="950.0316" y2="1919.3901" gradientTransform="matrix(0.0726 0 0 0.0728 146.414 173.7913)">
	<stop  offset="0" style="stop-color:#2A383D"/>
	<stop  offset="1" style="stop-color:#8293A4"/>
</linearGradient>
<path fill="url(#SVGID_49_)" d="M186.446,317.63c18.359,2.135,33.754,5.361,55.318,5.484c-6.373-0.266-10.012-4.525-18.879-6.166
	C214.174,315.335,200.354,316.341,186.446,317.63z"/>
<path fill="none" d="M345.876,200.447c-0.953-10.527-8.111-17.975-2.857-46.943"/>
<path fill="none" d="M361.671,195.916c-5.236,6.984-12.967,10.398-23.955,27.803"/>
<path fill="none" d="M354.771,165.188c3.66-7.19,10.826-14.498,9.965-30.28"/>
<linearGradient id="SVGID_50_" gradientUnits="userSpaceOnUse" x1="2434.0303" y1="1255.2749" x2="2023.5983" y2="1383.0748" gradientTransform="matrix(0.0726 -4.000000e-004 4.000000e-004 0.0728 146.3517 173.9007)">
	<stop  offset="0" style="stop-color:#2A383D"/>
	<stop  offset="1" style="stop-color:#8293A4"/>
</linearGradient>
<path fill="url(#SVGID_50_)" d="M291.001,279.355c11.135-6.145,27.502-9.893,42.461-22.873c-7.006,3.148-13.797,4.266-21.008,7.426
	C305.22,267.074,296.356,275.812,291.001,279.355z"/>
<linearGradient id="SVGID_51_" gradientUnits="userSpaceOnUse" x1="2076.7959" y1="-1229.7617" x2="2047.3038" y2="-1368.002" gradientTransform="matrix(0.0934 0 0 0.0934 143.6888 198.6952)">
	<stop  offset="0" style="stop-color:#2A383D"/>
	<stop  offset="1" style="stop-color:#8293A4"/>
</linearGradient>
<path fill="url(#SVGID_51_)" d="M327.45,52.543c1.465,13.697,7.23,27.926,16.334,41.618
	C340.108,76.897,335.302,68.471,327.45,52.543z"/>
<radialGradient id="SVGID_52_" cx="-379.9355" cy="-2123.314" r="247.8304" fx="-323.2958" fy="-1963.8822" gradientTransform="matrix(0.0934 0 0 0.0934 143.6888 198.6952)" gradientUnits="userSpaceOnUse">
	<stop  offset="0" style="stop-color:#7599BC"/>
	<stop  offset="0.1677" style="stop-color:#7EA0C0"/>
	<stop  offset="0.4532" style="stop-color:#99B2CE"/>
	<stop  offset="0.8195" style="stop-color:#C8D6E6"/>
	<stop  offset="1" style="stop-color:#E7EEF8"/>
</radialGradient>
<path fill="url(#SVGID_52_)" d="M136.406,10.912c-16.677,0.259-26.954,2.766-43.557,13.057
	C109.716,23.352,124.077,16.19,136.406,10.912z"/>
<linearGradient id="SVGID_53_" gradientUnits="userSpaceOnUse" x1="-235.9155" y1="-1980.8755" x2="-353.9114" y2="-1929.2517" gradientTransform="matrix(0.0934 0 0 0.0934 143.6888 198.6952)">
	<stop  offset="0" style="stop-color:#2A383D"/>
	<stop  offset="1" style="stop-color:#8293A4"/>
</linearGradient>
<path fill="url(#SVGID_53_)" d="M92.849,23.969c16.604-10.291,26.88-12.798,43.557-13.057
	C119.757,14.76,108.307,17.996,92.849,23.969z"/>
<linearGradient id="SVGID_54_" gradientUnits="userSpaceOnUse" x1="-561.5874" y1="-1364.6558" x2="-884.7078" y2="-1060.3436" gradientTransform="matrix(0.0934 0 0 0.0934 143.6888 142.9789)">
	<stop  offset="0" style="stop-color:#2A383D"/>
	<stop  offset="1" style="stop-color:#8293A4"/>
</linearGradient>
<path fill="url(#SVGID_54_)" d="M91.696,16.008c-5.89,10.392-16.677,20.33-29.638,29.732C67.428,32.76,69.915,27.299,91.696,16.008z
	"/>
<linearGradient id="SVGID_55_" gradientUnits="userSpaceOnUse" x1="-667.3296" y1="-1761.1084" x2="-703.5392" y2="-1788.0336" gradientTransform="matrix(0.0934 0 0 0.0934 143.6888 198.6952)">
	<stop  offset="0" style="stop-color:#55728F"/>
	<stop  offset="0.1706" style="stop-color:#778FAA"/>
	<stop  offset="0.3747" style="stop-color:#9EB1C7"/>
	<stop  offset="0.49" style="stop-color:#AEBED2"/>
	<stop  offset="1" style="stop-color:#D1E1F3"/>
</linearGradient>
<path fill="url(#SVGID_55_)" d="M62.058,45.74c10.164-11.056,14.227-17.564,29.638-29.732C85.806,26.399,75.019,36.338,62.058,45.74
	z"/>
<radialGradient id="SVGID_56_" cx="-999.3599" cy="-1655.1167" r="258.5987" gradientTransform="matrix(0.0934 0 0 0.0934 143.6888 198.6952)" gradientUnits="userSpaceOnUse">
	<stop  offset="0" style="stop-color:#7599BC"/>
	<stop  offset="0.1677" style="stop-color:#7EA0C0"/>
	<stop  offset="0.4532" style="stop-color:#99B2CE"/>
	<stop  offset="0.8195" style="stop-color:#C8D6E6"/>
	<stop  offset="1" style="stop-color:#E7EEF8"/>
</radialGradient>
<path fill="url(#SVGID_56_)" d="M74.915,46.1c-13.775,3.754-20.762,6.443-31.851,22.818C59.393,62.216,62.598,59.121,74.915,46.1z"
	/>
<linearGradient id="SVGID_57_" gradientUnits="userSpaceOnUse" x1="-897.5747" y1="-1498.6548" x2="-925.4302" y2="-1537.6522" gradientTransform="matrix(0.0934 0 0 0.0934 143.6888 198.6952)">
	<stop  offset="0" style="stop-color:#2A383D"/>
	<stop  offset="1" style="stop-color:#8293A4"/>
</linearGradient>
<path fill="url(#SVGID_57_)" d="M74.915,46.1c-9.104,4.695-20.592,13.163-31.851,22.818C54.153,52.543,61.14,49.854,74.915,46.1z"/>
<linearGradient id="SVGID_58_" gradientUnits="userSpaceOnUse" x1="-4860.3149" y1="-4258.2944" x2="-4681.6104" y2="-4191.2817" gradientTransform="matrix(0.0261 0 0 0.0261 154.5327 181.6419)">
	<stop  offset="0" style="stop-color:#8EAAC9"/>
	<stop  offset="1" style="stop-color:#E7EEF8"/>
</linearGradient>
<path fill="url(#SVGID_58_)" d="M43.451,52.543c-1.474,13.697-6.372,27.32-16.336,41.618C27.377,80.204,27.049,69.277,43.451,52.543
	z"/>
<linearGradient id="SVGID_59_" gradientUnits="userSpaceOnUse" x1="-1169.624" y1="-1345.3052" x2="-1122.2308" y2="-1327.8435" gradientTransform="matrix(0.0934 0 0 0.0934 143.6888 198.6952)">
	<stop  offset="0" style="stop-color:#2A383D"/>
	<stop  offset="1" style="stop-color:#8293A4"/>
</linearGradient>
<path fill="url(#SVGID_59_)" d="M43.451,52.543c-1.474,13.697-7.337,27.908-16.336,41.618
	C31.804,74.967,37.013,67.741,43.451,52.543z"/>
<radialGradient id="SVGID_60_" cx="-1345.7485" cy="-1180.4468" r="285.8513" fx="-1181.4991" fy="-1130.6742" gradientTransform="matrix(0.0934 0 0 0.0934 143.6888 198.6952)" gradientUnits="userSpaceOnUse">
	<stop  offset="0" style="stop-color:#7599BC"/>
	<stop  offset="0.1677" style="stop-color:#7EA0C0"/>
	<stop  offset="0.4532" style="stop-color:#99B2CE"/>
	<stop  offset="0.8195" style="stop-color:#C8D6E6"/>
	<stop  offset="1" style="stop-color:#E7EEF8"/>
</radialGradient>
<path fill="url(#SVGID_60_)" d="M44.387,84.352c-15.126,11.157-21.536,20.413-24.373,38.013
	C28.729,113.231,35.82,105.854,44.387,84.352z"/>
<linearGradient id="SVGID_61_" gradientUnits="userSpaceOnUse" x1="-1151.9404" y1="-1034.6548" x2="-1262.5604" y2="-997.782" gradientTransform="matrix(0.0934 0 0 0.0934 143.6888 198.6952)">
	<stop  offset="0" style="stop-color:#2A383D"/>
	<stop  offset="1" style="stop-color:#8293A4"/>
</linearGradient>
<path fill="url(#SVGID_61_)" d="M44.387,84.352c-8.348,8.945-22.444,31.752-24.373,38.013
	C22.851,104.765,29.261,95.509,44.387,84.352z"/>
<radialGradient id="SVGID_62_" cx="-1223.0884" cy="-638.6665" r="284.688" gradientTransform="matrix(0.0934 0 0 0.0934 143.6888 198.6952)" gradientUnits="userSpaceOnUse">
	<stop  offset="0" style="stop-color:#7599BC"/>
	<stop  offset="0.1677" style="stop-color:#7EA0C0"/>
	<stop  offset="0.4532" style="stop-color:#99B2CE"/>
	<stop  offset="0.8195" style="stop-color:#C8D6E6"/>
	<stop  offset="1" style="stop-color:#E7EEF8"/>
</radialGradient>
<path fill="url(#SVGID_62_)" d="M9.842,116.992c2.289,9.396,4.82,11.815,5.624,19.07c0.804,7.25,0.54,20.554,0.935,29.674
	C11.723,156.068,1.729,146.783,9.842,116.992z"/>
<linearGradient id="SVGID_63_" gradientUnits="userSpaceOnUse" x1="-1410.6211" y1="-612.9551" x2="-1353.5773" y2="-616.8441" gradientTransform="matrix(0.0934 0 0 0.0934 143.6888 198.6952)">
	<stop  offset="0" style="stop-color:#2A383D"/>
	<stop  offset="1" style="stop-color:#8293A4"/>
</linearGradient>
<path fill="url(#SVGID_63_)" d="M15.466,136.063c0.804,7.25,0.54,20.554,0.935,29.674c-5.123-15.315-5.708-31.256-6.559-48.744
	C12.131,126.389,14.663,128.808,15.466,136.063z"/>
<radialGradient id="SVGID_64_" cx="-1399.855" cy="-228.0674" r="255.0657" gradientTransform="matrix(0.0934 0 0 0.0934 143.6888 198.6952)" gradientUnits="userSpaceOnUse">
	<stop  offset="0" style="stop-color:#7599BC"/>
	<stop  offset="0.1677" style="stop-color:#7EA0C0"/>
	<stop  offset="0.4532" style="stop-color:#99B2CE"/>
	<stop  offset="0.8195" style="stop-color:#C8D6E6"/>
	<stop  offset="1" style="stop-color:#E7EEF8"/>
</radialGradient>
<path fill="url(#SVGID_64_)" d="M27.785,153.004c-4.008,13.01-12.858,24.819-2.806,48.451
	C25.517,190.308,33.403,183.33,27.785,153.004z"/>
<linearGradient id="SVGID_65_" gradientUnits="userSpaceOnUse" x1="-1238.8789" y1="-230.5444" x2="-1298.6416" y2="-228.0544" gradientTransform="matrix(0.0934 0 0 0.0934 143.6888 198.6952)">
	<stop  offset="0" style="stop-color:#2A383D"/>
	<stop  offset="1" style="stop-color:#8293A4"/>
</linearGradient>
<path fill="url(#SVGID_65_)" d="M24.979,201.455c-10.052-23.631-1.202-35.441,2.806-48.451
	C27.377,173.397,21.707,184.917,24.979,201.455z"/>
<linearGradient id="SVGID_66_" gradientUnits="userSpaceOnUse" x1="-1290.5796" y1="477.7144" x2="-1320.6747" y2="504.0464" gradientTransform="matrix(0.0934 0 0 0.0934 143.6888 171.1791)">
	<stop  offset="0" style="stop-color:#8EAAC9"/>
	<stop  offset="1" style="stop-color:#E7EEF8"/>
</linearGradient>
<path fill="url(#SVGID_66_)" d="M8.773,195.281c6.154,8.727,15.94,11.463,30.679,39.348
	C19.484,224.431,13.187,215.275,8.773,195.281z"/>
<linearGradient id="SVGID_67_" gradientUnits="userSpaceOnUse" x1="-1040.8652" y1="321.1108" x2="-1095.3356" y2="331.0146" gradientTransform="matrix(0.0934 0 0 0.0934 143.6888 198.6952)">
	<stop  offset="0" style="stop-color:#2A383D"/>
	<stop  offset="1" style="stop-color:#8293A4"/>
</linearGradient>
<path fill="url(#SVGID_67_)" d="M40.189,205.996c6.354,11.896,9.106,18.5,10.266,22.377c1.155,3.836,1.835,19.619,2.611,22.949
	c-8.916-10.133-11.354-17.123-12.234-21.172C39.923,226.13,39.754,214.851,40.189,205.996z"/>
<radialGradient id="SVGID_68_" cx="-1189.605" cy="371.5405" r="269.2315" fx="-1105.2125" fy="386.4329" gradientTransform="matrix(0.0934 0 0 0.0934 140.723 201.7528)" gradientUnits="userSpaceOnUse">
	<stop  offset="0" style="stop-color:#7599BC"/>
	<stop  offset="0.1677" style="stop-color:#7EA0C0"/>
	<stop  offset="0.4532" style="stop-color:#99B2CE"/>
	<stop  offset="0.8195" style="stop-color:#C8D6E6"/>
	<stop  offset="1" style="stop-color:#E7EEF8"/>
</radialGradient>
<path fill="url(#SVGID_68_)" d="M53.066,251.322c-6.657-10.016-8.803-32.734-12.877-45.326c6.354,11.896,9.106,18.5,10.266,22.377
	C51.573,232.08,52.291,247.992,53.066,251.322L53.066,251.322z"/>
<linearGradient id="SVGID_69_" gradientUnits="userSpaceOnUse" x1="-641.8105" y1="775.0181" x2="-693.8148" y2="812.1642" gradientTransform="matrix(0.0934 0 0 0.0934 143.6888 198.6952)">
	<stop  offset="0" style="stop-color:#2A383D"/>
	<stop  offset="1" style="stop-color:#8293A4"/>
</linearGradient>
<path fill="url(#SVGID_69_)" d="M71.351,251.015c8.396,7.873,13.388,12.705,17.398,18.977c4.015,6.25,5.178,13.557,9.376,19.736
	C75.625,277.207,75.179,263.001,71.351,251.015z"/>
<radialGradient id="SVGID_70_" cx="-874.6279" cy="939.0063" r="358.9322" gradientTransform="matrix(0.0934 0 0 0.0934 143.6888 198.6952)" gradientUnits="userSpaceOnUse">
	<stop  offset="0" style="stop-color:#7599BC"/>
	<stop  offset="0.1677" style="stop-color:#7EA0C0"/>
	<stop  offset="0.4532" style="stop-color:#99B2CE"/>
	<stop  offset="0.8195" style="stop-color:#C8D6E6"/>
	<stop  offset="1" style="stop-color:#E7EEF8"/>
</radialGradient>
<path fill="url(#SVGID_70_)" d="M88.749,269.992c4.015,6.25,5.178,13.557,9.376,19.736c-5.228-3.449-21.479-28.338-26.774-38.713
	C79.747,258.888,84.739,263.72,88.749,269.992z"/>
<linearGradient id="SVGID_71_" gradientUnits="userSpaceOnUse" x1="-943.2935" y1="892.8794" x2="-891.6771" y2="1110.3994" gradientTransform="matrix(0.0934 0 0 0.0934 143.6888 171.1791)">
	<stop  offset="0" style="stop-color:#8EAAC9"/>
	<stop  offset="1" style="stop-color:#E7EEF8"/>
</linearGradient>
<path fill="url(#SVGID_71_)" d="M37.43,256.482c7.052,3.125,13.84,4.184,21.064,7.338c7.223,3.125,16.138,11.805,21.526,15.305
	C60.818,277.958,46.806,271.88,37.43,256.482z"/>
<linearGradient id="SVGID_72_" gradientUnits="userSpaceOnUse" x1="-918.9795" y1="764.436" x2="-891.674" y2="692.4496" gradientTransform="matrix(0.0934 0 0 0.0934 143.6888 198.6952)">
	<stop  offset="0" style="stop-color:#2A383D"/>
	<stop  offset="1" style="stop-color:#8293A4"/>
</linearGradient>
<path fill="url(#SVGID_72_)" d="M80.02,279.125c-11.183-6.09-26.441-10.287-42.59-22.643c7.052,3.125,13.84,4.184,21.064,7.338
	C65.716,266.945,74.632,275.625,80.02,279.125z"/>
<linearGradient id="SVGID_73_" gradientUnits="userSpaceOnUse" x1="-127.6592" y1="1334.4731" x2="159.4665" y2="1505.2087" gradientTransform="matrix(0.0934 0 0 0.0934 143.6888 171.1791)">
	<stop  offset="0" style="stop-color:#2A383D"/>
	<stop  offset="1" style="stop-color:#8293A4"/>
</linearGradient>
<path fill="url(#SVGID_73_)" d="M155.587,312.511c-6.693-6.18-8.773-11.945-15.192-16.93c-6.439-4.959-17.019-10.32-23.854-12.346
	C124.467,292.775,134.428,308.357,155.587,312.511z"/>
<radialGradient id="SVGID_74_" cx="-140.9492" cy="1154.6421" r="150.0809" gradientTransform="matrix(0.0934 0 0 0.0934 143.6888 198.6952)" gradientUnits="userSpaceOnUse">
	<stop  offset="0" style="stop-color:#7599BC"/>
	<stop  offset="0.1677" style="stop-color:#7EA0C0"/>
	<stop  offset="0.4532" style="stop-color:#99B2CE"/>
	<stop  offset="0.8195" style="stop-color:#C8D6E6"/>
	<stop  offset="1" style="stop-color:#E7EEF8"/>
</radialGradient>
<path fill="url(#SVGID_74_)" d="M155.587,312.511c-14.248-7.844-22.603-18.705-39.046-29.275
	c6.835,2.025,17.415,7.387,23.854,12.346C146.814,300.566,148.894,306.332,155.587,312.511z"/>
<linearGradient id="SVGID_75_" gradientUnits="userSpaceOnUse" x1="-387.3315" y1="1059.5435" x2="-394.8752" y2="1189.6702" gradientTransform="matrix(0.0934 0 0 0.0934 143.6888 198.6952)">
	<stop  offset="0" style="stop-color:#8EAAC9"/>
	<stop  offset="1" style="stop-color:#E7EEF8"/>
</linearGradient>
<path fill="url(#SVGID_75_)" d="M108.126,308.88c14.325,0.947,16.906-1.535,23.817-1.611c-20.876-8.35-24.63-8.99-49.549-7.385
	C90.583,306.332,98.484,308.123,108.126,308.88z"/>
<linearGradient id="SVGID_76_" gradientUnits="userSpaceOnUse" x1="-393.4883" y1="1158.4946" x2="-387.79" y2="1076.8209" gradientTransform="matrix(0.0934 0 0 0.0934 143.6888 198.6952)">
	<stop  offset="0" style="stop-color:#2A383D"/>
	<stop  offset="1" style="stop-color:#8293A4"/>
</linearGradient>
<path fill="url(#SVGID_76_)" d="M131.943,307.269c-18.312-3.689-33.855-1.332-49.549-7.385
	C107.313,298.279,111.067,298.919,131.943,307.269z"/>
<linearGradient id="SVGID_77_" gradientUnits="userSpaceOnUse" x1="140.2637" y1="1302.1519" x2="145.9052" y2="1369.8464" gradientTransform="matrix(0.0934 0 0 0.0934 143.6888 198.6952)">
	<stop  offset="0" style="stop-color:#8EAAC9"/>
	<stop  offset="1" style="stop-color:#E7EEF8"/>
</linearGradient>
<path fill="url(#SVGID_77_)" d="M155.778,326.599c13.909-1.043,22.805-6.691,28.665-8.969c-13.909-1.289-27.722-2.295-36.417-0.682
	c-8.879,1.641-12.518,5.9-18.881,6.166C139.857,326.886,148.442,327.152,155.778,326.599z"/>
<linearGradient id="SVGID_78_" gradientUnits="userSpaceOnUse" x1="143.6245" y1="1335.854" x2="133.9923" y2="1239.5341" gradientTransform="matrix(0.0934 0 0 0.0934 143.6888 198.6952)">
	<stop  offset="0" style="stop-color:#2A383D"/>
	<stop  offset="1" style="stop-color:#8293A4"/>
</linearGradient>
<path fill="url(#SVGID_78_)" d="M184.443,317.63c-18.341,2.135-33.752,5.361-55.299,5.484c6.363-0.266,10.002-4.525,18.881-6.166
	C156.721,315.335,170.535,316.341,184.443,317.63z"/>
<linearGradient id="SVGID_79_" gradientUnits="userSpaceOnUse" x1="-1301.8281" y1="190.5718" x2="-1257.7555" y2="156.8692" gradientTransform="matrix(0.0934 0 0 0.0934 143.6888 198.6952)">
	<stop  offset="0" style="stop-color:#2A383D"/>
	<stop  offset="1" style="stop-color:#8293A4"/>
</linearGradient>
<path fill="url(#SVGID_79_)" d="M39.452,234.628c-9.568-9.586-24.647-23.102-30.679-39.348
	C14.927,204.007,24.713,206.744,39.452,234.628z"/>
<path fill="#86888B" d="M288.493,299.773c-24.711-1.602-28.443-1.061-49.615,7.371l0,0c-0.061,0.049-0.137,0.154-0.102,0.236
	c0.041,0.1,0.141,0.129,0.225,0.105l0,0c21.125-8.414,24.83-8.973,49.484-7.373l0,0c0.086,0.006,0.162-0.07,0.174-0.17
	C288.659,299.855,288.583,299.773,288.493,299.773L288.493,299.773z"/>
<g>
	<defs>
		<path id="SVGID_2_" d="M291.001,279.355c11.82-5.686,23.875-6.975,42.461-22.873c-7.006,3.148-13.797,4.266-21.008,7.426
			C305.22,267.074,296.356,275.812,291.001,279.355z"/>
	</defs>
	<clipPath id="SVGID_80_">
		<use xlink:href="#SVGID_2_"  overflow="visible"/>
	</clipPath>
	<path clip-path="url(#SVGID_80_)" fill="#8B8D90" d="M333.339,256.207c-3.535,1.594-7.092,2.699-10.523,3.758
		c-3.41,1.037-6.91,2.125-10.48,3.701c-4.703,2.055-10.008,6.379-14.686,10.197c-2.527,2.055-4.898,4.014-6.799,5.25l-0.227,0.158
		l0.313,0.479l0.236-0.166c1.92-1.26,4.303-3.213,6.854-5.262c4.646-3.793,9.918-8.096,14.543-10.145
		c3.523-1.535,7.031-2.611,10.408-3.658c3.451-1.078,7.012-2.178,10.625-3.783l0.268-0.123l-0.26-0.52L333.339,256.207z"/>
</g>
<path fill="#CDCFD0" d="M350.808,122.388l-0.119-0.141c-8.707-9.25-15.57-16.576-23.93-37.983l0,0
	c-0.029-0.1-0.145-0.146-0.227-0.105c-0.115,0.035-0.162,0.152-0.145,0.246l0,0c8.396,21.496,15.291,28.827,24.006,38.118
	l0.143,0.137l0,0c0.057,0.059,0.186,0.059,0.271,0C350.849,122.601,350.849,122.481,350.808,122.388L350.808,122.388z"/>
<g>
	<defs>
		<path id="SVGID_1_" d="M327.45,52.543c1.465,13.697,7.23,27.926,16.334,41.618C343.54,80.204,344.847,68.918,327.45,52.543z"/>
	</defs>
	<clipPath id="SVGID_81_">
		<use xlink:href="#SVGID_1_"  overflow="visible"/>
	</clipPath>
	<path clip-path="url(#SVGID_81_)" fill="#DEE8F6" d="M344.284,94.161l-0.072-3.213c-0.086-12.615-0.229-23.52-16.424-38.759
		l-0.672,0.688c15.902,14.98,16.018,25.685,16.148,38.076l0.049,3.219L344.284,94.161z"/>
</g>
<path fill="#C1C2C4" d="M327.921,68.736c-16.205-6.655-19.4-9.681-31.813-22.783l0,0c-0.074-0.071-0.182-0.071-0.256,0
	c-0.076,0.076-0.086,0.188,0,0.27l0,0c12.441,13.169,15.645,16.194,31.936,22.867l0,0c0.074,0.053,0.189,0,0.227-0.089
	C328.056,68.9,328.015,68.783,327.921,68.736L327.921,68.736z"/>
<path fill="#95979A" d="M82.43,300.072c24.647-1.611,28.344-1.059,49.477,7.355l0,0c0.075,0.053,0.17,0,0.207-0.082
	c0.029-0.094,0-0.201-0.094-0.236l0,0c-21.178-8.449-24.903-8.99-49.625-7.402l0,0c-0.086,0.018-0.17,0.096-0.142,0.189
	C82.252,300.001,82.337,300.072,82.43,300.072L82.43,300.072z"/>
<path fill="#888A8C" d="M129.155,323.291c3.28-0.141,5.805-1.299,8.725-2.66c2.75-1.295,5.842-2.705,10.184-3.5
	c8.792-1.648,22.785-0.57,36.368,0.658l0,0c0.104,0,0.183-0.07,0.183-0.152c0-0.1-0.055-0.188-0.154-0.193l0,0
	c-13.611-1.219-27.624-2.291-36.471-0.678c-4.37,0.807-7.509,2.271-10.249,3.547c-2.887,1.338-5.392,2.49-8.604,2.648l0,0
	c-0.094,0-0.17,0.072-0.17,0.154C128.975,323.226,129.06,323.291,129.155,323.291L129.155,323.291z"/>
<path fill="#888A8C" d="M242.028,323.291c-3.27-0.141-5.803-1.299-8.734-2.66c-2.725-1.295-5.834-2.705-10.166-3.5
	c-8.811-1.648-22.814-0.57-36.379,0.658l0,0c-0.076,0-0.168-0.07-0.168-0.152c-0.021-0.1,0.055-0.188,0.141-0.193l0,0
	c13.592-1.219,27.616-2.291,36.484-0.678c4.365,0.807,7.479,2.271,10.25,3.547c2.889,1.338,5.387,2.49,8.594,2.648l0,0
	c0.094,0,0.18,0.072,0.18,0.154C242.21,323.226,242.132,323.291,242.028,323.291L242.028,323.291z"/>
<path fill="#8FA1B1" d="M9.672,117.021c1.039,4.254,2.115,7.066,3.063,9.556c1.143,2.966,2.115,5.537,2.551,9.503
	c0.493,4.431,0.597,11.251,0.67,17.781c0.057,4.125,0.126,8.361,0.277,11.875l0,0c0,0.106,0.074,0.188,0.167,0.183
	c0.095,0,0.192-0.089,0.192-0.183l0,0c-0.171-3.537-0.227-7.762-0.286-11.875c-0.074-6.56-0.169-13.351-0.68-17.822
	c-0.427-4.007-1.436-6.584-2.563-9.58c-0.955-2.459-2.033-5.289-3.042-9.496l0,0c-0.041-0.113-0.125-0.154-0.222-0.143
	C9.7,116.85,9.652,116.933,9.672,117.021L9.672,117.021z"/>
<path fill="#86888B" d="M37.353,256.613c3.584,1.617,7.178,2.693,10.627,3.734c3.386,1.02,6.884,2.078,10.438,3.631
	c4.631,2.008,9.954,6.279,14.635,10.051c2.542,2.049,4.943,3.988,6.853,5.242l0,0c0.066,0.041,0.198,0.012,0.238-0.064
	c0.057-0.082,0.038-0.182-0.04-0.236l0,0c-1.9-1.229-4.292-3.164-6.845-5.207c-4.688-3.795-10.021-8.084-14.702-10.109
	c-3.573-1.547-7.072-2.6-10.482-3.643c-3.443-1.035-7.018-2.111-10.591-3.699l0,0c-0.076-0.035-0.169,0-0.226,0.094
	C37.24,256.494,37.259,256.595,37.353,256.613L37.353,256.613z"/>
<path fill="#888A8C" d="M8.64,195.386c1.93,2.73,4.254,4.926,6.932,7.432c5.747,5.379,13.633,12.77,23.71,31.887l0,0
	c0.037,0.088,0.149,0.105,0.226,0.076c0.095-0.047,0.113-0.152,0.076-0.234l0,0c-10.116-19.158-18.01-26.568-23.787-31.963
	c-2.667-2.531-4.955-4.678-6.893-7.404l0,0c-0.045-0.088-0.16-0.088-0.236-0.047C8.594,195.208,8.574,195.322,8.64,195.386
	L8.64,195.386z"/>
<path fill="#B7B9BC" d="M43.291,52.52C41.72,66.947,36.39,80.563,26.972,94.056l0,0c-0.047,0.088-0.037,0.199,0.058,0.247
	c0.076,0.059,0.17,0.047,0.226-0.042l0,0c9.454-13.563,14.807-27.195,16.375-41.706l0,0c0-0.077-0.066-0.171-0.158-0.201
	C43.375,52.354,43.291,52.425,43.291,52.52L43.291,52.52z"/>
<path fill="#FFFFFF" d="M231.46,3.945c35.104,10.227,64.809,28.062,85.93,51.592c11.611,12.916,20.611,27.545,26.736,43.473
	c6.563,17.094,9.891,35.846,9.891,55.759c0,20.847-4.334,41.213-12.896,60.532c-8.322,18.805-20.271,35.826-35.549,50.686
	c-31.492,30.613-74.141,48.779-120.107,51.15l0,0c-0.094,0-0.17,0.076-0.148,0.184c0,0.088,0.072,0.17,0.168,0.152l0,0
	c46.035-2.379,88.773-20.584,120.324-51.246c15.309-14.881,27.295-31.945,35.619-50.785c8.58-19.383,12.932-39.777,12.932-60.672
	c0-19.96-3.322-38.771-9.92-55.9c-6.164-15.958-15.154-30.615-26.785-43.565c-21.156-23.561-50.949-41.432-86.109-51.675l0,0
	c-0.084-0.042-0.219,0.111-0.244,0.205C231.261,3.916,231.364,3.916,231.46,3.945L231.46,3.945z"/>
<path fill="#FFFFFF" d="M185.407,317.136c-45.957-2.371-88.597-20.537-120.097-51.15c-15.241-14.859-27.22-31.881-35.539-50.686
	c-8.555-19.318-12.877-39.685-12.877-60.532c0-19.89,3.329-38.624,9.89-55.723C32.9,83.123,41.892,68.519,53.481,55.602
	c21.093-23.5,50.79-41.348,85.827-51.586l0,0c0.094-0.041,0.264,0,0.227-0.1c-0.019-0.083-0.418-0.194-0.493-0.194
	C104.015,13.99,74.33,31.848,53.226,55.367c-11.619,12.95-20.627,27.621-26.764,43.566c-6.579,17.105-9.928,35.893-9.928,55.835
	c0,20.896,4.37,41.29,12.935,60.672c8.329,18.84,20.307,35.904,35.586,50.785c31.577,30.68,74.299,48.867,120.333,51.264l0,0
	c0.096,0,0.191-0.076,0.191-0.17C185.579,317.224,185.501,317.148,185.407,317.136L185.407,317.136z"/>
<linearGradient id="SVGID_82_" gradientUnits="userSpaceOnUse" x1="1318.9971" y1="932.6304" x2="388.3086" y2="708.1195" gradientTransform="matrix(0.0934 0 0 0.0934 143.6888 142.9721)">
	<stop  offset="0" style="stop-color:#C2D5EE"/>
	<stop  offset="0.48" style="stop-color:#B9CCE4"/>
	<stop  offset="0.83" style="stop-color:#788EA3"/>
</linearGradient>
<path fill="url(#SVGID_82_)" d="M185.464,246.449c24.638-5.348,55.498-15.115,80.477-25.848c3.09-1.324,5.389-3.361,7.25-5.973
	v-19.037l-87.727-20.893V246.449z"/>
<linearGradient id="SVGID_83_" gradientUnits="userSpaceOnUse" x1="1883.0127" y1="-800.5933" x2="-439.9901" y2="312.9771" gradientTransform="matrix(0.0726 0 0 0.0728 146.414 173.7859)">
	<stop  offset="0" style="stop-color:#A8C2E5"/>
	<stop  offset="0.44" style="stop-color:#95B7E1"/>
	<stop  offset="0.66" style="stop-color:#D1E1F3"/>
	<stop  offset="1" style="stop-color:#B6CBE7"/>
</linearGradient>
<path fill="url(#SVGID_83_)" d="M231.364,112.778h50.418l6.525-10.696h-58.75v29.839h-43.131v-29.839h-1.301h-0.552v21.44H96.451
	l0.644,1.119c0,0,0.019,0.153,0.019,0.429h87.46v15.152h-87.3c0,0.512,0,1.095,0,1.595h87.3v20.112H97.501
	c0.037,0.5,0.037,1.047,0.037,1.564h42.64v28.763H97.995c0,0.012,0,0.041,0,0.047c0.13,4.178,0.547,7.836,1.417,10.984h40.822v9.797
	h-34.536c1.615,1.189,3.563,2.154,5.853,2.855c9.266,2.834,20.005,5.766,30.214,8.379v-30.51l42.809-0.059v39.859
	c0.188,0,0.378,0.035,0.552,0.076c0.302-0.047,1.002-0.105,1.301-0.152V202.3h86.111c0.115-0.482,0.229-1.082,0.305-1.582h-86.416
	v-15.023h87.387c0-0.5,0.031-1.281,0.037-1.807h-87.424v-20.394h87.699c0.02-0.518,0.037-1.17,0.037-1.67h-42.799v-28.397h43.102
	c0.051-5.355,0.086-8.785,0.086-8.785l1.512-2.478h-44.699V112.778z"/>
<polygon fill="#6C7479" points="268.585,205.531 188.413,231.115 185.974,234.105 185.974,233.535 185.974,202.3 185.974,201.818 
	186.427,201.818 272.538,201.818 273.151,201.818 "/>
<path fill="#D6E1F0" d="M188.413,231.115l80.172-25.584l4.566-3.713l-0.15,0.623c-1.777,7.486-5.834,11.852-12.756,13.965
	c-23.037,7.043-55.918,14.928-73.723,17.6l-0.549,0.1L188.413,231.115z"/>
<polygon fill="#D6E1F0" points="103.344,186.966 140.668,163.006 140.668,163.494 140.668,192.257 140.668,192.722 140.178,192.722 
	97.995,192.722 97.538,192.722 "/>
<path fill="#6C7479" d="M103.344,186.966l-5.806,5.756l-0.037-0.453c-0.114-4.332-0.272-14.01-0.455-28.775v-0.488h0.491h42.64h0.49
	L103.344,186.966z"/>
<path fill="#D6E1F0" d="M182.211,196.664l2.866-3.377v0.465v39.859v0.541l-0.541-0.076c-9.843-1.443-25.358-4.842-42.59-9.238
	l-0.351-0.123L182.211,196.664z"/>
<polygon fill="#6C7479" points="182.211,196.664 141.595,224.714 141.595,224.367 141.595,193.751 141.595,193.287 142.067,193.287 
	184.574,193.287 185.077,193.287 "/>
<polygon fill="#D6E1F0" points="106.513,210.816 137.796,205.408 140.715,202.794 140.715,203.289 140.715,213.085 140.715,213.574 
	140.234,213.574 105.698,213.574 "/>
<path fill="#6C7479" d="M137.796,205.408l-31.283,5.408l-0.814,2.758h-0.179l-0.113-0.094c-3.122-2.318-5.221-5.596-6.469-10.057
	l-0.151-0.629h0.625h40.822h0.481L137.796,205.408z"/>
<polygon fill="#6C7479" points="183.479,143.152 101.736,158.599 97.047,162.424 97.047,161.93 96.8,141.817 96.8,141.347 
	97.274,141.347 184.574,141.347 185.077,141.347 "/>
<polygon fill="#D6E1F0" points="101.736,158.599 183.479,143.152 185.077,141.347 185.077,141.817 185.077,161.93 185.077,162.424 
	184.574,162.424 97.501,162.424 97.047,162.424 "/>
<polygon fill="#D6E1F0" points="189.569,129.002 226.401,105.724 230.044,101.588 230.044,102.082 230.044,131.921 230.044,132.421 
	229.558,132.421 186.427,132.421 185.974,132.421 "/>
<polygon fill="#6C7479" points="226.401,105.724 189.569,129.002 185.974,132.421 185.974,131.921 185.974,102.082 185.974,101.588 
	186.427,101.588 229.558,101.588 230.044,101.588 "/>
<polygon fill="#D6E1F0" points="182.79,126.742 185.077,124.594 185.077,125.07 185.077,140.223 185.077,140.711 184.574,140.711 
	97.274,140.711 96.8,140.711 "/>
<polygon fill="#6C7479" points="182.79,126.742 96.8,140.711 96.783,140.223 96.632,125.07 96.632,124.594 97.114,124.594 
	184.574,124.594 185.077,124.594 "/>
<polygon fill="#D6E1F0" points="97.578,121.682 183.032,103.853 185.077,101.588 185.077,102.082 185.077,123.522 185.077,124.006 
	184.574,124.006 96.451,124.006 96.196,124.006 "/>
<polygon fill="#6C7479" points="183.032,103.853 97.578,121.682 96.196,124.006 96.046,123.771 82.942,102.328 82.507,101.588 
	83.358,101.588 184.574,101.588 185.077,101.588 "/>
<polygon fill="#6C7479" points="269.493,138.682 235.157,158.752 230.874,162.313 230.874,161.824 230.874,133.427 230.874,132.95 
	231.364,132.95 274.466,132.95 274.958,132.95 "/>
<polygon fill="#D6E1F0" points="235.157,158.752 269.493,138.682 274.958,132.95 274.958,133.427 274.628,161.836 274.628,162.313 
	274.163,162.313 231.364,162.313 230.874,162.313 "/>
<polygon fill="#6C7479" points="277.255,114.974 233.53,120.676 230.874,122.659 230.874,122.164 230.874,112.778 230.874,112.285 
	231.364,112.285 281.179,112.285 282.04,112.285 "/>
<polygon fill="#D6E1F0" points="233.53,120.676 277.255,114.974 282.04,112.285 281.597,113.032 275.884,122.429 275.735,122.659 
	275.47,122.659 231.364,122.659 230.874,122.659 "/>
<polygon fill="#6C7479" points="269.737,188.496 188.472,198.894 185.974,201.183 185.974,200.718 185.974,185.695 185.974,185.224 
	186.427,185.224 273.813,185.224 274.298,185.224 "/>
<path fill="#D6E1F0" d="M188.472,198.894l81.266-10.398l4.561-3.271v0.471l-0.135,6.627c-0.092,3.27-0.359,6.031-0.838,8.479
	l-0.068,0.383h-0.414h-86.416h-0.453L188.472,198.894z"/>
<polygon fill="#6C7479" points="271.876,165.624 188.925,181.628 185.974,184.371 185.974,183.888 185.974,163.494 185.974,163.006 
	186.427,163.006 274.126,163.006 274.628,163.006 "/>
<path fill="#D6E1F0" d="M188.925,181.628l82.951-16.004l2.752-2.618l-0.021,0.488c-0.09,8.455-0.215,15.329-0.281,20.408
	l-0.01,0.469h-0.465h-87.424h-0.453L188.925,181.628z"/>
<polygon fill="#6C7479" points="227.716,144.623 189.057,150.837 185.974,153.563 185.974,153.074 185.974,143.129 185.974,142.641 
	186.427,142.641 229.558,142.641 230.044,142.641 "/>
<polygon fill="#D6E1F0" points="189.057,150.837 227.716,144.623 230.044,142.641 230.044,143.129 230.044,153.074 230.044,153.563 
	229.558,153.563 186.427,153.563 185.974,153.563 "/>
<polygon fill="#D6E1F0" points="143.355,181.687 183.108,174.874 185.077,172.592 185.077,173.086 185.077,183.019 185.077,183.484 
	184.574,183.484 142.031,183.484 141.559,183.484 "/>
<polygon fill="#6C7479" points="183.108,174.874 143.355,181.687 141.559,183.484 141.559,183.019 141.559,173.086 141.559,172.592 
	142.031,172.592 184.574,172.592 185.077,172.592 "/>
<linearGradient id="SVGID_84_" gradientUnits="userSpaceOnUse" x1="1167.084" y1="606.2065" x2="2509.519" y2="606.2065" gradientTransform="matrix(0.0726 0 0 0.0728 146.414 173.7859)">
	<stop  offset="0" style="stop-color:#D4B170"/>
	<stop  offset="1" style="stop-color:#E6CB90"/>
</linearGradient>
<path fill="url(#SVGID_84_)" d="M186.427,233.535c16.604-2.484,49.516-10.211,73.678-17.594c7.156-2.174,10.789-6.686,12.434-13.641
	h-86.111V233.535z"/>
<linearGradient id="SVGID_85_" gradientUnits="userSpaceOnUse" x1="-688.9048" y1="56.1821" x2="503.3743" y2="56.1821" gradientTransform="matrix(0.0726 0 0 0.0728 146.414 173.7859)">
	<stop  offset="0" style="stop-color:#ED1C2E"/>
	<stop  offset="1" style="stop-color:#DD7C6D"/>
</linearGradient>
<path fill="url(#SVGID_85_)" d="M140.178,163.494h-42.64c0.151,12.17,0.305,23.761,0.457,28.763h42.184V163.494z"/>
<linearGradient id="SVGID_86_" gradientUnits="userSpaceOnUse" x1="-0.6089" y1="757.0562" x2="439.7971" y2="757.0562" gradientTransform="matrix(0.0934 0 0 0.0934 143.6888 142.9721)">
	<stop  offset="0" style="stop-color:#ED1C2E"/>
	<stop  offset="1" style="stop-color:#DD7C6D"/>
</linearGradient>
<path fill="url(#SVGID_86_)" d="M142.067,193.751v30.615c16.716,4.271,32.354,7.73,42.507,9.244v-39.859H142.067z"/>
<linearGradient id="SVGID_87_" gradientUnits="userSpaceOnUse" x1="-695.0991" y1="472.5454" x2="496.3383" y2="472.5454" gradientTransform="matrix(0.0726 0 0 0.0728 146.414 173.7859)">
	<stop  offset="0" style="stop-color:#003876"/>
	<stop  offset="1" style="stop-color:#4E80C1"/>
</linearGradient>
<path fill="url(#SVGID_87_)" d="M140.234,203.289H99.412c1.153,4.189,3.138,7.451,6.287,9.797h34.536V203.289z"/>
<linearGradient id="SVGID_88_" gradientUnits="userSpaceOnUse" x1="-698.7402" y1="-300.9907" x2="503.7368" y2="-300.9907" gradientTransform="matrix(0.0726 0 0 0.0728 146.414 173.7859)">
	<stop  offset="0" style="stop-color:#D4B170"/>
	<stop  offset="1" style="stop-color:#E6CB90"/>
</linearGradient>
<path fill="url(#SVGID_88_)" d="M184.574,141.817h-87.3c0.075,6.138,0.16,13.098,0.227,20.112h87.073V141.817z"/>
<linearGradient id="SVGID_89_" gradientUnits="userSpaceOnUse" x1="908.958" y1="-780.0034" x2="3372.7039" y2="-780.0034" gradientTransform="matrix(0.0726 0 0 0.0728 146.414 173.7859)">
	<stop  offset="0" style="stop-color:#ED1C2E"/>
	<stop  offset="1" style="stop-color:#DD7C6D"/>
</linearGradient>
<rect x="186.427" y="102.082" fill="url(#SVGID_89_)" width="43.131" height="29.839"/>
<linearGradient id="SVGID_90_" gradientUnits="userSpaceOnUse" x1="-890.4238" y1="-837.6846" x2="503.7339" y2="-837.6846" gradientTransform="matrix(0.0726 0 0 0.0728 146.414 173.7859)">
	<stop  offset="0" style="stop-color:#D4B170"/>
	<stop  offset="1" style="stop-color:#E6CB90"/>
</linearGradient>
<polygon fill="url(#SVGID_90_)" points="184.574,102.082 83.358,102.082 96.451,123.522 184.574,123.522 "/>
<linearGradient id="SVGID_91_" gradientUnits="userSpaceOnUse" x1="909.1875" y1="-359.3433" x2="3371.4983" y2="-359.3433" gradientTransform="matrix(0.0726 0 0 0.0728 146.414 173.7859)">
	<stop  offset="0" style="stop-color:#ED1C2E"/>
	<stop  offset="1" style="stop-color:#DD7C6D"/>
</linearGradient>
<path fill="url(#SVGID_91_)" d="M231.364,161.824h42.799c0.123-10.499,0.229-21.143,0.303-28.397h-43.102V161.824z"/>
<linearGradient id="SVGID_92_" gradientUnits="userSpaceOnUse" x1="990.2725" y1="-773.5508" x2="2774.5352" y2="-773.5508" gradientTransform="matrix(0.0726 0 0 0.0728 146.414 173.7859)">
	<stop  offset="0" style="stop-color:#003876"/>
	<stop  offset="1" style="stop-color:#4E80C1"/>
</linearGradient>
<polygon fill="url(#SVGID_92_)" points="231.364,112.778 231.364,122.164 275.47,122.164 281.179,112.778 "/>
<path d="M186.427,200.718h86.416c0.482-2.525,0.734-5.326,0.842-8.414c0.025-1.637,0.084-3.725,0.129-6.609h-87.387V200.718z"/>
<linearGradient id="SVGID_93_" gradientUnits="userSpaceOnUse" x1="1166.9658" y1="-1.2983" x2="2509.2715" y2="-1.2983" gradientTransform="matrix(0.0726 0 0 0.0728 146.414 173.7859)">
	<stop  offset="0" style="stop-color:#D4B170"/>
	<stop  offset="1" style="stop-color:#E6CB90"/>
</linearGradient>
<path fill="url(#SVGID_93_)" d="M186.427,183.888h87.424c0.076-5.653,0.18-12.896,0.275-20.394h-87.699V183.888z"/>
<linearGradient id="SVGID_94_" gradientUnits="userSpaceOnUse" x1="-695.0713" y1="58.6099" x2="495.9121" y2="58.6099" gradientTransform="matrix(0.0726 0 0 0.0728 146.414 173.7859)">
	<stop  offset="0" style="stop-color:#003876"/>
	<stop  offset="1" style="stop-color:#4E80C1"/>
</linearGradient>
<rect x="142.031" y="173.086" fill="url(#SVGID_94_)" width="42.543" height="9.933"/>
<linearGradient id="SVGID_95_" gradientUnits="userSpaceOnUse" x1="990.1113" y1="-352.8037" x2="2775.2295" y2="-352.8037" gradientTransform="matrix(0.0726 0 0 0.0728 146.414 173.7859)">
	<stop  offset="0" style="stop-color:#003876"/>
	<stop  offset="1" style="stop-color:#4E80C1"/>
</linearGradient>
<rect x="186.427" y="143.129" fill="url(#SVGID_95_)" width="43.131" height="9.945"/>
<path d="M184.574,125.07h-87.46c0.009,1.589,0.075,7.468,0.16,15.152h87.3V125.07z"/>
<linearGradient id="SVGID_96_" gradientUnits="userSpaceOnUse" x1="1167.042" y1="605.7905" x2="2509.3252" y2="605.7905" gradientTransform="matrix(0.0726 0 0 0.0728 146.414 173.7859)">
	<stop  offset="0" style="stop-color:#D4B170"/>
	<stop  offset="1" style="stop-color:#E6CB90"/>
</linearGradient>
<path fill="url(#SVGID_96_)" d="M271.911,202.789c-1.775,6.867-5.48,10.727-11.955,12.711
	c-22.748,6.941-55.108,14.721-73.035,17.486v-30.197H271.911z"/>
<polygon fill="#354961" points="281.179,112.778 231.364,112.778 231.364,122.164 232.036,122.164 232.036,113.456 281.179,113.456 
	"/>
<polygon fill="#354961" points="229.558,143.129 186.427,143.129 186.427,153.074 187.14,153.074 187.14,143.795 229.558,143.795 
	"/>
<polygon fill="#A1524D" points="229.558,102.082 186.427,102.082 186.427,131.921 187.14,131.921 187.14,102.77 229.558,102.77 "/>
<polygon fill="#7E7459" points="184.574,102.082 83.358,102.082 96.451,123.522 97.229,123.522 84.643,102.77 184.574,102.77 "/>
<polygon fill="#7E7459" points="184.574,141.817 97.229,141.817 97.463,161.93 98.22,161.93 97.974,142.529 184.574,142.529 "/>
<polygon fill="#A05752" points="140.178,163.494 97.493,163.494 97.936,192.257 98.731,192.257 98.275,164.171 140.178,164.171 "/>
<polygon fill="#A1524D" points="274.466,133.427 231.364,133.427 231.364,161.824 232.036,161.824 232.036,134.115 274.466,134.115 
	"/>
<polygon fill="#355578" points="184.574,173.086 142.031,173.086 142.031,183.019 142.722,183.019 142.722,173.763 184.574,173.763 
	"/>
<polygon fill="#A05752" points="184.614,193.751 142.067,193.751 142.067,224.367 142.75,224.554 142.75,194.439 184.614,194.439 
	"/>
<polygon fill="#7E7459" points="272.462,202.3 186.427,202.3 186.427,233.611 187.14,233.611 187.14,203.013 272.462,203.013 "/>
<polygon fill="#7E7459" points="274.126,163.494 186.427,163.494 186.427,183.888 187.14,183.888 187.14,164.171 274.126,164.171 
	"/>
<path fill="#355578" d="M99.412,203.289c0.037,0.152,0.097,0.336,0.152,0.5l0.073,0.195c1.061,3.529,3.518,6.873,6.223,9.102h1.115
	c-2.704-1.988-5.445-5.383-6.617-9.102h39.876v-0.695H99.412z"/>
<path fill="#D6E1F0" d="M288.894,101.487c-2.748,5.331-7.496,13.416-13.406,22.748c-0.188,20.417-0.689,54.981-0.953,67.963
	c-0.277,13.934-4.375,21.445-13.229,24.289c-8.611,2.801-58.883,16.281-75.767,17.793l0.407-0.559
	c18.557-2.102,66.578-15.1,75.145-17.875c8.523-2.773,12.469-10.068,12.76-23.648c0.266-13.017,0.777-47.669,0.947-68.07v-0.07
	l0.068-0.1l13.176-21.631L288.894,101.487"/>
<path fill="#697786" d="M288.894,101.487h-0.623H82.865h-0.604l0.312,0.524l13.898,22.564c0.17,20,0.773,54.122,1.066,67.962
	c0.285,13.611,4.236,20.646,13.218,23.561c9.476,3.084,56.735,16.139,74.783,18.182h0.04h0.037
	c18.57-2.102,66.701-15.139,75.301-17.939c8.842-2.861,12.934-10.346,13.246-24.291c0.268-12.993,0.779-47.556,0.938-67.968
	l13.471-22.088L288.894,101.487z M274.431,123.905V124c-0.174,20.377-0.703,55.028-0.965,68.05
	c-0.293,13.576-4.219,20.865-12.766,23.643c-8.572,2.777-56.59,15.781-75.121,17.889c-18.041-2.043-65.123-15.059-74.604-18.141
	c-8.773-2.85-12.461-9.492-12.754-22.908c-0.284-13.875-0.908-48.074-1.068-68.05V124.4l-0.057-0.088l-13.606-22.131h204.167
	l-13.189,21.624L274.431,123.905z"/>
<path fill="none" d="M86.093,185.566l0.237,2.771c1.325,15.836,2.474,29.518,16.657,35.609
	c24.125,10.371,56.103,20.541,82.318,26.26v-0.014c0.024,0.004,0.045,0.008,0.068,0.014c26.219-5.719,58.193-15.889,82.318-26.26
	c14.184-6.092,15.332-19.773,16.66-35.609l0.234-2.771c1.301-14.964,3.26-51.723,3.594-58.222l16.979-29.726l3.186-5.679
	l-6.455-0.719L185.374,78.224L68.861,91.221l-6.458,0.719l3.191,5.679l16.97,29.715l-0.07,0.011
	C82.841,133.843,84.792,170.602,86.093,185.566z"/>
<path fill="none" d="M290.774,21.252c-14.764-8.789-30.922-15.734-47.762-21.163c-0.844-0.175-1.924-0.057-2.697,0.055
	c-1.262,0.177-2.938,0.587-4.875,1.162c-1.234,0.438-2.672,1.061-3.613,1.521c-0.047-0.014-0.098-0.027-0.146-0.044
	c-0.088-0.026-0.227,0.118-0.25,0.206c-0.006,0.021,0.01,0.021,0.01,0.034c-2.951,1.423-5.303,3.426-6.596,4.858
	c-0.027,0.034-0.072,0.071-0.1,0.103c-0.029,0.034-0.051,0.074-0.078,0.108c-0.033,0.047-0.07,0.088-0.098,0.136l-0.297,0.722
	c53.791,16.819,114.156,63.927,114.156,138.367c0,64.672-44.996,139.483-153.014,148.75C77.46,286.8,32.369,210.869,32.369,147.375
	c0-74.443,60.366-121.548,114.155-138.368l-0.295-0.721c-0.017-0.031-0.037-0.052-0.054-0.075c0.01-0.003,0.019-0.006,0.027-0.011
	l-0.19-0.327c-0.032,0.009-0.062,0.02-0.095,0.029c-1.413-1.649-4.176-3.673-6.463-4.771c0.024-0.014,0.056-0.02,0.045-0.051
	c-0.02-0.092-0.423-0.206-0.481-0.192c-0.01,0.006-0.022,0.006-0.032,0.013c-3.021-1.531-5.899-2.157-8.696-2.718
	c-0.772-0.151-1.664-0.217-2.5-0.04C72.235,18.048,24.133,52.5,9.043,115.166c-0.493,2.043-0.955,4.116-1.377,6.221
	c-0.414,2.07-0.805,4.161-1.148,6.292c-0.342,2.121-0.665,4.263-0.936,6.448c-0.266,2.146-0.476,4.334-0.669,6.535
	c-0.256,2.881-0.458,5.802-0.588,8.783c-0.133,3.035-0.215,6.112-0.215,9.25c0,9.353,0.835,18.379,2.289,27.126
	c0.31,1.932,0.647,3.859,1.023,5.781c0.121,0.596,0.239,1.189,0.364,1.781c0.346,1.621,0.694,3.24,1.086,4.838
	c3.138,12.781,7.761,24.816,13.585,36.059c3.798,7.332,8.093,14.326,12.848,20.953c6.889,9.594,14.702,18.416,23.23,26.416
	c0.598,0.563,1.204,1.111,1.809,1.66c1.33,1.217,2.662,2.426,4.022,3.598c0.456,0.395,0.925,0.773,1.384,1.16
	c10.051,8.512,20.906,15.965,32.293,22.219c6.938,3.811,14.072,7.158,21.316,10.072c7.278,2.926,14.668,5.383,22.108,7.365
	c11.412,3.041,22.924,4.967,34.292,5.658c3.218,0.197,6.424,0.328,9.613,0.328v-0.002c0.01,0,0.023,0.002,0.033,0.002
	c84.25,0,181.375-69.182,181.375-175.015C366.782,90.462,335.038,47.576,290.774,21.252z"/>
</svg>
