<?xml version="1.0" encoding="UTF-8" standalone="no"?>
<!-- Generator: Adobe Illustrator 15.0.0, SVG Export Plug-In . SVG Version: 6.00 Build 0)  -->

<svg
   xmlns:dc="http://purl.org/dc/elements/1.1/"
   xmlns:cc="http://creativecommons.org/ns#"
   xmlns:rdf="http://www.w3.org/1999/02/22-rdf-syntax-ns#"
   xmlns:svg="http://www.w3.org/2000/svg"
   xmlns="http://www.w3.org/2000/svg"
   xmlns:sodipodi="http://sodipodi.sourceforge.net/DTD/sodipodi-0.dtd"
   xmlns:inkscape="http://www.inkscape.org/namespaces/inkscape"
   version="1.1"
   id="Ebene_1"
   x="0px"
   y="0px"
   width="192.756"
   height="192.756"
   viewBox="0 0 192.756 192.756"
   enable-background="new 0 0 612 792"
   xml:space="preserve"
   inkscape:version="0.47 r22583"
   sodipodi:docname="Chrysler.svg"><metadata
   id="metadata13"><rdf:RDF><cc:Work
       rdf:about=""><dc:format>image/svg+xml</dc:format><dc:type
         rdf:resource="http://purl.org/dc/dcmitype/StillImage" /></cc:Work></rdf:RDF></metadata><defs
   id="defs11"><inkscape:perspective
     sodipodi:type="inkscape:persp3d"
     inkscape:vp_x="0 : 396 : 1"
     inkscape:vp_y="0 : 1000 : 0"
     inkscape:vp_z="612 : 396 : 1"
     inkscape:persp3d-origin="306 : 264 : 1"
     id="perspective15" /></defs><sodipodi:namedview
   pagecolor="#ffffff"
   bordercolor="#666666"
   borderopacity="1"
   objecttolerance="10"
   gridtolerance="10"
   guidetolerance="10"
   inkscape:pageopacity="0"
   inkscape:pageshadow="2"
   inkscape:window-width="1280"
   inkscape:window-height="962"
   id="namedview9"
   showgrid="false"
   inkscape:zoom="1.6856283"
   inkscape:cx="287.69876"
   inkscape:cy="45.286136"
   inkscape:window-x="-8"
   inkscape:window-y="-8"
   inkscape:window-maximized="1"
   inkscape:current-layer="Ebene_1" />
<g
   id="g3"
   transform="translate(-209,-300)">
	<polygon
   clip-rule="evenodd"
   points="209,492.756 209,300 209,300 401.756,300 401.756,492.756 "
   id="polygon5"
   style="fill:#ffffff;fill-rule:evenodd" />
	<path
   clip-rule="evenodd"
   d="m 355,343.483 -2.863,-2.071 -46.759,-34.002 -34.155,24.824 -12.604,9.178 -46.785,33.977 17.87,54.991 17.871,54.965 h 23.647 34.155 49.623 8.181 l 17.87,-54.965 17.87,-54.991 -43.921,-31.906 0,0 0,0 z m -7.567,4.449 7.567,5.497 32.877,23.878 -32.877,5.982 -39.831,7.235 -8.462,-72.196 40.726,29.604 0,0 0,0 z m -84.212,0 8.002,-5.829 32.954,-23.929 -9.536,72.58 -23.418,-4.474 -48.139,-9.178 40.137,-29.17 0,0 0,0 z m -26.051,80.147 -15.979,-49.264 50.031,22.471 17.18,7.695 -17.18,31.752 -18.688,34.539 -15.364,-47.193 0,0 0,0 z M 355,477.573 h -49.647 -34.13 -17.154 l 17.154,-18.509 34.386,-36.993 49.391,54.25 1.125,1.252 H 355 l 0,0 0,0 z M 373.484,428.079 357.838,476.142 355,470.85 322.098,409.903 355,394.947 l 34.309,-15.595 -15.825,48.727 0,0 0,0 z"
   id="path7"
   style="fill:#e30613;fill-rule:evenodd" />
</g>
</svg>