<?xml version="1.0" encoding="UTF-8" standalone="no"?>
<!-- Created with Inkscape (http://www.inkscape.org/) -->
<svg
   xmlns:dc="http://purl.org/dc/elements/1.1/"
   xmlns:cc="http://creativecommons.org/ns#"
   xmlns:rdf="http://www.w3.org/1999/02/22-rdf-syntax-ns#"
   xmlns:svg="http://www.w3.org/2000/svg"
   xmlns="http://www.w3.org/2000/svg"
   xmlns:xlink="http://www.w3.org/1999/xlink"
   xmlns:sodipodi="http://sodipodi.sourceforge.net/DTD/sodipodi-0.dtd"
   xmlns:inkscape="http://www.inkscape.org/namespaces/inkscape"
   id="svg2403"
   sodipodi:version="0.32"
   inkscape:version="0.46"
   width="162"
   height="114"
   viewBox="0 0 162 114"
   xml:space="preserve"
   sodipodi:docname="Citroen.svg"
   version="1.0"
   inkscape:output_extension="org.inkscape.output.svg.inkscape"><metadata
     id="metadata2408"><rdf:RDF><cc:Work
         rdf:about=""><dc:format>image/svg+xml</dc:format><dc:type
           rdf:resource="http://purl.org/dc/dcmitype/StillImage" /></cc:Work></rdf:RDF></metadata><defs
     id="defs2406"><inkscape:perspective
       sodipodi:type="inkscape:persp3d"
       inkscape:vp_x="0 : 526.18109 : 1"
       inkscape:vp_y="0 : 1000 : 0"
       inkscape:vp_z="744.09448 : 526.18109 : 1"
       inkscape:persp3d-origin="372.04724 : 350.78739 : 1"
       id="perspective2410" /><clipPath
       clipPathUnits="userSpaceOnUse"
       id="clipPath2418"><path
         d="M 0,969.449 L 1417.323,969.449 L 1417.323,0 L 0,0 L 0,969.449 z"
         id="path2420" /></clipPath><clipPath
       clipPathUnits="userSpaceOnUse"
       id="clipPath2426"><path
         d="M 0,969.435 L 1417.32,969.435 L 1417.32,0.015 L 0,0.015 L 0,969.435 z"
         id="path2428" /></clipPath><clipPath
       clipPathUnits="userSpaceOnUse"
       id="clipPath2818"><path
         d="M 1176.379,733.385 L 1374.803,733.385 L 1374.803,611.244 L 1176.379,611.244 L 1176.379,733.385 z"
         clip-rule="evenodd"
         id="path2820" /></clipPath><clipPath
       clipPathUnits="userSpaceOnUse"
       id="clipPath2826"><path
         d="M 0,969.449 L 1417.323,969.449 L 1417.323,0 L 0,0 L 0,969.449 z"
         id="path2828" /></clipPath><clipPath
       clipPathUnits="userSpaceOnUse"
       id="clipPath2834"><path
         d="M 0,969.435 L 1417.32,969.435 L 1417.32,0.015 L 0,0.015 L 0,969.435 z"
         id="path2836" /></clipPath><clipPath
       clipPathUnits="userSpaceOnUse"
       id="clipPath2848"><path
         d="M 1176.379,599.244 L 1374.803,599.244 L 1374.803,480.324 L 1176.379,480.324 L 1176.379,599.244 z"
         clip-rule="evenodd"
         id="path2850" /></clipPath><clipPath
       clipPathUnits="userSpaceOnUse"
       id="clipPath2856"><path
         d="M 0,969.449 L 1417.323,969.449 L 1417.323,0 L 0,0 L 0,969.449 z"
         id="path2858" /></clipPath><clipPath
       clipPathUnits="userSpaceOnUse"
       id="clipPath2864"><path
         d="M 0,969.435 L 1417.32,969.435 L 1417.32,0.015 L 0,0.015 L 0,969.435 z"
         id="path2866" /></clipPath><clipPath
       clipPathUnits="userSpaceOnUse"
       id="clipPath2898"><path
         d="M 418.898,866.669 L 289.826,866.669 L 289.826,775.382 L 418.898,775.382 L 418.898,866.669 z"
         id="path2900" /></clipPath><linearGradient
       x1="0"
       y1="0"
       x2="1"
       y2="0"
       gradientUnits="userSpaceOnUse"
       gradientTransform="matrix(74.233002,0,0,-74.233002,317.12601,838.28101)"
       spreadMethod="pad"
       id="linearGradient2934"><stop
         style="stop-opacity:1;stop-color:#b2aaae"
         offset="0"
         id="stop2936" /><stop
         style="stop-opacity:1;stop-color:#655b5f"
         offset="0.5"
         id="stop2938" /><stop
         style="stop-opacity:1;stop-color:#d8d4d6"
         offset="0.994382"
         id="stop2940" /><stop
         style="stop-opacity:1;stop-color:#d8d4d6"
         offset="1"
         id="stop2942" /></linearGradient><linearGradient
       x1="0"
       y1="0"
       x2="1"
       y2="0"
       gradientUnits="userSpaceOnUse"
       gradientTransform="matrix(74.233002,0,0,-74.233002,317.093,838.28101)"
       spreadMethod="pad"
       id="linearGradient2958"><stop
         style="stop-opacity:1;stop-color:#b2aaae"
         offset="0"
         id="stop2960" /><stop
         style="stop-opacity:1;stop-color:#655b5f"
         offset="0.5"
         id="stop2962" /><stop
         style="stop-opacity:1;stop-color:#d8d4d6"
         offset="0.994382"
         id="stop2964" /><stop
         style="stop-opacity:1;stop-color:#d8d4d6"
         offset="1"
         id="stop2966" /></linearGradient><linearGradient
       x1="0"
       y1="0"
       x2="1"
       y2="0"
       gradientUnits="userSpaceOnUse"
       gradientTransform="matrix(74.233002,0,0,-74.233002,317.12601,811.852)"
       spreadMethod="pad"
       id="linearGradient2982"><stop
         style="stop-opacity:1;stop-color:#b2aaae"
         offset="0"
         id="stop2984" /><stop
         style="stop-opacity:1;stop-color:#655b5f"
         offset="0.5"
         id="stop2986" /><stop
         style="stop-opacity:1;stop-color:#d8d4d6"
         offset="0.994382"
         id="stop2988" /><stop
         style="stop-opacity:1;stop-color:#d8d4d6"
         offset="1"
         id="stop2990" /></linearGradient><linearGradient
       x1="0"
       y1="0"
       x2="1"
       y2="0"
       gradientUnits="userSpaceOnUse"
       gradientTransform="matrix(74.233002,0,0,-74.233002,317.093,811.852)"
       spreadMethod="pad"
       id="linearGradient3006"><stop
         style="stop-opacity:1;stop-color:#b2aaae"
         offset="0"
         id="stop3008" /><stop
         style="stop-opacity:1;stop-color:#655b5f"
         offset="0.5"
         id="stop3010" /><stop
         style="stop-opacity:1;stop-color:#d8d4d6"
         offset="0.994382"
         id="stop3012" /><stop
         style="stop-opacity:1;stop-color:#d8d4d6"
         offset="1"
         id="stop3014" /></linearGradient><linearGradient
       x1="0"
       y1="0"
       x2="1"
       y2="0"
       gradientUnits="userSpaceOnUse"
       gradientTransform="matrix(74.009003,0,0,-74.009003,317.142,849.304)"
       spreadMethod="pad"
       id="linearGradient3030"><stop
         style="stop-opacity:1;stop-color:#655b5f"
         offset="0"
         id="stop3032" /><stop
         style="stop-opacity:1;stop-color:#ffffff"
         offset="0.5"
         id="stop3034" /><stop
         style="stop-opacity:1;stop-color:#655b5f"
         offset="1"
         id="stop3036" /></linearGradient><linearGradient
       x1="0"
       y1="0"
       x2="1"
       y2="0"
       gradientUnits="userSpaceOnUse"
       gradientTransform="matrix(74.009003,0,0,-74.009003,317.142,822.875)"
       spreadMethod="pad"
       id="linearGradient3052"><stop
         style="stop-opacity:1;stop-color:#655b5f"
         offset="0"
         id="stop3054" /><stop
         style="stop-opacity:1;stop-color:#ffffff"
         offset="0.5"
         id="stop3056" /><stop
         style="stop-opacity:1;stop-color:#655b5f"
         offset="1"
         id="stop3058" /></linearGradient><linearGradient
       x1="0"
       y1="0"
       x2="1"
       y2="0"
       gradientUnits="userSpaceOnUse"
       gradientTransform="matrix(34.998001,0.7086487,0.7086487,-34.998001,354.52901,849.886)"
       spreadMethod="pad"
       id="linearGradient3074"><stop
         style="stop-opacity:1;stop-color:#f0eeef"
         offset="0"
         id="stop3076" /><stop
         style="stop-opacity:1;stop-color:#655b5f"
         offset="0.280899"
         id="stop3078" /><stop
         style="stop-opacity:1;stop-color:#8b8186"
         offset="0.589888"
         id="stop3080" /><stop
         style="stop-opacity:1;stop-color:#655b5f"
         offset="1"
         id="stop3082" /></linearGradient><linearGradient
       x1="0"
       y1="0"
       x2="1"
       y2="0"
       gradientUnits="userSpaceOnUse"
       gradientTransform="matrix(34.998001,0.7086487,0.7086487,-34.998001,354.52901,823.457)"
       spreadMethod="pad"
       id="linearGradient3098"><stop
         style="stop-opacity:1;stop-color:#f0eeef"
         offset="0"
         id="stop3100" /><stop
         style="stop-opacity:1;stop-color:#655b5f"
         offset="0.280899"
         id="stop3102" /><stop
         style="stop-opacity:1;stop-color:#8b8186"
         offset="0.589888"
         id="stop3104" /><stop
         style="stop-opacity:1;stop-color:#655b5f"
         offset="1"
         id="stop3106" /></linearGradient><clipPath
       clipPathUnits="userSpaceOnUse"
       id="clipPath3114"><path
         d="M 0,969.449 L 1417.323,969.449 L 1417.323,0 L 0,0 L 0,969.449 z"
         id="path3116" /></clipPath><clipPath
       clipPathUnits="userSpaceOnUse"
       id="clipPath3122"><path
         d="M 0,969.435 L 1417.32,969.435 L 1417.32,0.015 L 0,0.015 L 0,969.435 z"
         id="path3124" /></clipPath><clipPath
       clipPathUnits="userSpaceOnUse"
       id="clipPath3134"><path
         d="M 751.181,733.385 L 1162.205,733.385 L 1162.205,480.324 L 751.181,480.324 L 751.181,733.385 z"
         clip-rule="evenodd"
         id="path3136" /></clipPath><clipPath
       clipPathUnits="userSpaceOnUse"
       id="clipPath3142"><path
         d="M 0,969.449 L 1417.323,969.449 L 1417.323,0 L 0,0 L 0,969.449 z"
         id="path3144" /></clipPath><clipPath
       clipPathUnits="userSpaceOnUse"
       id="clipPath3150"><path
         d="M 0,969.435 L 1417.32,969.435 L 1417.32,0.015 L 0,0.015 L 0,969.435 z"
         id="path3152" /></clipPath><clipPath
       clipPathUnits="userSpaceOnUse"
       id="clipPath3164"><path
         d="M 42.52,613.324 L 453.545,613.324 L 453.545,325.449 L 42.52,325.449 L 42.52,613.324 z"
         clip-rule="evenodd"
         id="path3166" /></clipPath><clipPath
       clipPathUnits="userSpaceOnUse"
       id="clipPath3172"><path
         d="M 0,969.449 L 1417.323,969.449 L 1417.323,0 L 0,0 L 0,969.449 z"
         id="path3174" /></clipPath><clipPath
       clipPathUnits="userSpaceOnUse"
       id="clipPath3180"><path
         d="M 0,969.435 L 1417.32,969.435 L 1417.32,0.015 L 0,0.015 L 0,969.435 z"
         id="path3182" /></clipPath><clipPath
       clipPathUnits="userSpaceOnUse"
       id="clipPath3194"><path
         d="M 751.181,329.103 L 949.606,329.103 L 949.606,29.103 L 751.181,29.103 L 751.181,329.103 z"
         clip-rule="evenodd"
         id="path3196" /></clipPath><clipPath
       clipPathUnits="userSpaceOnUse"
       id="clipPath3202"><path
         d="M 0,969.449 L 1417.323,969.449 L 1417.323,0 L 0,0 L 0,969.449 z"
         id="path3204" /></clipPath><clipPath
       clipPathUnits="userSpaceOnUse"
       id="clipPath3210"><path
         d="M 0,969.435 L 1417.32,969.435 L 1417.32,0.015 L 0,0.015 L 0,969.435 z"
         id="path3212" /></clipPath><clipPath
       clipPathUnits="userSpaceOnUse"
       id="clipPath3224"><path
         d="M 468.029,197.103 L 666.142,197.103 L 666.142,29.103 L 468.029,29.103 L 468.029,197.103 z"
         clip-rule="evenodd"
         id="path3226" /></clipPath><clipPath
       clipPathUnits="userSpaceOnUse"
       id="clipPath3232"><path
         d="M 0,969.449 L 1417.323,969.449 L 1417.323,0 L 0,0 L 0,969.449 z"
         id="path3234" /></clipPath><clipPath
       clipPathUnits="userSpaceOnUse"
       id="clipPath3240"><path
         d="M 0,969.435 L 1417.32,969.435 L 1417.32,0.015 L 0,0.015 L 0,969.435 z"
         id="path3242" /></clipPath><clipPath
       clipPathUnits="userSpaceOnUse"
       id="clipPath3254"><path
         d="M 0,969.449 L 1417.323,969.449 L 1417.323,0 L 0,0 L 0,969.449 z"
         id="path3256" /></clipPath><clipPath
       clipPathUnits="userSpaceOnUse"
       id="clipPath3262"><path
         d="M 0,969.435 L 1417.32,969.435 L 1417.32,0.015 L 0,0.015 L 0,969.435 z"
         id="path3264" /></clipPath><linearGradient
       inkscape:collect="always"
       xlink:href="#linearGradient2934"
       id="linearGradient3334"
       gradientUnits="userSpaceOnUse"
       gradientTransform="matrix(76.045996,0,0,-76.045996,612.86225,733.46514)"
       spreadMethod="pad"
       x1="-3.8889196"
       y1="-1.3336922"
       x2="-2.9065058"
       y2="-1.3271115" /><linearGradient
       inkscape:collect="always"
       xlink:href="#linearGradient2958"
       id="linearGradient3336"
       gradientUnits="userSpaceOnUse"
       gradientTransform="matrix(76.045996,0,0,-76.045996,612.82844,733.46514)"
       spreadMethod="pad"
       x1="-3.9145997"
       y1="-1.3336922"
       x2="-2.9006209"
       y2="-1.3336922" /><linearGradient
       inkscape:collect="always"
       xlink:href="#linearGradient2982"
       id="linearGradient3338"
       gradientUnits="userSpaceOnUse"
       gradientTransform="matrix(76.045996,0,0,-76.045996,612.86225,706.39066)"
       spreadMethod="pad"
       x1="-3.8889196"
       y1="-1.2476071"
       x2="-2.9010522"
       y2="-1.2458574" /><linearGradient
       inkscape:collect="always"
       xlink:href="#linearGradient3006"
       id="linearGradient3340"
       gradientUnits="userSpaceOnUse"
       gradientTransform="matrix(76.045996,0,0,-76.045996,612.82844,706.39066)"
       spreadMethod="pad"
       x1="-3.9071372"
       y1="-1.3845656"
       x2="-2.9006209"
       y2="-1.3845656" /><linearGradient
       inkscape:collect="always"
       xlink:href="#linearGradient3030"
       id="linearGradient3342"
       gradientUnits="userSpaceOnUse"
       gradientTransform="matrix(75.816526,0,0,-75.816526,612.87863,744.75734)"
       spreadMethod="pad"
       x1="-3.9006882"
       y1="-1.3789428"
       x2="-2.9188573"
       y2="-1.3909506" /><linearGradient
       inkscape:collect="always"
       xlink:href="#linearGradient3052"
       id="linearGradient3344"
       gradientUnits="userSpaceOnUse"
       gradientTransform="matrix(75.816526,0,0,-75.816526,612.87863,717.68287)"
       spreadMethod="pad"
       x1="-3.9160912"
       y1="-1.2446277"
       x2="-2.9102762"
       y2="-1.2446277" /><linearGradient
       inkscape:collect="always"
       xlink:href="#linearGradient3074"
       id="linearGradient3346"
       gradientUnits="userSpaceOnUse"
       gradientTransform="matrix(35.852757,0.725956,0.725956,-35.852757,651.17874,745.35356)"
       spreadMethod="pad"
       x1="-8.2262316"
       y1="-3.1135967"
       x2="-7.2096734"
       y2="-3.093013" /><linearGradient
       inkscape:collect="always"
       xlink:href="#linearGradient3098"
       id="linearGradient3348"
       gradientUnits="userSpaceOnUse"
       gradientTransform="matrix(35.852757,0.725956,0.725956,-35.852757,651.17874,718.27908)"
       spreadMethod="pad"
       x1="-8.2145672"
       y1="-3.3293464"
       x2="-7.222621"
       y2="-3.2906501" /><inkscape:perspective
       id="perspective3357"
       inkscape:persp3d-origin="372.04724 : 350.78739 : 1"
       inkscape:vp_z="744.09448 : 526.18109 : 1"
       inkscape:vp_y="0 : 1000 : 0"
       inkscape:vp_x="0 : 526.18109 : 1"
       sodipodi:type="inkscape:persp3d" /><inkscape:perspective
       id="perspective3370"
       inkscape:persp3d-origin="372.04724 : 350.78739 : 1"
       inkscape:vp_z="744.09448 : 526.18109 : 1"
       inkscape:vp_y="0 : 1000 : 0"
       inkscape:vp_x="0 : 526.18109 : 1"
       sodipodi:type="inkscape:persp3d" /><inkscape:perspective
       id="perspective3383"
       inkscape:persp3d-origin="372.04724 : 350.78739 : 1"
       inkscape:vp_z="744.09448 : 526.18109 : 1"
       inkscape:vp_y="0 : 1000 : 0"
       inkscape:vp_x="0 : 526.18109 : 1"
       sodipodi:type="inkscape:persp3d" /></defs><sodipodi:namedview
     inkscape:window-height="944"
     inkscape:window-width="1280"
     inkscape:pageshadow="2"
     inkscape:pageopacity="0.0"
     guidetolerance="10.0"
     gridtolerance="10.0"
     objecttolerance="10.0"
     borderopacity="1.0"
     bordercolor="#666666"
     pagecolor="#ffffff"
     id="base"
     showgrid="false"
     inkscape:zoom="2.4564671"
     inkscape:cx="121.91122"
     inkscape:cy="32.691804"
     inkscape:window-x="-8"
     inkscape:window-y="-8"
     inkscape:current-layer="g3270" /><g
     id="g2412"
     inkscape:groupmode="layer"
     inkscape:label="CSB_098-099_BTW_Citroen"
     transform="matrix(1.25,0,0,-1.25,-362.2825,1083.3363)"><g
       id="g2414" /><g
       id="g3270"
       transform="matrix(0.9761592,0,0,0.9761592,8.7008601,19.522193)"><g
         transform="translate(371.528,777.205)"
         id="g2874"><path
           id="path2876"
           style="fill:#d9152e;fill-opacity:1;fill-rule:nonzero;stroke:none"
           d="M 0,0 C 0,0 -1.158,-0.03 -2.034,0 C -4.266,0 -6.674,1.683 -6.674,4.402 C -6.674,7.099 -4.315,8.711 -2.045,8.71 C -2.018,8.714 -0.911,8.761 -0.002,8.711 C 2.28,8.711 4.64,7.099 4.64,4.402 C 4.64,1.683 2.231,0 0,0 z M 2.174,10.409 C -0.997,10.48 -4.221,10.41 -4.249,10.409 C -8.124,10.409 -11.277,7.723 -11.277,4.421 C -11.277,1.069 -8.124,-1.658 -4.246,-1.658 C -4.22,-1.659 -0.997,-1.724 2.177,-1.658 C 6.06,-1.658 9.219,1.069 9.219,4.421 C 9.219,7.691 6.125,10.321 2.174,10.409" /></g><g
         transform="translate(414.94701,775.701)"
         id="g2878"><path
           id="path2880"
           style="fill:#d9152e;fill-opacity:1;fill-rule:nonzero;stroke:none"
           d="M 0,0 L 3.951,0 L 3.951,5.751 C 3.951,9.111 0.942,11.744 -2.899,11.744 L -12.895,11.744 C -13.058,11.744 -13.438,11.703 -13.438,11.306 L -13.438,0.446 C -13.438,0.154 -13.226,0.001 -13.018,0.001 L -8.841,0.001 L -8.841,9.085 C -8.841,9.484 -8.537,9.679 -8.24,9.679 L -3.639,9.679 C -2.366,9.679 -0.481,8.536 -0.481,6.045 L -0.481,0.458 C -0.481,0.454 -0.469,0 0,0" /></g><g
         transform="translate(331.55099,785.114)"
         id="g2882"><path
           id="path2884"
           style="fill:#d9152e;fill-opacity:1;fill-rule:nonzero;stroke:none"
           d="M 0,0 L 6.167,0 L 6.167,1.871 C 6.167,2.133 5.977,2.33 5.723,2.33 L -11.462,2.33 C -11.742,2.33 -11.909,2.1 -11.909,1.877 L -11.909,0 L -7.802,0 C -6.26,0 -5.224,-1.322 -5.224,-2.555 L -5.224,-8.967 C -5.224,-9.178 -5.038,-9.414 -4.771,-9.414 L -0.604,-9.414 L -0.604,-0.6 C -0.604,-0.269 -0.333,0 0,0" /></g><g
         transform="translate(312.55299,776.14799)"
         id="g2886"><path
           id="path2888"
           style="fill:#d9152e;fill-opacity:1;fill-rule:nonzero;stroke:none"
           d="M 0,0 C 0,-0.264 0.238,-0.447 0.453,-0.447 C 0.481,-0.447 4.617,-0.447 4.617,-0.447 L 4.617,10.853 C 4.617,11.095 4.402,11.3 4.162,11.3 L 0.452,11.3 C 0.207,11.3 0,11.095 0,10.853 L 0,0" /></g><g
         transform="translate(344.789,781.946)"
         id="g2890"><path
           id="path2892"
           style="fill:#d9152e;fill-opacity:1;fill-rule:nonzero;stroke:none"
           d="M 0,0 L 0,2.346 C 0,2.987 0.456,3.434 1.108,3.434 L 7.242,3.434 C 8.172,3.434 8.957,2.654 8.957,1.729 C 8.957,0.776 8.178,0 7.221,0 L 0,0 z M 8.969,-6.247 L 13.554,-6.247 C 13.432,-3.204 10.149,-1.948 10.149,-1.948 C 10.149,-1.948 10.149,-1.949 10.151,-1.948 C 12.213,-1.476 13.545,0.005 13.545,1.718 C 13.545,3.537 11.764,5.501 8.886,5.501 L -2.202,5.501 C -3.546,5.501 -4.599,4.446 -4.599,3.102 L -4.599,-5.797 C -4.599,-6.054 -4.415,-6.246 -4.16,-6.246 L 0.003,-6.246 L 0.003,-2.08 L 3.93,-2.08 C 7.426,-2.08 8.862,-4.604 8.969,-6.247" /></g><g
         id="g2894"><g
           clip-path="url(#clipPath2898)"
           id="g2896"><g
             transform="translate(305.549,783.505)"
             id="g2902"><path
               id="path2904"
               style="fill:#d9152e;fill-opacity:1;fill-rule:nonzero;stroke:none"
               d="M 0,0 C 0,0 4.251,0 4.486,0 C 3.515,2.456 0.7,4.195 -2.272,4.2 C -3.899,4.203 -6.798,4.296 -8.691,4.2 C -10.903,4.09 -12.295,3.585 -13.657,2.399 C -14.987,1.239 -15.721,-0.292 -15.723,-1.918 C -15.723,-5.276 -12.735,-7.913 -8.772,-8.05 C -6.056,-8.146 -5.765,-8.15 -2.204,-8.043 C 1.096,-7.944 3.462,-6.45 4.484,-3.844 C 4.251,-3.844 -0.002,-3.844 -0.002,-3.844 C -0.171,-3.844 -0.301,-3.92 -0.388,-4.069 C -1.199,-5.468 -2.726,-6.306 -4.397,-6.332 C -4.979,-6.342 -5.764,-6.343 -6.48,-6.337 C -8.811,-6.314 -11.119,-4.679 -11.119,-1.912 C -11.119,0.806 -8.75,2.462 -6.469,2.463 C -6.208,2.473 -5.289,2.504 -4.447,2.462 C -2.783,2.462 -1.187,1.58 -0.382,0.216 C -0.352,0.165 -0.237,0 0,0" /></g></g></g><g
         transform="translate(399.037,777.811)"
         id="g2906"><path
           id="path2908"
           style="fill:#d9152e;fill-opacity:1;fill-rule:nonzero;stroke:none"
           d="M 0,0 C 0,0 -0.583,0 -10.865,0 C -11.231,0 -11.487,0.243 -11.487,0.591 L -11.487,2.829 L -2.071,2.829 L -2.071,4.89 L -11.49,4.89 L -11.49,6.934 C -11.49,6.943 -11.493,7.528 -10.79,7.528 L -0.003,7.528 L -0.003,9.175 C -0.003,9.657 -0.517,9.636 -0.531,9.635 L -15.643,9.635 C -15.69,9.635 -16.102,9.623 -16.102,9.175 L -16.102,0.281 C -16.102,-0.894 -15.198,-2.109 -13.685,-2.109 L -0.451,-2.109 C -0.108,-2.109 0,-1.785 0,-1.671 L 0,0" /></g><g
         transform="translate(395.65401,791.7)"
         id="g2910"><path
           id="path2912"
           style="fill:#d9152e;fill-opacity:1;fill-rule:nonzero;stroke:none"
           d="M 0,0 C -0.442,0.272 -0.974,0.408 -1.598,0.408 C -2.221,0.408 -2.775,0.264 -3.197,0 C -3.621,-0.263 -3.957,-0.616 -4.456,-0.616 C -4.954,-0.616 -5.255,-0.263 -5.704,0 C -6.155,0.264 -6.679,0.408 -7.303,0.408 C -7.927,0.408 -8.458,0.272 -8.902,0 C -9.343,-0.268 -9.566,-0.595 -9.566,-0.975 C -9.566,-1.358 -9.343,-1.684 -8.902,-1.953 C -8.458,-2.224 -7.927,-2.358 -7.303,-2.358 C -6.682,-2.358 -6.139,-2.227 -5.739,-1.984 C -5.34,-1.741 -4.907,-1.342 -4.456,-1.342 C -4.005,-1.342 -3.597,-1.7 -3.196,-1.954 C -2.796,-2.207 -2.22,-2.358 -1.598,-2.358 C -0.956,-2.358 -0.416,-2.224 0.014,-1.953 C 0.448,-1.684 0.663,-1.358 0.663,-0.975 C 0.663,-0.595 0.443,-0.268 0,0" /></g><g
         transform="translate(354.36099,848.47301)"
         id="g2914"><path
           id="path2916"
           style="fill:#231f20;fill-opacity:1;fill-rule:nonzero;stroke:none"
           d="M 0,0 C 9.639,0 32.908,-19.98 35.825,-22.517 C 36.022,-22.689 36.296,-22.911 36.8,-22.853 C 37.527,-22.77 37.548,-21.659 37.548,-21.659 C 37.548,-21.659 37.721,-19.12 37.721,-16.565 C 37.721,-13.344 35.206,-10.528 35.206,-10.528 C 35.206,-10.528 9.131,18.196 0,18.196 C -9.131,18.196 -35.206,-10.528 -35.206,-10.528 C -35.206,-10.528 -37.721,-13.344 -37.721,-16.565 C -37.721,-19.12 -37.548,-21.659 -37.548,-21.659 C -37.548,-21.659 -37.527,-22.77 -36.8,-22.853 C -36.296,-22.911 -36.022,-22.689 -35.824,-22.517 C -32.908,-19.98 -9.639,0 0,0" /></g><g
         transform="translate(354.36099,822.04401)"
         id="g2918"><path
           id="path2920"
           style="fill:#231f20;fill-opacity:1;fill-rule:nonzero;stroke:none"
           d="M 0,0 C 9.639,0 32.908,-19.98 35.825,-22.517 C 36.022,-22.69 36.296,-22.911 36.8,-22.853 C 37.527,-22.77 37.548,-21.659 37.548,-21.659 C 37.548,-21.659 37.721,-19.12 37.721,-16.565 C 37.721,-13.344 35.206,-10.528 35.206,-10.528 C 35.206,-10.528 9.131,18.196 0,18.196 C -9.131,18.196 -35.206,-10.528 -35.206,-10.528 C -35.206,-10.528 -37.721,-13.344 -37.721,-16.565 C -37.721,-19.12 -37.548,-21.659 -37.548,-21.659 C -37.548,-21.659 -37.527,-22.77 -36.8,-22.853 C -36.296,-22.911 -36.022,-22.69 -35.824,-22.517 C -32.908,-19.98 -9.639,0 0,0" /></g><g
         id="g2922"><g
           id="g2924"><g
             id="g2930"><g
               id="g2932"><path
                 id="path2944"
                 style="fill:url(#linearGradient3334);stroke:none"
                 d="M 327.902,842.289 C 322.619,837.939 318.54,833.852 317.142,832.415 C 317.063,830.663 317.293,826.872 317.294,826.847 C 317.294,826.847 317.318,825.477 318.297,826.354 L 319.271,827.22 C 329.787,836.84 340.586,845.261 349.238,849.007 C 349.853,849.273 350.862,849.452 350.339,850.114 C 350.045,850.484 349.019,850.529 348.37,850.491 C 339.399,849.975 328.309,842.583 327.902,842.288 C 327.902,842.288 327.902,842.288 327.902,842.288 L 327.902,842.289" /></g></g></g></g><g
         id="g2946"><g
           id="g2948"><g
             id="g2954"><g
               id="g2956"><path
                 id="path2968"
                 style="fill:url(#linearGradient3336);stroke:none"
                 d="M 380.821,842.289 C 386.103,837.939 390.183,833.852 391.581,832.415 C 391.659,830.663 391.43,826.872 391.428,826.847 C 391.428,826.847 391.405,825.477 390.426,826.354 L 389.451,827.22 C 378.935,836.84 368.137,845.261 359.484,849.007 C 358.87,849.273 357.86,849.452 358.384,850.114 C 358.678,850.484 359.704,850.529 360.352,850.491 C 369.324,849.975 380.413,842.583 380.821,842.288 C 380.821,842.288 380.821,842.288 380.821,842.288 L 380.821,842.289" /></g></g></g></g><g
         id="g2970"><g
           id="g2972"><g
             id="g2978"><g
               id="g2980"><path
                 id="path2992"
                 style="fill:url(#linearGradient3338);stroke:none;fill-opacity:1"
                 d="M 327.902,815.86 C 322.619,811.51 318.54,807.423 317.142,805.986 C 317.063,804.234 317.293,800.443 317.294,800.418 C 317.294,800.418 317.318,799.048 318.297,799.925 L 319.271,800.791 C 329.787,810.411 340.586,818.832 349.238,822.578 C 349.853,822.844 350.862,823.023 350.339,823.685 C 350.045,824.055 349.019,824.1 348.37,824.062 C 339.399,823.546 328.309,816.154 327.902,815.859 C 327.902,815.859 327.902,815.859 327.902,815.859 L 327.902,815.86" /></g></g></g></g><g
         id="g2994"><g
           id="g2996"><g
             id="g3002"><g
               id="g3004"><path
                 id="path3016"
                 style="fill:url(#linearGradient3340);stroke:none"
                 d="M 380.821,815.86 C 386.103,811.51 390.183,807.423 391.581,805.986 C 391.659,804.234 391.43,800.443 391.428,800.418 C 391.428,800.418 391.405,799.048 390.426,799.925 L 389.451,800.791 C 378.935,810.411 368.137,818.832 359.484,822.578 C 358.87,822.844 357.86,823.023 358.384,823.685 C 358.678,824.055 359.704,824.1 360.352,824.062 C 369.324,823.546 380.413,816.154 380.821,815.859 C 380.821,815.859 380.821,815.859 380.821,815.859 L 380.821,815.86" /></g></g></g></g><g
         id="g3018"><g
           id="g3020"><g
             id="g3026"><g
               id="g3028"><path
                 id="path3038"
                 style="fill:url(#linearGradient3342);stroke:none"
                 d="M 389.213,837.627 C 388.896,837.977 363.168,866.193 354.361,866.193 C 345.555,866.193 319.827,837.977 319.51,837.627 C 319.481,837.596 317.378,835.2 317.142,832.415 C 318.54,833.852 322.619,837.939 327.902,842.289 C 327.9,842.287 329.493,843.624 331.887,845.427 C 337.19,849.421 346.552,855.665 354.361,855.665 C 362.171,855.665 371.533,849.421 376.836,845.427 C 379.23,843.624 380.823,842.287 380.821,842.289 C 386.103,837.939 390.183,833.852 391.581,832.415 C 391.344,835.2 389.242,837.596 389.213,837.627" /></g></g></g></g><g
         id="g3040"><g
           id="g3042"><g
             id="g3048"><g
               id="g3050"><path
                 id="path3060"
                 style="fill:url(#linearGradient3344);stroke:none"
                 d="M 389.213,811.198 C 388.896,811.548 363.168,839.764 354.361,839.764 C 345.555,839.764 319.827,811.548 319.51,811.198 C 319.481,811.167 317.378,808.771 317.142,805.986 C 318.54,807.423 322.619,811.51 327.902,815.86 C 327.9,815.858 329.493,817.195 331.887,818.998 C 337.19,822.992 346.552,829.236 354.361,829.236 C 362.171,829.236 371.533,822.992 376.836,818.998 C 379.23,817.195 380.823,815.858 380.821,815.86 C 386.103,811.51 390.183,807.423 391.581,805.986 C 391.344,808.771 389.242,811.167 389.213,811.198" /></g></g></g></g><g
         id="g3062"><g
           id="g3064"><g
             id="g3070"><g
               id="g3072"><path
                 id="path3084"
                 style="fill:url(#linearGradient3346);stroke:none"
                 d="M 389.609,835.837 C 375.171,852.397 359.415,865.123 354.908,865.352 C 354.262,865.385 354.247,864.746 354.247,864.746 C 354.24,859.304 354.567,858.344 358.314,856.885 C 358.829,856.684 372.869,852.471 389.598,835.383 L 389.839,835.139 L 389.609,835.837" /></g></g></g></g><g
         id="g3086"><g
           id="g3088"><g
             id="g3094"><g
               id="g3096"><path
                 id="path3108"
                 style="fill:url(#linearGradient3348);stroke:none"
                 d="M 389.609,809.408 C 375.171,825.968 359.415,838.694 354.908,838.923 C 354.262,838.956 354.247,838.317 354.247,838.317 C 354.24,832.875 354.567,831.915 358.314,830.456 C 358.829,830.255 372.869,826.042 389.598,808.954 L 389.839,808.71 L 389.609,809.408" /></g></g></g></g></g></g></svg>