<?xml version="1.0" encoding="UTF-8" standalone="no"?>
<!-- Created with Inkscape (http://www.inkscape.org/) -->
<svg
   xmlns:svg="http://www.w3.org/2000/svg"
   xmlns="http://www.w3.org/2000/svg"
   version="1.0"
   width="800"
   height="143.424"
   viewBox="0 0 800 143.424"
   id="Layer_1"
   xml:space="preserve"><defs
   id="defs28" />
<g
   id="g3">
	<path
   d="M 115.816,141.233 C 111.564,92.031 143.985,52.17 179.427,47.485 C 201.113,91.354 160.816,133.304 115.816,141.233 L 115.816,141.233 L 115.816,141.233 L 115.816,141.233 z "
   style="fill:#0c479c;fill-rule:evenodd"
   id="path5" />
	<path
   d="M 153.849,18.339 C 159.188,21.675 167.664,29.728 170.59,33.678 C 125.287,57.833 111.353,101.98 112.527,141.784 C 110.568,142.152 108.396,142.302 106.586,142.644 C 103.238,85.237 128.484,43.934 153.849,18.339 L 153.849,18.339 L 153.849,18.339 L 153.849,18.339 z "
   style="fill:#0c479c;fill-rule:evenodd"
   id="path7" />
	<path
   d="M 118.41,2.906 C 124.895,4.07 134.546,7.501 139.886,10.284 C 114.579,59.211 101.972,86.922 103.781,142.919 L 103.781,142.919 L 97.959,143.286 L 97.959,143.286 C 98.442,64.568 105.681,48.862 118.41,2.906 L 118.41,2.906 L 118.41,2.906 L 118.41,2.906 z "
   style="fill:#0c479c;fill-rule:evenodd"
   id="path9" />
	<path
   d="M 103.208,0.58 C 96.691,-0.031 89.271,-0.246 81.582,0.365 C 88.489,48.251 89.271,68.518 90.569,143.404 C 92.198,143.437 93.375,143.437 95.364,143.345 C 95.064,68.946 96.692,48.894 103.208,0.58 L 103.208,0.58 L 103.208,0.58 L 103.208,0.58 z "
   style="fill:#0c479c;fill-rule:evenodd"
   id="path11" />
	<path
   d="M 67.045,2.906 C 60.558,4.07 50.936,7.501 45.599,10.284 C 70.874,59.211 83.513,86.922 81.673,142.919 L 81.673,142.919 L 87.524,143.286 L 87.524,143.286 C 87.01,64.568 79.771,48.862 67.045,2.906 L 67.045,2.906 L 67.045,2.906 L 67.045,2.906 z "
   style="fill:#0c479c;fill-rule:evenodd"
   id="path13" />
	<path
   d="M 31.633,18.339 C 26.295,21.675 17.848,29.728 14.894,33.678 C 60.197,57.833 74.102,101.98 72.926,141.784 C 74.916,142.152 77.118,142.302 78.898,142.644 C 82.246,85.237 57.029,43.934 31.633,18.339 L 31.633,18.339 L 31.633,18.339 L 31.633,18.339 z "
   style="fill:#0c479c;fill-rule:evenodd"
   id="path15" />
	<path
   d="M 69.668,141.233 C 73.891,92.031 41.496,52.17 6.057,47.485 C -15.661,91.354 24.636,133.304 69.668,141.233 L 69.668,141.233 L 69.668,141.233 L 69.668,141.233 z "
   style="fill:#0c479c;fill-rule:evenodd"
   id="path17" />
	<path
   d="M 211.204,27.174 L 252.991,27.174 L 252.991,27.174 C 261.864,27.174 269.371,27.476 274.072,28.539 C 280.67,29.828 286.283,32.48 290.985,35.819 C 295.686,39.458 299.404,43.781 301.754,48.785 C 304.106,53.79 305.546,60.086 305.546,67.744 C 305.546,74.039 304.106,79.653 301.754,84.661 C 298.947,90.345 295.231,94.969 290.075,98.608 C 285.829,101.261 280.671,103.315 274.073,104.984 C 268.917,105.969 262.396,106.57 253.902,106.57 L 253.902,106.57 L 211.205,106.57 L 211.205,27.174 L 211.204,27.174 L 211.204,27.174 z M 238.431,86.555 L 251.095,86.555 L 251.095,86.555 C 259.438,86.555 265.96,84.886 270.586,81.322 C 275.288,77.759 277.714,72.828 277.714,66.607 C 277.714,60.464 275.288,55.535 270.282,51.971 C 265.051,48.407 258.223,46.511 249.276,46.511 L 249.276,46.511 L 238.432,46.511 L 238.432,86.555 L 238.431,86.555 L 238.431,86.555 z "
   style="fill:#0c479c;fill-rule:evenodd"
   id="path19" />
	<path
   d="M 578.633,103.991 L 555.96,103.991 L 540.564,72.068 L 526.383,103.916 L 502.191,103.916 L 479.893,48.863 L 430.448,48.863 L 430.448,59.025 L 474.284,59.025 L 474.284,76.39 L 430.448,76.39 L 430.448,86.097 L 479.893,86.097 L 479.893,104.076 L 341.341,104.076 L 330.647,86.248 L 322.759,104.076 L 292.576,104.076 L 328.068,29.599 L 369.703,29.599 L 403.905,104.076 L 403.905,29.598 L 498.323,29.598 L 517.052,75.629 L 530.023,49.619 L 520.846,29.598 L 560.963,29.598 L 551.182,49.619 L 564.148,75.629 L 583.261,29.598 L 609.423,29.598 L 578.633,103.991 L 578.633,103.991 L 578.633,103.991 z M 348.165,47.573 L 331.255,85.186 L 366.899,85.186 L 348.165,47.573 L 348.165,47.573 L 348.165,47.573 z "
   style="fill:#0c479c;fill-rule:evenodd"
   id="path21" />
	<path
   d="M 647.493,23.835 C 675.554,23.835 698.457,43.174 698.457,66.684 C 698.457,90.194 675.554,109.458 647.493,109.458 C 619.435,109.458 596.608,90.193 596.608,66.684 C 596.608,43.174 619.435,23.835 647.493,23.835 L 647.493,23.835 L 647.493,23.835 L 647.493,23.835 z M 625.124,66.684 C 625.124,80.712 635.207,92.163 647.493,92.163 C 659.779,92.163 669.866,80.712 669.866,66.684 C 669.866,52.654 659.779,41.202 647.493,41.202 C 635.207,41.202 625.124,52.654 625.124,66.684 L 625.124,66.684 L 625.124,66.684 L 625.124,66.684 z "
   style="fill:#0c479c;fill-rule:evenodd"
   id="path23" />
	<path
   d="M 749.041,23.835 C 777.098,23.835 800.001,43.174 800.001,66.684 C 800.001,90.194 777.098,109.458 749.041,109.458 C 720.98,109.458 698.152,90.193 698.152,66.684 C 698.152,43.174 720.98,23.835 749.041,23.835 L 749.041,23.835 L 749.041,23.835 L 749.041,23.835 z M 726.667,66.684 C 726.667,80.712 736.754,92.163 749.04,92.163 C 761.326,92.163 771.413,80.712 771.413,66.684 C 771.413,52.654 761.326,41.202 749.04,41.202 C 736.754,41.202 726.667,52.654 726.667,66.684 L 726.667,66.684 L 726.667,66.684 L 726.667,66.684 z "
   style="fill:#0c479c;fill-rule:evenodd"
   id="path25" />
</g>
</svg>