<?xml version="1.0" encoding="UTF-8" standalone="no"?>
<!-- Created with Inkscape (http://www.inkscape.org/) -->
<svg xmlns:svg="http://www.w3.org/2000/svg" xmlns="http://www.w3.org/2000/svg" version="1.0" width="566.92914" height="460.62991" viewBox="0 0 566.92914 460.62991" id="svg1879">
  <defs id="defs1881"/>
  <g id="layer1">
    <g transform="matrix(3.543307e-5,0,0,3.543307e-5,3.634225e-4,-3.526657e-4)" style="fill-rule:evenodd" id="Ebene_x0020_1">
  
  <g id="_113437912">
   <path d="M 13285800,10691500 C 13307580,10701220 13321170,10683660 13321170,10661320 L 13321170,10463890 C 13321170,10438300 13308380,10426810 13284910,10416200 C 13284910,10416200 13239180,10388040 13127390,10357360 C 13037060,10334540 12904310,10311380 12763220,10311380 C 12426320,10311380 12270740,10422360 12174500,10552030 C 12080520,10679440 12045150,10836810 12076060,11013260 C 12129000,11304670 12361890,11484040 12600360,11662450 C 12784100,11800780 12962580,11908120 13021680,12086610 C 13046280,12157760 13034220,12271240 12974320,12328390 C 12905440,12390630 12831530,12414270 12705990,12414270 C 12565700,12414270 12389250,12384160 12200730,12298030 C 12169720,12281280 12131520,12262340 12131520,12262340 C 12111770,12254490 12095010,12265980 12095810,12287670 L 12095010,12493200 C 12095810,12515210 12111770,12533670 12133530,12544270 C 12133530,12544270 12158060,12554310 12182590,12562080 C 12337360,12615910 12512200,12642940 12710520,12642940 C 13040610,12642940 13217160,12524200 13311140,12417920 C 13418550,12297710 13470360,12117280 13430210,11904560 C 13366670,11565720 13083600,11381400 12856870,11222430 C 12686800,11102790 12516650,10984290 12472860,10847900 C 12440000,10744440 12482660,10675880 12509450,10640670 C 12552910,10581020 12652240,10535600 12784100,10535600 C 12898960,10535600 13018040,10558430 13149160,10620110 C 13174500,10631200 13230030,10659690 13285800,10691500 z M 15499990,10379130 C 15499990,10356300 15483560,10338180 15462600,10338180 L 15241450,10338180 C 15221700,10338180 15204380,10356300 15204380,10379130 L 15204380,11866910 C 15204380,11899780 15204380,11979030 15204380,12039250 C 15204380,12246720 15061350,12415980 14776580,12415980 C 14453370,12415980 14369430,12214090 14346840,12089110 C 14334050,12022490 14334050,11958060 14334860,11898970 C 14334860,11897600 14336000,10414590 14336000,10414590 C 14336000,10372170 14305070,10338180 14266860,10338180 L 13900990,10338180 C 13863590,10338180 13831780,10372170 13831780,10414590 L 13831780,11731090 C 13830970,11825310 13832680,11939120 13851850,12048400 C 13903740,12330330 14161150,12642710 14712710,12642710 C 15179850,12642710 15467380,12496840 15496350,12044760 C 15499990,11965350 15499180,11924060 15499180,11794060 L 15499990,10379130 z M 11918790,10338180 L 10214070,10338180 C 10192860,10338180 10176430,10356300 10176430,10379130 L 10176430,10544750 C 10176430,10567980 10192050,10586040 10212130,10586040 L 10820030,10586040 L 10820030,12540630 C 10820030,12584420 10851030,12618980 10890050,12618980 L 11257050,12618980 C 11296880,12618980 11326990,12584420 11326990,12540630 L 11326990,10586040 L 11918790,10586040 C 11944200,10586040 11959510,10567980 11959510,10544750 L 11959510,10379130 C 11959510,10356300 11941370,10338180 11918790,10338180 z M 8906230,11773420 L 8906230,11773420 L 9225470,10793250 L 9547560,11773420 L 8906230,11773420 z M 10343180,12540630 L 9603900,10414590 C 9591350,10371850 9548700,10338180 9509350,10338180 L 9136280,10338180 C 9115310,10338180 9092720,10355420 9084390,10378330 L 8343740,12578030 C 8336450,12600280 8347380,12618980 8368260,12618980 L 8593860,12618980 C 8613930,12618980 8636510,12600280 8643800,12578030 L 8826730,12018290 L 9626810,12018290 L 9798820,12540630 C 9812500,12583610 9854350,12617610 9893680,12617610 L 10297770,12618980 C 10335650,12618980 10355730,12584420 10343180,12540630 z M 3224060,11773420 L 3224060,11773420 L 3542670,10794140 L 3862980,11773420 L 3224060,11773420 z M 4660300,12542330 L 3921010,10414590 C 3907330,10372170 3865730,10338180 3826470,10338180 L 3451530,10338180 C 3431530,10338180 3408870,10355420 3401580,10378330 L 2660610,12578030 C 2652600,12600280 2663440,12618980 2684320,12618980 L 2910000,12618980 C 2930960,12618980 2952900,12600280 2960190,12578030 L 3143130,12018290 L 3943270,12018290 L 4116980,12541430 C 4128720,12584420 4171710,12618980 4209590,12618980 L 4614800,12619790 C 4653010,12619790 4672840,12585230 4660300,12542330 z M 1343700,12375250 L 1343700,12375250 L 1004130,12375250 L 1004130,10582140 L 1343700,10582140 C 1754180,10582140 1886190,10855980 1886190,11474490 C 1886190,12098340 1763240,12375250 1343700,12375250 z M 1474750,10338980 L 570090,10338980 C 530760,10338980 499990,10373310 499990,10415960 L 499990,12541430 C 499990,12584420 530760,12618980 570090,12618980 L 1465600,12618980 C 1995390,12618980 2409350,12292130 2409350,11474490 C 2409350,10668600 1999840,10338980 1474750,10338980 L 1474750,10338980 z M 7939730,10338180 L 7574660,10338180 C 7536220,10338180 7504400,10371850 7504400,10414590 L 7504400,11299650 L 6736140,11299650 L 6736140,10414590 C 6736140,10371850 6705140,10338180 6667260,10338180 L 6303080,10338180 C 6263990,10338180 6233070,10371850 6233070,10414590 L 6233070,12540630 C 6233070,12584420 6263990,12618980 6303080,12618980 L 6667260,12618980 C 6705140,12618980 6736140,12584420 6736140,12540630 L 6736140,11543700 L 7504400,11543700 L 7504400,12540630 C 7504400,12584420 7536220,12618980 7574660,12618980 L 7939730,12618980 C 7977940,12618980 8007720,12584420 8007720,12540630 L 8007720,10414590 C 8007720,10371850 7977940,10338180 7939730,10338180 z M 5501320,12618980 C 5539530,12618980 5570440,12584420 5570440,12540630 L 5570440,10414590 C 5570440,10371850 5539530,10338180 5501320,10338180 L 5120950,10338180 C 5081850,10338180 5051500,10371850 5051500,10414590 L 5051500,12540630 C 5051500,12584420 5081850,12618980 5120950,12618980 L 5501320,12618980 z M 499990,357080 L 499990,9181140 L 15499990,9181140 L 15499990,357080 L 499990,357080 L 499990,357080 z " style="fill:red" id="_112105696"/>

   <path d="M 2323110,2487410 C 2156910,2493070 1977680,2501150 1512270,2521750 C 1958220,2967450 4312230,5324120 5027960,6039850 C 5055550,6067700 5030180,6093450 4998580,6136110 C 4954590,6195750 4400100,6977220 4103370,7461260 C 7551540,6942250 10274250,6287500 11756190,5798050 C 12815370,5448420 13934140,5084110 14368840,4635100 C 14470440,4530570 14530330,4380270 14530330,4256220 C 14530330,3913720 13932800,3692840 13528180,3563390 C 12326820,3179170 11662020,3082270 10298980,2879260 C 9807310,2805950 6642650,2495740 3954650,2479150 C 3429350,2475780 3188000,2479150 2607510,2479150 C 3196960,3068600 5196830,5078070 5805800,5686850 L 7580470,5521540 C 7580470,5521540 5407220,3332840 5050400,2975710 C 8010910,2915820 11603020,3349880 12789310,3677770 C 13372720,3839260 14172820,4036680 14172820,4267920 C 14172820,4429860 13876980,4550090 13437770,4682410 C 10498120,5568150 7168840,5793160 5756660,5914470 C 5375620,5533180 3044690,3208990 2323110,2487410 z " style="fill:white;fill-opacity:1" id="_96891056"/>

   
  </g>

 </g>
  </g>
</svg>