<?xml version="1.0" encoding="UTF-8" ?>
<!DOCTYPE svg PUBLIC "-//W3C//DTD SVG 1.1//EN" "http://www.w3.org/Graphics/SVG/1.1/DTD/svg11.dtd">
<svg width="500pt" height="72pt" viewBox="0 0 500 72" version="1.1" xmlns="http://www.w3.org/2000/svg">
<path fill="#ffffff" d=" M 0.00 0.00 L 500.00 0.00 L 500.00 72.00 L 0.00 72.00 L 0.00 0.00 Z" />
<path fill="#b02f28" d=" M 413.70 17.96 C 418.24 12.14 422.94 6.33 428.16 1.13 C 437.84 0.42 447.62 0.87 457.34 1.06 C 445.82 14.77 434.21 28.41 422.36 41.84 C 420.54 39.67 417.57 39.98 415.04 39.93 C 408.28 40.01 401.51 40.15 394.75 39.76 C 395.95 38.24 397.15 36.72 398.31 35.17 C 405.09 34.97 411.88 35.22 418.66 34.69 C 418.60 32.98 418.55 31.27 418.50 29.57 C 413.63 29.35 408.77 29.24 403.91 29.14 C 405.04 27.67 406.18 26.21 407.29 24.72 C 411.79 24.63 416.29 24.59 420.79 24.62 C 420.80 22.54 420.82 20.45 420.83 18.37 C 418.45 18.22 416.07 18.06 413.70 17.96 Z" />
<path fill="#b02f28" d=" M 469.38 1.27 C 473.52 0.39 477.79 0.85 482.00 0.83 C 487.65 0.82 493.31 0.81 498.97 1.07 C 479.48 23.88 459.92 46.62 440.45 69.43 C 438.77 71.86 435.51 71.00 433.00 71.25 C 425.19 71.01 417.37 71.41 409.56 70.92 C 428.16 48.77 447.25 27.03 465.96 4.97 C 467.05 3.70 468.12 2.39 469.38 1.27 Z" />
<path fill="#5a5a5a" d=" M 98.42 20.51 C 108.92 17.06 120.12 17.29 131.04 17.36 C 141.11 17.51 151.69 18.27 160.62 23.40 C 164.28 25.48 167.98 29.26 166.97 33.85 C 165.50 38.74 160.59 41.39 156.17 43.18 C 142.85 48.20 128.30 47.17 114.36 46.71 C 123.06 44.41 132.14 46.48 140.95 44.95 C 148.86 43.72 158.30 42.35 162.88 34.90 C 159.15 34.58 155.41 34.48 151.67 34.44 C 151.48 33.87 151.11 32.74 150.93 32.18 C 155.25 32.17 159.58 32.18 163.91 32.12 C 163.04 24.86 155.41 22.54 149.42 20.92 C 141.28 17.92 132.50 18.55 124.00 18.45 C 114.80 18.46 105.16 18.34 96.68 22.47 C 92.33 24.16 88.34 27.11 86.69 31.63 C 91.35 31.86 96.03 31.87 100.70 31.67 C 100.69 32.40 100.67 33.85 100.66 34.57 C 96.24 34.50 91.81 34.44 87.39 34.53 C 89.38 36.89 91.47 39.31 94.32 40.64 C 100.62 43.92 107.86 44.12 114.60 45.95 C 113.01 46.16 111.43 46.32 109.84 46.44 C 102.35 45.35 94.34 43.66 88.56 38.43 C 85.79 36.05 84.56 31.79 86.52 28.53 C 89.14 24.32 93.88 22.06 98.42 20.51 Z" />
<path fill="#5a5a5a" d=" M 2.24 18.17 C 16.48 17.74 30.75 18.15 45.00 17.99 C 52.88 17.91 61.17 17.92 68.33 21.66 C 72.35 23.69 76.43 27.16 76.64 32.00 C 76.68 36.07 73.71 39.40 70.43 41.45 C 64.67 45.06 57.71 46.29 50.99 46.20 C 35.33 46.19 19.67 46.34 4.01 46.24 C 0.08 46.58 0.44 41.67 0.23 39.02 C 0.57 32.47 -0.54 25.74 1.12 19.32 C 1.40 19.04 1.96 18.46 2.24 18.17 Z" />
<path fill="#5a5a5a" d=" M 177.02 18.26 C 192.34 17.68 207.68 18.17 223.00 17.99 C 231.98 17.85 242.00 18.69 248.91 25.09 C 252.44 28.08 253.49 33.81 250.41 37.49 C 245.35 43.79 236.76 45.86 229.03 46.15 C 213.00 46.28 196.97 46.22 180.95 46.29 C 179.43 46.21 177.07 46.45 176.63 44.52 C 176.01 40.38 176.47 36.17 176.37 32.00 C 176.52 27.42 175.84 22.75 177.02 18.26 Z" />
<path fill="#5a5a5a" d=" M 276.62 19.71 C 285.21 17.32 294.19 18.08 303.00 17.99 C 315.10 17.97 327.20 18.02 339.31 17.96 C 339.73 20.26 339.72 22.60 339.14 24.87 C 324.42 24.99 309.69 24.82 294.97 24.96 C 289.65 25.02 283.82 25.85 279.97 29.91 C 280.01 31.43 280.05 32.95 280.11 34.47 C 274.28 34.22 268.44 34.15 262.61 34.37 C 264.19 37.02 265.93 39.86 268.96 41.02 C 279.34 45.65 290.96 44.33 302.00 44.49 C 313.47 44.37 324.95 44.86 336.41 44.37 C 336.53 39.59 336.34 34.80 336.35 30.02 C 336.79 29.88 337.65 29.62 338.09 29.48 C 339.01 30.48 339.45 31.66 339.41 33.02 C 339.59 37.31 339.56 41.62 339.03 45.89 C 326.05 46.80 313.00 46.05 300.00 46.29 C 289.19 46.09 277.64 47.38 267.68 42.30 C 262.72 39.94 259.11 33.38 262.25 28.27 C 265.45 23.42 271.24 21.20 276.62 19.71 Z" />
<path fill="#5a5a5a" d=" M 351.13 20.15 C 351.20 18.19 353.39 17.87 354.94 17.98 C 374.53 17.99 394.11 18.03 413.70 17.96 C 416.07 18.06 418.45 18.22 420.83 18.37 C 420.82 20.45 420.80 22.54 420.79 24.62 C 416.29 24.59 411.79 24.63 407.29 24.72 C 394.79 24.84 382.28 24.56 369.78 24.91 C 369.78 26.27 369.79 27.63 369.82 28.99 C 381.18 29.21 392.54 29.02 403.91 29.14 C 408.77 29.24 413.63 29.35 418.50 29.57 C 418.55 31.27 418.60 32.98 418.66 34.69 C 411.88 35.22 405.09 34.97 398.31 35.17 C 388.71 35.41 379.11 34.86 369.53 35.49 C 369.54 36.80 369.57 38.11 369.62 39.43 C 377.98 40.05 386.38 39.48 394.75 39.76 C 401.51 40.15 408.28 40.01 415.04 39.93 C 417.57 39.98 420.54 39.67 422.36 41.84 C 422.20 43.27 422.04 44.70 421.86 46.13 C 421.13 46.13 419.68 46.13 418.95 46.13 C 408.99 46.06 399.04 45.96 389.09 46.20 C 377.40 46.30 365.70 46.33 354.02 46.21 C 352.09 46.58 350.78 44.76 351.02 42.98 C 351.03 35.38 350.82 27.75 351.13 20.15 Z" />
<path fill="#a4a4a4" d=" M 2.18 21.13 C 2.15 18.56 5.13 18.70 6.95 18.64 C 20.97 18.64 35.00 18.70 49.02 18.64 C 54.93 18.90 61.36 19.37 66.28 23.02 C 62.41 23.27 58.58 23.96 54.75 24.52 C 49.89 23.49 44.97 22.69 39.99 22.75 C 32.16 22.78 24.33 22.44 16.52 23.05 C 16.48 23.70 16.40 25.00 16.36 25.65 C 11.96 24.28 7.33 24.26 2.78 24.59 C 2.86 27.02 2.94 29.46 3.08 31.89 C 3.12 32.57 3.20 33.91 3.24 34.59 C 7.58 34.53 11.93 34.58 16.27 34.77 C 16.30 36.49 16.33 38.21 16.34 39.93 C 16.33 40.86 16.33 41.80 16.32 42.74 C 26.23 42.77 36.15 42.82 46.06 42.72 C 50.73 42.50 57.30 41.21 58.45 35.84 C 58.71 33.52 58.90 31.20 59.15 28.89 C 59.48 29.95 59.79 31.03 60.06 32.11 C 60.21 32.73 60.51 33.97 60.66 34.58 C 64.87 34.52 69.08 34.51 73.27 34.83 C 69.12 42.22 59.89 44.24 52.07 44.64 C 37.02 44.73 21.97 44.65 6.92 44.75 C 5.36 44.61 2.49 45.09 2.35 42.84 C 2.12 35.61 2.26 28.36 2.18 21.13 Z" />
<path fill="#a4a4a4" d=" M 96.68 22.47 C 105.16 18.34 114.80 18.46 124.00 18.45 C 132.50 18.55 141.28 17.92 149.42 20.92 C 145.90 21.73 142.38 22.58 138.76 22.82 C 127.88 22.14 116.54 21.14 106.12 25.09 C 106.27 24.54 106.58 23.44 106.73 22.89 C 103.39 22.69 100.04 22.48 96.68 22.47 Z" />
<path fill="#a4a4a4" d=" M 178.01 23.18 C 177.42 20.98 178.32 18.40 181.02 18.76 C 195.00 18.45 209.01 18.81 223.00 18.62 C 228.49 18.80 234.54 18.78 239.18 22.17 C 234.66 22.30 230.16 22.61 225.65 22.87 C 214.44 23.02 203.23 22.32 192.03 22.96 C 191.58 28.61 192.23 34.26 192.12 39.91 C 191.97 40.80 191.78 41.69 191.60 42.58 C 200.07 42.98 208.54 42.65 217.01 42.79 C 220.88 42.74 224.91 42.94 228.58 41.51 C 231.11 40.53 232.87 38.38 234.65 36.44 C 229.79 38.92 224.66 41.27 219.07 41.00 C 210.42 40.79 201.65 41.78 193.11 40.05 C 193.57 39.96 194.50 39.78 194.97 39.68 C 204.54 38.02 214.31 39.67 223.95 38.83 C 227.62 38.52 230.63 36.19 233.42 34.00 C 233.91 32.03 234.19 30.01 234.48 28.00 C 234.89 29.35 235.23 30.74 235.48 32.13 C 235.59 32.96 235.68 33.80 235.76 34.63 C 240.06 34.50 244.36 34.49 248.66 34.85 C 244.90 42.35 235.59 44.03 228.01 44.61 C 211.45 44.66 194.89 44.87 178.33 44.56 C 177.62 40.36 177.68 36.09 178.18 31.87 L 178.99 31.90 C 179.15 32.57 179.46 33.91 179.62 34.58 C 183.36 34.60 187.10 34.61 190.85 34.63 C 190.89 33.94 190.99 32.55 191.04 31.85 C 191.21 29.00 191.19 26.15 191.13 23.30 C 186.76 23.34 182.38 23.31 178.01 23.18 Z" />
<path fill="#a4a4a4" d=" M 275.67 22.23 C 280.52 19.22 286.47 19.52 291.95 19.26 C 306.98 19.25 322.02 19.11 337.05 19.34 C 336.75 20.63 336.45 21.92 336.15 23.22 C 319.85 23.48 303.55 22.94 287.27 23.62 C 283.37 23.45 279.53 22.71 275.67 22.23 Z" />
<path fill="#a4a4a4" d=" M 353.19 22.03 C 352.72 19.75 355.19 19.11 356.95 19.28 C 377.54 19.34 398.14 19.28 418.73 19.34 C 418.73 20.50 418.74 21.67 418.76 22.83 C 401.50 23.39 384.23 22.74 366.97 23.22 C 366.84 25.54 366.74 27.85 366.64 30.17 C 366.21 27.90 365.81 25.62 365.43 23.34 C 361.63 23.38 357.84 23.38 354.04 23.33 C 353.90 26.46 353.84 29.59 353.90 32.72 L 353.91 33.93 C 358.09 34.50 362.31 34.47 366.52 34.32 C 366.81 36.37 367.13 38.42 367.44 40.48 C 366.84 40.50 365.62 40.54 365.02 40.56 C 367.97 43.43 372.29 42.48 376.00 42.62 C 390.63 42.25 405.30 43.10 419.92 42.11 C 418.44 45.16 414.72 44.22 412.00 44.42 C 392.41 44.07 372.78 44.87 353.21 44.00 C 353.09 36.68 353.27 29.35 353.19 22.03 Z" />
<path fill="#ffffff" d=" M 138.76 22.82 C 142.38 22.58 145.90 21.73 149.42 20.92 C 155.41 22.54 163.04 24.86 163.91 32.12 C 159.58 32.18 155.25 32.17 150.93 32.18 C 150.73 31.63 150.33 30.53 150.13 29.97 C 148.35 25.38 143.15 23.76 138.76 22.82 Z" />
<path fill="#5a5a5a" d=" M 106.12 25.09 C 116.54 21.14 127.88 22.14 138.76 22.82 C 143.15 23.76 148.35 25.38 150.13 29.97 C 150.23 31.25 150.29 32.54 150.31 33.82 C 147.85 36.27 145.28 38.88 141.80 39.77 C 133.78 42.12 125.25 41.79 117.01 41.19 C 111.19 40.77 105.50 38.47 101.70 33.91 C 101.45 33.35 100.95 32.23 100.70 31.67 C 101.81 28.98 103.53 26.53 106.12 25.09 Z" />
<path fill="#ffffff" d=" M 225.65 22.87 C 230.16 22.61 234.66 22.30 239.18 22.17 C 244.20 22.93 249.03 26.85 249.55 32.15 C 244.86 32.24 240.17 32.26 235.48 32.13 C 235.23 30.74 234.89 29.35 234.48 28.00 C 231.90 25.73 228.89 23.99 225.65 22.87 Z" />
<path fill="#ffffff" d=" M 262.29 32.26 C 264.21 26.62 269.93 22.90 275.67 22.23 C 279.53 22.71 283.37 23.45 287.27 23.62 C 282.87 25.03 278.39 27.57 277.38 32.47 C 272.35 32.40 267.31 32.57 262.29 32.26 Z" />
<path fill="#5a5a5a" d=" M 16.52 23.05 C 24.33 22.44 32.16 22.78 39.99 22.75 C 44.97 22.69 49.89 23.49 54.75 24.52 C 56.32 25.87 57.81 27.31 59.15 28.89 C 58.90 31.20 58.71 33.52 58.45 35.84 C 55.48 37.71 52.43 39.72 48.85 40.08 L 47.83 39.82 C 50.76 38.60 54.17 37.80 56.26 35.23 C 57.90 33.21 57.55 30.05 55.61 28.36 C 52.29 25.15 47.40 24.76 43.02 24.78 C 35.02 24.82 27.03 24.63 19.03 24.86 C 19.00 29.79 18.92 34.73 19.23 39.66 C 18.74 39.76 17.77 39.95 17.29 40.04 L 16.34 39.93 C 16.33 38.21 16.30 36.49 16.27 34.77 C 11.93 34.58 7.58 34.53 3.24 34.59 C 3.20 33.91 3.12 32.57 3.08 31.89 C 7.35 31.86 11.62 31.86 15.89 31.82 C 16.07 29.76 16.22 27.71 16.36 25.65 C 16.40 25.00 16.48 23.70 16.52 23.05 Z" />
<path fill="#ffffff" d=" M 54.75 24.52 C 58.58 23.96 62.41 23.27 66.28 23.02 C 70.27 24.23 73.54 27.65 74.07 31.86 C 69.42 32.39 64.73 32.26 60.06 32.11 C 59.79 31.03 59.48 29.95 59.15 28.89 C 57.81 27.31 56.32 25.87 54.75 24.52 Z" />
<path fill="#ffffff" d=" M 86.69 31.63 C 88.34 27.11 92.33 24.16 96.68 22.47 C 100.04 22.48 103.39 22.69 106.73 22.89 C 106.58 23.44 106.27 24.54 106.12 25.09 C 103.53 26.53 101.81 28.98 100.70 31.67 C 96.03 31.87 91.35 31.86 86.69 31.63 Z" />
<path fill="#ffffff" d=" M 178.01 23.18 C 182.38 23.31 186.76 23.34 191.13 23.30 C 191.19 26.15 191.21 29.00 191.04 31.85 C 187.02 31.84 183.00 31.92 178.99 31.90 L 178.18 31.87 C 178.24 28.97 178.21 26.07 178.01 23.18 Z" />
<path fill="#5a5a5a" d=" M 192.03 22.96 C 203.23 22.32 214.44 23.02 225.65 22.87 C 228.89 23.99 231.90 25.73 234.48 28.00 C 234.19 30.01 233.91 32.03 233.42 34.00 C 232.80 31.74 232.53 29.01 230.39 27.60 C 226.87 24.91 222.23 24.79 217.99 24.78 C 210.25 24.82 202.50 24.67 194.75 24.82 C 194.54 29.77 194.43 34.75 194.97 39.68 C 194.50 39.78 193.57 39.96 193.11 40.05 L 192.12 39.91 C 192.23 34.26 191.58 28.61 192.03 22.96 Z" />
<path fill="#ffffff" d=" M 354.04 23.33 C 357.84 23.38 361.63 23.38 365.43 23.34 C 365.81 25.62 366.21 27.90 366.64 30.17 C 382.75 30.16 398.87 30.02 414.98 30.26 C 417.40 29.78 416.63 32.80 414.86 32.54 C 394.54 32.69 374.21 32.31 353.90 32.72 C 353.84 29.59 353.90 26.46 354.04 23.33 Z" />
<path fill="#ffffff" d=" M 118.36 24.35 C 126.44 23.94 134.94 23.35 142.65 26.31 C 145.52 27.49 149.41 30.09 147.94 33.72 C 145.84 37.80 140.81 38.87 136.69 39.74 C 129.90 40.62 122.95 40.59 116.15 39.76 C 112.06 38.95 107.25 37.91 104.86 34.14 C 103.58 32.17 104.78 29.72 106.43 28.41 C 109.78 25.71 114.19 24.87 118.36 24.35 Z" />
<path fill="#ffffff" d=" M 2.78 24.59 C 7.33 24.26 11.96 24.28 16.36 25.65 C 16.22 27.71 16.07 29.76 15.89 31.82 C 11.62 31.86 7.35 31.86 3.08 31.89 C 2.94 29.46 2.86 27.02 2.78 24.59 Z" />
<path fill="#ffffff" d=" M 19.03 24.86 C 27.03 24.63 35.02 24.82 43.02 24.78 C 47.40 24.76 52.29 25.15 55.61 28.36 C 57.55 30.05 57.90 33.21 56.26 35.23 C 54.17 37.80 50.76 38.60 47.83 39.82 C 43.31 38.66 38.62 38.97 34.00 38.96 C 29.07 39.03 24.09 38.63 19.23 39.66 C 18.92 34.73 19.00 29.79 19.03 24.86 Z" />
<path fill="#ffffff" d=" M 194.75 24.82 C 202.50 24.67 210.25 24.82 217.99 24.78 C 222.23 24.79 226.87 24.91 230.39 27.60 C 232.53 29.01 232.80 31.74 233.42 34.00 C 230.63 36.19 227.62 38.52 223.95 38.83 C 214.31 39.67 204.54 38.02 194.97 39.68 C 194.43 34.75 194.54 29.77 194.75 24.82 Z" />
<path fill="#ffffff" d=" M 369.78 24.91 C 382.28 24.56 394.79 24.84 407.29 24.72 C 406.18 26.21 405.04 27.67 403.91 29.14 C 392.54 29.02 381.18 29.21 369.82 28.99 C 369.79 27.63 369.78 26.27 369.78 24.91 Z" />
<path fill="#a4a4a4" d=" M 298.29 29.20 C 303.50 28.61 308.76 29.11 314.00 28.98 C 322.03 29.13 330.09 28.54 338.09 29.48 C 337.65 29.62 336.79 29.88 336.35 30.02 C 336.34 34.80 336.53 39.59 336.41 44.37 C 324.95 44.86 313.47 44.37 302.00 44.49 C 290.96 44.33 279.34 45.65 268.96 41.02 C 265.93 39.86 264.19 37.02 262.61 34.37 C 268.44 34.15 274.28 34.22 280.11 34.47 C 283.76 38.09 288.83 39.94 293.93 39.97 C 302.91 40.00 311.90 39.98 320.88 39.96 C 320.93 38.65 320.99 37.34 321.06 36.02 L 321.13 34.77 C 313.25 34.69 305.16 33.50 297.45 35.60 L 296.68 35.80 C 297.21 33.64 295.89 30.41 298.29 29.20 Z" />
<path fill="#a4a4a4" d=" M 150.13 29.97 C 150.33 30.53 150.73 31.63 150.93 32.18 C 151.11 32.74 151.48 33.87 151.67 34.44 C 155.41 34.48 159.15 34.58 162.88 34.90 C 158.30 42.35 148.86 43.72 140.95 44.95 C 132.14 46.48 123.06 44.41 114.36 46.71 C 112.86 47.11 111.32 46.66 109.84 46.44 C 111.43 46.32 113.01 46.16 114.60 45.95 C 107.86 44.12 100.62 43.92 94.32 40.64 C 91.47 39.31 89.38 36.89 87.39 34.53 C 91.81 34.44 96.24 34.50 100.66 34.57 C 100.67 33.85 100.69 32.40 100.70 31.67 C 100.95 32.23 101.45 33.35 101.70 33.91 C 102.98 40.08 109.52 42.21 114.99 43.04 C 123.12 44.16 131.51 44.21 139.57 42.53 C 144.16 41.48 149.73 39.19 150.31 33.82 C 150.29 32.54 150.23 31.25 150.13 29.97 Z" />
<path fill="#ffffff" d=" M 298.23 31.24 C 308.49 31.04 318.76 31.26 329.02 31.09 C 331.21 31.20 333.86 30.63 335.44 32.59 C 323.05 33.08 310.64 32.72 298.25 32.75 C 298.24 32.37 298.24 31.61 298.23 31.24 Z" />
<path fill="#5a5a5a" d=" M 178.99 31.90 C 183.00 31.92 187.02 31.84 191.04 31.85 C 190.99 32.55 190.89 33.94 190.85 34.63 C 187.10 34.61 183.36 34.60 179.62 34.58 C 179.46 33.91 179.15 32.57 178.99 31.90 Z" />
<path fill="#ffffff" d=" M 101.70 33.91 C 105.50 38.47 111.19 40.77 117.01 41.19 C 125.25 41.79 133.78 42.12 141.80 39.77 C 145.28 38.88 147.85 36.27 150.31 33.82 C 149.73 39.19 144.16 41.48 139.57 42.53 C 131.51 44.21 123.12 44.16 114.99 43.04 C 109.52 42.21 102.98 40.08 101.70 33.91 Z" />
<path fill="#5a5a5a" d=" M 297.45 35.60 C 305.16 33.50 313.25 34.69 321.13 34.77 L 321.06 36.02 C 313.19 35.83 305.27 36.51 297.45 35.60 Z" />
<path fill="#ffffff" d=" M 369.53 35.49 C 379.11 34.86 388.71 35.41 398.31 35.17 C 397.15 36.72 395.95 38.24 394.75 39.76 C 386.38 39.48 377.98 40.05 369.62 39.43 C 369.57 38.11 369.54 36.80 369.53 35.49 Z" />
<path fill="#ffffff" d=" M 48.85 40.08 C 52.43 39.72 55.48 37.71 58.45 35.84 C 57.30 41.21 50.73 42.50 46.06 42.72 C 36.15 42.82 26.23 42.77 16.32 42.74 C 16.33 41.80 16.33 40.86 16.34 39.93 L 17.29 40.04 C 21.47 40.92 25.75 41.14 30.01 41.05 C 36.29 40.90 42.67 41.56 48.85 40.08 Z" />
<path fill="#ffffff" d=" M 219.07 41.00 C 224.66 41.27 229.79 38.92 234.65 36.44 C 232.87 38.38 231.11 40.53 228.58 41.51 C 224.91 42.94 220.88 42.74 217.01 42.79 C 208.54 42.65 200.07 42.98 191.60 42.58 C 191.78 41.69 191.97 40.80 192.12 39.91 L 193.11 40.05 C 201.65 41.78 210.42 40.79 219.07 41.00 Z" />
<path fill="#ffffff" d=" M 279.63 37.41 C 283.07 38.75 286.35 40.67 290.06 41.16 C 295.34 41.87 300.69 41.49 306.00 41.55 C 311.69 41.49 317.47 42.01 323.07 40.66 C 323.35 41.38 323.63 42.11 323.92 42.83 C 314.98 43.70 305.98 43.06 297.01 43.24 C 290.90 43.15 283.56 42.87 279.63 37.41 Z" />
<path fill="#a4a4a4" d=" M 19.23 39.66 C 24.09 38.63 29.07 39.03 34.00 38.96 C 38.62 38.97 43.31 38.66 47.83 39.82 L 48.85 40.08 C 42.67 41.56 36.29 40.90 30.01 41.05 C 25.75 41.14 21.47 40.92 17.29 40.04 C 17.77 39.95 18.74 39.76 19.23 39.66 Z" />
<path fill="#ffffff" d=" M 365.02 40.56 C 365.62 40.54 366.84 40.50 367.44 40.48 C 381.96 40.93 396.48 40.63 411.00 40.69 C 413.99 40.88 417.43 39.94 419.92 42.11 C 405.30 43.10 390.63 42.25 376.00 42.62 C 372.29 42.48 367.97 43.43 365.02 40.56 Z" />
<path fill="#b02f28" d=" M 389.09 46.20 C 399.04 45.96 408.99 46.06 418.95 46.13 C 411.70 54.21 404.97 62.76 397.61 70.73 C 395.12 71.33 392.54 71.25 390.00 71.25 C 382.65 71.01 375.29 71.35 367.94 70.94 C 374.91 62.62 382.07 54.47 389.09 46.20 Z" />
</svg>
