<?xml version="1.0" encoding="UTF-8" ?>
<!DOCTYPE svg PUBLIC "-//W3C//DTD SVG 1.1//EN" "http://www.w3.org/Graphics/SVG/1.1/DTD/svg11.dtd">
<svg width="400pt" height="400pt" viewBox="0 0 400 400" version="1.1" xmlns="http://www.w3.org/2000/svg">
<path fill="#ffffff" d=" M 0.00 0.00 L 400.00 0.00 L 400.00 400.00 L 0.00 400.00 L 0.00 0.00 Z" />
<path fill="#231f20" d=" M 175.97 60.71 C 191.30 60.27 206.64 59.93 221.98 60.47 C 241.71 60.31 261.39 61.55 281.08 62.85 C 294.48 63.41 307.74 65.59 321.06 67.03 C 334.71 68.45 348.13 71.41 361.44 74.70 C 367.84 98.84 370.25 124.17 367.70 149.05 C 364.92 177.91 354.37 205.97 337.50 229.55 C 324.26 248.60 308.18 265.56 290.80 280.87 C 263.84 305.27 232.31 324.09 199.49 339.46 C 198.34 340.19 197.14 339.28 196.06 338.91 C 159.51 323.08 126.37 299.85 97.96 272.04 C 72.18 247.02 49.14 217.70 37.97 183.12 C 27.34 147.48 30.41 109.14 39.66 73.55 C 63.86 68.25 88.60 66.30 113.20 63.75 C 134.12 62.55 155.01 60.77 175.97 60.71 Z" />
<path fill="#ffffff" d=" M 160.88 69.06 C 178.59 68.85 196.28 68.02 213.98 68.28 C 225.99 68.60 238.00 68.49 250.00 68.98 C 262.50 69.79 275.01 70.39 287.50 71.23 C 307.67 73.70 328.06 75.17 347.81 80.23 C 349.96 80.93 352.56 80.87 354.37 82.31 C 364.36 121.61 362.63 164.86 344.84 201.73 C 326.15 238.13 296.67 267.86 264.15 292.16 C 253.02 300.27 241.53 307.93 229.44 314.54 C 219.54 320.19 209.60 325.90 198.95 330.00 C 171.32 319.59 146.72 302.54 124.00 283.93 C 107.41 269.98 91.51 255.04 78.03 238.00 C 61.49 217.59 48.28 193.85 43.07 167.91 C 37.53 139.17 39.36 109.13 47.36 81.02 C 69.95 76.08 93.05 74.27 116.00 71.84 C 130.95 70.81 145.92 69.96 160.88 69.06 Z" />
<path fill="#231f20" d=" M 182.98 80.95 C 182.68 77.26 186.48 74.25 189.92 74.02 C 202.04 73.97 214.16 74.02 226.28 74.00 C 226.28 75.49 226.30 76.99 226.31 78.48 C 218.20 78.59 210.10 78.53 201.99 78.51 C 200.39 78.56 198.70 78.41 197.20 79.11 C 195.76 81.10 196.41 83.70 196.25 85.98 C 196.25 87.62 195.97 90.38 198.23 90.63 C 202.81 90.87 207.41 90.63 212.00 90.73 C 213.29 90.59 214.94 91.00 215.94 89.93 C 216.73 88.82 216.62 87.36 216.95 86.10 C 211.61 85.92 206.28 86.03 200.94 86.00 C 200.97 84.57 200.99 83.14 201.01 81.71 C 209.49 81.69 217.97 81.75 226.45 81.68 C 226.46 84.80 226.92 88.01 226.10 91.06 C 224.94 94.32 221.34 95.89 218.07 95.78 C 208.69 95.80 199.30 95.79 189.92 95.78 C 187.14 95.95 184.35 94.40 183.16 91.87 C 182.80 88.24 183.06 84.59 182.98 80.95 Z" />
<path fill="#231f20" d=" M 239.71 74.00 C 244.57 74.00 249.43 74.00 254.29 74.00 C 254.33 78.03 254.19 82.06 254.32 86.09 C 254.36 87.86 254.88 89.72 256.29 90.90 C 262.97 91.91 269.77 91.29 276.51 91.47 C 276.53 93.25 276.57 95.04 276.62 96.82 C 267.04 96.76 257.46 96.16 247.88 95.96 C 244.68 95.86 240.52 94.61 239.82 91.01 C 239.54 85.35 239.80 79.67 239.71 74.00 Z" />
<path fill="#231f20" d=" M 138.14 76.47 C 146.74 75.68 155.38 75.29 164.02 75.19 C 166.83 74.98 170.66 76.72 170.52 79.97 C 170.57 85.41 170.56 90.86 170.49 96.30 C 166.40 96.28 162.31 96.29 158.22 96.28 C 158.21 94.17 158.21 92.06 158.20 89.95 C 151.38 90.03 144.55 90.14 137.74 90.54 C 137.78 92.87 137.79 95.21 137.78 97.54 C 134.73 97.55 131.68 97.55 128.64 97.47 C 129.28 92.62 129.62 87.75 130.20 82.90 C 130.56 79.01 134.70 76.98 138.14 76.47 Z" />
<path fill="#231f20" d=" M 82.90 80.52 C 95.11 79.50 107.31 78.32 119.53 77.38 C 119.35 78.93 119.16 80.48 118.97 82.03 C 110.04 82.87 101.09 83.42 92.16 84.17 C 90.16 84.12 89.51 86.01 89.37 87.69 C 97.42 86.99 105.45 86.06 113.51 85.39 C 113.53 86.90 113.55 88.41 113.57 89.93 C 105.72 90.84 97.82 91.35 89.97 92.26 C 87.65 92.36 87.79 94.94 87.63 96.65 C 97.65 95.71 107.65 94.52 117.67 93.56 C 117.42 95.34 117.18 97.12 116.94 98.89 C 103.64 100.18 90.37 101.71 77.08 102.99 C 74.62 103.43 71.45 102.79 70.87 99.94 C 70.30 96.00 71.34 92.02 72.26 88.21 C 73.55 83.61 78.27 80.68 82.90 80.52 Z" />
<path fill="#231f20" d=" M 285.15 80.85 C 285.89 77.47 290.19 77.29 292.98 77.52 C 304.98 79.06 316.94 80.88 328.94 82.39 C 328.98 83.87 329.00 85.36 329.03 86.85 C 320.35 85.62 311.66 84.39 302.95 83.33 C 300.34 82.31 299.87 86.59 302.42 86.42 C 309.78 87.54 317.17 88.54 324.55 89.58 C 324.54 90.60 324.54 92.66 324.54 93.68 C 317.27 92.86 310.06 91.65 302.79 90.92 C 301.03 90.57 300.31 93.47 301.58 94.42 C 302.92 95.26 304.57 95.27 306.09 95.56 C 314.56 96.67 322.98 98.05 331.45 99.15 C 331.50 100.68 331.54 102.21 331.59 103.75 C 317.44 101.98 303.30 100.21 289.16 98.37 C 286.85 98.27 285.10 96.30 285.08 94.02 C 284.95 89.63 284.85 85.22 285.15 80.85 Z" />
<path fill="#ffffff" d=" M 138.66 82.15 C 140.30 81.20 141.88 79.79 143.92 80.03 C 147.97 79.99 152.02 79.67 156.07 79.62 C 159.11 79.84 157.66 83.71 158.00 85.71 C 151.41 85.81 144.82 86.06 138.23 86.26 C 138.36 84.89 138.50 83.52 138.66 82.15 Z" />
<path fill="#231f20" d=" M 173.04 102.82 C 192.69 102.42 212.34 102.12 231.99 101.69 C 244.33 102.11 256.68 102.63 269.01 103.18 C 280.37 104.19 291.74 105.03 303.08 106.18 C 317.74 108.19 332.53 109.56 346.95 113.06 C 349.35 128.64 349.69 144.64 346.76 160.17 C 344.07 175.43 338.36 190.08 330.49 203.40 C 313.06 231.71 290.12 256.44 264.02 276.97 C 244.02 293.12 222.30 307.22 199.22 318.57 C 189.32 312.84 179.36 307.21 169.46 301.49 C 166.78 300.07 165.89 296.86 165.97 294.03 C 166.08 288.46 166.95 282.92 168.29 277.51 C 171.59 261.73 176.30 245.89 185.25 232.31 C 191.73 222.51 201.23 214.03 212.92 211.34 C 236.26 205.66 260.26 203.60 284.11 201.32 C 285.90 201.14 287.67 200.77 289.42 200.36 C 280.19 200.24 271.09 198.53 261.91 197.73 C 253.88 196.71 245.75 196.90 237.74 195.84 C 236.80 194.38 239.19 193.71 240.03 192.98 C 248.98 187.64 258.84 184.17 268.50 180.37 C 278.38 176.94 288.44 173.76 298.85 172.41 C 303.81 171.74 309.63 173.02 312.52 177.46 C 315.89 182.43 315.11 188.69 314.76 194.35 C 318.85 191.30 321.02 186.54 323.13 182.05 C 326.56 174.01 329.41 165.60 330.35 156.87 C 331.07 149.91 327.52 142.04 320.58 139.67 C 311.80 137.14 302.64 136.39 293.61 135.20 C 283.81 134.26 273.99 133.49 264.15 133.27 C 256.28 132.56 249.99 127.25 242.89 124.39 C 231.12 121.62 218.91 122.74 206.94 122.79 C 193.64 123.12 180.34 123.37 167.04 123.69 C 144.31 123.81 121.65 125.90 98.95 127.04 C 86.91 128.18 74.89 129.60 62.86 130.89 C 59.36 131.07 55.56 131.99 52.21 130.70 C 50.27 127.47 51.81 123.55 51.72 120.03 C 52.07 117.44 51.76 113.55 54.84 112.57 C 59.74 111.00 64.95 110.80 70.01 109.95 C 92.84 106.53 115.91 105.39 138.92 103.84 C 150.27 102.83 161.67 103.30 173.04 102.82 Z" />
<path fill="#231f20" d=" M 78.88 141.45 C 115.39 136.59 152.15 133.43 188.99 132.84 C 195.60 133.26 202.61 132.15 208.78 135.18 C 214.39 138.09 219.62 141.70 225.09 144.87 C 228.60 146.94 233.20 146.95 236.63 144.71 C 240.44 142.38 242.51 138.11 243.61 133.92 C 248.03 137.43 253.19 140.38 258.95 140.75 C 274.34 141.99 289.77 142.76 305.12 144.42 C 310.43 145.00 315.86 145.31 320.91 147.17 C 324.39 148.50 324.89 152.82 324.93 156.04 C 324.66 163.95 322.33 171.77 318.70 178.77 C 317.47 175.52 315.99 172.05 312.92 170.13 C 307.05 166.31 299.57 166.57 292.98 168.04 C 277.61 171.36 262.64 176.30 247.92 181.78 C 226.81 189.56 205.79 199.57 189.82 215.81 C 184.27 221.32 179.54 227.58 174.95 233.89 C 164.32 250.81 158.55 270.10 152.55 289.00 C 148.81 288.11 145.04 286.34 142.88 283.02 C 140.65 279.65 140.67 275.32 141.65 271.54 C 143.61 263.97 146.33 256.59 147.75 248.88 C 144.20 255.04 141.59 261.71 137.75 267.69 C 136.03 270.33 132.72 272.90 129.49 271.21 C 127.06 269.95 123.63 269.06 123.03 265.98 C 122.96 262.88 124.07 259.94 125.17 257.10 C 127.90 250.30 131.01 243.66 133.77 236.87 C 128.59 242.76 124.66 249.61 119.87 255.79 C 117.33 259.28 112.10 258.37 109.32 255.68 C 106.13 253.17 104.99 248.44 107.02 244.85 C 111.69 236.64 118.20 229.63 123.06 221.55 C 115.57 227.13 108.94 233.81 101.57 239.55 C 99.76 240.97 97.14 241.23 95.27 239.76 C 91.73 236.97 87.77 232.17 90.56 227.53 C 96.50 219.24 105.06 213.40 112.18 206.24 C 104.41 210.15 97.48 215.47 90.17 220.15 C 87.42 221.89 83.26 222.85 80.67 220.33 C 78.01 217.69 75.20 214.75 74.27 211.00 C 73.71 207.52 76.83 205.10 79.24 203.20 C 86.83 197.64 95.09 193.10 103.00 188.05 C 93.76 190.57 84.90 194.36 76.14 198.21 C 73.09 199.72 69.10 199.85 66.48 197.40 C 62.96 194.05 60.56 189.05 61.42 184.12 C 61.77 181.87 64.05 180.82 65.82 179.80 C 76.28 174.54 87.52 171.06 98.26 166.44 C 87.04 167.48 75.93 169.52 64.94 171.96 C 61.67 172.89 57.68 172.08 55.82 169.02 C 53.11 164.53 52.98 159.08 52.26 154.02 C 51.75 150.85 52.82 147.19 55.97 145.82 C 63.12 142.53 71.22 142.61 78.88 141.45 Z" />
</svg>
