<?xml version="1.0" encoding="UTF-8" ?>
<!DOCTYPE svg PUBLIC "-//W3C//DTD SVG 1.1//EN" "http://www.w3.org/Graphics/SVG/1.1/DTD/svg11.dtd">
<svg width="175pt" height="126pt" viewBox="0 0 175 126" version="1.1" xmlns="http://www.w3.org/2000/svg">
<path fill="#ffffff" d=" M 0.00 0.00 L 175.00 0.00 L 175.00 126.00 L 0.00 126.00 L 0.00 0.00 Z" />
<path fill="#5a6485" d=" M 60.70 9.71 C 67.31 8.28 73.95 7.00 80.70 6.49 C 81.87 7.35 83.01 8.27 84.15 9.18 C 67.25 9.68 50.21 14.01 35.82 23.07 C 32.87 24.74 29.98 26.66 28.00 29.46 C 27.83 29.66 27.51 30.06 27.35 30.27 C 26.67 30.33 25.30 30.47 24.61 30.54 C 24.48 31.17 24.21 32.44 24.07 33.07 C 23.57 33.82 23.07 34.57 22.57 35.33 C 20.23 34.54 18.85 36.91 19.05 38.94 C 18.88 39.28 18.53 39.95 18.36 40.29 C 15.55 39.89 14.77 42.99 15.30 45.15 C 13.71 48.83 12.52 52.68 11.75 56.61 C 10.64 61.38 10.66 66.41 11.76 71.19 L 11.86 71.64 C 13.13 78.87 17.18 85.46 22.36 90.56 C 22.59 90.86 23.05 91.46 23.29 91.76 C 22.29 92.33 21.29 92.91 20.29 93.49 C 22.49 96.06 25.48 97.99 27.08 101.04 C 24.33 101.22 23.17 98.16 21.26 96.69 C 18.73 94.78 17.67 91.67 15.25 89.66 C 14.31 87.08 11.79 85.23 11.40 82.46 C 11.09 82.21 10.46 81.71 10.15 81.46 C 10.42 80.98 10.94 80.03 11.21 79.56 C 10.67 79.64 9.61 79.80 9.07 79.88 C 9.69 78.61 9.53 77.44 8.61 76.38 C 8.91 74.86 8.45 73.91 7.22 73.54 C 7.66 71.45 7.48 69.18 6.23 67.40 C 6.31 64.75 6.33 62.11 6.17 59.47 C 8.05 55.85 8.12 51.41 9.20 47.43 C 12.60 42.43 15.16 36.80 19.35 32.36 C 22.58 29.27 25.40 25.68 29.27 23.33 C 30.82 21.85 32.94 21.18 34.30 19.49 C 42.80 15.53 51.38 11.35 60.70 9.71 Z" />
<path fill="#686876" d=" M 80.70 6.49 C 90.35 6.27 99.98 6.48 109.44 8.47 C 119.12 10.84 128.76 13.75 137.53 18.58 C 138.87 19.26 140.17 20.12 141.70 20.30 C 141.18 22.42 143.95 22.18 145.11 22.94 C 146.83 24.57 148.41 26.34 150.12 27.99 C 151.20 29.42 152.29 31.01 152.12 32.91 C 144.07 24.37 133.40 18.84 122.48 14.87 C 110.14 10.86 97.15 8.69 84.15 9.18 C 83.01 8.27 81.87 7.35 80.70 6.49 Z" />
<path fill="#ffffff" d=" M 35.82 23.07 C 50.21 14.01 67.25 9.68 84.15 9.18 C 97.15 8.69 110.14 10.86 122.48 14.87 C 133.40 18.84 144.07 24.37 152.12 32.91 C 156.38 37.71 161.39 42.96 162.26 49.56 C 156.29 34.28 142.15 23.73 127.48 17.41 C 108.49 9.80 87.21 7.65 67.12 11.68 C 52.90 14.17 39.00 20.00 28.00 29.46 C 29.98 26.66 32.87 24.74 35.82 23.07 Z" />
<path fill="#0056cb" d=" M 67.12 11.68 C 87.21 7.65 108.49 9.80 127.48 17.41 C 142.15 23.73 156.29 34.28 162.26 49.56 C 162.62 51.07 163.18 52.51 163.78 53.94 C 164.77 59.27 164.67 64.74 164.08 70.11 C 162.38 76.30 159.89 82.35 155.84 87.39 C 145.66 100.90 129.83 109.07 113.69 113.11 C 103.41 115.32 92.86 116.86 82.33 115.90 C 77.23 114.73 72.01 114.27 66.87 113.36 C 55.55 110.88 44.48 106.75 34.86 100.21 C 30.94 97.63 27.49 94.42 23.47 91.99 L 23.29 91.76 C 23.05 91.46 22.59 90.86 22.36 90.56 C 20.80 85.89 16.80 82.61 15.02 78.05 C 14.15 75.83 13.32 73.56 11.86 71.64 L 11.76 71.19 C 11.83 66.33 12.13 61.47 11.75 56.61 C 12.52 52.68 13.71 48.83 15.30 45.15 C 16.56 43.69 17.59 42.06 18.36 40.29 C 18.53 39.95 18.88 39.28 19.05 38.94 C 20.48 38.01 21.76 36.85 22.57 35.33 C 23.07 34.57 23.57 33.82 24.07 33.07 C 25.40 32.45 26.61 31.57 27.35 30.27 C 27.51 30.06 27.83 29.66 28.00 29.46 C 39.00 20.00 52.90 14.17 67.12 11.68 Z" />
<path fill="#847984" d=" M 150.12 27.99 C 152.28 28.47 153.64 30.37 155.11 31.86 C 158.59 36.15 161.39 40.94 164.17 45.69 C 165.46 49.39 167.75 52.92 167.75 56.94 C 167.29 61.02 169.85 64.64 168.93 68.78 L 167.82 69.44 C 167.84 70.49 167.87 71.54 167.90 72.59 C 166.23 73.32 167.10 75.21 166.87 76.56 C 166.04 77.37 165.70 78.37 165.83 79.58 C 162.84 82.97 162.07 87.84 158.54 90.75 C 157.64 89.63 156.74 88.51 155.84 87.39 C 159.89 82.35 162.38 76.30 164.08 70.11 C 164.95 67.16 164.63 64.06 164.68 61.03 C 164.61 58.65 164.96 56.12 163.78 53.94 C 163.18 52.51 162.62 51.07 162.26 49.56 C 161.39 42.96 156.38 37.71 152.12 32.91 C 152.29 31.01 151.20 29.42 150.12 27.99 Z" />
<path fill="#ffffff" d=" M 24.61 30.54 C 25.30 30.47 26.67 30.33 27.35 30.27 C 26.61 31.57 25.40 32.45 24.07 33.07 C 24.21 32.44 24.48 31.17 24.61 30.54 Z" />
<path fill="#7988a6" d=" M 95.54 32.01 C 102.62 32.20 109.71 33.11 116.68 34.40 C 114.67 36.35 111.65 35.71 109.13 36.13 C 110.14 37.08 111.16 38.02 112.11 39.05 C 112.20 39.67 112.38 40.92 112.47 41.54 C 110.88 41.18 109.17 40.91 107.90 39.80 C 107.56 38.79 107.12 37.84 106.57 36.94 C 106.34 37.41 105.88 38.35 105.65 38.82 C 105.26 38.77 104.49 38.69 104.10 38.64 C 104.17 38.23 104.31 37.42 104.38 37.01 C 104.43 36.78 104.52 36.33 104.56 36.11 L 104.64 35.67 C 101.13 35.93 97.81 34.78 95.54 32.01 Z" />
<path fill="#756e78" d=" M 116.68 34.40 C 121.02 34.47 125.29 35.36 129.60 35.80 C 129.65 36.58 129.75 38.14 129.80 38.92 C 128.57 39.81 127.38 40.74 126.17 41.65 C 126.06 42.51 125.85 44.24 125.75 45.11 C 121.79 45.54 117.74 43.94 115.54 40.56 C 114.15 39.73 113.88 42.13 113.22 42.81 C 113.03 42.49 112.66 41.86 112.47 41.54 C 112.38 40.92 112.20 39.67 112.11 39.05 C 111.16 38.02 110.14 37.08 109.13 36.13 C 111.65 35.71 114.67 36.35 116.68 34.40 Z" />
<path fill="#ffffff" d=" M 19.05 38.94 C 18.85 36.91 20.23 34.54 22.57 35.33 C 21.76 36.85 20.48 38.01 19.05 38.94 Z" />
<path fill="#7fa7da" d=" M 101.19 36.29 C 102.27 35.59 103.39 35.53 104.56 36.11 C 104.52 36.33 104.43 36.78 104.38 37.01 C 102.92 37.59 101.86 37.35 101.19 36.29 Z" />
<path fill="#ffffff" d=" M 129.60 35.80 C 131.13 35.72 131.74 36.56 131.42 38.31 C 131.19 38.60 130.74 39.17 130.52 39.46 L 129.80 38.92 C 129.75 38.14 129.65 36.58 129.60 35.80 Z" />
<path fill="#203f74" d=" M 105.65 38.82 C 105.88 38.35 106.34 37.41 106.57 36.94 C 107.12 37.84 107.56 38.79 107.90 39.80 C 107.33 39.55 106.21 39.06 105.65 38.82 Z" />
<path fill="#275ba8" d=" M 131.42 38.31 C 131.81 37.81 132.58 36.80 132.97 36.30 C 136.77 39.18 136.19 44.93 135.02 49.04 C 132.87 49.19 130.72 49.42 128.60 49.78 C 129.87 47.51 132.81 48.07 134.97 47.80 C 135.18 44.53 135.99 39.79 132.32 38.10 C 132.17 38.77 131.86 40.10 131.70 40.77 C 128.55 40.32 128.25 43.77 127.26 45.86 C 125.51 46.82 123.60 47.43 121.77 48.22 C 122.22 47.67 122.65 47.11 123.09 46.54 C 121.86 45.84 120.65 45.14 119.43 44.45 C 118.97 45.74 118.51 47.03 118.04 48.32 C 117.70 48.66 117.01 49.34 116.66 49.68 C 116.92 48.84 117.17 48.00 117.41 47.16 C 117.30 45.63 116.69 44.22 116.16 42.80 C 115.18 42.80 114.20 42.80 113.22 42.81 C 113.88 42.13 114.15 39.73 115.54 40.56 C 117.74 43.94 121.79 45.54 125.75 45.11 C 125.85 44.24 126.06 42.51 126.17 41.65 C 127.38 40.74 128.57 39.81 129.80 38.92 L 130.52 39.46 C 130.74 39.17 131.19 38.60 131.42 38.31 Z" />
<path fill="#767576" d=" M 71.00 38.89 C 79.33 38.54 87.63 39.91 95.95 40.30 C 103.42 40.76 111.73 41.79 117.41 47.16 C 117.17 48.00 116.92 48.84 116.66 49.68 C 117.01 49.34 117.70 48.66 118.04 48.32 C 118.08 49.31 118.15 51.29 118.19 52.29 C 117.70 52.21 116.73 52.07 116.25 51.99 C 115.66 52.13 114.47 52.40 113.88 52.54 C 113.63 52.44 113.13 52.23 112.88 52.12 C 109.40 48.16 103.53 50.52 98.98 49.13 C 96.54 49.03 95.95 46.34 94.91 44.63 C 97.02 45.07 99.13 45.55 101.24 45.99 C 93.39 37.44 81.04 41.32 71.00 38.89 Z" />
<path fill="#aea58e" d=" M 70.05 38.97 L 71.00 38.89 C 81.04 41.32 93.39 37.44 101.24 45.99 C 99.13 45.55 97.02 45.07 94.91 44.63 C 95.95 46.34 96.54 49.03 98.98 49.13 C 103.53 50.52 109.40 48.16 112.88 52.12 C 107.53 49.50 101.59 50.95 95.91 50.63 C 93.91 50.08 91.88 49.71 89.81 49.65 C 91.06 49.24 92.30 48.81 93.53 48.37 C 92.53 48.17 90.51 47.78 89.50 47.58 C 91.10 47.13 92.75 46.86 94.37 46.42 C 91.07 45.90 87.72 45.84 84.39 45.71 C 86.03 45.26 87.70 44.92 89.37 44.61 C 86.28 43.77 83.18 42.84 79.95 42.86 C 80.76 43.92 81.57 44.97 82.40 46.01 C 80.65 45.89 79.36 44.86 78.55 43.38 C 77.29 43.24 76.04 43.11 74.79 42.97 L 75.40 42.05 C 80.46 42.04 85.52 42.04 90.56 41.61 C 85.55 40.82 80.45 41.09 75.40 40.77 C 73.47 40.70 71.11 41.00 70.05 38.97 Z" />
<path fill="#756c77" d=" M 131.70 40.77 C 131.86 40.10 132.17 38.77 132.32 38.10 C 135.99 39.79 135.18 44.53 134.97 47.80 C 132.81 48.07 129.87 47.51 128.60 49.78 L 127.94 51.00 L 127.00 51.23 C 125.26 51.33 123.40 53.27 124.59 54.96 L 125.06 55.92 C 124.78 56.43 124.23 57.45 123.96 57.95 C 123.29 58.84 122.60 59.72 121.91 60.59 C 120.28 60.06 118.66 59.50 117.04 58.94 C 116.39 57.38 115.75 55.82 115.11 54.26 C 116.47 54.19 117.45 53.37 118.19 52.29 C 119.31 50.87 120.50 49.51 121.77 48.22 C 123.60 47.43 125.51 46.82 127.26 45.86 C 128.25 43.77 128.55 40.32 131.70 40.77 Z" />
<path fill="#7988a6" d=" M 15.30 45.15 C 14.77 42.99 15.55 39.89 18.36 40.29 C 17.59 42.06 16.56 43.69 15.30 45.15 Z" />
<path fill="#26407e" d=" M 75.40 40.77 C 80.45 41.09 85.55 40.82 90.56 41.61 C 85.52 42.04 80.46 42.04 75.40 42.05 L 75.40 40.77 Z" />
<path fill="#81a0c7" d=" M 39.92 44.82 C 38.80 46.32 35.18 43.66 37.58 43.10 C 38.12 43.42 39.20 44.06 39.74 44.39 L 39.92 44.82 Z" />
<path fill="#79857b" d=" M 37.58 43.10 C 42.77 43.32 48.00 43.45 53.10 44.52 L 53.17 43.62 C 55.27 45.77 59.58 45.57 60.09 49.24 C 57.30 46.41 53.43 45.75 49.64 45.39 C 49.60 46.47 49.61 47.55 49.67 48.63 C 50.17 48.36 51.16 47.81 51.66 47.54 C 51.66 48.13 51.65 49.32 51.64 49.91 C 52.42 51.01 53.21 52.09 54.01 53.17 C 51.34 54.22 48.69 55.38 46.70 57.53 C 45.20 57.50 43.69 57.48 42.19 57.49 C 44.65 56.06 46.77 54.14 48.74 52.10 C 48.38 51.49 47.65 50.27 47.28 49.66 C 45.62 49.79 44.51 48.66 43.48 47.53 C 44.86 47.13 46.23 46.68 47.59 46.24 C 47.99 45.64 48.38 45.05 48.78 44.46 C 45.77 44.56 42.75 44.66 39.74 44.39 C 39.20 44.06 38.12 43.42 37.58 43.10 Z" />
<path fill="#3b4e73" d=" M 79.95 42.86 C 83.18 42.84 86.28 43.77 89.37 44.61 C 87.70 44.92 86.03 45.26 84.39 45.71 C 87.72 45.84 91.07 45.90 94.37 46.42 C 92.75 46.86 91.10 47.13 89.50 47.58 C 90.51 47.78 92.53 48.17 93.53 48.37 C 92.30 48.81 91.06 49.24 89.81 49.65 C 91.88 49.71 93.91 50.08 95.91 50.63 L 94.67 51.54 C 92.64 51.78 90.59 51.70 88.59 51.25 L 88.65 49.90 C 88.67 49.34 88.71 48.22 88.73 47.66 C 87.17 47.46 85.61 47.25 84.08 46.95 C 83.66 46.72 82.82 46.24 82.40 46.01 C 81.57 44.97 80.76 43.92 79.95 42.86 Z" />
<path fill="#d1c591" d=" M 39.74 44.39 C 42.75 44.66 45.77 44.56 48.78 44.46 C 48.38 45.05 47.99 45.64 47.59 46.24 C 46.23 46.68 44.86 47.13 43.48 47.53 C 42.22 47.85 41.41 46.52 40.80 45.67 C 42.16 46.30 43.56 46.41 45.00 45.99 C 44.15 44.54 42.23 44.97 40.86 45.11 L 39.92 44.82 L 39.74 44.39 Z" />
<path fill="#0b50ba" d=" M 119.43 44.45 C 120.65 45.14 121.86 45.84 123.09 46.54 C 122.65 47.11 122.22 47.67 121.77 48.22 C 120.50 49.51 119.31 50.87 118.19 52.29 C 118.15 51.29 118.08 49.31 118.04 48.32 C 118.51 47.03 118.97 45.74 119.43 44.45 Z" />
<path fill="#766c54" d=" M 40.86 45.11 C 42.23 44.97 44.15 44.54 45.00 45.99 C 43.56 46.41 42.16 46.30 40.80 45.67 L 40.86 45.11 Z" />
<path fill="#d1c591" d=" M 49.64 45.39 C 53.43 45.75 57.30 46.41 60.09 49.24 C 60.74 49.71 61.40 50.17 62.02 50.69 C 62.31 51.43 62.91 52.91 63.21 53.65 C 68.61 54.01 74.05 54.28 79.37 55.43 C 74.20 55.37 69.13 54.22 63.96 54.36 C 60.70 53.81 57.05 54.09 54.01 53.17 C 53.21 52.09 52.42 51.01 51.64 49.91 C 51.65 49.32 51.66 48.13 51.66 47.54 C 51.16 47.81 50.17 48.36 49.67 48.63 C 49.61 47.55 49.60 46.47 49.64 45.39 Z" />
<path fill="#062987" d=" M 82.40 46.01 C 82.82 46.24 83.66 46.72 84.08 46.95 C 84.54 47.20 85.47 47.70 85.94 47.95 C 85.57 50.71 80.37 48.02 82.40 46.01 Z" />
<path fill="#ffffff" d=" M 84.08 46.95 C 85.61 47.25 87.17 47.46 88.73 47.66 C 88.71 48.22 88.67 49.34 88.65 49.90 C 88.54 49.68 88.33 49.25 88.23 49.03 C 87.65 48.76 86.51 48.22 85.94 47.95 C 85.47 47.70 84.54 47.20 84.08 46.95 Z" />
<path fill="#797572" d=" M 55.00 48.83 C 57.11 49.42 59.12 50.39 61.34 50.52 C 61.71 51.30 62.44 52.88 62.81 53.66 C 59.90 53.20 56.88 53.21 54.09 52.15 C 54.40 51.04 54.70 49.93 55.00 48.83 Z" />
<path fill="#66656a" d=" M 62.02 50.69 C 70.86 50.55 79.78 50.27 88.59 51.25 C 90.59 51.70 92.64 51.78 94.67 51.54 C 98.87 51.48 103.24 50.93 107.29 52.38 C 107.55 54.34 109.69 54.60 111.10 53.63 C 112.43 53.85 113.77 54.05 115.11 54.26 C 115.75 55.82 116.39 57.38 117.04 58.94 C 115.47 58.40 113.86 57.93 112.20 57.84 C 104.24 57.28 96.30 56.09 88.30 56.06 C 87.96 56.06 87.29 56.05 86.95 56.04 C 85.92 54.81 84.22 54.63 82.89 55.48 C 81.74 55.81 80.57 55.79 79.37 55.43 C 74.05 54.28 68.61 54.01 63.21 53.65 C 62.91 52.91 62.31 51.43 62.02 50.69 Z" />
<path fill="#275ba8" d=" M 95.91 50.63 C 101.59 50.95 107.53 49.50 112.88 52.12 C 113.13 52.23 113.63 52.44 113.88 52.54 C 114.47 52.40 115.66 52.13 116.25 51.99 C 116.73 52.07 117.70 52.21 118.19 52.29 C 117.45 53.37 116.47 54.19 115.11 54.26 C 113.77 54.05 112.43 53.85 111.10 53.63 C 109.99 52.82 108.66 52.42 107.29 52.38 C 103.24 50.93 98.87 51.48 94.67 51.54 L 95.91 50.63 Z" />
<path fill="#868da0" d=" M 124.59 54.96 C 123.40 53.27 125.26 51.33 127.00 51.23 C 127.41 52.69 125.83 54.33 124.59 54.96 Z" />
<path fill="#ffffff" d=" M 113.88 52.54 C 114.47 52.40 115.66 52.13 116.25 51.99 C 115.66 52.13 114.47 52.40 113.88 52.54 Z" />
<path fill="#8c8184" d=" M 107.29 52.38 C 108.66 52.42 109.99 52.82 111.10 53.63 C 109.69 54.60 107.55 54.34 107.29 52.38 Z" />
<path fill="#ffffff" d=" M 163.78 53.94 C 164.96 56.12 164.61 58.65 164.68 61.03 C 164.63 64.06 164.95 67.16 164.08 70.11 C 164.67 64.74 164.77 59.27 163.78 53.94 Z" />
<path fill="#8793a7" d=" M 82.89 55.48 C 84.22 54.63 85.92 54.81 86.95 56.04 C 86.39 56.15 85.29 56.37 84.73 56.48 C 84.27 56.23 83.35 55.73 82.89 55.48 Z" />
<path fill="#ffffff" d=" M 88.30 56.06 C 96.30 56.09 104.24 57.28 112.20 57.84 C 113.86 57.93 115.47 58.40 117.04 58.94 C 118.66 59.50 120.28 60.06 121.91 60.59 C 122.60 59.72 123.29 58.84 123.96 57.95 C 123.38 59.43 122.07 61.53 120.16 60.63 C 116.83 59.08 113.32 58.05 109.60 58.12 C 102.51 57.32 95.38 57.03 88.30 56.06 Z" />
<path fill="#073ca8" d=" M 84.73 56.48 C 85.29 56.37 86.39 56.15 86.95 56.04 C 87.29 56.05 87.96 56.06 88.30 56.06 C 95.38 57.03 102.51 57.32 109.60 58.12 C 109.09 58.46 108.08 59.12 107.57 59.45 C 99.93 58.86 92.10 58.74 84.73 56.48 Z" />
<path fill="#0e4596" d=" M 11.76 71.19 C 10.66 66.41 10.64 61.38 11.75 56.61 C 12.13 61.47 11.83 66.33 11.76 71.19 Z" />
<path fill="#d1c591" d=" M 28.47 72.32 C 28.52 70.07 28.26 67.08 30.76 66.00 C 28.60 68.43 28.35 73.10 32.50 73.48 C 34.29 73.49 36.07 73.31 37.85 73.14 C 38.80 72.54 40.12 71.14 41.30 72.06 L 41.85 72.31 C 44.23 72.48 46.61 72.94 48.57 74.39 C 46.42 73.90 44.31 73.28 42.12 73.04 C 40.50 74.88 40.84 77.46 40.39 79.70 C 39.77 77.62 41.07 74.30 38.78 73.12 C 38.04 75.59 37.25 78.06 36.25 80.45 L 36.44 79.33 C 36.70 77.49 37.59 75.83 38.24 74.11 C 34.88 74.37 31.16 74.85 28.47 72.32 Z" />
<path fill="#585967" d=" M 30.76 66.00 C 31.26 66.16 32.26 66.49 32.76 66.66 C 30.83 68.87 31.64 71.09 32.50 73.48 C 28.35 73.10 28.60 68.43 30.76 66.00 Z" />
<path fill="#585967" d=" M 41.30 72.06 C 43.26 69.48 46.92 70.65 49.70 70.37 C 49.51 71.78 49.21 73.16 48.79 74.52 L 48.57 74.39 C 46.61 72.94 44.23 72.48 41.85 72.31 L 41.30 72.06 Z" />
<path fill="#585967" d=" M 63.88 70.39 C 64.52 70.41 65.80 70.46 66.44 70.48 C 66.28 71.94 66.91 74.08 64.71 74.13 C 64.34 73.26 64.03 72.37 63.77 71.45 L 63.88 70.39 Z" />
<path fill="#66656a" d=" M 89.98 70.67 C 91.85 70.47 93.76 70.28 95.63 70.65 C 94.84 72.58 95.64 76.13 93.52 76.96 L 93.00 75.72 C 93.06 77.34 93.15 78.95 93.23 80.57 C 92.84 81.35 92.46 82.13 92.10 82.92 C 92.11 83.29 92.15 84.03 92.17 84.39 C 92.52 85.90 91.76 87.29 90.96 88.50 C 90.18 88.44 88.63 88.32 87.85 88.26 L 88.50 88.09 C 89.37 87.83 90.26 87.59 91.14 87.36 C 90.57 87.33 89.44 87.27 88.88 87.24 C 90.27 82.15 91.40 77.00 92.46 71.84 C 91.98 71.61 91.00 71.15 90.52 70.93 L 89.98 70.67 Z" />
<path fill="#ffffff" d=" M 63.27 71.14 L 63.77 71.45 C 64.03 72.37 64.34 73.26 64.71 74.13 C 63.48 77.08 60.29 71.68 63.27 71.14 Z" />
<path fill="#ffffff" d=" M 90.52 70.93 C 91.00 71.15 91.98 71.61 92.46 71.84 C 91.40 77.00 90.27 82.15 88.88 87.24 C 89.44 87.27 90.57 87.33 91.14 87.36 C 90.26 87.59 89.37 87.83 88.50 88.09 C 89.20 82.71 90.81 77.49 92.14 72.25 C 91.62 72.17 90.57 72.03 90.05 71.96 L 90.52 70.93 Z" />
<path fill="#134494" d=" M 11.86 71.64 C 13.32 73.56 14.15 75.83 15.02 78.05 C 16.80 82.61 20.80 85.89 22.36 90.56 C 17.18 85.46 13.13 78.87 11.86 71.64 Z" />
<path fill="#d1c591" d=" M 81.08 73.06 C 81.67 72.75 82.28 72.48 82.92 72.26 C 83.28 73.08 83.63 73.91 83.97 74.75 C 83.12 75.72 82.78 76.81 82.95 78.03 C 84.74 79.08 86.31 77.36 87.91 76.77 C 87.06 77.86 85.80 78.51 84.79 79.45 C 84.31 79.34 83.34 79.11 82.85 79.00 C 81.77 81.80 81.02 84.73 81.01 87.75 C 81.80 87.84 83.39 88.02 84.19 88.11 C 84.22 87.74 84.27 87.00 84.30 86.63 C 84.78 86.44 85.75 86.06 86.23 85.87 C 85.58 88.38 82.18 90.05 80.36 87.77 C 79.94 84.72 81.33 81.82 82.11 78.95 C 81.52 78.12 80.74 77.50 79.77 77.09 C 81.29 77.05 84.27 76.06 83.11 74.11 C 82.60 73.85 81.58 73.32 81.08 73.06 Z" />
<path fill="#757486" d=" M 82.92 72.26 C 84.09 72.29 85.26 72.32 86.43 72.36 C 86.34 73.11 86.17 74.60 86.08 75.34 C 86.54 75.70 87.46 76.41 87.91 76.77 C 86.31 77.36 84.74 79.08 82.95 78.03 C 82.78 76.81 83.12 75.72 83.97 74.75 C 83.63 73.91 83.28 73.08 82.92 72.26 Z" />
<path fill="#5a646a" d=" M 38.78 73.12 C 41.07 74.30 39.77 77.62 40.39 79.70 C 40.96 79.86 42.11 80.20 42.69 80.36 C 42.68 81.10 42.66 81.83 42.65 82.56 C 39.66 80.00 38.19 84.93 36.87 86.82 C 36.27 85.20 36.37 83.48 36.65 81.81 C 35.84 81.49 35.02 81.19 34.19 80.91 C 34.94 80.37 35.69 79.85 36.44 79.33 L 36.25 80.45 C 37.25 78.06 38.04 75.59 38.78 73.12 Z" />
<path fill="#7988a6" d=" M 47.02 78.65 C 48.68 74.41 53.78 77.01 57.16 76.42 C 56.32 79.99 52.43 78.83 49.99 77.84 C 49.43 78.92 48.86 80.00 48.29 81.08 C 47.88 80.26 47.46 79.45 47.02 78.65 Z" />
<path fill="#606878" d=" M 59.91 76.61 C 60.71 76.35 62.30 75.85 63.10 75.59 C 63.70 75.99 64.89 76.78 65.49 77.18 C 64.73 79.38 64.06 81.62 63.42 83.86 C 63.65 84.74 63.90 85.60 64.18 86.46 C 63.98 86.70 63.57 87.19 63.36 87.44 C 61.99 89.23 59.35 86.77 60.31 85.05 C 60.85 82.56 61.40 80.08 61.73 77.56 C 61.46 77.43 60.93 77.17 60.67 77.05 L 59.91 76.61 Z" />
<path fill="#0056d1" d=" M 65.49 77.18 C 65.92 76.47 66.69 76.25 67.80 76.51 C 67.62 77.12 67.46 77.75 67.34 78.38 C 67.69 80.49 68.28 82.56 68.73 84.65 L 68.53 85.82 C 66.76 85.34 65.07 84.64 63.42 83.86 C 64.06 81.62 64.73 79.38 65.49 77.18 Z" />
<path fill="#ffffff" d=" M 67.80 76.51 C 68.40 76.48 69.58 76.42 70.18 76.39 C 71.02 80.21 69.27 83.91 68.59 87.61 C 69.28 87.67 70.67 87.80 71.36 87.86 L 70.22 88.22 C 69.70 88.19 68.66 88.13 68.14 88.10 C 68.23 87.53 68.43 86.39 68.53 85.82 L 68.73 84.65 C 69.35 82.21 69.91 79.75 70.24 77.26 C 69.52 77.54 68.07 78.10 67.34 78.38 C 67.46 77.75 67.62 77.12 67.80 76.51 Z" />
<path fill="#585967" d=" M 70.18 76.39 C 71.76 76.08 73.24 76.71 74.64 77.40 C 73.03 79.28 72.52 81.71 72.23 84.10 C 72.02 85.37 71.73 86.62 71.36 87.86 C 70.67 87.80 69.28 87.67 68.59 87.61 C 69.27 83.91 71.02 80.21 70.18 76.39 Z" />
<path fill="#d1c591" d=" M 74.64 77.40 C 74.85 77.11 75.26 76.54 75.47 76.25 C 76.21 77.77 76.94 79.30 77.62 80.84 L 77.98 81.75 C 76.87 81.23 76.45 80.10 75.99 79.06 C 75.38 79.14 74.16 79.31 73.55 79.40 C 73.10 80.96 72.66 82.53 72.23 84.10 C 72.52 81.71 73.03 79.28 74.64 77.40 Z" />
<path fill="#585967" d=" M 75.47 76.25 C 78.39 74.88 80.27 80.48 77.62 80.84 C 76.94 79.30 76.21 77.77 75.47 76.25 Z" />
<path fill="#746876" d=" M 93.23 80.57 C 93.15 78.95 93.06 77.34 93.00 75.72 L 93.52 76.96 C 93.68 77.51 94.01 78.61 94.17 79.16 C 96.45 78.00 98.56 76.02 101.33 76.59 C 101.08 79.42 100.44 82.22 99.09 84.74 C 98.99 84.96 98.79 85.38 98.68 85.59 C 98.20 85.47 97.24 85.21 96.76 85.09 L 96.65 83.53 C 97.01 82.27 97.45 81.04 97.84 79.79 C 95.44 80.58 93.90 82.68 92.17 84.39 C 92.15 84.03 92.11 83.29 92.10 82.92 C 92.46 82.13 92.84 81.35 93.23 80.57 Z" />
<path fill="#756969" d=" M 106.85 77.47 C 107.50 75.98 109.27 76.65 110.50 76.43 C 111.49 77.20 112.51 77.93 113.63 78.51 L 113.92 78.67 C 113.76 80.21 113.57 81.77 113.05 83.24 C 112.53 84.48 111.99 85.70 111.43 86.91 C 110.60 86.67 109.68 86.19 109.88 85.13 C 109.96 82.60 110.80 80.12 110.31 77.58 C 109.15 77.54 108.00 77.50 106.85 77.47 Z" />
<path fill="#756969" d=" M 115.95 76.54 C 117.96 76.32 120.05 76.35 121.78 77.58 C 121.68 77.89 121.49 78.52 121.39 78.84 C 120.35 82.04 119.40 85.29 119.06 88.66 C 118.41 88.52 117.09 88.24 116.44 88.10 C 116.32 84.64 117.84 81.38 118.43 78.00 C 117.98 77.85 117.08 77.54 116.63 77.38 L 115.95 76.54 Z" />
<path fill="#d1c591" d=" M 122.18 76.25 C 122.62 76.36 123.51 76.57 123.95 76.68 C 123.46 76.97 122.47 77.57 121.98 77.87 C 123.04 78.65 124.09 79.44 125.14 80.23 C 124.77 80.33 124.03 80.53 123.66 80.63 C 123.09 80.18 121.96 79.29 121.39 78.84 C 121.49 78.52 121.68 77.89 121.78 77.58 C 121.88 77.25 122.08 76.59 122.18 76.25 Z" />
<path fill="#8f9bae" d=" M 137.70 80.10 C 138.15 78.72 137.33 75.95 139.55 76.18 L 139.50 76.68 C 139.20 80.55 137.70 85.19 141.06 88.19 C 142.88 88.06 145.08 88.35 146.07 86.45 C 146.62 86.02 147.71 85.14 148.26 84.71 C 148.63 88.74 143.25 90.32 140.20 88.82 C 137.55 86.84 137.19 83.13 137.70 80.10 Z" />
<path fill="#858eac" d=" M 142.32 78.38 C 142.82 77.21 144.05 76.62 144.95 75.78 C 145.22 77.89 145.56 80.00 146.00 82.09 C 144.82 83.18 143.58 84.21 142.34 85.23 C 142.17 84.87 141.83 84.16 141.66 83.80 C 142.99 82.41 144.96 81.12 144.10 78.90 C 143.48 79.28 142.24 80.03 141.62 80.41 C 141.79 79.90 142.14 78.89 142.32 78.38 Z" />
<path fill="#756969" d=" M 144.95 75.78 C 146.19 77.25 147.43 78.79 147.90 80.71 C 147.42 81.05 146.47 81.74 146.00 82.09 C 145.56 80.00 145.22 77.89 144.95 75.78 Z" />
<path fill="#ffffff" d=" M 59.02 77.10 C 59.43 77.08 60.25 77.06 60.67 77.05 C 60.93 77.17 61.46 77.43 61.73 77.56 C 61.40 80.08 60.85 82.56 60.31 85.05 C 59.35 86.77 61.99 89.23 63.36 87.44 C 63.57 87.19 63.98 86.70 64.18 86.46 C 64.31 86.71 64.58 87.21 64.71 87.46 C 63.74 88.71 62.18 88.43 60.81 88.34 C 60.52 87.85 59.93 86.86 59.64 86.37 C 60.22 83.63 61.45 80.92 61.24 78.11 C 60.68 77.85 59.57 77.35 59.02 77.10 Z" />
<path fill="#ffffff" d=" M 103.44 85.30 C 102.93 82.42 103.98 79.42 106.13 77.44 L 106.85 77.47 C 108.00 77.50 109.15 77.54 110.31 77.58 C 110.80 80.12 109.96 82.60 109.88 85.13 C 109.68 86.19 110.60 86.67 111.43 86.91 C 111.99 85.70 112.53 84.48 113.05 83.24 C 112.57 84.67 112.05 86.09 111.51 87.50 C 109.92 88.13 108.18 89.50 106.42 88.61 C 105.43 87.61 104.60 86.49 103.62 85.50 L 103.44 85.30 Z" />
<path fill="#ffffff" d=" M 113.63 78.51 C 114.38 78.23 115.88 77.67 116.63 77.38 C 117.08 77.54 117.98 77.85 118.43 78.00 C 117.84 81.38 116.32 84.64 116.44 88.10 C 117.09 88.24 118.41 88.52 119.06 88.66 C 117.84 88.58 116.62 88.52 115.40 88.46 C 116.25 85.02 117.27 81.63 117.94 78.15 C 116.94 78.28 114.92 78.54 113.92 78.67 L 113.63 78.51 Z" />
<path fill="#585967" d=" M 121.98 77.87 C 122.47 77.57 123.46 76.97 123.95 76.68 C 124.46 76.92 125.50 77.41 126.01 77.65 C 125.93 77.86 125.77 78.28 125.69 78.48 C 125.55 78.92 125.28 79.79 125.14 80.23 C 124.09 79.44 123.04 78.65 121.98 77.87 Z" />
<path fill="#d1c591" d=" M 126.01 77.65 C 126.44 77.30 127.30 76.61 127.73 76.26 C 128.15 82.69 124.99 88.54 123.90 94.76 C 124.67 94.85 126.23 95.04 127.01 95.14 C 125.76 95.30 124.50 95.38 123.24 95.51 C 124.78 89.88 126.02 84.17 127.53 78.52 L 125.69 78.48 C 125.77 78.28 125.93 77.86 126.01 77.65 Z" />
<path fill="#736b74" d=" M 127.73 76.26 C 130.03 76.31 131.24 78.36 132.63 79.85 C 132.04 79.99 130.86 80.29 130.27 80.43 C 130.56 80.63 131.15 81.01 131.44 81.20 C 131.05 81.68 130.26 82.64 129.87 83.13 C 128.29 85.55 127.25 88.38 127.47 91.31 C 127.46 92.60 127.22 93.87 127.01 95.14 C 126.23 95.04 124.67 94.85 123.90 94.76 C 124.99 88.54 128.15 82.69 127.73 76.26 Z" />
<path fill="#ffffff" d=" M 132.63 79.85 C 132.17 77.97 133.98 77.34 135.18 76.51 L 134.82 76.90 C 134.40 77.36 133.55 78.26 133.13 78.72 C 134.28 81.66 134.33 84.84 134.31 87.96 C 134.31 88.06 134.31 88.26 134.31 88.36 C 133.44 88.50 132.58 88.65 131.72 88.81 C 131.32 88.45 130.51 87.73 130.10 87.37 C 130.99 87.47 132.76 87.67 133.64 87.77 C 133.80 85.60 134.56 81.50 131.44 81.20 C 131.15 81.01 130.56 80.63 130.27 80.43 C 130.86 80.29 132.04 79.99 132.63 79.85 Z" />
<path fill="#756969" d=" M 141.06 88.19 C 137.70 85.19 139.20 80.55 139.50 76.68 C 140.20 77.10 141.61 77.96 142.32 78.38 C 142.14 78.89 141.79 79.90 141.62 80.41 C 141.48 80.86 141.19 81.77 141.05 82.22 C 141.20 82.62 141.51 83.41 141.66 83.80 C 141.83 84.16 142.17 84.87 142.34 85.23 L 142.86 86.27 C 143.67 86.32 145.27 86.41 146.07 86.45 C 145.08 88.35 142.88 88.06 141.06 88.19 Z" />
<path fill="#0748ab" d=" M 67.34 78.38 C 68.07 78.10 69.52 77.54 70.24 77.26 C 69.91 79.75 69.35 82.21 68.73 84.65 C 68.28 82.56 67.69 80.49 67.34 78.38 Z" />
<path fill="#585967" d=" M 103.65 84.11 C 103.82 81.31 104.98 77.18 108.68 78.11 L 107.89 79.05 C 106.04 80.10 105.37 82.22 106.32 84.14 C 106.38 84.57 106.50 85.42 106.56 85.84 C 107.09 85.90 108.16 86.03 108.70 86.09 C 109.69 87.44 107.75 88.67 106.69 87.64 C 105.57 86.59 104.02 85.69 103.65 84.11 Z" />
<path fill="#0056cb" d=" M 108.68 78.11 L 109.03 77.69 C 111.40 80.12 109.48 83.38 108.70 86.09 C 108.16 86.03 107.09 85.90 106.56 85.84 C 106.50 85.42 106.38 84.57 106.32 84.14 C 107.77 82.83 108.00 80.89 107.89 79.05 L 108.68 78.11 Z" />
<path fill="#756969" d=" M 133.13 78.72 C 133.55 78.26 134.40 77.36 134.82 76.90 C 137.68 79.77 137.55 85.52 134.31 87.96 C 134.33 84.84 134.28 81.66 133.13 78.72 Z" />
<path fill="#585967" d=" M 45.65 80.36 C 45.99 79.93 46.68 79.08 47.02 78.65 C 47.46 79.45 47.88 80.26 48.29 81.08 C 48.51 82.44 48.65 83.80 48.69 85.18 C 49.39 85.58 50.80 86.39 51.51 86.79 C 51.15 87.12 50.43 87.78 50.07 88.11 C 48.81 87.30 47.40 86.60 46.42 85.43 C 45.97 83.77 45.88 82.05 45.65 80.36 Z" />
<path fill="#67646f" d=" M 82.85 79.00 C 83.34 79.11 84.31 79.34 84.79 79.45 C 84.81 81.86 84.37 84.23 84.30 86.63 C 84.27 87.00 84.22 87.74 84.19 88.11 C 83.39 88.02 81.80 87.84 81.01 87.75 C 81.02 84.73 81.77 81.80 82.85 79.00 Z" />
<path fill="#5073a1" d=" M 106.32 84.14 C 105.37 82.22 106.04 80.10 107.89 79.05 C 108.00 80.89 107.77 82.83 106.32 84.14 Z" />
<path fill="#194ead" d=" M 141.62 80.41 C 142.24 80.03 143.48 79.28 144.10 78.90 C 144.96 81.12 142.99 82.41 141.66 83.80 C 141.51 83.41 141.20 82.62 141.05 82.22 C 141.19 81.77 141.48 80.86 141.62 80.41 Z" />
<path fill="#505f7c" d=" M 54.62 80.07 C 55.72 80.12 56.82 80.17 57.92 80.23 C 57.29 82.41 55.85 84.67 57.03 86.95 C 56.03 89.09 54.31 87.16 53.19 86.21 C 53.93 84.33 54.78 82.41 54.62 80.34 L 54.62 80.07 Z" />
<path fill="#7988a6" d=" M 32.77 81.06 L 34.19 80.91 C 35.02 81.19 35.84 81.49 36.65 81.81 C 36.37 83.48 36.27 85.20 36.87 86.82 C 34.96 88.20 32.39 89.30 30.10 88.19 C 28.13 87.32 27.27 85.16 26.85 83.19 C 27.59 83.25 29.07 83.35 29.81 83.40 C 29.83 84.10 29.89 85.49 29.92 86.18 C 31.22 86.41 32.52 86.63 33.82 86.86 C 34.42 85.82 35.01 84.79 35.61 83.76 C 34.59 82.94 33.39 82.27 32.77 81.06 Z" />
<path fill="#d1c591" d=" M 45.31 85.59 C 45.34 83.84 45.44 82.09 45.65 80.36 C 45.88 82.05 45.97 83.77 46.42 85.43 C 47.40 86.60 48.81 87.30 50.07 88.11 C 50.43 87.78 51.15 87.12 51.51 86.79 C 53.59 85.27 53.74 82.56 54.62 80.34 C 54.78 82.41 53.93 84.33 53.19 86.21 C 54.31 87.16 56.03 89.09 57.03 86.95 L 57.94 85.95 C 57.90 89.22 53.70 89.36 52.76 86.47 C 51.52 87.25 50.34 89.01 48.65 88.28 C 47.44 87.51 46.40 86.51 45.31 85.59 Z" />
<path fill="#0348b7" d=" M 131.44 81.20 C 134.56 81.50 133.80 85.60 133.64 87.77 C 132.76 87.67 130.99 87.47 130.10 87.37 C 130.51 87.73 131.32 88.45 131.72 88.81 C 130.68 89.66 129.50 89.75 128.18 89.10 C 128.72 87.10 129.20 85.09 129.87 83.13 C 130.26 82.64 131.05 81.68 131.44 81.20 Z" />
<path fill="#aea58e" d=" M 127.47 91.31 C 127.25 88.38 128.29 85.55 129.87 83.13 C 129.20 85.09 128.72 87.10 128.18 89.10 C 128.00 89.65 127.65 90.76 127.47 91.31 Z" />
<path fill="#1b55ab" d=" M 64.18 86.46 C 63.90 85.60 63.65 84.74 63.42 83.86 C 65.07 84.64 66.76 85.34 68.53 85.82 C 68.43 86.39 68.23 87.53 68.14 88.10 C 68.66 88.13 69.70 88.19 70.22 88.22 L 71.14 89.15 C 69.35 89.50 67.63 89.09 66.56 87.56 C 66.10 87.54 65.17 87.48 64.71 87.46 C 64.58 87.21 64.31 86.71 64.18 86.46 Z" />
<path fill="#889fba" d=" M 95.98 89.15 C 95.51 87.22 95.60 85.26 96.65 83.53 L 96.76 85.09 C 96.98 86.09 97.24 87.08 97.56 88.06 C 98.47 87.53 100.55 85.28 101.10 87.45 C 99.87 88.99 97.71 88.76 95.98 89.15 Z" />
<path fill="#585967" d=" M 98.68 85.59 C 98.79 85.38 98.99 84.96 99.09 84.74 C 100.54 84.95 101.99 85.14 103.44 85.30 L 103.62 85.50 C 102.95 86.63 102.11 87.28 101.10 87.45 C 100.55 85.28 98.47 87.53 97.56 88.06 C 97.24 87.08 96.98 86.09 96.76 85.09 C 97.24 85.21 98.20 85.47 98.68 85.59 Z" />
<path fill="#756b76" d=" M 113.69 113.11 C 129.83 109.07 145.66 100.90 155.84 87.39 C 156.74 88.51 157.64 89.63 158.54 90.75 C 155.19 93.71 152.83 97.54 149.74 100.72 C 145.58 103.58 141.74 107.02 137.01 108.95 C 133.27 111.01 129.22 112.55 125.70 114.95 C 124.57 114.95 123.44 114.95 122.31 114.93 C 122.86 114.04 123.41 113.14 123.96 112.25 C 121.87 112.55 119.79 112.89 117.72 113.25 C 117.58 113.69 117.32 114.56 117.18 115.00 C 116.02 114.37 114.85 113.74 113.69 113.11 Z" />
<path fill="#585967" d=" M 23.29 91.76 L 23.47 91.99 C 27.39 97.62 33.59 100.93 39.29 104.46 C 45.00 108.06 51.44 110.19 57.86 112.14 C 65.81 114.36 74.00 116.37 82.33 115.90 C 92.86 116.86 103.41 115.32 113.69 113.11 C 114.85 113.74 116.02 114.37 117.18 115.00 C 117.32 114.56 117.58 113.69 117.72 113.25 C 119.79 112.89 121.87 112.55 123.96 112.25 C 123.41 113.14 122.86 114.04 122.31 114.93 L 121.75 115.82 C 119.46 115.63 117.32 116.43 115.59 117.90 C 113.59 118.19 111.06 117.21 109.51 118.90 C 107.20 119.23 104.43 118.20 102.49 119.84 C 99.85 120.26 96.82 119.24 94.46 120.77 C 89.51 120.82 84.55 120.89 79.59 120.75 C 78.12 119.62 76.25 119.94 74.53 119.80 C 72.85 118.39 70.51 119.10 68.52 118.82 C 67.16 117.50 65.16 118.07 63.48 117.84 C 62.48 116.63 60.83 117.10 59.49 116.86 C 57.12 115.43 54.01 115.93 51.47 114.69 C 50.55 114.14 49.56 113.83 48.48 113.76 C 47.56 113.16 46.55 112.86 45.44 112.84 C 43.21 110.76 40.41 109.24 37.40 108.69 C 34.59 105.32 29.59 104.62 27.08 101.04 C 25.48 97.99 22.49 96.06 20.29 93.49 C 21.29 92.91 22.29 92.33 23.29 91.76 Z" />
<path fill="#114392" d=" M 23.47 91.99 C 27.49 94.42 30.94 97.63 34.86 100.21 C 44.48 106.75 55.55 110.88 66.87 113.36 C 72.01 114.27 77.23 114.73 82.33 115.90 C 74.00 116.37 65.81 114.36 57.86 112.14 C 51.44 110.19 45.00 108.06 39.29 104.46 C 33.59 100.93 27.39 97.62 23.47 91.99 Z" />
</svg>
