<?xml version="1.0" encoding="utf-8"?>
<!-- Generator: Adobe Illustrator 12.0.0, SVG Export Plug-In  -->
<!DOCTYPE svg PUBLIC "-//W3C//DTD SVG 1.1//EN" "http://www.w3.org/Graphics/SVG/1.1/DTD/svg11.dtd" [
	<!ENTITY ns_flows "http://ns.adobe.com/Flows/1.0/">
	<!ENTITY ns_svg "http://www.w3.org/2000/svg">
	<!ENTITY ns_xlink "http://www.w3.org/1999/xlink">
]>
<svg  version="1.1" xmlns="&ns_svg;" xmlns:xlink="&ns_xlink;" xmlns:a="http://ns.adobe.com/AdobeSVGViewerExtensions/3.0/"
	 width="501" height="153" viewBox="-0.3720703 -0.3720703 501 153" enable-background="new -0.3720703 -0.3720703 501 153"
	 xml:space="preserve">
<defs>
</defs>
<polygon opacity="0" fill-rule="evenodd" clip-rule="evenodd" fill="#FFFFFF" points="0,0 500,0 500,152 0,152 0,0 "/>
<path fill-rule="evenodd" clip-rule="evenodd" d="M423.7197266,32.3183594h-50.7402344l0,0
	c-27.4677734,0-49.7353516,22.2661133-49.7353516,49.734375c0,27.4648438,22.2675781,49.7324219,49.7353516,49.7324219l0,0
	h50.7402344l0,0c27.4667969,0,49.734375-22.2675781,49.734375-49.7324219
	C473.4541016,54.5844727,451.1865234,32.3183594,423.7197266,32.3183594L423.7197266,32.3183594L423.7197266,32.3183594
	L423.7197266,32.3183594z M420.7050781,111.1806641h-44.7119141l0,0c-16.0888672,0-29.1298828-13.0410156-29.1298828-29.1279297
	c0-16.0888672,13.0410156-29.1298828,29.1298828-29.1298828l0,0h44.7119141l0,0
	c16.0888672,0,29.1298828,13.0410156,29.1298828,29.1298828
	C449.8349609,98.1396484,436.7939453,111.1806641,420.7050781,111.1806641L420.7050781,111.1806641L420.7050781,111.1806641
	L420.7050781,111.1806641z"/>
<path fill-rule="evenodd" clip-rule="evenodd" d="M474.5419922,120.953125c-3.8457031,0-6.9501953,3.1113281-6.9501953,6.9326172
	c0,3.8583984,3.1044922,6.9716797,6.9501953,6.9716797c3.8261719,0,6.9101563-3.1132813,6.9101563-6.9716797
	C481.4521484,124.0644531,478.3681641,120.953125,474.5419922,120.953125L474.5419922,120.953125L474.5419922,120.953125
	L474.5419922,120.953125z M474.5419922,134.0185547c-3.375,0-6.0966797-2.7294922-6.0966797-6.1328125
	c0-3.3642578,2.7216797-6.09375,6.0966797-6.09375c3.3544922,0,6.0761719,2.7294922,6.0761719,6.09375
	C480.6181641,131.2890625,477.8964844,134.0185547,474.5419922,134.0185547L474.5419922,134.0185547L474.5419922,134.0185547
	L474.5419922,134.0185547z"/>
<path fill-rule="evenodd" clip-rule="evenodd" d="M478.0947266,126.0683594c0-0.6552734-0.2900391-1.3466797-0.8701172-1.6757813
	c-0.5800781-0.3447266-1.2324219-0.3818359-1.8857422-0.3818359l0,0h-3.3740234v7.7695313h0.9423828v-3.5849609h1.7412109
	l2.2138672,3.5849609h1.1240234l-2.3398438-3.5849609l0,0C477.0263672,128.1591797,478.0947266,127.5957031,478.0947266,126.0683594
	L478.0947266,126.0683594L478.0947266,126.0683594L478.0947266,126.0683594z M474.3583984,127.4609375h-1.4511719v-2.7490234
	h2.2148438l0,0c0.9589844,0,2.0136719,0.1474609,2.0136719,1.3486328
	C477.1357422,127.6445313,475.4482422,127.4609375,474.3583984,127.4609375L474.3583984,127.4609375L474.3583984,127.4609375
	L474.3583984,127.4609375z"/>
<path fill-rule="evenodd" clip-rule="evenodd" d="M288.828125,90.8349609c16.0869141,0,29.1298828-13.0439453,29.1298828-29.1303711
	c0-16.0869141-13.0429688-29.3813477-29.1298828-29.3813477l0,0l-67.5712891-0.0048828l0,0
	c-27.4672852,0-49.7348633,22.2661133-49.7348633,49.734375c0,27.4648438,22.2675781,49.7324219,49.7348633,49.7324219l0,0
	h91.9365234v-20.6044922h-88.9223633l0,0c-16.0878906,0-29.1303711-13.0410156-29.1303711-29.1279297
	c0-16.0888672,13.0424805-29.1298828,29.1303711-29.1298828l0,0l61.5424805,0.0048828l0,0
	c4.7089844,0,8.5253906,4.0693359,8.5253906,8.7768555c0,4.7084961-3.8164063,8.5268555-8.5253906,8.5268555l0,0h-76.8666992
	v20.6132813L288.828125,90.8349609L288.828125,90.8349609L288.828125,90.8349609z"/>
<path fill-rule="evenodd" clip-rule="evenodd" d="M79.581543,111.1660156
	c-20.7958984,0-37.6557617-15.8544922-37.6557617-36.6503906c0-20.7963867,16.8598633-37.4042969,37.6557617-37.4042969l0,0
	l82.644043-0.0239258v-19.765625H75.5625l0,0c-31.5869141,0-57.1938477,25.6069336-57.1938477,57.1938477
	c0,31.5859375,25.6069336,57.1943359,57.1938477,57.1943359l0,0h86.6630859V69.4926758H90.3837891v20.597168h47.7260742v21.1005859
	L79.581543,111.1660156L79.581543,111.1660156L79.581543,111.1660156z"/>
<path fill-rule="evenodd" clip-rule="evenodd" d="M429.2519531,59.8144531l-4.0820313-0.0087891l0,0
	c2.2714844,1.5654297,5.5498047,4.3027344,8.28125,8.1196289l0,0l-13.8994141-0.0083008l0,0
	c-2.0253906-3.1572266-4.6435547-5.9248047-7.6337891-8.1025391l0,0l-4.0800781-0.0087891l0,0
	c2.2695313,1.5654297,5.5498047,4.3027344,8.2792969,8.1196289l0,0h-15.5068359v-8.1049805h-3.8935547v8.1049805h-15.5068359l0,0
	c2.7285156-3.8168945,6.0068359-6.5541992,8.2792969-8.1196289l0,0l-4.0810547,0.0087891l0,0
	c-2.9921875,2.1777344-5.6074219,4.9453125-7.6328125,8.1025391l0,0l-13.8994141,0.0083008l0,0
	c2.7314453-3.8168945,6.0087891-6.5541992,8.28125-8.1196289l0,0l-4.0830078,0.0087891l0,0
	c-7.0966797,5.1665039-12.0859375,13.5400391-12.0859375,22.9902344c0,8.7119141,4.2958984,16.5068359,10.2158203,21.4697266l0,0
	l4.0146484,0.0019531l0,0c-2.296875-2.2041016-4.4091797-4.3847656-6.1708984-6.7050781l0,0l13.6347656-0.0048828l0,0
	c1.6269531,2.5693359,3.6240234,4.8398438,5.8525391,6.7080078l0,0l4.0146484,0.0019531l0,0
	c-2.2861328-2.1943359-4.3896484-4.3652344-6.1464844-6.7363281l0,0h15.3134766v6.7412109h3.8935547v-6.7412109h15.3134766l0,0
	c-1.7597656,2.3710938-3.8603516,4.5419922-6.1474609,6.7363281l0,0l4.0126953-0.0019531l0,0
	c2.2285156-1.8681641,4.2275391-4.1386719,5.8544922-6.7080078l0,0l13.6337891,0.0048828l0,0
	c-1.7597656,2.3203125-3.8730469,4.5009766-6.1689453,6.7050781l0,0l4.0146484-0.0019531l0,0
	c5.9199219-4.9628906,10.2158203-12.7578125,10.2158203-21.4697266
	C441.3388672,73.3544922,436.3496094,64.980957,429.2519531,59.8144531L429.2519531,59.8144531L429.2519531,59.8144531
	L429.2519531,59.8144531z M361.5332031,93.6767578c-1.4111328-2.65625-2.3369141-5.5664063-2.5888672-8.9267578l0,0h14.4482422l0,0
	c0.2324219,3.1572266,1.0205078,6.1494141,2.2333984,8.9228516l0,0L361.5332031,93.6767578L361.5332031,93.6767578
	L361.5332031,93.6767578z M373.3925781,80.8583984h-14.4335938l0,0c0.2802734-3.3642578,1.2382813-6.3730469,2.5576172-9.0219727
	l0,0h14.1601563l0,0C374.4248047,74.6572266,373.625,77.6611328,373.3925781,80.8583984L373.3925781,80.8583984
	L373.3925781,80.8583984L373.3925781,80.8583984z M396.7167969,93.6484375l-17.8369141-0.0078125l0,0
	c-1.4189453-2.6630859-2.3525391-5.5205078-2.6035156-8.890625l0,0h20.4404297V93.6484375L396.7167969,93.6484375
	L396.7167969,93.6484375z M396.7167969,80.8583984h-20.4257813l0,0c0.2822266-3.3847656,1.2519531-6.4233398,2.5839844-9.0219727
	l0,0h17.8417969V80.8583984L396.7167969,80.8583984L396.7167969,80.8583984z M400.6103516,71.8364258h17.8417969l0,0
	c1.3320313,2.5986328,2.3007813,5.637207,2.5820313,9.0219727l0,0h-20.4238281V71.8364258L400.6103516,71.8364258
	L400.6103516,71.8364258z M418.4472656,93.640625l-17.8369141,0.0078125V84.75h20.4404297l0,0
	C420.7998047,88.1201172,419.8662109,90.9775391,418.4472656,93.640625L418.4472656,93.640625L418.4472656,93.640625
	L418.4472656,93.640625z M435.8105469,71.8364258c1.3173828,2.6489258,2.2763672,5.6577148,2.5576172,9.0219727l0,0h-14.4335938l0,0
	c-0.2324219-3.1972656-1.0351563-6.2011719-2.2841797-9.0219727l0,0H435.8105469L435.8105469,71.8364258L435.8105469,71.8364258z
	 M421.7011719,93.6728516c1.2128906-2.7734375,2.0009766-5.765625,2.2333984-8.9228516l0,0h14.4472656l0,0
	c-0.2509766,3.3603516-1.1767578,6.2705078-2.5888672,8.9267578l0,0L421.7011719,93.6728516L421.7011719,93.6728516
	L421.7011719,93.6728516z"/>
</svg>
