<?xml version="1.0" encoding="UTF-8" standalone="no"?>
<!-- Generator: Adobe Illustrator 14.0.0, SVG Export Plug-In . SVG Version: 6.00 Build 43363)  -->

<svg
   xmlns:dc="http://purl.org/dc/elements/1.1/"
   xmlns:cc="http://creativecommons.org/ns#"
   xmlns:rdf="http://www.w3.org/1999/02/22-rdf-syntax-ns#"
   xmlns:svg="http://www.w3.org/2000/svg"
   xmlns="http://www.w3.org/2000/svg"
   xmlns:xlink="http://www.w3.org/1999/xlink"
   xmlns:sodipodi="http://sodipodi.sourceforge.net/DTD/sodipodi-0.dtd"
   xmlns:inkscape="http://www.inkscape.org/namespaces/inkscape"
   version="1.1"
   id="Layer_1"
   x="0px"
   y="0px"
   width="374.34601"
   height="346.98007"
   viewBox="0 0 374.34601 346.98007"
   enable-background="new 0 0 400 365"
   xml:space="preserve"
   inkscape:version="0.48.2 r9819"
   sodipodi:docname="AJAX.svg"><metadata
   id="metadata45"><rdf:RDF><cc:Work
       rdf:about=""><dc:format>image/svg+xml</dc:format><dc:type
         rdf:resource="http://purl.org/dc/dcmitype/StillImage" /></cc:Work></rdf:RDF></metadata><defs
   id="defs43" /><sodipodi:namedview
   pagecolor="#ffffff"
   bordercolor="#666666"
   borderopacity="1"
   objecttolerance="10"
   gridtolerance="10"
   guidetolerance="10"
   inkscape:pageopacity="0"
   inkscape:pageshadow="2"
   inkscape:window-width="1280"
   inkscape:window-height="1004"
   id="namedview41"
   showgrid="false"
   fit-margin-top="0"
   fit-margin-left="0"
   fit-margin-right="0"
   fit-margin-bottom="0"
   inkscape:zoom="1.8287912"
   inkscape:cx="177.59066"
   inkscape:cy="154.4426"
   inkscape:window-x="-8"
   inkscape:window-y="-8"
   inkscape:window-maximized="1"
   inkscape:current-layer="Layer_1" />
<path
   d="m 317.917,131.935 c 0,72.862 -58.532,131.935 -130.738,131.935 C 114.966,263.87 56.433,204.798 56.433,131.935 56.433,59.064998 114.966,-1.7982423e-6 187.179,-1.7982423e-6 259.385,9.9820176e-4 317.917,59.065998 317.917,131.935 M 187.179,5.5279982 c -69.188,0 -125.271,56.5899998 -125.271,126.4070018 0,69.81 56.084,126.407 125.271,126.407 69.181,0 125.261,-56.598 125.261,-126.407 C 312.439,62.117998 256.359,5.5279982 187.179,5.5279982 z"
   id="path3"
   style="fill:#ec1c2e;fill-opacity:1;stroke:none"
   inkscape:connector-curvature="0" />
<path
   d="m 312.439,131.935 c 0,69.81 -56.08,126.407 -125.261,126.407 -69.188,0 -125.271,-56.598 -125.271,-126.407 0,-69.817002 56.084,-126.4070018 125.271,-126.4070018 69.181,0 125.261,56.5899998 125.261,126.4070018"
   id="path5"
   style="fill:#ffffff;stroke:none"
   inkscape:connector-curvature="0" />
<path
   d="m 199.874,222.657 c 0,0 0,-0.393 0,0"
   id="path7"
   inkscape:connector-curvature="0"
   style="fill:#231f20" />
<path
   d="m 99.142,147.912 c 0,0 2.038,-1.919 14.611,-1.919 18.568,0 35.1,9.014 41.922,15.012 0,0 0.614,8.648 14.17,22.494 3.567,3.649 3.933,9.634 3.933,13.317 0,10.062 -2.399,22.537 -10.396,32.24 -3.79,-0.372 -13.888,-1.977 -19.643,-0.323 0,0 -5.039,5.408 -5.332,7.664 -2.776,-1.188 -4.404,-2.354 -7.657,-4.021 0.791,-2.784 3.303,-5.886 5.229,-7.798 7.216,-2.096 13.958,-2.694 25.613,-0.872 1.588,-5.169 2.432,-10.653 2.432,-16.349 0,-30.378 -24.396,-55.001 -54.502,-55.001 -12.313,0 -23.62,5.309 -32.28,12.967 -2.881,-10.148 -4.543,-18.079 -4.708,-31.776 -0.743,-63.876002 49.97,-116.276002 113.265,-117.029002 63.398,-0.752 115.2,50.952 115.924,112.612002 -0.168,10.385 -2.593,25.567 -3.938,31.769 -6.319,-7.061 -27.266,-6.469 -36.353,-21.637 9.087,-1.526 16.292,-4.079 19.845,-8.339 -17.476,-3.207 -23.044,-24.821 -27.036,-33.133002 -5.072,-10.547 -9.504,-13.171 -13.059,-17.39 -4.111,-4.901 5.832,-1.687 9.888,1.154 l 0.844,-0.682 c -9.825,-15.322 -19.094,-12.418 -28.193,-21.307 -3.191,-3.108 4.306,-2.707 8.055,-1.673 l 0.753,-0.739 c -9.901,-9.352 -17.937,-6.771 -18.508,-25.545 -18.091,10.188 -29.196,0.632 -58.338,14.21 -9,4.191 2.097,0.844 -4.488,7.791 -4.368,4.621 -16.842,4.368 -24.884,15.731 -1.881,2.658 9.798,11.355 13.011,18.176 l 0.876,-2.397 c -2.571,-7.763 -1.741,-10.66 2.025,-11.876 7.352,-2.362 15.522,3.129 17.667,11.75 0.935,3.739 -0.034,10.694 -4.587,12.228 -2.955,0.999 -7.014,-0.514 -10.132,-3.833 l -2.167,0.788 c 0,0 5.286,6.927002 6.136,14.922002 6.958,-4.747 18.11,-11.308002 20.133,-20.125002 2.941,-12.806 4.505,-15.224 17.676,-23.143 13.192,-7.938 11.791,-7.417 2.287,-19.757 -3.765,-4.888 2.18,-1.217 17.95,-6.273 l 0.075,1.034 c -15.121,7.475 -15.86,3.895 -4.989,14.373 5.547,5.357 5.631,8.156 -12.219,15.435 -23.79,9.696 -8.578,25.214 -26.208,37.070002 -26.18,17.615 -19.466,27.472 -7.427,44.264 -22.149,-12.467 -19.104,-24.456 -18.818,-25.7 -5.623,-0.928 -24.347,-3.776 -36.626,-0.416 -4.431,1.217 -5.066,3.349 -10.64,6.652 -1.888,1.118 -4.373,2.109 -6.906,3.643 -1.499,0.907 -2.854,2.975 -1.715,5.949 1.428,3.705 3.99,6.23 7.686,7.798 1.77,-7.061 4.555,-8.769 4.555,-8.769 0.784,4.226 5.188,6.779 5.188,6.779"
   id="path9"
   style="fill:#ec1c2e;fill-opacity:1;stroke:none"
   inkscape:connector-curvature="0" />
<path
   d="m 199.749,152.996 c 0,0 -30.305,2.58 -36.768,-27.354 -6.174,5.359 -5.023,19.97 6.278,32.338 0.137,-1.905 -2.703,-7.903 -1.919,-9.104 9.233,7.628 16.836,7.1 32.409,4.12"
   id="path11"
   style="fill:#ec1c2e;fill-opacity:1;stroke:none"
   inkscape:connector-curvature="0" />
<path
   d="m 158.292,51.880998 c 0.203,0.618 4.219,-0.682 4.703,-0.197 0.479,0.478 1.806,5.47 2.893,3.959 3.073,-4.262 12.514,-10.562 12.514,-10.562 -13.753,2.721 -20.322,6.139 -20.11,6.8"
   id="path13"
   style="fill:#ec1c2e;fill-opacity:1;stroke:none"
   inkscape:connector-curvature="0" />
<path
   d="m 185.067,110.53 c 10.068,31.756 22.298,53.856 57.871,34.505 -31.217,7.292 -42.409,-17.48 -56.125,-33.14 l -1.746,-1.365"
   id="path15"
   style="fill:#ec1c2e;fill-opacity:1;stroke:none"
   inkscape:connector-curvature="0" />
<path
   d="m 178.962,246.952 c 2.778,0.246 8.652,0.654 9.571,0.647 28.957,-0.345 56.093,-12.608 72.362,-27.059 11.185,-10.399 5.234,-20.217 -6.083,-19.245 -12.611,1.09 -30.214,1.771 -36.053,-0.506 -5.415,-2.109 -3.137,-9.296 -5.987,-16.688 -0.571,-1.729 -1.916,-2.298 -1.916,0 -1.729,28.647 -9.101,38.111 -9.051,38.028 l -1.932,0.526 c 0.07,-6.715 -2.341,-9.352 -6.201,1.533 -3.612,10.171 -9.128,18.798 -14.71,22.764"
   id="path17"
   style="fill:#ec1c2e;fill-opacity:1;stroke:none"
   inkscape:connector-curvature="0" />
<path
   d="m 202.187,91.869998 c 28.494,-0.465 30.382,39.131002 53.371,46.316002 -35.852,1.393 -31.084,-35.649 -53.371,-46.316002"
   id="path19"
   style="fill:#ec1c2e;fill-opacity:1;stroke:none"
   inkscape:connector-curvature="0" />
<path
   d="m 136.665,331.198 c 0.586,13.677 13.843,14.471 15.826,14.484 1.279,0.015 29.787,-0.007 29.787,-0.007 l 0.007,-8.867 -23.505,-0.014 c -7.877,0 -7.129,-3.79 -7.129,-4.669 0,-1.125 0.008,-30.179 0.008,-30.179 l -15,0.007 0.006,29.245"
   id="path21"
   style="fill:#000000;stroke:none"
   inkscape:connector-curvature="0" />
<path
   d="m 189.182,334.3 v -32.093 l 24.282,0.014 c 14.283,0 29.74,5.864 30.924,21.763 1.066,14.154 -8.766,20.652 -29.377,21.546 0,0 -5.019,0.422 -11.095,0.014 -10.466,-0.704 -14.525,-6.64 -14.734,-11.244 m 20.755,2.855 2.438,0.062 c 7.881,-0.119 16.988,-3.136 16.627,-13.219 -0.308,-8.487 -5.423,-12.805 -16.516,-13.493 h -8.111 v 21.052 c 0.001,3.987 1.639,5.343 5.562,5.598 z"
   id="path23"
   style="fill:#000000;stroke:none"
   inkscape:connector-curvature="0" />
<g
   id="g25"
   transform="translate(-13.169,-8.0900018)">
	<defs
   id="defs27">
		<rect
   id="SVGID_1_"
   x="13.169"
   y="8.0909996"
   width="374.345"
   height="346.983" />
	</defs>
	<clipPath
   id="SVGID_2_">
		<use
   xlink:href="#SVGID_1_"
   overflow="visible"
   id="use31"
   style="overflow:visible"
   x="0"
   y="0"
   width="400"
   height="365" />
	</clipPath>
	<path
   clip-path="url(#SVGID_2_)"
   d="m 284.881,340.856 -0.016,-5.146 27.957,-0.008 -0.007,-8.199 -27.914,-0.007 0.014,-8.755 32.297,0.015 -0.014,-8.544 -47.391,0.014 0.014,29.196 c 0.237,13.676 15.602,14.105 15.602,14.105 l 2.822,0.14 h 29.218 l 0.007,-9.112 c 0,0 -27.539,0 -27.546,0 -4.033,0 -5.043,-1.869 -5.043,-3.699"
   id="path33"
   style="fill:#000000;stroke:none"
   inkscape:connector-curvature="0" />
	<path
   clip-path="url(#SVGID_2_)"
   d="m 109.711,308.807 c 20.821,0.542 29.142,12.754 29.365,23.887 0.17,8.677 -8.457,22.571 -30.943,22.374 -19.386,-0.17 -29.754,-13.199 -29.21,-24.49 0.525,-10.797 11.058,-22.293 30.788,-21.771 m -1.219,37.689 c 10.304,0.484 14.505,-7.616 14.692,-13.825 0.213,-6.995 -3.26,-15.089 -13.692,-15.259 -9.055,-0.146 -14.215,7.068 -14.303,14.269 -0.077,6.673 3.881,14.379 13.303,14.815 z"
   id="path35"
   style="fill:#000000;stroke:none"
   inkscape:connector-curvature="0" />
</g>
<path
   d="m 53.995,345.74 c -6.109,-0.141 -14.436,0.702 -14.749,-11.729 v -6.448 l -24.34,0.022 -0.007,18.021 H 0 l 0.035,-43.52 h 14.87 l 0.007,17.333 24.347,-0.007 v -17.326 h 14.749 l -0.013,43.654"
   id="path37"
   style="fill:#000000;stroke:none"
   inkscape:connector-curvature="0" />
<path
   d="m 317.451,302.165 h 18.437 l 24.786,29.428 v -29.414 h 13.672 v 43.428 c 0,0 -5.748,0 -11.538,0 -8.098,0 -13.553,-7.678 -13.553,-7.678 l -18.085,-22.073 -0.007,29.759 -13.712,0.007 v -43.457"
   id="path39"
   style="fill:#000000;stroke:none"
   inkscape:connector-curvature="0" />
</svg>