<?xml version="1.0" encoding="UTF-8" ?>
<!DOCTYPE svg PUBLIC "-//W3C//DTD SVG 1.1//EN" "http://www.w3.org/Graphics/SVG/1.1/DTD/svg11.dtd">
<svg width="573pt" height="285pt" viewBox="0 0 573 285" version="1.1" xmlns="http://www.w3.org/2000/svg">
<path fill="#ffffff" d=" M 0.00 0.00 L 573.00 0.00 L 573.00 285.00 L 0.00 285.00 L 0.00 0.00 Z" />
<path fill="#525251" d=" M 196.89 9.83 C 219.92 4.89 243.53 2.94 267.05 2.82 C 301.15 3.50 335.81 7.42 367.70 20.17 C 367.51 20.63 367.12 21.55 366.92 22.01 C 368.43 22.44 369.94 22.85 371.45 23.27 C 371.10 23.79 370.75 24.32 370.42 24.85 C 370.51 25.24 370.70 26.03 370.79 26.43 C 370.28 26.31 369.28 26.07 368.77 25.95 C 365.89 24.47 362.91 23.15 359.77 22.32 C 340.33 14.76 319.62 11.10 298.96 8.70 C 292.62 8.40 286.34 7.31 279.98 7.44 C 259.50 6.93 238.96 7.22 218.68 10.36 C 191.40 14.35 163.81 21.77 140.80 37.50 C 139.31 37.03 137.83 36.57 136.35 36.12 C 134.45 37.33 132.54 38.52 130.58 39.64 L 130.93 38.27 C 149.92 23.18 173.42 14.96 196.89 9.83 Z" />
<path fill="#e8eae8" d=" M 218.68 10.36 C 238.96 7.22 259.50 6.93 279.98 7.44 C 286.34 7.31 292.62 8.40 298.96 8.70 C 319.62 11.10 340.33 14.76 359.77 22.32 C 362.50 24.68 365.68 26.38 368.81 28.13 C 365.82 31.08 361.38 28.33 357.92 30.26 C 359.51 31.68 362.82 32.19 362.57 34.90 C 343.27 23.94 321.25 18.98 299.43 16.12 C 294.03 15.37 288.61 14.80 283.17 14.51 C 269.81 13.06 256.33 13.74 242.98 14.85 C 218.63 17.20 193.87 21.50 171.87 32.68 C 169.69 33.73 167.59 34.93 165.56 36.23 C 156.35 41.82 147.59 48.74 141.99 58.10 C 140.62 56.32 138.78 55.06 136.72 54.20 C 136.56 53.43 136.40 52.65 136.25 51.88 C 134.22 52.21 132.19 52.55 130.16 52.90 C 129.67 51.61 129.18 50.33 128.70 49.04 C 131.09 46.82 133.25 44.37 135.25 41.80 C 137.20 40.49 139.00 39.00 140.80 37.50 C 163.81 21.77 191.40 14.35 218.68 10.36 Z" />
<path fill="#939494" d=" M 242.98 14.85 C 256.33 13.74 269.81 13.06 283.17 14.51 C 280.09 14.67 277.02 14.96 273.95 15.18 C 281.33 17.35 289.03 19.15 295.53 23.43 C 288.49 22.28 281.34 22.27 274.25 21.80 C 270.31 18.68 265.14 18.17 260.36 17.39 C 249.15 15.87 237.91 17.65 226.75 18.76 C 217.19 20.22 207.64 22.00 198.61 25.56 C 194.78 27.29 190.22 27.06 186.80 29.72 C 184.18 31.45 181.63 33.57 180.88 36.78 C 177.03 38.73 173.07 40.47 169.41 42.77 C 170.58 39.21 172.44 35.95 174.31 32.73 C 173.70 32.72 172.48 32.69 171.87 32.68 C 193.87 21.50 218.63 17.20 242.98 14.85 Z" />
<path fill="#717271" d=" M 273.95 15.18 C 277.02 14.96 280.09 14.67 283.17 14.51 C 288.61 14.80 294.03 15.37 299.43 16.12 C 299.11 16.55 298.46 17.39 298.13 17.82 C 306.22 19.45 314.04 22.12 322.13 23.75 C 327.51 24.78 332.52 27.10 337.83 28.39 C 343.05 29.68 347.76 32.35 352.79 34.20 C 366.24 40.53 378.00 50.20 387.10 61.94 C 388.16 63.51 389.79 64.48 391.50 65.20 C 392.61 68.13 393.15 71.24 393.42 74.35 C 389.87 71.97 388.02 66.70 383.27 66.52 C 378.87 56.95 371.15 49.29 362.33 43.71 C 352.26 37.07 340.84 32.79 329.28 29.56 C 327.57 28.97 325.77 29.30 324.05 29.64 C 318.92 28.87 313.90 27.50 308.80 26.58 C 309.18 26.27 309.92 25.65 310.29 25.33 C 305.40 24.49 300.39 24.48 295.53 23.43 C 289.03 19.15 281.33 17.35 273.95 15.18 Z" />
<path fill="#adb0b0" d=" M 226.75 18.76 C 237.91 17.65 249.15 15.87 260.36 17.39 C 265.14 18.17 270.31 18.68 274.25 21.80 C 257.43 21.08 240.60 22.58 223.96 24.96 C 209.28 27.50 194.54 30.69 180.88 36.78 C 181.63 33.57 184.18 31.45 186.80 29.72 C 190.22 27.06 194.78 27.29 198.61 25.56 C 207.64 22.00 217.19 20.22 226.75 18.76 Z" />
<path fill="#555755" d=" M 298.13 17.82 C 298.46 17.39 299.11 16.55 299.43 16.12 C 321.25 18.98 343.27 23.94 362.57 34.90 C 374.61 42.13 386.67 51.47 391.50 65.20 C 389.79 64.48 388.16 63.51 387.10 61.94 C 378.00 50.20 366.24 40.53 352.79 34.20 C 347.76 32.35 343.05 29.68 337.83 28.39 C 332.52 27.10 327.51 24.78 322.13 23.75 C 314.04 22.12 306.22 19.45 298.13 17.82 Z" />
<path fill="#393938" d=" M 367.70 20.17 C 380.59 25.49 392.95 32.41 403.48 41.62 C 409.64 47.22 415.46 53.46 419.21 60.97 C 416.28 59.21 414.66 56.16 412.56 53.60 C 412.64 56.48 414.39 58.89 415.59 61.41 C 420.80 70.90 423.94 81.90 422.01 92.76 L 421.65 93.86 C 421.34 89.48 421.07 85.06 419.92 80.80 C 419.06 83.78 418.32 86.80 417.65 89.83 C 416.10 87.83 416.95 85.31 417.07 83.04 C 417.73 77.50 416.75 71.83 414.31 66.82 C 411.65 61.34 409.33 55.48 404.93 51.10 C 400.15 46.38 395.82 40.98 389.77 37.80 C 387.03 35.51 384.08 33.47 380.86 31.92 C 377.49 30.10 374.37 27.82 370.79 26.43 C 370.70 26.03 370.51 25.24 370.42 24.85 C 370.75 24.32 371.10 23.79 371.45 23.27 C 369.94 22.85 368.43 22.44 366.92 22.01 C 367.12 21.55 367.51 20.63 367.70 20.17 Z" />
<path fill="#3c3c3c" d=" M 223.96 24.96 C 240.60 22.58 257.43 21.08 274.25 21.80 C 281.34 22.27 288.49 22.28 295.53 23.43 C 300.39 24.48 305.40 24.49 310.29 25.33 C 309.92 25.65 309.18 26.27 308.80 26.58 C 274.42 20.55 238.87 21.82 204.94 29.98 C 187.49 34.25 170.07 41.27 157.06 54.03 C 150.96 60.37 145.71 68.73 146.47 77.86 C 147.24 86.98 154.36 93.76 161.48 98.64 C 171.39 105.57 183.32 108.41 194.79 111.64 C 218.26 84.54 241.58 57.30 265.10 30.23 C 266.94 32.19 268.74 34.18 270.49 36.22 L 269.75 37.01 C 268.44 35.64 267.12 34.27 265.85 32.85 C 265.66 32.61 265.28 32.13 265.09 31.89 C 243.12 57.37 221.04 82.77 199.22 108.38 C 198.70 109.01 198.18 109.63 197.66 110.25 C 196.70 111.26 195.63 112.17 194.46 112.93 C 186.81 110.35 178.91 108.53 171.45 105.43 C 164.81 102.51 158.55 98.59 153.30 93.56 C 150.71 90.89 148.36 87.92 146.83 84.49 C 146.48 83.13 146.14 81.76 145.83 80.39 C 144.90 76.25 145.16 71.91 146.61 67.93 C 150.43 56.77 159.82 48.96 169.41 42.77 C 173.07 40.47 177.03 38.73 180.88 36.78 C 194.54 30.69 209.28 27.50 223.96 24.96 Z" />
<path fill="#ffffff" d=" M 204.94 29.98 C 238.87 21.82 274.42 20.55 308.80 26.58 C 313.90 27.50 318.92 28.87 324.05 29.64 C 338.94 33.21 353.70 38.56 366.04 47.85 C 374.09 53.80 381.29 61.82 383.53 71.84 C 383.55 72.10 383.60 72.61 383.63 72.86 C 384.72 79.62 382.14 86.61 377.36 91.42 C 366.74 102.88 351.28 107.58 336.58 111.24 C 336.30 111.30 335.75 111.42 335.47 111.48 C 313.99 86.89 292.75 62.08 271.44 37.34 C 271.12 36.96 270.81 36.59 270.49 36.22 C 268.74 34.18 266.94 32.19 265.10 30.23 C 241.58 57.30 218.26 84.54 194.79 111.64 C 183.32 108.41 171.39 105.57 161.48 98.64 C 154.36 93.76 147.24 86.98 146.47 77.86 C 145.71 68.73 150.96 60.37 157.06 54.03 C 170.07 41.27 187.49 34.25 204.94 29.98 Z" />
<path fill="#c7c7c6" d=" M 359.77 22.32 C 362.91 23.15 365.89 24.47 368.77 25.95 C 371.09 27.69 373.43 29.41 375.72 31.18 C 373.91 32.77 371.98 34.21 369.97 35.53 C 370.38 35.81 371.21 36.36 371.63 36.64 C 371.20 36.80 370.35 37.11 369.92 37.27 C 371.37 38.34 372.80 39.43 374.17 40.60 C 376.79 42.89 379.31 45.29 381.79 47.73 C 383.90 49.90 385.85 52.23 387.61 54.70 C 390.24 58.60 392.24 62.88 393.78 67.32 C 395.74 74.36 395.47 81.88 393.02 88.77 L 392.67 88.62 C 392.35 88.59 391.69 88.53 391.36 88.50 C 390.66 89.26 389.97 90.05 389.30 90.84 C 386.68 89.79 384.74 87.73 382.94 85.65 C 384.09 82.54 384.87 79.28 385.01 75.96 C 386.70 79.07 389.09 82.07 392.64 83.08 C 392.89 81.78 393.13 80.47 393.35 79.17 C 393.44 77.56 393.47 75.96 393.42 74.35 C 393.15 71.24 392.61 68.13 391.50 65.20 C 386.67 51.47 374.61 42.13 362.57 34.90 C 362.82 32.19 359.51 31.68 357.92 30.26 C 361.38 28.33 365.82 31.08 368.81 28.13 C 365.68 26.38 362.50 24.68 359.77 22.32 Z" />
<path fill="#939392" d=" M 368.77 25.95 C 369.28 26.07 370.28 26.31 370.79 26.43 C 374.37 27.82 377.49 30.10 380.86 31.92 C 381.90 33.26 382.99 34.62 383.63 36.21 C 384.25 39.68 382.33 43.10 383.22 46.57 C 382.86 46.86 382.14 47.44 381.79 47.73 C 379.31 45.29 376.79 42.89 374.17 40.60 C 375.61 39.59 375.63 37.89 375.75 36.32 C 376.51 36.34 377.28 36.36 378.05 36.38 C 377.39 34.59 376.73 32.80 375.72 31.18 C 373.43 29.41 371.09 27.69 368.77 25.95 Z" />
<path fill="#393938" d=" M 324.05 29.64 C 325.77 29.30 327.57 28.97 329.28 29.56 C 340.84 32.79 352.26 37.07 362.33 43.71 C 371.15 49.29 378.87 56.95 383.27 66.52 C 383.60 68.27 383.56 70.07 383.53 71.84 C 381.29 61.82 374.09 53.80 366.04 47.85 C 353.70 38.56 338.94 33.21 324.05 29.64 Z" />
<path fill="#afafaf" d=" M 375.72 31.18 C 376.73 32.80 377.39 34.59 378.05 36.38 C 377.28 36.36 376.51 36.34 375.75 36.32 C 375.63 37.89 375.61 39.59 374.17 40.60 C 372.80 39.43 371.37 38.34 369.92 37.27 C 370.35 37.11 371.20 36.80 371.63 36.64 C 371.21 36.36 370.38 35.81 369.97 35.53 C 371.98 34.21 373.91 32.77 375.72 31.18 Z" />
<path fill="#777778" d=" M 380.86 31.92 C 384.08 33.47 387.03 35.51 389.77 37.80 C 390.57 38.74 391.35 39.70 392.20 40.61 C 391.05 43.71 390.60 46.98 390.36 50.26 C 390.28 52.11 388.56 53.28 387.61 54.70 C 385.85 52.23 383.90 49.90 381.79 47.73 C 382.14 47.44 382.86 46.86 383.22 46.57 C 382.33 43.10 384.25 39.68 383.63 36.21 C 382.99 34.62 381.90 33.26 380.86 31.92 Z" />
<path fill="#767978" d=" M 165.56 36.23 C 167.59 34.93 169.69 33.73 171.87 32.68 C 172.48 32.69 173.70 32.72 174.31 32.73 C 172.44 35.95 170.58 39.21 169.41 42.77 C 159.82 48.96 150.43 56.77 146.61 67.93 C 142.84 70.62 140.12 74.41 136.74 77.53 C 136.77 74.16 137.04 70.77 138.02 67.53 C 139.17 67.37 140.35 67.08 141.05 66.05 C 146.94 59.93 152.31 53.33 157.86 46.91 C 161.22 44.06 164.96 40.90 165.56 36.23 Z" />
<path fill="#dcdfde" d=" M 199.22 108.38 C 221.04 82.77 243.12 57.37 265.09 31.89 C 265.28 32.13 265.66 32.61 265.85 32.85 C 265.69 35.34 265.45 37.83 265.29 40.32 C 264.88 39.81 264.06 38.79 263.65 38.28 C 260.86 42.26 257.05 45.36 254.21 49.29 C 253.16 50.84 251.52 51.77 250.00 52.77 C 249.31 54.37 248.48 55.93 247.26 57.20 C 244.23 60.44 241.92 64.41 238.03 66.76 C 235.95 71.73 232.18 75.72 228.28 79.33 C 226.26 81.14 224.73 83.43 223.76 85.96 C 222.79 86.19 221.82 86.41 220.85 86.63 C 220.74 87.17 220.63 87.72 220.53 88.26 C 219.99 88.36 219.45 88.47 218.92 88.57 C 218.33 90.00 217.90 91.57 216.84 92.74 C 212.59 97.24 207.81 101.37 204.70 106.79 C 203.68 108.96 201.15 108.58 199.22 108.38 Z" />
<path fill="#777676" d=" M 265.29 40.32 C 265.45 37.83 265.69 35.34 265.85 32.85 C 267.12 34.27 268.44 35.64 269.75 37.01 L 270.49 36.22 C 270.81 36.59 271.12 36.96 271.44 37.34 C 271.30 37.63 271.00 38.20 270.85 38.49 L 270.37 39.45 C 273.72 45.28 277.45 50.96 281.90 56.03 C 284.07 58.70 285.70 61.81 288.24 64.18 C 289.32 65.76 290.35 67.37 291.42 68.96 C 291.06 69.37 290.34 70.21 289.98 70.62 C 285.12 64.47 279.82 58.70 274.90 52.59 C 271.73 48.48 267.78 44.93 265.29 40.32 Z" />
<path fill="#747472" d=" M 136.35 36.12 C 137.83 36.57 139.31 37.03 140.80 37.50 C 139.00 39.00 137.20 40.49 135.25 41.80 C 132.10 43.35 129.42 45.66 127.20 48.36 C 126.31 47.51 125.42 46.65 124.53 45.80 C 122.13 48.19 119.83 50.68 117.47 53.10 L 117.44 51.45 C 121.01 46.32 125.90 42.01 130.93 38.27 L 130.58 39.64 C 132.54 38.52 134.45 37.33 136.35 36.12 Z" />
<path fill="#565858" d=" M 141.99 58.10 C 147.59 48.74 156.35 41.82 165.56 36.23 C 164.96 40.90 161.22 44.06 157.86 46.91 C 152.31 53.33 146.94 59.93 141.05 66.05 C 140.35 67.08 139.17 67.37 138.02 67.53 C 139.02 64.26 140.30 61.07 141.99 58.10 Z" />
<path fill="#cfd0cf" d=" M 254.21 49.29 C 257.05 45.36 260.86 42.26 263.65 38.28 C 264.06 38.79 264.88 39.81 265.29 40.32 C 267.78 44.93 271.73 48.48 274.90 52.59 C 274.59 53.25 273.96 54.56 273.65 55.21 C 271.22 53.55 268.82 51.23 265.67 51.25 C 264.11 51.19 262.92 52.37 261.65 53.07 C 261.14 52.96 260.64 52.86 260.14 52.75 C 257.54 55.35 254.87 57.90 251.85 60.01 C 255.00 53.51 261.57 49.37 264.24 42.58 C 257.49 49.07 251.92 56.68 245.70 63.66 C 240.31 70.90 234.02 77.39 228.50 84.53 C 224.04 89.58 219.50 94.58 215.59 100.09 C 217.50 102.39 220.09 104.10 223.11 104.41 C 229.18 105.11 235.33 107.01 241.42 105.50 C 241.82 105.95 242.62 106.84 243.01 107.29 C 240.63 113.41 238.04 119.44 235.61 125.53 C 235.49 121.67 236.87 118.03 237.86 114.35 C 228.14 115.01 218.51 113.54 209.05 111.54 C 205.88 113.18 203.97 116.47 201.76 119.16 C 201.52 119.31 201.04 119.63 200.80 119.78 C 200.13 119.92 198.79 120.18 198.12 120.31 C 198.67 119.69 199.77 118.46 200.32 117.84 C 201.48 116.46 202.36 114.87 203.21 113.28 C 201.36 112.27 199.51 111.26 197.66 110.25 C 198.18 109.63 198.70 109.01 199.22 108.38 C 201.15 108.58 203.68 108.96 204.70 106.79 C 207.81 101.37 212.59 97.24 216.84 92.74 C 217.90 91.57 218.33 90.00 218.92 88.57 C 219.45 88.47 219.99 88.36 220.53 88.26 C 220.63 87.72 220.74 87.17 220.85 86.63 C 221.82 86.41 222.79 86.19 223.76 85.96 C 224.73 83.43 226.26 81.14 228.28 79.33 C 232.18 75.72 235.95 71.73 238.03 66.76 C 241.92 64.41 244.23 60.44 247.26 57.20 C 248.48 55.93 249.31 54.37 250.00 52.77 C 251.52 51.77 253.16 50.84 254.21 49.29 Z" />
<path fill="#393938" d=" M 270.85 38.49 C 271.00 38.20 271.30 37.63 271.44 37.34 C 292.75 62.08 313.99 86.89 335.47 111.48 L 335.20 112.84 C 334.34 111.92 333.49 111.01 332.66 110.07 C 321.36 96.67 309.69 83.59 298.33 70.24 C 289.43 59.43 279.78 49.27 270.85 38.49 Z" />
<path fill="#4d4e4d" d=" M 389.77 37.80 C 395.82 40.98 400.15 46.38 404.93 51.10 C 409.33 55.48 411.65 61.34 414.31 66.82 C 416.75 71.83 417.73 77.50 417.07 83.04 C 416.95 85.31 416.10 87.83 417.65 89.83 C 415.03 104.18 407.08 117.54 395.79 126.78 C 384.64 136.27 371.17 142.58 357.39 147.25 C 352.36 147.58 347.69 149.56 342.86 150.82 C 337.10 152.48 331.12 153.67 325.85 156.67 C 330.35 156.64 334.85 156.48 339.33 156.07 C 329.47 158.66 319.25 159.36 309.21 160.95 C 308.95 157.39 308.04 153.91 306.29 150.79 C 305.77 149.61 305.26 148.43 304.78 147.25 C 305.23 145.41 305.68 143.58 306.13 141.75 C 309.20 143.19 312.17 141.01 315.13 140.33 C 322.78 138.38 330.62 136.97 337.87 133.70 C 345.03 130.58 352.76 128.56 359.44 124.45 C 362.26 121.65 365.85 119.83 369.92 120.21 C 370.13 119.09 370.34 117.97 370.56 116.86 C 376.26 114.47 379.41 108.84 383.41 104.48 C 384.90 104.43 386.39 104.38 387.88 104.33 C 387.32 103.46 386.77 102.59 386.22 101.72 C 389.52 98.52 393.36 95.65 394.88 91.10 C 394.27 90.31 393.65 89.54 393.02 88.77 C 395.47 81.88 395.74 74.36 393.78 67.32 C 395.37 62.35 394.26 57.09 395.32 52.04 C 394.80 51.46 394.26 50.92 393.68 50.41 C 394.98 48.93 397.22 47.27 396.30 45.01 C 395.34 43.21 393.58 42.05 392.20 40.61 C 391.35 39.70 390.57 38.74 389.77 37.80 Z" />
<path fill="#9e9b9c" d=" M 270.37 39.45 L 270.85 38.49 C 279.78 49.27 289.43 59.43 298.33 70.24 C 298.11 70.99 297.69 72.49 297.48 73.24 C 294.17 70.42 292.26 66.15 288.24 64.18 C 285.70 61.81 284.07 58.70 281.90 56.03 C 277.45 50.96 273.72 45.28 270.37 39.45 Z" />
<path fill="#656565" d=" M 392.20 40.61 C 393.58 42.05 395.34 43.21 396.30 45.01 C 397.22 47.27 394.98 48.93 393.68 50.41 C 394.26 50.92 394.80 51.46 395.32 52.04 C 394.26 57.09 395.37 62.35 393.78 67.32 C 392.24 62.88 390.24 58.60 387.61 54.70 C 388.56 53.28 390.28 52.11 390.36 50.26 C 390.60 46.98 391.05 43.71 392.20 40.61 Z" />
<path fill="#b0b2b3" d=" M 127.20 48.36 C 129.42 45.66 132.10 43.35 135.25 41.80 C 133.25 44.37 131.09 46.82 128.70 49.04 C 127.43 50.46 125.69 51.92 125.76 54.00 C 126.92 56.60 130.19 56.98 132.04 58.93 C 133.78 60.83 135.11 63.05 136.57 65.16 C 135.71 69.77 135.08 74.45 135.17 79.15 C 134.78 79.24 134.01 79.43 133.62 79.52 C 132.10 70.81 126.59 63.74 121.45 56.86 C 123.07 53.84 124.97 50.97 127.20 48.36 Z" />
<path fill="#dfe0de" d=" M 245.70 63.66 C 251.92 56.68 257.49 49.07 264.24 42.58 C 261.57 49.37 255.00 53.51 251.85 60.01 C 254.87 57.90 257.54 55.35 260.14 52.75 C 260.64 52.86 261.14 52.96 261.65 53.07 C 262.92 52.37 264.11 51.19 265.67 51.25 C 268.82 51.23 271.22 53.55 273.65 55.21 C 273.96 54.56 274.59 53.25 274.90 52.59 C 279.82 58.70 285.12 64.47 289.98 70.62 C 297.52 79.89 305.36 88.91 313.09 98.02 C 313.02 98.50 312.88 99.46 312.81 99.94 C 311.42 98.59 310.04 97.23 308.65 95.88 C 309.25 97.63 309.88 99.37 310.52 101.10 C 309.12 101.78 307.82 102.64 306.59 103.57 C 301.87 103.70 296.91 103.59 292.84 106.38 C 291.78 105.98 290.72 105.58 289.67 105.19 C 289.39 107.55 289.30 109.94 289.66 112.30 C 287.04 105.74 284.27 99.24 281.74 92.64 C 283.64 92.67 285.52 92.91 287.39 93.23 C 287.82 94.51 288.26 95.78 288.71 97.05 C 289.10 95.50 289.46 93.94 289.79 92.38 C 293.03 93.17 296.37 93.12 299.65 92.58 C 299.90 93.69 300.15 94.81 300.40 95.93 C 300.74 94.88 301.07 93.83 301.41 92.79 C 301.85 92.63 302.72 92.32 303.16 92.17 C 302.14 87.92 298.03 85.71 295.65 82.33 C 291.56 76.80 286.98 71.66 282.54 66.41 C 281.14 64.77 279.00 63.48 276.79 63.70 C 274.72 65.10 274.07 67.85 272.20 69.53 C 270.18 64.85 268.52 60.02 266.43 55.38 C 266.03 54.55 265.62 53.73 265.19 52.93 C 265.04 53.22 264.76 53.79 264.61 54.07 C 264.33 54.66 263.75 55.84 263.47 56.43 C 263.25 56.97 262.82 58.04 262.60 58.57 C 262.05 58.68 260.94 58.90 260.38 59.01 C 259.45 58.76 258.34 58.17 257.57 59.09 C 255.39 61.30 251.82 61.43 250.08 64.11 C 245.62 70.26 239.77 75.23 235.33 81.40 C 231.55 86.57 227.07 91.27 224.15 97.03 C 225.54 96.39 226.92 95.70 228.35 95.13 C 228.01 96.30 227.51 97.40 227.10 98.54 C 231.61 100.41 237.11 99.93 241.19 97.23 C 241.41 98.44 241.64 99.64 241.87 100.85 C 242.64 100.03 243.41 99.22 244.18 98.40 C 244.71 98.55 245.78 98.83 246.31 98.97 C 245.20 101.74 244.09 104.51 243.01 107.29 C 242.62 106.84 241.82 105.95 241.42 105.50 C 235.33 107.01 229.18 105.11 223.11 104.41 C 220.09 104.10 217.50 102.39 215.59 100.09 C 219.50 94.58 224.04 89.58 228.50 84.53 C 234.02 77.39 240.31 70.90 245.70 63.66 Z" />
<path fill="#838483" d=" M 117.47 53.10 C 119.83 50.68 122.13 48.19 124.53 45.80 C 125.42 46.65 126.31 47.51 127.20 48.36 C 124.97 50.97 123.07 53.84 121.45 56.86 C 119.55 60.42 122.82 63.51 124.34 66.49 C 128.70 73.55 129.75 82.33 135.38 88.64 C 135.83 88.53 136.71 88.30 137.16 88.19 C 137.27 88.44 137.50 88.94 137.61 89.19 C 139.02 92.01 140.74 94.68 142.89 96.99 C 155.51 110.88 173.92 117.45 191.78 121.48 C 192.99 122.80 194.21 124.12 195.46 125.40 C 196.38 124.82 197.30 124.25 198.21 123.67 C 198.35 124.11 198.61 124.98 198.75 125.41 C 210.07 125.97 221.29 128.09 232.54 129.45 C 232.14 130.49 231.74 131.53 231.33 132.57 C 225.33 132.33 219.43 130.97 213.41 130.72 C 202.27 128.15 190.77 127.10 179.99 123.05 C 174.01 120.60 167.11 120.40 161.98 116.11 C 151.69 111.39 141.27 105.98 133.73 97.31 C 131.74 94.29 128.83 91.93 127.31 88.61 C 124.42 82.58 122.13 76.29 120.07 69.93 C 119.62 67.83 117.86 66.57 116.27 65.34 C 116.87 63.45 116.77 61.47 116.28 59.57 C 113.02 62.76 110.12 66.58 109.44 71.22 C 107.13 78.17 106.80 85.55 107.69 92.78 C 107.45 93.00 106.96 93.46 106.71 93.68 C 106.42 93.95 105.84 94.49 105.55 94.75 L 105.00 95.26 C 105.05 94.95 105.17 94.34 105.23 94.03 C 106.15 90.42 105.50 86.69 105.72 83.02 C 106.67 72.18 110.76 61.68 117.47 53.10 Z" />
<path fill="#d0cfcf" d=" M 125.76 54.00 C 125.69 51.92 127.43 50.46 128.70 49.04 C 129.18 50.33 129.67 51.61 130.16 52.90 C 132.19 52.55 134.22 52.21 136.25 51.88 C 136.40 52.65 136.56 53.43 136.72 54.20 C 138.78 55.06 140.62 56.32 141.99 58.10 C 140.30 61.07 139.02 64.26 138.02 67.53 C 137.04 70.77 136.77 74.16 136.74 77.53 C 136.92 80.67 137.85 83.69 138.83 86.66 C 138.52 87.29 137.91 88.55 137.61 89.19 C 137.50 88.94 137.27 88.44 137.16 88.19 C 136.15 85.26 135.48 82.22 135.17 79.15 C 135.08 74.45 135.71 69.77 136.57 65.16 C 135.11 63.05 133.78 60.83 132.04 58.93 C 130.19 56.98 126.92 56.60 125.76 54.00 Z" />
<path fill="#2a2a2a" d=" M 105.23 94.03 C 102.87 78.88 107.67 63.15 117.44 51.45 L 117.47 53.10 C 110.76 61.68 106.67 72.18 105.72 83.02 C 105.50 86.69 106.15 90.42 105.23 94.03 Z" />
<path fill="#b0b0af" d=" M 264.61 54.07 C 264.76 53.79 265.04 53.22 265.19 52.93 C 265.62 53.73 266.03 54.55 266.43 55.38 C 266.19 58.12 265.77 60.93 266.56 63.63 C 267.60 67.37 270.36 70.29 272.99 73.02 L 273.12 71.87 C 276.28 78.67 278.94 85.69 281.74 92.64 C 284.27 99.24 287.04 105.74 289.66 112.30 C 290.73 115.08 291.84 117.84 292.85 120.65 C 292.64 121.29 292.22 122.56 292.00 123.20 C 290.72 119.95 289.43 116.70 287.76 113.62 C 283.21 101.17 278.31 88.86 273.39 76.55 C 272.52 73.85 269.59 73.02 267.32 71.88 C 266.64 70.21 265.68 68.67 264.63 67.22 C 264.36 62.83 265.65 58.40 264.61 54.07 Z" />
<path fill="#5c5c5c" d=" M 412.56 53.60 C 414.66 56.16 416.28 59.21 419.21 60.97 C 425.83 71.83 427.27 85.50 424.48 97.83 C 420.25 116.23 407.70 131.96 392.03 142.13 C 369.18 157.28 341.65 162.39 315.08 166.90 C 315.02 166.52 314.89 165.76 314.82 165.38 C 331.48 162.78 348.14 159.59 364.11 154.08 C 379.46 148.66 394.33 140.80 405.60 128.86 C 414.94 119.68 421.15 107.38 423.51 94.53 C 424.27 88.94 424.00 83.23 423.37 77.63 C 422.79 82.66 423.96 87.95 422.01 92.76 C 423.94 81.90 420.80 70.90 415.59 61.41 C 414.39 58.89 412.64 56.48 412.56 53.60 Z" />
<path fill="#797a79" d=" M 264.61 54.07 C 265.65 58.40 264.36 62.83 264.63 67.22 C 263.86 70.10 262.72 72.86 261.65 75.63 C 252.96 97.66 244.52 119.77 235.80 141.79 C 233.45 148.01 231.07 154.24 227.97 160.14 C 227.08 155.64 228.77 151.18 230.12 146.96 C 233.06 139.83 235.81 132.62 238.53 125.40 C 246.71 106.29 253.22 86.52 261.34 67.38 C 262.75 63.93 264.74 60.25 263.47 56.43 C 263.75 55.84 264.33 54.66 264.61 54.07 Z" />
<path fill="#838280" d=" M 266.56 63.63 C 265.77 60.93 266.19 58.12 266.43 55.38 C 268.52 60.02 270.18 64.85 272.20 69.53 C 272.51 70.31 272.82 71.09 273.12 71.87 L 272.99 73.02 C 270.36 70.29 267.60 67.37 266.56 63.63 Z" />
<path fill="#999a9a" d=" M 124.34 66.49 C 122.82 63.51 119.55 60.42 121.45 56.86 C 126.59 63.74 132.10 70.81 133.62 79.52 C 134.01 79.43 134.78 79.24 135.17 79.15 C 135.48 82.22 136.15 85.26 137.16 88.19 C 136.71 88.30 135.83 88.53 135.38 88.64 C 129.75 82.33 128.70 73.55 124.34 66.49 Z" />
<path fill="#393d3b" d=" M 263.47 56.43 C 264.74 60.25 262.75 63.93 261.34 67.38 C 253.22 86.52 246.71 106.29 238.53 125.40 C 235.81 132.62 233.06 139.83 230.12 146.96 C 228.77 151.18 227.08 155.64 227.97 160.14 C 231.07 154.24 233.45 148.01 235.80 141.79 C 244.52 119.77 252.96 97.66 261.65 75.63 C 262.72 72.86 263.86 70.10 264.63 67.22 C 265.68 68.67 266.64 70.21 267.32 71.88 C 274.61 91.67 282.60 111.19 290.20 130.86 C 293.00 138.57 296.20 146.12 299.18 153.76 C 300.06 156.12 300.98 158.46 302.08 160.73 C 301.66 160.54 300.81 160.16 300.39 159.97 C 288.44 130.05 277.14 99.86 265.07 70.00 C 252.34 102.72 239.60 135.44 226.85 168.15 C 214.45 166.96 202.20 164.62 190.02 162.06 C 168.60 157.37 146.99 150.09 129.98 135.77 C 117.70 125.30 107.94 110.93 105.55 94.75 C 105.84 94.49 106.42 93.95 106.71 93.68 C 108.98 110.66 119.34 125.83 132.61 136.29 C 150.80 150.70 173.58 157.62 196.04 162.03 C 205.89 164.07 215.83 165.68 225.82 166.84 C 225.37 166.03 224.48 164.41 224.03 163.60 C 220.82 158.17 224.49 152.66 226.66 147.67 C 227.73 145.34 228.76 143.00 229.56 140.57 C 231.37 135.48 233.88 130.66 235.61 125.53 C 238.04 119.44 240.63 113.41 243.01 107.29 C 244.09 104.51 245.20 101.74 246.31 98.97 C 251.68 85.48 257.29 72.08 262.60 58.57 C 262.82 58.04 263.25 56.97 263.47 56.43 Z" />
<path fill="#eaeaea" d=" M 257.57 59.09 C 258.34 58.17 259.45 58.76 260.38 59.01 C 260.94 58.90 262.05 58.68 262.60 58.57 C 257.29 72.08 251.68 85.48 246.31 98.97 C 245.78 98.83 244.71 98.55 244.18 98.40 C 243.41 99.22 242.64 100.03 241.87 100.85 C 241.64 99.64 241.41 98.44 241.19 97.23 C 237.11 99.93 231.61 100.41 227.10 98.54 C 227.51 97.40 228.01 96.30 228.35 95.13 C 226.92 95.70 225.54 96.39 224.15 97.03 C 227.07 91.27 231.55 86.57 235.33 81.40 C 239.77 75.23 245.62 70.26 250.08 64.11 C 251.82 61.43 255.39 61.30 257.57 59.09 Z" />
<path fill="#5f5f5f" d=" M 109.44 71.22 C 110.12 66.58 113.02 62.76 116.28 59.57 C 116.77 61.47 116.87 63.45 116.27 65.34 C 114.17 71.01 115.71 77.06 116.53 82.82 C 120.71 91.61 125.64 100.42 133.18 106.82 C 141.94 113.40 151.41 119.06 161.41 123.56 C 164.33 124.75 167.49 125.28 170.38 126.56 C 179.35 131.03 189.36 132.60 199.06 134.73 C 208.57 137.03 218.34 138.04 228.08 138.66 C 227.71 139.84 227.33 141.02 226.99 142.22 C 220.84 144.83 214.40 142.43 208.14 141.70 C 200.99 140.54 194.20 137.66 186.94 137.08 C 181.71 136.75 177.06 134.19 172.09 132.82 C 169.13 131.98 166.11 131.21 163.44 129.62 C 160.56 127.87 157.13 127.41 154.18 125.80 C 147.06 121.57 139.77 117.63 132.69 113.31 C 128.71 110.85 125.82 107.08 122.65 103.71 C 122.11 104.01 121.57 104.30 121.03 104.60 C 121.21 103.39 121.39 102.19 121.57 100.98 C 119.72 99.71 117.67 98.39 116.93 96.14 C 114.88 90.99 112.89 85.61 113.12 79.97 C 113.04 76.25 113.80 72.52 113.28 68.82 C 111.90 67.37 110.63 70.64 109.44 71.22 Z" />
<path fill="#ebecec" d=" M 276.79 63.70 C 279.00 63.48 281.14 64.77 282.54 66.41 C 286.98 71.66 291.56 76.80 295.65 82.33 C 298.03 85.71 302.14 87.92 303.16 92.17 C 302.72 92.32 301.85 92.63 301.41 92.79 C 301.07 93.83 300.74 94.88 300.40 95.93 C 300.15 94.81 299.90 93.69 299.65 92.58 C 296.37 93.12 293.03 93.17 289.79 92.38 C 289.46 93.94 289.10 95.50 288.71 97.05 C 288.26 95.78 287.82 94.51 287.39 93.23 C 285.52 92.91 283.64 92.67 281.74 92.64 C 278.94 85.69 276.28 78.67 273.12 71.87 C 272.82 71.09 272.51 70.31 272.20 69.53 C 274.07 67.85 274.72 65.10 276.79 63.70 Z" />
<path fill="#959491" d=" M 288.24 64.18 C 292.26 66.15 294.17 70.42 297.48 73.24 C 304.27 79.35 308.49 87.61 314.55 94.38 C 315.08 96.39 315.35 98.46 315.47 100.53 C 314.67 99.69 313.88 98.86 313.09 98.02 C 305.36 88.91 297.52 79.89 289.98 70.62 C 290.34 70.21 291.06 69.37 291.42 68.96 C 290.35 67.37 289.32 65.76 288.24 64.18 Z" />
<path fill="#6e6e6e" d=" M 116.27 65.34 C 117.86 66.57 119.62 67.83 120.07 69.93 C 122.13 76.29 124.42 82.58 127.31 88.61 C 128.83 91.93 131.74 94.29 133.73 97.31 C 141.27 105.98 151.69 111.39 161.98 116.11 C 167.11 120.40 174.01 120.60 179.99 123.05 C 190.77 127.10 202.27 128.15 213.41 130.72 C 219.43 130.97 225.33 132.33 231.33 132.57 C 230.23 135.10 229.61 137.81 229.56 140.57 C 228.76 143.00 227.73 145.34 226.66 147.67 C 226.43 145.84 226.45 143.99 226.99 142.22 C 227.33 141.02 227.71 139.84 228.08 138.66 C 218.34 138.04 208.57 137.03 199.06 134.73 C 189.36 132.60 179.35 131.03 170.38 126.56 C 167.49 125.28 164.33 124.75 161.41 123.56 C 151.41 119.06 141.94 113.40 133.18 106.82 C 125.64 100.42 120.71 91.61 116.53 82.82 C 115.71 77.06 114.17 71.01 116.27 65.34 Z" />
<path fill="#969594" d=" M 383.27 66.52 C 388.02 66.70 389.87 71.97 393.42 74.35 C 393.47 75.96 393.44 77.56 393.35 79.17 C 390.60 76.63 387.75 74.20 384.77 71.94 C 384.49 72.17 383.91 72.63 383.63 72.86 C 383.60 72.61 383.55 72.10 383.53 71.84 C 383.56 70.07 383.60 68.27 383.27 66.52 Z" />
<path fill="#525252" d=" M 109.44 71.22 C 110.63 70.64 111.90 67.37 113.28 68.82 C 113.80 72.52 113.04 76.25 113.12 79.97 C 112.89 85.61 114.88 90.99 116.93 96.14 C 117.67 98.39 119.72 99.71 121.57 100.98 C 121.39 102.19 121.21 103.39 121.03 104.60 C 121.57 104.30 122.11 104.01 122.65 103.71 C 125.82 107.08 128.71 110.85 132.69 113.31 C 139.77 117.63 147.06 121.57 154.18 125.80 C 157.13 127.41 160.56 127.87 163.44 129.62 C 166.11 131.21 169.13 131.98 172.09 132.82 C 177.06 134.19 181.71 136.75 186.94 137.08 C 194.20 137.66 200.99 140.54 208.14 141.70 C 214.40 142.43 220.84 144.83 226.99 142.22 C 226.45 143.99 226.43 145.84 226.66 147.67 C 224.49 152.66 220.82 158.17 224.03 163.60 C 219.03 162.20 213.81 162.08 208.74 161.04 C 186.44 157.41 163.87 152.35 144.17 140.86 C 142.81 139.99 141.73 138.79 140.59 137.68 C 142.57 138.58 144.55 139.49 146.44 140.57 C 157.05 146.80 168.81 150.75 180.69 153.75 C 186.79 156.21 193.42 156.56 199.79 157.91 C 207.17 159.16 214.69 160.26 222.19 160.03 C 221.60 158.65 221.18 156.78 219.36 156.62 C 213.92 155.22 208.31 154.59 202.72 154.09 C 194.98 152.76 187.57 149.78 179.70 149.17 C 161.46 143.79 143.34 135.93 129.67 122.34 C 120.90 113.20 114.26 101.56 112.42 88.93 C 112.17 84.32 111.63 79.72 111.66 75.09 C 107.55 81.01 107.77 88.63 109.57 95.32 C 110.47 98.66 111.57 101.94 112.27 105.33 C 109.44 101.74 108.61 97.14 107.69 92.78 C 106.80 85.55 107.13 78.17 109.44 71.22 Z" />
<path fill="#a5a5a4" d=" M 136.74 77.53 C 140.12 74.41 142.84 70.62 146.61 67.93 C 145.16 71.91 144.90 76.25 145.83 80.39 C 143.20 82.12 140.74 84.13 138.83 86.66 C 137.85 83.69 136.92 80.67 136.74 77.53 Z" />
<path fill="#cfd0cf" d=" M 298.33 70.24 C 309.69 83.59 321.36 96.67 332.66 110.07 C 332.14 110.51 331.09 111.37 330.56 111.80 C 323.71 107.48 320.44 99.71 314.55 94.38 C 308.49 87.61 304.27 79.35 297.48 73.24 C 297.69 72.49 298.11 70.99 298.33 70.24 Z" />
<path fill="#d3d5d5" d=" M 267.32 71.88 C 269.59 73.02 272.52 73.85 273.39 76.55 C 278.31 88.86 283.21 101.17 287.76 113.62 C 287.98 118.65 290.05 123.29 291.01 128.17 C 291.38 129.19 290.91 130.11 290.20 130.86 C 282.60 111.19 274.61 91.67 267.32 71.88 Z" />
<path fill="#3c3c3c" d=" M 383.63 72.86 C 383.91 72.63 384.49 72.17 384.77 71.94 C 384.85 73.28 384.92 74.62 385.01 75.96 C 384.87 79.28 384.09 82.54 382.94 85.65 C 379.39 92.55 373.03 97.44 366.58 101.46 C 358.08 106.92 348.08 108.92 338.65 112.10 C 338.13 111.89 337.09 111.45 336.58 111.24 C 351.28 107.58 366.74 102.88 377.36 91.42 C 382.14 86.61 384.72 79.62 383.63 72.86 Z" />
<path fill="#abaca9" d=" M 384.77 71.94 C 387.75 74.20 390.60 76.63 393.35 79.17 C 393.13 80.47 392.89 81.78 392.64 83.08 C 389.09 82.07 386.70 79.07 385.01 75.96 C 384.92 74.62 384.85 73.28 384.77 71.94 Z" />
<path fill="#272727" d=" M 109.57 95.32 C 107.77 88.63 107.55 81.01 111.66 75.09 C 111.63 79.72 112.17 84.32 112.42 88.93 C 111.59 88.34 110.75 87.75 109.91 87.16 C 109.74 89.88 109.56 92.60 109.57 95.32 Z" />
<path fill="#81827f" d=" M 423.37 77.63 C 424.00 83.23 424.27 88.94 423.51 94.53 C 421.15 107.38 414.94 119.68 405.60 128.86 C 401.72 129.36 399.46 133.01 396.02 134.52 L 396.13 132.67 C 408.65 123.08 418.25 109.37 421.65 93.86 L 422.01 92.76 C 423.96 87.95 422.79 82.66 423.37 77.63 Z" />
<path fill="#c8c8c8" d=" M 145.83 80.39 C 146.14 81.76 146.48 83.13 146.83 84.49 C 147.10 86.99 146.25 89.42 143.48 89.82 C 142.23 89.16 140.88 89.02 139.52 89.31 C 139.35 88.65 139.00 87.32 138.83 86.66 C 140.74 84.13 143.20 82.12 145.83 80.39 Z" />
<path fill="#030303" d=" M 417.65 89.83 C 418.32 86.80 419.06 83.78 419.92 80.80 C 421.07 85.06 421.34 89.48 421.65 93.86 C 418.25 109.37 408.65 123.08 396.13 132.67 C 382.80 142.35 367.56 149.40 351.45 152.90 C 348.95 152.73 346.46 152.55 343.96 152.44 C 348.51 150.91 353.10 149.44 357.39 147.25 C 371.17 142.58 384.64 136.27 395.79 126.78 C 407.08 117.54 415.03 104.18 417.65 89.83 Z" />
<path fill="#dedfe0" d=" M 143.48 89.82 C 146.25 89.42 147.10 86.99 146.83 84.49 C 148.36 87.92 150.71 90.89 153.30 93.56 C 152.07 94.93 150.83 96.30 149.59 97.67 C 148.58 96.52 147.58 95.36 146.57 94.21 C 146.37 94.79 145.97 95.96 145.76 96.55 C 144.82 96.13 143.87 95.71 142.93 95.30 C 142.92 95.72 142.90 96.56 142.89 96.99 C 140.74 94.68 139.02 92.01 137.61 89.19 C 137.91 88.55 138.52 87.29 138.83 86.66 C 139.00 87.32 139.35 88.65 139.52 89.31 C 140.88 89.02 142.23 89.16 143.48 89.82 Z" />
<path fill="#e9ebeb" d=" M 382.94 85.65 C 384.74 87.73 386.68 89.79 389.30 90.84 C 389.97 90.05 390.66 89.26 391.36 88.50 C 391.69 88.53 392.35 88.59 392.67 88.62 C 388.76 97.25 381.29 103.61 373.35 108.44 C 361.52 115.85 347.90 119.40 334.44 122.53 C 333.86 122.53 332.70 122.52 332.12 122.52 C 330.81 121.18 329.58 119.77 328.52 118.24 C 328.56 117.85 328.64 117.07 328.68 116.69 C 329.90 118.37 331.18 120.01 332.59 121.54 C 337.61 121.93 338.61 116.25 337.28 112.55 C 337.62 112.44 338.31 112.21 338.65 112.10 C 348.08 108.92 358.08 106.92 366.58 101.46 C 373.03 97.44 379.39 92.55 382.94 85.65 Z" />
<path fill="#030403" d=" M 109.91 87.16 C 110.75 87.75 111.59 88.34 112.42 88.93 C 114.26 101.56 120.90 113.20 129.67 122.34 C 143.34 135.93 161.46 143.79 179.70 149.17 C 184.99 151.60 190.68 152.96 196.14 154.94 C 190.97 155.62 185.87 153.73 180.69 153.75 C 168.81 150.75 157.05 146.80 146.44 140.57 C 144.55 139.49 142.57 138.58 140.59 137.68 C 128.39 129.80 118.24 118.63 112.27 105.33 C 111.57 101.94 110.47 98.66 109.57 95.32 C 109.56 92.60 109.74 89.88 109.91 87.16 Z" />
<path fill="#60605f" d=" M 392.67 88.62 L 393.02 88.77 C 393.65 89.54 394.27 90.31 394.88 91.10 C 393.36 95.65 389.52 98.52 386.22 101.72 C 386.77 102.59 387.32 103.46 387.88 104.33 C 386.39 104.38 384.90 104.43 383.41 104.48 C 379.41 108.84 376.26 114.47 370.56 116.86 C 370.34 117.97 370.13 119.09 369.92 120.21 C 365.85 119.83 362.26 121.65 359.44 124.45 C 352.76 128.56 345.03 130.58 337.87 133.70 C 330.62 136.97 322.78 138.38 315.13 140.33 C 312.17 141.01 309.20 143.19 306.13 141.75 C 305.68 143.58 305.23 145.41 304.78 147.25 C 302.79 142.40 301.48 137.31 299.33 132.53 C 300.02 132.77 300.72 133.00 301.41 133.24 C 304.62 131.19 308.53 131.12 312.12 130.23 C 317.95 128.86 323.63 126.94 329.44 125.46 C 331.39 125.04 332.99 123.85 334.44 122.53 C 347.90 119.40 361.52 115.85 373.35 108.44 C 381.29 103.61 388.76 97.25 392.67 88.62 Z" />
<path fill="#8d8d8b" d=" M 106.71 93.68 C 106.96 93.46 107.45 93.00 107.69 92.78 C 108.61 97.14 109.44 101.74 112.27 105.33 C 118.24 118.63 128.39 129.80 140.59 137.68 C 141.73 138.79 142.81 139.99 144.17 140.86 C 163.87 152.35 186.44 157.41 208.74 161.04 C 213.81 162.08 219.03 162.20 224.03 163.60 C 224.48 164.41 225.37 166.03 225.82 166.84 C 215.83 165.68 205.89 164.07 196.04 162.03 C 173.58 157.62 150.80 150.70 132.61 136.29 C 119.34 125.83 108.98 110.66 106.71 93.68 Z" />
<path fill="#eaecec" d=" M 146.57 94.21 C 147.58 95.36 148.58 96.52 149.59 97.67 C 150.83 96.30 152.07 94.93 153.30 93.56 C 158.55 98.59 164.81 102.51 171.45 105.43 C 178.91 108.53 186.81 110.35 194.46 112.93 C 193.88 113.27 192.71 113.96 192.13 114.31 C 192.61 116.67 192.20 120.01 194.86 121.16 C 195.56 121.03 196.96 120.77 197.66 120.63 C 198.39 121.18 199.10 121.75 199.79 122.35 C 197.09 122.48 194.39 122.15 191.78 121.48 C 173.92 117.45 155.51 110.88 142.89 96.99 C 142.90 96.56 142.92 95.72 142.93 95.30 C 143.87 95.71 144.82 96.13 145.76 96.55 C 145.97 95.96 146.37 94.79 146.57 94.21 Z" />
<path fill="#9b9a97" d=" M 314.55 94.38 C 320.44 99.71 323.71 107.48 330.56 111.80 C 331.09 111.37 332.14 110.51 332.66 110.07 C 333.49 111.01 334.34 111.92 335.20 112.84 L 335.47 111.48 C 335.75 111.42 336.30 111.30 336.58 111.24 C 337.09 111.45 338.13 111.89 338.65 112.10 C 338.31 112.21 337.62 112.44 337.28 112.55 C 336.70 112.74 335.54 113.11 334.96 113.30 C 334.31 114.89 333.76 116.52 333.30 118.18 C 333.32 117.21 333.36 115.29 333.38 114.32 C 331.72 114.98 330.07 115.64 328.42 116.32 C 324.28 110.91 319.63 105.92 315.47 100.53 C 315.35 98.46 315.08 96.39 314.55 94.38 Z" />
<path fill="#cfd0d0" d=" M 308.65 95.88 C 310.04 97.23 311.42 98.59 312.81 99.94 C 312.88 99.46 313.02 98.50 313.09 98.02 C 313.88 98.86 314.67 99.69 315.47 100.53 C 319.63 105.92 324.28 110.91 328.42 116.32 L 328.68 116.69 C 328.64 117.07 328.56 117.85 328.52 118.24 C 326.47 116.17 324.48 114.04 322.57 111.84 C 321.14 110.20 319.73 108.54 318.27 106.94 C 317.26 105.87 316.24 104.83 315.23 103.78 C 314.72 104.49 314.23 105.20 313.75 105.92 C 306.21 107.61 298.43 108.06 291.01 110.33 C 291.23 111.55 291.44 112.78 291.71 113.99 C 292.54 116.68 293.55 119.30 294.58 121.92 C 295.13 123.29 295.70 124.66 296.25 126.03 C 296.89 127.67 297.53 129.31 298.22 130.93 L 298.18 132.78 C 295.93 128.96 294.36 124.80 292.85 120.65 C 291.84 117.84 290.73 115.08 289.66 112.30 C 289.30 109.94 289.39 107.55 289.67 105.19 C 290.72 105.58 291.78 105.98 292.84 106.38 C 296.91 103.59 301.87 103.70 306.59 103.57 C 307.82 102.64 309.12 101.78 310.52 101.10 C 309.88 99.37 309.25 97.63 308.65 95.88 Z" />
<path fill="#c2c2c2" d=" M 313.75 105.92 C 314.23 105.20 314.72 104.49 315.23 103.78 C 316.24 104.83 317.26 105.87 318.27 106.94 C 314.69 110.36 309.64 111.20 304.91 111.76 C 300.47 112.22 296.08 113.06 291.71 113.99 C 291.44 112.78 291.23 111.55 291.01 110.33 C 298.43 108.06 306.21 107.61 313.75 105.92 Z" />
<path fill="#b0b0b0" d=" M 304.91 111.76 C 309.64 111.20 314.69 110.36 318.27 106.94 C 319.73 108.54 321.14 110.20 322.57 111.84 C 321.31 113.64 319.65 115.13 317.37 115.32 C 310.38 116.63 303.62 119.32 296.51 119.86 C 295.86 120.54 295.22 121.23 294.58 121.92 C 293.55 119.30 292.54 116.68 291.71 113.99 C 296.08 113.06 300.47 112.22 304.91 111.76 Z" />
<path fill="#c7c7c7" d=" M 194.46 112.93 C 195.63 112.17 196.70 111.26 197.66 110.25 C 199.51 111.26 201.36 112.27 203.21 113.28 C 202.36 114.87 201.48 116.46 200.32 117.84 C 199.39 116.49 198.39 115.18 197.39 113.88 C 197.44 116.13 197.54 118.38 197.66 120.63 C 196.96 120.77 195.56 121.03 194.86 121.16 C 192.20 120.01 192.61 116.67 192.13 114.31 C 192.71 113.96 193.88 113.27 194.46 112.93 Z" />
<path fill="#b0b0b0" d=" M 201.76 119.16 C 203.97 116.47 205.88 113.18 209.05 111.54 C 218.51 113.54 228.14 115.01 237.86 114.35 C 236.87 118.03 235.49 121.67 235.61 125.53 C 233.88 130.66 231.37 135.48 229.56 140.57 C 229.61 137.81 230.23 135.10 231.33 132.57 C 231.74 131.53 232.14 130.49 232.54 129.45 C 233.15 127.82 233.70 126.18 234.26 124.55 C 223.61 121.67 212.48 121.64 201.76 119.16 Z" />
<path fill="#979797" d=" M 322.57 111.84 C 324.48 114.04 326.47 116.17 328.52 118.24 C 317.78 120.92 306.98 123.34 296.25 126.03 C 295.70 124.66 295.13 123.29 294.58 121.92 C 295.22 121.23 295.86 120.54 296.51 119.86 C 303.62 119.32 310.38 116.63 317.37 115.32 C 319.65 115.13 321.31 113.64 322.57 111.84 Z" />
<path fill="#cbcbcb" d=" M 334.96 113.30 C 335.54 113.11 336.70 112.74 337.28 112.55 C 338.61 116.25 337.61 121.93 332.59 121.54 C 332.77 120.70 333.12 119.02 333.30 118.18 C 333.76 116.52 334.31 114.89 334.96 113.30 Z" />
<path fill="#929291" d=" M 197.39 113.88 C 198.39 115.18 199.39 116.49 200.32 117.84 C 199.77 118.46 198.67 119.69 198.12 120.31 C 198.79 120.18 200.13 119.92 200.80 119.78 C 201.04 119.63 201.52 119.31 201.76 119.16 C 212.48 121.64 223.61 121.67 234.26 124.55 C 233.70 126.18 233.15 127.82 232.54 129.45 C 221.29 128.09 210.07 125.97 198.75 125.41 C 198.61 124.98 198.35 124.11 198.21 123.67 C 197.30 124.25 196.38 124.82 195.46 125.40 C 194.21 124.12 192.99 122.80 191.78 121.48 C 194.39 122.15 197.09 122.48 199.79 122.35 C 199.10 121.75 198.39 121.18 197.66 120.63 C 197.54 118.38 197.44 116.13 197.39 113.88 Z" />
<path fill="#b4b7b6" d=" M 287.76 113.62 C 289.43 116.70 290.72 119.95 292.00 123.20 C 295.13 131.93 298.88 140.56 300.39 149.76 C 300.84 151.25 299.76 152.50 299.18 153.76 C 296.20 146.12 293.00 138.57 290.20 130.86 C 290.91 130.11 291.38 129.19 291.01 128.17 C 290.05 123.29 287.98 118.65 287.76 113.62 Z" />
<path fill="#767673" d=" M 328.42 116.32 C 330.07 115.64 331.72 114.98 333.38 114.32 C 333.36 115.29 333.32 117.21 333.30 118.18 C 333.12 119.02 332.77 120.70 332.59 121.54 C 331.18 120.01 329.90 118.37 328.68 116.69 L 328.42 116.32 Z" />
<path fill="#7d7e7d" d=" M 296.25 126.03 C 306.98 123.34 317.78 120.92 328.52 118.24 C 329.58 119.77 330.81 121.18 332.12 122.52 C 332.70 122.52 333.86 122.53 334.44 122.53 C 332.99 123.85 331.39 125.04 329.44 125.46 C 323.63 126.94 317.95 128.86 312.12 130.23 C 308.53 131.12 304.62 131.19 301.41 133.24 C 300.72 133.00 300.02 132.77 299.33 132.53 C 298.96 131.99 298.59 131.46 298.22 130.93 C 297.53 129.31 296.89 127.67 296.25 126.03 Z" />
<path fill="#888a89" d=" M 292.00 123.20 C 292.22 122.56 292.64 121.29 292.85 120.65 C 294.36 124.80 295.93 128.96 298.18 132.78 L 298.22 130.93 C 298.59 131.46 298.96 131.99 299.33 132.53 C 301.48 137.31 302.79 142.40 304.78 147.25 C 305.26 148.43 305.77 149.61 306.29 150.79 C 306.25 151.33 306.19 152.41 306.15 152.95 C 305.53 152.40 304.91 151.85 304.29 151.30 C 304.24 154.63 303.83 157.94 303.08 161.18 C 302.83 161.07 302.33 160.84 302.08 160.73 C 300.98 158.46 300.06 156.12 299.18 153.76 C 299.76 152.50 300.84 151.25 300.39 149.76 C 298.88 140.56 295.13 131.93 292.00 123.20 Z" />
<path fill="#b3b5b3" d=" M 396.02 134.52 C 399.46 133.01 401.72 129.36 405.60 128.86 C 394.33 140.80 379.46 148.66 364.11 154.08 C 348.14 159.59 331.48 162.78 314.82 165.38 C 311.45 165.86 308.05 166.20 304.70 166.80 C 305.31 165.69 305.92 164.59 306.53 163.48 C 329.98 159.70 353.95 156.37 375.72 146.33 C 382.99 143.31 389.50 138.86 396.02 134.52 Z" />
<path fill="#626262" d=" M 351.45 152.90 C 367.56 149.40 382.80 142.35 396.13 132.67 L 396.02 134.52 C 389.50 138.86 382.99 143.31 375.72 146.33 C 353.95 156.37 329.98 159.70 306.53 163.48 C 305.92 164.59 305.31 165.69 304.70 166.80 C 308.05 166.20 311.45 165.86 314.82 165.38 C 314.89 165.76 315.02 166.52 315.08 166.90 C 311.15 167.36 307.24 168.18 303.26 168.09 C 302.32 165.37 301.23 162.71 300.39 159.97 C 300.81 160.16 301.66 160.54 302.08 160.73 C 302.33 160.84 302.83 161.07 303.08 161.18 C 303.83 157.94 304.24 154.63 304.29 151.30 C 304.91 151.85 305.53 152.40 306.15 152.95 C 306.19 152.41 306.25 151.33 306.29 150.79 C 308.04 153.91 308.95 157.39 309.21 160.95 C 319.25 159.36 329.47 158.66 339.33 156.07 C 343.40 155.16 347.55 154.48 351.45 152.90 Z" />
<path fill="#272727" d=" M 342.86 150.82 C 347.69 149.56 352.36 147.58 357.39 147.25 C 353.10 149.44 348.51 150.91 343.96 152.44 C 346.46 152.55 348.95 152.73 351.45 152.90 C 347.55 154.48 343.40 155.16 339.33 156.07 C 334.85 156.48 330.35 156.64 325.85 156.67 C 331.12 153.67 337.10 152.48 342.86 150.82 Z" />
<path fill="#2a2a2a" d=" M 179.70 149.17 C 187.57 149.78 194.98 152.76 202.72 154.09 C 204.93 155.06 207.03 156.27 209.09 157.53 C 205.99 157.66 202.89 157.84 199.79 157.91 C 193.42 156.56 186.79 156.21 180.69 153.75 C 185.87 153.73 190.97 155.62 196.14 154.94 C 190.68 152.96 184.99 151.60 179.70 149.17 Z" />
<path fill="#3c3c3c" d=" M 202.72 154.09 C 208.31 154.59 213.92 155.22 219.36 156.62 C 221.18 156.78 221.60 158.65 222.19 160.03 C 214.69 160.26 207.17 159.16 199.79 157.91 C 202.89 157.84 205.99 157.66 209.09 157.53 C 207.03 156.27 204.93 155.06 202.72 154.09 Z" />
<path fill="#222121" d=" M 287.28 222.58 C 292.69 222.76 298.09 222.48 303.50 222.69 C 304.91 222.57 305.41 224.17 305.84 225.21 C 310.20 236.83 314.61 248.43 318.98 260.04 C 319.73 262.15 320.42 264.31 321.59 266.25 C 321.78 251.72 321.63 237.18 321.67 222.66 C 325.17 222.63 328.67 222.62 332.17 222.65 C 332.21 240.97 332.06 259.28 332.25 277.60 C 326.30 277.82 320.34 277.71 314.39 277.66 C 308.50 262.96 303.19 247.98 297.43 233.27 C 297.90 248.06 297.55 262.89 297.67 277.70 C 294.15 277.69 290.64 277.74 287.12 277.64 C 287.34 259.29 287.02 240.93 287.28 222.58 Z" />
<path fill="#222121" d=" M 4.56 222.63 C 8.91 222.62 13.25 222.64 17.60 222.62 C 17.67 240.98 17.64 259.34 17.61 277.70 C 13.23 277.68 8.84 277.78 4.46 277.63 C 4.63 259.29 4.43 240.96 4.56 222.63 Z" />
<path fill="#222121" d=" M 62.83 222.68 C 68.67 222.63 74.52 222.57 80.36 222.70 C 83.95 230.65 86.56 239.02 89.81 247.11 C 92.12 253.55 94.86 259.84 96.87 266.38 C 97.06 266.45 97.44 266.60 97.63 266.67 L 98.71 267.08 C 99.25 252.28 98.72 237.46 98.94 222.65 C 101.90 222.63 104.86 222.63 107.82 222.63 C 107.88 240.98 107.85 259.33 107.83 277.68 C 101.85 277.63 95.85 277.95 89.88 277.49 C 84.52 262.85 78.73 248.36 73.47 233.68 C 73.15 248.33 73.32 263.00 73.38 277.65 C 69.82 277.70 66.26 277.81 62.72 277.53 C 62.84 259.25 62.63 240.96 62.83 222.68 Z" />
<path fill="#0d0c0c" d=" M 97.51 222.66 L 98.94 222.65 C 98.72 237.46 99.25 252.28 98.71 267.08 L 97.63 266.67 C 97.37 252.00 97.62 237.33 97.51 222.66 Z" />
<path fill="#030303" d=" M 151.64 222.73 C 152.13 222.71 153.11 222.65 153.60 222.62 C 153.01 224.68 152.54 226.80 152.62 228.96 C 152.83 244.73 152.60 260.50 152.75 276.27 C 156.50 276.38 160.26 276.44 164.00 276.69 L 163.47 277.51 C 159.52 277.81 155.55 277.53 151.59 277.63 C 151.70 259.33 151.62 241.03 151.64 222.73 Z" />
<path fill="#222121" d=" M 153.60 222.62 C 164.45 222.70 175.31 222.52 186.16 222.72 C 186.15 226.08 186.17 229.45 186.10 232.81 C 178.79 232.85 171.47 232.88 164.16 232.79 C 163.62 236.56 163.95 240.37 163.87 244.16 C 171.13 244.12 178.39 244.15 185.65 244.14 C 185.65 247.59 185.69 251.04 185.59 254.49 C 178.31 254.46 171.03 254.31 163.75 254.58 C 164.10 261.95 163.64 269.33 164.00 276.69 C 160.26 276.44 156.50 276.38 152.75 276.27 C 152.60 260.50 152.83 244.73 152.62 228.96 C 152.54 226.80 153.01 224.68 153.60 222.62 Z" />
<path fill="#222021" d=" M 228.54 222.64 C 232.89 222.60 237.23 222.65 241.58 222.63 C 241.74 240.99 241.60 259.35 241.65 277.71 C 237.26 277.68 232.87 277.75 228.48 277.66 C 228.63 259.32 228.51 240.98 228.54 222.64 Z" />
<path fill="#222121" d=" M 377.15 222.64 C 381.53 222.63 385.91 222.61 390.30 222.67 C 390.30 241.00 390.22 259.32 390.34 277.65 C 385.95 277.74 381.55 277.70 377.16 277.72 C 377.08 259.36 377.11 241.00 377.15 222.64 Z" />
<path fill="#222121" d=" M 431.75 222.64 C 444.97 222.73 458.19 222.43 471.41 222.79 C 471.43 225.90 471.44 229.02 471.41 232.14 C 466.98 232.04 462.55 231.85 458.14 232.29 L 457.90 233.44 C 457.86 248.18 457.95 262.94 457.86 277.69 C 453.70 277.69 449.53 277.71 445.37 277.72 C 445.35 262.92 445.36 248.12 445.37 233.32 C 441.39 230.81 436.23 232.54 431.77 232.17 C 431.77 228.99 431.78 225.81 431.75 222.64 Z" />
<path fill="#222121" d=" M 512.58 222.69 C 516.98 222.61 521.38 222.59 525.79 222.71 C 525.67 241.04 525.76 259.37 525.74 277.70 C 521.34 277.71 516.94 277.75 512.54 277.66 C 512.64 259.34 512.54 241.02 512.58 222.69 Z" />
<path fill="#0f0d0d" d=" M 431.77 232.17 C 436.23 232.54 441.39 230.81 445.37 233.32 C 440.83 233.59 436.28 233.39 431.74 233.45 L 431.77 232.17 Z" />
<path fill="#0e0c0d" d=" M 458.14 232.29 C 462.55 231.85 466.98 232.04 471.41 232.14 L 471.45 233.36 C 466.93 233.52 462.41 233.44 457.90 233.44 L 458.14 232.29 Z" />
<path fill="#272727" d=" M 558.41 266.42 C 563.06 264.92 568.44 269.07 567.85 274.00 C 568.00 279.63 560.54 283.41 556.13 279.80 C 551.04 276.55 552.51 267.84 558.41 266.42 Z" />
<path fill="#ffffff" d=" M 557.44 268.40 C 560.98 266.14 566.21 268.80 566.27 273.07 C 566.97 277.23 562.40 281.03 558.46 279.41 C 553.82 277.90 553.20 270.77 557.44 268.40 Z" />
<path fill="#222121" d=" M 558.19 269.39 C 559.94 269.55 562.33 268.92 563.24 270.95 C 563.70 272.49 562.37 273.59 561.59 274.71 C 562.15 275.39 563.29 276.76 563.85 277.44 C 561.38 278.57 561.08 275.12 559.28 274.27 C 559.36 275.07 559.52 276.69 559.61 277.49 L 558.00 277.69 C 558.17 274.92 558.19 272.15 558.19 269.39 Z" />
<path fill="#ffffff" d=" M 559.63 271.09 C 561.21 270.45 561.79 270.98 561.36 272.66 C 559.76 273.28 559.18 272.75 559.63 271.09 Z" />
</svg>
