<?xml version="1.0" encoding="UTF-8" standalone="no"?>
<!-- Created with Inkscape (http://www.inkscape.org/) -->
<svg
   xmlns:svg="http://www.w3.org/2000/svg"
   xmlns="http://www.w3.org/2000/svg"
   version="1.0"
   width="602.36218"
   height="132.34251"
   viewBox="0 0 602.36218 132.34251"
   id="svg2433">
  <defs
     id="defs2435" />
  <g
     id="layer1">
    <g
       transform="matrix(3.543307e-5,0,0,3.543307e-5,4.689902e-5,2.301944e-3)"
       style="fill:#dc261c;fill-opacity:1;fill-rule:evenodd"
       id="Layer_x0020_1">
  
  <path
   d="M 1331180,3176640 C 1378090,3176640 1415610,3139120 1415610,3092210 L 1415770,589110 C 1415770,542210 1377930,504040 1331180,504040 L 584430,504040 C 538010,504040 500650,541720 500000,587980 L 500000,3092210 C 500000,3138950 537520,3176640 584270,3176640 L 1331180,3176640 L 1331180,3176640 z M 3932120,1585270 L 2967180,1219580 C 2893590,1152780 3000170,1137420 3000170,1137420 L 5040200,1137420 C 5086780,1137420 5124470,1099240 5124470,1052500 L 5124630,591380 C 5124630,544640 5086780,506300 5040040,506300 L 2724080,506300 C 2724080,506300 1979440,473320 1946280,1213270 C 1946280,1213270 1905850,1571690 2369720,1801520 L 2372140,1801520 L 3580010,2256340 L 4061510,2429720 C 4404560,2554750 4224060,2583860 4224060,2583860 L 4070080,2583860 L 2140370,2581600 C 2093630,2581600 2055300,2619280 2055300,2666020 L 2055300,3125370 C 2055300,3172110 2093470,3210440 2140370,3210440 L 4560800,3210280 C 5273920,3210280 5273920,2547950 5273920,2547950 C 5273920,2044620 4799210,1901960 4799210,1901960 L 3932120,1585270 z M 10535960,2592920 C 10535960,2592920 10337840,2577070 10656290,2448000 L 12234550,1754780 L 12361680,1687980 C 12738380,1482570 12758270,1148250 12758270,1148250 C 12758430,486420 11940020,506300 11940020,506300 L 9566500,506300 C 9519750,506300 9482070,546900 9482070,593640 L 9482070,1063820 C 9482070,1112830 9519590,1150520 9566500,1150520 L 11657140,1150520 C 11657140,1150520 11766640,1168310 11690780,1235590 L 9956780,1977330 C 9956780,1977330 9363840,2200370 9363840,2659720 C 9364000,2659720 9301080,3234870 10123850,3234870 L 12600410,3234870 C 12646990,3234870 12686940,3196700 12686940,3147690 L 12686940,2677350 C 12686940,2630600 12646990,2590650 12600250,2590650 L 10535960,2592920 z M 7362460,3228070 C 7962030,3221120 8360880,3118570 8360880,3118570 C 9000570,2973490 8940560,2396730 8940560,2396730 L 8940560,589110 C 8940560,539950 8899960,501780 8853220,501780 L 8110990,501780 C 8064090,501780 8026400,540110 8026400,586850 L 8026400,2242590 C 8026400,2242590 8021880,2534850 7431360,2557010 L 7264120,2557010 C 6673610,2534690 6669080,2242590 6669080,2242590 L 6669080,586850 C 6669080,539950 6631390,501780 6584490,501780 L 5842430,501780 C 5795530,501780 5754930,540110 5754930,589110 L 5755090,2396730 C 5755090,2396730 5695090,2973650 6334610,3118570 C 6334770,3118410 6733450,3221280 7333190,3228070 L 7362460,3228070 z M 14917980,3228070 C 15519810,3221120 15918670,3118570 15918670,3118570 C 16558510,2973490 16498500,2396730 16498500,2396730 L 16498500,589110 C 16498500,539950 16460170,500160 16411160,500160 L 15671200,500000 L 15669260,500000 L 15666840,500000 L 15664890,500000 C 15619280,503550 15586610,542530 15586610,586850 L 15584350,2240320 C 15584350,2240320 15579820,2534850 14989310,2557010 L 14822070,2557010 C 14231560,2534690 14227030,2240320 14227030,2240320 L 14227030,586850 C 14227030,539950 14189350,500160 14142440,500160 L 13400380,500000 L 13398440,500000 L 13396330,500000 L 13394390,500000 C 13350240,503550 13313520,542530 13313520,589110 L 13313520,2396730 C 13313520,2396730 13253030,2973650 13892550,3118570 C 13892720,3118410 14291410,3221280 14893390,3228070 L 14917980,3228070 z "
   style="fill:#dc261c;fill-opacity:1"
   id="path2428" />

 </g>
  </g>
</svg>
