<?xml version="1.0" encoding="utf-8"?>
<!-- Generator: Adobe Illustrator 12.0.0, SVG Export Plug-In . SVG Version: 6.00 Build 51448)  -->
<!DOCTYPE svg PUBLIC "-//W3C//DTD SVG 1.1//EN" "http://www.w3.org/Graphics/SVG/1.1/DTD/svg11.dtd" [
	<!ENTITY ns_svg "http://www.w3.org/2000/svg">
	<!ENTITY ns_xlink "http://www.w3.org/1999/xlink">
]>
<svg  version="1.1" id="Layer_1" xmlns="&ns_svg;" xmlns:xlink="&ns_xlink;" width="168.929" height="37.216"
	 viewBox="0 0 168.929 37.216" overflow="visible" enable-background="new 0 0 168.929 37.216" xml:space="preserve">
<g>
	<path fill-rule="evenodd" clip-rule="evenodd" fill="#003A80" d="M149.326,8.883c2.757,0.153,4.747,2.144,5.054,4.748
		c0.153,1.378,0.153,3.522,0.153,4.9c0,1.685,0,3.063-0.153,4.441c-0.46,3.217-2.757,5.055-5.054,5.055h-1.838h-2.145
		c-2.144,0-4.595-1.838-5.054-5.055c-0.153-1.378-0.153-2.757-0.153-4.288s0-3.675,0.153-5.054c0.306-2.604,2.45-4.595,5.207-4.748
		c0.612-0.153,1.072-0.153,1.838-0.153L149.326,8.883L149.326,8.883z M147.793,0c2.91,0,5.667,0.153,7.965,0.459
		c6.432,0.766,11.64,5.82,12.711,12.1c0.153,1.072,0.46,3.522,0.46,5.973c0,2.604-0.307,5.054-0.46,5.973
		c-1.071,6.433-6.279,11.334-12.711,12.253c-2.298,0.153-5.055,0.459-7.965,0.459h-0.919c-3.063,0-5.666-0.306-8.117-0.459
		c-6.432-0.919-11.486-5.82-12.559-12.253c-0.153-0.919-0.459-3.369-0.459-5.973c0-2.45,0.306-4.9,0.459-5.973
		c1.072-6.28,6.127-11.333,12.559-12.1C141.208,0.153,143.812,0,146.721,0H147.793L147.793,0z"/>
	<path fill-rule="evenodd" clip-rule="evenodd" fill="#003A80" d="M92.505,18.531c0-1.991,0.153-3.981,0.612-5.973
		c1.072-6.28,6.126-11.333,12.559-12.1C107.974,0.153,110.731,0,113.64,0c3.217,0,6.127,0.153,8.577,0.459
		c0.919,0.153,1.531,0.919,1.531,1.838v5.513c0,1.072-0.766,1.838-1.685,1.838c0,0-2.91-0.154-4.441-0.154
		c-1.838,0-3.369,0-5.055,0.154c-2.756,0.153-4.747,2.144-5.054,4.748c-0.153,1.378-0.307,2.757-0.307,4.135v0.153
		c0,1.379,0.153,2.757,0.307,4.135c0.307,2.604,2.145,4.595,5.054,4.901c1.532,0.153,3.37,0.307,5.055,0.307
		c1.531,0,4.441-0.153,4.441-0.153c0.919,0,1.685,0.766,1.685,1.838v5.514c0,0.919-0.612,1.685-1.531,1.838
		c-2.45,0-5.36,0.152-8.577,0.152c-2.909,0-5.666-0.306-7.964-0.459c-6.433-0.919-11.486-5.82-12.559-12.253
		c-0.459-1.837-0.612-3.828-0.612-5.819C92.505,12.405,92.505,24.812,92.505,18.531L92.505,18.531z"/>
	<path fill-rule="evenodd" clip-rule="evenodd" fill="#003A80" d="M88.371,27.567c1.071,0,1.837,0.919,1.837,1.838v5.514
		c0,1.072-0.766,1.838-1.837,1.838H66.469c-3.982,0-7.198-3.216-7.198-7.198V7.811c0-3.981,3.216-7.198,7.198-7.198h21.901
		c1.071,0,1.837,0.766,1.837,1.685v5.36c0,1.073-0.766,1.838-1.837,1.838H74.893c-1.072,0-1.838,0.613-1.838,1.685v3.37
		l11.487-0.153c0.918,0,1.837,0.919,1.837,1.838v4.595c0,1.072-0.919,1.838-1.837,1.838H73.055v3.063
		c0,1.072,0.766,1.838,1.838,1.838H88.371L88.371,27.567z"/>
	<path fill-rule="evenodd" clip-rule="evenodd" fill="#003A80" d="M32.622,36.757c-3.216,0-5.973-2.145-6.892-5.055L18.226,2.757
		c0-0.153,0-0.306,0-0.459c0-0.919,0.766-1.685,1.838-1.685h11.18c0.919,0,1.685,0.613,1.837,1.378l5.82,24.199
		c0,0.307,0.307,0.612,0.766,0.612c0.306,0,0.612-0.306,0.612-0.612l5.973-24.199c0.153-0.766,0.919-1.378,1.685-1.378h6.279
		c1.072,0,1.838,0.766,1.838,1.685c0,0.153,0,0.306,0,0.459l-7.198,28.334c-0.766,3.216-3.37,5.666-7.045,5.666H32.622
		L32.622,36.757z"/>
	<path fill-rule="evenodd" clip-rule="evenodd" fill="#003A80" d="M1.838,0.612h10.874c1.072,0,1.838,0.766,1.838,1.685v32.622
		c0,1.072-0.766,1.838-1.838,1.838H1.838C0.919,36.757,0,35.991,0,34.919V2.297C0,1.378,0.919,0.612,1.838,0.612L1.838,0.612z"/>
</g>
</svg>
