<?xml version="1.0" encoding="UTF-8" standalone="no"?>
<!-- Created with Inkscape (http://www.inkscape.org/) -->
<svg
   xmlns:svg="http://www.w3.org/2000/svg"
   xmlns="http://www.w3.org/2000/svg"
   version="1.0"
   width="800"
   height="316.461"
   viewBox="0 0 800 316.461"
   id="Layer_1"
   xml:space="preserve"><defs
   id="defs22" />
<g
   id="g3">
	<path
   d="M 137.677,0 L 202.794,0 L 202.794,168.978 C 202.794,198.082 190.19,258.949 99.973,258.949 C 9.778,258.948 0,202.215 0,170.271 L 0,139.137 L 62.948,139.137 L 62.948,169.658 C 62.948,188.332 75.364,205.67 99.293,205.67 C 123.07,205.67 137.676,192.488 137.676,170.272 L 137.676,0 L 137.677,0 z "
   style="fill:#424d07"
   id="path5" />
	<path
   d="M 303.474,70.623 C 354.476,70.623 399.385,90.05 399.385,179.254 L 278.31,179.254 C 278.31,207.722 290.227,219.474 311.206,219.474 C 332.093,219.474 339.133,202.931 339.133,202.931 L 398.641,202.931 C 398.641,228.522 362.983,263.068 309.061,262.526 C 247.543,262.526 217.377,217.407 217.377,171.102 C 217.377,124.711 244.104,70.623 303.474,70.623 M 339.907,143.328 C 339.907,126.026 330.121,109.375 307.717,109.375 C 285.964,109.375 278.311,124.711 278.311,143.328 L 339.907,143.328 z "
   style="fill:#424d07"
   id="path7" />
	<path
   d="M 497.95,70.623 C 549.016,70.623 593.84,90.05 593.84,179.254 L 472.805,179.254 C 472.805,207.722 484.68,219.474 505.667,219.474 C 526.713,219.474 533.629,202.931 533.629,202.931 L 593.066,202.931 C 593.066,228.522 557.486,263.068 503.593,262.526 C 441.975,262.526 411.816,217.407 411.816,171.102 C 411.816,124.711 438.426,70.623 497.95,70.623 M 534.388,143.328 C 534.388,126.026 524.545,109.375 502.184,109.375 C 480.446,109.375 472.805,124.711 472.805,143.328 L 534.388,143.328 z "
   style="fill:#424d07"
   id="path9" />
	<path
   d="M 609.146,316.461 L 609.146,77.562 L 669.305,77.562 L 669.305,104.708 C 671.4,100.19 672.961,97.04 677.615,91.374 C 681.648,86.538 692.967,72.69 723.103,72.69 C 753.154,72.69 800,93.454 800,166.918 C 800,223.681 772.088,265.223 723.804,265.223 C 697.172,265.223 685.291,256.043 678.309,250.732 C 673.843,247.234 672.455,245.593 670.005,242.327 L 670.005,316.463 L 609.146,316.463 L 609.146,316.461 z M 668.539,168.978 C 667.859,204.303 675.557,222.892 704.935,222.892 C 734.255,222.892 738.563,191.144 738.563,166.917 C 738.563,142.648 732.882,119.16 702.117,119.16 C 683.303,119.16 669.305,133.629 668.539,168.978"
   style="fill:#424d07"
   id="path11" />
	<path
   d="M 137.677,0 L 202.794,0 L 202.794,168.978 C 202.794,198.082 190.19,258.949 99.973,258.949 C 9.778,258.948 0,202.215 0,170.271 L 0,139.137 L 62.948,139.137 L 62.948,169.658 C 62.948,188.332 75.364,205.67 99.293,205.67 C 123.07,205.67 137.676,192.488 137.676,170.272 L 137.676,0 L 137.677,0 z "
   style="fill:#424d07"
   id="path13" />
	<path
   d="M 303.474,70.623 C 354.476,70.623 399.385,90.05 399.385,179.254 L 278.31,179.254 C 278.31,207.722 290.227,219.474 311.206,219.474 C 332.093,219.474 339.133,202.931 339.133,202.931 L 398.641,202.931 C 398.641,228.522 362.983,263.068 309.061,262.526 C 247.543,262.526 217.377,217.407 217.377,171.102 C 217.377,124.711 244.104,70.623 303.474,70.623 M 339.907,143.328 C 339.907,126.026 330.121,109.375 307.717,109.375 C 285.964,109.375 278.311,124.711 278.311,143.328 L 339.907,143.328 z "
   style="fill:#424d07"
   id="path15" />
	<path
   d="M 497.95,70.623 C 549.016,70.623 593.84,90.05 593.84,179.254 L 472.805,179.254 C 472.805,207.722 484.68,219.474 505.667,219.474 C 526.713,219.474 533.629,202.931 533.629,202.931 L 593.066,202.931 C 593.066,228.522 557.486,263.068 503.593,262.526 C 441.975,262.526 411.816,217.407 411.816,171.102 C 411.816,124.711 438.426,70.623 497.95,70.623 M 534.388,143.328 C 534.388,126.026 524.545,109.375 502.184,109.375 C 480.446,109.375 472.805,124.711 472.805,143.328 L 534.388,143.328 z "
   style="fill:#424d07"
   id="path17" />
	<path
   d="M 609.146,316.461 L 609.146,77.562 L 669.305,77.562 L 669.305,104.708 C 671.4,100.19 672.961,97.04 677.615,91.374 C 681.648,86.538 692.967,72.69 723.103,72.69 C 753.154,72.69 800,93.454 800,166.918 C 800,223.681 772.088,265.223 723.804,265.223 C 697.172,265.223 685.291,256.043 678.309,250.732 C 673.843,247.234 672.455,245.593 670.005,242.327 L 670.005,316.463 L 609.146,316.463 L 609.146,316.461 z M 668.539,168.978 C 667.859,204.303 675.557,222.892 704.935,222.892 C 734.255,222.892 738.563,191.144 738.563,166.917 C 738.563,142.648 732.882,119.16 702.117,119.16 C 683.303,119.16 669.305,133.629 668.539,168.978"
   style="fill:#424d07"
   id="path19" />
</g>
</svg>