<?xml version="1.0" encoding="UTF-8"?>
<!DOCTYPE svg PUBLIC "-//W3C//DTD SVG 1.1//EN" "http://www.w3.org/Graphics/SVG/1.1/DTD/svg11.dtd">
<!-- Creator: CorelDRAW -->
<svg xmlns="http://www.w3.org/2000/svg" xml:space="preserve" width="137.241mm" height="172.74mm" style="shape-rendering:geometricPrecision; text-rendering:geometricPrecision; image-rendering:optimizeQuality; fill-rule:evenodd; clip-rule:evenodd"
viewBox="0 0 134.374 169.131"
 xmlns:xlink="http://www.w3.org/1999/xlink">
 <defs>
  <style type="text/css">
   <![CDATA[
    .str0 {stroke:#28166F;stroke-width:0.0746083}
    .fil1 {fill:#28166F}
    .fil0 {fill:white}
   ]]>
  </style>
 </defs>
 <g id="Ebene_x0020_1">
  <metadata id="CorelCorpID_0Corel-Layer"/>
  <polygon class="fil0 str0" points="130.592,139.649 130.592,160.576 125.525,165.349 10.3907,165.349 3.70877,160.65 3.70877,139.649 10.3907,133.481 125.452,133.481 "/>
  <path class="fil1 str0" d="M92.4827 129.737c-0.513837,-1.46867 -0.513837,-3.37793 -0.734137,-4.84631 0.440502,-2.79037 -1.68867,-1.68897 -3.59794,-1.61563 -0.734235,0.0736291 -2.2028,-0.366971 -3.01067,-1.3217 0.146965,-2.56977 -0.881102,-1.46837 -2.8637,-0.734137 -7.3071,2.74131 -3.25554,-6.28295 -8.88475,-8.22394 -3.35737,-8.75942 -5.91912,-5.99314 -9.03142,-12.8499 -0.514229,-1.02787 -7.48971,-2.4232 -10.941,-4.40571 -2.69892,-1.54651 -3.7031,1.21566 0.8812,4.47904 2.8637,2.05613 3.96511,2.6434 5.21347,9.17858 0.6609,3.23067 5.50711,3.45097 1.90927,-0.587467 3.96481,-0.513935 8.44415,2.71674 6.53488,6.82881 -1.68887,3.67157 -5.58044,4.55267 -8.66445,1.90927 -1.1014,-0.954731 -1.39504,-2.34977 -1.7623,-3.7449 -3.67147,-2.34977 -8.59111,-4.18541 -11.6015,-6.90214 -0.293929,-3.59813 -2.4231,-7.12244 -7.93031,-10.4267 -1.90917,-1.17503 -2.79037,-2.6434 -2.6434,-4.91993 0.146965,-4.03844 -3.59794,-6.97548 -7.34274,-11.0139 -4.10531,-4.43273 -2.32363,-15.1045 -1.46867,-22.2488 0.293929,-2.34957 1.25972,-3.62594 2.87506,-5.90237 0.734529,-4.33217 1.67761,-8.70958 3.21961,-12.6014 1.93952,-4.87196 0.452937,-10.259 3.37764,-12.2624 1.9825,-1.39504 1.1014,-3.59794 -0.6609,-4.84631 1.02807,-2.2028 3.81824,-2.49644 6.90224,-6.68194 -0.734235,-3.15734 0.587467,-3.59784 4.69934,-5.50711 5.58074,-2.71674 5.28681,-5.28681 6.75547,-8.00364 0.587271,-1.24837 1.7623,-1.7622 2.93704,-2.4231 0.112989,6.78749 0.417885,6.16164 6.31468,5.50711 -0.807571,1.90897 -0.146671,2.4232 2.79037,2.71684 -3.24771,4.33031 4.3639,5.06768 2.57007,0.513837 1.24807,0.2203 2.4232,0.587564 3.67127,0.734529 3.23097,0.366971 6.38831,0.440502 9.61918,0.734137 3.52431,0.367264 3.89157,1.542 4.11187,3.01067 0.241057,1.42882 7.34147,5.74728 -1.83564,5.43358 -4.33237,-0.146965 -5.36024,0.954437 -2.2029,2.34977 0.954535,0.4406 2.27624,-0.0736291 3.7449,0.366971 0.173401,1.04168 -3.00597,4.242 -4.55267,2.4231 -0.930351,-1.09406 -5.98903,-0.513837 -7.63638,-0.513837 -2.6434,2.6434 -4.33237,3.01037 -6.90224,2.6434 -5.93253,-0.835671 -2.02921,5.67512 -4.40571,13.0702 -0.660802,1.9826 -0.807766,3.59794 3.5246,2.8637 4.18541,-0.734431 5.43358,-0.2203 9.76595,1.83564 10.5948,-10.184 32.2911,0.656494 45.2313,-1.17474 -0.880906,1.46837 -2.34957,1.83564 -3.67127,1.9825 -2.49644,0.366971 -2.79037,1.542 -0.734137,2.56987 -1.28616,0.857407 -2.98139,0.850847 -4.25903,1.542 -0.8812,0.513935 -2.20261,0.807766 -4.62581,1.02807 -4.84621,0.4406 -3.45117,2.4231 -0.881102,3.15734 -3.23097,1.46867 -9.83948,1.3217 -16.962,-0.807766 -5.72741,-1.68867 -8.22385,-0.807571 -5.58044,3.89177 3.77731,6.64699 -1.34285,15.3397 2.2029,20.3396 1.46857,1.9826 1.9825,4.69934 1.83554,8.95808 -0.0733354,3.084 0.6609,5.72751 0.8812,8.88484 4.88508,3.03201 2.86821,11.1575 5.50711,13.6576 -0.0733354,2.34957 0.2203,3.89157 1.68897,5.21328 2.36308,2.0906 2.20515,9.34454 5.21328,10.647 1.61534,0.734235 1.83554,2.8637 -0.807571,4.40571 -0.514229,0.293635 -2.05623,0.954437 -1.61563,1.68897l28.4165 0 7.26941 8.07698 0 24.9656 -7.26941 6.31468 -118.219 0 -8.81141 -6.31468 0 -24.9656 8.81141 -8.07698 83.634 0zm-6.38801 -15.8606c0.261325,3.14001 -3.8248,-0.914881 -4.69934,-1.39504 -2.05613,-1.1014 -3.23087,-4.77287 -4.62591,-5.21347 -1.37252,-0.461455 -3.80522,-7.77316 -4.33237,-9.25172 -0.513935,-1.39533 -1.7623,-2.4231 -4.03854,-3.59823 -2.49644,-1.39504 -3.52451,-3.59784 -1.61534,-5.13984 1.1014,-0.954535 2.49654,-1.542 3.59794,-2.4232 3.26661,-2.70528 3.54458,5.84177 7.04911,6.97587 3.7449,1.17474 4.99298,7.41608 5.06631,10.0595 0.205515,6.7214 3.35561,4.17287 3.59813,9.98615z"/>
  <polygon class="fil0 str0" points="56.8704,137.667 65.7551,137.667 71.1893,149.322 76.7694,137.667 85.5806,137.667 85.5806,161.237 76.7694,161.237 76.7694,146.845 69.6469,161.237 66.7096,161.237 59.7341,147.727 59.7341,161.237 56.8704,161.237 "/>
  <polygon class="fil0 str0" points="32.272,161.237 42.3277,137.667 46.5906,137.667 56.5767,161.237 46.8108,161.237 45.1219,158.153 36.6777,158.153 35.209,161.237 "/>
  <path class="fil0 str0" d="M93.9514 122.247c-2.76462,1.51997 -2.09265,-2.22493 -1.9825,-3.67157 0.205222,-2.69451 -3.62163,-3.35345 -2.49654,-5.43348 0.969516,-1.79236 3.01948,-0.501599 3.59794,1.1014 0.4406,1.3217 0.734137,2.56987 1.9826,3.37764 1.73919,1.23544 0.752447,3.69859 -1.1015,4.62601z"/>
  <path class="fil0 str0" d="M86.0947 113.876c0.261325,3.14001 -3.8248,-0.914881 -4.69934,-1.39504 -2.05613,-1.1014 -3.23087,-4.77287 -4.62591,-5.21347 -1.37252,-0.461455 -3.80522,-7.77316 -4.33237,-9.25172 -0.513935,-1.39533 -1.7623,-2.4231 -4.03854,-3.59823 -2.49644,-1.39504 -3.52451,-3.59784 -1.61534,-5.13984 1.1014,-0.954535 2.49654,-1.542 3.59794,-2.4232 3.26661,-2.70528 3.54458,5.84177 7.04911,6.97587 3.7449,1.17474 4.99298,7.41608 5.06631,10.0595 0.205515,6.7214 3.35561,4.17287 3.59813,9.98615z"/>
  <path class="fil0 str0" d="M86.6086 100.219c0,3.11641 -1.96919,7.96458 3.15734,7.19607 1.1014,-0.146965 1.24837,-1.02807 1.3217,-1.83564 0.367264,-2.49673 -0.660802,-3.45127 -1.83564,-4.99327 -1.61534,-2.2028 -2.57007,-2.12917 -2.6434,-0.367167z"/>
  <path class="fil0 str0" d="M85.3603 97.6487c-1.02777,-1.90917 -1.542,-3.59784 -3.15734,-4.18541 -4.87617,-1.80107 -6.75665,-11.8925 -0.293635,-8.59111 4.34823,2.22111 2.92656,7.58067 4.99298,10.5737 1.56873,2.27222 -0.345039,4.46377 -1.542,2.2028z"/>
  <path class="fil0 str0" d="M52.2444 100.806c2.60982,0.186129 -0.0487597,1.94354 -0.807571,2.34987 -2.49301,1.33472 -6.0558,-8.29395 -9.25191,-10.8673 -3.00391,-2.4187 -1.32249,-4.11266 0.734137,-5.21357 3.09654,-1.65763 4.91191,6.97 5.87437,9.17868 1.3217,3.01037 1.9826,3.5246 3.45097,4.55238z"/>
  <path class="fil0 str0" d="M54.3738 81.7882c-3.01292,1.65724 -5.62587,-1.44252 -9.91281,-0.8812 -3.084,0.367264 -4.47904,-1.46837 -6.31468,-2.79007 -1.68897,-1.24837 -2.68874,-4.10639 -2.76207,-7.92453 -0.145006,-5.02068 8.962,0.201501 11.2797,4.54689 1.65127,3.09614 4.37868,1.57735 7.85658,4.18521 1.17513,0.881102 1.83593,1.68897 -0.146671,2.8637z"/>
  <path class="fil0 str0" d="M57.9718 78.3372c-2.75297,-1.48237 5.6668,-3.54409 1.9826,-6.90214 -1.97673,-1.80186 -7.11226,-7.27519 -0.954535,-7.27519 7.2932,0 10.7542,6.08694 6.02104,9.55132 -2.44073,1.78658 -3.85035,6.337 -6.09457,5.13994 0,0 -0.0733354,0.0733354 -0.954535,-0.513935z"/>
  <path class="fil0 str0" d="M70.3811 75.7671c-1.9826,0.954731 -2.4232,-1.542 -0.8812,-2.27624 5.45913,-2.32539 -0.646311,-10.5324 -4.03844,-12.7765 -3.01067,-2.93704 -4.18541,-5.58044 -4.33237,-14.245 0,-2.93704 1.83564,-3.37764 6.16801,-1.39504 3.084,1.39504 3.96511,1.90927 4.77297,0.6609 1.8703,-2.59523 12.9817,5.90081 8.07688,22.3955 -0.440502,1.46837 -1.68887,2.49644 -3.59784,2.4231 -1.39533,0 -2.49673,1.02787 -0.4406,2.49654 7.32884,5.05799 0.662466,7.72979 -0.881102,5.06651 -1.02816,-1.7623 -3.01067,-3.23097 -4.84631,-2.34977z"/>
  <path class="fil0 str0" d="M54.5941 51.7563c-0.440502,-0.954535 -0.807766,-2.12957 -0.734431,-3.59794 0.0736291,-3.3043 -0.366971,-11.0143 0.954731,-16.5948 2.0813,-8.32704 0.959333,-11.3854 2.93704,-9.25201 1.61534,1.7623 2.4232,3.59823 0.8812,7.78334 -2.40352,6.61321 -1.36831,15.7871 -4.03854,21.6614z"/>
  <path class="fil0 str0" d="M83.084 11.5912c1.96351,0 2.03841,3.01067 0,3.01067 -2.01129,0 -1.93531,-3.01067 0,-3.01067z"/>
  <polygon class="fil0 str0" points="6.71915,137.667 15.9712,137.667 15.9712,146.699 27.7196,137.667 32.4189,137.667 24.2684,144.643 31.905,161.237 21.9922,161.237 17.0635,150.128 15.9712,150.664 15.9712,161.237 6.71915,161.237 "/>
  <polygon class="fil1 str0" points="37.9994,155.51 44.1674,155.51 41.0101,148.828 "/>
  <path class="fil0 str0" d="M117.889 148.314l-6.31487 12.9235 9.69251 0 5.72741 -10.8673c1.61534,-3.01067 -0.147062,-4.62601 -2.27614,-4.62601l-2.05623 0 0 -0.514131 4.11207 -7.56304c-5.58044,0 -11.0875,0 -16.6681,0l0 3.084 6.46164 0 -2.71674 5.58044 0 1.9826 4.03844 0z"/>
  <polygon class="fil0 str0" points="91.8955,155.51 98.1368,155.51 94.9059,148.828 "/>
  <polygon class="fil0 str0" points="86.168,161.237 96.2148,137.667 100.56,137.667 110.546,161.237 100.78,161.237 99.0913,158.153 90.5737,158.153 89.1787,161.237 "/>
  <polygon class="fil1 str0" points="91.7546,155.51 97.9226,155.51 94.7653,148.828 "/>
 </g>
</svg>
