<?xml version="1.0" encoding="utf-8"?>
<!-- Generator: Adobe Illustrator 14.0.0, SVG Export Plug-In . SVG Version: 6.00 Build 43363)  -->
<!DOCTYPE svg PUBLIC "-//W3C//DTD SVG 1.0//EN" "http://www.w3.org/TR/2001/REC-SVG-20010904/DTD/svg10.dtd">
<svg version="1.0" id="Ebene_1" xmlns="http://www.w3.org/2000/svg" xmlns:xlink="http://www.w3.org/1999/xlink" x="0px" y="0px"
	 width="210px" height="150px" viewBox="0 0 210 150" enable-background="new 0 0 210 150" xml:space="preserve">
<g>
	<path fill-rule="evenodd" clip-rule="evenodd" fill="#005AA1" d="M13.781,39.863c0-19.402,39.319-35.13,87.824-35.13
		c48.504,0,87.824,15.728,87.824,35.13s-39.32,35.13-87.824,35.13C53.101,74.993,13.781,59.266,13.781,39.863L13.781,39.863z
		 M121.193,42.939c-0.024-0.12-0.122-0.21-0.238-0.229c-2.421-0.356-4.968-0.649-7.612-0.869c-0.15-0.026-0.256-0.165-0.157-0.494
		c8.117-8.541,11.2-19.409,7.096-27.912c0.018-0.159,0.16-0.277,0.33-0.26c27.932,3.388,48.326,14.055,48.326,26.688
		c0,15.36-30.145,27.812-67.332,27.812S34.273,55.224,34.273,39.863c0-13.315,22.657-24.446,52.917-27.173
		c0.147,0.005,0.271,0.118,0.279,0.35l-6.57,36.178c-0.052,0.27-0.078,0.548-0.078,0.834c0,2.424,1.966,4.391,4.391,4.391
		l0.235,0.012c5.86-0.305,12.157-2.134,18.105-5.568c1.717-0.991,3.335-2.073,4.857-3.23c0.094-0.077,0.221-0.085,0.322-0.031
		c1.981,1.319,3.121,2.863,3.121,4.515c0,2.244-2.104,4.291-5.565,5.844c-4.021,1.804-9.874,2.938-16.391,2.938
		c-5.523,0-10.569-0.815-14.484-2.175c-0.16-0.027-0.312,0.078-0.339,0.238l-0.558,3.067c-0.02,0.148,0.076,0.289,0.229,0.325
		c7.963,1.853,17.121,2.907,26.868,2.907c12.125,0,21.957-3.933,21.957-8.782c0-1.887-1.486-3.634-4.014-5.064
		c-2.215-1.086-3.61-2.494-3.268-3.438c0.355-0.979,2.474-1.136,4.991-0.458c0.143,0.019,0.281-0.067,0.332-0.323L121.193,42.939
		L121.193,42.939z M101.605,20.796c0,0.19-0.006,0.379-0.018,0.564c0.32,6.447-3.666,15.072-10.949,22.355
		c-1.489,1.489-3.036,2.841-4.609,4.045c-0.062,0.039-0.138,0.056-0.216,0.039c-0.152-0.032-0.251-0.177-0.224-0.355l7.138-39.292
		c-0.008-0.151-0.13-0.271-0.279-0.278c-39.34,1.85-69.885,15.466-69.885,31.989c0,17.785,35.388,32.202,79.042,32.202
		c43.655,0,79.043-14.417,79.043-32.202S145.261,7.661,101.605,7.661c-1.383,0-2.759,0.015-4.139,0.044
		c-0.137,0-0.252,0.095-0.284,0.223l-0.835,4.585c-0.02,0.123,0.038,0.24,0.14,0.301C99.508,14.201,101.605,17.254,101.605,20.796
		L101.605,20.796z"/>
	<polygon fill-rule="evenodd" clip-rule="evenodd" fill="#005AA1" points="19.752,92.558 19.752,135.585 43.642,135.585 
		43.642,145.267 5,145.267 5,92.558 19.752,92.558 	"/>
	<path fill-rule="evenodd" clip-rule="evenodd" fill="#005AA1" d="M77.472,123.909l-6.892-19.196l-6.89,19.196H77.472
		L77.472,123.909z M79.952,92.581l20.03,52.672H84.638l-4.411-12.438H60.934l-4.41,12.438H44.211l19.845-52.672H79.952
		L79.952,92.581z"/>
	<path fill-rule="evenodd" clip-rule="evenodd" fill="#005AA1" d="M116.323,135.555h6.614c3.951,0,9.189-0.689,12.588-5.221
		c3.397-4.529,3.491-9.828,3.491-11.977c0-2.766-0.368-8.369-4.317-12.286c-3.677-3.531-8.455-3.839-12.037-3.839h-6.339V135.555
		L116.323,135.555z M101.621,92.558h21.591c6.249,0,15.711,0.614,22.971,6.834c5.88,4.991,8.636,13.13,8.636,19.426
		c0,4.606-1.468,14.05-9.554,20.424c-6.433,5.067-13.69,5.989-20.49,5.989h-23.153V92.558L101.621,92.558z"/>
	<path fill-rule="evenodd" clip-rule="evenodd" fill="#005AA1" d="M182.49,123.885l-6.89-19.195l-6.891,19.195H182.49
		L182.49,123.885z M184.971,92.558L205,145.23h-15.344l-4.409-12.439h-19.294l-4.412,12.439h-12.312l19.847-52.673H184.971
		L184.971,92.558z"/>
</g>
</svg>
