<?xml version="1.0" encoding="utf-8"?>
<!-- Generator: Adobe Illustrator 13.0.2, SVG Export Plug-In . SVG Version: 6.00 Build 14948)  -->
<!DOCTYPE svg PUBLIC "-//W3C//DTD SVG 1.0//EN" "http://www.w3.org/TR/2001/REC-SVG-20010904/DTD/svg10.dtd">
<svg version="1.0" id="Layer_1" xmlns="http://www.w3.org/2000/svg" xmlns:xlink="http://www.w3.org/1999/xlink" x="0px" y="0px"
	 width="126px" height="67.25px" viewBox="0 0 126 67.25" enable-background="new 0 0 126 67.25" xml:space="preserve">
<g>
	<g>
		<defs>
			<rect id="SVGID_1_" x="-27.75" y="-48" width="162" height="148"/>
		</defs>
		<clipPath id="SVGID_2_">
			<use xlink:href="#SVGID_1_"  overflow="visible"/>
		</clipPath>
		<path clip-path="url(#SVGID_2_)" fill="#58595B" d="M63.037,2.059c-33.377,0-60.439,14.208-60.439,31.735
			c0,17.523,27.062,31.73,60.439,31.73c33.381,0,60.445-14.207,60.445-31.73C123.482,16.267,96.418,2.059,63.037,2.059"/>
		<path clip-path="url(#SVGID_2_)" fill="#595A5C" d="M63.038,2.065c-33.375,0-60.433,14.205-60.433,31.729
			c0,17.52,27.058,31.725,60.433,31.725c33.376,0,60.438-14.205,60.438-31.725C123.477,16.271,96.414,2.065,63.038,2.065"/>
		<path clip-path="url(#SVGID_2_)" fill="#5A5B5D" d="M63.039,2.072c-33.371,0-60.427,14.202-60.427,31.723
			c0,17.516,27.056,31.718,60.427,31.718c33.373,0,60.432-14.202,60.432-31.718C123.471,16.274,96.412,2.072,63.039,2.072"/>
		<path clip-path="url(#SVGID_2_)" fill="#5B5C5E" d="M63.04,2.078c-33.369,0-60.421,14.199-60.421,31.717
			c0,17.512,27.053,31.711,60.421,31.711c33.368,0,60.426-14.199,60.426-31.711C123.466,16.277,96.408,2.078,63.04,2.078"/>
		<path clip-path="url(#SVGID_2_)" fill="#5C5C5F" d="M63.04,2.085c-33.364,0-60.414,14.196-60.414,31.71
			c0,17.509,27.05,31.706,60.414,31.706c33.366,0,60.419-14.197,60.419-31.706C123.459,16.281,96.406,2.085,63.04,2.085"/>
		<path clip-path="url(#SVGID_2_)" fill="#5C5D60" d="M63.04,2.091c-33.359,0-60.407,14.193-60.407,31.704
			c0,17.506,27.047,31.699,60.407,31.699c33.362,0,60.413-14.193,60.413-31.699C123.453,16.284,96.402,2.091,63.04,2.091"/>
		<path clip-path="url(#SVGID_2_)" fill="#5D5E60" d="M63.041,2.098c-33.356,0-60.4,14.191-60.4,31.698
			c0,17.502,27.044,31.693,60.4,31.693c33.358,0,60.406-14.191,60.406-31.693C123.447,16.289,96.399,2.098,63.041,2.098"/>
		<path clip-path="url(#SVGID_2_)" fill="#5E5F61" d="M63.043,2.104c-33.354,0-60.395,14.188-60.395,31.692
			c0,17.498,27.041,31.687,60.395,31.687s60.398-14.188,60.398-31.687C123.441,16.292,96.396,2.104,63.043,2.104"/>
		<path clip-path="url(#SVGID_2_)" fill="#5F6062" d="M63.043,2.111c-33.35,0-60.388,14.185-60.388,31.686
			c0,17.495,27.038,31.68,60.388,31.68c33.351,0,60.394-14.185,60.394-31.68C123.437,16.296,96.394,2.111,63.043,2.111"/>
		<path clip-path="url(#SVGID_2_)" fill="#606163" d="M63.043,2.117c-33.346,0-60.381,14.182-60.381,31.679
			c0,17.492,27.035,31.676,60.381,31.676c33.348,0,60.387-14.184,60.387-31.676C123.43,16.299,96.391,2.117,63.043,2.117"/>
		<path clip-path="url(#SVGID_2_)" fill="#616264" d="M63.044,2.123c-33.342,0-60.375,14.18-60.375,31.673
			c0,17.489,27.033,31.669,60.375,31.669c33.344,0,60.38-14.18,60.38-31.669C123.424,16.303,96.388,2.123,63.044,2.123"/>
		<path clip-path="url(#SVGID_2_)" fill="#616365" d="M63.045,2.13c-33.338,0-60.368,14.177-60.368,31.667
			c0,17.485,27.03,31.662,60.368,31.662c33.34,0,60.373-14.177,60.373-31.662C123.418,16.307,96.385,2.13,63.045,2.13"/>
		<path clip-path="url(#SVGID_2_)" fill="#626366" d="M63.046,2.136c-33.335,0-60.362,14.174-60.362,31.661
			c0,17.482,27.027,31.656,60.362,31.656c33.336,0,60.366-14.174,60.366-31.656C123.412,16.31,96.382,2.136,63.046,2.136"/>
		<path clip-path="url(#SVGID_2_)" fill="#636467" d="M63.046,2.143c-33.332,0-60.355,14.171-60.355,31.655
			c0,17.478,27.023,31.649,60.355,31.649c33.333,0,60.36-14.172,60.36-31.649C123.406,16.313,96.379,2.143,63.046,2.143"/>
		<path clip-path="url(#SVGID_2_)" fill="#646567" d="M63.047,2.149c-33.328,0-60.348,14.168-60.348,31.648
			c0,17.475,27.02,31.644,60.348,31.644c33.329,0,60.354-14.169,60.354-31.644C123.401,16.317,96.376,2.149,63.047,2.149"/>
		<path clip-path="url(#SVGID_2_)" fill="#656668" d="M63.048,2.156c-33.324,0-60.342,14.166-60.342,31.643
			c0,17.47,27.018,31.637,60.342,31.637c33.325,0,60.347-14.167,60.347-31.637C123.395,16.322,96.373,2.156,63.048,2.156"/>
		<path clip-path="url(#SVGID_2_)" fill="#666769" d="M63.048,2.162c-33.32,0-60.334,14.163-60.334,31.636
			c0,17.468,27.014,31.632,60.334,31.632c33.322,0,60.341-14.164,60.341-31.632C123.389,16.325,96.37,2.162,63.048,2.162"/>
		<path clip-path="url(#SVGID_2_)" fill="#66686A" d="M63.048,2.168c-33.315,0-60.329,14.16-60.329,31.629
			c0,17.465,27.013,31.625,60.329,31.625c33.318,0,60.334-14.16,60.334-31.625C123.382,16.329,96.366,2.168,63.048,2.168"/>
		<path clip-path="url(#SVGID_2_)" fill="#67686B" d="M63.049,2.175c-33.313,0-60.321,14.157-60.321,31.624
			c0,17.461,27.009,31.618,60.321,31.618c33.315,0,60.327-14.157,60.327-31.618C123.376,16.333,96.364,2.175,63.049,2.175"/>
		<path clip-path="url(#SVGID_2_)" fill="#68696C" d="M63.051,2.182C29.74,2.182,2.735,16.336,2.735,33.8
			c0,17.457,27.005,31.611,60.315,31.611s60.32-14.154,60.32-31.611C123.371,16.336,96.361,2.182,63.051,2.182"/>
		<path clip-path="url(#SVGID_2_)" fill="#696A6C" d="M63.051,2.188c-33.306,0-60.309,14.152-60.309,31.611
			c0,17.454,27.003,31.606,60.309,31.606c33.307,0,60.314-14.152,60.314-31.606C123.365,16.34,96.357,2.188,63.051,2.188"/>
		<path clip-path="url(#SVGID_2_)" fill="#6A6B6D" d="M63.051,2.194c-33.302,0-60.302,14.149-60.302,31.604
			c0,17.451,27,31.602,60.302,31.602c33.304,0,60.308-14.15,60.308-31.602C123.358,16.343,96.354,2.194,63.051,2.194"/>
		<path clip-path="url(#SVGID_2_)" fill="#6A6C6E" d="M63.052,2.201c-33.298,0-60.295,14.146-60.295,31.598
			c0,17.448,26.997,31.595,60.295,31.595c33.3,0,60.301-14.146,60.301-31.595C123.353,16.347,96.352,2.201,63.052,2.201"/>
		<path clip-path="url(#SVGID_2_)" fill="#6B6C6F" d="M63.053,2.208C29.758,2.208,2.764,16.352,2.764,33.8
			c0,17.444,26.994,31.588,60.289,31.588c33.297,0,60.294-14.144,60.294-31.588C123.347,16.352,96.35,2.208,63.053,2.208"/>
		<path clip-path="url(#SVGID_2_)" fill="#6C6D70" d="M63.053,2.213C29.761,2.213,2.77,16.354,2.77,33.801
			c0,17.439,26.991,31.581,60.283,31.581c33.294,0,60.288-14.142,60.288-31.581C123.341,16.354,96.347,2.213,63.053,2.213"/>
		<path clip-path="url(#SVGID_2_)" fill="#6D6E70" d="M63.053,2.22c-33.287,0-60.274,14.138-60.274,31.581
			c0,17.437,26.988,31.575,60.274,31.575c33.29,0,60.282-14.139,60.282-31.575C123.335,16.358,96.343,2.22,63.053,2.22"/>
		<path clip-path="url(#SVGID_2_)" fill="#6D6F71" d="M63.055,2.227c-33.285,0-60.27,14.135-60.27,31.574
			c0,17.433,26.985,31.569,60.27,31.569c33.285,0,60.274-14.137,60.274-31.569C123.329,16.362,96.34,2.227,63.055,2.227"/>
		<path clip-path="url(#SVGID_2_)" fill="#6E7072" d="M63.056,2.233c-33.281,0-60.263,14.132-60.263,31.567
			c0,17.431,26.982,31.563,60.263,31.563c33.282,0,60.268-14.133,60.268-31.563C123.323,16.365,96.338,2.233,63.056,2.233"/>
		<path clip-path="url(#SVGID_2_)" fill="#6F7073" d="M63.057,2.239c-33.277,0-60.257,14.13-60.257,31.563
			c0,17.427,26.98,31.557,60.257,31.557s60.261-14.13,60.261-31.557C123.317,16.369,96.334,2.239,63.057,2.239"/>
		<path clip-path="url(#SVGID_2_)" fill="#707174" d="M63.057,2.246c-33.273,0-60.25,14.127-60.25,31.555
			c0,17.424,26.977,31.551,60.25,31.551c33.274,0,60.255-14.127,60.255-31.551C123.312,16.373,96.331,2.246,63.057,2.246"/>
		<path clip-path="url(#SVGID_2_)" fill="#717275" d="M63.057,2.252c-33.27,0-60.243,14.124-60.243,31.549
			c0,17.42,26.973,31.545,60.243,31.545c33.271,0,60.249-14.125,60.249-31.545C123.306,16.376,96.328,2.252,63.057,2.252"/>
		<path clip-path="url(#SVGID_2_)" fill="#717375" d="M63.058,2.259c-33.266,0-60.236,14.121-60.236,31.543
			c0,17.416,26.971,31.538,60.236,31.538c33.269,0,60.242-14.122,60.242-31.538C123.3,16.38,96.326,2.259,63.058,2.259"/>
		<path clip-path="url(#SVGID_2_)" fill="#727476" d="M63.059,2.265c-33.262,0-60.23,14.119-60.23,31.537
			c0,17.413,26.968,31.532,60.23,31.532c33.264,0,60.235-14.119,60.235-31.532C123.294,16.384,96.322,2.265,63.059,2.265"/>
		<path clip-path="url(#SVGID_2_)" fill="#737477" d="M63.06,2.271c-33.259,0-60.225,14.115-60.225,31.53
			c0,17.41,26.965,31.526,60.225,31.526c33.26,0,60.229-14.116,60.229-31.526C123.288,16.387,96.319,2.271,63.06,2.271"/>
		<path clip-path="url(#SVGID_2_)" fill="#747578" d="M63.06,2.278c-33.255,0-60.217,14.113-60.217,31.524
			c0,17.406,26.962,31.52,60.217,31.52c33.257,0,60.223-14.113,60.223-31.52C123.282,16.391,96.316,2.278,63.06,2.278"/>
		<path clip-path="url(#SVGID_2_)" fill="#747678" d="M63.061,2.285c-33.251,0-60.21,14.11-60.21,31.518
			c0,17.402,26.959,31.514,60.21,31.514c33.253,0,60.216-14.111,60.216-31.514C123.276,16.395,96.313,2.285,63.061,2.285"/>
		<path clip-path="url(#SVGID_2_)" fill="#757779" d="M63.061,2.291c-33.248,0-60.204,14.107-60.204,31.512
			c0,17.4,26.956,31.508,60.204,31.508c33.25,0,60.209-14.107,60.209-31.508C123.27,16.398,96.311,2.291,63.061,2.291"/>
		<path clip-path="url(#SVGID_2_)" fill="#76777A" d="M63.062,2.297c-33.244,0-60.197,14.105-60.197,31.506
			c0,17.396,26.953,31.501,60.197,31.501c33.246,0,60.203-14.104,60.203-31.501C123.265,16.402,96.308,2.297,63.062,2.297"/>
		<path clip-path="url(#SVGID_2_)" fill="#77787B" d="M63.062,2.304c-33.24,0-60.189,14.102-60.189,31.5
			c0,17.392,26.95,31.495,60.189,31.495c33.243,0,60.196-14.104,60.196-31.495C123.258,16.406,96.305,2.304,63.062,2.304"/>
		<path clip-path="url(#SVGID_2_)" fill="#77797C" d="M63.063,2.311c-33.237,0-60.185,14.099-60.185,31.493
			c0,17.39,26.947,31.489,60.185,31.489c33.238,0,60.188-14.1,60.188-31.489C123.252,16.41,96.302,2.311,63.063,2.311"/>
		<path clip-path="url(#SVGID_2_)" fill="#787A7C" d="M63.063,2.317c-33.233,0-60.177,14.096-60.177,31.487
			c0,17.386,26.944,31.483,60.177,31.483c33.235,0,60.183-14.098,60.183-31.483C123.246,16.413,96.299,2.317,63.063,2.317"/>
		<path clip-path="url(#SVGID_2_)" fill="#797B7D" d="M63.064,2.323c-33.23,0-60.171,14.093-60.171,31.481
			c0,17.382,26.941,31.478,60.171,31.478c33.231,0,60.176-14.096,60.176-31.478C123.24,16.416,96.296,2.323,63.064,2.323"/>
		<path clip-path="url(#SVGID_2_)" fill="#7A7B7E" d="M63.064,2.33C29.839,2.33,2.9,16.42,2.9,33.805
			c0,17.379,26.939,31.47,60.165,31.47c33.229,0,60.171-14.091,60.171-31.47C123.235,16.42,96.293,2.33,63.064,2.33"/>
		<path clip-path="url(#SVGID_2_)" fill="#7A7C7F" d="M63.065,2.336c-33.223,0-60.158,14.088-60.158,31.468
			c0,17.376,26.935,31.465,60.158,31.465c33.225,0,60.163-14.089,60.163-31.465C123.229,16.424,96.29,2.336,63.065,2.336"/>
		<path clip-path="url(#SVGID_2_)" fill="#7B7D7F" d="M63.066,2.343c-33.219,0-60.151,14.084-60.151,31.462
			c0,17.372,26.932,31.458,60.151,31.458c33.221,0,60.156-14.086,60.156-31.458C123.223,16.427,96.287,2.343,63.066,2.343"/>
		<path clip-path="url(#SVGID_2_)" fill="#7C7E80" d="M63.067,2.349c-33.215,0-60.146,14.082-60.146,31.456
			c0,17.368,26.93,31.452,60.146,31.452c33.217,0,60.149-14.084,60.149-31.452C123.217,16.431,96.284,2.349,63.067,2.349"/>
		<path clip-path="url(#SVGID_2_)" fill="#7D7E81" d="M63.068,2.355c-33.212,0-60.14,14.079-60.14,31.45
			c0,17.365,26.927,31.446,60.14,31.446c33.213,0,60.144-14.081,60.144-31.446C123.212,16.435,96.281,2.355,63.068,2.355"/>
		<path clip-path="url(#SVGID_2_)" fill="#7D7F82" d="M63.068,2.362c-33.208,0-60.131,14.077-60.131,31.443
			c0,17.361,26.923,31.439,60.131,31.439c33.209,0,60.137-14.078,60.137-31.439C123.205,16.439,96.277,2.362,63.068,2.362"/>
		<path clip-path="url(#SVGID_2_)" fill="#7E8082" d="M63.068,2.369c-33.205,0-60.125,14.074-60.125,31.437
			c0,17.358,26.92,31.434,60.125,31.434c33.206,0,60.131-14.075,60.131-31.434C123.199,16.443,96.274,2.369,63.068,2.369"/>
		<path clip-path="url(#SVGID_2_)" fill="#7F8183" d="M63.069,2.375C29.868,2.375,2.95,16.445,2.95,33.806
			c0,17.354,26.918,31.428,60.119,31.428c33.202,0,60.124-14.073,60.124-31.428C123.193,16.445,96.271,2.375,63.069,2.375"/>
		<path clip-path="url(#SVGID_2_)" fill="#808184" d="M63.07,2.381c-33.197,0-60.112,14.069-60.112,31.425
			c0,17.353,26.915,31.422,60.112,31.422c33.199,0,60.117-14.069,60.117-31.422C123.188,16.45,96.27,2.381,63.07,2.381"/>
		<path clip-path="url(#SVGID_2_)" fill="#808285" d="M63.07,2.388c-33.192,0-60.104,14.066-60.104,31.419
			c0,17.348,26.912,31.415,60.104,31.415c33.195,0,60.111-14.067,60.111-31.415C123.182,16.454,96.266,2.388,63.07,2.388"/>
		<path clip-path="url(#SVGID_2_)" fill="#818385" d="M63.071,2.394c-33.189,0-60.099,14.063-60.099,31.413
			c0,17.345,26.91,31.409,60.099,31.409c33.192,0,60.104-14.064,60.104-31.409C123.176,16.457,96.264,2.394,63.071,2.394"/>
		<path clip-path="url(#SVGID_2_)" fill="#828486" d="M63.072,2.4C29.885,2.4,2.98,16.46,2.98,33.807
			c0,17.342,26.905,31.402,60.092,31.402s60.098-14.061,60.098-31.402C123.17,16.46,96.26,2.4,63.072,2.4"/>
		<path clip-path="url(#SVGID_2_)" fill="#828487" d="M63.073,2.407c-33.184,0-60.085,14.057-60.085,31.4
			c0,17.338,26.902,31.396,60.085,31.396s60.091-14.059,60.091-31.396C123.164,16.464,96.257,2.407,63.073,2.407"/>
		<path clip-path="url(#SVGID_2_)" fill="#838588" d="M63.073,2.414c-33.178,0-60.079,14.054-60.079,31.394
			c0,17.335,26.901,31.391,60.079,31.391c33.181,0,60.084-14.056,60.084-31.391C123.157,16.468,96.254,2.414,63.073,2.414"/>
		<path clip-path="url(#SVGID_2_)" fill="#848688" d="M63.074,2.42c-33.176,0-60.073,14.052-60.073,31.387
			c0,17.331,26.897,31.384,60.073,31.384c33.177,0,60.078-14.053,60.078-31.384C123.152,16.472,96.251,2.42,63.074,2.42"/>
		<path clip-path="url(#SVGID_2_)" fill="#858789" d="M63.074,2.426c-33.171,0-60.065,14.048-60.065,31.381
			c0,17.328,26.894,31.378,60.065,31.378c33.174,0,60.071-14.05,60.071-31.378C123.146,16.474,96.248,2.426,63.074,2.426"/>
		<path clip-path="url(#SVGID_2_)" fill="#85878A" d="M63.076,2.433c-33.168,0-60.061,14.046-60.061,31.375
			c0,17.324,26.892,31.372,60.061,31.372c33.169,0,60.063-14.048,60.063-31.372C123.14,16.479,96.245,2.433,63.076,2.433"/>
		<path clip-path="url(#SVGID_2_)" fill="#86888B" d="M63.077,2.439c-33.166,0-60.053,14.043-60.053,31.369
			c0,17.32,26.888,31.365,60.053,31.365c33.166,0,60.058-14.045,60.058-31.365C123.135,16.482,96.243,2.439,63.077,2.439"/>
		<path clip-path="url(#SVGID_2_)" fill="#87898B" d="M63.077,2.446c-33.162,0-60.046,14.04-60.046,31.363
			c0,17.317,26.885,31.359,60.046,31.359c33.161,0,60.052-14.042,60.052-31.359C123.129,16.486,96.238,2.446,63.077,2.446"/>
		<path clip-path="url(#SVGID_2_)" fill="#888A8C" d="M63.077,2.452c-33.157,0-60.04,14.038-60.04,31.356
			c0,17.313,26.883,31.353,60.04,31.353c33.159,0,60.045-14.039,60.045-31.353C123.122,16.49,96.236,2.452,63.077,2.452"/>
		<path clip-path="url(#SVGID_2_)" fill="#888A8D" d="M63.078,2.458c-33.154,0-60.033,14.035-60.033,31.35
			c0,17.311,26.879,31.348,60.033,31.348c33.155,0,60.039-14.037,60.039-31.348C123.117,16.494,96.233,2.458,63.078,2.458"/>
		<path clip-path="url(#SVGID_2_)" fill="#898B8E" d="M63.079,2.465c-33.15,0-60.027,14.032-60.027,31.345
			c0,17.308,26.877,31.341,60.027,31.341c33.151,0,60.032-14.033,60.032-31.341C123.111,16.497,96.23,2.465,63.079,2.465"/>
		<path clip-path="url(#SVGID_2_)" fill="#8A8C8E" d="M63.079,2.471c-33.146,0-60.02,14.03-60.02,31.338
			c0,17.304,26.874,31.335,60.02,31.335c33.148,0,60.025-14.031,60.025-31.335C123.104,16.501,96.228,2.471,63.079,2.471"/>
		<path clip-path="url(#SVGID_2_)" fill="#8B8D8F" d="M63.08,2.478c-33.144,0-60.014,14.026-60.014,31.332
			c0,17.3,26.87,31.329,60.014,31.329c33.145,0,60.019-14.029,60.019-31.329C123.099,16.503,96.225,2.478,63.08,2.478"/>
		<path clip-path="url(#SVGID_2_)" fill="#8B8D90" d="M63.081,2.484c-33.14,0-60.007,14.024-60.007,31.326
			c0,17.297,26.868,31.321,60.007,31.321c33.141,0,60.013-14.024,60.013-31.321C123.094,16.508,96.222,2.484,63.081,2.484"/>
		<path clip-path="url(#SVGID_2_)" fill="#8C8E91" d="M63.081,2.491c-33.135,0-60,14.021-60,31.319
			c0,17.293,26.865,31.316,60,31.316c33.138,0,60.007-14.023,60.007-31.316C123.088,16.512,96.219,2.491,63.081,2.491"/>
		<path clip-path="url(#SVGID_2_)" fill="#8D8F92" d="M63.081,2.497c-33.131,0-59.993,14.018-59.993,31.313
			c0,17.291,26.861,31.31,59.993,31.31c33.135,0,60-14.019,60-31.31C123.081,16.515,96.216,2.497,63.081,2.497"/>
		<path clip-path="url(#SVGID_2_)" fill="#8E9092" d="M63.082,2.503c-33.128,0-59.987,14.016-59.987,31.307
			c0,17.287,26.859,31.304,59.987,31.304c33.13,0,59.993-14.017,59.993-31.304C123.075,16.52,96.212,2.503,63.082,2.503"/>
		<path clip-path="url(#SVGID_2_)" fill="#8E9093" d="M63.084,2.51c-33.125,0-59.981,14.012-59.981,31.301
			c0,17.282,26.856,31.297,59.981,31.297c33.126,0,59.985-14.015,59.985-31.297C123.069,16.522,96.21,2.51,63.084,2.51"/>
		<path clip-path="url(#SVGID_2_)" fill="#8F9194" d="M63.085,2.517c-33.123,0-59.976,14.009-59.976,31.294
			c0,17.279,26.853,31.291,59.976,31.291c33.122,0,59.979-14.012,59.979-31.291C123.063,16.526,96.207,2.517,63.085,2.517"/>
		<path clip-path="url(#SVGID_2_)" fill="#909295" d="M63.085,2.523c-33.118,0-59.967,14.007-59.967,31.289
			c0,17.276,26.85,31.285,59.967,31.285c33.118,0,59.973-14.009,59.973-31.285C123.058,16.53,96.203,2.523,63.085,2.523"/>
		<path clip-path="url(#SVGID_2_)" fill="#919395" d="M63.085,2.529c-33.114,0-59.961,14.004-59.961,31.282
			c0,17.272,26.847,31.279,59.961,31.279c33.116,0,59.966-14.007,59.966-31.279C123.051,16.533,96.201,2.529,63.085,2.529"/>
		<path clip-path="url(#SVGID_2_)" fill="#919396" d="M63.086,2.536c-33.11,0-59.955,14.001-59.955,31.275
			c0,17.27,26.845,31.273,59.955,31.273c33.111,0,59.959-14.004,59.959-31.273C123.045,16.537,96.197,2.536,63.086,2.536"/>
		<path clip-path="url(#SVGID_2_)" fill="#929497" d="M63.087,2.542c-33.106,0-59.948,13.999-59.948,31.27
			c0,17.266,26.842,31.267,59.948,31.267c33.108,0,59.953-14.001,59.953-31.267C123.04,16.542,96.195,2.542,63.087,2.542"/>
		<path clip-path="url(#SVGID_2_)" fill="#939598" d="M63.088,2.549c-33.104,0-59.941,13.996-59.941,31.264
			c0,17.263,26.838,31.26,59.941,31.26s59.945-13.997,59.945-31.26C123.033,16.545,96.191,2.549,63.088,2.549"/>
		<path clip-path="url(#SVGID_2_)" fill="#949698" d="M63.088,2.555c-33.1,0-59.936,13.994-59.936,31.258
			c0,17.259,26.836,31.254,59.936,31.254c33.101,0,59.939-13.995,59.939-31.254C123.027,16.549,96.188,2.555,63.088,2.555"/>
		<path clip-path="url(#SVGID_2_)" fill="#949699" d="M63.089,2.562c-33.097,0-59.929,13.99-59.929,31.251
			c0,17.256,26.832,31.249,59.929,31.249c33.098,0,59.934-13.993,59.934-31.249C123.022,16.551,96.187,2.562,63.089,2.562"/>
		<path clip-path="url(#SVGID_2_)" fill="#95979A" d="M63.09,2.568c-33.092,0-59.921,13.987-59.921,31.245
			c0,17.252,26.829,31.242,59.921,31.242c33.094,0,59.927-13.99,59.927-31.242C123.017,16.555,96.184,2.568,63.09,2.568"/>
		<path clip-path="url(#SVGID_2_)" fill="#96989B" d="M63.09,2.575c-33.088,0-59.915,13.985-59.915,31.238
			c0,17.25,26.827,31.236,59.915,31.236c33.09,0,59.92-13.986,59.92-31.236C123.01,16.56,96.18,2.575,63.09,2.575"/>
		<path clip-path="url(#SVGID_2_)" fill="#97999B" d="M63.09,2.581c-33.084,0-59.908,13.982-59.908,31.232
			c0,17.246,26.824,31.23,59.908,31.23c33.086,0,59.914-13.984,59.914-31.23C123.004,16.563,96.176,2.581,63.09,2.581"/>
		<path clip-path="url(#SVGID_2_)" fill="#979A9C" d="M63.091,2.587C30.01,2.587,3.19,16.566,3.19,33.813
			c0,17.242,26.82,31.224,59.901,31.224c33.083,0,59.908-13.981,59.908-31.224C122.999,16.566,96.174,2.587,63.091,2.587"/>
		<path clip-path="url(#SVGID_2_)" fill="#989A9D" d="M63.092,2.594c-33.078,0-59.895,13.976-59.895,31.22
			c0,17.238,26.817,31.217,59.895,31.217c33.079,0,59.901-13.979,59.901-31.217C122.993,16.57,96.171,2.594,63.092,2.594"/>
		<path clip-path="url(#SVGID_2_)" fill="#999B9E" d="M63.093,2.601c-33.074,0-59.889,13.973-59.889,31.214
			c0,17.235,26.815,31.211,59.889,31.211c33.075,0,59.894-13.976,59.894-31.211C122.986,16.574,96.168,2.601,63.093,2.601"/>
		<path clip-path="url(#SVGID_2_)" fill="#9A9C9E" d="M63.093,2.606c-33.07,0-59.882,13.971-59.882,31.208
			c0,17.23,26.812,31.204,59.882,31.204c33.072,0,59.888-13.974,59.888-31.204C122.98,16.578,96.165,2.606,63.093,2.606"/>
		<path clip-path="url(#SVGID_2_)" fill="#9B9D9F" d="M63.094,2.613c-33.067,0-59.875,13.968-59.875,31.201
			c0,17.229,26.808,31.199,59.875,31.199c33.068,0,59.881-13.971,59.881-31.199C122.975,16.581,96.162,2.613,63.094,2.613"/>
		<path clip-path="url(#SVGID_2_)" fill="#9B9DA0" d="M63.095,2.62c-33.063,0-59.869,13.965-59.869,31.195
			c0,17.226,26.806,31.193,59.869,31.193c33.065,0,59.875-13.968,59.875-31.193C122.97,16.584,96.16,2.62,63.095,2.62"/>
		<path clip-path="url(#SVGID_2_)" fill="#9C9EA1" d="M63.095,2.626c-33.06,0-59.862,13.963-59.862,31.189
			c0,17.222,26.803,31.187,59.862,31.187c33.062,0,59.868-13.965,59.868-31.187C122.963,16.589,96.156,2.626,63.095,2.626"/>
		<path clip-path="url(#SVGID_2_)" fill="#9D9FA2" d="M63.095,2.632c-33.056,0-59.855,13.959-59.855,31.183
			c0,17.218,26.8,31.181,59.855,31.181c33.059,0,59.862-13.963,59.862-31.181C122.957,16.591,96.153,2.632,63.095,2.632"/>
		<path clip-path="url(#SVGID_2_)" fill="#9EA0A2" d="M63.097,2.639c-33.052,0-59.85,13.957-59.85,31.176
			c0,17.215,26.797,31.175,59.85,31.175c33.054,0,59.854-13.96,59.854-31.175C122.951,16.596,96.15,2.639,63.097,2.639"/>
		<path clip-path="url(#SVGID_2_)" fill="#9EA1A3" d="M63.098,2.646c-33.049,0-59.843,13.954-59.843,31.17
			c0,17.212,26.794,31.168,59.843,31.168c33.05,0,59.848-13.956,59.848-31.168C122.945,16.6,96.147,2.646,63.098,2.646"/>
		<path clip-path="url(#SVGID_2_)" fill="#9FA1A4" d="M63.098,2.652c-33.045,0-59.836,13.951-59.836,31.164
			c0,17.208,26.791,31.162,59.836,31.162c33.046,0,59.842-13.954,59.842-31.162C122.939,16.603,96.144,2.652,63.098,2.652"/>
		<path clip-path="url(#SVGID_2_)" fill="#A0A2A5" d="M63.098,2.658c-33.041,0-59.83,13.949-59.83,31.158
			c0,17.205,26.789,31.155,59.83,31.155c33.043,0,59.836-13.95,59.836-31.155C122.934,16.607,96.141,2.658,63.098,2.658"/>
		<path clip-path="url(#SVGID_2_)" fill="#A1A3A5" d="M63.099,2.665c-33.038,0-59.823,13.946-59.823,31.152
			c0,17.201,26.785,31.149,59.823,31.149c33.039,0,59.829-13.948,59.829-31.149C122.928,16.61,96.138,2.665,63.099,2.665"/>
		<path clip-path="url(#SVGID_2_)" fill="#A2A4A6" d="M63.1,2.671c-33.034,0-59.817,13.942-59.817,31.145
			c0,17.198,26.783,31.144,59.817,31.144c33.036,0,59.822-13.945,59.822-31.144C122.922,16.613,96.136,2.671,63.1,2.671"/>
		<path clip-path="url(#SVGID_2_)" fill="#A2A4A7" d="M63.1,2.678c-33.029,0-59.81,13.94-59.81,31.139
			c0,17.194,26.78,31.138,59.81,31.138c33.032,0,59.816-13.943,59.816-31.138C122.916,16.618,96.132,2.678,63.1,2.678"/>
		<path clip-path="url(#SVGID_2_)" fill="#A3A5A8" d="M63.101,2.684c-33.026,0-59.803,13.938-59.803,31.133
			c0,17.19,26.777,31.131,59.803,31.131c33.029,0,59.809-13.94,59.809-31.131C122.909,16.622,96.13,2.684,63.101,2.684"/>
		<path clip-path="url(#SVGID_2_)" fill="#A4A6A9" d="M63.102,2.69c-33.023,0-59.797,13.935-59.797,31.127
			c0,17.188,26.774,31.125,59.797,31.125c33.025,0,59.802-13.938,59.802-31.125C122.903,16.625,96.127,2.69,63.102,2.69"/>
		<path clip-path="url(#SVGID_2_)" fill="#A5A7A9" d="M63.103,2.697c-33.021,0-59.792,13.932-59.792,31.121
			c0,17.185,26.771,31.119,59.792,31.119s59.796-13.935,59.796-31.119C122.898,16.629,96.123,2.697,63.103,2.697"/>
		<path clip-path="url(#SVGID_2_)" fill="#A5A8AA" d="M63.103,2.704c-33.016,0-59.784,13.929-59.784,31.114
			c0,17.182,26.768,31.113,59.784,31.113c33.018,0,59.789-13.932,59.789-31.113C122.892,16.633,96.12,2.704,63.103,2.704"/>
		<path clip-path="url(#SVGID_2_)" fill="#A6A8AB" d="M63.104,2.71c-33.012,0-59.777,13.926-59.777,31.108
			c0,17.178,26.765,31.105,59.777,31.105c33.014,0,59.783-13.928,59.783-31.105C122.887,16.636,96.117,2.71,63.104,2.71"/>
		<path clip-path="url(#SVGID_2_)" fill="#A7A9AC" d="M63.104,2.716c-33.008,0-59.771,13.923-59.771,31.102
			c0,17.174,26.762,31.101,59.771,31.101c33.012,0,59.776-13.927,59.776-31.101C122.88,16.639,96.115,2.716,63.104,2.716"/>
		<path clip-path="url(#SVGID_2_)" fill="#A8AAAD" d="M63.104,2.723C30.1,2.723,3.34,16.643,3.34,33.818
			c0,17.17,26.759,31.094,59.764,31.094c33.007,0,59.77-13.924,59.77-31.094C122.874,16.643,96.111,2.723,63.104,2.723"/>
		<path clip-path="url(#SVGID_2_)" fill="#A9ABAD" d="M63.105,2.729c-33.001,0-59.758,13.918-59.758,31.09
			c0,17.167,26.757,31.087,59.758,31.087c33.003,0,59.763-13.92,59.763-31.087C122.868,16.647,96.108,2.729,63.105,2.729"/>
		<path clip-path="url(#SVGID_2_)" fill="#A9ACAE" d="M63.106,2.736c-32.999,0-59.751,13.915-59.751,31.083
			c0,17.164,26.753,31.082,59.751,31.082c33,0,59.756-13.918,59.756-31.082C122.862,16.651,96.106,2.736,63.106,2.736"/>
		<path clip-path="url(#SVGID_2_)" fill="#AAACAF" d="M63.106,2.742c-32.994,0-59.745,13.912-59.745,31.077
			c0,17.16,26.751,31.075,59.745,31.075c32.996,0,59.75-13.915,59.75-31.075C122.856,16.654,96.103,2.742,63.106,2.742"/>
		<path clip-path="url(#SVGID_2_)" fill="#ABADB0" d="M63.107,2.749C30.116,2.749,3.37,16.658,3.37,33.819
			c0,17.157,26.747,31.069,59.738,31.069c32.992,0,59.743-13.912,59.743-31.069C122.851,16.658,96.1,2.749,63.107,2.749"/>
		<path clip-path="url(#SVGID_2_)" fill="#ACAEB0" d="M63.107,2.755c-32.986,0-59.73,13.907-59.73,31.065
			c0,17.152,26.744,31.063,59.73,31.063c32.989,0,59.737-13.91,59.737-31.063C122.845,16.662,96.097,2.755,63.107,2.755"/>
		<path clip-path="url(#SVGID_2_)" fill="#ADAFB1" d="M63.108,2.761c-32.983,0-59.725,13.904-59.725,31.059
			c0,17.149,26.742,31.057,59.725,31.057c32.985,0,59.73-13.907,59.73-31.057C122.839,16.665,96.094,2.761,63.108,2.761"/>
		<path clip-path="url(#SVGID_2_)" fill="#AEB0B2" d="M63.109,2.768C30.13,2.768,3.392,16.668,3.392,33.82
			c0,17.146,26.739,31.052,59.718,31.052c32.981,0,59.724-13.905,59.724-31.052C122.833,16.668,96.091,2.768,63.109,2.768"/>
		<path clip-path="url(#SVGID_2_)" fill="#AEB0B3" d="M63.11,2.774c-32.977,0-59.711,13.898-59.711,31.046
			c0,17.144,26.735,31.045,59.711,31.045c32.978,0,59.717-13.901,59.717-31.045C122.827,16.672,96.088,2.774,63.11,2.774"/>
		<path clip-path="url(#SVGID_2_)" fill="#AFB1B4" d="M63.11,2.781c-32.973,0-59.705,13.896-59.705,31.04
			c0,17.141,26.732,31.039,59.705,31.039c32.975,0,59.71-13.898,59.71-31.039C122.82,16.677,96.085,2.781,63.11,2.781"/>
		<path clip-path="url(#SVGID_2_)" fill="#B0B2B4" d="M63.111,2.787c-32.969,0-59.699,13.893-59.699,31.034
			c0,17.136,26.73,31.031,59.699,31.031c32.97,0,59.704-13.896,59.704-31.031C122.815,16.68,96.081,2.787,63.111,2.787"/>
		<path clip-path="url(#SVGID_2_)" fill="#B1B3B5" d="M63.111,2.793c-32.964,0-59.691,13.89-59.691,31.028
			c0,17.133,26.727,31.025,59.691,31.025c32.968,0,59.697-13.893,59.697-31.025C122.809,16.684,96.079,2.793,63.111,2.793"/>
		<path clip-path="url(#SVGID_2_)" fill="#B2B4B6" d="M63.113,2.8C30.151,2.8,3.427,16.687,3.427,33.82
			c0,17.131,26.724,31.021,59.687,31.021c32.963,0,59.69-13.89,59.69-31.021C122.804,16.687,96.076,2.8,63.113,2.8"/>
		<path clip-path="url(#SVGID_2_)" fill="#B2B4B7" d="M63.113,2.807c-32.958,0-59.679,13.884-59.679,31.015
			c0,17.126,26.721,31.014,59.679,31.014c32.959,0,59.684-13.888,59.684-31.014C122.797,16.69,96.072,2.807,63.113,2.807"/>
		<path clip-path="url(#SVGID_2_)" fill="#B3B5B8" d="M63.114,2.813c-32.955,0-59.672,13.882-59.672,31.009
			c0,17.122,26.718,31.007,59.672,31.007c32.955,0,59.678-13.885,59.678-31.007C122.792,16.695,96.069,2.813,63.114,2.813"/>
		<path clip-path="url(#SVGID_2_)" fill="#B4B6B8" d="M63.114,2.819c-32.95,0-59.666,13.879-59.666,31.003
			c0,17.119,26.716,31.001,59.666,31.001c32.953,0,59.671-13.882,59.671-31.001C122.785,16.698,96.067,2.819,63.114,2.819"/>
		<path clip-path="url(#SVGID_2_)" fill="#B5B7B9" d="M63.115,2.826c-32.947,0-59.659,13.876-59.659,30.997
			c0,17.115,26.712,30.995,59.659,30.995c32.949,0,59.665-13.88,59.665-30.995C122.78,16.702,96.064,2.826,63.115,2.826"/>
		<path clip-path="url(#SVGID_2_)" fill="#B6B8BA" d="M63.115,2.833c-32.942,0-59.651,13.873-59.651,30.99
			c0,17.113,26.709,30.989,59.651,30.989c32.945,0,59.658-13.876,59.658-30.989C122.773,16.706,96.061,2.833,63.115,2.833"/>
		<path clip-path="url(#SVGID_2_)" fill="#B7B9BB" d="M63.117,2.838c-32.94,0-59.646,13.871-59.646,30.984
			c0,17.109,26.706,30.983,59.646,30.983s59.65-13.874,59.65-30.983C122.768,16.709,96.058,2.838,63.117,2.838"/>
		<path clip-path="url(#SVGID_2_)" fill="#B7B9BC" d="M63.117,2.845c-32.936,0-59.64,13.868-59.64,30.978
			c0,17.104,26.704,30.977,59.64,30.977c32.938,0,59.645-13.872,59.645-30.977C122.762,16.713,96.056,2.845,63.117,2.845"/>
		<path clip-path="url(#SVGID_2_)" fill="#B8BABC" d="M63.118,2.852c-32.933,0-59.633,13.865-59.633,30.972
			c0,17.103,26.701,30.971,59.633,30.971c32.935,0,59.639-13.868,59.639-30.971C122.757,16.717,96.053,2.852,63.118,2.852"/>
		<path clip-path="url(#SVGID_2_)" fill="#B9BBBD" d="M63.118,2.858c-32.929,0-59.626,13.862-59.626,30.965
			c0,17.099,26.697,30.965,59.626,30.965c32.931,0,59.632-13.866,59.632-30.965C122.75,16.72,96.049,2.858,63.118,2.858"/>
		<path clip-path="url(#SVGID_2_)" fill="#BABCBE" d="M63.119,2.865c-32.925,0-59.62,13.859-59.62,30.958
			c0,17.096,26.695,30.958,59.62,30.958c32.927,0,59.625-13.862,59.625-30.958C122.744,16.724,96.046,2.865,63.119,2.865"/>
		<path clip-path="url(#SVGID_2_)" fill="#BBBDBF" d="M63.119,2.871c-32.92,0-59.612,13.856-59.612,30.953
			c0,17.091,26.692,30.951,59.612,30.951c32.925,0,59.619-13.86,59.619-30.951C122.738,16.727,96.044,2.871,63.119,2.871"/>
		<path clip-path="url(#SVGID_2_)" fill="#BCBDC0" d="M63.12,2.877c-32.917,0-59.606,13.854-59.606,30.947
			c0,17.088,26.689,30.945,59.606,30.945c32.92,0,59.612-13.857,59.612-30.945C122.732,16.731,96.04,2.877,63.12,2.877"/>
		<path clip-path="url(#SVGID_2_)" fill="#BCBEC0" d="M63.121,2.884c-32.915,0-59.6,13.851-59.6,30.941
			c0,17.085,26.685,30.938,59.6,30.938c32.916,0,59.605-13.854,59.605-30.938C122.727,16.735,96.037,2.884,63.121,2.884"/>
		<path clip-path="url(#SVGID_2_)" fill="#BDBFC1" d="M63.122,2.89C30.21,2.89,3.529,16.738,3.529,33.825
			c0,17.081,26.682,30.933,59.593,30.933c32.912,0,59.599-13.852,59.599-30.933C122.721,16.738,96.034,2.89,63.122,2.89"/>
		<path clip-path="url(#SVGID_2_)" fill="#BEC0C2" d="M63.122,2.896c-32.907,0-59.587,13.846-59.587,30.928
			c0,17.078,26.68,30.928,59.587,30.928c32.909,0,59.593-13.85,59.593-30.928C122.715,16.743,96.031,2.896,63.122,2.896"/>
		<path clip-path="url(#SVGID_2_)" fill="#BFC1C3" d="M63.123,2.903c-32.904,0-59.581,13.842-59.581,30.922
			c0,17.075,26.677,30.921,59.581,30.921c32.905,0,59.586-13.846,59.586-30.921C122.709,16.745,96.028,2.903,63.123,2.903"/>
		<path clip-path="url(#SVGID_2_)" fill="#C0C2C4" d="M63.123,2.91c-32.899,0-59.574,13.84-59.574,30.917
			c0,17.07,26.674,30.914,59.574,30.914c32.902,0,59.58-13.844,59.58-30.914C122.703,16.75,96.025,2.91,63.123,2.91"/>
		<path clip-path="url(#SVGID_2_)" fill="#C1C2C4" d="M63.124,2.916c-32.896,0-59.566,13.837-59.566,30.91
			c0,17.067,26.671,30.908,59.566,30.908c32.898,0,59.573-13.841,59.573-30.908C122.697,16.753,96.022,2.916,63.124,2.916"/>
		<path clip-path="url(#SVGID_2_)" fill="#C1C3C5" d="M63.125,2.922c-32.893,0-59.561,13.834-59.561,30.904
			c0,17.064,26.668,30.902,59.561,30.902c32.895,0,59.566-13.838,59.566-30.902C122.691,16.756,96.02,2.922,63.125,2.922"/>
		<path clip-path="url(#SVGID_2_)" fill="#C2C4C6" d="M63.126,2.929c-32.89,0-59.555,13.832-59.555,30.897
			c0,17.061,26.665,30.896,59.555,30.896c32.891,0,59.56-13.836,59.56-30.896C122.686,16.761,96.017,2.929,63.126,2.929"/>
		<path clip-path="url(#SVGID_2_)" fill="#C3C5C7" d="M63.127,2.936c-32.886,0-59.548,13.829-59.548,30.891
			c0,17.058,26.662,30.891,59.548,30.891c32.887,0,59.553-13.833,59.553-30.891C122.68,16.765,96.014,2.936,63.127,2.936"/>
		<path clip-path="url(#SVGID_2_)" fill="#C4C6C8" d="M63.127,2.942c-32.882,0-59.541,13.826-59.541,30.885
			c0,17.054,26.659,30.884,59.541,30.884c32.884,0,59.546-13.83,59.546-30.884C122.673,16.768,96.011,2.942,63.127,2.942"/>
		<path clip-path="url(#SVGID_2_)" fill="#C5C6C8" d="M63.127,2.948c-32.877,0-59.535,13.823-59.535,30.878
			c0,17.051,26.657,30.878,59.535,30.878c32.881,0,59.54-13.827,59.54-30.878C122.667,16.771,96.008,2.948,63.127,2.948"/>
		<path clip-path="url(#SVGID_2_)" fill="#C5C7C9" d="M63.128,2.955c-32.875,0-59.527,13.82-59.527,30.873
			c0,17.048,26.653,30.871,59.527,30.871c32.877,0,59.533-13.823,59.533-30.871C122.661,16.774,96.005,2.955,63.128,2.955"/>
		<path clip-path="url(#SVGID_2_)" fill="#C5C7C9" d="M63.129,2.961c-32.871,0-59.521,13.818-59.521,30.866
			c0,17.044,26.65,30.865,59.521,30.865c32.873,0,59.527-13.821,59.527-30.865C122.656,16.779,96.002,2.961,63.129,2.961"/>
		<path clip-path="url(#SVGID_2_)" fill="#C7C9CB" d="M63.13,2.967c-32.868,0-59.516,13.815-59.516,30.86
			c0,17.041,26.648,30.859,59.516,30.859c32.868,0,59.521-13.818,59.521-30.859C122.65,16.782,95.998,2.967,63.13,2.967"/>
		<path clip-path="url(#SVGID_2_)" fill="#C8CACC" d="M63.131,2.974c-32.864,0-59.508,13.812-59.508,30.854
			c0,17.037,26.644,30.853,59.508,30.853s59.514-13.815,59.514-30.853C122.645,16.786,95.995,2.974,63.131,2.974"/>
		<path clip-path="url(#SVGID_2_)" fill="#C9CBCC" d="M63.131,2.98c-32.86,0-59.502,13.809-59.502,30.848
			c0,17.033,26.642,30.847,59.502,30.847c32.862,0,59.507-13.813,59.507-30.847C122.638,16.79,95.993,2.98,63.131,2.98"/>
		<path clip-path="url(#SVGID_2_)" fill="#CACBCD" d="M63.131,2.987c-32.855,0-59.495,13.807-59.495,30.841
			c0,17.03,26.639,30.841,59.495,30.841c32.858,0,59.5-13.811,59.5-30.841C122.631,16.794,95.989,2.987,63.131,2.987"/>
		<path clip-path="url(#SVGID_2_)" fill="#CBCCCE" d="M63.132,2.993c-32.853,0-59.488,13.804-59.488,30.835
			c0,17.027,26.635,30.835,59.488,30.835c32.854,0,59.494-13.808,59.494-30.835C122.626,16.797,95.986,2.993,63.132,2.993"/>
		<path clip-path="url(#SVGID_2_)" fill="#CBCDCF" d="M63.133,3C30.284,3,3.651,16.801,3.651,33.829
			c0,17.022,26.633,30.828,59.482,30.828c32.851,0,59.487-13.806,59.487-30.828C122.62,16.801,95.983,3,63.133,3"/>
		<path clip-path="url(#SVGID_2_)" fill="#CCCED0" d="M63.133,3.006c-32.845,0-59.476,13.798-59.476,30.823
			c0,17.021,26.631,30.822,59.476,30.822c32.849,0,59.481-13.802,59.481-30.822C122.614,16.804,95.981,3.006,63.133,3.006"/>
		<path clip-path="url(#SVGID_2_)" fill="#CDCFD0" d="M63.135,3.013c-32.842,0-59.469,13.795-59.469,30.816
			c0,17.017,26.627,30.816,59.469,30.816c32.844,0,59.474-13.8,59.474-30.816C122.608,16.808,95.979,3.013,63.135,3.013"/>
		<path clip-path="url(#SVGID_2_)" fill="#CECFD1" d="M63.135,3.019c-32.838,0-59.462,13.792-59.462,30.811
			c0,17.012,26.624,30.81,59.462,30.81c32.84,0,59.468-13.798,59.468-30.81C122.603,16.811,95.975,3.019,63.135,3.019"/>
		<path clip-path="url(#SVGID_2_)" fill="#CFD0D2" d="M63.136,3.025c-32.834,0-59.457,13.79-59.457,30.804
			c0,17.011,26.622,30.804,59.457,30.804c32.836,0,59.461-13.793,59.461-30.804C122.597,16.815,95.972,3.025,63.136,3.025"/>
		<path clip-path="url(#SVGID_2_)" fill="#CFD0D2" d="M63.136,3.032c-32.831,0-59.449,13.787-59.449,30.798
			c0,17.006,26.618,30.797,59.449,30.797c32.833,0,59.455-13.791,59.455-30.797C122.591,16.819,95.969,3.032,63.136,3.032"/>
		<path clip-path="url(#SVGID_2_)" fill="#D0D1D3" d="M63.137,3.039c-32.828,0-59.443,13.784-59.443,30.792
			c0,17.002,26.615,30.791,59.443,30.791c32.829,0,59.448-13.789,59.448-30.791C122.585,16.823,95.966,3.039,63.137,3.039"/>
		<path clip-path="url(#SVGID_2_)" fill="#D0D2D3" d="M63.137,3.045c-32.824,0-59.436,13.781-59.436,30.785
			c0,17,26.612,30.785,59.436,30.785c32.826,0,59.442-13.785,59.442-30.785C122.579,16.826,95.963,3.045,63.137,3.045"/>
		<path clip-path="url(#SVGID_2_)" fill="#D2D3D5" d="M63.139,3.051c-32.82,0-59.431,13.779-59.431,30.779
			c0,16.996,26.61,30.779,59.431,30.779c32.821,0,59.435-13.783,59.435-30.779C122.573,16.83,95.96,3.051,63.139,3.051"/>
		<path clip-path="url(#SVGID_2_)" fill="#D3D4D6" d="M63.139,3.058c-32.816,0-59.423,13.776-59.423,30.773
			c0,16.992,26.607,30.772,59.423,30.772c32.818,0,59.428-13.78,59.428-30.772C122.566,16.833,95.957,3.058,63.139,3.058"/>
		<path clip-path="url(#SVGID_2_)" fill="#D4D5D7" d="M63.14,3.064c-32.813,0-59.417,13.773-59.417,30.767
			c0,16.989,26.604,30.767,59.417,30.767c32.814,0,59.422-13.777,59.422-30.767C122.562,16.837,95.954,3.064,63.14,3.064"/>
		<path clip-path="url(#SVGID_2_)" fill="#D5D6D7" d="M63.14,3.071c-32.81,0-59.41,13.77-59.41,30.76
			c0,16.985,26.6,30.761,59.41,30.761c32.812,0,59.415-13.775,59.415-30.761C122.555,16.841,95.951,3.071,63.14,3.071"/>
		<path clip-path="url(#SVGID_2_)" fill="#D5D7D8" d="M63.141,3.077c-32.806,0-59.403,13.768-59.403,30.754
			c0,16.983,26.597,30.755,59.403,30.755c32.808,0,59.409-13.771,59.409-30.755C122.55,16.845,95.948,3.077,63.141,3.077"/>
		<path clip-path="url(#SVGID_2_)" fill="#D6D7D9" d="M63.141,3.083c-32.802,0-59.396,13.765-59.396,30.748
			c0,16.979,26.594,30.749,59.396,30.749c32.805,0,59.402-13.77,59.402-30.749C122.543,16.849,95.945,3.083,63.141,3.083"/>
		<path clip-path="url(#SVGID_2_)" fill="#D7D8DA" d="M63.143,3.09c-32.798,0-59.392,13.762-59.392,30.742
			c0,16.976,26.593,30.742,59.392,30.742c32.8,0,59.396-13.767,59.396-30.742C122.538,16.852,95.942,3.09,63.143,3.09"/>
		<path clip-path="url(#SVGID_2_)" fill="#D8D9DB" d="M63.143,3.097c-32.795,0-59.384,13.759-59.384,30.735
			c0,16.973,26.589,30.736,59.384,30.736c32.796,0,59.389-13.764,59.389-30.736C122.531,16.855,95.938,3.097,63.143,3.097"/>
		<path clip-path="url(#SVGID_2_)" fill="#D8D9DB" d="M63.144,3.103c-32.792,0-59.377,13.756-59.377,30.729
			c0,16.969,26.586,30.729,59.377,30.729c32.793,0,59.383-13.76,59.383-30.729C122.526,16.859,95.937,3.103,63.144,3.103"/>
		<path clip-path="url(#SVGID_2_)" fill="#D9DADB" d="M63.144,3.109c-32.788,0-59.371,13.753-59.371,30.723
			c0,16.966,26.583,30.724,59.371,30.724c32.789,0,59.376-13.758,59.376-30.724C122.52,16.862,95.933,3.109,63.144,3.109"/>
		<path clip-path="url(#SVGID_2_)" fill="#D9DBDC" d="M63.145,3.116C30.36,3.116,3.78,16.867,3.78,33.833
			c0,16.962,26.58,30.717,59.364,30.717c32.786,0,59.369-13.755,59.369-30.717C122.514,16.867,95.931,3.116,63.145,3.116"/>
		<path clip-path="url(#SVGID_2_)" fill="#DADCDD" d="M63.145,3.122c-32.779,0-59.356,13.748-59.356,30.711
			c0,16.958,26.577,30.711,59.356,30.711c32.782,0,59.363-13.753,59.363-30.711C122.508,16.87,95.927,3.122,63.145,3.122"/>
		<path clip-path="url(#SVGID_2_)" fill="#DBDCDE" d="M63.146,3.128c-32.777,0-59.352,13.746-59.352,30.705
			c0,16.955,26.574,30.705,59.352,30.705s59.355-13.75,59.355-30.705C122.502,16.875,95.924,3.128,63.146,3.128"/>
		<path clip-path="url(#SVGID_2_)" fill="#DDDEDF" d="M63.146,3.135c-32.773,0-59.344,13.742-59.344,30.698
			c0,16.952,26.571,30.699,59.344,30.699c32.775,0,59.35-13.747,59.35-30.699C122.496,16.877,95.922,3.135,63.146,3.135"/>
		<path clip-path="url(#SVGID_2_)" fill="#DEDFE0" d="M63.147,3.142c-32.77,0-59.337,13.74-59.337,30.692
			c0,16.948,26.568,30.692,59.337,30.692c32.771,0,59.343-13.744,59.343-30.692C122.49,16.882,95.918,3.142,63.147,3.142"/>
		<path clip-path="url(#SVGID_2_)" fill="#DEE0E1" d="M63.147,3.148c-32.766,0-59.332,13.737-59.332,30.686
			c0,16.945,26.566,30.687,59.332,30.687c32.769,0,59.337-13.741,59.337-30.687C122.484,16.885,95.916,3.148,63.147,3.148"/>
		<path clip-path="url(#SVGID_2_)" fill="#DFE0E2" d="M63.148,3.154c-32.762,0-59.325,13.734-59.325,30.68
			c0,16.942,26.563,30.681,59.325,30.681c32.764,0,59.33-13.738,59.33-30.681C122.479,16.888,95.912,3.154,63.148,3.154"/>
		<path clip-path="url(#SVGID_2_)" fill="#E0E1E2" d="M63.148,3.161c-32.757,0-59.317,13.731-59.317,30.674
			c0,16.938,26.56,30.674,59.317,30.674c32.762,0,59.324-13.736,59.324-30.674C122.473,16.892,95.91,3.161,63.148,3.161"/>
		<path clip-path="url(#SVGID_2_)" fill="#E1E2E3" d="M63.15,3.167c-32.755,0-59.313,13.729-59.313,30.667
			c0,16.935,26.557,30.668,59.313,30.668c32.757,0,59.316-13.733,59.316-30.668C122.467,16.896,95.907,3.167,63.15,3.167"/>
		<path clip-path="url(#SVGID_2_)" fill="#E1E2E3" d="M63.15,3.174C30.399,3.174,3.845,16.9,3.845,33.835
			c0,16.931,26.554,30.662,59.305,30.662c32.753,0,59.311-13.731,59.311-30.662C122.461,16.9,95.903,3.174,63.15,3.174"/>
		<path clip-path="url(#SVGID_2_)" fill="#E2E3E4" d="M63.151,3.18c-32.749,0-59.298,13.723-59.298,30.655
			c0,16.929,26.55,30.655,59.298,30.655c32.75,0,59.304-13.727,59.304-30.655C122.455,16.903,95.901,3.18,63.151,3.18"/>
		<path clip-path="url(#SVGID_2_)" fill="#E3E4E5" d="M63.152,3.187c-32.745,0-59.292,13.72-59.292,30.649
			c0,16.924,26.548,30.648,59.292,30.648c32.745,0,59.297-13.725,59.297-30.648C122.449,16.907,95.897,3.187,63.152,3.187"/>
		<path clip-path="url(#SVGID_2_)" fill="#E3E4E5" d="M63.152,3.193c-32.74,0-59.285,13.718-59.285,30.643
			c0,16.921,26.545,30.643,59.285,30.643c32.742,0,59.291-13.722,59.291-30.643C122.443,16.911,95.895,3.193,63.152,3.193"/>
		<path clip-path="url(#SVGID_2_)" fill="#E4E5E6" d="M63.152,3.2C30.416,3.2,3.874,16.914,3.874,33.836
			c0,16.918,26.542,30.637,59.278,30.637c32.739,0,59.284-13.719,59.284-30.637C122.437,16.914,95.892,3.2,63.152,3.2"/>
		<path clip-path="url(#SVGID_2_)" fill="#E5E6E7" d="M63.153,3.206c-32.732,0-59.271,13.712-59.271,30.63
			c0,16.914,26.539,30.631,59.271,30.631c32.735,0,59.277-13.717,59.277-30.631C122.431,16.918,95.889,3.206,63.153,3.206"/>
		<path clip-path="url(#SVGID_2_)" fill="#E7E8E9" d="M63.154,3.212c-32.729,0-59.266,13.709-59.266,30.624
			c0,16.911,26.537,30.625,59.266,30.625c32.731,0,59.271-13.714,59.271-30.625C122.426,16.921,95.886,3.212,63.154,3.212"/>
	</g>
	<g>
		<defs>
			<path id="SVGID_3_" d="M4.968,33.792c0,16.145,25.998,29.232,58.068,29.232c32.071,0,58.074-13.088,58.074-29.232
				c0-16.146-26.003-29.236-58.074-29.236C30.966,4.556,4.968,17.646,4.968,33.792"/>
		</defs>
		<clipPath id="SVGID_4_">
			<use xlink:href="#SVGID_3_"  overflow="visible"/>
		</clipPath>
		
			<linearGradient id="SVGID_5_" gradientUnits="userSpaceOnUse" x1="-27.75" y1="100" x2="-26.75" y2="100" gradientTransform="matrix(30.5259 65.463 65.463 -30.5259 -5651.4072 4870.2363)">
			<stop  offset="0" style="stop-color:#008948"/>
			<stop  offset="0.3764" style="stop-color:#008948"/>
			<stop  offset="0.5955" style="stop-color:#004E25"/>
			<stop  offset="1" style="stop-color:#000000"/>
		</linearGradient>
		<polygon clip-path="url(#SVGID_4_)" fill="url(#SVGID_5_)" points="100.366,-39.929 143.505,52.581 25.712,107.509 
			-17.427,14.999 		"/>
	</g>
	<g>
		<defs>
			<rect id="SVGID_6_" x="-27.75" y="-48" width="162" height="148"/>
		</defs>
		<clipPath id="SVGID_7_">
			<use xlink:href="#SVGID_6_"  overflow="visible"/>
		</clipPath>
		<path clip-path="url(#SVGID_7_)" fill="none" stroke="#004E25" stroke-width="0.749" d="M63.039,8.056
			c-30.054,0-54.417,11.645-54.417,26.005c0,14.36,24.364,26.003,54.417,26.003c30.055,0,54.422-11.643,54.422-26.003
			C117.461,19.701,93.094,8.056,63.039,8.056"/>
		<path clip-path="url(#SVGID_7_)" fill="none" stroke="#F5F0CC" stroke-width="1.419" d="M63.037,6.532
			c-30.86,0-55.879,12.224-55.879,27.301c0,15.073,25.019,27.299,55.879,27.299c30.864,0,55.888-12.226,55.888-27.299
			C118.925,18.756,93.901,6.532,63.037,6.532"/>
	</g>
	<g>
		<defs>
			<polygon id="SVGID_8_" points="88.286,22.347 87.178,25.672 93.086,25.672 86.344,28.115 85.898,29.461 96.275,25.9 
				97.42,22.347 			"/>
		</defs>
		<clipPath id="SVGID_9_">
			<use xlink:href="#SVGID_8_"  overflow="visible"/>
		</clipPath>
		
			<linearGradient id="SVGID_10_" gradientUnits="userSpaceOnUse" x1="-27.75" y1="100" x2="-26.75" y2="100" gradientTransform="matrix(23.6597 50.7384 50.7384 -23.6597 -4333.7896 3782.3772)">
			<stop  offset="0" style="stop-color:#004E25"/>
			<stop  offset="1" style="stop-color:#000000"/>
		</linearGradient>
		<polygon clip-path="url(#SVGID_9_)" fill="url(#SVGID_10_)" points="95.362,17.934 100.145,28.19 87.956,33.874 83.173,23.618 		
			"/>
	</g>
	<g>
		<defs>
			<path id="SVGID_11_" d="M40.145,27.942c0.001-0.003,0.002-0.008,0.004-0.012L40.145,27.942z M34.833,16.646
				c0.64,0.319,0.075,1.573,0.075,1.573s-4.117,11.984-4.403,12.583c-0.287,0.601-0.497,0.675-0.497,0.675h8.895l1.242-3.535
				c-0.123,0.323-0.96,0.24-0.96,0.24h-3.718c0,0,3.446-9.611,3.724-10.335c0.403-1.061,0.674-1.189,0.757-1.201H34.833z
				 M39.948,16.646h0.027c0,0-0.004-0.002-0.012-0.002C39.959,16.644,39.954,16.645,39.948,16.646"/>
		</defs>
		<clipPath id="SVGID_12_">
			<use xlink:href="#SVGID_11_"  overflow="visible"/>
		</clipPath>
		
			<linearGradient id="SVGID_13_" gradientUnits="userSpaceOnUse" x1="-27.75" y1="100.002" x2="-26.75" y2="100.002" gradientTransform="matrix(45.6193 97.8309 97.8309 -45.6193 -8466.1572 7335.2368)">
			<stop  offset="0" style="stop-color:#004E25"/>
			<stop  offset="1" style="stop-color:#000000"/>
		</linearGradient>
		<polygon clip-path="url(#SVGID_12_)" fill="url(#SVGID_13_)" points="38.338,12.76 45.831,28.828 31.819,35.362 24.326,19.293 		
			"/>
	</g>
	<g>
		<defs>
			<path id="SVGID_14_" d="M67.514,17.535c-0.145,0.377-2.435,6.781-2.435,6.781l-0.895-7.641h-4.338c0,0,0.225,0.377,0.079,0.784
				c-0.117,0.336-4.592,13.183-4.592,13.183s-0.287,0.82-0.538,0.82h4.19c0,0-0.285-0.442-0.104-0.93
				c0.245-0.675,2.469-7.006,2.469-7.006l0.972,7.936h3.795l4.976-14.112c0,0,0.206-0.665,0.48-0.665l-4.033-0.01
				C67.54,16.675,67.656,17.162,67.514,17.535"/>
		</defs>
		<clipPath id="SVGID_15_">
			<use xlink:href="#SVGID_14_"  overflow="visible"/>
		</clipPath>
		
			<linearGradient id="SVGID_16_" gradientUnits="userSpaceOnUse" x1="-27.75" y1="100" x2="-26.75" y2="100" gradientTransform="matrix(40.7155 87.3146 87.3146 -40.7155 -7537.1851 6521.2485)">
			<stop  offset="0" style="stop-color:#004E25"/>
			<stop  offset="1" style="stop-color:#000000"/>
		</linearGradient>
		<polygon clip-path="url(#SVGID_15_)" fill="url(#SVGID_16_)" points="68.576,10.249 77.236,28.821 57.792,37.888 49.132,19.316 		
			"/>
	</g>
	<g>
		<defs>
			<path id="SVGID_17_" d="M77.361,19.864h1.075c0,0,2.785-0.173,0.789,4.902c-1.212,3.094-3.021,3.313-3.992,3.313
				c-0.646,0-0.667,0.011-0.667,0.011L77.361,19.864z M78.724,16.679h-4.763c0,0,0.358,0.598-0.111,1.985
				c-0.462,1.385-4.118,11.685-4.118,11.685s-0.282,0.971-0.678,1.153l5.731-0.004c0,0,6.95,0.269,9.1-7.365
				c0,0,2.693-7.455-5.045-7.455C78.801,16.678,78.763,16.679,78.724,16.679"/>
		</defs>
		<clipPath id="SVGID_18_">
			<use xlink:href="#SVGID_17_"  overflow="visible"/>
		</clipPath>
		
			<linearGradient id="SVGID_19_" gradientUnits="userSpaceOnUse" x1="-27.75" y1="100.0186" x2="-26.75" y2="100.0186" gradientTransform="matrix(36.6467 78.589 78.589 -36.6467 -6771.2339 5858.4751)">
			<stop  offset="0" style="stop-color:#004E25"/>
			<stop  offset="1" style="stop-color:#000000"/>
		</linearGradient>
		<polygon clip-path="url(#SVGID_18_)" fill="url(#SVGID_19_)" points="83.448,9.966 92.357,29.072 72.184,38.479 63.274,19.373 		
			"/>
	</g>
	<g>
		<defs>
			<polygon id="SVGID_20_" points="24.788,39.867 23.643,43.422 32.777,43.422 33.885,40.098 27.976,40.098 34.719,37.652 
				35.165,36.308 			"/>
		</defs>
		<clipPath id="SVGID_21_">
			<use xlink:href="#SVGID_20_"  overflow="visible"/>
		</clipPath>
		
			<linearGradient id="SVGID_22_" gradientUnits="userSpaceOnUse" x1="-27.75" y1="99.999" x2="-26.75" y2="99.999" gradientTransform="matrix(23.6606 50.7403 50.7403 -23.6606 -4379.5747 3832.0967)">
			<stop  offset="0" style="stop-color:#004E25"/>
			<stop  offset="1" style="stop-color:#000000"/>
		</linearGradient>
		<polygon clip-path="url(#SVGID_21_)" fill="url(#SVGID_22_)" points="33.107,31.895 37.89,42.151 25.701,47.835 20.918,37.578 		
			"/>
	</g>
	<g>
		<defs>
			<path id="SVGID_23_" d="M43.193,38.132c0,0,0.525-0.01,0.988-0.01c2.136,0,1.373,1.687,1.373,1.687
				c-0.653,1.469-2.421,1.304-2.421,1.304h-0.905L43.193,38.132z M45.57,34.722h-5.921c0.429,0.498,0.095,1.554,0.095,1.554
				s-3.679,10.989-3.964,11.842c-0.288,0.848-0.813,1.435-0.813,1.435h4.682c-0.143,0-0.143-0.481-0.143-0.481l1.677-4.655
				c0,0,2.093,4.289,2.238,4.589c0.141,0.303,0.073,0.548,0.073,0.548h5.005c-0.481,0-0.972-0.946-0.972-0.946l-2.492-4.678
				c3.486,0,4.606-3.613,4.606-3.613c1.634-5.459-3.522-5.593-4.031-5.593C45.584,34.722,45.57,34.722,45.57,34.722"/>
		</defs>
		<clipPath id="SVGID_24_">
			<use xlink:href="#SVGID_23_"  overflow="visible"/>
		</clipPath>
		
			<linearGradient id="SVGID_25_" gradientUnits="userSpaceOnUse" x1="-27.75" y1="100.0137" x2="-26.75" y2="100.0137" gradientTransform="matrix(36.7057 78.7157 78.7157 -36.7057 -6805.3618 5909.4766)">
			<stop  offset="0" style="stop-color:#004E25"/>
			<stop  offset="1" style="stop-color:#000000"/>
		</linearGradient>
		<polygon clip-path="url(#SVGID_24_)" fill="url(#SVGID_25_)" points="48.362,28.476 56.955,46.903 37.88,55.798 29.287,37.371 		
			"/>
	</g>
	<g>
		<defs>
			<path id="SVGID_26_" d="M91.451,49.612h-0.012C91.443,49.612,91.447,49.612,91.451,49.612 M94.914,38.221h1.3
				c0,0,1.582-0.043,0.944,1.652c-0.536,1.434-2.291,1.297-2.291,1.297h-0.906L94.914,38.221z M97.302,34.78h-5.871
				c0.428,0.497,0.098,1.546,0.098,1.546s-3.835,11.033-4.12,11.881c-0.289,0.851-0.837,1.396-0.837,1.396l4.868,0.009
				c-0.334-0.011-0.097-0.908-0.097-0.908l1.502-4.236c0,0,2.02,4.292,2.162,4.59c0.146,0.303,0.07,0.555,0.07,0.555h5.186
				c-0.478,0-1.001-0.949-1.001-0.949l-2.495-4.679c3.489,0,4.538-3.48,4.538-3.48c1.669-5.481-3.023-5.727-3.873-5.727
				C97.349,34.777,97.302,34.78,97.302,34.78"/>
		</defs>
		<clipPath id="SVGID_27_">
			<use xlink:href="#SVGID_26_"  overflow="visible"/>
		</clipPath>
		
			<linearGradient id="SVGID_28_" gradientUnits="userSpaceOnUse" x1="-27.75" y1="100.0137" x2="-26.75" y2="100.0137" gradientTransform="matrix(36.7273 78.762 78.762 -36.7273 -6780.5332 5864.0474)">
			<stop  offset="0" style="stop-color:#004E25"/>
			<stop  offset="1" style="stop-color:#000000"/>
		</linearGradient>
		<polygon clip-path="url(#SVGID_27_)" fill="url(#SVGID_28_)" points="100.044,28.494 108.656,46.962 89.501,55.895 80.889,37.427 
					"/>
	</g>
	<g>
		<defs>
			<path id="SVGID_29_" d="M56.154,46.414c-1.755-0.336-1.453-3.18-1.168-4.488c0.619-2.877,2.146-4.252,3.292-4.105
				c0.379,0.046,2.445,0.085,1.323,4.778c-0.667,2.786-1.884,3.854-3.06,3.854C56.412,46.452,56.283,46.439,56.154,46.414
				 M50.602,42.472c-0.707,4.14,1.534,7.452,5.228,7.452c5.165,0,8.243-5.303,8.243-9.105c0-3.988-1.567-6.477-5.149-6.477
				C54.356,34.342,51.372,37.966,50.602,42.472"/>
		</defs>
		<clipPath id="SVGID_30_">
			<use xlink:href="#SVGID_29_"  overflow="visible"/>
		</clipPath>
		
			<linearGradient id="SVGID_31_" gradientUnits="userSpaceOnUse" x1="-27.75" y1="99.9961" x2="-26.75" y2="99.9961" gradientTransform="matrix(34.8598 74.7572 74.7572 -34.8598 -6451.4644 5601.7021)">
			<stop  offset="0" style="stop-color:#004E25"/>
			<stop  offset="1" style="stop-color:#000000"/>
		</linearGradient>
		<polygon clip-path="url(#SVGID_30_)" fill="url(#SVGID_31_)" points="61.541,28.911 70.041,47.141 52.427,55.354 43.927,37.125 		
			"/>
	</g>
	<g>
		<defs>
			<path id="SVGID_32_" d="M65.299,34.78c0,0,0.358,0.197,0.358,1.146V48.76c0,0-0.055,0.705-0.306,0.853h3.841
				c0,0,0-0.306,0.38-0.803c0.386-0.502,8.359-11.687,8.359-11.687s1.817-2.343,2.299-2.343h-5.5c0,0,0.43,0.298,0.098,0.845
				c-0.339,0.55-5.221,8.191-5.221,8.191l0.063-7.704c0,0-0.007-1.235,0.465-1.339L65.299,34.78z"/>
		</defs>
		<clipPath id="SVGID_33_">
			<use xlink:href="#SVGID_32_"  overflow="visible"/>
		</clipPath>
		
			<linearGradient id="SVGID_34_" gradientUnits="userSpaceOnUse" x1="-27.75" y1="100" x2="-26.75" y2="100" gradientTransform="matrix(35.5823 76.3065 76.3065 -35.5823 -6576.8672 5704.187)">
			<stop  offset="0" style="stop-color:#004E25"/>
			<stop  offset="1" style="stop-color:#000000"/>
		</linearGradient>
		<polygon clip-path="url(#SVGID_33_)" fill="url(#SVGID_34_)" points="77.563,29.054 85.914,46.962 67.966,55.331 59.615,37.424 		
			"/>
	</g>
	<g>
		<defs>
			<path id="SVGID_35_" d="M87.034,40.236c0.001-0.004,0.002-0.006,0.002-0.006L87.034,40.236z M80.444,34.775
				c0,0,0.335,0.31-0.094,1.556c-0.429,1.247-4.203,11.883-4.203,11.883s-0.673,1.398-0.86,1.398h9.6l1.146-3.544
				c0,0-0.145,0.198-1.049,0.198h-4.056l0.857-2.395h3.15c0,0,0.667-0.053,0.811,0.146l1.288-3.782
				c-0.019,0.047-0.159,0.338-0.953,0.338h-3.057l0.911-2.648h3.867c0,0,0.524-0.074,0.714,0.355l1.239-3.506H80.444z"/>
		</defs>
		<clipPath id="SVGID_36_">
			<use xlink:href="#SVGID_35_"  overflow="visible"/>
		</clipPath>
		
			<linearGradient id="SVGID_37_" gradientUnits="userSpaceOnUse" x1="-27.75" y1="100" x2="-26.75" y2="100" gradientTransform="matrix(44.6754 95.8067 95.8067 -44.6754 -8272.5488 7138.064)">
			<stop  offset="0" style="stop-color:#004E25"/>
			<stop  offset="1" style="stop-color:#000000"/>
		</linearGradient>
		<polygon clip-path="url(#SVGID_36_)" fill="url(#SVGID_37_)" points="87.172,29.233 95.438,46.962 77.871,55.154 69.604,37.425 		
			"/>
	</g>
	<g>
		<defs>
			<path id="SVGID_38_" d="M49.946,21.704l0.037,4.341h-2.588L49.946,21.704z M49.138,16.659c0,0,0.322,0.41-0.287,1.348
				c-0.61,0.937-8.38,12.983-8.38,12.983s-0.151,0.308-0.546,0.487h4.595c0,0-0.016-0.368,0.104-0.61
				c0.218-0.429,0.786-1.474,0.786-1.474h4.626l0.009,1.299c0,0,0.024,0.45-0.314,0.796h4.583c0,0-0.342-0.197-0.402-0.79
				l-0.576-13.031c0,0-0.023-0.835,0.355-1.008H49.138z"/>
		</defs>
		<clipPath id="SVGID_39_">
			<use xlink:href="#SVGID_38_"  overflow="visible"/>
		</clipPath>
		
			<linearGradient id="SVGID_40_" gradientUnits="userSpaceOnUse" x1="-27.75" y1="100.0029" x2="-26.75" y2="100.0029" gradientTransform="matrix(38.2316 81.988 81.988 -38.2316 -7083.4937 6138.7158)">
			<stop  offset="0" style="stop-color:#004E25"/>
			<stop  offset="1" style="stop-color:#000000"/>
		</linearGradient>
		<polygon clip-path="url(#SVGID_39_)" fill="url(#SVGID_40_)" points="51.743,11.148 59.993,28.84 42.495,36.999 34.245,19.308 		
			"/>
	</g>
	<polygon fill="#F5F0CC" points="96.566,21.412 87.433,21.412 86.324,24.737 92.232,24.737 85.49,27.18 85.044,28.528 95.42,24.967 
			"/>
	<path fill="#F5F0CC" d="M39.295,26.996l-1.246,3.547h-8.896c0,0,0.211-0.075,0.498-0.675c0.286-0.598,4.402-12.583,4.402-12.583
		s0.567-1.255-0.073-1.575h5.141c0,0-0.295-0.085-0.784,1.201c-0.278,0.725-3.724,10.336-3.724,10.336h3.718
		C38.332,27.248,39.188,27.333,39.295,26.996"/>
	<path fill="#F5F0CC" d="M53.942,30.527h4.19c0,0-0.284-0.445-0.104-0.931c0.244-0.676,2.468-7.006,2.468-7.006l0.972,7.937h3.796
		l4.977-14.112c0,0,0.205-0.663,0.479-0.663l-4.033-0.012c0,0,0.116,0.488-0.027,0.859c-0.144,0.378-2.436,6.782-2.436,6.782
		l-0.893-7.641h-4.338c0,0,0.224,0.377,0.08,0.784c-0.116,0.336-4.593,13.183-4.593,13.183S54.193,30.527,53.942,30.527"/>
	<path fill="#F5F0CC" d="M77.87,15.745h-4.764c0,0,0.36,0.599-0.108,1.985c-0.464,1.385-4.121,11.685-4.121,11.685
		s-0.281,0.973-0.677,1.152l5.731-0.004c0,0,6.95,0.272,9.1-7.364C83.031,23.199,85.752,15.668,77.87,15.745 M78.373,23.833
		c-1.214,3.091-3.021,3.313-3.993,3.313c-0.646,0-0.667,0.008-0.667,0.008l2.795-8.226h1.074
		C77.582,18.929,80.368,18.755,78.373,23.833"/>
	<polygon fill="#F5F0CC" points="22.789,42.489 31.923,42.489 33.031,39.162 27.123,39.162 33.865,36.719 34.31,35.373 
		23.934,38.933 	"/>
	<path fill="#F5F0CC" d="M48.787,39.379c1.719-5.739-4.07-5.592-4.07-5.592h-5.922c0.429,0.497,0.094,1.553,0.094,1.553
		s-3.677,10.99-3.962,11.843c-0.288,0.847-0.814,1.435-0.814,1.435h4.682c-0.143,0-0.143-0.482-0.143-0.482l1.677-4.654
		c0,0,2.094,4.289,2.238,4.591c0.141,0.3,0.074,0.546,0.074,0.546h5.004c-0.479,0-0.971-0.944-0.971-0.944l-2.492-4.68
		C47.667,42.993,48.787,39.379,48.787,39.379 M44.701,38.874c-0.654,1.468-2.422,1.303-2.422,1.303h-0.904l0.964-2.979
		c0,0,0.526-0.011,0.988-0.011C45.464,37.187,44.701,38.874,44.701,38.874"/>
	<path fill="#F5F0CC" d="M100.449,39.569c1.833-6.02-4.001-5.726-4.001-5.726h-5.871c0.428,0.5,0.098,1.547,0.098,1.547
		s-3.835,11.035-4.12,11.883c-0.289,0.85-0.839,1.397-0.839,1.397l4.881,0.006c-0.351,0.01-0.107-0.907-0.107-0.907l1.503-4.235
		c0,0,2.018,4.291,2.161,4.589c0.146,0.302,0.07,0.554,0.07,0.554h5.187c-0.479,0-1.003-0.949-1.003-0.949l-2.494-4.679
		C99.402,43.049,100.449,39.569,100.449,39.569 M96.306,38.938c-0.537,1.433-2.292,1.296-2.292,1.296h-0.908l0.954-2.947h1.3
		C95.359,37.287,96.94,37.245,96.306,38.938"/>
	<path fill="#F5F0CC" d="M58.071,33.407c-4.569,0-7.553,3.623-8.323,8.129c-0.707,4.14,1.533,7.452,5.228,7.452
		c5.165,0,8.242-5.302,8.242-9.103C63.219,35.895,61.651,33.407,58.071,33.407 M58.748,41.664c-0.741,3.095-2.161,4.066-3.446,3.816
		c-1.756-0.337-1.454-3.18-1.17-4.49c0.621-2.874,2.148-4.252,3.293-4.104C57.804,36.932,59.869,36.971,58.748,41.664"/>
	<path fill="#F5F0CC" d="M64.445,33.844c0,0,0.358,0.199,0.358,1.147v12.834c0,0-0.055,0.705-0.306,0.852h3.84
		c0,0,0-0.306,0.382-0.802c0.386-0.5,8.359-11.687,8.359-11.687s1.815-2.345,2.297-2.345h-5.5c0,0,0.431,0.299,0.099,0.847
		c-0.339,0.55-5.222,8.191-5.222,8.191l0.063-7.706c0,0-0.007-1.235,0.465-1.338L64.445,33.844"/>
	<path fill="#F5F0CC" d="M87.662,37.347l1.24-3.505h-9.311c0,0,0.334,0.309-0.095,1.558c-0.43,1.246-4.203,11.88-4.203,11.88
		s-0.674,1.397-0.861,1.397h9.6l1.146-3.543c0,0-0.145,0.198-1.048,0.198h-4.056l0.856-2.394h3.152c0,0,0.667-0.055,0.811,0.146
		l1.289-3.79c0,0-0.093,0.345-0.955,0.345h-3.057l0.91-2.647h3.868C86.949,36.992,87.473,36.917,87.662,37.347"/>
	<path fill="#F5F0CC" d="M53.459,30.553c0,0-0.341-0.196-0.401-0.79l-0.576-13.03c0,0-0.024-0.835,0.354-1.008h-4.551
		c0,0,0.321,0.408-0.288,1.347c-0.61,0.939-8.38,12.983-8.38,12.983s-0.151,0.309-0.545,0.488h4.594c0,0-0.017-0.369,0.105-0.611
		c0.217-0.429,0.786-1.471,0.786-1.471h4.626l0.009,1.296c0,0,0.024,0.453-0.314,0.796H53.459z M46.541,25.11l2.551-4.342
		l0.038,4.342H46.541z"/>
</g>
</svg>
