<?xml version="1.0" encoding="UTF-8" ?>
<!DOCTYPE svg PUBLIC "-//W3C//DTD SVG 1.1//EN" "http://www.w3.org/Graphics/SVG/1.1/DTD/svg11.dtd">
<svg width="640pt" height="480pt" viewBox="0 0 640 480" version="1.1" xmlns="http://www.w3.org/2000/svg">
<path fill="#ffffff" d=" M 0.00 0.00 L 640.00 0.00 L 640.00 480.00 L 0.00 480.00 L 0.00 0.00 Z" />
<path fill="#3f4140" d=" M 315.81 52.79 C 318.08 52.72 320.34 52.70 322.61 52.67 C 324.31 58.81 322.94 65.59 325.76 71.41 C 334.91 71.75 344.09 71.54 353.20 72.60 C 357.37 88.08 359.34 104.03 361.26 119.92 C 361.78 126.13 362.87 132.30 362.85 138.55 C 362.68 141.75 362.52 144.96 362.05 148.14 C 362.00 145.98 361.84 143.84 361.72 141.69 C 361.53 138.16 361.35 134.63 360.77 131.14 C 360.10 125.35 359.69 119.53 358.89 113.76 C 358.54 110.65 358.18 107.54 357.77 104.45 C 356.93 94.14 354.45 84.10 352.38 74.00 L 352.17 72.93 C 343.61 72.05 334.99 72.67 326.40 72.49 C 324.49 71.41 322.73 69.97 322.62 67.59 C 322.28 63.07 321.71 58.56 321.28 54.04 C 319.86 54.13 318.44 54.21 317.03 54.29 C 316.71 57.39 316.49 60.49 316.19 63.58 C 315.88 66.36 315.51 69.14 315.23 71.92 C 314.22 71.69 313.20 71.48 312.19 71.29 C 312.85 70.55 313.47 69.77 314.07 68.98 C 315.23 63.66 315.34 58.19 315.81 52.79 Z" />
<path fill="#a5abab" d=" M 317.03 54.29 C 318.44 54.21 319.86 54.13 321.28 54.04 C 320.39 58.01 320.00 62.05 319.80 66.10 C 319.40 64.91 319.00 63.71 318.61 62.52 C 317.80 62.87 316.99 63.23 316.19 63.58 C 316.49 60.49 316.71 57.39 317.03 54.29 Z" />
<path fill="#bec1c2" d=" M 319.80 66.10 C 320.00 62.05 320.39 58.01 321.28 54.04 C 321.71 58.56 322.28 63.07 322.62 67.59 C 322.05 68.74 321.45 69.86 320.84 70.98 C 318.19 72.97 316.54 75.92 314.21 78.21 C 313.00 79.66 311.05 78.77 309.49 78.72 C 309.50 79.47 309.53 80.22 309.55 80.98 C 311.34 81.49 313.11 82.10 314.82 82.86 C 312.97 82.95 311.13 83.01 309.29 82.97 C 306.06 82.29 301.59 82.84 300.06 79.21 C 305.04 78.22 309.91 76.48 313.51 72.74 C 313.94 72.53 314.80 72.12 315.23 71.92 C 315.51 69.14 315.88 66.36 316.19 63.58 C 316.99 63.23 317.80 62.87 318.61 62.52 C 319.00 63.71 319.40 64.91 319.80 66.10 Z" />
<path fill="#d4d8d7" d=" M 320.84 70.98 C 321.45 69.86 322.05 68.74 322.62 67.59 C 322.73 69.97 324.49 71.41 326.40 72.49 C 334.99 72.67 343.61 72.05 352.17 72.93 L 352.38 74.00 C 344.53 74.24 336.68 73.52 328.83 73.84 C 329.31 76.63 328.34 79.29 327.32 81.84 C 332.77 82.43 338.25 82.55 343.71 83.08 C 343.71 83.48 343.71 84.27 343.71 84.67 C 337.22 83.71 330.65 84.49 324.12 84.12 C 324.28 85.78 324.46 87.45 324.62 89.12 C 324.67 89.68 324.76 90.81 324.80 91.37 C 324.32 94.53 323.86 97.72 323.93 100.93 C 324.08 115.38 323.99 129.87 322.51 144.25 C 322.56 152.68 322.00 161.07 321.23 169.46 C 329.91 166.12 339.47 169.79 348.24 166.92 C 348.19 163.55 348.29 160.18 348.32 156.81 C 348.48 160.49 348.59 164.17 348.68 167.85 C 349.33 167.63 350.63 167.20 351.28 166.98 C 351.31 158.46 350.48 149.95 350.40 141.42 C 350.64 141.05 351.12 140.30 351.36 139.93 C 351.68 143.92 351.91 147.93 352.33 151.91 C 352.95 157.03 352.88 162.20 352.56 167.33 C 348.51 168.63 344.31 169.44 340.05 169.45 C 337.52 169.40 335.04 169.89 332.79 171.03 C 337.89 172.12 343.08 172.74 348.22 173.64 C 340.82 173.93 333.40 173.77 326.00 173.37 C 324.32 173.21 322.64 173.00 320.97 172.80 C 321.06 177.76 320.80 182.72 320.63 187.68 C 320.45 191.28 319.98 194.87 319.36 198.42 C 318.16 189.70 318.91 180.88 318.75 172.12 C 317.50 172.41 316.26 172.70 315.02 172.97 L 314.51 173.07 C 314.37 172.62 314.09 171.71 313.95 171.26 C 315.14 171.19 316.33 171.09 317.51 170.96 C 318.92 166.44 318.25 161.68 318.31 157.04 C 318.36 141.33 318.14 125.58 316.28 109.96 C 315.42 102.41 316.14 94.78 315.25 87.24 C 315.22 86.84 315.15 86.05 315.12 85.66 C 315.08 85.30 314.99 84.59 314.94 84.23 C 308.81 84.49 302.66 83.98 296.56 84.71 L 296.38 83.90 C 300.61 82.95 304.97 82.95 309.29 82.97 C 311.13 83.01 312.97 82.95 314.82 82.86 C 313.11 82.10 311.34 81.49 309.55 80.98 C 309.53 80.22 309.50 79.47 309.49 78.72 C 311.05 78.77 313.00 79.66 314.21 78.21 C 316.54 75.92 318.19 72.97 320.84 70.98 Z" />
<path fill="#5c5e5f" d=" M 285.46 71.94 C 294.37 71.89 303.29 71.10 312.19 71.29 C 313.20 71.48 314.22 71.69 315.23 71.92 C 314.80 72.12 313.94 72.53 313.51 72.74 C 307.65 72.87 301.82 73.54 295.96 73.58 C 293.10 73.64 290.25 73.75 287.40 73.88 C 286.91 73.40 285.95 72.43 285.46 71.94 Z" />
<path fill="#959a9b" d=" M 282.70 83.67 C 283.38 79.71 284.28 75.78 285.46 71.94 C 285.95 72.43 286.91 73.40 287.40 73.88 C 290.25 73.75 293.10 73.64 295.96 73.58 C 296.51 74.25 297.06 74.93 297.61 75.60 C 294.32 76.51 291.09 77.63 287.94 78.94 C 288.84 79.60 289.74 80.26 290.65 80.93 L 290.30 80.76 C 288.94 82.92 287.48 85.20 287.56 87.87 C 287.36 93.62 287.61 99.39 287.91 105.13 C 288.50 104.22 289.11 103.31 289.71 102.40 C 290.31 103.78 290.91 105.16 291.52 106.54 C 289.10 121.60 287.62 136.80 286.82 152.03 C 286.58 157.27 286.31 162.53 286.89 167.76 C 289.00 164.18 288.81 159.93 289.26 155.94 C 289.71 147.95 290.46 139.98 291.33 132.03 C 291.77 125.07 291.55 118.01 293.31 111.21 C 293.57 113.54 293.90 115.88 293.94 118.23 C 291.56 134.09 290.76 150.14 290.69 166.16 C 291.02 166.40 291.68 166.90 292.01 167.14 L 292.67 167.50 C 297.46 169.96 303.03 170.07 308.27 170.84 C 306.03 173.20 302.68 173.22 299.71 173.78 C 304.65 174.26 309.64 174.04 314.51 173.07 L 315.02 172.97 C 314.11 178.13 314.91 183.41 313.76 188.54 C 313.21 184.02 312.91 179.48 312.70 174.94 C 307.27 174.45 301.79 174.63 296.49 175.99 C 294.58 175.95 292.67 175.88 290.77 175.81 C 290.59 195.07 292.31 214.30 294.98 233.37 C 294.64 233.54 293.97 233.88 293.64 234.06 C 293.43 234.17 293.01 234.41 292.80 234.53 L 292.14 235.04 C 292.35 231.89 292.47 228.74 292.35 225.59 C 291.01 210.37 288.48 195.22 288.34 179.92 C 288.41 178.17 287.58 176.62 286.84 175.10 C 285.99 190.05 287.91 204.99 289.31 219.85 C 289.30 222.64 289.01 225.41 288.67 228.17 C 288.25 225.50 287.92 222.81 287.59 220.12 C 285.63 221.57 283.85 223.25 282.44 225.25 C 281.47 224.29 280.51 223.32 279.55 222.38 C 279.72 218.75 278.30 215.19 278.84 211.59 C 280.71 204.41 279.51 196.92 280.82 189.67 C 281.41 185.78 282.70 181.89 282.17 177.93 C 281.88 176.40 280.38 175.61 279.37 174.57 C 279.33 173.51 279.30 172.44 279.27 171.38 C 278.23 172.41 277.20 173.44 276.19 174.49 C 273.74 173.79 270.68 172.69 268.66 174.84 C 270.59 174.91 275.52 174.51 274.79 177.80 C 274.13 177.21 273.52 176.57 272.96 175.89 C 268.07 175.53 263.14 175.33 258.33 174.27 C 261.30 174.25 264.27 174.40 267.25 174.37 C 267.52 174.09 268.05 173.55 268.32 173.27 C 271.04 172.15 273.74 170.96 276.28 169.46 C 274.54 169.33 272.80 169.23 271.06 169.13 C 271.13 168.57 271.27 167.44 271.34 166.88 C 269.21 166.85 267.08 166.82 264.96 166.88 C 268.20 166.37 271.90 166.95 274.66 164.82 C 273.90 166.30 273.02 167.72 272.23 169.19 C 274.03 168.53 276.07 168.01 276.91 166.09 C 277.28 166.67 278.03 167.83 278.40 168.41 C 280.14 166.22 281.58 163.68 281.45 160.78 C 281.42 153.83 280.26 146.93 280.30 139.97 C 280.30 135.10 280.55 130.17 279.24 125.43 C 280.42 112.90 282.21 100.42 284.30 88.01 C 284.60 85.67 285.52 83.28 284.89 80.93 C 284.11 81.59 283.60 82.47 283.35 83.56 C 283.19 83.58 282.87 83.64 282.70 83.67 Z" />
<path fill="#aaafaf" d=" M 295.96 73.58 C 301.82 73.54 307.65 72.87 313.51 72.74 C 309.91 76.48 305.04 78.22 300.06 79.21 C 301.59 82.84 306.06 82.29 309.29 82.97 C 304.97 82.95 300.61 82.95 296.38 83.90 L 296.56 84.71 C 296.65 85.11 296.82 85.92 296.91 86.32 C 296.69 87.00 296.45 87.66 296.20 88.33 C 295.82 89.29 295.46 90.25 295.10 91.22 C 294.97 89.74 294.81 88.26 294.64 86.78 C 293.11 93.29 292.70 99.97 291.52 106.54 C 290.91 105.16 290.31 103.78 289.71 102.40 C 289.11 103.31 288.50 104.22 287.91 105.13 C 287.61 99.39 287.36 93.62 287.56 87.87 C 287.48 85.20 288.94 82.92 290.30 80.76 L 290.65 80.93 C 289.74 80.26 288.84 79.60 287.94 78.94 C 291.09 77.63 294.32 76.51 297.61 75.60 C 297.06 74.93 296.51 74.25 295.96 73.58 Z" />
<path fill="#eef1ef" d=" M 328.83 73.84 C 336.68 73.52 344.53 74.24 352.38 74.00 C 354.45 84.10 356.93 94.14 357.77 104.45 C 354.41 105.92 353.46 109.35 352.90 112.65 C 351.74 112.29 350.58 111.92 349.43 111.57 C 347.79 104.32 346.97 96.92 345.37 89.66 C 345.21 91.14 345.07 92.62 344.97 94.10 C 344.60 91.59 344.08 89.11 343.73 86.61 C 343.73 86.12 343.72 85.15 343.71 84.67 C 343.71 84.27 343.71 83.48 343.71 83.08 C 338.25 82.55 332.77 82.43 327.32 81.84 C 328.34 79.29 329.31 76.63 328.83 73.84 Z" />
<path fill="#cbcfce" d=" M 285.20 77.40 C 286.52 77.69 286.72 78.43 285.79 79.61 C 284.48 79.40 284.28 78.66 285.20 77.40 Z" />
<path fill="#c6cac9" d=" M 283.35 83.56 C 283.60 82.47 284.11 81.59 284.89 80.93 C 285.52 83.28 284.60 85.67 284.30 88.01 C 282.21 100.42 280.42 112.90 279.24 125.43 C 277.64 138.93 276.84 152.50 276.91 166.09 C 276.07 168.01 274.03 168.53 272.23 169.19 C 273.02 167.72 273.90 166.30 274.66 164.82 C 274.24 139.09 277.26 113.40 281.60 88.06 L 281.68 88.25 C 281.87 88.68 282.25 89.52 282.43 89.95 C 283.45 88.46 283.31 86.52 282.43 85.00 C 282.30 84.70 282.02 84.09 281.88 83.78 L 282.70 83.67 C 282.87 83.64 283.19 83.58 283.35 83.56 Z" />
<path fill="#8a8f8f" d=" M 296.56 84.71 C 302.66 83.98 308.81 84.49 314.94 84.23 C 314.99 84.59 315.08 85.30 315.12 85.66 C 308.89 87.47 302.02 84.93 296.20 88.33 C 296.45 87.66 296.69 87.00 296.91 86.32 C 296.82 85.92 296.65 85.11 296.56 84.71 Z" />
<path fill="#868b8b" d=" M 324.12 84.12 C 330.65 84.49 337.22 83.71 343.71 84.67 C 343.72 85.15 343.73 86.12 343.73 86.61 C 343.19 86.82 342.10 87.23 341.56 87.44 C 336.65 83.92 330.65 87.18 325.17 86.59 C 325.03 87.22 324.76 88.49 324.62 89.12 C 324.46 87.45 324.28 85.78 324.12 84.12 Z" />
<path fill="#a5a9a8" d=" M 282.43 85.00 C 283.31 86.52 283.45 88.46 282.43 89.95 C 282.25 89.52 281.87 88.68 281.68 88.25 C 281.87 87.44 282.25 85.81 282.43 85.00 Z" />
<path fill="#747577" d=" M 296.20 88.33 C 302.02 84.93 308.89 87.47 315.12 85.66 C 315.15 86.05 315.22 86.84 315.25 87.24 C 315.10 87.73 314.81 88.72 314.66 89.21 C 309.33 89.36 303.86 88.46 298.62 89.60 C 297.39 91.32 297.13 93.47 296.78 95.50 C 295.77 103.07 294.60 110.62 293.94 118.23 C 293.90 115.88 293.57 113.54 293.31 111.21 C 293.35 104.50 293.98 97.83 295.10 91.22 C 295.46 90.25 295.82 89.29 296.20 88.33 Z" />
<path fill="#5c605f" d=" M 325.17 86.59 C 330.65 87.18 336.65 83.92 341.56 87.44 C 342.10 87.23 343.19 86.82 343.73 86.61 C 344.08 89.11 344.60 91.59 344.97 94.10 C 345.76 100.66 346.96 107.16 347.66 113.74 C 347.46 116.74 346.70 119.67 345.93 122.57 C 344.63 112.98 343.36 103.38 342.10 93.79 C 341.68 91.93 341.49 89.02 338.95 89.04 C 334.18 88.81 329.40 89.30 324.62 89.12 C 324.76 88.49 325.03 87.22 325.17 86.59 Z" />
<path fill="#e3e6e5" d=" M 294.64 86.78 C 294.81 88.26 294.97 89.74 295.10 91.22 C 293.98 97.83 293.35 104.50 293.31 111.21 C 291.55 118.01 291.77 125.07 291.33 132.03 C 290.46 139.98 289.71 147.95 289.26 155.94 C 288.81 159.93 289.00 164.18 286.89 167.76 C 286.31 162.53 286.58 157.27 286.82 152.03 C 287.62 136.80 289.10 121.60 291.52 106.54 C 292.70 99.97 293.11 93.29 294.64 86.78 Z" />
<path fill="#aeb3b4" d=" M 315.25 87.24 C 316.14 94.78 315.42 102.41 316.28 109.96 C 318.14 125.58 318.36 141.33 318.31 157.04 C 318.25 161.68 318.92 166.44 317.51 170.96 C 314.79 168.55 315.51 164.96 315.60 161.77 C 315.38 163.80 315.16 165.84 314.94 167.87 L 313.62 167.71 C 312.84 145.01 315.60 122.26 313.99 99.59 C 314.00 96.13 313.97 92.62 314.66 89.21 C 314.81 88.72 315.10 87.73 315.25 87.24 Z" />
<path fill="#fefffd" d=" M 298.62 89.60 C 303.86 88.46 309.33 89.36 314.66 89.21 C 313.97 92.62 314.00 96.13 313.99 99.59 C 313.37 118.07 312.32 136.52 311.69 154.99 C 311.52 158.68 311.66 162.40 310.99 166.04 C 304.70 166.92 298.29 166.02 292.01 167.14 C 291.68 166.90 291.02 166.40 290.69 166.16 C 290.76 150.14 291.56 134.09 293.94 118.23 C 294.60 110.62 295.77 103.07 296.78 95.50 C 297.13 93.47 297.39 91.32 298.62 89.60 Z" />
<path fill="#fffffd" d=" M 324.62 89.12 C 329.40 89.30 334.18 88.81 338.95 89.04 C 341.49 89.02 341.68 91.93 342.10 93.79 C 343.36 103.38 344.63 112.98 345.93 122.57 C 347.12 133.95 348.01 145.37 348.32 156.81 C 348.29 160.18 348.19 163.55 348.24 166.92 C 341.49 166.26 334.69 165.82 327.90 165.82 C 327.65 148.65 326.48 131.50 325.96 114.34 C 326.09 106.67 325.50 99.00 324.80 91.37 C 324.76 90.81 324.67 89.68 324.62 89.12 Z" />
<path fill="#dbdedb" d=" M 345.37 89.66 C 346.97 96.92 347.79 104.32 349.43 111.57 C 350.58 111.92 351.74 112.29 352.90 112.65 C 353.46 109.35 354.41 105.92 357.77 104.45 C 358.18 107.54 358.54 110.65 358.89 113.76 C 358.48 114.30 357.66 115.38 357.25 115.92 C 356.65 113.95 356.05 111.99 355.47 110.01 C 355.00 113.35 354.21 116.64 352.99 119.79 C 352.48 119.43 351.46 118.71 350.94 118.34 C 350.20 120.64 349.45 122.93 348.93 125.29 C 348.61 121.43 348.14 117.58 347.66 113.74 C 346.96 107.16 345.76 100.66 344.97 94.10 C 345.07 92.62 345.21 91.14 345.37 89.66 Z" />
<path fill="#aeb2b3" d=" M 323.93 100.93 C 323.86 97.72 324.32 94.53 324.80 91.37 C 325.50 99.00 326.09 106.67 325.96 114.34 C 324.61 118.76 324.69 123.41 324.80 127.98 C 324.58 141.07 325.60 154.13 325.48 167.22 C 326.08 166.87 327.29 166.17 327.90 165.82 C 334.69 165.82 341.49 166.26 348.24 166.92 C 339.47 169.79 329.91 166.12 321.23 169.46 C 322.00 161.07 322.56 152.68 322.51 144.25 C 323.99 129.87 324.08 115.38 323.93 100.93 Z" />
<path fill="#737979" d=" M 313.99 99.59 C 315.60 122.26 312.84 145.01 313.62 167.71 C 311.08 167.54 308.53 167.64 305.99 167.73 C 301.55 167.77 297.10 167.86 292.67 167.50 L 292.01 167.14 C 298.29 166.02 304.70 166.92 310.99 166.04 C 311.66 162.40 311.52 158.68 311.69 154.99 C 312.32 136.52 313.37 118.07 313.99 99.59 Z" />
<path fill="#c3c5c6" d=" M 355.47 110.01 C 356.05 111.99 356.65 113.95 357.25 115.92 C 357.66 115.38 358.48 114.30 358.89 113.76 C 359.69 119.53 360.10 125.35 360.77 131.14 C 360.08 129.93 359.36 128.74 358.65 127.55 C 356.70 130.06 354.59 132.44 352.40 134.74 C 352.14 132.05 351.82 129.36 351.37 126.70 C 351.10 130.98 350.78 135.25 350.30 139.52 C 349.89 134.77 349.36 130.03 348.93 125.29 C 349.45 122.93 350.20 120.64 350.94 118.34 C 351.46 118.71 352.48 119.43 352.99 119.79 C 354.21 116.64 355.00 113.35 355.47 110.01 Z" />
<path fill="#707475" d=" M 347.66 113.74 C 348.14 117.58 348.61 121.43 348.93 125.29 C 349.36 130.03 349.89 134.77 350.30 139.52 C 350.33 139.99 350.37 140.95 350.40 141.42 C 350.48 149.95 351.31 158.46 351.28 166.98 C 350.63 167.20 349.33 167.63 348.68 167.85 C 348.59 164.17 348.48 160.49 348.32 156.81 C 348.01 145.37 347.12 133.95 345.93 122.57 C 346.70 119.67 347.46 116.74 347.66 113.74 Z" />
<path fill="#767a7a" d=" M 324.80 127.98 C 324.69 123.41 324.61 118.76 325.96 114.34 C 326.48 131.50 327.65 148.65 327.90 165.82 C 327.29 166.17 326.08 166.87 325.48 167.22 C 325.60 154.13 324.58 141.07 324.80 127.98 Z" />
<path fill="#858a8a" d=" M 279.24 125.43 C 280.55 130.17 280.30 135.10 280.30 139.97 C 280.26 146.93 281.42 153.83 281.45 160.78 C 281.58 163.68 280.14 166.22 278.40 168.41 C 278.03 167.83 277.28 166.67 276.91 166.09 C 276.84 152.50 277.64 138.93 279.24 125.43 Z" />
<path fill="#abb1b1" d=" M 351.37 126.70 C 351.82 129.36 352.14 132.05 352.40 134.74 C 354.59 132.44 356.70 130.06 358.65 127.55 C 359.36 128.74 360.08 129.93 360.77 131.14 C 361.35 134.63 361.53 138.16 361.72 141.69 C 359.55 144.18 357.34 146.64 354.82 148.79 C 353.98 149.82 353.15 150.86 352.33 151.91 C 351.91 147.93 351.68 143.92 351.36 139.93 C 351.12 140.30 350.64 141.05 350.40 141.42 C 350.37 140.95 350.33 139.99 350.30 139.52 C 350.78 135.25 351.10 130.98 351.37 126.70 Z" />
<path fill="#f7f9f8" d=" M 319.25 132.06 C 319.48 131.68 319.94 130.92 320.17 130.54 C 320.97 139.67 320.25 148.85 320.47 158.00 C 320.25 162.17 321.11 166.58 319.43 170.52 C 318.19 163.74 318.99 156.83 318.77 149.99 C 318.89 144.02 318.32 137.98 319.25 132.06 Z" />
<path fill="#878b8c" d=" M 362.85 138.55 C 365.18 147.55 362.50 157.16 364.82 166.15 L 363.37 166.20 C 367.59 168.06 372.27 167.89 376.77 168.43 C 373.82 169.19 370.80 169.55 367.78 169.85 C 372.97 173.06 379.48 171.54 385.26 172.47 C 378.09 173.02 370.81 172.31 363.72 173.60 C 363.46 173.88 362.93 174.45 362.67 174.74 C 362.03 188.37 361.78 202.05 359.94 215.61 C 358.30 210.84 358.82 205.79 358.44 200.86 C 357.51 192.61 356.94 184.15 358.54 175.94 L 358.77 175.09 L 360.07 176.05 C 360.17 175.74 360.36 175.13 360.46 174.82 L 360.73 175.05 C 357.95 172.17 358.37 168.06 358.49 164.39 C 358.76 158.80 361.21 153.63 362.05 148.14 C 362.52 144.96 362.68 141.75 362.85 138.55 Z" />
<path fill="#959a9a" d=" M 354.82 148.79 C 357.34 146.64 359.55 144.18 361.72 141.69 C 361.84 143.84 362.00 145.98 362.05 148.14 C 361.21 153.63 358.76 158.80 358.49 164.39 C 358.37 168.06 357.95 172.17 360.73 175.05 L 360.46 174.82 C 360.36 175.13 360.17 175.74 360.07 176.05 L 358.77 175.09 L 358.54 175.94 C 356.94 184.15 357.51 192.61 358.44 200.86 C 358.82 205.79 358.30 210.84 359.94 215.61 C 358.75 229.50 356.68 243.31 354.50 257.07 C 355.04 256.84 356.13 256.38 356.67 256.15 C 355.42 260.38 354.94 264.78 353.83 269.05 C 350.80 268.46 347.71 268.40 344.65 268.50 C 346.15 267.89 347.61 267.20 349.09 266.52 C 345.72 265.76 342.32 265.10 338.92 264.51 C 343.44 264.18 349.71 264.75 351.24 259.23 C 353.43 250.44 351.93 241.21 352.00 232.25 C 351.30 232.70 350.61 233.16 349.92 233.62 C 350.14 229.98 349.97 226.33 349.65 222.69 C 350.56 213.13 351.38 203.56 352.03 193.97 C 352.62 187.76 353.00 181.51 352.59 175.27 C 352.39 175.25 352.00 175.20 351.80 175.17 C 351.01 175.10 349.43 174.97 348.64 174.90 C 348.63 179.11 348.51 183.32 348.51 187.54 L 348.30 186.39 C 348.13 182.93 348.16 179.46 348.21 175.99 C 341.91 176.11 335.64 176.80 329.35 177.14 C 328.35 176.44 327.36 175.76 326.37 175.07 C 325.61 182.77 325.86 190.53 325.32 198.25 C 324.68 190.38 325.70 182.47 324.68 174.62 C 325.01 174.31 325.67 173.68 326.00 173.37 C 333.40 173.77 340.82 173.93 348.22 173.64 C 343.08 172.74 337.89 172.12 332.79 171.03 C 335.04 169.89 337.52 169.40 340.05 169.45 C 344.31 169.44 348.51 168.63 352.56 167.33 C 352.88 162.20 352.95 157.03 352.33 151.91 C 353.15 150.86 353.98 149.82 354.82 148.79 Z" />
<path fill="#f1f5f4" d=" M 314.94 167.87 C 315.16 165.84 315.38 163.80 315.60 161.77 C 315.51 164.96 314.79 168.55 317.51 170.96 C 316.33 171.09 315.14 171.19 313.95 171.26 C 312.05 171.12 310.16 170.99 308.27 170.84 C 303.03 170.07 297.46 169.96 292.67 167.50 C 297.10 167.86 301.55 167.77 305.99 167.73 C 308.53 167.64 311.08 167.54 313.62 167.71 L 314.94 167.87 Z" />
<path fill="#6f7273" d=" M 363.37 166.20 L 364.82 166.15 C 370.23 166.17 375.61 167.01 381.02 167.28 C 382.96 167.46 385.03 167.31 386.82 168.24 C 386.40 169.68 385.80 171.07 385.26 172.47 C 379.48 171.54 372.97 173.06 367.78 169.85 C 370.80 169.55 373.82 169.19 376.77 168.43 C 372.27 167.89 367.59 168.06 363.37 166.20 Z" />
<path fill="#7c8081" d=" M 251.99 168.22 C 256.18 167.02 260.65 167.43 264.96 166.88 C 267.08 166.82 269.21 166.85 271.34 166.88 C 271.27 167.44 271.13 168.57 271.06 169.13 C 272.80 169.23 274.54 169.33 276.28 169.46 C 273.74 170.96 271.04 172.15 268.32 173.27 C 263.39 173.44 258.46 172.46 253.51 172.57 C 253.51 171.90 253.53 170.56 253.53 169.89 C 253.15 169.47 252.38 168.64 251.99 168.22 Z" />
<path fill="#babebf" d=" M 308.27 170.84 C 310.16 170.99 312.05 171.12 313.95 171.26 C 314.09 171.71 314.37 172.62 314.51 173.07 C 309.64 174.04 304.65 174.26 299.71 173.78 C 302.68 173.22 306.03 173.20 308.27 170.84 Z" />
<path fill="#838989" d=" M 276.19 174.49 C 277.20 173.44 278.23 172.41 279.27 171.38 C 279.30 172.44 279.33 173.51 279.37 174.57 C 280.38 175.61 281.88 176.40 282.17 177.93 C 282.70 181.89 281.41 185.78 280.82 189.67 C 279.51 196.92 280.71 204.41 278.84 211.59 C 278.32 206.02 277.69 200.47 277.34 194.89 C 276.26 188.13 277.04 181.26 276.19 174.49 Z" />
<path fill="#c5c8c8" d=" M 315.02 172.97 C 316.26 172.70 317.50 172.41 318.75 172.12 C 318.91 180.88 318.16 189.70 319.36 198.42 C 319.98 194.87 320.45 191.28 320.63 187.68 C 320.78 196.79 320.53 205.90 320.46 215.01 C 320.36 220.33 322.65 225.23 323.65 230.36 C 323.61 239.17 324.51 247.96 324.27 256.78 C 329.37 257.53 334.54 257.55 339.68 257.78 C 340.03 256.73 340.39 255.69 340.75 254.65 C 341.56 255.47 342.36 256.29 343.15 257.13 C 346.59 240.97 347.97 224.45 349.94 208.06 C 350.68 199.90 351.26 191.71 351.36 183.51 C 351.57 180.73 351.70 177.95 351.80 175.17 C 352.00 175.20 352.39 175.25 352.59 175.27 C 353.00 181.51 352.62 187.76 352.03 193.97 C 351.38 203.56 350.56 213.13 349.65 222.69 C 348.55 229.77 347.09 236.85 347.09 244.04 C 347.24 249.42 345.14 254.47 343.34 259.43 C 341.76 259.45 340.19 259.47 338.62 259.50 C 338.51 260.69 338.41 261.89 338.30 263.09 C 336.05 263.49 333.80 263.89 331.55 264.31 C 334.24 265.66 336.90 267.05 339.50 268.57 C 334.24 268.65 328.88 268.34 323.75 269.69 C 323.73 270.00 323.69 270.61 323.67 270.92 C 322.11 270.83 320.56 270.75 319.01 270.66 C 318.41 273.38 317.63 276.06 316.73 278.69 C 316.42 275.72 316.00 272.75 315.99 269.76 C 316.65 266.01 317.43 261.66 314.34 258.71 L 314.49 257.61 C 314.67 256.09 314.85 254.58 315.05 253.07 C 309.96 252.61 304.83 252.63 299.73 252.91 L 300.06 252.61 C 304.72 252.27 309.40 252.47 314.06 252.22 C 314.08 251.76 314.11 250.83 314.13 250.36 C 314.64 243.44 314.52 236.50 314.77 229.57 C 317.91 210.70 319.10 191.44 317.98 172.33 C 313.99 177.96 317.79 186.12 313.70 191.73 C 313.72 190.93 313.74 189.34 313.76 188.54 C 314.91 183.41 314.11 178.13 315.02 172.97 Z" />
<path fill="#a0a4a5" d=" M 313.70 191.73 C 317.79 186.12 313.99 177.96 317.98 172.33 C 319.10 191.44 317.91 210.70 314.77 229.57 C 314.21 216.97 313.59 204.35 313.70 191.73 Z" />
<path fill="#aeb2b3" d=" M 320.97 172.80 C 322.64 173.00 324.32 173.21 326.00 173.37 C 325.67 173.68 325.01 174.31 324.68 174.62 C 325.70 182.47 324.68 190.38 325.32 198.25 C 325.27 206.43 324.87 214.60 324.82 222.78 C 324.55 225.33 324.03 227.83 323.65 230.36 C 322.65 225.23 320.36 220.33 320.46 215.01 C 320.53 205.90 320.78 196.79 320.63 187.68 C 320.80 182.72 321.06 177.76 320.97 172.80 Z" />
<path fill="#d4d7d6" d=" M 366.05 175.30 C 367.07 174.03 368.37 173.43 369.95 173.48 C 373.22 173.45 376.71 173.03 379.74 174.56 C 375.20 175.12 370.62 175.41 366.05 175.30 Z" />
<path fill="#6f7273" d=" M 296.49 175.99 C 301.79 174.63 307.27 174.45 312.70 174.94 C 312.91 179.48 313.21 184.02 313.76 188.54 C 313.74 189.34 313.72 190.93 313.70 191.73 C 313.59 204.35 314.21 216.97 314.77 229.57 C 314.52 236.50 314.64 243.44 314.13 250.36 C 313.43 225.95 311.96 201.56 311.27 177.15 C 306.37 176.42 301.42 176.31 296.49 175.99 Z" />
<path fill="#707475" d=" M 326.37 175.07 C 327.36 175.76 328.35 176.44 329.35 177.14 L 328.05 177.27 C 327.36 194.63 326.69 211.99 326.02 229.35 C 325.66 227.16 325.17 224.98 324.82 222.78 C 324.87 214.60 325.27 206.43 325.32 198.25 C 325.86 190.53 325.61 182.77 326.37 175.07 Z" />
<path fill="#5d6161" d=" M 348.64 174.90 C 349.43 174.97 351.01 175.10 351.80 175.17 C 351.70 177.95 351.57 180.73 351.36 183.51 C 350.59 186.32 349.91 189.15 349.43 192.03 C 349.11 190.53 348.78 189.04 348.51 187.54 C 348.51 183.32 348.63 179.11 348.64 174.90 Z" />
<path fill="#d7dbda" d=" M 359.94 215.61 C 361.78 202.05 362.03 188.37 362.67 174.74 C 365.63 181.80 363.95 189.60 364.19 197.01 C 363.41 213.10 361.22 229.08 358.73 244.99 C 358.05 248.71 358.10 252.61 356.67 256.15 C 356.13 256.38 355.04 256.84 354.50 257.07 C 356.68 243.31 358.75 229.50 359.94 215.61 Z" />
<path fill="#d5d6d8" d=" M 286.84 175.10 C 287.58 176.62 288.41 178.17 288.34 179.92 C 288.48 195.22 291.01 210.37 292.35 225.59 C 292.47 228.74 292.35 231.89 292.14 235.04 C 291.93 235.32 291.51 235.87 291.29 236.15 C 291.01 233.39 290.72 230.63 290.38 227.89 C 290.05 225.20 289.59 222.54 289.31 219.85 C 287.91 204.99 285.99 190.05 286.84 175.10 Z" />
<path fill="#fffffd" d=" M 290.77 175.81 C 292.67 175.88 294.58 175.95 296.49 175.99 C 301.42 176.31 306.37 176.42 311.27 177.15 C 311.96 201.56 313.43 225.95 314.13 250.36 C 314.11 250.83 314.08 251.76 314.06 252.22 C 309.40 252.47 304.72 252.27 300.06 252.61 C 298.98 251.76 297.63 250.98 297.44 249.48 C 296.17 244.19 295.80 238.74 294.98 233.37 C 292.31 214.30 290.59 195.07 290.77 175.81 Z" />
<path fill="#fffffd" d=" M 329.35 177.14 C 335.64 176.80 341.91 176.11 348.21 175.99 C 348.16 179.46 348.13 182.93 348.30 186.39 C 347.43 204.44 345.93 222.47 343.34 240.36 C 342.55 244.45 342.94 249.16 340.06 252.51 C 334.96 252.47 329.86 252.46 324.76 252.48 C 325.28 244.78 325.77 237.07 326.02 229.35 C 326.69 211.99 327.36 194.63 328.05 177.27 L 329.35 177.14 Z" />
<path fill="#373837" d=" M 275.53 193.97 C 275.34 189.05 274.93 184.06 275.56 179.17 C 275.81 184.73 275.38 190.35 276.24 195.89 C 277.02 208.41 278.34 220.88 279.89 233.33 C 280.11 237.24 280.89 241.10 281.97 244.87 C 283.18 251.42 283.99 258.08 286.20 264.40 C 286.41 265.79 286.59 267.19 286.73 268.60 C 292.46 268.54 298.20 268.39 303.94 268.57 C 307.97 268.77 312.12 268.36 315.99 269.76 C 316.00 272.75 316.42 275.72 316.73 278.69 C 316.92 281.98 317.31 285.25 317.71 288.53 C 319.12 288.33 320.53 288.13 321.94 287.92 C 322.40 282.24 323.64 276.64 323.67 270.92 C 323.69 270.61 323.73 270.00 323.75 269.69 C 328.88 268.34 334.24 268.65 339.50 268.57 C 341.21 268.57 342.93 268.56 344.65 268.50 C 347.71 268.40 350.80 268.46 353.83 269.05 C 348.68 270.16 343.37 269.30 338.19 270.09 C 333.73 270.89 328.86 269.40 324.71 271.60 C 324.30 277.19 323.34 282.73 323.26 288.36 C 320.81 289.09 318.20 289.52 315.75 288.54 C 314.84 282.49 314.91 276.15 312.62 270.42 C 308.77 270.33 304.91 270.34 301.09 269.83 C 295.96 269.21 290.69 269.96 285.66 268.68 C 285.16 266.38 284.60 264.10 284.13 261.80 C 283.23 258.54 282.58 255.21 282.11 251.87 C 278.78 232.73 276.79 213.35 275.53 193.97 Z" />
<path fill="#6f7273" d=" M 349.43 192.03 C 349.91 189.15 350.59 186.32 351.36 183.51 C 351.26 191.71 350.68 199.90 349.94 208.06 C 347.97 224.45 346.59 240.97 343.15 257.13 C 342.36 256.29 341.56 255.47 340.75 254.65 L 340.33 254.30 C 339.66 254.13 338.32 253.78 337.65 253.61 C 338.45 253.25 339.26 252.89 340.06 252.51 C 342.94 249.16 342.55 244.45 343.34 240.36 C 345.93 222.47 347.43 204.44 348.30 186.39 L 348.51 187.54 C 348.78 189.04 349.11 190.53 349.43 192.03 Z" />
<path fill="#a2a8a7" d=" M 282.44 225.25 C 283.85 223.25 285.63 221.57 287.59 220.12 C 287.92 222.81 288.25 225.50 288.67 228.17 C 289.01 225.41 289.30 222.64 289.31 219.85 C 289.59 222.54 290.05 225.20 290.38 227.89 C 290.18 229.52 289.82 231.12 289.41 232.72 C 286.35 232.36 283.20 232.53 280.27 231.45 C 280.40 228.39 279.35 225.44 279.55 222.38 C 280.51 223.32 281.47 224.29 282.44 225.25 Z" />
<path fill="#8b9191" d=" M 323.65 230.36 C 324.03 227.83 324.55 225.33 324.82 222.78 C 325.17 224.98 325.66 227.16 326.02 229.35 C 325.77 237.07 325.28 244.78 324.76 252.48 C 329.86 252.46 334.96 252.47 340.06 252.51 C 339.26 252.89 338.45 253.25 337.65 253.61 C 338.32 253.78 339.66 254.13 340.33 254.30 L 340.75 254.65 C 340.39 255.69 340.03 256.73 339.68 257.78 C 334.54 257.55 329.37 257.53 324.27 256.78 C 324.51 247.96 323.61 239.17 323.65 230.36 Z" />
<path fill="#a7adac" d=" M 347.09 244.04 C 347.09 236.85 348.55 229.77 349.65 222.69 C 349.97 226.33 350.14 229.98 349.92 233.62 C 350.61 233.16 351.30 232.70 352.00 232.25 C 351.93 241.21 353.43 250.44 351.24 259.23 C 349.71 264.75 343.44 264.18 338.92 264.51 C 342.32 265.10 345.72 265.76 349.09 266.52 C 347.61 267.20 346.15 267.89 344.65 268.50 C 342.93 268.56 341.21 268.57 339.50 268.57 C 336.90 267.05 334.24 265.66 331.55 264.31 C 333.80 263.89 336.05 263.49 338.30 263.09 C 338.41 261.89 338.51 260.69 338.62 259.50 C 340.19 259.47 341.76 259.45 343.34 259.43 C 345.14 254.47 347.24 249.42 347.09 244.04 Z" />
<path fill="#b9bdbe" d=" M 290.38 227.89 C 290.72 230.63 291.01 233.39 291.29 236.15 C 291.51 235.87 291.93 235.32 292.14 235.04 L 292.80 234.53 C 292.78 235.00 292.73 235.93 292.71 236.40 C 292.38 238.86 291.99 241.32 291.70 243.80 C 290.54 242.37 289.51 239.85 287.22 240.46 C 285.08 241.35 283.68 243.40 281.97 244.87 C 280.89 241.10 280.11 237.24 279.89 233.33 C 279.99 232.86 280.18 231.92 280.27 231.45 C 283.20 232.53 286.35 232.36 289.41 232.72 C 289.82 231.12 290.18 229.52 290.38 227.89 Z" />
<path fill="#8e9393" d=" M 293.64 234.06 C 293.97 233.88 294.64 233.54 294.98 233.37 C 295.80 238.74 296.17 244.19 297.44 249.48 C 297.63 250.98 298.98 251.76 300.06 252.61 L 299.73 252.91 C 299.49 253.16 298.99 253.64 298.75 253.89 C 304.15 254.27 309.87 255.19 315.05 253.07 C 314.85 254.58 314.67 256.09 314.49 257.61 C 309.45 257.48 304.42 257.80 299.39 257.59 C 299.20 257.08 298.81 256.06 298.61 255.55 C 297.56 255.44 296.79 256.81 295.88 257.26 C 294.14 250.43 293.48 243.39 292.71 236.40 C 292.73 235.93 292.78 235.00 292.80 234.53 C 293.01 234.41 293.43 234.17 293.64 234.06 Z" />
<path fill="#d8dbd9" d=" M 291.70 243.80 C 291.99 241.32 292.38 238.86 292.71 236.40 C 293.48 243.39 294.14 250.43 295.88 257.26 C 296.79 256.81 297.56 255.44 298.61 255.55 C 298.81 256.06 299.20 257.08 299.39 257.59 C 304.42 257.80 309.45 257.48 314.49 257.61 L 314.34 258.71 C 309.71 259.36 305.03 259.18 300.37 259.16 C 301.18 260.61 301.99 262.07 302.80 263.53 C 301.97 263.60 300.32 263.75 299.49 263.83 C 295.13 262.05 290.58 263.64 286.20 264.40 C 283.99 258.08 283.18 251.42 281.97 244.87 C 283.68 243.40 285.08 241.35 287.22 240.46 C 289.51 239.85 290.54 242.37 291.70 243.80 Z" />
<path fill="#646665" d=" M 298.75 253.89 C 298.99 253.64 299.49 253.16 299.73 252.91 C 304.83 252.63 309.96 252.61 315.05 253.07 C 309.87 255.19 304.15 254.27 298.75 253.89 Z" />
<path fill="#b0b4b5" d=" M 300.37 259.16 C 305.03 259.18 309.71 259.36 314.34 258.71 C 317.43 261.66 316.65 266.01 315.99 269.76 C 312.12 268.36 307.97 268.77 303.94 268.57 C 302.97 266.56 301.26 265.09 299.49 263.83 C 300.32 263.75 301.97 263.60 302.80 263.53 C 301.99 262.07 301.18 260.61 300.37 259.16 Z" />
<path fill="#cdcfcf" d=" M 286.20 264.40 C 290.58 263.64 295.13 262.05 299.49 263.83 C 301.26 265.09 302.97 266.56 303.94 268.57 C 298.20 268.39 292.46 268.54 286.73 268.60 C 286.59 267.19 286.41 265.79 286.20 264.40 Z" />
<path fill="#aaaeaf" d=" M 319.01 270.66 C 320.56 270.75 322.11 270.83 323.67 270.92 C 323.64 276.64 322.40 282.24 321.94 287.92 C 320.53 288.13 319.12 288.33 317.71 288.53 C 317.31 285.25 316.92 281.98 316.73 278.69 C 317.63 276.06 318.41 273.38 319.01 270.66 Z" />
<path fill="#21221d" d=" M 302.47 372.35 C 309.43 369.36 317.56 368.68 324.69 371.51 C 317.99 375.95 309.73 374.13 302.47 372.35 Z" />
<path fill="#22211d" d=" M 391.16 371.83 C 398.02 369.29 405.71 368.88 412.60 371.56 C 406.11 375.31 397.82 374.96 391.16 371.83 Z" />
<path fill="#0e0d0a" d=" M 45.69 371.14 C 48.69 371.20 51.70 371.25 54.70 371.24 C 54.59 386.32 54.68 401.41 54.64 416.50 C 62.47 416.43 70.30 416.59 78.12 416.38 C 76.51 417.22 73.65 417.18 73.54 419.49 C 73.21 421.20 74.29 422.76 74.79 424.34 C 75.87 423.66 76.95 422.99 78.03 422.32 C 78.19 423.10 78.51 424.65 78.67 425.43 C 67.68 425.42 56.68 425.42 45.68 425.43 C 45.66 407.33 45.65 389.24 45.69 371.14 Z" />
<path fill="#201f1b" d=" M 127.40 371.15 C 130.55 371.20 133.69 371.20 136.84 371.16 C 136.80 389.25 136.80 407.35 136.84 425.44 C 133.70 425.46 130.57 425.46 127.43 425.48 C 127.40 407.37 127.45 389.26 127.40 371.15 Z" />
<path fill="#201f1b" d=" M 191.44 370.67 L 191.51 371.24 C 191.69 372.87 191.86 374.51 192.04 376.16 C 196.67 376.32 201.30 376.24 205.93 375.98 C 206.87 377.25 207.82 378.51 208.79 379.76 C 208.09 381.13 207.40 382.51 206.70 383.88 C 205.30 383.30 203.91 382.72 202.51 382.14 C 202.83 383.09 203.15 384.04 203.47 385.00 C 202.79 385.32 202.12 385.65 201.45 385.98 L 200.53 386.43 C 200.73 399.46 200.75 412.49 200.61 425.53 C 197.53 425.44 194.44 425.44 191.35 425.52 C 191.29 407.24 191.13 388.94 191.44 370.67 Z" />
<path fill="#12100d" d=" M 191.51 371.24 C 195.01 371.31 198.51 371.10 202.02 371.22 C 203.81 372.20 204.63 374.43 205.93 375.98 C 201.30 376.24 196.67 376.32 192.04 376.16 C 191.86 374.51 191.69 372.87 191.51 371.24 Z" />
<path fill="#15120f" d=" M 231.48 371.18 C 234.60 371.25 237.72 371.25 240.85 371.19 C 240.79 389.27 240.79 407.35 240.85 425.43 C 237.24 425.44 233.64 425.44 230.04 425.41 C 226.28 419.90 222.08 414.72 218.24 409.26 C 220.34 408.35 222.41 407.38 224.44 406.32 C 224.05 404.35 223.73 402.37 223.51 400.38 C 225.23 402.50 226.86 404.70 228.42 406.95 C 226.41 408.08 224.59 409.53 224.02 411.87 L 225.59 410.75 L 223.46 413.62 L 225.44 412.30 L 225.36 413.35 L 225.77 412.87 C 226.34 413.91 226.92 414.95 227.50 415.99 C 227.83 415.09 228.17 414.20 228.51 413.31 C 229.64 414.34 230.77 415.37 231.91 416.41 C 231.99 418.88 232.08 421.36 232.15 423.84 C 234.44 423.82 236.72 423.80 239.01 423.78 C 239.50 415.88 239.11 407.95 239.23 400.04 C 239.13 392.11 239.60 384.16 239.04 376.24 C 237.05 376.23 235.07 376.23 233.10 376.23 C 232.70 385.82 233.00 395.42 233.04 405.02 C 233.12 406.97 232.51 408.85 231.71 410.61 C 231.34 397.47 231.59 384.32 231.48 371.18 Z" />
<path fill="#0c0b07" d=" M 473.33 371.24 C 476.43 371.27 479.53 371.20 482.64 371.13 C 482.63 386.16 482.73 401.19 482.57 416.21 L 482.56 416.64 C 481.71 416.53 480.87 416.44 480.03 416.38 C 479.83 418.84 479.98 421.31 480.08 423.77 C 488.03 423.78 495.99 423.70 503.95 423.69 C 504.20 421.30 504.25 418.89 504.38 416.50 C 507.33 418.29 505.91 422.55 506.58 425.42 C 495.49 425.44 484.40 425.38 473.32 425.46 C 473.42 407.38 473.38 389.31 473.33 371.24 Z" />
<path fill="#110e0c" d=" M 544.71 371.25 C 548.40 371.26 552.10 371.17 555.81 371.19 C 556.79 372.53 557.79 373.86 558.78 375.21 C 556.47 375.63 554.17 376.05 551.86 376.45 C 551.89 381.54 553.05 386.65 551.89 391.70 C 552.46 391.92 553.58 392.37 554.14 392.60 C 554.33 403.53 554.18 414.47 554.20 425.40 C 550.99 425.43 547.78 425.43 544.58 425.42 L 544.70 424.05 C 546.52 423.95 548.36 423.85 550.20 423.76 C 550.55 407.91 550.51 392.03 550.18 376.18 C 548.33 376.12 546.49 376.06 544.66 376.01 C 544.66 374.42 544.68 372.83 544.71 371.25 Z" />
<path fill="#100e0b" d=" M 584.69 371.65 C 587.93 370.94 591.28 371.29 594.58 371.11 C 594.66 389.22 594.57 407.33 594.61 425.44 C 590.96 425.41 587.32 425.39 583.68 425.50 C 581.78 423.12 580.04 420.62 578.22 418.19 C 580.16 417.05 582.12 415.95 584.11 414.89 C 584.07 417.88 584.00 420.88 583.94 423.88 C 586.60 423.87 589.27 423.85 591.95 423.83 C 592.32 417.81 591.91 411.79 590.65 405.91 C 589.67 394.78 591.41 383.50 589.26 372.45 C 587.73 372.20 586.19 371.93 584.69 371.65 Z" />
<path fill="#0b0a06" d=" M 297.39 375.46 C 299.02 374.33 300.61 373.07 302.47 372.35 C 309.73 374.13 317.99 375.95 324.69 371.51 C 327.75 372.38 330.39 374.25 332.69 376.41 C 330.91 377.58 329.18 380.17 326.83 378.73 C 325.02 377.11 322.81 376.08 320.35 376.53 C 320.37 377.28 320.42 378.78 320.44 379.53 C 315.54 377.97 310.27 378.62 305.70 380.90 C 305.56 380.56 305.28 379.89 305.14 379.56 C 304.45 378.33 303.85 376.96 302.71 376.09 C 301.04 375.37 299.16 375.51 297.39 375.46 Z" />
<path fill="#0d0b09" d=" M 385.30 375.18 C 387.17 373.94 389.13 372.82 391.16 371.83 C 397.82 374.96 406.11 375.31 412.60 371.56 C 415.00 372.25 417.13 373.60 419.31 374.80 C 418.10 375.79 416.90 376.84 416.09 378.20 C 414.21 378.91 412.32 379.56 410.43 380.21 C 405.07 378.08 398.92 378.10 393.71 380.64 C 392.87 379.34 392.03 378.03 391.21 376.73 C 389.23 376.21 387.26 375.70 385.30 375.18 Z" />
<path fill="#21201d" d=" M 584.69 371.65 C 586.19 371.93 587.73 372.20 589.26 372.45 C 591.41 383.50 589.67 394.78 590.65 405.91 C 591.91 411.79 592.32 417.81 591.95 423.83 C 589.27 423.85 586.60 423.87 583.94 423.88 C 584.00 420.88 584.07 417.88 584.11 414.89 C 582.12 415.95 580.16 417.05 578.22 418.19 C 577.61 417.35 576.93 416.57 576.45 415.66 C 576.37 413.41 576.46 411.17 576.53 408.92 C 578.24 408.20 579.95 407.48 581.67 406.76 C 582.71 408.25 583.76 409.74 584.84 411.22 C 584.82 398.03 585.07 384.83 584.69 371.65 Z" />
<path fill="#23201d" d=" M 295.39 377.09 C 296.05 376.53 296.68 375.95 297.39 375.46 C 299.16 375.51 301.04 375.37 302.71 376.09 C 303.85 376.96 304.45 378.33 305.14 379.56 C 305.28 379.89 305.56 380.56 305.70 380.90 C 304.24 382.29 302.63 383.53 301.14 384.89 C 299.66 384.36 298.19 383.84 296.72 383.31 C 296.33 381.23 295.91 379.15 295.39 377.09 Z" />
<path fill="#22211d" d=" M 383.16 376.83 C 383.86 376.27 384.58 375.73 385.30 375.18 C 387.26 375.70 389.23 376.21 391.21 376.73 C 392.03 378.03 392.87 379.34 393.71 380.64 C 391.75 381.91 389.93 383.41 388.33 385.11 C 387.24 384.36 386.15 383.62 385.07 382.88 C 384.49 380.90 383.87 378.94 383.21 376.99 L 383.16 376.83 Z" />
<path fill="#201f1b" d=" M 419.31 374.80 C 421.41 376.64 423.41 378.60 425.31 380.66 C 424.14 381.95 422.88 383.18 421.43 384.16 C 421.63 387.14 422.06 390.27 420.47 392.99 C 419.16 387.50 415.39 382.84 410.43 380.21 C 412.32 379.56 414.21 378.91 416.09 378.20 C 416.90 376.84 418.10 375.79 419.31 374.80 Z" />
<path fill="#201f1b" d=" M 558.78 375.21 L 559.01 375.17 C 559.53 376.04 560.11 376.90 560.59 377.83 C 560.47 379.99 560.20 382.13 559.96 384.29 C 561.56 383.99 563.17 383.70 564.78 383.42 C 566.07 385.23 567.38 387.02 568.75 388.78 C 568.33 389.61 567.92 390.44 567.52 391.28 C 565.71 391.20 563.90 391.13 562.10 391.04 C 563.76 393.09 565.50 395.27 565.69 398.02 C 565.43 398.40 564.92 399.17 564.66 399.56 C 561.13 394.80 557.60 390.05 554.16 385.24 C 554.17 387.69 554.18 390.14 554.14 392.60 C 553.58 392.37 552.46 391.92 551.89 391.70 C 553.05 386.65 551.89 381.54 551.86 376.45 C 554.17 376.05 556.47 375.63 558.78 375.21 Z" />
<path fill="#21201e" d=" M 49.70 377.91 C 49.48 376.34 51.55 374.57 52.78 376.21 C 53.59 377.65 53.31 379.39 53.43 380.97 C 53.37 392.94 53.45 404.91 53.37 416.88 C 59.48 417.74 65.65 417.04 71.80 417.26 C 71.82 419.38 71.81 421.49 71.77 423.61 C 63.89 423.51 56.02 423.76 48.15 423.80 C 47.57 420.41 48.27 417.13 49.51 414.00 C 49.96 401.99 49.44 389.93 49.70 377.91 Z" />
<path fill="#201f1c" d=" M 233.10 376.23 C 235.07 376.23 237.05 376.23 239.04 376.24 C 239.60 384.16 239.13 392.11 239.23 400.04 C 239.11 407.95 239.50 415.88 239.01 423.78 C 236.72 423.80 234.44 423.82 232.15 423.84 C 232.08 421.36 231.99 418.88 231.91 416.41 C 230.77 415.37 229.64 414.34 228.51 413.31 C 228.17 414.20 227.83 415.09 227.50 415.99 C 226.92 414.95 226.34 413.91 225.77 412.87 L 225.36 413.35 L 225.44 412.30 L 223.46 413.62 L 225.59 410.75 L 224.02 411.87 C 224.59 409.53 226.41 408.08 228.42 406.95 C 229.39 408.39 230.41 409.80 231.48 411.17 L 231.71 410.61 C 232.51 408.85 233.12 406.97 233.04 405.02 C 233.00 395.42 232.70 385.82 233.10 376.23 Z" />
<path fill="#1c1b17" d=" M 320.35 376.53 C 322.81 376.08 325.02 377.11 326.83 378.73 C 329.18 380.17 330.91 377.58 332.69 376.41 C 333.46 377.30 334.23 378.19 335.01 379.08 C 332.44 381.09 329.91 383.14 327.28 385.08 C 325.48 382.69 323.16 380.78 320.44 379.53 C 320.42 378.78 320.37 377.28 320.35 376.53 Z" />
<path fill="#272622" d=" M 475.27 376.30 C 476.70 373.95 478.83 377.30 478.29 378.93 C 478.21 393.29 478.32 407.66 478.22 422.02 C 478.81 424.93 474.28 424.85 474.72 422.04 C 474.42 408.36 474.79 394.66 474.56 380.98 C 474.75 379.44 474.19 377.58 475.27 376.30 Z" />
<path fill="#22211d" d=" M 544.66 376.01 C 546.49 376.06 548.33 376.12 550.18 376.18 C 550.51 392.03 550.55 407.91 550.20 423.76 C 548.36 423.85 546.52 423.95 544.70 424.05 C 544.67 408.03 544.74 392.02 544.66 376.01 Z" />
<path fill="#0b0b08" d=" M 290.28 383.82 C 291.76 381.41 293.45 379.14 295.39 377.09 C 295.91 379.15 296.33 381.23 296.72 383.31 C 298.19 383.84 299.66 384.36 301.14 384.89 C 299.12 387.80 297.72 391.08 296.87 394.51 C 295.63 391.16 294.57 387.73 294.43 384.13 C 293.04 384.02 291.66 383.92 290.28 383.82 Z" />
<path fill="#110d0a" d=" M 378.48 382.60 C 379.90 380.60 381.42 378.67 383.21 376.99 C 383.87 378.94 384.49 380.90 385.07 382.88 C 386.15 383.62 387.24 384.36 388.33 385.11 C 386.90 387.12 385.75 389.31 384.84 391.60 C 384.27 389.32 383.76 387.03 383.27 384.74 C 381.67 384.02 380.07 383.31 378.48 382.60 Z" />
<path fill="#feffff" d=" M 393.71 380.64 C 398.92 378.10 405.07 378.08 410.43 380.21 C 415.39 382.84 419.16 387.50 420.47 392.99 C 421.03 397.60 421.13 402.41 419.39 406.79 C 416.54 413.11 410.04 417.83 403.01 417.78 C 397.36 418.15 391.86 415.42 388.22 411.19 C 387.96 410.82 387.44 410.08 387.18 409.70 C 383.85 404.30 383.49 397.67 384.84 391.60 C 385.75 389.31 386.90 387.12 388.33 385.11 C 389.93 383.41 391.75 381.91 393.71 380.64 Z" />
<path fill="#080607" d=" M 560.59 377.83 C 562.05 379.64 563.43 381.51 564.78 383.42 C 563.17 383.70 561.56 383.99 559.96 384.29 C 560.20 382.13 560.47 379.99 560.59 377.83 Z" />
<path fill="#191814" d=" M 208.79 379.76 C 212.53 385.14 216.44 390.38 220.29 395.68 C 220.01 396.86 219.74 398.06 219.46 399.25 C 217.10 400.54 215.80 402.75 215.28 405.35 C 210.75 398.84 205.89 392.56 201.45 385.98 C 202.12 385.65 202.79 385.32 203.47 385.00 C 203.15 384.04 202.83 383.09 202.51 382.14 C 203.91 382.72 205.30 383.30 206.70 383.88 C 207.40 382.51 208.09 381.13 208.79 379.76 Z" />
<path fill="#0d0b0a" d=" M 421.43 384.16 C 422.88 383.18 424.14 381.95 425.31 380.66 C 426.48 382.66 427.57 384.70 428.54 386.82 C 427.56 387.99 426.40 389.19 426.28 390.80 C 425.52 396.12 425.94 401.52 425.84 406.87 C 426.70 407.49 427.55 408.12 428.41 408.77 C 428.60 411.52 426.15 413.84 424.82 416.13 C 424.29 413.66 423.73 411.20 423.31 408.72 C 422.00 408.07 420.69 407.43 419.39 406.79 C 421.13 402.41 421.03 397.60 420.47 392.99 C 422.06 390.27 421.63 387.14 421.43 384.16 Z" />
<path fill="#1f1f1c" d=" M 380.21 416.36 C 372.83 406.80 372.13 392.86 378.48 382.60 C 380.07 383.31 381.67 384.02 383.27 384.74 C 383.76 387.03 384.27 389.32 384.84 391.60 C 383.49 397.67 383.85 404.30 387.18 409.70 C 386.19 410.43 385.22 411.16 384.25 411.89 C 383.97 410.41 383.68 408.94 383.39 407.47 C 380.57 409.40 382.91 412.87 382.95 415.52 C 382.26 415.73 380.89 416.15 380.21 416.36 Z" />
<path fill="#201f1b" d=" M 290.28 383.82 C 291.66 383.92 293.04 384.02 294.43 384.13 C 294.57 387.73 295.63 391.16 296.87 394.51 C 296.79 397.19 296.76 399.88 296.92 402.57 C 295.55 406.52 293.97 410.50 291.37 413.83 C 285.49 404.93 285.47 393.18 290.28 383.82 Z" />
<path fill="#23221f" d=" M 426.28 390.80 C 426.40 389.19 427.56 387.99 428.54 386.82 C 431.50 393.88 431.31 401.93 428.87 409.11 L 428.41 408.77 C 427.55 408.12 426.70 407.49 425.84 406.87 C 425.94 401.52 425.52 396.12 426.28 390.80 Z" />
<path fill="#191714" d=" M 567.52 391.28 C 567.92 390.44 568.33 389.61 568.75 388.78 C 572.92 394.87 577.47 400.69 581.67 406.76 C 579.95 407.48 578.24 408.20 576.53 408.92 C 576.46 411.17 576.37 413.41 576.45 415.66 C 572.31 410.48 568.69 404.90 564.55 399.72 L 564.66 399.56 C 564.92 399.17 565.43 398.40 565.69 398.02 C 565.50 395.27 563.76 393.09 562.10 391.04 C 563.90 391.13 565.71 391.20 567.52 391.28 Z" />
<path fill="#21201c" d=" M 220.29 395.68 C 221.34 397.15 222.41 398.62 223.48 400.10 L 223.51 400.38 C 223.73 402.37 224.05 404.35 224.44 406.32 C 222.41 407.38 220.34 408.35 218.24 409.26 C 217.26 407.95 216.28 406.64 215.28 405.35 C 215.80 402.75 217.10 400.54 219.46 399.25 C 219.74 398.06 220.01 396.86 220.29 395.68 Z" />
<path fill="#13120f" d=" M 291.37 413.83 C 293.97 410.50 295.55 406.52 296.92 402.57 C 298.02 407.74 300.69 412.68 305.39 415.39 C 304.59 416.72 303.79 418.07 302.99 419.41 C 300.51 418.56 297.88 418.12 295.31 418.89 C 293.88 417.29 292.58 415.59 291.37 413.83 Z" />
<path fill="#201f1c" d=" M 403.01 417.78 C 410.04 417.83 416.54 413.11 419.39 406.79 C 420.69 407.43 422.00 408.07 423.31 408.72 C 423.73 411.20 424.29 413.66 424.82 416.13 C 421.74 420.10 417.46 423.53 412.56 424.82 C 410.07 423.91 407.70 422.53 405.02 422.27 C 400.53 422.02 396.17 423.44 392.02 424.99 C 389.05 423.72 386.34 421.96 383.76 420.05 C 383.92 419.36 384.23 417.97 384.39 417.28 C 385.82 417.07 387.25 416.87 388.68 416.68 C 387.78 415.51 386.88 414.35 385.98 413.20 C 386.54 412.70 387.66 411.69 388.22 411.19 C 391.86 415.42 397.36 418.15 403.01 417.78 Z" />
<path fill="#0a0605" d=" M 382.95 415.52 C 382.91 412.87 380.57 409.40 383.39 407.47 C 383.68 408.94 383.97 410.41 384.25 411.89 C 385.22 411.16 386.19 410.43 387.18 409.70 C 387.44 410.08 387.96 410.82 388.22 411.19 C 387.66 411.69 386.54 412.70 385.98 413.20 C 386.88 414.35 387.78 415.51 388.68 416.68 C 387.25 416.87 385.82 417.07 384.39 417.28 C 384.23 417.97 383.92 419.36 383.76 420.05 C 382.55 418.84 381.36 417.61 380.21 416.36 C 380.89 416.15 382.26 415.73 382.95 415.52 Z" />
<path fill="#0b090a" d=" M 323.67 415.29 C 325.33 413.78 326.88 412.16 328.28 410.40 C 330.90 412.29 333.47 414.25 336.05 416.19 C 335.33 417.13 334.61 418.08 333.89 419.03 C 332.05 418.72 330.22 418.95 328.43 419.37 C 328.06 418.42 327.69 417.46 327.33 416.51 C 326.11 416.10 324.89 415.69 323.67 415.29 Z" />
<path fill="#24211f" d=" M 78.12 416.38 L 78.58 416.23 C 78.63 419.29 78.62 422.36 78.67 425.43 C 78.51 424.65 78.19 423.10 78.03 422.32 C 76.95 422.99 75.87 423.66 74.79 424.34 C 74.29 422.76 73.21 421.20 73.54 419.49 C 73.65 417.18 76.51 417.22 78.12 416.38 Z" />
<path fill="#21201c" d=" M 302.99 419.41 C 303.79 418.07 304.59 416.72 305.39 415.39 C 310.98 418.49 318.18 418.75 323.67 415.29 C 324.89 415.69 326.11 416.10 327.33 416.51 C 327.69 417.46 328.06 418.42 328.43 419.37 C 330.22 418.95 332.05 418.72 333.89 419.03 C 331.34 421.65 328.13 423.48 324.91 425.15 L 324.69 425.05 C 319.64 421.77 313.54 421.93 307.87 423.09 L 307.46 422.28 L 307.43 423.86 C 305.67 423.18 303.91 422.49 302.15 421.79 C 301.72 422.06 300.87 422.60 300.44 422.86 C 298.68 421.59 296.97 420.27 295.31 418.89 C 297.88 418.12 300.51 418.56 302.99 419.41 Z" />
<path fill="#060603" d=" M 415.70 415.60 C 417.25 415.73 418.80 415.90 420.35 416.08 C 419.21 417.41 417.69 418.30 416.17 419.11 C 416.05 418.23 415.82 416.48 415.70 415.60 Z" />
<path fill="#201e1b" d=" M 480.03 416.38 C 480.87 416.44 481.71 416.53 482.56 416.64 L 482.57 416.21 C 490.56 416.73 498.59 416.37 506.60 416.38 C 506.59 419.39 506.55 422.41 506.58 425.42 C 505.91 422.55 507.33 418.29 504.38 416.50 C 504.25 418.89 504.20 421.30 503.95 423.69 C 495.99 423.70 488.03 423.78 480.08 423.77 C 479.98 421.31 479.83 418.84 480.03 416.38 Z" />
<path fill="#0a0907" d=" M 302.15 421.79 C 303.91 422.49 305.67 423.18 307.43 423.86 L 307.46 422.28 L 307.87 423.09 C 313.54 421.93 319.64 421.77 324.69 425.05 C 316.78 427.89 307.69 427.19 300.44 422.86 C 300.87 422.60 301.72 422.06 302.15 421.79 Z" />
<path fill="#0c0909" d=" M 392.02 424.99 C 396.17 423.44 400.53 422.02 405.02 422.27 C 407.70 422.53 410.07 423.91 412.56 424.82 L 413.02 425.01 C 406.24 427.21 398.77 427.39 392.02 424.99 Z" />
</svg>
