<?xml version="1.0" encoding="UTF-8" ?>
<!DOCTYPE svg PUBLIC "-//W3C//DTD SVG 1.1//EN" "http://www.w3.org/Graphics/SVG/1.1/DTD/svg11.dtd">
<svg width="325pt" height="179pt" viewBox="0 0 325 179" version="1.1" xmlns="http://www.w3.org/2000/svg">
<path fill="#ffffff" d=" M 0.00 0.00 L 70.05 0.00 C 67.27 6.33 63.45 12.11 60.37 18.28 C 59.63 19.31 60.19 20.53 60.35 21.63 C 58.41 24.78 56.45 27.92 54.89 31.27 C 56.62 31.28 58.35 31.28 60.09 31.27 C 61.24 29.33 62.40 27.38 63.54 25.43 C 70.64 25.46 77.74 25.33 84.83 25.47 L 85.22 25.81 C 84.65 26.46 84.12 27.14 83.61 27.84 C 86.05 31.53 90.90 33.01 95.01 31.32 C 95.47 31.72 96.41 32.52 96.88 32.92 C 94.27 27.14 90.43 22.01 87.20 16.57 C 86.79 15.35 85.65 15.76 84.71 15.90 C 82.24 11.47 79.50 7.20 77.02 2.78 C 77.82 1.86 78.62 0.93 79.42 0.00 L 91.97 0.00 C 92.34 0.36 93.06 1.08 93.42 1.43 C 96.95 5.16 100.93 8.43 104.33 12.28 C 104.80 12.20 105.73 12.04 106.20 11.96 C 108.36 14.65 111.16 16.83 113.04 19.74 C 113.43 23.57 113.06 27.44 113.22 31.29 C 114.97 31.29 116.71 31.29 118.46 31.28 C 118.49 27.34 118.48 23.40 118.51 19.46 C 122.97 14.84 127.19 9.98 131.61 5.32 C 132.39 5.41 133.94 5.60 134.72 5.70 C 134.63 4.91 134.47 3.32 134.38 2.53 C 136.76 3.34 138.78 2.28 139.74 0.00 L 206.29 0.00 C 203.38 6.95 199.28 13.31 195.75 19.95 C 195.93 20.40 196.30 21.29 196.48 21.74 C 194.58 24.87 192.65 27.98 191.01 31.25 C 192.77 31.28 194.54 31.30 196.30 31.33 C 197.50 29.39 198.64 27.43 199.76 25.44 C 206.91 25.42 214.06 25.38 221.21 25.46 C 222.30 27.45 223.45 29.41 224.66 31.33 C 226.42 31.30 228.18 31.28 229.95 31.25 C 224.60 21.60 218.83 12.17 213.19 2.68 C 214.05 1.81 214.85 0.89 215.69 0.00 L 314.19 0.00 C 313.93 4.10 314.37 8.19 314.75 12.26 C 308.14 12.73 301.49 12.04 294.90 12.77 C 294.58 13.09 293.94 13.73 293.62 14.05 C 293.36 14.24 292.84 14.63 292.59 14.82 L 292.32 14.95 C 292.36 10.86 292.35 6.76 292.32 2.66 C 293.70 2.25 294.68 1.39 295.27 0.08 C 291.59 -0.04 287.89 -0.01 284.21 0.19 C 284.34 10.93 284.57 21.67 284.70 32.42 C 285.57 32.06 286.44 31.71 287.33 31.38 C 288.99 31.27 290.66 31.27 292.33 31.24 C 292.35 26.67 292.32 22.09 292.38 17.52 C 300.37 17.56 308.37 17.55 316.36 17.54 C 312.92 19.64 314.24 23.87 314.46 27.16 C 314.42 29.03 315.61 30.44 317.17 31.30 C 318.90 31.33 320.63 31.29 322.37 31.28 C 322.37 21.70 322.47 12.12 322.32 2.54 C 323.21 2.36 324.11 2.16 325.00 1.92 L 325.00 179.00 L 170.13 179.00 C 166.16 175.74 160.67 177.61 156.00 177.41 L 156.99 179.00 L 0.00 179.00 L 0.00 0.00 Z" />
<path fill="#c0bfbf" d=" M 70.05 0.00 L 79.42 0.00 C 78.62 0.93 77.82 1.86 77.02 2.78 C 75.34 2.71 73.67 2.60 72.00 2.73 C 67.59 8.67 64.52 15.51 60.35 21.63 C 60.19 20.53 59.63 19.31 60.37 18.28 C 63.45 12.11 67.27 6.33 70.05 0.00 Z" />
<path fill="#c0bfbf" d=" M 91.97 0.00 L 104.58 0.00 C 108.75 4.93 112.91 9.85 116.98 14.85 C 116.50 15.32 116.01 15.78 115.51 16.22 C 111.58 11.66 107.48 7.24 103.33 2.87 C 103.44 2.32 103.65 1.22 103.76 0.67 C 100.31 0.70 96.67 -0.09 93.42 1.43 C 93.06 1.08 92.34 0.36 91.97 0.00 Z" />
<path fill="#ffffff" d=" M 104.58 0.00 L 126.41 0.00 C 126.85 0.97 127.34 1.91 127.89 2.83 C 124.29 6.87 120.51 10.75 116.98 14.85 C 112.91 9.85 108.75 4.93 104.58 0.00 Z" />
<path fill="#c0bfbf" d=" M 126.41 0.00 L 139.74 0.00 C 138.78 2.28 136.76 3.34 134.38 2.53 C 134.47 3.32 134.63 4.91 134.72 5.70 C 133.94 5.60 132.39 5.41 131.61 5.32 C 132.14 4.65 133.21 3.31 133.74 2.64 C 131.78 2.68 129.84 2.76 127.89 2.83 C 127.34 1.91 126.85 0.97 126.41 0.00 Z" />
<path fill="#c0bfbf" d=" M 206.29 0.00 L 215.69 0.00 C 214.85 0.89 214.05 1.81 213.19 2.68 C 211.44 2.72 209.70 2.68 207.96 2.65 C 204.03 8.95 200.51 15.50 196.48 21.74 C 196.30 21.29 195.93 20.40 195.75 19.95 C 199.28 13.31 203.38 6.95 206.29 0.00 Z" />
<path fill="#c0bfbf" d=" M 314.19 0.00 L 325.00 0.00 L 325.00 1.92 C 324.11 2.16 323.21 2.36 322.32 2.54 C 320.59 2.66 318.88 2.71 317.16 2.77 C 317.20 6.83 317.18 10.90 317.18 14.96 C 308.99 15.11 300.77 15.32 292.59 14.82 C 292.84 14.63 293.36 14.24 293.62 14.05 C 300.77 14.07 307.92 14.14 315.08 14.06 L 315.08 12.99 C 308.35 12.84 301.62 13.03 294.90 12.77 C 301.49 12.04 308.14 12.73 314.75 12.26 C 314.37 8.19 313.93 4.10 314.19 0.00 Z" />
<path fill="#6a6a69" d=" M 93.42 1.43 C 96.67 -0.09 100.31 0.70 103.76 0.67 C 103.65 1.22 103.44 2.32 103.33 2.87 C 101.90 2.84 100.49 3.01 99.12 3.38 L 98.82 3.77 C 98.54 3.35 97.99 2.50 97.71 2.08 C 96.28 1.85 94.85 1.64 93.42 1.43 Z" />
<path fill="#c0bfbf" d=" M 284.21 0.19 C 287.89 -0.01 291.59 -0.04 295.27 0.08 C 294.68 1.39 293.70 2.25 292.32 2.66 C 290.62 2.71 288.93 2.72 287.24 2.75 C 287.33 12.29 287.15 21.84 287.33 31.38 C 286.44 31.71 285.57 32.06 284.70 32.42 C 284.57 21.67 284.34 10.93 284.21 0.19 Z" />
<path fill="#000000" d=" M 2.60 2.50 C 4.48 2.50 6.35 2.50 8.23 2.51 C 12.76 6.97 17.25 11.49 21.94 15.78 C 27.28 12.02 31.60 6.65 36.70 2.44 C 38.34 2.47 39.99 2.47 41.63 2.46 C 41.75 12.09 41.89 21.73 41.56 31.36 C 39.89 31.32 38.23 31.28 36.57 31.26 C 36.53 23.45 36.59 15.64 36.52 7.84 C 35.64 8.50 34.77 9.18 33.95 9.91 C 29.92 13.59 26.03 17.44 21.99 21.12 C 17.29 16.67 12.84 11.95 7.86 7.82 C 7.64 15.63 7.85 23.45 7.74 31.27 C 6.06 31.28 4.38 31.28 2.70 31.29 C 2.51 21.69 2.66 12.09 2.60 2.50 Z" />
<path fill="#c0bfbf" d=" M 93.42 1.43 C 94.85 1.64 96.28 1.85 97.71 2.08 C 97.99 2.50 98.54 3.35 98.82 3.77 C 101.17 6.59 103.93 9.06 106.20 11.96 C 105.73 12.04 104.80 12.20 104.33 12.28 C 100.93 8.43 96.95 5.16 93.42 1.43 Z" />
<path fill="#000000" d=" M 146.72 2.63 C 154.53 2.42 162.36 2.35 170.17 2.70 C 173.26 3.92 176.88 6.22 176.70 9.99 C 176.92 12.11 175.61 13.85 174.14 15.19 C 177.22 16.69 180.86 19.09 180.65 22.98 C 180.85 28.02 175.53 31.11 171.04 31.26 C 162.96 31.35 154.87 31.28 146.79 31.27 C 146.73 21.72 146.85 12.17 146.72 2.63 Z" />
<path fill="#000000" d=" M 60.35 21.63 C 64.52 15.51 67.59 8.67 72.00 2.73 C 73.67 2.60 75.34 2.71 77.02 2.78 C 79.50 7.20 82.24 11.47 84.71 15.90 C 87.44 21.01 90.69 25.83 93.42 30.95 C 92.23 31.01 89.85 31.13 88.66 31.19 C 87.51 29.40 86.44 27.55 85.22 25.81 L 84.83 25.47 C 77.74 25.33 70.64 25.46 63.54 25.43 C 62.40 27.38 61.24 29.33 60.09 31.27 C 58.35 31.28 56.62 31.28 54.89 31.27 C 56.45 27.92 58.41 24.78 60.35 21.63 Z" />
<path fill="#000000" d=" M 99.12 3.38 C 100.49 3.01 101.90 2.84 103.33 2.87 C 107.48 7.24 111.58 11.66 115.51 16.22 C 116.01 15.78 116.50 15.32 116.98 14.85 C 120.51 10.75 124.29 6.87 127.89 2.83 C 129.84 2.76 131.78 2.68 133.74 2.64 C 133.21 3.31 132.14 4.65 131.61 5.32 C 127.19 9.98 122.97 14.84 118.51 19.46 C 118.48 23.40 118.49 27.34 118.46 31.28 C 116.71 31.29 114.97 31.29 113.22 31.29 C 113.06 27.44 113.43 23.57 113.04 19.74 C 111.16 16.83 108.36 14.65 106.20 11.96 C 103.93 9.06 101.17 6.59 98.82 3.77 L 99.12 3.38 Z" />
<path fill="#000000" d=" M 196.48 21.74 C 200.51 15.50 204.03 8.95 207.96 2.65 C 209.70 2.68 211.44 2.72 213.19 2.68 C 218.83 12.17 224.60 21.60 229.95 31.25 C 228.18 31.28 226.42 31.30 224.66 31.33 C 223.45 29.41 222.30 27.45 221.21 25.46 C 214.06 25.38 206.91 25.42 199.76 25.44 C 198.64 27.43 197.50 29.39 196.30 31.33 C 194.54 31.30 192.77 31.28 191.01 31.25 C 192.65 27.98 194.58 24.87 196.48 21.74 Z" />
<path fill="#000000" d=" M 243.70 7.08 C 252.16 0.58 263.77 0.99 273.58 3.69 C 273.57 4.44 273.55 5.94 273.54 6.69 C 266.89 4.56 259.43 3.18 252.73 5.87 C 248.16 7.68 243.89 11.79 243.82 16.99 C 244.01 22.45 248.71 26.57 253.59 28.21 C 260.21 30.57 267.30 28.86 273.88 27.23 C 270.53 29.53 273.53 30.97 275.07 31.95 C 274.48 31.78 273.30 31.45 272.71 31.29 C 271.41 33.02 269.26 32.71 267.34 32.70 L 267.94 31.15 C 263.78 32.35 259.38 31.10 255.27 32.26 L 255.29 32.24 L 255.86 31.60 C 249.34 30.13 241.88 27.45 239.21 20.71 C 237.08 15.69 239.83 10.33 243.70 7.08 Z" />
<path fill="#000000" d=" M 287.24 2.75 C 288.93 2.72 290.62 2.71 292.32 2.66 C 292.35 6.76 292.36 10.86 292.32 14.95 L 292.59 14.82 C 300.77 15.32 308.99 15.11 317.18 14.96 C 317.18 10.90 317.20 6.83 317.16 2.77 C 318.88 2.71 320.59 2.66 322.32 2.54 C 322.47 12.12 322.37 21.70 322.37 31.28 C 320.63 31.29 318.90 31.33 317.17 31.30 C 317.22 26.69 317.15 22.08 317.22 17.47 L 316.36 17.54 C 308.37 17.55 300.37 17.56 292.38 17.52 C 292.32 22.09 292.35 26.67 292.33 31.24 C 290.66 31.27 288.99 31.27 287.33 31.38 C 287.15 21.84 287.33 12.29 287.24 2.75 Z" />
<path fill="#c0bfbf" d=" M 252.73 5.87 C 259.43 3.18 266.89 4.56 273.54 6.69 C 273.55 5.94 273.57 4.44 273.58 3.69 C 274.35 4.87 273.87 6.17 273.57 7.41 C 274.70 7.98 275.35 8.90 275.50 10.16 C 270.85 8.37 265.98 6.89 260.94 6.98 C 255.81 6.85 250.34 9.04 247.58 13.54 C 245.65 17.52 247.54 22.57 251.22 24.82 C 258.28 29.35 267.62 28.08 274.73 24.30 C 274.28 26.05 274.09 27.85 274.20 29.66 C 274.98 30.34 275.65 31.12 276.19 32.01 L 275.07 31.95 C 273.53 30.97 270.53 29.53 273.88 27.23 C 267.30 28.86 260.21 30.57 253.59 28.21 C 248.71 26.57 244.01 22.45 243.82 16.99 C 243.89 11.79 248.16 7.68 252.73 5.87 Z" />
<path fill="#ffffff" d=" M 152.30 5.41 C 157.63 5.49 163.00 5.00 168.31 5.66 C 163.49 5.65 158.66 5.57 153.85 5.93 L 154.69 7.36 C 158.79 8.22 163.07 7.03 167.15 8.04 C 169.55 9.19 167.97 11.72 167.21 13.43 C 162.16 13.78 156.92 12.72 152.06 14.52 C 152.40 11.50 152.28 8.45 152.30 5.41 Z" />
<path fill="#c0bfbf" d=" M 235.94 20.03 C 234.20 13.74 238.44 7.55 243.91 4.78 C 243.86 5.35 243.75 6.50 243.70 7.08 C 239.83 10.33 237.08 15.69 239.21 20.71 C 241.88 27.45 249.34 30.13 255.86 31.60 L 255.29 32.24 C 254.88 32.61 254.06 33.33 253.65 33.70 C 246.27 31.98 238.04 27.96 235.94 20.03 Z" />
<path fill="#c0bfbf" d=" M 153.85 5.93 C 158.66 5.57 163.49 5.65 168.31 5.66 C 170.02 6.48 171.55 8.05 171.73 10.02 C 171.52 13.33 167.99 15.36 164.92 15.09 C 160.65 14.83 156.21 15.71 152.06 14.52 C 156.92 12.72 162.16 13.78 167.21 13.43 C 167.97 11.72 169.55 9.19 167.15 8.04 C 163.07 7.03 158.79 8.22 154.69 7.36 L 153.85 5.93 Z" />
<path fill="#ffffff" d=" M 201.43 22.54 C 204.72 17.54 207.34 12.13 210.66 7.17 C 213.58 12.34 216.55 17.49 219.64 22.57 C 213.57 22.62 207.50 22.68 201.43 22.54 Z" />
<path fill="#c0bfbf" d=" M 73.84 7.11 C 76.74 10.22 78.53 14.23 80.50 17.97 C 76.07 16.89 74.99 12.36 73.09 8.88 C 73.28 8.43 73.65 7.55 73.84 7.11 Z" />
<path fill="#c0bfbf" d=" M 21.99 21.12 C 26.03 17.44 29.92 13.59 33.95 9.91 C 34.33 10.43 35.09 11.47 35.47 11.98 C 35.03 13.58 33.45 14.32 32.28 15.31 C 29.39 17.37 27.23 20.32 24.19 22.19 C 23.24 23.09 22.18 22.17 21.26 21.79 L 21.99 21.12 Z" />
<path fill="#ffffff" d=" M 73.09 8.88 C 74.99 12.36 76.07 16.89 80.50 17.97 C 81.43 19.47 82.30 21.00 83.10 22.57 C 77.11 22.85 71.11 22.87 65.12 22.51 C 67.91 18.04 70.50 13.46 73.09 8.88 Z" />
<path fill="#6a6a69" d=" M 293.62 14.05 C 293.94 13.73 294.58 13.09 294.90 12.77 C 301.62 13.03 308.35 12.84 315.08 12.99 L 315.08 14.06 C 307.92 14.14 300.77 14.07 293.62 14.05 Z" />
<path fill="#c0bfbf" d=" M 84.71 15.90 C 85.65 15.76 86.79 15.35 87.20 16.57 C 90.43 22.01 94.27 27.14 96.88 32.92 C 96.41 32.52 95.47 31.72 95.01 31.32 C 90.90 33.01 86.05 31.53 83.61 27.84 C 84.12 27.14 84.65 26.46 85.22 25.81 C 86.44 27.55 87.51 29.40 88.66 31.19 C 89.85 31.13 92.23 31.01 93.42 30.95 C 90.69 25.83 87.44 21.01 84.71 15.90 Z" />
<path fill="#ffffff" d=" M 152.29 28.59 C 152.37 24.73 152.03 20.84 152.57 17.00 L 153.22 17.70 C 153.54 18.21 154.19 19.23 154.52 19.74 C 159.61 20.42 164.76 19.61 169.87 20.13 C 171.40 20.15 172.20 21.84 172.61 23.10 C 172.00 25.06 170.93 26.83 169.94 28.62 C 164.06 28.54 158.17 28.61 152.29 28.59 Z" />
<path fill="#c0bfbf" d=" M 153.22 17.70 C 158.44 17.13 163.71 17.43 168.95 17.44 C 172.33 17.29 176.04 20.30 175.40 23.89 C 174.93 26.55 172.47 28.22 169.94 28.62 C 170.93 26.83 172.00 25.06 172.61 23.10 C 172.20 21.84 171.40 20.15 169.87 20.13 C 164.76 19.61 159.61 20.42 154.52 19.74 C 154.19 19.23 153.54 18.21 153.22 17.70 Z" />
<path fill="#c0bfbf" d=" M 316.36 17.54 L 317.22 17.47 C 317.15 22.08 317.22 26.69 317.17 31.30 C 315.61 30.44 314.42 29.03 314.46 27.16 C 314.24 23.87 312.92 19.64 316.36 17.54 Z" />
<path fill="#000000" d=" M 205.48 20.72 C 208.82 20.57 212.18 20.57 215.52 20.74 C 215.69 20.95 216.03 21.36 216.20 21.57 C 212.40 21.58 208.60 21.59 204.81 21.56 C 204.97 21.35 205.31 20.93 205.48 20.72 Z" />
<path fill="#6a6a69" d=" M 68.26 20.43 C 72.24 20.54 76.27 20.02 80.21 20.75 L 80.91 22.03 C 76.73 22.42 72.52 22.36 68.33 22.10 L 68.26 20.43 Z" />
<path fill="#ffffff" d=" M 268.25 32.00 C 268.10 30.66 270.08 30.55 271.04 30.53 C 271.24 30.78 271.64 31.27 271.84 31.52 C 270.72 32.52 269.53 32.68 268.25 32.00 Z" />
<path fill="#c0bfbf" d=" M 255.21 34.31 C 258.05 30.64 263.29 32.44 267.26 32.09 L 266.60 33.94 C 262.81 34.17 259.00 33.90 255.21 34.31 Z" />
<path fill="#c0bfbf" d=" M 154.27 84.17 C 157.81 82.43 161.95 80.16 165.91 82.05 C 175.64 85.76 183.71 92.68 191.47 99.45 C 193.46 101.54 196.26 103.16 197.13 106.07 C 194.51 104.47 192.73 101.80 190.05 100.30 C 189.66 100.40 188.86 100.60 188.47 100.70 C 181.13 94.74 173.72 88.48 164.86 84.94 C 162.29 83.77 159.58 85.04 157.25 86.15 C 149.35 90.12 142.50 95.79 135.72 101.38 C 134.24 101.38 132.73 101.59 131.74 102.80 C 128.35 105.74 125.36 109.12 121.90 111.96 C 122.30 111.07 122.81 110.24 123.43 109.49 C 132.59 99.83 142.54 90.63 154.27 84.17 Z" />
<path fill="#000000" d=" M 157.25 86.15 C 159.58 85.04 162.29 83.77 164.86 84.94 C 173.72 88.48 181.13 94.74 188.47 100.70 C 199.63 110.45 209.17 122.18 216.05 135.33 C 219.40 142.32 223.36 149.30 224.28 157.12 C 224.51 159.96 221.36 161.16 219.41 162.46 C 202.98 171.21 184.42 175.40 165.91 176.27 C 163.65 176.45 161.37 176.46 159.11 176.27 C 142.00 175.52 124.95 171.77 109.42 164.45 C 106.66 163.05 103.78 161.72 101.50 159.59 C 99.84 157.48 101.21 154.67 101.63 152.35 C 103.53 145.79 106.77 139.74 109.85 133.68 C 116.46 121.49 125.41 110.62 135.72 101.38 C 142.50 95.79 149.35 90.12 157.25 86.15 Z" />
<path fill="#ffffff" d=" M 160.55 88.77 C 164.34 87.52 167.71 90.45 170.94 92.00 C 183.86 100.03 194.88 110.86 203.97 123.01 C 202.70 122.30 201.42 121.62 200.12 120.98 C 200.51 122.39 200.93 123.81 201.38 125.22 C 201.86 138.21 201.66 151.23 202.48 164.21 C 207.52 161.73 213.09 159.86 217.28 155.99 C 217.66 153.19 216.25 150.55 215.26 148.03 C 215.69 147.35 216.56 146.01 217.00 145.34 C 218.13 149.16 220.68 152.88 220.20 156.98 C 218.64 158.93 216.38 160.11 214.21 161.23 C 204.50 165.79 194.14 168.77 183.64 170.84 C 182.87 169.32 182.44 167.66 182.56 165.96 C 182.69 155.92 182.55 145.87 182.63 135.83 C 183.10 135.80 184.04 135.73 184.51 135.69 C 184.42 142.60 184.35 149.50 184.41 156.41 C 184.46 160.23 184.42 164.05 184.37 167.86 C 186.85 167.56 189.32 167.14 191.75 166.53 C 191.56 161.26 191.51 155.99 191.57 150.71 C 191.66 144.41 191.32 138.11 191.63 131.81 C 193.86 137.84 190.94 144.65 194.10 150.46 C 194.49 156.14 194.21 161.87 194.40 167.57 C 196.09 167.06 197.79 166.56 199.53 166.24 C 199.54 150.22 199.17 134.21 199.20 118.19 C 193.27 120.78 187.92 124.61 182.38 127.94 C 181.63 118.98 182.76 109.94 181.77 101.02 C 175.44 104.68 169.26 108.60 162.91 112.22 L 162.10 112.27 C 155.63 108.64 149.53 104.32 142.87 101.06 C 142.83 107.70 142.73 114.35 142.96 120.99 C 142.91 123.31 142.84 125.63 142.61 127.94 C 137.07 124.61 131.73 120.75 125.80 118.19 C 125.78 131.12 125.64 144.05 125.50 156.98 C 125.42 160.34 125.24 163.73 125.75 167.08 C 118.99 164.47 111.66 162.64 105.86 158.11 C 104.30 157.11 104.68 155.24 104.72 153.69 C 105.86 156.75 108.04 159.09 111.48 159.25 C 115.23 160.50 118.81 162.24 122.68 163.11 C 122.73 150.54 123.37 137.98 123.58 125.41 C 124.09 123.93 124.54 122.41 124.99 120.91 C 121.87 121.98 120.61 125.40 118.11 127.35 C 123.74 118.78 130.56 111.02 138.10 104.08 C 144.98 98.20 152.07 92.22 160.55 88.77 Z" />
<path fill="#000000" d=" M 159.78 90.66 C 163.60 89.75 167.22 91.08 169.95 93.80 C 167.34 92.86 164.82 91.54 162.07 91.06 C 158.72 91.09 156.00 93.31 153.34 95.07 C 150.81 96.66 148.39 98.43 145.98 100.21 C 147.90 101.37 149.87 102.45 151.80 103.61 C 151.09 103.52 150.37 103.43 149.66 103.35 C 148.51 102.28 147.23 101.28 145.58 101.27 C 145.48 100.81 145.27 99.89 145.17 99.43 L 146.40 99.54 L 146.54 98.70 C 148.64 97.56 150.49 96.04 152.48 94.75 C 154.88 93.32 157.30 91.95 159.78 90.66 Z" />
<path fill="#fcba6a" d=" M 153.34 95.07 C 156.00 93.31 158.72 91.09 162.07 91.06 C 164.82 91.54 167.34 92.86 169.95 93.80 C 172.99 95.43 175.86 97.47 178.20 100.02 C 175.98 101.73 173.47 103.00 171.10 104.47 C 168.43 101.93 165.92 98.92 162.34 97.67 C 159.38 96.68 156.34 95.94 153.34 95.07 Z" />
<path fill="#fed092" d=" M 145.98 100.21 C 148.39 98.43 150.81 96.66 153.34 95.07 C 156.34 95.94 159.38 96.68 162.34 97.67 C 165.92 98.92 168.43 101.93 171.10 104.47 C 168.45 106.27 165.63 107.79 162.97 109.56 C 159.16 107.78 154.96 106.47 151.80 103.61 C 149.87 102.45 147.90 101.37 145.98 100.21 Z" />
<path fill="#000000" d=" M 126.80 117.27 C 130.82 112.32 135.26 107.72 140.11 103.57 L 142.12 103.29 C 141.71 103.84 140.90 104.93 140.49 105.48 C 136.70 109.09 132.87 112.68 129.48 116.69 L 129.54 117.86 C 128.85 117.71 127.48 117.42 126.80 117.27 Z" />
<path fill="#fed092" d=" M 129.48 116.69 C 132.87 112.68 136.70 109.09 140.49 105.48 C 140.92 111.52 140.70 117.61 140.30 123.65 C 136.62 121.65 130.93 121.17 129.48 116.69 Z" />
<path fill="#fcba6a" d=" M 184.36 105.87 C 189.30 108.10 192.28 113.15 195.84 117.06 C 192.12 119.27 188.37 121.44 184.65 123.66 C 184.06 117.75 184.55 111.80 184.36 105.87 Z" />
<path fill="#c0bfbf" d=" M 148.37 110.21 C 153.02 112.96 157.71 115.63 162.27 118.53 C 166.81 116.36 170.80 113.18 175.43 111.21 C 175.08 115.23 174.60 119.23 174.27 123.24 C 174.19 120.54 173.99 117.84 173.78 115.14 C 170.04 117.12 166.75 119.92 162.84 121.59 C 158.64 120.12 154.88 117.46 151.06 115.17 C 150.34 114.35 149.62 113.54 148.91 112.73 C 148.53 118.79 148.45 124.88 148.80 130.95 C 149.39 130.60 150.58 129.91 151.18 129.57 C 152.80 130.74 154.33 132.04 155.70 133.49 C 154.00 133.20 152.29 132.98 150.60 132.64 C 149.45 132.30 147.92 131.64 148.28 130.16 C 148.45 123.51 148.09 116.85 148.37 110.21 Z" />
<path fill="#ffffff" d=" M 175.43 111.21 C 175.75 110.84 176.09 110.48 176.45 110.13 C 176.77 117.20 176.59 124.29 176.56 131.36 C 171.95 133.94 167.54 136.86 162.97 139.51 C 158.55 138.21 154.81 134.73 150.60 132.64 C 152.29 132.98 154.00 133.20 155.70 133.49 C 158.13 134.38 160.26 136.22 162.82 136.61 C 166.87 135.22 170.54 132.90 174.54 131.36 C 174.38 128.66 174.26 125.95 174.27 123.24 C 174.60 119.23 175.08 115.23 175.43 111.21 Z" />
<path fill="#ffffff" d=" M 148.91 112.73 C 149.62 113.54 150.34 114.35 151.06 115.17 C 151.67 119.95 151.23 124.77 151.18 129.57 C 150.58 129.91 149.39 130.60 148.80 130.95 C 148.45 124.88 148.53 118.79 148.91 112.73 Z" />
<path fill="#fed092" d=" M 151.06 115.17 C 154.88 117.46 158.64 120.12 162.84 121.59 C 166.75 119.92 170.04 117.12 173.78 115.14 C 173.99 117.84 174.19 120.54 174.27 123.24 C 174.26 125.95 174.38 128.66 174.54 131.36 C 170.54 132.90 166.87 135.22 162.82 136.61 C 160.26 136.22 158.13 134.38 155.70 133.49 C 154.33 132.04 152.80 130.74 151.18 129.57 C 151.23 124.77 151.67 119.95 151.06 115.17 Z" />
<path fill="#c0bfbf" d=" M 118.11 127.35 C 120.61 125.40 121.87 121.98 124.99 120.91 C 124.54 122.41 124.09 123.93 123.58 125.41 C 121.98 126.86 120.39 128.38 119.28 130.26 C 114.72 137.43 110.46 144.94 107.92 153.09 C 106.58 155.95 109.72 157.66 111.48 159.25 C 108.04 159.09 105.86 156.75 104.72 153.69 C 108.01 144.41 112.27 135.30 118.11 127.35 Z" />
<path fill="#c0bfbf" d=" M 200.12 120.98 C 201.42 121.62 202.70 122.30 203.97 123.01 C 209.27 129.82 213.47 137.47 217.00 145.34 C 216.56 146.01 215.69 147.35 215.26 148.03 C 212.26 141.47 208.89 135.07 204.96 129.02 C 204.01 127.54 202.63 126.41 201.38 125.22 C 200.93 123.81 200.51 122.39 200.12 120.98 Z" />
<path fill="#faaa4c" d=" M 119.28 130.26 C 120.39 128.38 121.98 126.86 123.58 125.41 C 123.37 137.98 122.73 150.54 122.68 163.11 C 118.81 162.24 115.23 160.50 111.48 159.25 C 109.72 157.66 106.58 155.95 107.92 153.09 C 110.46 144.94 114.72 137.43 119.28 130.26 Z" />
<path fill="#f89929" d=" M 201.38 125.22 C 202.63 126.41 204.01 127.54 204.96 129.02 C 208.89 135.07 212.26 141.47 215.26 148.03 C 216.25 150.55 217.66 153.19 217.28 155.99 C 213.09 159.86 207.52 161.73 202.48 164.21 C 201.66 151.23 201.86 138.21 201.38 125.22 Z" />
<path fill="#c0bfbf" d=" M 181.87 134.14 C 185.84 131.83 189.73 129.38 193.72 127.10 C 194.36 134.86 194.28 142.68 194.10 150.46 C 190.94 144.65 193.86 137.84 191.63 131.81 C 189.29 133.17 186.98 134.59 184.51 135.69 C 184.04 135.73 183.10 135.80 182.63 135.83 C 182.55 145.87 182.69 155.92 182.56 165.96 C 182.44 167.66 182.87 169.32 183.64 170.84 C 183.20 170.93 182.32 171.11 181.88 171.19 L 181.86 170.35 C 181.82 158.28 181.80 146.21 181.87 134.14 Z" />
<path fill="#ffffff" d=" M 131.00 140.99 C 131.44 136.40 130.94 131.78 131.45 127.20 C 135.11 129.71 139.00 131.85 142.80 134.13 C 142.84 146.19 142.85 158.25 142.84 170.32 C 144.68 170.50 146.53 170.68 148.38 170.85 C 148.38 159.88 148.41 148.91 148.37 137.94 C 150.12 138.30 151.56 139.20 152.68 140.62 C 151.72 140.46 149.79 140.13 148.83 139.96 C 149.54 140.33 150.95 141.07 151.65 141.43 L 151.46 142.56 C 150.23 150.80 150.83 159.19 150.90 167.49 C 150.85 167.94 150.74 168.85 150.68 169.30 C 158.18 170.62 165.80 170.28 173.37 170.35 C 173.72 169.06 174.10 167.75 174.10 166.40 C 174.49 158.43 174.13 150.45 174.58 142.48 C 174.67 141.79 174.85 140.41 174.94 139.72 C 170.34 142.30 164.73 144.18 161.64 148.67 C 160.00 147.50 158.43 146.24 156.89 144.96 C 156.65 144.72 156.17 144.25 155.94 144.02 C 154.87 143.39 153.83 142.73 152.95 141.85 C 152.85 141.19 152.64 139.86 152.53 139.20 C 154.88 142.29 158.85 143.63 162.06 145.72 C 167.30 144.18 171.42 139.79 176.62 137.90 C 176.60 148.88 176.61 159.86 176.62 170.84 C 178.36 170.69 180.11 170.52 181.86 170.35 L 181.88 171.19 C 164.65 173.56 146.97 172.85 130.15 168.30 C 131.35 159.28 130.31 150.07 131.00 140.99 Z" />
<path fill="#c0bfbf" d=" M 103.82 138.68 C 105.61 135.22 107.27 131.63 109.89 128.71 C 109.64 130.35 109.20 132.06 109.85 133.68 C 106.77 139.74 103.53 145.79 101.63 152.35 C 101.21 154.67 99.84 157.48 101.50 159.59 C 103.78 161.72 106.66 163.05 109.42 164.45 C 124.95 171.77 142.00 175.52 159.11 176.27 C 157.66 176.61 156.28 177.18 154.98 177.88 C 152.27 177.93 149.53 177.83 146.97 178.86 C 145.44 179.28 144.30 177.92 142.88 177.65 C 128.61 175.51 114.50 171.18 101.95 163.97 C 99.83 162.67 97.06 160.94 97.44 158.06 C 97.85 151.19 100.97 144.83 103.82 138.68 Z" />
<path fill="#fcba6a" d=" M 133.48 129.86 C 136.41 131.20 137.85 134.30 140.50 136.03 C 140.68 141.50 140.64 146.98 140.54 152.46 C 138.04 152.05 135.70 151.05 133.54 149.76 C 133.43 143.12 134.00 136.49 133.48 129.86 Z" />
<path fill="#faaa4c" d=" M 184.51 135.69 C 186.98 134.59 189.29 133.17 191.63 131.81 C 191.32 138.11 191.66 144.41 191.57 150.71 C 189.70 153.16 188.32 157.61 184.41 156.41 C 184.35 149.50 184.42 142.60 184.51 135.69 Z" />
<path fill="#c0bfbf" d=" M 217.42 132.93 C 222.42 139.84 225.73 148.03 227.59 156.34 C 228.52 159.24 226.62 161.88 224.16 163.22 C 211.42 171.03 196.80 175.37 182.12 177.71 C 180.24 178.91 177.68 179.79 175.77 178.09 C 173.83 177.97 171.89 177.96 169.96 177.87 C 168.71 177.09 167.34 176.58 165.91 176.27 C 184.42 175.40 202.98 171.21 219.41 162.46 C 221.36 161.16 224.51 159.96 224.28 157.12 C 223.36 149.30 219.40 142.32 216.05 135.33 C 216.39 134.73 217.08 133.53 217.42 132.93 Z" />
<path fill="#c0bfbf" d=" M 161.64 148.67 C 164.73 144.18 170.34 142.30 174.94 139.72 C 174.85 140.41 174.67 141.79 174.58 142.48 C 169.86 143.73 166.44 147.82 161.64 148.67 Z" />
<path fill="#fcba6a" d=" M 151.46 142.56 C 153.43 142.96 155.29 143.73 156.89 144.96 C 158.43 146.24 160.00 147.50 161.64 148.67 C 166.44 147.82 169.86 143.73 174.58 142.48 C 174.13 150.45 174.49 158.43 174.10 166.40 C 172.84 161.14 173.09 155.69 172.92 150.32 C 167.17 155.06 159.46 156.65 152.17 156.71 C 152.10 160.34 151.81 163.97 150.90 167.49 C 150.83 159.19 150.23 150.80 151.46 142.56 Z" />
<path fill="#faaa4c" d=" M 133.54 149.76 C 135.70 151.05 138.04 152.05 140.54 152.46 C 140.41 157.65 140.74 162.84 140.37 168.01 C 137.97 167.66 135.59 167.13 133.27 166.43 C 133.39 160.87 133.50 155.31 133.54 149.76 Z" />
<path fill="#faaa4c" d=" M 152.17 156.71 C 159.46 156.65 167.17 155.06 172.92 150.32 C 173.09 155.69 172.84 161.14 174.10 166.40 C 174.10 167.75 173.72 169.06 173.37 170.35 C 165.80 170.28 158.18 170.62 150.68 169.30 C 150.74 168.85 150.85 167.94 150.90 167.49 C 151.81 163.97 152.10 160.34 152.17 156.71 Z" />
<path fill="#f89929" d=" M 184.41 156.41 C 188.32 157.61 189.70 153.16 191.57 150.71 C 191.51 155.99 191.56 161.26 191.75 166.53 C 189.32 167.14 186.85 167.56 184.37 167.86 C 184.42 164.05 184.46 160.23 184.41 156.41 Z" />
<path fill="#c0bfbf" d=" M 156.00 177.41 C 160.67 177.61 166.16 175.74 170.13 179.00 L 156.99 179.00 L 156.00 177.41 Z" />
</svg>
