<?xml version="1.0" encoding="UTF-8" ?>
<!DOCTYPE svg PUBLIC "-//W3C//DTD SVG 1.1//EN" "http://www.w3.org/Graphics/SVG/1.1/DTD/svg11.dtd">
<svg width="700pt" height="241pt" viewBox="0 0 700 241" version="1.1" xmlns="http://www.w3.org/2000/svg">
<path fill="#ffffff" d=" M 0.00 0.00 L 700.00 0.00 L 700.00 241.00 L 0.00 241.00 L 0.00 0.00 Z" />
<path fill="#000000" d=" M 653.07 42.24 C 656.63 41.25 660.38 41.52 663.99 40.84 C 667.02 40.69 670.06 40.70 673.10 40.76 C 675.69 41.23 678.34 41.45 680.94 41.96 C 681.54 42.13 682.75 42.48 683.36 42.65 C 686.12 44.06 689.24 45.47 690.64 48.46 C 692.10 50.97 691.46 53.99 691.17 56.71 C 690.50 58.14 689.85 59.58 689.24 61.02 C 680.74 75.79 666.92 86.35 653.80 96.78 C 646.97 102.00 639.94 106.93 632.86 111.81 C 630.17 113.59 627.50 115.42 624.75 117.10 C 624.29 117.62 623.83 118.14 623.38 118.65 C 623.39 118.28 623.42 117.55 623.44 117.19 C 626.60 114.54 628.72 110.89 630.82 107.39 L 631.08 107.31 C 631.79 105.91 632.55 104.53 633.33 103.16 C 633.81 102.10 634.29 101.04 634.80 99.99 C 635.22 98.85 635.58 97.69 635.89 96.50 L 636.29 96.66 C 636.47 95.45 636.69 94.24 636.92 93.04 C 637.40 91.06 637.39 89.02 637.39 87.01 C 636.90 85.66 636.46 84.30 636.02 82.95 C 634.28 80.33 631.91 78.26 629.34 76.51 C 626.93 75.53 624.47 74.68 622.02 73.84 C 612.59 71.76 602.91 72.48 593.34 72.67 L 593.60 73.29 C 591.04 73.39 588.48 73.55 585.93 73.77 C 578.94 74.91 572.07 76.67 565.09 77.79 L 565.78 78.45 C 564.29 78.50 562.80 78.55 561.33 78.60 L 561.61 79.15 C 560.40 79.48 559.23 79.81 558.05 80.19 C 556.41 80.71 554.79 81.25 553.14 81.72 L 553.56 82.36 C 552.58 82.32 551.61 82.29 550.65 82.27 C 551.64 81.86 552.63 81.42 553.62 80.97 C 555.66 79.59 557.78 78.34 559.90 77.10 C 562.25 75.76 564.60 74.43 566.96 73.12 C 570.25 71.26 573.65 69.61 576.98 67.84 C 579.38 66.65 581.78 65.48 584.22 64.36 C 585.81 63.60 587.40 62.84 589.00 62.08 C 592.02 60.78 595.04 59.48 598.09 58.25 C 601.36 56.83 604.67 55.50 608.05 54.37 C 609.36 53.84 610.67 53.31 611.98 52.74 C 612.51 52.62 613.58 52.40 614.11 52.28 C 615.09 51.83 616.08 51.39 617.08 50.95 C 618.07 50.70 619.07 50.44 620.08 50.20 C 621.37 49.76 622.67 49.34 623.97 48.89 C 626.01 48.32 628.03 47.68 630.09 47.12 C 634.34 45.81 638.75 45.07 643.03 43.82 C 644.54 43.62 646.06 43.46 647.60 43.31 L 647.45 42.74 C 649.32 42.60 651.19 42.43 653.07 42.24 Z" />
<path fill="#ffffff" d=" M 662.33 44.00 C 666.07 43.66 669.82 43.61 673.58 43.62 L 673.38 44.27 C 674.93 44.41 676.50 44.57 678.07 44.74 C 680.98 45.99 684.37 46.84 686.37 49.50 C 688.24 51.57 687.50 54.53 687.35 57.04 C 686.77 58.23 686.24 59.44 685.72 60.65 C 685.57 58.76 685.43 56.87 685.28 54.99 C 683.54 52.00 681.06 49.58 678.26 47.61 C 675.98 46.73 673.70 45.84 671.37 45.14 L 671.77 44.65 C 668.62 44.46 665.47 44.25 662.33 44.00 Z" />
<path fill="#e12e2e" d=" M 643.19 47.48 C 650.74 47.52 658.30 47.51 665.86 47.48 L 665.15 48.75 C 666.07 48.63 667.89 48.40 668.81 48.29 L 668.24 50.00 C 668.83 49.75 670.00 49.27 670.58 49.03 L 670.34 50.73 C 671.10 50.63 672.62 50.43 673.38 50.33 C 673.80 51.49 674.22 52.65 674.66 53.82 C 675.18 53.65 676.21 53.31 676.73 53.14 C 676.61 53.84 676.37 55.24 676.25 55.94 L 678.30 54.86 C 677.33 58.12 677.44 61.53 677.51 64.88 L 676.25 64.17 C 676.37 65.08 676.62 66.90 676.74 67.81 L 675.31 67.18 C 675.39 68.08 675.56 69.87 675.64 70.77 C 675.08 70.63 673.96 70.36 673.41 70.23 C 673.42 70.87 673.44 72.17 673.45 72.82 C 671.46 74.33 669.97 76.33 668.91 78.58 C 668.51 78.51 667.71 78.37 667.31 78.30 C 667.42 78.91 667.64 80.13 667.75 80.74 C 667.36 80.68 666.58 80.57 666.20 80.51 C 661.78 87.84 654.50 92.74 648.14 98.23 C 641.91 102.88 636.21 108.38 629.18 111.82 C 633.68 105.42 637.27 98.42 639.50 90.91 C 639.64 87.26 638.78 83.71 637.46 80.34 C 634.37 76.86 630.41 74.36 626.14 72.58 C 625.60 72.50 624.52 72.33 623.98 72.25 C 612.52 69.37 600.54 70.43 588.96 71.99 C 586.64 72.40 584.32 72.72 582.02 73.20 C 577.70 73.97 573.41 74.97 569.28 76.48 C 567.33 76.55 563.43 76.70 561.47 76.77 C 568.38 74.11 574.74 70.30 581.49 67.29 C 593.64 61.65 606.23 56.95 619.06 53.09 C 621.25 52.47 623.46 51.92 625.67 51.34 L 625.53 50.52 C 626.93 50.57 628.34 50.62 629.76 50.67 L 629.42 49.48 C 630.86 49.55 632.31 49.63 633.76 49.71 L 633.46 48.57 C 636.91 48.56 640.36 48.51 643.83 48.52 L 643.19 47.48 Z" />
<path fill="#000000" d=" M 75.02 85.93 C 76.98 85.17 78.95 84.47 80.90 83.71 C 89.14 82.94 97.43 83.47 105.69 83.29 C 105.69 92.81 105.63 102.32 105.72 111.83 C 110.41 107.46 115.35 103.37 120.15 99.13 C 125.45 94.74 130.35 89.85 136.06 85.97 C 138.94 84.73 141.87 83.33 145.08 83.36 C 151.58 83.23 158.09 83.33 164.59 83.32 C 164.55 101.80 164.56 120.27 164.59 138.74 C 154.79 138.79 145.00 138.75 135.20 138.76 C 135.20 136.16 135.22 133.57 135.20 130.97 C 134.49 124.31 135.65 117.59 135.22 110.89 C 124.82 119.59 115.24 129.22 104.97 138.08 C 103.94 139.14 102.34 138.64 101.04 138.79 C 92.81 138.74 84.58 138.77 76.35 138.76 C 76.40 129.58 76.26 120.40 76.43 111.23 C 76.00 111.30 75.15 111.45 74.72 111.53 C 64.08 120.87 52.77 129.43 42.06 138.70 C 30.22 138.78 18.38 138.84 6.54 138.67 C 25.41 124.21 44.05 109.47 62.83 94.91 C 66.79 91.78 70.74 88.62 75.02 85.93 Z" />
<path fill="#000000" d=" M 252.78 83.35 C 262.66 83.27 272.55 83.30 282.43 83.33 C 282.41 96.97 282.37 110.61 282.44 124.24 C 289.88 124.23 297.32 124.27 304.76 124.22 C 304.76 129.04 304.77 133.86 304.75 138.69 C 287.43 138.60 270.11 138.72 252.79 138.63 C 252.81 120.20 252.81 101.78 252.78 83.35 Z" />
<path fill="#000000" d=" M 536.10 91.59 C 554.86 91.69 573.63 91.44 592.40 91.76 L 592.29 92.36 C 594.48 92.46 596.67 92.60 598.87 92.80 C 602.91 94.14 607.36 95.27 610.22 98.68 C 612.62 101.18 613.38 104.63 614.23 107.87 C 614.56 118.32 614.34 128.79 614.38 139.25 C 604.64 139.27 594.91 139.22 585.18 139.27 C 584.24 131.48 585.22 123.61 584.63 115.80 C 584.19 111.13 579.63 107.61 575.08 107.55 C 571.84 107.41 568.60 107.51 565.36 107.52 C 565.42 118.09 565.40 128.67 565.38 139.24 C 555.81 139.21 546.24 139.35 536.68 139.19 C 536.47 138.96 536.04 138.50 535.83 138.27 C 535.65 126.84 535.82 115.40 535.76 103.97 C 535.82 99.84 535.52 95.69 536.10 91.59 Z" />
<path fill="#000000" d=" M 171.94 104.06 C 174.97 98.19 180.67 94.37 186.97 92.77 C 190.66 92.52 194.26 91.52 197.97 91.60 C 213.87 91.57 229.76 91.67 245.65 91.56 L 245.35 92.60 L 246.30 92.37 C 246.28 94.12 246.28 95.88 246.30 97.63 L 245.67 97.37 L 245.68 99.61 L 246.30 99.38 C 246.27 101.33 246.27 103.28 246.29 105.23 C 246.04 105.54 245.53 106.14 245.28 106.44 C 231.67 106.42 218.06 106.21 204.45 106.56 C 203.08 107.85 201.76 109.19 200.53 110.61 C 200.26 113.53 200.25 116.46 200.47 119.39 C 201.91 121.71 203.78 124.05 206.75 124.23 C 220.00 124.48 233.26 124.23 246.51 124.35 C 246.49 129.14 246.48 133.94 246.51 138.73 C 233.00 138.80 219.50 138.74 205.99 138.76 C 197.85 138.70 189.49 139.16 181.68 136.39 C 177.42 134.50 173.81 131.37 171.93 127.03 C 171.60 125.95 171.25 124.87 170.90 123.80 C 170.18 117.24 169.90 110.43 171.94 104.06 Z" />
<path fill="#000000" d=" M 313.63 91.37 C 332.39 91.20 351.16 91.29 369.92 91.32 C 377.95 91.33 387.00 94.76 390.18 102.74 C 390.49 104.16 390.84 105.57 391.26 106.97 C 390.94 114.54 392.52 122.47 389.73 129.72 C 388.72 132.63 386.33 134.64 383.90 136.35 C 378.90 138.49 373.46 139.45 368.03 139.46 C 356.69 139.53 345.34 139.47 334.00 139.49 C 327.44 139.62 320.76 139.00 314.65 136.45 C 312.73 134.91 311.07 133.08 309.64 131.08 C 309.48 126.40 308.25 121.10 311.02 116.94 C 312.45 114.68 314.80 113.29 317.02 111.92 C 318.05 111.67 319.07 111.41 320.10 111.16 C 322.35 110.53 324.69 110.38 327.01 110.38 C 338.61 110.36 350.21 110.43 361.81 110.35 C 361.63 109.25 361.45 108.16 361.26 107.07 C 360.69 106.69 359.56 105.92 358.99 105.54 C 343.88 105.32 328.76 105.59 313.64 105.40 C 313.66 100.72 313.67 96.05 313.63 91.37 Z" />
<path fill="#000000" d=" M 404.45 91.64 C 417.84 91.60 431.24 91.55 444.64 91.66 C 444.80 91.86 445.11 92.27 445.27 92.48 C 445.43 97.10 445.26 101.73 445.32 106.36 C 439.09 106.43 432.86 106.34 426.62 106.42 C 426.68 117.21 426.63 127.99 426.66 138.78 C 416.93 138.75 407.20 138.76 397.46 138.78 C 397.48 125.61 397.39 112.45 397.50 99.29 C 397.50 95.39 400.98 92.77 404.50 92.01 L 404.45 91.64 Z" />
<path fill="#000000" d=" M 460.85 92.66 C 462.06 92.54 463.28 92.43 464.51 92.33 L 464.45 91.65 C 475.95 90.95 487.48 91.42 498.99 91.29 C 507.58 91.43 516.75 90.34 524.62 94.56 C 527.35 95.81 528.80 98.54 530.21 101.04 C 530.53 104.34 530.53 107.67 530.19 110.97 C 528.39 115.23 524.61 118.01 520.26 119.28 C 518.19 119.50 516.13 119.77 514.09 120.20 C 501.92 120.28 489.75 120.16 477.57 120.27 C 477.56 120.86 477.54 122.03 477.53 122.62 C 478.99 123.98 480.86 124.68 482.72 125.31 C 495.48 125.19 508.25 125.20 521.01 125.31 C 522.91 125.29 524.82 125.25 526.74 125.26 C 526.60 129.92 526.71 134.59 526.64 139.25 C 509.41 139.26 492.18 139.23 474.96 139.27 C 469.54 139.34 464.10 138.62 458.90 137.08 C 454.39 135.04 450.72 131.48 448.81 126.89 C 447.88 120.28 448.15 113.56 448.46 106.91 C 449.07 100.02 454.59 94.85 460.85 92.66 Z" />
<path fill="#ffffff" d=" M 479.05 105.58 C 486.47 105.12 493.94 105.14 501.37 105.57 C 502.48 107.66 502.73 109.84 500.70 111.45 C 492.98 111.56 485.25 111.51 477.52 111.48 C 477.54 110.33 477.57 109.18 477.61 108.03 C 478.09 107.22 478.57 106.40 479.05 105.58 Z" />
<path fill="#ffffff" d=" M 337.40 120.39 C 338.84 119.66 340.37 119.07 342.03 119.23 C 348.64 119.26 355.25 119.15 361.86 119.32 C 361.78 121.58 361.40 123.81 359.65 125.38 C 353.03 125.44 346.41 125.42 339.79 125.40 C 339.20 125.05 338.03 124.34 337.44 123.98 C 337.41 122.78 337.40 121.59 337.40 120.39 Z" />
<path fill="#000000" d=" M 323.23 166.34 C 325.01 166.34 326.80 166.35 328.59 166.36 C 328.54 174.11 328.59 181.87 328.55 189.63 C 334.23 189.65 339.92 189.67 345.60 189.61 C 345.54 181.87 345.61 174.12 345.55 166.38 C 347.47 166.36 349.38 166.36 351.31 166.38 C 351.26 173.97 351.32 181.56 351.29 189.15 C 351.57 191.68 349.25 193.13 347.48 194.38 C 340.52 194.36 333.55 194.39 326.59 194.36 C 325.23 193.13 322.91 192.32 323.28 190.09 C 323.15 182.18 323.28 174.26 323.23 166.34 Z" />
<path fill="#000000" d=" M 357.39 166.35 C 366.81 166.38 376.23 166.34 385.65 166.37 C 385.65 167.41 385.65 169.50 385.65 170.55 C 381.90 170.56 378.16 170.54 374.42 170.54 C 374.42 178.48 374.45 186.42 374.42 194.37 C 372.50 194.37 370.58 194.37 368.67 194.37 C 368.65 186.42 368.67 178.48 368.67 170.53 C 364.92 170.55 361.17 170.55 357.42 170.57 C 357.40 169.16 357.39 167.75 357.39 166.35 Z" />
<path fill="#000000" d=" M 394.32 166.60 C 402.31 166.22 410.34 166.23 418.33 166.60 C 419.29 167.89 420.82 169.04 420.57 170.85 C 420.62 177.64 420.60 184.44 420.56 191.23 C 420.17 191.76 419.39 192.81 419.01 193.33 C 411.42 195.49 403.35 193.87 395.56 194.37 C 394.18 193.17 391.90 192.34 392.26 190.11 C 392.20 183.39 392.13 176.66 392.30 169.94 C 392.16 168.47 393.60 167.68 394.32 166.60 Z" />
<path fill="#000000" d=" M 428.21 166.36 C 430.20 166.36 432.20 166.36 434.20 166.36 C 436.23 170.21 438.15 174.12 440.08 178.02 C 441.73 181.22 443.36 184.43 444.79 187.74 C 445.08 187.60 445.67 187.32 445.96 187.18 C 447.21 184.07 448.69 181.06 450.19 178.07 C 451.70 175.03 453.15 171.95 454.64 168.90 C 454.94 168.27 455.55 167.01 455.85 166.39 C 457.82 166.37 459.79 166.35 461.77 166.34 C 461.70 175.70 461.79 185.05 461.72 194.41 C 460.03 194.39 458.34 194.38 456.65 194.36 C 456.52 188.24 456.89 182.10 456.46 175.98 C 454.21 180.61 451.98 185.25 449.61 189.83 C 448.84 191.36 448.06 192.88 447.27 194.40 C 445.80 194.39 444.34 194.38 442.88 194.38 C 439.61 188.37 436.66 182.20 433.46 176.17 C 433.27 182.23 433.46 188.30 433.39 194.36 C 431.68 194.37 429.97 194.38 428.27 194.39 C 428.20 185.05 428.30 175.71 428.21 166.36 Z" />
<path fill="#000000" d=" M 469.40 170.87 C 469.19 168.47 471.60 166.38 473.91 166.48 C 481.13 166.27 488.36 166.24 495.58 166.59 C 496.50 167.58 497.42 168.59 498.31 169.62 C 498.34 176.67 498.29 183.71 498.35 190.76 C 497.21 192.10 495.93 193.30 494.55 194.38 C 487.59 194.34 480.63 194.41 473.67 194.35 C 472.78 193.93 471.89 193.52 471.01 193.11 C 470.61 192.65 469.82 191.73 469.43 191.27 C 469.34 184.47 469.31 177.66 469.40 170.87 Z" />
<path fill="#000000" d=" M 504.43 166.36 C 513.81 166.35 523.19 166.38 532.57 166.35 C 532.55 167.75 532.55 169.15 532.55 170.56 C 528.80 170.55 525.06 170.54 521.32 170.55 C 521.32 178.49 521.34 186.43 521.32 194.36 C 519.41 194.37 517.52 194.38 515.63 194.38 C 515.60 186.43 515.62 178.49 515.63 170.54 C 511.90 170.54 508.18 170.55 504.46 170.56 C 504.44 169.16 504.43 167.76 504.43 166.36 Z" />
<path fill="#000000" d=" M 577.05 166.46 C 579.05 166.37 581.06 166.35 583.08 166.38 C 582.65 167.24 582.22 168.10 581.79 168.95 C 580.48 171.61 579.20 174.28 577.89 176.93 C 576.38 180.02 574.82 183.07 573.39 186.19 C 571.98 188.91 570.64 191.66 569.27 194.40 C 567.53 194.38 565.80 194.37 564.08 194.35 C 563.78 193.76 563.19 192.57 562.89 191.97 C 559.48 185.03 556.13 178.07 552.73 171.13 C 551.94 169.54 551.12 167.97 550.32 166.39 C 552.48 166.36 554.65 166.36 556.82 166.43 C 557.62 168.25 558.46 170.05 559.32 171.85 C 560.42 174.31 561.56 176.75 562.68 179.20 C 564.14 182.15 565.48 185.15 566.95 188.10 C 567.57 186.70 568.21 185.30 568.86 183.91 C 569.92 181.61 570.99 179.31 572.10 177.04 C 573.81 173.54 575.53 170.05 577.05 166.46 Z" />
<path fill="#000000" d=" M 588.80 166.41 C 597.27 166.31 605.74 166.35 614.22 166.39 C 614.21 167.42 614.21 169.49 614.21 170.53 C 607.65 170.58 601.09 170.52 594.54 170.56 C 594.54 172.51 594.55 174.46 594.57 176.41 C 600.90 176.43 607.24 176.40 613.57 176.43 C 613.57 177.86 613.58 179.28 613.60 180.72 C 607.66 180.75 601.72 180.77 595.78 180.70 C 595.46 180.93 594.82 181.38 594.50 181.60 C 594.56 184.27 594.55 186.95 594.53 189.62 C 600.93 189.66 607.33 189.67 613.73 189.61 C 613.96 191.18 614.17 192.76 614.36 194.34 C 605.96 194.42 597.56 194.34 589.16 194.38 C 588.38 185.09 589.02 175.73 588.80 166.41 Z" />
<path fill="#000000" d=" M 298.84 166.40 C 300.66 166.37 302.48 166.35 304.31 166.33 C 305.61 168.86 306.83 171.43 308.07 173.99 C 310.20 178.24 312.19 182.57 314.36 186.80 C 315.55 189.31 316.78 191.79 317.88 194.34 C 315.88 194.37 313.88 194.38 311.88 194.37 C 310.97 192.31 310.02 190.27 309.16 188.19 C 304.17 187.45 299.07 187.68 294.06 187.90 C 292.87 189.96 291.97 192.17 291.02 194.34 C 289.09 194.37 287.16 194.38 285.24 194.38 C 286.80 191.24 288.31 188.08 289.88 184.95 C 291.52 181.60 293.13 178.23 294.76 174.88 C 295.77 172.90 296.72 170.90 297.67 168.89 C 297.96 168.27 298.55 167.03 298.84 166.40 Z" />
<path fill="#000000" d=" M 538.69 166.44 C 540.66 166.38 542.62 166.35 544.60 166.34 C 544.56 175.68 544.61 185.01 544.57 194.35 C 542.93 194.37 541.29 194.40 539.66 194.43 C 539.41 194.15 538.92 193.58 538.67 193.29 C 538.77 184.34 538.72 175.39 538.69 166.44 Z" />
<path fill="#ffffff" d=" M 397.56 170.57 C 403.45 170.55 409.35 170.49 415.25 170.62 C 415.26 176.94 415.23 183.26 415.27 189.59 C 409.35 189.70 403.44 189.64 397.52 189.64 C 397.57 183.28 397.52 176.93 397.56 170.57 Z" />
<path fill="#ffffff" d=" M 474.65 171.71 C 474.91 171.41 475.43 170.81 475.69 170.51 C 481.30 170.60 486.91 170.51 492.52 170.57 C 492.59 176.92 492.52 183.27 492.57 189.62 C 486.61 189.63 480.64 189.74 474.68 189.55 C 474.69 183.60 474.75 177.66 474.65 171.71 Z" />
<path fill="#ffffff" d=" M 301.34 172.17 C 302.43 174.02 303.34 175.97 304.31 177.90 C 305.13 179.74 305.99 181.58 306.84 183.41 C 303.33 183.47 299.81 183.46 296.29 183.45 C 296.39 183.07 296.59 182.29 296.69 181.90 C 297.39 180.58 298.06 179.24 298.73 177.90 C 299.63 176.00 300.48 174.08 301.34 172.17 Z" />
</svg>
