<?xml version="1.0" encoding="UTF-8" ?>
<!DOCTYPE svg PUBLIC "-//W3C//DTD SVG 1.1//EN" "http://www.w3.org/Graphics/SVG/1.1/DTD/svg11.dtd">
<svg width="275pt" height="342pt" viewBox="0 0 275 342" version="1.1" xmlns="http://www.w3.org/2000/svg">
<path fill="#ffffff" d=" M 0.00 0.00 L 275.00 0.00 L 275.00 342.00 L 0.00 342.00 L 0.00 0.00 Z" />
<path fill="#818286" d=" M 126.15 1.21 C 138.78 1.18 151.59 0.30 164.05 2.84 C 186.25 6.81 207.18 16.96 224.42 31.43 C 243.65 47.32 259.09 68.22 267.04 91.98 C 270.93 103.94 273.75 116.41 273.78 129.04 C 273.92 136.16 273.89 143.28 273.65 150.40 C 271.62 177.19 260.99 203.27 243.53 223.71 C 228.03 242.27 207.98 257.34 185.15 265.62 C 163.78 273.49 140.48 275.33 117.98 272.36 C 93.83 268.98 70.67 258.72 51.98 243.05 C 33.62 228.01 18.70 208.45 10.35 186.15 C -1.02 155.48 -1.09 120.83 9.69 89.99 C 17.74 67.31 32.56 47.28 51.02 31.97 C 72.00 14.21 98.64 2.87 126.15 1.21 Z" />
<path fill="#312e2e" d=" M 126.57 10.82 C 153.26 8.59 180.88 14.04 203.78 28.21 C 233.19 46.32 255.83 76.22 262.59 110.36 C 267.70 136.47 265.75 164.38 254.78 188.79 C 243.78 213.06 224.79 233.39 202.15 247.26 C 174.52 264.12 140.19 268.61 108.82 261.39 C 78.79 254.50 52.45 235.35 34.31 210.76 C 18.61 189.64 10.61 163.25 10.98 137.01 C 10.81 109.63 19.70 82.19 36.61 60.57 C 54.51 37.33 80.18 19.73 109.03 13.48 C 114.80 12.20 120.67 11.32 126.57 10.82 Z" />
<path fill="#ffffff" d=" M 129.99 12.05 C 155.71 10.50 182.19 16.10 204.05 30.03 C 231.38 47.47 253.00 74.96 260.27 106.86 C 265.60 130.33 264.94 155.36 257.31 178.25 C 250.93 197.46 239.01 214.50 224.39 228.36 C 206.87 245.22 184.52 257.29 160.43 261.30 C 130.38 266.45 98.19 261.24 72.38 244.60 C 45.22 227.03 23.21 199.92 15.80 168.02 C 10.67 145.63 11.19 121.86 17.68 99.81 C 26.30 70.88 46.71 46.25 71.95 30.09 C 89.27 19.09 109.54 13.07 129.99 12.05 Z" />
<path fill="#818286" d=" M 128.57 43.91 C 149.94 41.84 172.21 46.74 190.02 58.94 C 207.43 70.88 221.42 88.29 227.72 108.57 C 235.91 135.11 232.48 165.49 216.67 188.60 C 203.60 208.06 183.40 222.94 160.43 228.22 C 140.02 232.96 117.88 231.12 98.84 222.18 C 80.39 213.37 64.97 198.49 55.27 180.53 C 38.08 148.32 42.12 105.82 65.93 77.95 C 81.31 59.02 104.16 46.10 128.57 43.91 Z" />
<path fill="#312e2e" d=" M 97.83 57.91 C 118.73 47.11 143.93 45.62 166.23 52.79 C 178.48 56.94 190.52 63.29 199.05 73.22 L 197.86 72.73 C 184.94 60.88 168.49 52.81 151.08 50.44 C 132.59 47.89 113.07 50.51 96.58 59.52 C 75.77 70.85 59.80 90.95 53.74 113.88 C 51.11 124.59 49.89 135.81 51.48 146.78 C 51.26 147.34 50.82 148.47 50.60 149.03 C 50.67 145.33 49.93 141.69 49.66 138.01 C 50.03 126.65 51.58 115.17 55.92 104.57 C 63.68 84.69 78.61 67.43 97.83 57.91 Z" />
<path fill="#ffffff" d=" M 96.58 59.52 C 113.07 50.51 132.59 47.89 151.08 50.44 C 168.49 52.81 184.94 60.88 197.86 72.73 C 203.04 78.00 208.08 83.50 211.63 90.03 C 212.12 90.92 212.65 91.79 213.22 92.63 C 178.14 92.39 143.04 92.57 107.95 92.54 C 102.34 92.37 97.41 95.93 94.77 100.70 C 82.63 121.62 70.78 142.72 58.68 163.67 C 57.94 164.89 57.56 166.28 57.21 167.66 C 53.79 161.20 52.76 153.88 51.48 146.78 C 49.89 135.81 51.11 124.59 53.74 113.88 C 59.80 90.95 75.77 70.85 96.58 59.52 Z" />
<path fill="#5f5d5e" d=" M 211.63 90.03 C 212.98 87.29 216.43 93.83 213.22 92.63 C 212.65 91.79 212.12 90.92 211.63 90.03 Z" />
<path fill="#312e2e" d=" M 129.97 102.46 C 130.87 101.82 131.89 101.56 133.01 101.70 C 161.75 101.77 190.49 101.73 219.24 101.72 C 220.00 103.38 220.78 105.04 221.58 106.70 C 221.17 106.72 220.37 106.76 219.97 106.78 C 219.38 105.32 218.78 103.87 218.20 102.41 C 188.79 102.32 159.38 102.22 129.97 102.46 Z" />
<path fill="#ffffff" d=" M 129.97 102.46 C 159.38 102.22 188.79 102.32 218.20 102.41 C 218.78 103.87 219.38 105.32 219.97 106.78 C 195.32 106.77 170.67 106.78 146.02 106.77 C 142.21 106.80 138.32 106.48 134.59 107.47 C 129.64 108.90 125.49 112.60 123.18 117.17 C 108.18 143.78 92.79 170.18 77.91 196.87 C 77.65 197.40 77.12 198.46 76.85 199.00 C 75.28 197.32 73.71 195.64 72.06 194.03 C 71.43 192.62 72.79 191.51 73.29 190.32 C 88.99 163.28 104.44 136.09 120.14 109.04 C 122.06 105.28 126.03 103.37 129.97 102.46 Z" />
<path fill="#312e2e" d=" M 223.14 116.06 C 223.46 115.85 224.10 115.43 224.42 115.22 C 224.84 117.38 225.26 119.53 225.70 121.69 C 225.34 121.58 224.60 121.37 224.23 121.26 C 223.86 119.52 223.50 117.79 223.14 116.06 Z" />
<path fill="#ffffff" d=" M 150.24 123.33 C 152.43 119.47 156.23 116.03 160.92 116.18 C 181.66 115.98 202.40 116.24 223.14 116.06 C 223.50 117.79 223.86 119.52 224.23 121.26 C 205.23 121.37 186.22 121.19 167.22 121.34 C 161.79 121.47 157.25 125.14 154.75 129.76 C 137.66 158.86 120.65 188.01 103.63 217.15 C 101.57 216.07 99.52 214.96 97.50 213.82 C 115.20 183.72 132.64 153.48 150.24 123.33 Z" />
<path fill="#ffffff" d=" M 180.56 137.45 C 182.63 133.66 186.42 130.36 190.95 130.46 C 202.42 130.48 213.89 130.30 225.35 130.57 C 225.37 141.08 224.99 151.73 222.02 161.89 C 216.52 181.98 202.40 198.80 185.53 210.55 C 169.72 221.51 149.98 226.06 130.92 224.28 C 130.84 223.79 130.68 222.82 130.60 222.34 L 130.53 221.93 C 132.63 220.83 133.37 218.43 134.57 216.57 C 149.90 190.19 165.22 163.81 180.56 137.45 Z" />
<path fill="#312e2e" d=" M 225.35 130.57 C 225.65 130.40 226.26 130.04 226.57 129.87 C 226.75 139.63 226.54 149.51 224.09 159.02 C 218.53 182.47 201.98 202.33 181.51 214.54 C 165.92 223.83 147.34 227.25 129.37 225.50 C 129.78 224.44 130.13 223.37 130.60 222.34 C 130.68 222.82 130.84 223.79 130.92 224.28 C 149.98 226.06 169.72 221.51 185.53 210.55 C 202.40 198.80 216.52 181.98 222.02 161.89 C 224.99 151.73 225.37 141.08 225.35 130.57 Z" />
<path fill="#312e2e" d=" M 70.77 193.57 L 72.06 194.03 C 73.71 195.64 75.28 197.32 76.85 199.00 C 77.12 198.46 77.65 197.40 77.91 196.87 C 77.43 197.92 76.95 198.98 76.46 200.04 C 74.18 198.25 72.33 196.00 70.77 193.57 Z" />
<path fill="#312e2e" d=" M 87.11 297.11 C 94.35 297.22 101.89 295.63 108.87 298.21 C 112.84 299.59 115.76 303.11 116.69 307.17 C 114.92 304.39 113.10 301.27 109.84 300.07 C 102.64 297.30 94.78 298.53 87.30 298.98 C 87.25 298.51 87.16 297.58 87.11 297.11 Z" />
<path fill="#312e2e" d=" M 128.99 300.84 C 134.47 296.10 142.35 295.59 149.15 297.18 C 151.33 297.75 153.87 298.22 155.16 300.30 L 154.06 300.02 C 147.08 297.79 138.98 296.68 132.27 300.35 C 125.81 304.00 122.38 311.19 121.21 318.28 C 121.41 311.77 123.79 305.03 128.99 300.84 Z" />
<path fill="#312e2e" d=" M 202.09 297.14 C 210.21 297.15 218.96 295.29 226.46 299.41 C 222.27 299.34 218.17 298.25 213.97 298.29 C 210.42 298.33 206.88 298.72 203.34 299.00 C 203.34 312.69 203.26 326.37 203.39 340.05 L 203.39 340.61 C 203.08 340.66 202.46 340.76 202.14 340.82 C 202.10 326.26 202.19 311.70 202.09 297.14 Z" />
<path fill="#312e2e" d=" M 0.81 297.12 C 4.44 297.10 8.06 297.08 11.68 297.21 C 15.25 307.02 18.87 316.82 22.51 326.60 C 22.98 328.11 24.01 329.56 23.79 331.20 C 23.69 331.69 23.50 332.65 23.40 333.13 C 18.78 321.90 14.88 310.39 10.66 299.00 C 7.54 298.99 4.42 299.06 1.30 298.92 C 1.18 298.47 0.94 297.57 0.81 297.12 Z" />
<path fill="#818286" d=" M 23.79 331.20 C 26.93 319.58 32.40 308.72 36.10 297.27 C 37.92 300.44 42.40 298.48 45.41 299.02 C 45.48 312.78 45.27 326.54 45.50 340.29 C 43.08 340.47 40.65 340.51 38.23 340.57 C 38.56 329.75 37.81 318.90 38.70 308.10 C 38.21 312.46 36.06 316.33 34.61 320.40 C 32.07 327.13 29.39 333.80 26.93 340.56 C 24.56 340.50 22.19 340.46 19.82 340.44 C 16.72 330.27 11.81 320.68 9.39 310.31 L 8.78 310.77 C 8.28 309.80 7.77 308.84 7.27 307.88 C 6.74 318.67 7.03 329.49 7.08 340.28 C 5.15 340.45 3.22 340.54 1.29 340.65 C 1.08 326.74 1.05 312.82 1.30 298.92 C 4.42 299.06 7.54 298.99 10.66 299.00 C 14.88 310.39 18.78 321.90 23.40 333.13 C 23.50 332.65 23.69 331.69 23.79 331.20 Z" />
<path fill="#312e2e" d=" M 36.10 297.27 C 39.43 297.01 42.76 297.12 46.09 297.19 C 46.12 311.85 46.30 326.51 46.00 341.16 L 45.50 340.29 C 45.27 326.54 45.48 312.78 45.41 299.02 C 42.40 298.48 37.92 300.44 36.10 297.27 Z" />
<path fill="#312e2e" d=" M 52.93 297.12 C 62.53 297.11 72.12 297.12 81.72 297.12 C 81.69 299.59 81.72 302.06 81.71 304.53 C 81.07 302.75 80.81 300.87 80.71 299.00 C 71.62 298.94 62.53 299.13 53.45 298.90 C 53.32 298.45 53.06 297.56 52.93 297.12 Z" />
<path fill="#312e2e" d=" M 160.91 297.20 C 163.97 297.11 167.08 296.86 170.09 297.57 L 169.18 298.64 C 166.58 299.00 163.95 298.99 161.33 298.99 C 161.35 309.17 161.53 319.34 161.24 329.51 C 160.49 318.77 161.07 307.96 160.91 297.20 Z" />
<path fill="#312e2e" d=" M 186.45 297.16 C 189.31 297.11 192.17 297.10 195.03 297.12 C 194.91 297.56 194.66 298.44 194.53 298.88 C 192.19 299.02 189.85 299.00 187.51 299.01 C 187.43 308.67 187.61 318.34 187.48 327.99 C 187.56 336.60 172.35 338.86 170.17 330.61 C 172.36 332.48 174.97 334.28 178.01 334.01 C 182.00 334.17 186.49 331.39 186.43 327.02 C 186.54 317.07 186.46 307.11 186.45 297.16 Z" />
<path fill="#312e2e" d=" M 234.26 297.22 C 237.40 297.13 240.55 297.00 243.69 297.27 C 242.28 300.29 238.27 298.55 235.66 299.04 C 235.19 298.42 234.72 297.82 234.26 297.22 Z" />
<path fill="#818286" d=" M 243.69 297.27 C 246.48 302.77 250.35 307.62 253.19 313.10 C 253.67 314.09 254.16 315.08 254.64 316.09 C 258.32 310.48 261.83 304.75 265.35 299.04 C 267.50 299.03 269.65 299.03 271.80 298.93 C 268.07 306.69 262.48 313.43 258.42 321.01 C 257.96 327.41 258.53 333.84 258.19 340.25 C 255.46 340.72 252.63 340.16 249.93 340.96 L 250.91 340.03 C 253.08 334.25 249.96 327.37 252.46 321.44 C 251.17 321.22 249.88 321.05 248.60 320.83 C 248.29 318.41 246.55 316.58 245.36 314.57 C 242.13 309.39 238.57 304.41 235.66 299.04 C 238.27 298.55 242.28 300.29 243.69 297.27 Z" />
<path fill="#312e2e" d=" M 253.95 314.11 C 257.60 308.45 261.00 302.63 264.79 297.06 C 267.89 297.15 271.04 296.87 274.10 297.57 C 273.53 297.91 272.38 298.59 271.80 298.93 C 269.65 299.03 267.50 299.03 265.35 299.04 C 261.83 304.75 258.32 310.48 254.64 316.09 C 254.16 315.08 253.67 314.09 253.19 313.10 L 253.95 314.11 Z" />
<path fill="#818286" d=" M 132.27 300.35 C 138.98 296.68 147.08 297.79 154.06 300.02 C 153.43 302.04 152.70 304.03 151.95 306.01 C 147.21 304.06 141.67 302.25 136.76 304.72 C 132.12 307.38 130.15 312.89 129.81 317.98 C 129.41 321.21 130.85 324.22 131.29 327.36 C 131.36 332.26 136.57 335.30 140.99 335.62 C 145.08 336.13 148.88 334.20 152.03 331.79 C 153.29 333.18 154.53 334.60 155.98 335.81 C 150.66 341.50 142.22 341.39 135.10 340.32 C 125.64 337.85 120.47 327.54 121.21 318.28 C 122.38 311.19 125.81 304.00 132.27 300.35 Z" />
<path fill="#818286" d=" M 53.45 298.90 C 62.53 299.13 71.62 298.94 80.71 299.00 C 80.81 300.87 81.07 302.75 81.71 304.53 L 81.79 304.79 C 74.91 303.94 67.97 304.82 61.07 304.26 C 60.23 307.80 60.47 311.46 60.50 315.07 C 65.82 315.07 71.34 316.11 76.50 314.38 C 76.34 316.54 76.33 318.71 76.36 320.89 L 74.75 320.92 L 74.65 320.66 C 74.56 320.45 74.40 320.05 74.32 319.85 C 69.66 320.22 65.00 320.16 60.34 320.14 C 60.67 325.07 60.54 330.01 60.47 334.94 C 67.42 335.07 74.37 334.97 81.32 335.00 C 81.36 334.56 81.44 333.66 81.48 333.22 L 81.99 333.19 C 82.00 335.70 82.01 338.21 82.01 340.72 C 72.47 340.22 62.88 340.37 53.33 340.65 C 53.27 326.74 53.06 312.81 53.45 298.90 Z" />
<path fill="#818286" d=" M 87.30 298.98 C 94.78 298.53 102.64 297.30 109.84 300.07 C 113.10 301.27 114.92 304.39 116.69 307.17 L 117.05 307.74 C 117.18 313.07 114.21 320.02 108.40 320.58 C 108.46 320.68 108.58 320.88 108.64 320.98 C 107.57 322.57 109.08 323.90 109.78 325.18 C 113.39 330.16 116.68 335.36 120.35 340.30 C 117.58 340.49 114.81 340.48 112.05 340.43 C 108.24 334.40 104.07 328.60 100.17 322.64 C 98.63 322.57 97.09 322.50 95.56 322.43 C 95.81 328.52 95.57 334.61 95.74 340.70 C 92.86 340.43 89.98 340.40 87.09 340.52 C 87.40 326.68 87.01 312.83 87.30 298.98 Z" />
<path fill="#818286" d=" M 161.33 298.99 C 163.95 298.99 166.58 299.00 169.18 298.64 C 170.22 309.26 168.39 320.07 170.17 330.61 C 172.35 338.86 187.56 336.60 187.48 327.99 C 187.61 318.34 187.43 308.67 187.51 299.01 C 189.85 299.00 192.19 299.02 194.53 298.88 C 194.96 308.24 194.62 317.61 194.73 326.98 C 195.30 334.10 188.84 340.42 181.91 340.70 C 178.61 340.92 175.29 340.93 172.01 340.49 C 166.59 339.69 161.47 335.20 161.24 329.51 C 161.53 319.34 161.35 309.17 161.33 298.99 Z" />
<path fill="#818286" d=" M 203.34 299.00 C 206.88 298.72 210.42 298.33 213.97 298.29 C 218.17 298.25 222.27 299.34 226.46 299.41 L 226.78 299.42 C 232.48 303.49 233.49 312.48 228.55 317.51 C 227.11 318.86 225.71 321.36 223.40 320.47 C 228.17 327.17 232.69 334.04 237.40 340.78 C 233.98 340.40 230.54 340.35 227.11 340.55 C 223.21 334.53 218.92 328.78 215.20 322.64 C 213.60 322.56 212.00 322.49 210.41 322.41 C 210.58 328.47 210.38 334.53 210.56 340.59 C 208.16 340.57 205.76 340.43 203.39 340.05 C 203.26 326.37 203.34 312.69 203.34 299.00 Z" />
<path fill="#ffffff" d=" M 210.41 304.24 C 214.94 304.34 220.44 303.46 223.41 307.79 C 223.13 310.22 223.27 313.44 220.64 314.68 C 217.37 316.14 213.70 315.82 210.22 315.84 C 210.65 311.98 210.50 308.10 210.41 304.24 Z" />
<path fill="#312e2e" d=" M 60.50 315.07 C 60.47 311.46 60.23 307.80 61.07 304.26 C 61.73 307.35 61.48 310.52 61.45 313.66 C 66.43 314.11 71.73 312.74 76.50 314.38 C 71.34 316.11 65.82 315.07 60.50 315.07 Z" />
<path fill="#312e2e" d=" M 94.47 305.03 C 94.58 308.63 94.62 312.24 94.67 315.84 C 94.93 315.85 95.44 315.85 95.69 315.86 C 99.50 316.00 103.45 315.84 106.92 314.08 L 108.30 313.51 C 105.88 318.58 99.28 317.34 94.71 317.40 C 94.39 313.28 94.28 309.15 94.47 305.03 Z" />
<path fill="#ffffff" d=" M 95.60 304.25 C 99.52 304.26 103.62 303.99 107.21 305.88 C 108.69 308.50 108.18 311.49 106.92 314.08 C 103.45 315.84 99.50 316.00 95.69 315.86 C 95.68 311.98 95.69 308.12 95.60 304.25 Z" />
<path fill="#5f5d5e" d=" M 7.08 340.28 C 7.03 329.49 6.74 318.67 7.27 307.88 C 7.77 308.84 8.28 309.80 8.78 310.77 L 9.31 311.80 C 8.53 321.48 9.10 331.22 8.96 340.92 C 8.49 340.76 7.55 340.44 7.08 340.28 Z" />
<path fill="#312e2e" d=" M 223.41 307.79 C 225.66 310.66 224.08 315.33 220.70 316.55 C 217.44 317.59 213.93 317.72 210.55 317.37 C 210.47 316.98 210.30 316.22 210.22 315.84 C 213.70 315.82 217.37 316.14 220.64 314.68 C 223.27 313.44 223.13 310.22 223.41 307.79 Z" />
<path fill="#312e2e" d=" M 60.34 320.14 C 65.00 320.16 69.66 320.22 74.32 319.85 C 74.40 320.05 74.56 320.45 74.65 320.66 C 70.27 321.33 65.16 319.36 61.29 321.95 C 61.61 325.70 61.50 329.47 61.46 333.23 C 68.13 333.22 74.81 333.23 81.48 333.22 C 81.44 333.66 81.36 334.56 81.32 335.00 C 74.37 334.97 67.42 335.07 60.47 334.94 C 60.54 330.01 60.67 325.07 60.34 320.14 Z" />
<path fill="#312e2e" d=" M 109.78 325.18 C 109.08 323.90 107.57 322.57 108.64 320.98 C 113.09 327.72 118.03 334.15 122.18 341.08 C 121.72 340.88 120.81 340.49 120.35 340.30 C 116.68 335.36 113.39 330.16 109.78 325.18 Z" />
<path fill="#312e2e" d=" M 250.01 322.86 C 250.20 322.70 250.58 322.38 250.77 322.22 C 251.84 325.99 251.19 330.10 251.46 334.00 C 251.28 335.98 251.96 338.23 250.91 340.03 L 249.93 340.96 C 249.84 334.93 249.60 328.87 250.01 322.86 Z" />
<path fill="#312e2e" d=" M 140.99 335.62 C 136.57 335.30 131.36 332.26 131.29 327.36 C 133.07 329.80 135.03 332.42 138.06 333.32 C 142.92 335.23 148.50 333.19 151.70 329.25 C 153.60 331.44 155.49 333.66 156.94 336.19 L 155.98 335.81 C 154.53 334.60 153.29 333.18 152.03 331.79 C 148.88 334.20 145.08 336.13 140.99 335.62 Z" />
</svg>
