<?xml version="1.0" encoding="UTF-8" standalone="no"?>
<!-- Created with Inkscape (http://www.inkscape.org/) -->

<svg
   xmlns:dc="http://purl.org/dc/elements/1.1/"
   xmlns:cc="http://creativecommons.org/ns#"
   xmlns:rdf="http://www.w3.org/1999/02/22-rdf-syntax-ns#"
   xmlns:svg="http://www.w3.org/2000/svg"
   xmlns="http://www.w3.org/2000/svg"
   xmlns:sodipodi="http://sodipodi.sourceforge.net/DTD/sodipodi-0.dtd"
   xmlns:inkscape="http://www.inkscape.org/namespaces/inkscape"
   version="1.0"
   width="200.661"
   height="142.36353"
   viewBox="0 0 200.661 142.36353"
   id="svg2231"
   inkscape:version="0.47 r22583"
   sodipodi:docname="Mercedes-Benz_logo.svg">
  <metadata
     id="metadata29">
    <rdf:RDF>
      <cc:Work
         rdf:about="">
        <dc:format>image/svg+xml</dc:format>
        <dc:type
           rdf:resource="http://purl.org/dc/dcmitype/StillImage" />
      </cc:Work>
    </rdf:RDF>
  </metadata>
  <sodipodi:namedview
     pagecolor="#ffffff"
     bordercolor="#666666"
     borderopacity="1"
     objecttolerance="10"
     gridtolerance="10"
     guidetolerance="10"
     inkscape:pageopacity="0"
     inkscape:pageshadow="2"
     inkscape:window-width="1280"
     inkscape:window-height="710"
     id="namedview27"
     showgrid="false"
     inkscape:zoom="0.43847562"
     inkscape:cx="354.33071"
     inkscape:cy="251.388"
     inkscape:window-x="-4"
     inkscape:window-y="-4"
     inkscape:window-maximized="1"
     inkscape:current-layer="svg2231" />
  <defs
     id="defs2233">
    <inkscape:perspective
       sodipodi:type="inkscape:persp3d"
       inkscape:vp_x="0 : 269.11417 : 1"
       inkscape:vp_y="0 : 1000 : 0"
       inkscape:vp_z="744.09448 : 269.11417 : 1"
       inkscape:persp3d-origin="372.04724 : 179.40944 : 1"
       id="perspective31" />
    <clipPath
       id="clp19">
      <path
         d="m 0.06,737.1 581.16,0 0,-737.04 -581.16,0 0,737.04 z"
         id="path10161" />
    </clipPath>
    <clipPath
       id="clp16">
      <path
         d="m 0.06,737.1 581.16,0 0,-737.04 -581.16,0 0,737.04 z"
         id="path10105" />
    </clipPath>
    <clipPath
       id="clp63">
      <path
         d="m 0.06,737.1 581.16,0 0,-737.04 -581.16,0 0,737.04 z"
         id="path11432" />
    </clipPath>
  </defs>
  <g
     transform="matrix(0.28315497,0,0,0.28315497,-461.5297,54.893088)"
     id="layer1">
    <g
       transform="translate(17.716541,17.72616)"
       id="g4178">
      <path
         d="m 1940.4879,-58.971078 22.7697,-136.393492 c -82.0433,1.50912 -148.2971,68.47977 -148.2971,150.919605 0,25.656243 7.0362,50.3694167 18.695,73.007304 l 106.8324,-87.533417 z m 25.1469,43.766709 -129.2439,48.482889 c 26.8637,45.087239 77.0254,73.0073 129.4136,73.0073 52.6521,0 102.1539,-27.920061 129.3381,-73.0073 l -129.5078,-48.482889 z m 25.3354,-43.766709 106.9833,87.533417 c 11.9981,-22.4492955 18.8835,-47.351061 18.8835,-73.007304 0,-83.194475 -65.9705,-148.467245 -148.2782,-151.108305 l 22.4114,136.582192 z m 141.959,14.526113 c 0,91.872248 -75.2903,167.143425 -167.1247,167.143425 -91.759,0 -167.1247,-75.271177 -167.1247,-167.143425 0,-91.872355 75.2903,-167.143545 167.1247,-167.143545 91.8909,0 167.1247,75.27119 167.1247,167.143545"
         style="fill:#ffffff;fill-rule:evenodd;stroke:none"
         id="path9939" />
      <path
         d="m 1629.5555,212.87278 -2.9805,66.78189 c -0.2828,6.41422 4.4145,7.7347 10.2247,8.11199 l 0,2.26377 c -4.1123,-0.18859 -8.2251,-0.566 -12.3563,-0.566 -4.1129,0 -8.0932,0.37741 -12.2055,0.566 l 0,-2.26377 c 5.8291,-0.37729 9.9414,-1.69777 10.2248,-8.11199 l 3.1313,-63.19749 c 0.4154,-6.79141 -4.4145,-7.7347 -10.2247,-7.92335 l 0,-2.45246 c 3.5467,0 6.9614,0.18875 10.5075,0.18875 3.1131,0 6.0936,-0.18875 9.0742,-0.56599 l 23.5814,66.5933 23.9963,-66.5933 2.6977,0.37724 c 2.1316,0 4.414,0.18875 6.6781,0.18875 3.4147,0 6.8289,-0.18875 10.2247,-0.18875 l 0,2.45246 c -5.8102,0.18865 -10.3567,1.32065 -10.2247,7.92335 l 1.4334,63.19749 c 0.2834,6.41422 4.2448,7.7347 10.3573,8.11199 l 0,2.26377 -5.2446,-0.37724 c -3.1314,-0.18876 -6.1125,-0.37735 -9.2439,-0.37735 -3.1125,0 -6.2444,0.18859 -9.3758,0.37735 l -5.1126,0.37724 0,-2.26377 c 5.9805,-0.37729 10.3756,-1.69777 10.2247,-8.11199 l -0.9809,-66.78189 -26.7128,74.51659 -1.5466,0 -26.1472,-74.51659"
         style="fill:#231f20;fill-rule:nonzero;stroke:none"
         id="path9941" />
      <path
         d="m 1771.8727,239.09507 0,44.52135 c 0,4.15024 -5.8291,4.33895 -8.8096,4.52754 l 0,1.88647 c 4.2631,-0.18859 8.5079,-0.566 12.7716,-0.566 4.2632,0 8.5269,0.37741 12.79,0.566 l 0,-1.88647 c -4.8293,-0.3773 -8.9416,-0.94324 -8.9416,-6.60282 l 0,-25.09025 c 0,-7.16865 1.1318,-21.50606 10.7909,-22.26065 1.6974,-0.18864 4.2632,0.75459 4.3951,2.82977 0,1.13183 -0.5656,2.07506 -0.5656,3.20695 0,2.45246 2.2636,4.15029 4.546,4.33894 3.4147,0 4.9618,-3.01836 4.9618,-6.03666 0,-5.28223 -4.8293,-9.24399 -10.0739,-9.24399 -7.1123,0 -12.6397,4.90499 -14.6393,11.5077 0,-4.15035 -0.4148,-8.30059 -0.849,-12.26229 -4.9613,1.32059 -10.0739,2.64106 -15.186,2.82988 l 0,1.88647 c 5.1121,0.18859 8.8096,0 8.8096,5.84806"
         style="fill:#231f20;fill-rule:nonzero;stroke:none"
         id="path9949" />
      <path
         d="m 1842.8805,228.15342 -3.2822,6.22542 c -3.2639,-3.0183 -6.9426,-5.09359 -11.7719,-5.09359 -16.3372,0 -24.0151,16.22388 -24.0151,30.74994 0,14.33741 6.6781,31.12718 23.4301,31.12718 11.9415,0 17.9032,-9.99847 19.0349,-20.56288 l -4.8293,0 c -1.4151,7.92335 -4.2637,16.60123 -13.9034,16.60123 -13.5075,0 -14.9227,-17.16706 -14.9227,-27.16553 0,-9.43247 2.283,-27.73142 15.0547,-27.73142 8.9416,0 13.2053,7.73454 14.7712,15.28059 l 2.4144,0 0,-19.43094 -1.9807,0"
         style="fill:#231f20;fill-rule:nonzero;stroke:none"
         id="path9951" />
      <path
         d="m 1895.5514,270.4109 4.9807,0 c -1.8493,12.63947 -9.2255,20.75147 -22.2989,20.75147 -16.752,0 -23.43,-15.65794 -23.43,-30.18389 0,-14.52611 6.3952,-31.69323 23.43,-31.69323 16.3373,0 22.1475,14.71476 22.0155,28.86341 l -37.7865,0 c 0.3022,11.69619 1.8487,29.05206 17.1862,29.05206 9.81,0 14.6393,-8.11188 15.903,-16.78982 z m -2.9805,-16.60112 0,-1.69783 c -0.849,-8.86653 -3.6787,-19.61959 -14.6205,-19.61959 -10.3756,0 -14.6204,12.63953 -15.054,21.31742 l 29.6745,0"
         style="fill:#231f20;fill-rule:nonzero;stroke:none"
         id="path9953" />
      <path
         d="m 1961.7487,286.25749 0,1.69788 c -5.1126,0.75453 -9.9419,1.32047 -14.9221,2.8297 -0.717,-3.58435 -1.2831,-7.16865 -1.4151,-10.94159 -2.9805,6.60265 -8.6588,10.94159 -16.0539,10.94159 -15.9036,0 -21.8646,-17.54441 -21.8646,-30.74988 0,-13.20547 6.1124,-30.37253 21.8646,-30.37253 7.6779,0 12.0736,4.71618 15.6203,11.13029 l 0,-24.33577 c 0,-5.84811 -3.3959,-6.6027 -8.7914,-6.6027 l 0,-1.69788 1.5471,-0.37735 c 5.1121,-0.56589 10.0928,-1.13189 15.0541,-2.64112 l 0,72.44147 c 0,6.60266 2.283,8.67789 8.961,8.67789 z m -16.7708,-25.84501 c 0,-9.99841 -1.698,-27.35412 -15.0547,-27.35412 -12.7716,0 -14.0542,17.35571 -14.0542,26.59954 0,9.43252 1.1317,27.73147 14.4884,27.73147 13.4881,0 14.6205,-17.16712 14.6205,-26.97689"
         style="fill:#231f20;fill-rule:nonzero;stroke:none"
         id="path9955" />
      <path
         d="m 2009.0431,270.4109 4.9612,0 c -1.1317,12.63947 -9.6586,20.75147 -22.2983,20.75147 -16.62,0 -23.5809,-15.65794 -23.5809,-30.18389 0,-14.52611 6.5461,-31.69323 23.5809,-31.69323 16.4692,0 22.1475,14.71476 22.1475,28.86341 l -37.7677,0 c -0.1508,11.69619 1.9808,29.05206 17.0354,29.05206 9.6586,0 14.9221,-8.11188 15.9219,-16.78982 z m -2.8486,-16.60112 c -0.849,-9.24388 -3.1319,-21.31742 -14.6393,-21.31742 -10.3567,0 -13.9034,11.6963 -15.0352,20.18548 l -0.1508,1.13194 29.8253,0"
         style="fill:#231f20;fill-rule:nonzero;stroke:none"
         id="path9957" />
      <path
         d="m 2024.2291,291.16237 2.8297,-5.28223 c 4.1317,3.3957 9.5272,4.90493 14.7713,4.90493 10.0928,0 19.7519,-6.60281 19.7519,-17.54441 0,-8.30059 -5.6788,-12.45094 -12.9225,-15.28064 l -5.6782,-2.26377 c -5.1127,-1.88647 -13.3567,-4.71635 -13.3567,-11.50759 0,-6.79141 5.3954,-11.5077 12.2055,-11.5077 8.8102,0 12.3569,7.16876 13.2247,14.9034 l 2.4144,0 0,-19.0537 -1.9996,0 -1.698,4.71635 c -3.6975,-2.26388 -7.8098,-3.58435 -12.2243,-3.58435 -9.5078,0 -18.318,6.22541 -18.318,16.22382 0,19.99683 31.8255,14.14871 31.8255,29.24065 0,7.35741 -6.5461,12.26224 -13.5075,12.26224 -10.3568,0 -14.9033,-7.7347 -17.0348,-16.78988 l -2.5658,0.18876 0.1508,20.37412 2.1316,0"
         style="fill:#231f20;fill-rule:nonzero;stroke:none"
         id="path9959" />
      <path
         d="m 2066.9775,257.58272 22.7131,0 0,-3.96165 -22.7131,0 0,3.96165 z"
         style="fill:#231f20;fill-rule:nonzero;stroke:none"
         id="path9961" />
      <path
         d="m 2198.8997,270.4109 4.9807,0 c -1.1324,12.26229 -9.81,21.31741 -22.4309,20.75147 -16.4875,-0.94329 -23.4489,-15.092 -23.4489,-30.18389 0,-14.52611 6.5461,-31.69323 23.4489,-31.69323 16.4692,0 22.2795,14.71476 22.2795,29.05217 l -37.9185,0 c -0.132,11.50743 2.1321,28.8633 17.0542,28.8633 9.9419,0 14.6204,-8.11188 16.035,-16.78982 z m -2.9805,-16.60112 c -0.132,-9.24388 -3.3959,-21.31742 -14.6205,-21.31742 -10.2248,0 -13.9223,11.88489 -15.0541,20.18548 l -0.1508,1.13194 29.8254,0"
         style="fill:#231f20;fill-rule:nonzero;stroke:none"
         id="path9963" />
      <path
         d="m 2218.3683,239.28372 0,42.44623 c 0,5.65942 -4.1312,6.03671 -9.093,6.41401 l 0,2.07512 c 4.3957,-0.37724 8.6593,-0.75465 12.9225,-0.75465 4.2637,0 8.5274,0.37741 12.9225,0.75465 l 0,-2.07512 c -4.8293,-0.3773 -9.093,-0.94324 -9.093,-6.41401 l 0,-29.99535 c 0,-8.86658 4.5465,-16.78977 14.6393,-16.78977 9.6591,0 11.4891,8.48918 11.4891,16.41248 l 0,32.25911 c 0,4.33895 -5.9617,4.33895 -9.0742,4.52754 l 0,2.07512 c 4.2448,-0.37724 8.508,-0.75465 12.9225,-0.75465 4.3957,0 8.6588,0.37741 13.0545,0.75465 l 0,-2.07512 c -4.9613,-0.3773 -9.0742,-0.75459 -9.0742,-6.41401 l 0,-30.75005 c 0,-11.13018 -5.5463,-21.31724 -18.1859,-21.31724 -7.0929,0 -12.5072,3.77294 -16.3367,9.62106 l 0,-1.50918 c -0.132,-3.3957 -0.4154,-6.414 -0.849,-9.62112 -4.8293,1.88647 -9.9419,3.0183 -15.0541,3.773 l 0,1.88647 c 4.9802,0 8.8097,-0.1887 8.8097,5.47083"
         style="fill:#231f20;fill-rule:nonzero;stroke:none"
         id="path9965" />
      <path
         d="m 2316.787,289.84184 2.9805,-16.97847 -1.9995,0 c -2.8298,7.92335 -6.2445,14.14876 -15.3375,14.14876 l -16.884,0 35.3528,-56.40624 -40.3334,0 -2.6972,15.46924 2.1315,0 c 2.6978,-7.16865 5.5463,-12.45094 13.9223,-12.45094 l 16.1859,0 -35.2208,56.21765 41.8994,0"
         style="fill:#231f20;fill-rule:nonzero;stroke:none"
         id="path9973" />
      <path
         d="m 1751.8385,270.4109 4.9801,0 c -1.1506,12.63947 -9.6586,20.75147 -22.2983,20.75147 -16.7708,0 -23.43,-15.46924 -23.43,-30.18389 0,-14.52611 6.3758,-31.69323 23.43,-31.69323 16.4692,0 22.1475,14.71476 22.1475,28.86341 l -37.7677,0 c -0.1508,11.69619 1.9807,29.05206 17.0348,29.05206 9.5083,0 15.1866,-8.11188 15.9036,-16.78982 z m -2.8297,-16.60112 c -0.585,-9.24388 -3.2828,-21.31742 -14.7713,-21.31742 -10.8098,0 -13.9223,12.63953 -15.0546,21.31742 l 29.8259,0"
         style="fill:#231f20;fill-rule:nonzero;stroke:none"
         id="path9975" />
      <path
         d="m 2149.7189,265.88331 c 0,15.092 -10.5264,23.95853 -28.769,23.95853 l -30.6366,0 0,-2.45247 c 8.4137,-0.566 10.2625,-1.88647 10.2625,-8.30053 l 0,-62.25442 c 0,-6.22535 -1.8299,-7.73459 -10.2625,-8.11194 l 0,-2.45236 31.5233,0 c 15.2237,0 23.8265,7.3573 23.8265,20.18542 0,8.86659 -4.1882,14.90341 -13.3001,18.86495 10.7155,1.88647 17.3559,9.80982 17.3559,20.56282 z m -31.5233,-21.50606 c 12.7717,0 18.4311,-5.47077 18.4311,-17.5443 0,-11.885 -4.943,-17.16718 -16.0162,-17.16718 l -11.7341,0 0,34.71148 9.3192,0 z m -9.3192,34.90018 c 0,5.84806 1.3203,6.98006 8.5268,6.98006 l 4.6219,0 c 11.6211,0 18.6385,-7.54606 18.6385,-19.80818 0,-12.63953 -6.0365,-18.67636 -18.695,-18.67636 l -13.0922,0 0,31.50448"
         style="fill:#231f20;fill-rule:nonzero;stroke:none"
         id="path9977" />
      <path
         d="m 2132.9292,-44.444965 c 0,91.872248 -75.2903,167.143425 -167.1247,167.143425 -91.759,0 -167.1247,-75.271177 -167.1247,-167.143425 0,-91.872355 75.2903,-167.143545 167.1247,-167.143545 91.8909,0 167.1247,75.27119 167.1247,167.143545 z m -204.1566,18.67613 -0.2074,0.377405 0.5279,-0.188592 32.0141,-18.864943 -5.6783,-3.207113 -26.6563,21.883243 z m 146.1467,43.012175 0.6039,0 -0.3399,-0.565886 -97.1167,-65.272769 -7.3763,4.15035 104.229,61.688305 z m -110.1146,-178.65113 -0.264,-0.37724 -0.2833,0.37724 -6.7535,109.228123 6.0182,3.584352 1.2826,-112.812475 z m 101.2673,-0.94324 0.2074,0.566 c 7.9041,7.35735 15.3934,15.28065 22.1663,23.76983 21.0911,26.41099 32.0889,59.80194 32.0889,93.570235 0,26.599479 -7.1117,52.2558888 -19.8268,75.459774 l 1.7356,3.206947 -3.6221,0.188592 c -27.788,46.40788 -78.8365,75.648582 -133.0168,75.648582 -54.2558,0 -105.0208,-29.05211 -132.8283,-75.648582 l -3.4142,-0.188592 1.4146,-3.206947 c -8.1115,-14.903408 -13.6772,-30.74994014 -16.9594,-47.351061 l -0.3205,-0.37735 -0.2079,0.565997 c 2.1509,17.5444126 7.6972,34.711531 16.0732,50.369361 27.335,51.312653 78.308,81.496594 136.3179,81.496594 88.0614,0 159.8805,-72.25277 159.8805,-160.163315 0,-45.08735 -23.2416,-90.551825 -59.1417,-117.906065 l -0.5467,0 z m -102.8144,-33.01354 c -82.0433,1.50912 -148.2971,68.47977 -148.2971,150.919605 0,25.656243 7.0362,50.3694167 18.695,73.007304 l 104.6815,-85.835536 8.5839,4.904938 -114.3406,83.948898 -0.4719,1.131939 1.2831,0 129.9986,-73.196007 -0.2645,26.222296 -126.7347,47.539653 c 26.8637,45.087239 77.0254,73.0073 129.4136,73.0073 52.6521,0 102.1539,-27.920061 129.3381,-73.0073 l -126.6592,-47.539653 -0.3394,-26.222296 130.3568,73.196007 1.1317,0 -0.5284,-0.943291 -114.4155,-84.137546 8.508,-4.904938 104.7569,85.835536 c 11.9981,-22.4492955 18.8835,-47.351061 18.8835,-73.007304 0,-83.194475 -65.9705,-148.467245 -148.2782,-151.108305 l 21.9589,133.752484 -22.4303,13.205471 -1.6225,-149.410365 -0.6604,-0.75459 -0.6039,0.75459 -15.8088,140.921074 -8.4325,-4.71618 22.2983,-133.563784 z m -104.153,273.730329 c -32.4859,-32.636357 -51.181,-76.4030652 -51.181,-122.810724 0,-86.967415 70.9324,-157.899665 157.8809,-157.899665 76.1576,0 141.0534,55.0856 160.0878,127.338483 l 0.3965,0.188592 0.2074,-0.377405 c -15.2055,-76.40301 -82.2512,-132.62043 -160.6917,-132.62043 -89.8159,0 -163.4272,73.5733 -163.4272,163.370425 0,47.3508949 21.0346,92.06084 56.3874,123.376721 l 0.4718,0 -0.1319,-0.565997"
         style="fill:#231f20;fill-rule:nonzero;stroke:none"
         id="path9979" />
    </g>
  </g>
</svg>
