<?xml version="1.0" encoding="UTF-8" standalone="no"?>
<!-- Created with Inkscape (http://www.inkscape.org/) -->
<!DOCTYPE svg PUBLIC "-//W3C//DTD SVG 1.1//EN" "http://www.w3.org/Graphics/SVG/1.1/DTD/svg11.dtd">
<svg
   xmlns:svg="http://www.w3.org/2000/svg"
   xmlns="http://www.w3.org/2000/svg"
   version="1.1"
   width="400"
   height="180"
   viewBox="0 0 400 180"
   id="Ebene_1"
   xml:space="preserve"><defs
   id="defs37" />
<g
   transform="matrix(1.0876761,0,0,1.0876761,-6.7819102,-116.78735)"
   id="g2874"><path
     d="M 254.652,154.061 C 241.92,131.96 217.9,117.024 190.304,117.024 c -27.586,0 -51.604,14.937 -64.341,37.037 H 15.868 c 0,0 34.423,48.333 89.734,84.199 H 134.7 c 13.57,15.268 33.421,24.953 55.605,24.953 22.191,0 42.041,-9.686 55.615,-24.953 h 28.705 c 55.316,-35.865 89.734,-84.199 89.734,-84.199 H 254.652 l 0,0 z"
     id="path13"
     style="fill:white;stroke:black;stroke-width:0.87769997;stroke-miterlimit:2.61310005" /><path
     d="m 247.359,190.121 c 0,31.108 -25.541,56.327 -57.055,56.327 -31.506,0 -57.049,-25.219 -57.049,-56.327 0,-31.111 25.543,-56.333 57.049,-56.333 31.514,0 57.055,25.221 57.055,56.333 l 0,0 z"
     id="path9"
     style="fill-rule:evenodd" /><path
     d="m 190.305,126.382 c -35.646,0 -64.549,28.535 -64.549,63.738 0,35.198 28.902,63.737 64.549,63.737 35.654,0 64.557,-28.539 64.557,-63.737 -0.001,-35.203 -28.903,-63.738 -64.557,-63.738 l 0,0 0,0 z m 0,123.575 c -33.469,0 -60.604,-26.793 -60.604,-59.836 0,-33.049 27.135,-59.84 60.604,-59.84 33.479,0 60.604,26.791 60.604,59.84 -0.001,33.043 -27.126,59.836 -60.604,59.836 l 0,0 z"
     id="path11"
     style="fill-rule:evenodd" /><polygon
     points="231.57,174.733 231.57,174.733 239.201,174.733 239.201,206.469 231.57,206.469 "
     id="polygon15"
     style="fill:white;fill-rule:evenodd" /><polygon
     points="182.508,174.733 182.508,174.733 190.137,174.733 190.137,206.469 182.508,206.469 "
     id="polygon17"
     style="fill:white;fill-rule:evenodd" /><polygon
     points="196.896,174.733 196.896,206.469 204.092,206.469 204.092,187.221 218.047,206.469 225.246,206.469 225.246,174.733 218.047,174.733 218.047,174.733 218.047,193.986 204.092,174.733 "
     id="polygon19"
     style="fill:white;fill-rule:evenodd" /><polygon
     points="175.396,174.733 166.249,174.733 166.249,174.733 157.871,194.539 149.494,174.733 140.779,174.733 140.779,206.469 147.978,206.469 147.978,188.497 155.43,206.41 155.454,206.469 160.001,206.469 160.026,206.414 168.198,186.766 168.198,206.469 175.396,206.469 "
     id="polygon21"
     style="fill:white;fill-rule:evenodd" /><path
     d="m 25.357,166.144 h 95.08 c -1.453,4.133 -2.526,8.433 -3.215,12.864 h -0.026 c 0.381,-3.351 0.654,-6.657 1.153,-9.744 l -92.992,-3.12 0,0 z"
     id="path23"
     style="fill-rule:evenodd" /><path
     d="m 117.392,202.27 c -0.678,-3.961 -1.113,-7.996 -1.113,-12.149 0,-0.068 0.01,-0.129 0.01,-0.197 H 46.932 c 1.005,1.019 68.388,3.249 68.388,3.319 0,3.064 1.141,6.068 2.072,9.027 l 0,0 z"
     id="path25"
     style="fill-rule:evenodd" /><path
     d="m 126.278,226.959 h 0.166 c -2.409,-4.059 -4.419,-8.357 -6.007,-12.865 H 73.075 c 1.24,1.041 47.21,3.121 47.21,3.121 1.609,3.435 3.922,6.646 5.993,9.744 l 0,0 z"
     id="path27"
     style="fill-rule:evenodd" /><path
     d="m 354.871,166.144 h -94.695 c 1.457,4.133 2.529,8.433 3.219,12.864 h 2.463 c -0.662,-3.323 -1.48,-6.596 -2.584,-9.744 -10e-4,0 90.773,-2.132 91.597,-3.12 l 0,0 z"
     id="path29"
     style="fill-rule:evenodd" /><path
     d="m 267.422,193.045 c 0,0 64.867,-2.103 65.869,-3.122 h -68.967 c 0,0.068 0.016,0.129 0.016,0.197 0,4.331 -0.461,8.543 -1.189,12.668 h 3.527 c 0.434,-3.129 0.752,-6.297 0.752,-9.547 0,-0.069 -0.008,-0.13 -0.008,-0.196 l 0,0 z"
     id="path31"
     style="fill-rule:evenodd" /><path
     d="m 307.158,214.094 h -46.982 c -1.584,4.508 -3.602,8.807 -6.004,12.865 h 4.744 c 1.65,-3.137 3.162,-6.359 4.357,-9.744 0,0 42.641,-2.08 43.885,-3.121 l 0,0 z"
     id="path33"
     style="fill-rule:evenodd" /></g>
</svg>