<?xml version="1.0" encoding="UTF-8" ?>
<!DOCTYPE svg PUBLIC "-//W3C//DTD SVG 1.1//EN" "http://www.w3.org/Graphics/SVG/1.1/DTD/svg11.dtd">
<svg width="250pt" height="250pt" viewBox="0 0 250 250" version="1.1" xmlns="http://www.w3.org/2000/svg">
<path fill="#ffffff" d=" M 0.00 0.00 L 250.00 0.00 L 250.00 99.29 C 238.96 102.53 227.34 103.84 215.85 103.99 C 211.63 104.01 207.42 104.12 203.20 104.20 C 199.27 104.03 195.33 104.11 191.40 103.85 C 185.98 103.05 180.49 102.75 175.07 101.90 C 173.15 101.61 171.23 101.31 169.31 101.03 C 166.87 100.69 164.44 100.29 161.99 100.00 C 159.04 99.81 156.24 100.82 153.48 101.71 C 153.09 101.80 152.31 102.00 151.92 102.10 L 152.02 102.66 L 152.18 104.17 C 148.26 102.47 146.04 98.51 142.22 96.64 C 134.88 91.98 125.60 89.68 117.14 92.43 C 110.81 93.91 105.59 98.01 101.05 102.47 C 96.14 105.31 94.52 111.09 92.38 115.96 C 92.30 115.64 92.14 115.01 92.06 114.69 C 92.08 113.94 92.12 112.44 92.14 111.70 L 91.63 111.67 C 88.93 111.50 86.23 111.52 83.54 111.73 C 83.22 111.77 82.58 111.83 82.27 111.86 C 72.84 112.60 63.49 114.22 54.02 114.30 C 48.05 114.50 42.06 113.98 36.10 114.51 C 27.16 113.25 17.93 112.28 9.82 107.99 C 19.33 117.51 33.05 121.13 46.07 122.39 C 56.70 123.60 67.45 123.14 78.01 121.53 C 78.34 121.90 78.99 122.63 79.32 123.00 C 70.94 124.80 62.34 124.64 53.82 124.70 C 51.70 124.66 49.58 124.66 47.46 124.56 C 42.86 124.19 38.32 123.26 33.76 122.58 C 31.30 121.88 28.90 120.98 26.47 120.18 C 32.59 127.31 42.13 130.01 51.01 131.76 C 60.57 133.41 70.27 132.65 79.86 131.93 C 77.86 134.18 74.73 134.06 71.97 134.25 C 65.16 134.64 58.33 134.02 51.51 134.26 C 50.29 133.74 49.02 133.32 47.76 132.90 C 53.46 138.43 61.27 141.06 69.00 142.04 C 76.36 143.14 83.86 142.62 91.17 141.43 L 90.34 139.99 L 89.85 139.14 C 90.38 139.14 91.43 139.16 91.96 139.16 C 93.44 143.10 94.93 147.09 97.50 150.47 C 100.16 154.54 104.17 157.35 107.86 160.39 C 108.05 159.96 108.43 159.08 108.62 158.64 L 108.22 158.31 C 110.99 159.45 113.71 160.75 116.06 162.64 C 115.06 162.51 113.06 162.26 112.06 162.13 C 122.60 166.63 135.18 165.15 144.41 158.38 C 144.71 158.19 145.01 158.00 145.30 157.80 C 151.54 153.24 155.56 146.32 158.04 139.12 C 158.59 139.12 159.68 139.12 160.23 139.12 L 159.74 140.01 L 158.95 141.45 C 169.50 143.20 180.58 143.26 190.81 139.81 C 195.03 138.26 199.21 136.18 202.32 132.84 C 201.04 133.29 199.77 133.77 198.54 134.33 C 188.98 133.82 179.21 135.46 169.82 132.95 L 169.89 131.25 C 179.25 132.35 188.74 132.93 198.13 131.73 C 198.95 131.67 199.76 131.58 200.59 131.48 C 209.17 129.75 217.89 126.63 224.02 120.10 C 221.48 120.97 218.96 121.94 216.38 122.67 C 213.92 123.10 211.46 123.44 209.00 123.79 C 206.31 124.16 203.61 124.46 200.90 124.58 C 199.05 124.66 197.19 124.70 195.34 124.76 C 186.92 124.45 178.35 125.17 170.14 122.78 L 170.07 121.08 C 173.85 121.30 177.62 121.73 181.35 122.37 C 192.16 123.92 203.21 122.83 213.92 120.95 C 223.48 118.82 233.44 115.30 240.23 107.90 C 232.18 112.35 222.86 113.42 213.86 114.36 C 213.46 114.39 212.67 114.43 212.27 114.46 C 204.17 114.10 196.06 114.60 187.98 113.92 C 181.54 113.55 175.19 112.42 168.77 111.91 C 167.70 111.79 166.63 111.69 165.55 111.62 C 163.18 111.52 160.80 111.54 158.43 111.65 L 157.88 111.68 C 157.57 113.55 158.49 115.30 159.36 116.88 C 156.68 115.58 156.47 112.32 155.50 109.86 C 158.38 109.69 161.27 109.52 164.16 109.59 C 170.78 110.12 177.33 111.32 183.95 111.92 C 198.65 113.28 213.62 113.33 228.11 110.26 C 236.00 108.63 243.62 105.37 249.87 100.23 L 250.00 101.23 L 250.00 250.00 L 0.00 250.00 L 0.00 99.39 C 3.72 103.89 9.35 106.16 14.65 108.24 C 30.19 113.16 46.81 113.40 62.93 112.19 C 73.28 111.55 83.47 109.01 93.88 109.49 C 95.39 107.07 96.88 104.65 98.34 102.21 C 97.91 102.08 97.04 101.84 96.61 101.72 C 91.62 99.17 86.14 100.32 80.90 101.19 C 79.32 101.39 77.74 101.58 76.17 101.78 C 70.37 102.55 64.55 103.15 58.74 103.80 C 56.26 104.01 53.78 104.09 51.30 104.11 C 47.45 104.11 43.61 104.14 39.77 104.14 C 37.97 104.07 36.17 104.01 34.37 104.00 C 22.82 103.79 11.04 102.67 0.00 99.10 L 0.00 0.00 Z" />
<path fill="#a2a7ab" d=" M 117.14 92.43 C 125.60 89.68 134.88 91.98 142.22 96.64 C 141.64 96.98 140.49 97.66 139.92 98.00 C 139.15 97.51 138.37 97.04 137.58 96.58 C 128.34 92.12 116.82 93.35 108.53 99.33 C 102.10 103.58 97.95 110.42 95.58 117.62 L 94.57 117.65 C 94.41 117.22 94.08 116.37 93.92 115.94 C 94.73 110.79 98.65 106.92 101.05 102.47 C 105.59 98.01 110.81 93.91 117.14 92.43 Z" />
<path fill="#ccced0" d=" M 108.53 99.33 C 116.82 93.35 128.34 92.12 137.58 96.58 C 137.92 98.28 138.19 99.99 138.37 101.71 C 137.67 101.25 136.97 100.80 136.27 100.34 C 136.02 101.48 135.77 102.62 135.52 103.75 C 135.17 102.40 134.82 101.04 134.48 99.70 C 133.53 105.56 134.21 111.52 134.00 117.43 C 135.60 114.89 137.47 112.54 139.54 110.38 C 139.98 110.74 140.86 111.47 141.30 111.83 C 139.84 113.58 138.40 115.34 137.03 117.15 C 138.87 116.46 140.69 115.71 142.50 114.94 C 142.36 115.60 142.22 116.25 142.08 116.90 C 143.82 116.75 145.56 116.58 147.31 116.53 C 149.56 116.54 151.80 116.65 154.04 116.72 C 153.13 111.85 150.45 107.59 147.18 103.96 C 145.00 101.69 142.53 99.73 139.92 98.00 C 140.49 97.66 141.64 96.98 142.22 96.64 C 146.04 98.51 148.26 102.47 152.18 104.17 L 152.02 102.66 C 153.49 104.82 155.00 106.96 156.40 109.17 C 158.98 109.29 161.57 109.40 164.16 109.59 C 161.27 109.52 158.38 109.69 155.50 109.86 C 156.47 112.32 156.68 115.58 159.36 116.88 L 159.79 116.89 C 161.51 116.70 163.66 117.24 164.99 115.81 C 165.54 114.49 165.42 113.02 165.55 111.62 C 166.63 111.69 167.70 111.79 168.77 111.91 C 170.35 112.53 171.90 113.23 173.45 113.92 C 172.72 115.29 172.00 116.67 171.28 118.05 C 171.42 118.68 171.70 119.92 171.83 120.54 C 171.41 120.50 170.56 120.41 170.13 120.36 C 169.85 119.15 169.58 117.93 169.31 116.72 C 169.64 123.56 169.91 130.47 168.77 137.25 C 168.32 136.85 167.43 136.04 166.98 135.64 C 166.86 131.41 166.89 127.17 166.94 122.94 C 167.02 122.25 167.17 120.86 167.24 120.17 C 167.53 119.61 168.11 118.48 168.40 117.91 C 158.59 117.65 148.77 117.94 138.96 117.59 C 136.58 117.79 133.29 117.06 132.14 119.79 C 132.13 114.17 131.63 108.52 132.31 102.92 C 132.53 102.38 132.96 101.32 133.17 100.78 C 127.71 100.55 122.24 100.54 116.79 100.83 C 115.96 106.50 116.50 112.24 115.96 117.93 C 115.40 116.88 114.85 115.84 114.30 114.80 C 114.51 114.27 114.94 113.20 115.15 112.67 C 114.43 111.18 113.57 109.76 112.62 108.40 C 113.33 108.58 114.75 108.94 115.46 109.11 C 115.20 107.26 114.94 105.42 114.69 103.57 C 109.30 106.55 104.91 111.20 102.61 116.95 C 100.26 117.15 97.93 117.49 95.58 117.62 C 97.95 110.42 102.10 103.58 108.53 99.33 Z" />
<path fill="#dde0e2" d=" M 137.58 96.58 C 138.37 97.04 139.15 97.51 139.92 98.00 C 142.53 99.73 145.00 101.69 147.18 103.96 C 145.64 105.61 143.99 107.14 142.23 108.54 C 140.20 106.66 137.89 105.15 135.52 103.75 C 135.77 102.62 136.02 101.48 136.27 100.34 C 136.97 100.80 137.67 101.25 138.37 101.71 C 138.19 99.99 137.92 98.28 137.58 96.58 Z" />
<path fill="#8f9295" d=" M 0.00 99.10 C 11.04 102.67 22.82 103.79 34.37 104.00 C 35.70 105.77 35.74 107.98 35.75 110.10 C 37.65 110.42 39.56 110.73 41.49 110.92 C 44.32 111.03 47.16 111.01 50.00 111.03 C 54.74 111.08 59.50 111.07 64.22 110.55 C 68.67 110.14 73.10 109.60 77.52 108.96 C 79.65 108.65 81.77 108.34 83.91 108.15 C 86.85 107.94 89.79 107.88 92.73 107.77 C 94.00 105.74 95.26 103.69 96.61 101.72 C 97.04 101.84 97.91 102.08 98.34 102.21 C 96.88 104.65 95.39 107.07 93.88 109.49 C 83.47 109.01 73.28 111.55 62.93 112.19 C 46.81 113.40 30.19 113.16 14.65 108.24 C 9.35 106.16 3.72 103.89 0.00 99.39 L 0.00 99.10 Z" />
<path fill="#8f9295" d=" M 215.85 103.99 C 227.34 103.84 238.96 102.53 250.00 99.29 L 250.00 101.23 L 249.87 100.23 C 243.62 105.37 236.00 108.63 228.11 110.26 C 213.62 113.33 198.65 113.28 183.95 111.92 C 177.33 111.32 170.78 110.12 164.16 109.59 C 161.57 109.40 158.98 109.29 156.40 109.17 C 155.00 106.96 153.49 104.82 152.02 102.66 L 151.92 102.10 C 152.31 102.00 153.09 101.80 153.48 101.71 C 154.81 103.69 156.03 105.74 157.27 107.78 C 159.01 107.84 160.75 107.89 162.49 107.94 C 163.34 107.97 165.03 108.02 165.88 108.05 C 168.28 108.27 170.66 108.65 173.04 109.00 C 177.29 109.62 181.54 110.15 185.82 110.55 C 191.09 111.14 196.39 111.03 201.69 111.10 C 205.86 111.09 210.03 110.81 214.18 110.39 C 214.38 108.21 213.63 105.36 215.85 103.99 Z" />
<path fill="#b2b5b9" d=" M 80.90 101.19 C 86.14 100.32 91.62 99.17 96.61 101.72 C 95.26 103.69 94.00 105.74 92.73 107.77 C 89.79 107.88 86.85 107.94 83.91 108.15 C 83.36 106.17 82.81 104.20 82.27 102.23 C 81.93 101.97 81.24 101.45 80.90 101.19 Z" />
<path fill="#949aa8" d=" M 134.00 117.43 C 134.21 111.52 133.53 105.56 134.48 99.70 C 134.82 101.04 135.17 102.40 135.52 103.75 C 135.84 105.02 136.17 106.28 136.51 107.54 C 135.98 108.87 135.45 110.20 134.91 111.53 C 136.20 110.33 137.47 109.11 138.88 108.04 C 139.35 108.73 139.61 109.53 139.54 110.38 C 137.47 112.54 135.60 114.89 134.00 117.43 Z" />
<path fill="#adb0b5" d=" M 153.48 101.71 C 156.24 100.82 159.04 99.81 161.99 100.00 C 162.35 100.32 163.08 100.95 163.44 101.27 C 163.10 103.49 162.78 105.71 162.49 107.94 C 160.75 107.89 159.01 107.84 157.27 107.78 C 156.03 105.74 154.81 103.69 153.48 101.71 Z" />
<path fill="#c2c3c4" d=" M 161.99 100.00 C 164.44 100.29 166.87 100.69 169.31 101.03 C 169.06 103.80 169.14 107.16 165.88 108.05 C 165.03 108.02 163.34 107.97 162.49 107.94 C 162.78 105.71 163.10 103.49 163.44 101.27 C 163.08 100.95 162.35 100.32 161.99 100.00 Z" />
<path fill="#ccced0" d=" M 76.17 101.78 C 77.74 101.58 79.32 101.39 80.90 101.19 C 81.24 101.45 81.93 101.97 82.27 102.23 C 82.81 104.20 83.36 106.17 83.91 108.15 C 81.77 108.34 79.65 108.65 77.52 108.96 C 77.24 106.54 76.76 104.14 76.17 101.78 Z" />
<path fill="#e2e3e1" d=" M 116.79 100.83 C 122.24 100.54 127.71 100.55 133.17 100.78 C 132.96 101.32 132.53 102.38 132.31 102.92 C 129.65 102.80 126.98 102.72 124.31 102.73 C 122.16 102.74 120.01 102.80 117.86 102.85 C 117.78 108.50 117.80 114.15 117.73 119.81 C 115.93 119.91 114.13 120.01 112.33 120.12 C 102.61 119.92 92.89 120.21 83.17 120.11 C 83.13 122.16 83.08 124.21 82.98 126.26 C 82.76 129.38 82.85 132.51 83.07 135.63 C 94.58 135.45 106.10 135.66 117.62 135.81 C 117.63 141.45 117.55 147.09 117.51 152.74 L 118.03 152.74 C 122.77 152.79 127.52 152.81 132.26 152.88 C 132.24 147.11 132.23 141.34 132.27 135.57 C 143.84 135.61 155.41 135.50 166.98 135.64 C 167.43 136.04 168.32 136.85 168.77 137.25 C 157.25 137.09 145.73 137.35 134.21 137.11 C 134.69 142.90 134.36 148.70 134.54 154.50 C 128.36 154.45 122.18 154.47 116.01 154.44 C 115.74 148.89 115.64 143.32 115.71 137.76 L 115.86 137.10 C 104.34 137.34 92.80 137.14 81.27 137.20 C 81.90 131.49 80.47 125.84 80.63 120.13 C 81.04 119.61 81.86 118.57 82.27 118.05 C 86.37 117.91 90.47 117.77 94.57 117.65 L 95.58 117.62 C 97.93 117.49 100.26 117.15 102.61 116.95 C 104.56 116.92 106.51 116.99 108.46 117.05 C 108.41 116.47 108.31 115.31 108.26 114.72 C 109.63 115.94 111.34 116.60 113.12 116.95 C 111.78 115.18 110.33 113.50 108.87 111.84 C 109.33 111.48 110.24 110.75 110.70 110.39 C 111.94 111.82 113.17 113.27 114.30 114.80 C 114.85 115.84 115.40 116.88 115.96 117.93 C 116.50 112.24 115.96 106.50 116.79 100.83 Z" />
<path fill="#cfd1d2" d=" M 169.31 101.03 C 171.23 101.31 173.15 101.61 175.07 101.90 C 174.40 104.27 173.72 106.64 173.04 109.00 C 170.66 108.65 168.28 108.27 165.88 108.05 C 169.14 107.16 169.06 103.80 169.31 101.03 Z" />
<path fill="#dde0e2" d=" M 58.74 103.80 C 64.55 103.15 70.37 102.55 76.17 101.78 C 76.76 104.14 77.24 106.54 77.52 108.96 C 73.10 109.60 68.67 110.14 64.22 110.55 C 62.29 110.40 60.37 110.19 58.45 109.98 C 58.54 107.92 58.63 105.86 58.74 103.80 Z" />
<path fill="#dde0e2" d=" M 175.07 101.90 C 180.49 102.75 185.98 103.05 191.40 103.85 C 191.49 105.90 191.57 107.95 191.64 109.99 C 189.70 110.20 187.76 110.41 185.82 110.55 C 181.54 110.15 177.29 109.62 173.04 109.00 C 173.72 106.64 174.40 104.27 175.07 101.90 Z" />
<path fill="#ccced0" d=" M 92.38 115.96 C 94.52 111.09 96.14 105.31 101.05 102.47 C 98.65 106.92 94.73 110.79 93.92 115.94 C 94.08 116.37 94.41 117.22 94.57 117.65 C 90.47 117.77 86.37 117.91 82.27 118.05 C 81.86 118.57 81.04 119.61 80.63 120.13 C 80.64 119.36 80.65 117.82 80.66 117.05 C 80.23 117.92 79.79 118.79 79.36 119.67 C 77.68 118.00 76.83 115.89 76.91 113.53 C 78.69 112.96 80.47 112.37 82.27 111.86 C 82.58 111.83 83.22 111.77 83.54 111.73 C 83.71 113.44 83.88 115.15 84.04 116.87 C 86.01 116.82 87.98 116.76 89.96 116.72 L 90.31 116.72 C 90.75 116.21 91.62 115.20 92.06 114.69 C 92.14 115.01 92.30 115.64 92.38 115.96 Z" />
<path fill="#848eb0" d=" M 117.86 102.85 C 120.01 102.80 122.16 102.74 124.31 102.73 C 124.37 103.58 124.43 104.43 124.49 105.28 C 123.90 106.04 123.31 106.81 122.73 107.58 C 122.91 107.89 123.26 108.51 123.44 108.83 C 122.58 110.73 121.78 112.67 121.10 114.65 C 120.38 114.55 119.66 114.45 118.94 114.35 C 118.94 116.57 118.94 118.80 118.96 121.03 C 117.56 121.13 116.15 121.27 114.75 121.40 C 114.76 122.99 114.76 124.57 114.75 126.16 C 113.70 126.16 111.61 126.17 110.57 126.17 C 110.32 124.54 109.84 122.95 109.30 121.39 C 110.30 120.96 111.31 120.52 112.33 120.12 C 114.13 120.01 115.93 119.91 117.73 119.81 C 117.80 114.15 117.78 108.50 117.86 102.85 Z" />
<path fill="#707ca4" d=" M 124.31 102.73 C 126.98 102.72 129.65 102.80 132.31 102.92 C 131.63 108.52 132.13 114.17 132.14 119.79 C 133.79 119.92 135.45 120.02 137.12 120.08 C 136.36 120.58 135.62 121.07 134.87 121.57 C 132.94 121.41 130.69 120.58 129.05 122.03 C 126.83 123.67 127.02 126.71 126.75 129.15 C 126.56 127.87 126.31 126.59 126.07 125.32 C 125.36 125.30 123.95 125.26 123.24 125.24 C 122.63 123.13 121.39 121.13 118.96 121.03 C 118.94 118.80 118.94 116.57 118.94 114.35 C 119.66 114.45 120.38 114.55 121.10 114.65 C 121.78 112.67 122.58 110.73 123.44 108.83 C 123.26 108.51 122.91 107.89 122.73 107.58 C 123.31 106.81 123.90 106.04 124.49 105.28 C 124.43 104.43 124.37 103.58 124.31 102.73 Z" />
<path fill="#a0a3a6" d=" M 34.37 104.00 C 36.17 104.01 37.97 104.07 39.77 104.14 C 40.69 104.45 41.61 104.77 42.52 105.10 C 42.17 107.04 41.82 108.98 41.49 110.92 C 39.56 110.73 37.65 110.42 35.75 110.10 C 35.74 107.98 35.70 105.77 34.37 104.00 Z" />
<path fill="#babcbd" d=" M 39.77 104.14 C 43.61 104.14 47.45 104.11 51.30 104.11 C 51.45 105.69 51.61 107.27 51.76 108.86 C 51.17 109.58 50.59 110.30 50.00 111.03 C 47.16 111.01 44.32 111.03 41.49 110.92 C 41.82 108.98 42.17 107.04 42.52 105.10 C 41.61 104.77 40.69 104.45 39.77 104.14 Z" />
<path fill="#cfd1d2" d=" M 51.30 104.11 C 53.78 104.09 56.26 104.01 58.74 103.80 C 58.63 105.86 58.54 107.92 58.45 109.98 C 60.37 110.19 62.29 110.40 64.22 110.55 C 59.50 111.07 54.74 111.08 50.00 111.03 C 50.59 110.30 51.17 109.58 51.76 108.86 C 51.61 107.27 51.45 105.69 51.30 104.11 Z" />
<path fill="#8c95ac" d=" M 102.61 116.95 C 104.91 111.20 109.30 106.55 114.69 103.57 C 114.94 105.42 115.20 107.26 115.46 109.11 C 114.75 108.94 113.33 108.58 112.62 108.40 C 111.80 108.51 110.98 108.65 110.18 108.83 C 110.31 109.22 110.57 110.00 110.70 110.39 C 110.24 110.75 109.33 111.48 108.87 111.84 C 108.43 112.18 107.55 112.87 107.12 113.22 C 107.40 113.60 107.97 114.35 108.26 114.72 C 108.31 115.31 108.41 116.47 108.46 117.05 C 106.51 116.99 104.56 116.92 102.61 116.95 Z" />
<path fill="#b6bbcb" d=" M 135.52 103.75 C 137.89 105.15 140.20 106.66 142.23 108.54 C 144.20 111.02 145.78 113.77 147.31 116.53 C 145.56 116.58 143.82 116.75 142.08 116.90 C 142.22 116.25 142.36 115.60 142.50 114.94 C 142.60 114.48 142.80 113.55 142.89 113.08 C 142.50 112.77 141.70 112.14 141.30 111.83 C 140.86 111.47 139.98 110.74 139.54 110.38 C 139.61 109.53 139.35 108.73 138.88 108.04 C 137.47 109.11 136.20 110.33 134.91 111.53 C 135.45 110.20 135.98 108.87 136.51 107.54 C 136.17 106.28 135.84 105.02 135.52 103.75 Z" />
<path fill="#f0f0f0" d=" M 142.23 108.54 C 143.99 107.14 145.64 105.61 147.18 103.96 C 150.45 107.59 153.13 111.85 154.04 116.72 C 151.80 116.65 149.56 116.54 147.31 116.53 C 145.78 113.77 144.20 111.02 142.23 108.54 Z" />
<path fill="#ccced0" d=" M 191.40 103.85 C 195.33 104.11 199.27 104.03 203.20 104.20 C 202.17 104.60 201.15 105.01 200.13 105.44 C 200.34 107.40 200.74 109.35 201.69 111.10 C 196.39 111.03 191.09 111.14 185.82 110.55 C 187.76 110.41 189.70 110.20 191.64 109.99 C 191.57 107.95 191.49 105.90 191.40 103.85 Z" />
<path fill="#adb0b4" d=" M 203.20 104.20 C 207.42 104.12 211.63 104.01 215.85 103.99 C 213.63 105.36 214.38 108.21 214.18 110.39 C 210.03 110.81 205.86 111.09 201.69 111.10 C 200.74 109.35 200.34 107.40 200.13 105.44 C 201.15 105.01 202.17 104.60 203.20 104.20 Z" />
<path fill="#8f9295" d=" M 9.82 107.99 C 17.93 112.28 27.16 113.25 36.10 114.51 L 36.37 114.72 C 35.92 116.00 35.49 117.28 35.07 118.56 C 37.09 119.08 39.12 119.61 41.17 120.04 C 43.96 120.59 46.78 120.86 49.61 121.05 C 51.27 121.14 52.94 121.21 54.61 121.23 C 62.88 121.59 71.20 121.16 79.36 119.67 C 79.79 118.79 80.23 117.92 80.66 117.05 C 80.65 117.82 80.64 119.36 80.63 120.13 C 80.47 125.84 81.90 131.49 81.27 137.20 C 80.97 137.54 80.36 138.21 80.05 138.55 C 79.94 136.31 79.90 134.07 80.02 131.82 L 79.86 131.93 C 70.27 132.65 60.57 133.41 51.01 131.76 C 42.13 130.01 32.59 127.31 26.47 120.18 C 28.90 120.98 31.30 121.88 33.76 122.58 C 36.44 126.72 41.62 127.85 46.04 129.15 C 49.98 130.05 53.97 130.74 58.02 130.95 C 65.24 131.07 72.55 131.39 79.67 129.88 C 79.69 126.99 79.80 124.10 79.99 121.22 C 79.49 121.30 78.51 121.45 78.01 121.53 C 67.45 123.14 56.70 123.60 46.07 122.39 C 33.05 121.13 19.33 117.51 9.82 107.99 Z" />
<path fill="#606f93" d=" M 110.18 108.83 C 110.98 108.65 111.80 108.51 112.62 108.40 C 113.57 109.76 114.43 111.18 115.15 112.67 C 114.94 113.20 114.51 114.27 114.30 114.80 C 113.17 113.27 111.94 111.82 110.70 110.39 C 110.57 110.00 110.31 109.22 110.18 108.83 Z" />
<path fill="#8f9295" d=" M 213.86 114.36 C 222.86 113.42 232.18 112.35 240.23 107.90 C 233.44 115.30 223.48 118.82 213.92 120.95 C 203.21 122.83 192.16 123.92 181.35 122.37 C 181.82 122.15 182.77 121.71 183.24 121.49 C 187.28 121.20 191.33 121.37 195.37 121.26 C 197.16 121.25 198.94 121.17 200.72 121.06 C 203.46 120.87 206.20 120.52 208.90 119.98 C 211.13 119.54 213.35 119.05 215.59 118.58 C 215.01 117.18 214.43 115.77 213.86 114.36 Z" />
<path fill="#dde0e2" d=" M 54.02 114.30 C 63.49 114.22 72.84 112.60 82.27 111.86 C 80.47 112.37 78.69 112.96 76.91 113.53 C 76.83 115.89 77.68 118.00 79.36 119.67 C 71.20 121.16 62.88 121.59 54.61 121.23 C 55.91 120.69 57.18 120.12 58.46 119.54 C 58.47 118.18 58.48 116.82 58.50 115.46 C 55.11 115.11 51.71 114.91 48.30 114.91 C 46.29 114.89 44.27 114.86 42.26 114.81 C 40.29 114.77 38.33 114.76 36.37 114.72 L 36.10 114.51 C 42.06 113.98 48.05 114.50 54.02 114.30 Z" />
<path fill="#babcbd" d=" M 83.54 111.73 C 86.23 111.52 88.93 111.50 91.63 111.67 C 90.22 112.95 89.84 114.90 89.96 116.72 C 87.98 116.76 86.01 116.82 84.04 116.87 C 83.88 115.15 83.71 113.44 83.54 111.73 Z" />
<path fill="#8c8d8d" d=" M 91.63 111.67 L 92.14 111.70 C 92.12 112.44 92.08 113.94 92.06 114.69 C 91.62 115.20 90.75 116.21 90.31 116.72 L 89.96 116.72 C 89.84 114.90 90.22 112.95 91.63 111.67 Z" />
<path fill="#304874" d=" M 107.12 113.22 C 107.55 112.87 108.43 112.18 108.87 111.84 C 110.33 113.50 111.78 115.18 113.12 116.95 C 111.34 116.60 109.63 115.94 108.26 114.72 C 107.97 114.35 107.40 113.60 107.12 113.22 Z" />
<path fill="#9099b6" d=" M 141.30 111.83 C 141.70 112.14 142.50 112.77 142.89 113.08 C 142.80 113.55 142.60 114.48 142.50 114.94 C 140.69 115.71 138.87 116.46 137.03 117.15 C 138.40 115.34 139.84 113.58 141.30 111.83 Z" />
<path fill="#8f9092" d=" M 157.88 111.68 L 158.43 111.65 C 159.95 112.93 160.31 115.05 159.79 116.89 L 159.36 116.88 C 158.49 115.30 157.57 113.55 157.88 111.68 Z" />
<path fill="#b6b9bd" d=" M 158.43 111.65 C 160.80 111.54 163.18 111.52 165.55 111.62 C 165.42 113.02 165.54 114.49 164.99 115.81 C 163.66 117.24 161.51 116.70 159.79 116.89 C 160.31 115.05 159.95 112.93 158.43 111.65 Z" />
<path fill="#dde0e2" d=" M 168.77 111.91 C 175.19 112.42 181.54 113.55 187.98 113.92 C 196.06 114.60 204.17 114.10 212.27 114.46 C 211.39 114.52 209.65 114.66 208.78 114.72 C 206.40 114.89 204.02 114.94 201.64 114.97 C 198.53 114.99 195.43 115.10 192.33 115.24 C 192.01 116.67 191.69 118.10 191.38 119.54 C 192.70 120.12 194.03 120.71 195.37 121.26 C 191.33 121.37 187.28 121.20 183.24 121.49 C 179.40 121.76 175.64 120.81 171.83 120.54 C 171.70 119.92 171.42 118.68 171.28 118.05 C 172.00 116.67 172.72 115.29 173.45 113.92 C 171.90 113.23 170.35 112.53 168.77 111.91 Z" />
<path fill="#a6a9ad" d=" M 36.37 114.72 C 38.33 114.76 40.29 114.77 42.26 114.81 C 41.90 116.56 41.54 118.30 41.17 120.04 C 39.12 119.61 37.09 119.08 35.07 118.56 C 35.49 117.28 35.92 116.00 36.37 114.72 Z" />
<path fill="#b7bbbd" d=" M 42.26 114.81 C 44.27 114.86 46.29 114.89 48.30 114.91 C 48.80 116.94 49.26 118.98 49.61 121.05 C 46.78 120.86 43.96 120.59 41.17 120.04 C 41.54 118.30 41.90 116.56 42.26 114.81 Z" />
<path fill="#cccecf" d=" M 48.30 114.91 C 51.71 114.91 55.11 115.11 58.50 115.46 C 58.48 116.82 58.47 118.18 58.46 119.54 C 57.18 120.12 55.91 120.69 54.61 121.23 C 52.94 121.21 51.27 121.14 49.61 121.05 C 49.26 118.98 48.80 116.94 48.30 114.91 Z" />
<path fill="#45597e" d=" M 106.24 115.37 C 106.76 115.89 106.76 115.89 106.24 115.37 Z" />
<path fill="#ccced0" d=" M 192.33 115.24 C 195.43 115.10 198.53 114.99 201.64 114.97 C 201.33 117.00 201.02 119.03 200.72 121.06 C 198.94 121.17 197.16 121.25 195.37 121.26 C 194.03 120.71 192.70 120.12 191.38 119.54 C 191.69 118.10 192.01 116.67 192.33 115.24 Z" />
<path fill="#b7bbbd" d=" M 201.64 114.97 C 204.02 114.94 206.40 114.89 208.78 114.72 C 208.82 116.48 208.86 118.23 208.90 119.98 C 206.20 120.52 203.46 120.87 200.72 121.06 C 201.02 119.03 201.33 117.00 201.64 114.97 Z" />
<path fill="#a6a9ad" d=" M 208.78 114.72 C 209.65 114.66 211.39 114.52 212.27 114.46 C 212.67 114.43 213.46 114.39 213.86 114.36 C 214.43 115.77 215.01 117.18 215.59 118.58 C 213.35 119.05 211.13 119.54 208.90 119.98 C 208.86 118.23 208.82 116.48 208.78 114.72 Z" />
<path fill="#101011" d=" M 169.31 116.72 C 169.58 117.93 169.85 119.15 170.13 120.36 C 170.56 120.41 171.41 120.50 171.83 120.54 C 175.64 120.81 179.40 121.76 183.24 121.49 C 182.77 121.71 181.82 122.15 181.35 122.37 C 177.62 121.73 173.85 121.30 170.07 121.08 L 170.14 122.78 C 170.19 125.35 170.16 127.92 170.14 130.49 C 177.33 131.74 184.63 131.78 191.90 131.57 C 193.98 131.56 196.05 131.62 198.13 131.73 C 188.74 132.93 179.25 132.35 169.89 131.25 L 169.82 132.95 C 169.70 135.00 169.63 137.06 169.63 139.11 C 166.49 139.11 163.36 139.10 160.23 139.12 C 159.68 139.12 158.59 139.12 158.04 139.12 C 156.56 139.10 155.08 139.08 153.60 139.06 C 151.90 139.04 150.20 139.01 148.51 139.04 L 147.35 139.08 C 144.15 139.16 140.96 139.20 137.76 139.20 C 137.03 139.19 135.57 139.17 134.84 139.16 C 135.13 140.12 135.41 141.07 135.70 142.03 C 137.11 143.30 138.50 144.60 139.88 145.90 C 139.31 146.16 138.15 146.70 137.57 146.97 C 137.58 146.38 137.59 145.21 137.59 144.62 C 137.02 144.20 135.87 143.36 135.29 142.94 C 135.30 144.50 135.31 146.06 135.33 147.62 C 136.43 148.21 137.53 148.82 138.67 149.33 C 137.52 150.11 136.32 150.83 135.13 151.57 C 135.12 153.09 135.12 154.63 135.11 156.16 C 128.49 156.27 121.86 156.21 115.23 156.30 C 115.21 156.11 115.17 155.73 115.15 155.54 C 115.37 155.27 115.79 154.72 116.01 154.44 C 122.18 154.47 128.36 154.45 134.54 154.50 C 134.36 148.70 134.69 142.90 134.21 137.11 C 145.73 137.35 157.25 137.09 168.77 137.25 C 169.91 130.47 169.64 123.56 169.31 116.72 Z" />
<path fill="#dbdde2" d=" M 132.14 119.79 C 133.29 117.06 136.58 117.79 138.96 117.59 C 148.77 117.94 158.59 117.65 168.40 117.91 C 168.11 118.48 167.53 119.61 167.24 120.17 C 157.21 119.65 147.16 120.07 137.12 120.08 C 135.45 120.02 133.79 119.92 132.14 119.79 Z" />
<path fill="#959db9" d=" M 83.17 120.11 C 92.89 120.21 102.61 119.92 112.33 120.12 C 111.31 120.52 110.30 120.96 109.30 121.39 C 106.88 121.46 104.21 120.69 101.99 121.92 C 99.93 124.51 101.06 128.20 100.95 131.25 C 100.56 129.96 100.22 128.67 99.88 127.38 C 99.07 127.25 97.46 127.01 96.66 126.89 C 96.60 124.81 96.51 122.73 96.39 120.66 C 94.25 122.51 92.48 124.73 90.95 127.11 C 89.35 124.77 87.56 122.56 85.50 120.61 C 85.40 122.37 85.31 124.14 85.27 125.91 C 84.70 125.99 83.56 126.17 82.98 126.26 C 83.08 124.21 83.13 122.16 83.17 120.11 Z" />
<path fill="#4a5b86" d=" M 137.12 120.08 C 147.16 120.07 157.21 119.65 167.24 120.17 C 167.17 120.86 167.02 122.25 166.94 122.94 C 166.38 122.62 165.25 121.97 164.69 121.65 C 164.38 121.47 163.76 121.12 163.45 120.94 C 163.31 121.32 163.05 122.07 162.92 122.44 C 161.55 122.63 160.19 122.82 158.83 123.01 L 158.45 123.95 C 157.51 122.77 156.47 121.67 155.43 120.57 C 155.19 124.93 155.11 129.30 155.25 133.66 L 154.76 133.34 C 154.61 129.98 154.74 126.62 154.72 123.26 C 152.47 123.42 150.23 123.57 147.99 123.82 L 147.84 124.91 C 147.09 123.39 146.19 121.97 145.25 120.57 C 144.64 121.84 144.04 123.12 143.47 124.41 C 140.89 124.51 138.29 124.55 135.74 124.04 C 135.52 123.42 135.09 122.19 134.87 121.57 C 135.62 121.07 136.36 120.58 137.12 120.08 Z" />
<path fill="#88898a" d=" M 216.38 122.67 C 218.96 121.94 221.48 120.97 224.02 120.10 C 217.89 126.63 209.17 129.75 200.59 131.48 C 200.29 131.32 199.69 131.00 199.40 130.84 L 199.18 130.48 L 199.30 130.26 C 202.20 129.53 205.17 129.04 208.02 128.13 C 211.16 126.99 214.90 126.05 216.38 122.67 Z" />
<path fill="#dde0e2" d=" M 78.01 121.53 C 78.51 121.45 79.49 121.30 79.99 121.22 C 79.80 124.10 79.69 126.99 79.67 129.88 C 72.55 131.39 65.24 131.07 58.02 130.95 C 57.68 130.71 57.02 130.23 56.69 129.99 C 57.08 129.01 57.48 128.03 57.81 127.02 C 56.71 125.91 55.21 125.34 53.82 124.70 C 62.34 124.64 70.94 124.80 79.32 123.00 C 78.99 122.63 78.34 121.90 78.01 121.53 Z" />
<path fill="#ffffff" d=" M 85.50 120.61 C 87.56 122.56 89.35 124.77 90.95 127.11 C 92.48 124.73 94.25 122.51 96.39 120.66 C 96.51 122.73 96.60 124.81 96.66 126.89 C 96.45 129.46 97.40 132.54 95.48 134.65 C 95.15 131.39 95.01 128.11 94.73 124.84 C 93.48 126.40 92.23 127.97 90.99 129.54 C 89.63 127.97 88.26 126.40 86.86 124.86 C 86.76 127.89 86.72 130.93 86.73 133.96 C 86.36 133.96 85.62 133.95 85.25 133.94 C 85.25 131.26 85.23 128.58 85.27 125.91 C 85.31 124.14 85.40 122.37 85.50 120.61 Z" />
<path fill="#fbfbfc" d=" M 101.99 121.92 C 104.21 120.69 106.88 121.46 109.30 121.39 C 109.84 122.95 110.32 124.54 110.57 126.17 C 110.54 129.23 110.83 132.84 107.64 134.50 C 105.29 133.83 101.35 134.56 100.95 131.25 C 101.06 128.20 99.93 124.51 101.99 121.92 Z" />
<path fill="#fbfbfc" d=" M 114.75 121.40 C 116.15 121.27 117.56 121.13 118.96 121.03 C 121.39 121.13 122.63 123.13 123.24 125.24 C 122.54 126.62 121.77 127.96 120.99 129.30 C 121.96 131.06 122.92 132.83 123.79 134.64 C 120.66 133.47 119.98 129.53 116.73 128.55 C 116.50 130.68 116.29 132.83 116.02 134.96 C 114.18 132.38 114.85 129.12 114.75 126.16 C 114.76 124.57 114.76 122.99 114.75 121.40 Z" />
<path fill="#fbfbfc" d=" M 129.05 122.03 C 130.69 120.58 132.94 121.41 134.87 121.57 C 135.09 122.19 135.52 123.42 135.74 124.04 C 133.72 123.64 131.68 123.38 129.63 123.28 C 128.57 126.06 127.66 129.61 129.99 132.04 C 132.29 133.68 134.63 131.70 135.84 129.75 C 134.96 129.63 133.21 129.37 132.33 129.25 L 132.30 127.62 C 133.92 127.64 135.54 127.66 137.16 127.69 C 136.71 129.56 136.77 131.83 135.18 133.19 C 133.93 134.16 132.26 134.19 130.78 134.52 C 129.20 133.53 127.90 132.15 126.90 130.58 C 126.87 130.23 126.79 129.51 126.75 129.15 C 127.02 126.71 126.83 123.67 129.05 122.03 Z" />
<path fill="#fbfbfc" d=" M 145.25 120.57 C 146.19 121.97 147.09 123.39 147.84 124.91 C 149.07 128.16 150.55 131.31 151.56 134.64 C 150.48 133.78 149.46 132.86 148.50 131.87 C 146.52 131.81 144.54 131.81 142.57 131.87 C 141.62 132.88 140.59 133.80 139.49 134.64 C 140.58 131.14 142.03 127.77 143.47 124.41 C 144.04 123.12 144.64 121.84 145.25 120.57 Z" />
<path fill="#fbfbfc" d=" M 155.43 120.57 C 156.47 121.67 157.51 122.77 158.45 123.95 C 159.89 126.25 161.34 128.54 162.82 130.82 C 162.84 128.03 162.80 125.23 162.92 122.44 C 163.05 122.07 163.31 121.32 163.45 120.94 C 163.76 121.12 164.38 121.47 164.69 121.65 C 164.55 125.93 164.63 130.21 164.47 134.48 C 160.75 132.26 159.49 127.69 156.71 124.54 C 156.65 127.85 156.70 131.16 156.60 134.47 C 156.26 134.27 155.59 133.86 155.25 133.66 C 155.11 129.30 155.19 124.93 155.43 120.57 Z" />
<path fill="#032957" d=" M 164.69 121.65 C 165.25 121.97 166.38 122.62 166.94 122.94 C 166.89 127.17 166.86 131.41 166.98 135.64 C 155.41 135.50 143.84 135.61 132.27 135.57 C 131.90 135.30 131.15 134.78 130.78 134.52 C 132.26 134.19 133.93 134.16 135.18 133.19 C 136.77 131.83 136.71 129.56 137.16 127.69 C 135.54 127.66 133.92 127.64 132.30 127.62 L 132.33 129.25 C 133.21 129.37 134.96 129.63 135.84 129.75 C 134.63 131.70 132.29 133.68 129.99 132.04 C 127.66 129.61 128.57 126.06 129.63 123.28 C 131.68 123.38 133.72 123.64 135.74 124.04 C 138.29 124.55 140.89 124.51 143.47 124.41 C 142.03 127.77 140.58 131.14 139.49 134.64 C 140.59 133.80 141.62 132.88 142.57 131.87 C 144.54 131.81 146.52 131.81 148.50 131.87 C 149.46 132.86 150.48 133.78 151.56 134.64 C 150.55 131.31 149.07 128.16 147.84 124.91 L 147.99 123.82 C 150.23 123.57 152.47 123.42 154.72 123.26 C 154.74 126.62 154.61 129.98 154.76 133.34 L 155.25 133.66 C 155.59 133.86 156.26 134.27 156.60 134.47 C 156.70 131.16 156.65 127.85 156.71 124.54 C 159.49 127.69 160.75 132.26 164.47 134.48 C 164.63 130.21 164.55 125.93 164.69 121.65 Z" />
<path fill="#b2b5b8" d=" M 33.76 122.58 C 38.32 123.26 42.86 124.19 47.46 124.56 C 46.99 126.09 46.51 127.62 46.04 129.15 C 41.62 127.85 36.44 126.72 33.76 122.58 Z" />
<path fill="#959db9" d=" M 102.32 126.97 C 102.65 125.65 101.94 123.06 104.00 122.96 C 105.41 122.84 106.83 122.79 108.26 122.80 C 109.04 125.96 109.16 129.24 108.46 132.43 C 108.34 130.43 108.24 128.43 108.15 126.43 C 106.21 126.61 104.26 126.79 102.32 126.97 Z" />
<path fill="#68759d" d=" M 116.41 122.96 C 117.84 122.94 119.38 122.60 120.70 123.36 C 121.14 124.55 121.34 125.81 121.29 127.13 C 119.67 127.32 118.05 127.49 116.43 127.64 C 116.42 126.08 116.41 124.52 116.41 122.96 Z" />
<path fill="#001b4a" d=" M 158.83 123.01 C 160.19 122.82 161.55 122.63 162.92 122.44 C 162.80 125.23 162.84 128.03 162.82 130.82 C 161.34 128.54 159.89 126.25 158.45 123.95 L 158.83 123.01 Z" />
<path fill="#dde0e2" d=" M 170.14 122.78 C 178.35 125.17 186.92 124.45 195.34 124.76 C 194.04 125.26 192.75 125.80 191.46 126.35 C 191.61 128.09 191.75 129.82 191.90 131.57 C 184.63 131.78 177.33 131.74 170.14 130.49 C 170.16 127.92 170.19 125.35 170.14 122.78 Z" />
<path fill="#a6a9ad" d=" M 209.00 123.79 C 211.46 123.44 213.92 123.10 216.38 122.67 C 214.90 126.05 211.16 126.99 208.02 128.13 C 207.89 127.53 207.62 126.34 207.48 125.74 C 207.99 125.09 208.49 124.44 209.00 123.79 Z" />
<path fill="#001b4a" d=" M 142.93 130.16 C 143.65 128.01 144.53 125.91 145.61 123.90 C 146.50 125.97 147.35 128.06 148.14 130.17 C 146.40 130.18 144.66 130.18 142.93 130.16 Z" />
<path fill="#babcc5" d=" M 200.90 124.58 C 203.61 124.46 206.31 124.16 209.00 123.79 C 208.49 124.44 207.99 125.09 207.48 125.74 C 207.62 126.34 207.89 127.53 208.02 128.13 C 205.17 129.04 202.20 129.53 199.30 130.26 C 200.54 128.62 200.62 126.53 200.90 124.58 Z" />
<path fill="#c7c9cb" d=" M 47.46 124.56 C 49.58 124.66 51.70 124.66 53.82 124.70 C 55.21 125.34 56.71 125.91 57.81 127.02 C 57.48 128.03 57.08 129.01 56.69 129.99 C 57.02 130.23 57.68 130.71 58.02 130.95 C 53.97 130.74 49.98 130.05 46.04 129.15 C 46.51 127.62 46.99 126.09 47.46 124.56 Z" />
<path fill="#707ca4" d=" M 90.99 129.54 C 92.23 127.97 93.48 126.40 94.73 124.84 C 95.01 128.11 95.15 131.39 95.48 134.65 C 97.40 132.54 96.45 129.46 96.66 126.89 C 97.46 127.01 99.07 127.25 99.88 127.38 C 100.22 128.67 100.56 129.96 100.95 131.25 C 101.35 134.56 105.29 133.83 107.64 134.50 C 110.41 135.24 113.27 135.44 116.13 135.23 C 116.59 135.22 117.51 135.20 117.97 135.19 C 118.34 140.54 118.06 145.91 118.12 151.26 C 118.10 151.63 118.05 152.37 118.03 152.74 L 117.51 152.74 C 117.55 147.09 117.63 141.45 117.62 135.81 C 106.10 135.66 94.58 135.45 83.07 135.63 C 82.85 132.51 82.76 129.38 82.98 126.26 C 83.56 126.17 84.70 125.99 85.27 125.91 C 85.23 128.58 85.25 131.26 85.25 133.94 C 85.62 133.95 86.36 133.96 86.73 133.96 C 86.72 130.93 86.76 127.89 86.86 124.86 C 88.26 126.40 89.63 127.97 90.99 129.54 Z" />
<path fill="#304874" d=" M 123.24 125.24 C 123.95 125.26 125.36 125.30 126.07 125.32 C 126.31 126.59 126.56 127.87 126.75 129.15 C 126.79 129.51 126.87 130.23 126.90 130.58 C 127.46 135.37 124.22 139.21 122.31 143.29 C 120.49 145.71 118.61 148.18 118.12 151.26 C 118.06 145.91 118.34 140.54 117.97 135.19 C 117.51 135.20 116.59 135.22 116.13 135.23 L 116.02 134.96 C 116.29 132.83 116.50 130.68 116.73 128.55 C 119.98 129.53 120.66 133.47 123.79 134.64 C 122.92 132.83 121.96 131.06 120.99 129.30 C 121.77 127.96 122.54 126.62 123.24 125.24 Z" />
<path fill="#cfd1d2" d=" M 195.34 124.76 C 197.19 124.70 199.05 124.66 200.90 124.58 C 200.62 126.53 200.54 128.62 199.30 130.26 L 199.18 130.48 L 199.40 130.84 C 199.69 131.00 200.29 131.32 200.59 131.48 C 199.76 131.58 198.95 131.67 198.13 131.73 C 196.05 131.62 193.98 131.56 191.90 131.57 C 191.75 129.82 191.61 128.09 191.46 126.35 C 192.75 125.80 194.04 125.26 195.34 124.76 Z" />
<path fill="#68759d" d=" M 102.32 126.97 C 104.26 126.79 106.21 126.61 108.15 126.43 C 108.24 128.43 108.34 130.43 108.46 132.43 C 106.54 132.42 104.62 132.40 102.70 132.36 C 102.58 130.56 102.47 128.77 102.32 126.97 Z" />
<path fill="#54648c" d=" M 110.57 126.17 C 111.61 126.17 113.70 126.16 114.75 126.16 C 114.85 129.12 114.18 132.38 116.02 134.96 L 116.13 135.23 C 113.27 135.44 110.41 135.24 107.64 134.50 C 110.83 132.84 110.54 129.23 110.57 126.17 Z" />
<path fill="#123461" d=" M 122.31 143.29 C 124.22 139.21 127.46 135.37 126.90 130.58 C 127.90 132.15 129.20 133.53 130.78 134.52 C 131.15 134.78 131.90 135.30 132.27 135.57 C 132.23 141.34 132.24 147.11 132.26 152.88 C 127.52 152.81 122.77 152.79 118.03 152.74 C 118.05 152.37 118.10 151.63 118.12 151.26 C 118.61 148.18 120.49 145.71 122.31 143.29 Z" />
<path fill="#dde0e2" d=" M 79.86 131.93 L 80.02 131.82 C 79.90 134.07 79.94 136.31 80.05 138.55 L 80.05 139.10 C 83.32 139.11 86.58 139.09 89.85 139.14 L 90.34 139.99 C 77.30 141.64 62.72 142.35 51.51 134.26 C 58.33 134.02 65.16 134.64 71.97 134.25 C 74.73 134.06 77.86 134.18 79.86 131.93 Z" />
<path fill="#88898a" d=" M 47.76 132.90 C 49.02 133.32 50.29 133.74 51.51 134.26 C 62.72 142.35 77.30 141.64 90.34 139.99 L 91.17 141.43 C 83.86 142.62 76.36 143.14 69.00 142.04 C 61.27 141.06 53.46 138.43 47.76 132.90 Z" />
<path fill="#dde0e2" d=" M 169.82 132.95 C 179.21 135.46 188.98 133.82 198.54 134.33 C 187.31 142.37 172.77 141.60 159.74 140.01 L 160.23 139.12 C 163.36 139.10 166.49 139.11 169.63 139.11 C 169.63 137.06 169.70 135.00 169.82 132.95 Z" />
<path fill="#88898a" d=" M 198.54 134.33 C 199.77 133.77 201.04 133.29 202.32 132.84 C 199.21 136.18 195.03 138.26 190.81 139.81 C 180.58 143.26 169.50 143.20 158.95 141.45 L 159.74 140.01 C 172.77 141.60 187.31 142.37 198.54 134.33 Z" />
<path fill="#101011" d=" M 81.27 137.20 C 92.80 137.14 104.34 137.34 115.86 137.10 L 115.71 137.76 C 115.61 138.11 115.40 138.82 115.30 139.17 C 114.72 139.15 113.55 139.13 112.97 139.12 C 112.22 139.08 110.72 139.02 109.97 138.99 C 108.64 138.80 107.55 139.23 106.71 140.27 C 105.56 139.56 104.24 139.22 102.92 139.02 C 100.57 138.99 98.22 139.07 95.87 139.13 C 94.56 139.15 93.26 139.16 91.96 139.16 C 91.43 139.16 90.38 139.14 89.85 139.14 C 86.58 139.09 83.32 139.11 80.05 139.10 L 80.05 138.55 C 80.36 138.21 80.97 137.54 81.27 137.20 Z" />
<path fill="#7b8599" d=" M 115.30 139.17 C 115.40 138.82 115.61 138.11 115.71 137.76 C 115.64 143.32 115.74 148.89 116.01 154.44 C 115.79 154.72 115.37 155.27 115.15 155.54 C 114.95 154.17 114.70 152.82 114.56 151.45 C 114.58 149.90 114.00 149.66 112.83 150.75 C 111.78 150.03 110.75 149.30 109.73 148.55 C 107.79 146.85 106.04 144.94 104.44 142.92 C 103.93 141.62 103.42 140.32 102.92 139.02 C 104.24 139.22 105.56 139.56 106.71 140.27 L 107.03 140.89 C 107.54 141.91 108.09 142.92 108.76 143.84 C 109.13 144.20 109.88 144.93 110.25 145.29 C 111.12 146.27 111.91 147.31 112.71 148.35 C 113.29 148.44 114.46 148.62 115.04 148.71 C 114.24 147.77 113.43 146.84 112.65 145.89 C 113.84 144.40 114.45 142.60 114.83 140.76 C 114.95 140.36 115.18 139.57 115.30 139.17 Z" />
<path fill="#a0a3a9" d=" M 91.96 139.16 C 93.26 139.16 94.56 139.15 95.87 139.13 C 97.52 143.68 99.83 148.03 103.27 151.50 C 104.76 153.09 106.33 154.61 108.04 155.98 C 111.67 158.50 115.78 160.31 120.12 161.15 L 119.66 163.00 C 118.60 161.83 117.40 161.71 116.06 162.64 C 113.71 160.75 110.99 159.45 108.22 158.31 L 108.62 158.64 C 108.43 159.08 108.05 159.96 107.86 160.39 C 104.17 157.35 100.16 154.54 97.50 150.47 C 94.93 147.09 93.44 143.10 91.96 139.16 Z" />
<path fill="#a6a9ad" d=" M 95.87 139.13 C 98.22 139.07 100.57 138.99 102.92 139.02 C 103.42 140.32 103.93 141.62 104.44 142.92 C 105.20 145.84 105.64 149.17 103.27 151.50 C 99.83 148.03 97.52 143.68 95.87 139.13 Z" />
<path fill="#babcc5" d=" M 106.71 140.27 C 107.55 139.23 108.64 138.80 109.97 138.99 C 109.58 140.19 108.38 141.30 107.03 140.89 L 106.71 140.27 Z" />
<path fill="#001b4a" d=" M 109.97 138.99 C 110.72 139.02 112.22 139.08 112.97 139.12 C 111.47 140.61 110.12 142.23 108.76 143.84 C 108.09 142.92 107.54 141.91 107.03 140.89 C 108.38 141.30 109.58 140.19 109.97 138.99 Z" />
<path fill="#e2e3e1" d=" M 112.97 139.12 C 113.55 139.13 114.72 139.15 115.30 139.17 C 115.18 139.57 114.95 140.36 114.83 140.76 C 113.39 142.36 111.89 143.90 110.25 145.29 C 109.88 144.93 109.13 144.20 108.76 143.84 C 110.12 142.23 111.47 140.61 112.97 139.12 Z" />
<path fill="#d2d3d4" d=" M 134.84 139.16 C 135.57 139.17 137.03 139.19 137.76 139.20 C 139.34 141.59 140.83 144.03 142.26 146.51 C 144.33 144.30 145.93 141.73 147.35 139.08 L 148.51 139.04 C 148.61 142.76 148.45 146.56 147.35 150.15 C 146.30 152.79 143.93 154.58 141.79 156.30 C 141.85 153.48 142.11 150.67 142.43 147.87 C 141.18 148.38 139.93 148.86 138.67 149.33 C 137.53 148.82 136.43 148.21 135.33 147.62 C 135.31 146.06 135.30 144.50 135.29 142.94 C 135.87 143.36 137.02 144.20 137.59 144.62 C 137.59 145.21 137.58 146.38 137.57 146.97 C 138.15 146.70 139.31 146.16 139.88 145.90 C 138.50 144.60 137.11 143.30 135.70 142.03 C 135.41 141.07 135.13 140.12 134.84 139.16 Z" />
<path fill="#a4abc1" d=" M 137.76 139.20 C 140.96 139.20 144.15 139.16 147.35 139.08 C 145.93 141.73 144.33 144.30 142.26 146.51 C 140.83 144.03 139.34 141.59 137.76 139.20 Z" />
<path fill="#aeb0b5" d=" M 148.51 139.04 C 150.20 139.01 151.90 139.04 153.60 139.06 C 152.70 142.43 151.96 145.85 150.84 149.16 C 149.78 152.53 146.24 154.38 145.30 157.80 C 145.01 158.00 144.71 158.19 144.41 158.38 C 143.75 158.44 142.43 158.57 141.77 158.63 C 141.65 158.66 141.41 158.71 141.29 158.74 C 140.82 159.16 139.88 160.01 139.41 160.43 C 138.85 160.68 137.72 161.16 137.15 161.41 C 135.57 160.67 134.69 161.12 134.50 162.74 C 129.81 161.66 125.13 163.37 120.47 163.83 C 120.22 163.82 119.72 163.79 119.47 163.77 L 119.66 163.00 L 120.12 161.15 C 127.63 162.04 135.62 160.97 141.79 156.30 C 143.93 154.58 146.30 152.79 147.35 150.15 C 148.45 146.56 148.61 142.76 148.51 139.04 Z" />
<path fill="#88898a" d=" M 153.60 139.06 C 155.08 139.08 156.56 139.10 158.04 139.12 C 155.56 146.32 151.54 153.24 145.30 157.80 C 146.24 154.38 149.78 152.53 150.84 149.16 C 151.96 145.85 152.70 142.43 153.60 139.06 Z" />
<path fill="#032957" d=" M 110.25 145.29 C 111.89 143.90 113.39 142.36 114.83 140.76 C 114.45 142.60 113.84 144.40 112.65 145.89 C 113.43 146.84 114.24 147.77 115.04 148.71 C 114.46 148.62 113.29 148.44 112.71 148.35 C 111.91 147.31 111.12 146.27 110.25 145.29 Z" />
<path fill="#bec1c5" d=" M 103.27 151.50 C 105.64 149.17 105.20 145.84 104.44 142.92 C 106.04 144.94 107.79 146.85 109.73 148.55 C 109.75 150.32 109.77 152.09 109.79 153.86 C 109.21 154.56 108.62 155.27 108.04 155.98 C 106.33 154.61 104.76 153.09 103.27 151.50 Z" />
<path fill="#88898a" d=" M 70.83 144.02 C 72.93 144.25 74.90 145.01 76.73 146.04 C 80.18 147.93 84.02 148.92 87.89 149.49 C 90.07 149.72 92.26 149.78 94.45 149.95 C 95.24 150.21 95.81 150.80 96.17 151.72 C 87.34 151.15 77.88 149.87 70.83 144.02 Z" />
<path fill="#bdbfc1" d=" M 86.00 144.61 C 87.79 144.26 89.56 143.86 91.33 143.45 C 92.55 145.53 93.60 147.70 94.45 149.95 C 92.26 149.78 90.07 149.72 87.89 149.49 C 87.25 147.87 86.62 146.24 86.00 144.61 Z" />
<path fill="#bec1c4" d=" M 155.83 149.91 C 156.56 147.61 157.56 145.42 158.74 143.31 C 160.07 143.64 161.40 144.00 162.71 144.41 C 163.47 144.66 164.22 144.93 164.98 145.21 C 165.38 146.44 165.79 147.71 166.73 148.65 C 163.17 149.58 159.48 149.73 155.83 149.91 Z" />
<path fill="#d2d3d4" d=" M 162.71 144.41 C 168.23 144.28 173.81 144.99 179.26 143.78 C 179.00 144.20 178.48 145.03 178.22 145.45 L 177.82 145.34 C 173.91 144.68 170.57 148.12 166.73 148.65 C 165.79 147.71 165.38 146.44 164.98 145.21 C 164.22 144.93 163.47 144.66 162.71 144.41 Z" />
<path fill="#ccced0" d=" M 76.73 146.04 C 79.59 144.51 82.83 144.34 86.00 144.61 C 86.62 146.24 87.25 147.87 87.89 149.49 C 84.02 148.92 80.18 147.93 76.73 146.04 Z" />
<path fill="#8c8d8e" d=" M 166.73 148.65 C 170.57 148.12 173.91 144.68 177.82 145.34 C 170.74 149.90 162.28 151.26 154.04 151.74 L 155.00 150.00 L 155.83 149.91 C 159.48 149.73 163.17 149.58 166.73 148.65 Z" />
<path fill="#e1e2e4" d=" M 138.67 149.33 C 139.93 148.86 141.18 148.38 142.43 147.87 C 142.11 150.67 141.85 153.48 141.79 156.30 C 135.62 160.97 127.63 162.04 120.12 161.15 C 115.78 160.31 111.67 158.50 108.04 155.98 C 108.62 155.27 109.21 154.56 109.79 153.86 C 109.77 152.09 109.75 150.32 109.73 148.55 C 110.75 149.30 111.78 150.03 112.83 150.75 C 113.26 150.93 114.13 151.28 114.56 151.45 C 114.70 152.82 114.95 154.17 115.15 155.54 C 115.17 155.73 115.21 156.11 115.23 156.30 C 121.86 156.21 128.49 156.27 135.11 156.16 C 135.12 154.63 135.12 153.09 135.13 151.57 C 136.32 150.83 137.52 150.11 138.67 149.33 Z" />
<path fill="#5d6c85" d=" M 112.83 150.75 C 114.00 149.66 114.58 149.90 114.56 151.45 C 114.13 151.28 113.26 150.93 112.83 150.75 Z" />
<path fill="#d9dde5" d=" M 141.29 158.74 C 141.41 158.71 141.65 158.66 141.77 158.63 C 141.65 158.66 141.41 158.71 141.29 158.74 Z" />
<path fill="#101011" d=" M 141.77 158.63 C 142.43 158.57 143.75 158.44 144.41 158.38 C 135.18 165.15 122.60 166.63 112.06 162.13 C 113.06 162.26 115.06 162.51 116.06 162.64 C 117.10 163.25 118.22 163.88 119.47 163.77 C 119.72 163.79 120.22 163.82 120.47 163.83 C 125.16 164.74 129.98 164.22 134.50 162.74 C 135.64 162.80 136.52 162.35 137.15 161.41 C 137.72 161.16 138.85 160.68 139.41 160.43 C 139.88 160.01 140.82 159.16 141.29 158.74 C 141.41 158.71 141.65 158.66 141.77 158.63 Z" />
<path fill="#d5d7d9" d=" M 139.41 160.43 C 139.88 160.01 140.82 159.16 141.29 158.74 C 140.82 159.16 139.88 160.01 139.41 160.43 Z" />
<path fill="#101011" d=" M 109.28 160.28 C 109.56 160.56 109.56 160.56 109.28 160.28 Z" />
<path fill="#dfe0e0" d=" M 137.15 161.41 C 137.72 161.16 138.85 160.68 139.41 160.43 C 138.85 160.68 137.72 161.16 137.15 161.41 Z" />
<path fill="#101011" d=" M 111.51 161.25 C 111.76 161.53 111.76 161.53 111.51 161.25 Z" />
<path fill="#d8d9dc" d=" M 134.50 162.74 C 134.69 161.12 135.57 160.67 137.15 161.41 C 136.52 162.35 135.64 162.80 134.50 162.74 Z" />
<path fill="#c9cbcd" d=" M 116.06 162.64 C 117.40 161.71 118.60 161.83 119.66 163.00 L 119.47 163.77 C 118.22 163.88 117.10 163.25 116.06 162.64 Z" />
<path fill="#ced0d2" d=" M 120.47 163.83 C 125.13 163.37 129.81 161.66 134.50 162.74 C 129.98 164.22 125.16 164.74 120.47 163.83 Z" />
</svg>
