<?xml version="1.0" encoding="utf-8"?>
<!DOCTYPE svg PUBLIC "-//W3C//DTD SVG 1.1//EN" "http://www.w3.org/Graphics/SVG/1.1/DTD/svg11.dtd">
<svg version="1.1"
  id="Nissan_Logo"
  xmlns="http://www.w3.org/2000/svg"
  width="210"
  height="181"
  viewBox="0 0 210 181"
  xml:space="preserve">
  <title>Nissan Logo</title>
  <desc>Für mehr Informationen siehe: http://de.wikipedia.org/wiki/Datei:Nissan_Logo.svg</desc>
  <linearGradient id="SVGID_1_" gradientUnits="userSpaceOnUse" x1="302.5996" y1="-146.3877" x2="302.5995" y2="-285.7885" gradientTransform="matrix(1 0 0 -1 -197.5996 -138.9902)">
    <stop offset="0.1944" stop-color="#FFFFFF" />
    <stop offset="0.2085" stop-color="#F8F8F8" />
    <stop offset="0.3657" stop-color="#AEAEAE" />
    <stop offset="0.5133" stop-color="#707070" />
    <stop offset="0.6468" stop-color="#404040" />
    <stop offset="0.7637" stop-color="#1D1D1D" />
    <stop offset="0.8595" stop-color="#080808" />
    <stop offset="0.9222" stop-color="#000000" />
  </linearGradient>
  <path fill="url(#SVGID_1_)" d="M198.119,69.765c-1.847-0.516-3.906-0.76-8.241-1.295c-17.943-0.736-62.283-2.46-84.877-2.46
    s-66.935,1.723-84.875,2.46c-4.337,0.535-6.397,0.779-8.244,1.295C6.241,71.095,5,73.12,5,77.16v27.69
    c0,4.04,4.329,6.764,7.313,7.313c2.986,0.553,4.875,0.775,8.016,1.074c16.047,0.993,53.277,3.066,84.671,3.098
    c31.394-0.031,68.623-2.104,84.671-3.098c3.14-0.299,5.031-0.521,8.016-1.074c2.984-0.549,7.313-3.272,7.313-7.313V77.16
    C205,73.12,203.759,71.095,198.119,69.765z" />
  <radialGradient id="SVGID_2_" cx="246.4561" cy="-109.4331" r="139.4622" gradientTransform="matrix(1 0 0 -1 -197.5996 -138.9902)" gradientUnits="userSpaceOnUse">
    <stop offset="0.2022" stop-color="#FFFFFF" />
    <stop offset="0.3822" stop-color="#FDFDFD" />
    <stop offset="0.4874" stop-color="#F4F4F4" />
    <stop offset="0.5732" stop-color="#E6E6E6" />
    <stop offset="0.6483" stop-color="#D2D2D2" />
    <stop offset="0.6889" stop-color="#C4C4C4" />
    <stop offset="1" stop-color="#333333" />
  </radialGradient>
  <path fill="url(#SVGID_2_)" d="M33.05,70.854c8.828-30.71,37.835-53.243,72.268-53.243c34.335,0,63.281,22.409,72.196,52.996
    c0.028,0.108,0.047,0.164,0.077,0.268c5.119-0.575,9.704-1.463,12.944-2.328c-0.059-0.197-0.074-0.237-0.124-0.431
    C180.279,31.681,146.021,4.87,105.318,4.87c-40.84,0-75.188,26.985-85.194,63.6C24.625,69.703,27.922,70.22,33.05,70.854z" />
  <radialGradient id="SVGID_3_" cx="583.9678" cy="-332.8145" r="290.4512" gradientTransform="matrix(1 0 0 -1 -197.5996 -138.9902)" gradientUnits="userSpaceOnUse">
    <stop offset="0.2022" stop-color="#FFFFFF" />
    <stop offset="0.368" stop-color="#E4E4E4" />
    <stop offset="0.5944" stop-color="#C4C4C4" />
    <stop offset="1" stop-color="#333333" />
  </radialGradient>
  <path fill="url(#SVGID_3_)" d="M177.303,111.104c-0.089,0.273-0.188,0.573-0.234,0.722c-9.388,29.852-37.957,51.565-71.75,51.565
    c-34.06,0-62.81-22.048-71.969-52.258c-5.598,0.991-7.489,1.368-13.021,2.104c10.25,36.256,44.414,62.894,84.99,62.894
    c40.593,0,74.769-26.666,85-62.954C185.446,112.577,182.575,112.122,177.303,111.104z" />
  <radialGradient id="SVGID_4_" cx="279.9551" cy="-268.7188" r="89.1694" gradientTransform="matrix(1 0 0 -1 -197.5996 -138.9902)" gradientUnits="userSpaceOnUse">
    <stop offset="0.2022" stop-color="#FFFFFF" />
    <stop offset="0.368" stop-color="#E4E4E4" />
    <stop offset="0.5944" stop-color="#C4C4C4" />
    <stop offset="1" stop-color="#333333" />
  </radialGradient>
  <path fill="url(#SVGID_4_)" d="M34.852,70.788c2.125-0.878,4.181-2.278,7.386-3.179c9.555-24.825,34.189-42.503,63.079-42.503
    c28.8,0,53.373,17.569,62.988,42.274c0.034,0.084,0.069,0.186,0.096,0.249c1.653,0.573,6.527,2.549,8.042,3.21
    c0.215,0.005,0.674,0.021,1.149,0.034c-0.03-0.095-0.054-0.177-0.079-0.268c-8.918-30.577-37.864-52.979-72.196-52.979
    c-34.424,0-63.431,22.523-72.262,53.227C33.565,70.854,34.536,70.81,34.852,70.788z" />
  <path fill="#FFFFFF" d="M104.769,19.703c32.214,0,60.768,19.208,71.584,50.869c0.025,0.073,0.053,0.165,0.088,0.269
    c0.169,0,0.782,0.022,1.149,0.034c-0.03-0.115-0.059-0.182-0.079-0.268c-8.918-30.577-37.864-52.979-72.196-52.979
    c-34.424,0-63.431,22.523-72.262,53.227c0.689-0.011,1.019-0.011,1.799-0.066C44.521,40.731,72.793,19.703,104.769,19.703z" />
  <radialGradient id="SVGID_5_" cx="351.9121" cy="-359.8975" r="169.193" gradientTransform="matrix(1 0 0 -1 -197.5996 -138.9902)" gradientUnits="userSpaceOnUse">
    <stop offset="0.2022" stop-color="#FFFFFF" />
    <stop offset="0.368" stop-color="#E4E4E4" />
    <stop offset="0.5944" stop-color="#C4C4C4" />
    <stop offset="1" stop-color="#333333" />
  </radialGradient>
  <path fill="url(#SVGID_5_)" d="M175.476,111.192c-2.314,1.292-5.194,2.536-7.498,3.263c-0.031,0.075-0.162,0.403-0.19,0.479
    c-9.961,24.022-34.178,40.979-62.471,40.979c-28.47,0-52.811-17.163-62.657-41.422c-2.65-0.736-6.61-2.542-8.109-3.296
    c-0.56-0.027-0.863-0.042-1.208-0.061c9.159,30.208,37.914,52.259,71.974,52.259c33.905,0,62.55-21.849,71.844-51.843
    c0.018-0.058,0.123-0.388,0.143-0.444C176.77,111.126,175.949,111.192,175.476,111.192z" />
  <radialGradient id="SVGID_6_" cx="301.2598" cy="-161.5024" r="134.4516" gradientTransform="matrix(1 0 0 -1 -197.5996 -138.9902)" gradientUnits="userSpaceOnUse">
    <stop offset="0.2022" stop-color="#FFFFFF" />
    <stop offset="0.3966" stop-color="#FDFDFD" />
    <stop offset="0.5101" stop-color="#F4F4F4" />
    <stop offset="0.6029" stop-color="#E6E6E6" />
    <stop offset="0.6839" stop-color="#D2D2D2" />
    <stop offset="0.7278" stop-color="#C4C4C4" />
    <stop offset="1" stop-color="#4D4D4D" />
  </radialGradient>
  <path fill="url(#SVGID_6_)" d="M196.516,71.77c-4.752-0.578-7.992-0.516-19.569-0.915c-0.526-0.019-1.06-0.035-1.603-0.054
    c-20.991-0.72-52.519-1.682-70.344-1.682c-17.823,0-49.352,0.962-70.345,1.682c-0.542,0.019-1.075,0.035-1.6,0.054
    c-11.578,0.399-14.817,0.337-19.57,0.915C8.733,72.353,5,74.434,5,77.973v25.678c0,3.54,4.497,6.407,8.484,6.407
    c0,0,50.746,3.133,91.516,3.17c40.771-0.037,91.516-3.17,91.516-3.17c3.987,0,8.484-2.867,8.484-6.407V77.973
    C205,74.434,201.267,72.353,196.516,71.77z" />
  <path fill="#FFFFFF" d="M175.476,111.192c-9.958,29.542-37.967,50.122-69.604,50.122c-31.959,0-60.317-18.906-71.323-50.122
    c-0.404-0.021-0.804-0.037-1.199-0.06c9.157,30.208,37.917,52.258,71.978,52.258c34.072,0,62.835-22.065,71.984-52.289
    C176.711,111.129,176.099,111.162,175.476,111.192z" />
  <path fill="#8C8C8C" d="M175.536,111.19c-0.021,0-0.043,0.002-0.061,0.002c-2.314,1.292-5.194,2.536-7.498,3.263
    c-0.031,0.075-0.162,0.403-0.19,0.479c-3.153,7.601-7.733,14.496-13.421,20.371C163.271,128.794,170.536,120.569,175.536,111.19z" />
  <path fill="#4D4D4D" d="M58.19,137.216c-6.698-6.38-12.03-14.103-15.53-22.727c-2.65-0.737-6.609-2.543-8.109-3.297
    c1.62,3.354,3.514,6.532,5.649,9.493c4.409,5.743,9.753,10.861,15.836,15.192C56.744,136.34,57.462,136.786,58.19,137.216z" />
  <path fill="#252525" d="M33.348,111.135c0-0.002,0-0.002,0-0.002l-0.023,0.004c-5.58,0.989-7.473,1.368-12.997,2.1
    c0.445,1.579,0.938,3.136,1.474,4.677L33.348,111.135z" />
  <radialGradient id="NISSAN_1_" cx="304.375" cy="-174.9683" r="90.5596" gradientTransform="matrix(1 0 0 -1 -197.5996 -138.9902)" gradientUnits="userSpaceOnUse">
    <stop offset="0.1111" stop-color="#4D4D4D" />
    <stop offset="0.248" stop-color="#494949" />
    <stop offset="0.3546" stop-color="#404040" />
    <stop offset="0.451" stop-color="#2F2F2F" />
    <stop offset="0.5409" stop-color="#181818" />
    <stop offset="0.6111" stop-color="#000000" />
  </radialGradient>
  <path id="NISSAN" fill="url(#NISSAN_1_)" d="M145.636,83.142c-1.667-3.728-1.076-3.337-4.707-3.433c-0.295-0.1-1.082-0.1-2.159-0.1
    s-1.275,0-2.158,0.1c-3.433,0-2.845-0.196-4.021,2.256c0,0-5.889,13.242-8.438,18.735l-0.098,0.197
    c-0.491,0.979-0.196,0.979,0.588,0.979h5.298c0.394,0,0.589-0.193,0.686-0.391c0,0,0.785-1.669,1.766-4.021h12.949
    c0.982,2.257,1.667,3.923,1.667,4.021c0.099,0.295,0.394,0.391,0.687,0.391h5.494c0.785,0,0.982,0.102,0.688-0.588
    C152.896,98.934,146.52,85.199,145.636,83.142L145.636,83.142z M134.354,92.754c1.668-3.923,3.338-7.748,3.338-7.847
    c0.098-0.197,0.294-0.295,0.588-0.295c0.098-0.1,0.393-0.1,0.686-0.1c0.198,0,0.49,0,0.589,0.1c0.195,0,0.394,0.098,0.489,0.393
    c0.395,1.077,1.865,4.414,3.238,7.749H134.354L134.354,92.754z M63.722,79.413c0.49,0,0.589,0.195,0.589,0.588v20.995
    c0,0.489-0.099,0.687-0.686,0.687h-5.102c-0.587,0-0.685-0.099-0.685-0.687V80.001c0-0.393,0.098-0.588,0.489-0.588H63.722
    L63.722,79.413z M52.833,79.608c0.587,0,0.688,0.195,0.688,0.688v20.896c0,0.59-0.101,0.687-0.688,0.687h-5.985
    c-3.53,0-3.825,0-5.001-1.96c-2.453-3.826-9.812-15.107-9.812-15.107v16.382c0,0.59-0.098,0.686-0.685,0.686h-4.416
    c-0.588,0-0.687-0.096-0.687-0.686V80.296c0-0.491,0.099-0.688,0.687-0.688c0,0,1.178,0,5.101,0c3.826,0,4.316-0.097,5.692,1.865
    c1.078,1.767,10.005,15.5,10.005,15.5V80.296c0-0.491,0.098-0.688,0.688-0.688H52.833L52.833,79.608z M183.797,79.608
    c0.591,0,0.688,0.195,0.688,0.688v20.896c0,0.59-0.098,0.687-0.688,0.687h-5.979c-3.534,0-3.83,0-5.006-1.96
    C170.358,96.092,163,84.811,163,84.811v16.382c0,0.59-0.097,0.686-0.687,0.686H157.9c-0.588,0-0.689-0.096-0.689-0.686V80.296
    c0-0.491,0.102-0.688,0.689-0.688c0,0,1.177,0,5.1,0c3.826,0,4.319-0.097,5.69,1.865c1.178,1.767,10.007,15.5,10.007,15.5V80.296
    c0-0.491,0.099-0.688,0.688-0.688H183.797L183.797,79.608z M86.188,88.146c3.925,0.391,6.771,1.077,7.555,4.806
    c0,0.292,0.098,1.274,0.098,2.354c0,0.689,0,1.569-0.197,2.354c-0.685,3.531-3.336,4.217-7.454,4.217H69.707
    c-0.589,0-0.688-0.096-0.688-0.686v-3.531c0-0.589,0.099-0.687,0.688-0.687c0,0,16.383,0,16.675,0c0.688,0,0.884-0.196,0.982-0.688
    c0-0.392,0-0.589,0-0.883s0-0.489,0-0.588c-0.099-0.393-0.196-0.982-1.078-1.078c-1.865-0.098-7.358-0.589-11.087-0.981
    c-4.807-0.491-5.984-2.549-6.18-4.316c-0.098-0.59-0.098-1.374-0.098-2.061c0-0.589,0-1.471,0.098-2.159
    c0.688-3.141,3.043-4.61,7.161-4.61h15.99c0.591,0,0.788,0.1,0.788,0.589v3.631c0,0.487-0.197,0.685-0.788,0.587
    c0,0-15.303,0-15.695,0c-0.687,0-0.98,0.294-1.08,0.98c0,0.098,0,0.195,0,0.392s0,0.295,0,0.491c0,0.491,0.295,0.884,0.981,0.979
    C78.243,87.457,84.029,87.947,86.188,88.146L86.188,88.146z M114.537,88.146c3.927,0.391,6.772,1.077,7.556,4.806
    c0,0.292,0.099,1.274,0.099,2.354c0,0.689,0,1.569-0.197,2.354c-0.685,3.531-3.333,4.217-7.455,4.217H98.058
    c-0.589,0-0.688-0.096-0.688-0.686v-3.531c0-0.589,0.099-0.687,0.688-0.687c0,0,16.383,0,16.678,0c0.686,0,0.88-0.196,0.981-0.688
    c0-0.392,0-0.589,0-0.883s0-0.489,0-0.588c-0.102-0.393-0.296-0.982-1.08-1.078c-1.864-0.098-7.357-0.589-11.085-0.981
    c-4.808-0.491-5.886-2.549-6.182-4.316c-0.098-0.59-0.098-1.374-0.098-2.061c0-0.589,0-1.471,0.098-2.159
    c0.688-3.141,3.042-4.61,7.161-4.61h15.993c0.586,0,0.785,0.1,0.785,0.589v3.631c0,0.487-0.199,0.685-0.785,0.587
    c0,0-15.303,0-15.698,0c-0.686,0-0.979,0.294-1.079,0.98c0,0.098,0,0.195,0,0.392s0,0.295,0,0.491c0,0.491,0.197,0.884,0.983,0.979
    C106.594,87.457,112.38,87.947,114.537,88.146L114.537,88.146z" />
</svg>