<?xml version="1.0" encoding="UTF-8" ?>
<!DOCTYPE svg PUBLIC "-//W3C//DTD SVG 1.1//EN" "http://www.w3.org/Graphics/SVG/1.1/DTD/svg11.dtd">
<svg width="250pt" height="127pt" viewBox="0 0 250 127" version="1.1" xmlns="http://www.w3.org/2000/svg">
<path fill="#feffff" d=" M 0.00 0.00 L 119.11 0.00 C 111.90 1.53 104.44 1.43 97.23 3.05 C 76.69 6.80 55.67 14.50 41.41 30.43 C 36.20 36.28 31.48 43.83 32.56 52.01 C 32.92 59.26 37.42 65.81 43.31 69.81 C 50.03 72.59 56.27 76.62 63.36 78.44 C 68.96 79.72 73.35 75.39 77.86 72.92 C 100.14 59.94 122.16 46.50 144.33 33.33 C 148.37 30.82 152.88 28.88 156.26 25.43 C 154.80 25.87 153.40 26.45 152.05 27.16 C 127.30 41.41 102.63 55.83 77.60 69.60 C 71.50 73.10 63.99 75.33 57.11 72.80 C 48.62 69.69 39.84 64.49 36.45 55.64 C 32.70 46.00 38.20 35.14 45.82 29.18 C 43.33 33.51 39.44 37.08 37.90 42.00 C 35.68 46.82 36.43 52.94 40.29 56.71 C 44.36 60.88 50.46 61.82 56.00 62.18 C 65.66 61.63 75.12 59.24 84.22 56.03 C 111.14 46.53 136.07 32.43 161.29 19.23 C 165.20 17.26 168.88 14.86 172.66 12.65 C 171.61 11.96 170.56 11.27 169.52 10.57 C 172.26 10.61 174.71 9.41 177.07 8.14 C 169.50 5.47 161.66 3.61 153.75 2.30 C 147.92 1.25 141.96 1.17 136.15 0.00 L 250.00 0.00 L 250.00 127.00 L 236.62 127.00 C 238.99 126.29 241.27 125.12 242.66 122.99 C 238.97 123.20 235.38 125.96 231.68 124.41 C 230.43 123.65 229.46 122.54 228.43 121.53 C 233.45 121.17 238.48 121.42 243.51 121.21 C 242.81 113.96 233.20 112.28 228.23 116.19 C 226.10 117.79 225.67 120.89 226.73 123.22 C 227.95 125.23 230.24 126.12 232.31 127.00 L 177.71 127.00 C 180.04 126.09 182.84 125.18 183.84 122.63 C 185.34 119.86 183.34 116.47 180.71 115.28 C 177.52 113.58 173.73 114.29 170.47 115.36 C 170.42 113.19 169.82 111.22 167.56 110.45 C 167.12 115.77 167.40 121.11 167.30 126.44 C 169.51 126.26 171.74 126.31 173.88 127.00 L 149.66 127.00 C 152.02 126.17 154.89 125.29 155.86 122.70 C 157.45 119.67 155.14 116.04 152.17 114.99 C 147.75 113.31 140.99 114.15 139.42 119.33 C 138.37 122.96 141.86 125.22 144.38 127.00 L 87.56 127.00 C 90.40 126.29 92.59 124.32 92.95 121.32 C 89.15 119.23 84.74 119.53 80.59 118.89 C 82.65 113.66 88.58 117.51 92.36 118.06 C 90.25 113.45 84.09 113.54 80.09 115.24 C 78.18 115.83 77.79 117.83 78.23 119.56 C 81.49 122.09 85.97 121.18 89.78 122.00 C 89.03 123.30 88.39 124.97 86.62 124.99 C 83.22 125.74 80.26 123.12 77.03 122.54 C 77.85 125.00 79.99 126.30 82.35 127.00 L 66.57 127.00 C 66.89 121.73 66.70 116.44 66.78 111.17 C 66.14 111.15 64.87 111.12 64.23 111.11 C 64.18 112.52 64.13 113.92 64.08 115.33 C 60.57 114.41 56.59 113.47 53.22 115.32 C 50.64 116.54 48.65 119.89 50.22 122.61 C 51.21 125.21 54.04 126.14 56.43 127.00 L 13.52 127.00 C 17.25 125.86 21.82 123.49 21.80 119.01 C 21.93 115.04 18.30 112.20 14.77 111.31 C 9.38 109.56 3.18 111.70 0.00 116.38 L 0.00 0.00 Z" />
<path fill="#070707" d=" M 119.11 0.00 L 136.15 0.00 C 141.96 1.17 147.92 1.25 153.75 2.30 C 161.66 3.61 169.50 5.47 177.07 8.14 C 174.71 9.41 172.26 10.61 169.52 10.57 C 170.56 11.27 171.61 11.96 172.66 12.65 C 168.88 14.86 165.20 17.26 161.29 19.23 C 136.07 32.43 111.14 46.53 84.22 56.03 C 75.12 59.24 65.66 61.63 56.00 62.18 C 50.46 61.82 44.36 60.88 40.29 56.71 C 36.43 52.94 35.68 46.82 37.90 42.00 C 39.44 37.08 43.33 33.51 45.82 29.18 C 38.20 35.14 32.70 46.00 36.45 55.64 C 39.84 64.49 48.62 69.69 57.11 72.80 C 63.99 75.33 71.50 73.10 77.60 69.60 C 102.63 55.83 127.30 41.41 152.05 27.16 C 153.40 26.45 154.80 25.87 156.26 25.43 C 152.88 28.88 148.37 30.82 144.33 33.33 C 122.16 46.50 100.14 59.94 77.86 72.92 C 73.35 75.39 68.96 79.72 63.36 78.44 C 56.27 76.62 50.03 72.59 43.31 69.81 C 37.42 65.81 32.92 59.26 32.56 52.01 C 31.48 43.83 36.20 36.28 41.41 30.43 C 55.67 14.50 76.69 6.80 97.23 3.05 C 104.44 1.43 111.90 1.53 119.11 0.00 Z" />
<path fill="#feffff" d=" M 104.40 3.46 C 123.70 0.55 143.53 1.17 162.57 5.50 C 164.00 5.80 165.39 6.32 166.69 7.01 C 162.40 6.83 158.24 5.68 154.01 5.07 C 132.64 1.84 110.62 2.46 89.59 7.58 C 74.03 11.42 58.79 17.94 46.74 28.73 C 47.00 26.71 49.14 25.76 50.45 24.44 C 65.96 12.44 85.23 6.35 104.40 3.46 Z" />
<path fill="#070707" d=" M 190.16 5.11 C 191.84 4.16 193.07 2.66 194.40 1.31 C 194.42 2.53 195.16 4.12 194.02 5.08 C 191.67 7.49 188.56 8.94 185.87 10.93 C 196.00 16.14 206.23 22.68 211.83 32.95 C 216.54 41.39 216.03 52.06 211.19 60.34 C 206.09 69.05 197.37 74.94 188.39 79.12 C 176.86 84.14 164.55 87.30 152.08 88.80 C 146.75 89.63 141.41 90.64 135.98 90.53 C 124.32 90.59 112.65 90.61 100.99 90.49 C 96.24 90.58 91.61 89.46 86.96 88.69 C 84.15 88.39 80.81 88.72 78.71 86.44 C 78.54 85.45 78.40 84.44 78.31 83.44 C 90.93 74.23 104.24 66.00 117.09 57.13 C 119.17 55.72 121.18 54.20 123.45 53.10 C 120.85 55.66 117.69 57.52 114.73 59.61 C 106.88 65.09 99.09 70.64 91.32 76.23 C 89.09 77.93 86.32 79.12 84.86 81.64 C 89.51 81.38 93.41 78.59 97.17 76.14 C 105.98 70.09 114.07 63.08 122.45 56.46 C 130.80 49.93 138.59 42.64 147.62 37.03 C 147.60 37.59 147.57 38.71 147.55 39.27 C 139.17 44.42 132.11 51.39 124.62 57.69 C 118.14 63.51 111.42 69.09 105.53 75.51 C 104.46 76.58 103.85 78.12 104.30 79.62 C 106.26 81.75 109.33 82.18 112.07 82.52 C 136.77 84.86 162.55 83.45 185.66 73.73 C 196.53 68.92 207.88 61.45 211.32 49.38 C 211.93 44.86 212.10 40.01 210.24 35.74 C 208.11 30.03 203.86 25.54 199.81 21.14 C 195.35 16.71 189.56 13.99 183.88 11.49 C 182.49 12.91 180.72 13.68 178.80 14.02 C 182.95 16.67 187.45 18.71 191.82 20.97 C 191.70 20.15 191.47 18.51 191.36 17.69 C 196.23 21.39 201.78 24.52 205.14 29.85 C 209.92 36.25 211.21 45.33 207.33 52.48 C 203.75 60.22 196.19 64.99 188.83 68.67 C 174.50 75.46 158.65 78.54 142.91 79.55 C 134.27 79.49 125.38 80.37 116.95 78.06 C 114.19 76.06 115.68 72.54 117.67 70.61 C 124.79 62.89 131.49 54.70 139.38 47.76 C 135.70 53.17 130.82 57.67 126.78 62.82 C 123.75 66.81 119.65 70.13 117.75 74.88 C 126.28 78.71 135.85 77.31 144.90 77.41 C 154.02 75.17 163.60 75.94 172.60 73.08 C 184.51 69.78 197.13 64.61 204.09 53.78 C 207.08 49.42 206.40 43.88 205.45 38.99 C 203.83 32.87 199.02 28.44 194.40 24.47 C 189.42 20.52 183.57 17.93 177.90 15.19 C 173.55 17.97 169.17 20.70 165.01 23.76 C 163.61 23.27 162.24 22.73 160.86 22.20 C 170.53 16.33 180.47 10.93 190.16 5.11 Z" />
<path fill="#feffff" d=" M 92.26 8.44 C 114.37 3.41 137.47 3.12 159.76 7.12 C 163.14 7.92 166.88 8.13 169.73 10.34 C 161.15 9.14 152.72 6.66 144.01 6.43 C 126.26 5.94 108.21 5.40 90.91 10.03 C 76.86 13.90 62.29 19.15 52.40 30.40 C 49.22 32.99 48.29 37.93 44.15 39.26 C 44.93 35.28 48.10 32.56 50.80 29.80 C 61.88 18.44 77.05 12.09 92.26 8.44 Z" />
<path fill="#feffff" d=" M 102.83 8.58 C 116.36 6.65 130.15 6.12 143.79 7.33 C 152.47 7.72 161.12 9.29 169.43 11.85 C 167.73 13.36 165.88 14.71 163.88 15.78 C 146.67 25.12 129.28 34.13 111.44 42.22 C 94.60 49.60 77.43 57.32 58.99 59.43 C 53.84 59.20 46.75 58.16 44.97 52.42 C 42.92 45.17 47.36 38.24 52.03 33.07 C 65.17 18.87 84.14 11.77 102.83 8.58 Z" />
<path fill="#feffff" d=" M 195.08 22.07 C 198.67 22.99 201.08 26.06 203.31 28.81 C 206.14 32.61 208.74 37.08 208.54 41.98 C 208.35 44.65 209.24 47.91 206.72 49.75 C 206.40 45.09 207.26 40.10 204.94 35.81 C 202.81 30.45 197.95 26.93 195.08 22.07 Z" />
<path fill="#070707" d=" M 118.50 50.55 C 121.06 49.06 123.56 46.86 126.74 47.35 C 125.44 48.84 124.02 50.26 122.32 51.29 C 108.54 60.14 94.72 68.94 81.04 77.93 C 76.37 80.52 71.81 84.55 66.18 84.35 C 61.06 83.00 56.25 80.68 51.54 78.32 C 47.29 75.99 42.85 73.57 39.86 69.65 C 47.49 75.27 55.83 80.26 65.13 82.47 C 71.64 83.04 76.74 78.31 81.03 74.08 C 93.19 65.75 106.02 58.41 118.50 50.55 Z" />
<path fill="#feffff" d=" M 192.31 73.24 C 196.19 71.31 199.53 68.43 203.50 66.65 C 202.46 68.51 201.00 70.12 199.17 71.23 C 183.71 81.47 165.32 86.57 147.03 88.54 C 133.75 90.36 120.29 89.39 106.93 89.46 C 104.22 89.61 101.65 88.52 98.96 88.52 C 93.15 88.65 87.65 86.14 81.83 86.47 C 81.46 85.93 80.73 84.87 80.37 84.34 C 83.34 84.00 86.34 82.92 89.34 83.72 C 105.69 86.82 122.43 87.64 139.03 86.77 C 157.40 85.66 175.85 81.69 192.31 73.24 Z" />
<path fill="#070707" d=" M 0.00 116.38 C 3.18 111.70 9.38 109.56 14.77 111.31 C 18.30 112.20 21.93 115.04 21.80 119.01 C 21.82 123.49 17.25 125.86 13.52 127.00 L 8.34 127.00 C 4.96 126.10 1.90 124.17 0.00 121.18 L 0.00 116.38 Z" />
<path fill="#070707" d=" M 34.86 111.08 C 35.52 111.12 36.83 111.18 37.48 111.21 C 37.93 116.29 37.61 121.41 37.62 126.50 C 37.00 126.33 35.77 125.99 35.15 125.82 C 34.39 120.97 34.97 115.99 34.86 111.08 Z" />
<path fill="#070707" d=" M 64.23 111.11 C 64.87 111.12 66.14 111.15 66.78 111.17 C 66.70 116.44 66.89 121.73 66.57 127.00 L 65.09 127.00 C 64.89 124.80 61.22 124.66 61.39 127.00 L 56.43 127.00 C 54.04 126.14 51.21 125.21 50.22 122.61 C 48.65 119.89 50.64 116.54 53.22 115.32 C 56.59 113.47 60.57 114.41 64.08 115.33 C 64.13 113.92 64.18 112.52 64.23 111.11 Z" />
<path fill="#070707" d=" M 167.56 110.45 C 169.82 111.22 170.42 113.19 170.47 115.36 C 173.73 114.29 177.52 113.58 180.71 115.28 C 183.34 116.47 185.34 119.86 183.84 122.63 C 182.84 125.18 180.04 126.09 177.71 127.00 L 173.88 127.00 C 171.74 126.31 169.51 126.26 167.30 126.44 C 167.40 121.11 167.12 115.77 167.56 110.45 Z" />
<path fill="#070707" d=" M 196.39 111.38 C 197.36 109.97 200.00 111.55 198.85 113.00 C 197.84 114.38 195.21 112.88 196.39 111.38 Z" />
<path fill="#070707" d=" M 213.41 110.90 L 215.42 111.18 C 216.14 115.82 215.66 120.59 215.73 125.28 L 215.15 126.42 L 213.78 126.44 C 212.50 121.50 213.39 116.03 213.41 110.90 Z" />
<path fill="#feffff" d=" M 7.38 113.49 C 11.75 111.38 19.46 114.09 18.68 119.78 C 17.05 126.06 6.80 126.59 3.65 121.32 C 2.02 118.20 4.19 114.43 7.38 113.49 Z" />
<path fill="#070707" d=" M 80.09 115.24 C 84.09 113.54 90.25 113.45 92.36 118.06 C 88.58 117.51 82.65 113.66 80.59 118.89 C 84.74 119.53 89.15 119.23 92.95 121.32 C 92.59 124.32 90.40 126.29 87.56 127.00 L 82.35 127.00 C 79.99 126.30 77.85 125.00 77.03 122.54 C 80.26 123.12 83.22 125.74 86.62 124.99 C 88.39 124.97 89.03 123.30 89.78 122.00 C 85.97 121.18 81.49 122.09 78.23 119.56 C 77.79 117.83 78.18 115.83 80.09 115.24 Z" />
<path fill="#070707" d=" M 104.65 114.48 C 108.52 115.11 112.76 113.39 116.18 115.99 C 118.75 114.30 122.12 113.78 124.97 115.00 C 128.62 117.35 127.17 122.35 127.20 125.97 C 126.52 126.09 125.15 126.34 124.47 126.46 C 124.30 123.59 124.80 120.63 124.11 117.81 C 122.70 115.72 119.25 115.84 117.68 117.67 C 117.13 120.45 117.38 123.31 117.34 126.13 C 116.64 126.13 115.25 126.14 114.56 126.14 C 114.47 123.35 114.87 120.49 114.23 117.74 C 112.72 115.74 109.34 115.84 107.81 117.77 C 107.13 120.60 107.57 123.56 107.41 126.45 C 106.74 126.33 105.39 126.09 104.71 125.98 C 104.37 122.16 104.57 118.31 104.65 114.48 Z" />
<path fill="#070707" d=" M 139.42 119.33 C 140.99 114.15 147.75 113.31 152.17 114.99 C 155.14 116.04 157.45 119.67 155.86 122.70 C 154.89 125.29 152.02 126.17 149.66 127.00 L 144.38 127.00 C 141.86 125.22 138.37 122.96 139.42 119.33 Z" />
<path fill="#070707" d=" M 228.23 116.19 C 233.20 112.28 242.81 113.96 243.51 121.21 C 238.48 121.42 233.45 121.17 228.43 121.53 C 229.46 122.54 230.43 123.65 231.68 124.41 C 235.38 125.96 238.97 123.20 242.66 122.99 C 241.27 125.12 238.99 126.29 236.62 127.00 L 232.31 127.00 C 230.24 126.12 227.95 125.23 226.73 123.22 C 225.67 120.89 226.10 117.79 228.23 116.19 Z" />
<path fill="#070707" d=" M 196.25 126.38 C 196.55 122.36 195.54 118.06 196.79 114.23 C 197.29 114.37 198.29 114.64 198.80 114.77 C 198.84 118.45 198.87 122.14 198.77 125.82 C 198.14 125.96 196.88 126.24 196.25 126.38 Z" />
<path fill="#feffff" d=" M 56.38 116.37 C 59.60 115.53 64.43 117.09 64.34 120.99 C 62.85 125.93 55.04 126.27 52.64 121.87 C 51.65 119.34 54.15 117.02 56.38 116.37 Z" />
<path fill="#feffff" d=" M 145.43 116.48 C 148.42 115.65 152.96 116.42 153.55 120.02 C 154.03 125.88 144.02 126.78 142.29 121.77 C 141.55 119.48 143.10 116.96 145.43 116.48 Z" />
<path fill="#feffff" d=" M 173.44 116.50 C 176.94 115.20 182.57 117.57 181.41 121.92 C 178.97 126.31 171.16 125.97 169.65 120.99 C 169.69 118.91 171.45 116.98 173.44 116.50 Z" />
<path fill="#feffff" d=" M 228.68 119.34 C 231.20 115.16 237.94 115.06 240.40 119.35 C 236.49 119.50 232.58 119.49 228.68 119.34 Z" />
<path fill="#feffff" d=" M 0.00 121.18 C 1.90 124.17 4.96 126.10 8.34 127.00 L 0.00 127.00 L 0.00 121.18 Z" />
<path fill="#feffff" d=" M 61.39 127.00 C 61.22 124.66 64.89 124.80 65.09 127.00 L 61.39 127.00 Z" />
</svg>
