<?xml version="1.0" encoding="UTF-8" standalone="no"?>
<!-- Created with Inkscape (http://www.inkscape.org/) -->
<svg
   xmlns:dc="http://purl.org/dc/elements/1.1/"
   xmlns:cc="http://creativecommons.org/ns#"
   xmlns:rdf="http://www.w3.org/1999/02/22-rdf-syntax-ns#"
   xmlns:svg="http://www.w3.org/2000/svg"
   xmlns="http://www.w3.org/2000/svg"
   xmlns:xlink="http://www.w3.org/1999/xlink"
   xmlns:sodipodi="http://sodipodi.sourceforge.net/DTD/sodipodi-0.dtd"
   xmlns:inkscape="http://www.inkscape.org/namespaces/inkscape"
   id="svg2443"
   sodipodi:version="0.32"
   inkscape:version="0.46"
   width="385.74203"
   height="271.75516"
   viewBox="0 0 385.74203 271.75516"
   xml:space="preserve"
   sodipodi:docname="peu.svg"
   version="1.0"
   inkscape:output_extension="org.inkscape.output.svg.inkscape"><metadata
     id="metadata2448"><rdf:RDF><cc:Work
         rdf:about=""><dc:format>image/svg+xml</dc:format><dc:type
           rdf:resource="http://purl.org/dc/dcmitype/StillImage" /></cc:Work></rdf:RDF></metadata><defs
     id="defs2446"><inkscape:perspective
       sodipodi:type="inkscape:persp3d"
       inkscape:vp_x="0 : 526.18109 : 1"
       inkscape:vp_y="0 : 1000 : 0"
       inkscape:vp_z="744.09448 : 526.18109 : 1"
       inkscape:persp3d-origin="372.04724 : 350.78739 : 1"
       id="perspective2450" /><clipPath
       clipPathUnits="userSpaceOnUse"
       id="clipPath2460"><path
         d="M 28.346,115.654 L 841.889,115.654 L 841.889,566.929 L 28.346,566.929 L 28.346,115.654 z"
         id="path2462" /></clipPath><clipPath
       clipPathUnits="userSpaceOnUse"
       id="clipPath2476"><path
         d="M 0,0 L 841.89,0 L 841.89,595.276 L 0,595.276 L 0,0 z"
         id="path2478" /></clipPath><clipPath
       clipPathUnits="userSpaceOnUse"
       id="clipPath2488"><path
         d="M 734.331,28.346 L 813.543,28.346 L 813.543,84.22 L 734.331,84.22 L 734.331,28.346 z"
         id="path2490" /></clipPath><linearGradient
       x1="231.088"
       y1="213.375"
       x2="188.729"
       y2="148.49699"
       gradientUnits="userSpaceOnUse"
       gradientTransform="matrix(0.2794342,0,0,0.2794342,725.13824,19.154053)"
       spreadMethod="pad"
       id="linearGradient2508"><stop
         style="stop-opacity:1;stop-color:#d3d3d3"
         offset="0"
         id="stop2510" /><stop
         style="stop-opacity:1;stop-color:#4f4c4c"
         offset="0.368118"
         id="stop2512" /><stop
         style="stop-opacity:1;stop-color:#4f4c4c"
         offset="0.368118"
         id="stop2514" /><stop
         style="stop-opacity:1;stop-color:#b0afaf"
         offset="0.813187"
         id="stop2516" /><stop
         style="stop-opacity:1;stop-color:#231f20"
         offset="1"
         id="stop2518" /></linearGradient><linearGradient
       x1="112.045"
       y1="166.30099"
       x2="119.725"
       y2="183.89101"
       gradientUnits="userSpaceOnUse"
       gradientTransform="matrix(0.2794342,0,0,0.2794342,725.13824,19.154053)"
       spreadMethod="pad"
       id="linearGradient2534"><stop
         style="stop-opacity:1;stop-color:#b2b1b1"
         offset="0"
         id="stop2536" /><stop
         style="stop-opacity:1;stop-color:#b2b1b1"
         offset="0.199997"
         id="stop2538" /><stop
         style="stop-opacity:1;stop-color:#656263"
         offset="0.989655"
         id="stop2540" /><stop
         style="stop-opacity:1;stop-color:#656263"
         offset="0.989655"
         id="stop2542" /><stop
         style="stop-opacity:1;stop-color:#656263"
         offset="1"
         id="stop2544" /></linearGradient><linearGradient
       x1="216.937"
       y1="208.54201"
       x2="207.509"
       y2="209.433"
       gradientUnits="userSpaceOnUse"
       gradientTransform="matrix(0.2794342,0,0,0.2794342,725.13824,19.154053)"
       spreadMethod="pad"
       id="linearGradient2560"><stop
         style="stop-opacity:1;stop-color:#4f4c4c"
         offset="0"
         id="stop2562" /><stop
         style="stop-opacity:1;stop-color:#ffffff"
         offset="0.358612"
         id="stop2564" /><stop
         style="stop-opacity:1;stop-color:#ffffff"
         offset="0.358612"
         id="stop2566" /><stop
         style="stop-opacity:1;stop-color:#4f4c4c"
         offset="0.824127"
         id="stop2568" /><stop
         style="stop-opacity:1;stop-color:#393536"
         offset="1"
         id="stop2570" /></linearGradient><linearGradient
       x1="131.957"
       y1="157.35001"
       x2="139.603"
       y2="174.862"
       gradientUnits="userSpaceOnUse"
       gradientTransform="matrix(0.2794342,0,0,0.2794342,725.13824,19.154053)"
       spreadMethod="pad"
       id="linearGradient2586"><stop
         style="stop-opacity:1;stop-color:#d3d3d3"
         offset="0"
         id="stop2588" /><stop
         style="stop-opacity:1;stop-color:#b2b1b1"
         offset="0.368118"
         id="stop2590" /><stop
         style="stop-opacity:1;stop-color:#231f20"
         offset="0.989655"
         id="stop2592" /><stop
         style="stop-opacity:1;stop-color:#231f20"
         offset="1"
         id="stop2594" /></linearGradient><linearGradient
       x1="207.619"
       y1="73.150398"
       x2="68.774696"
       y2="214.39999"
       gradientUnits="userSpaceOnUse"
       gradientTransform="matrix(0.2794342,0,0,0.2794342,725.13824,19.154053)"
       spreadMethod="pad"
       id="linearGradient2610"><stop
         style="stop-opacity:1;stop-color:#918f90"
         offset="0"
         id="stop2612" /><stop
         style="stop-opacity:1;stop-color:#9c9a9b"
         offset="0.120865"
         id="stop2614" /><stop
         style="stop-opacity:1;stop-color:#9c9a9b"
         offset="0.120865"
         id="stop2616" /><stop
         style="stop-opacity:1;stop-color:#7b7979"
         offset="0.170319"
         id="stop2618" /><stop
         style="stop-opacity:1;stop-color:#918f90"
         offset="0.307678"
         id="stop2620" /><stop
         style="stop-opacity:1;stop-color:#f4f4f4"
         offset="0.472519"
         id="stop2622" /><stop
         style="stop-opacity:1;stop-color:#7f7d7e"
         offset="0.840652"
         id="stop2624" /><stop
         style="stop-opacity:1;stop-color:#7f7d7e"
         offset="0.840652"
         id="stop2626" /><stop
         style="stop-opacity:1;stop-color:#4f4c4c"
         offset="0.961533"
         id="stop2628" /><stop
         style="stop-opacity:1;stop-color:#4f4c4c"
         offset="1"
         id="stop2630" /></linearGradient><radialGradient
       fx="147.383"
       fy="196.201"
       cx="147.383"
       cy="196.201"
       r="31.581499"
       gradientUnits="userSpaceOnUse"
       gradientTransform="matrix(0.2794342,0,0,0.2794342,725.13824,19.154053)"
       spreadMethod="pad"
       id="radialGradient2646"><stop
         style="stop-opacity:1;stop-color:#ffffff"
         offset="0"
         id="stop2648" /><stop
         style="stop-opacity:1;stop-color:#ffffff"
         offset="0.467026"
         id="stop2650" /><stop
         style="stop-opacity:1;stop-color:#9c9a9b"
         offset="0.747238"
         id="stop2652" /><stop
         style="stop-opacity:1;stop-color:#9c9a9b"
         offset="0.747238"
         id="stop2654" /><stop
         style="stop-opacity:1;stop-color:#7b7979"
         offset="0.846146"
         id="stop2656" /><stop
         style="stop-opacity:1;stop-color:#4f4c4c"
         offset="1"
         id="stop2658" /></radialGradient><radialGradient
       fx="154.47501"
       fy="189.20599"
       cx="154.47501"
       cy="189.20599"
       r="11.1532"
       gradientUnits="userSpaceOnUse"
       gradientTransform="matrix(0.2794342,0,0,0.2692719,725.13824,24.761673)"
       spreadMethod="pad"
       id="radialGradient2674"><stop
         style="stop-opacity:1;stop-color:#ffffff"
         offset="0"
         id="stop2676" /><stop
         style="stop-opacity:1;stop-color:#ffffff"
         offset="0.227585"
         id="stop2678" /><stop
         style="stop-opacity:1;stop-color:#231f20"
         offset="1"
         id="stop2680" /></radialGradient><radialGradient
       fx="147.48599"
       fy="219.95399"
       cx="147.48599"
       cy="219.95399"
       r="13.1434"
       gradientUnits="userSpaceOnUse"
       gradientTransform="matrix(0.2794342,0,0,0.2794342,725.13824,19.154053)"
       spreadMethod="pad"
       id="radialGradient2696"><stop
         style="stop-opacity:1;stop-color:#ffffff"
         offset="0"
         id="stop2698" /><stop
         style="stop-opacity:1;stop-color:#f7f7f7"
         offset="0.571426"
         id="stop2700" /><stop
         style="stop-opacity:1;stop-color:#f7f7f7"
         offset="0.571426"
         id="stop2702" /><stop
         style="stop-opacity:1;stop-color:#231f20"
         offset="0.862625"
         id="stop2704" /><stop
         style="stop-opacity:1;stop-color:#231f20"
         offset="1"
         id="stop2706" /></radialGradient><radialGradient
       fx="169.539"
       fy="194.33299"
       cx="169.539"
       cy="194.33299"
       r="43.538601"
       gradientUnits="userSpaceOnUse"
       gradientTransform="matrix(0.2794342,0,0,0.2794342,725.13824,19.154053)"
       spreadMethod="pad"
       id="radialGradient2722"><stop
         style="stop-opacity:1;stop-color:#ffffff"
         offset="0"
         id="stop2724" /><stop
         style="stop-opacity:1;stop-color:#ffffff"
         offset="0.252747"
         id="stop2726" /><stop
         style="stop-opacity:1;stop-color:#a7a6a6"
         offset="0.346146"
         id="stop2728" /><stop
         style="stop-opacity:1;stop-color:#a7a6a6"
         offset="0.346146"
         id="stop2730" /><stop
         style="stop-opacity:1;stop-color:#7b7979"
         offset="0.412079"
         id="stop2732" /><stop
         style="stop-opacity:1;stop-color:#4f4c4c"
         offset="0.472519"
         id="stop2734" /><stop
         style="stop-opacity:1;stop-color:#4f4c4c"
         offset="1"
         id="stop2736" /></radialGradient><linearGradient
       x1="138.567"
       y1="169.02499"
       x2="117.007"
       y2="163.63499"
       gradientUnits="userSpaceOnUse"
       gradientTransform="matrix(0.2794342,0,0,0.2794342,725.13824,19.154053)"
       spreadMethod="pad"
       id="linearGradient2752"><stop
         style="stop-opacity:1;stop-color:#f4f4f4"
         offset="0"
         id="stop2754" /><stop
         style="stop-opacity:1;stop-color:#bdbcbc"
         offset="0.25824"
         id="stop2756" /><stop
         style="stop-opacity:1;stop-color:#f4f4f4"
         offset="0.648346"
         id="stop2758" /><stop
         style="stop-opacity:1;stop-color:#ffffff"
         offset="0.895599"
         id="stop2760" /><stop
         style="stop-opacity:1;stop-color:#ffffff"
         offset="1"
         id="stop2762" /></linearGradient><clipPath
       clipPathUnits="userSpaceOnUse"
       id="clipPath2770"><path
         d="M 734.331,28.346 L 813.543,28.346 L 813.543,84.22 L 734.331,84.22 L 734.331,28.346 z"
         id="path2772" /></clipPath><linearGradient
       x1="979.11902"
       y1="-114.084"
       x2="1205.83"
       y2="-390.298"
       gradientUnits="userSpaceOnUse"
       gradientTransform="matrix(0.1224823,0,0,0.1224823,643.66855,95.584473)"
       spreadMethod="pad"
       id="linearGradient2790"><stop
         style="stop-opacity:1;stop-color:#ffffff"
         offset="0"
         id="stop2792" /><stop
         style="stop-opacity:1;stop-color:#e3e2e2"
         offset="0.0689545"
         id="stop2794" /><stop
         style="stop-opacity:1;stop-color:#ffffff"
         offset="0.156494"
         id="stop2796" /><stop
         style="stop-opacity:1;stop-color:#d3d3d3"
         offset="0.329666"
         id="stop2798" /><stop
         style="stop-opacity:1;stop-color:#d3d3d3"
         offset="0.329666"
         id="stop2800" /><stop
         style="stop-opacity:1;stop-color:#ffffff"
         offset="0.502029"
         id="stop2802" /><stop
         style="stop-opacity:1;stop-color:#bbbaba"
         offset="0.979645"
         id="stop2804" /><stop
         style="stop-opacity:1;stop-color:#bbbaba"
         offset="0.979645"
         id="stop2806" /><stop
         style="stop-opacity:1;stop-color:#bbbaba"
         offset="1"
         id="stop2808" /></linearGradient><linearGradient
       x1="112.229"
       y1="200.091"
       x2="213.89799"
       y2="103.525"
       gradientUnits="userSpaceOnUse"
       gradientTransform="matrix(0.2794342,0,0,0.2794342,725.13824,19.154053)"
       spreadMethod="pad"
       id="linearGradient2824"><stop
         style="stop-opacity:1;stop-color:#dedede"
         offset="0"
         id="stop2826" /><stop
         style="stop-opacity:1;stop-color:#4f4c4c"
         offset="0.506897"
         id="stop2828" /><stop
         style="stop-opacity:1;stop-color:#dedede"
         offset="1"
         id="stop2830" /></linearGradient><linearGradient
       x1="161.073"
       y1="153.416"
       x2="121.641"
       y2="94.465103"
       gradientUnits="userSpaceOnUse"
       gradientTransform="matrix(0.2794342,0,0,0.2794342,725.13824,19.154053)"
       spreadMethod="pad"
       id="linearGradient2846"><stop
         style="stop-opacity:1;stop-color:#c8c7c8"
         offset="0"
         id="stop2848" /><stop
         style="stop-opacity:1;stop-color:#ffffff"
         offset="0.0999908"
         id="stop2850" /><stop
         style="stop-opacity:1;stop-color:#f0f0f0"
         offset="0.349197"
         id="stop2852" /><stop
         style="stop-opacity:1;stop-color:#ffffff"
         offset="0.538452"
         id="stop2854" /><stop
         style="stop-opacity:1;stop-color:#393536"
         offset="0.714279"
         id="stop2856" /><stop
         style="stop-opacity:1;stop-color:#ffffff"
         offset="0.84137"
         id="stop2858" /><stop
         style="stop-opacity:1;stop-color:#514e4f"
         offset="0.910339"
         id="stop2860" /><stop
         style="stop-opacity:1;stop-color:#868484"
         offset="1"
         id="stop2862" /></linearGradient><linearGradient
       x1="156.856"
       y1="122.493"
       x2="167.226"
       y2="116.385"
       gradientUnits="userSpaceOnUse"
       gradientTransform="matrix(0.2794342,0,0,0.2794342,725.13824,19.154053)"
       spreadMethod="pad"
       id="linearGradient2878"><stop
         style="stop-opacity:1;stop-color:#ffffff"
         offset="0"
         id="stop2880" /><stop
         style="stop-opacity:1;stop-color:#cfcece"
         offset="0.520676"
         id="stop2882" /><stop
         style="stop-opacity:1;stop-color:#cfcece"
         offset="0.520676"
         id="stop2884" /><stop
         style="stop-opacity:1;stop-color:#4f4c4c"
         offset="0.835159"
         id="stop2886" /><stop
         style="stop-opacity:1;stop-color:#393536"
         offset="1"
         id="stop2888" /></linearGradient><linearGradient
       x1="162.55701"
       y1="150.942"
       x2="173.545"
       y2="164.097"
       gradientUnits="userSpaceOnUse"
       gradientTransform="matrix(0.2794342,0,0,0.2794342,725.13824,19.154053)"
       spreadMethod="pad"
       id="linearGradient2904"><stop
         style="stop-opacity:1;stop-color:#ffffff"
         offset="0"
         id="stop2906" /><stop
         style="stop-opacity:1;stop-color:#ffffff"
         offset="0.208786"
         id="stop2908" /><stop
         style="stop-opacity:1;stop-color:#dedede"
         offset="0.5"
         id="stop2910" /><stop
         style="stop-opacity:1;stop-color:#dedede"
         offset="0.5"
         id="stop2912" /><stop
         style="stop-opacity:1;stop-color:#9c9a9b"
         offset="0.945053"
         id="stop2914" /><stop
         style="stop-opacity:1;stop-color:#959494"
         offset="1"
         id="stop2916" /></linearGradient><linearGradient
       x1="186.97501"
       y1="224.34599"
       x2="201.3"
       y2="209.69099"
       gradientUnits="userSpaceOnUse"
       gradientTransform="matrix(0.2794342,0,0,0.2794342,725.13824,19.154053)"
       spreadMethod="pad"
       id="linearGradient2932"><stop
         style="stop-opacity:1;stop-color:#231f20"
         offset="0"
         id="stop2934" /><stop
         style="stop-opacity:1;stop-color:#f4f4f4"
         offset="0.179306"
         id="stop2936" /><stop
         style="stop-opacity:1;stop-color:#444041"
         offset="0.5793"
         id="stop2938" /><stop
         style="stop-opacity:1;stop-color:#231f20"
         offset="1"
         id="stop2940" /></linearGradient><linearGradient
       x1="188.748"
       y1="163.34"
       x2="205.04401"
       y2="174.039"
       gradientUnits="userSpaceOnUse"
       gradientTransform="matrix(0.2794342,0,0,0.2794342,725.13824,19.154053)"
       spreadMethod="pad"
       id="linearGradient2956"><stop
         style="stop-opacity:1;stop-color:#231f20"
         offset="0"
         id="stop2958" /><stop
         style="stop-opacity:1;stop-color:#f4f4f4"
         offset="0.179306"
         id="stop2960" /><stop
         style="stop-opacity:1;stop-color:#444041"
         offset="0.5793"
         id="stop2962" /><stop
         style="stop-opacity:1;stop-color:#231f20"
         offset="1"
         id="stop2964" /></linearGradient><linearGradient
       x1="201.76199"
       y1="215.47501"
       x2="223.172"
       y2="215.47501"
       gradientUnits="userSpaceOnUse"
       gradientTransform="matrix(0.2794342,0,0,0.2794342,725.13824,19.154053)"
       spreadMethod="pad"
       id="linearGradient2980"><stop
         style="stop-opacity:1;stop-color:#656263"
         offset="0"
         id="stop2982" /><stop
         style="stop-opacity:1;stop-color:#d3d3d3"
         offset="0.285706"
         id="stop2984" /><stop
         style="stop-opacity:1;stop-color:#656263"
         offset="0.532959"
         id="stop2986" /><stop
         style="stop-opacity:1;stop-color:#393536"
         offset="0.75824"
         id="stop2988" /><stop
         style="stop-opacity:1;stop-color:#231f20"
         offset="1"
         id="stop2990" /></linearGradient><linearGradient
       x1="114.376"
       y1="104.141"
       x2="163.744"
       y2="104.141"
       gradientUnits="userSpaceOnUse"
       gradientTransform="matrix(0.2794342,0,0,0.2794342,725.13824,19.154053)"
       spreadMethod="pad"
       id="linearGradient3006"><stop
         style="stop-opacity:1;stop-color:#231f20"
         offset="0"
         id="stop3008" /><stop
         style="stop-opacity:1;stop-color:#9e9d9d"
         offset="0.179306"
         id="stop3010" /><stop
         style="stop-opacity:1;stop-color:#444041"
         offset="0.5793"
         id="stop3012" /><stop
         style="stop-opacity:1;stop-color:#231f20"
         offset="1"
         id="stop3014" /></linearGradient><linearGradient
       x1="177.19299"
       y1="123.087"
       x2="199.27299"
       y2="123.087"
       gradientUnits="userSpaceOnUse"
       gradientTransform="matrix(0.2794342,0,0,0.2794342,725.13824,19.154053)"
       spreadMethod="pad"
       id="linearGradient3030"><stop
         style="stop-opacity:1;stop-color:#231f20"
         offset="0"
         id="stop3032" /><stop
         style="stop-opacity:1;stop-color:#9e9d9d"
         offset="0.179306"
         id="stop3034" /><stop
         style="stop-opacity:1;stop-color:#444041"
         offset="0.5793"
         id="stop3036" /><stop
         style="stop-opacity:1;stop-color:#231f20"
         offset="1"
         id="stop3038" /></linearGradient><linearGradient
       x1="191.97701"
       y1="120.12"
       x2="232.533"
       y2="120.12"
       gradientUnits="userSpaceOnUse"
       gradientTransform="matrix(0.2794342,0,0,0.2794342,725.13824,19.154053)"
       spreadMethod="pad"
       id="linearGradient3054"><stop
         style="stop-opacity:1;stop-color:#231f20"
         offset="0"
         id="stop3056" /><stop
         style="stop-opacity:1;stop-color:#9e9d9d"
         offset="0.179306"
         id="stop3058" /><stop
         style="stop-opacity:1;stop-color:#444041"
         offset="0.5793"
         id="stop3060" /><stop
         style="stop-opacity:1;stop-color:#231f20"
         offset="1"
         id="stop3062" /></linearGradient><linearGradient
       x1="112.208"
       y1="159.73399"
       x2="154.483"
       y2="159.73399"
       gradientUnits="userSpaceOnUse"
       gradientTransform="matrix(0.2794342,0,0,0.2794342,725.13824,19.154053)"
       spreadMethod="pad"
       id="linearGradient3078"><stop
         style="stop-opacity:1;stop-color:#7b7979"
         offset="0"
         id="stop3080" /><stop
         style="stop-opacity:1;stop-color:#d3d3d3"
         offset="0.179306"
         id="stop3082" /><stop
         style="stop-opacity:1;stop-color:#231f20"
         offset="1"
         id="stop3084" /></linearGradient><linearGradient
       x1="113.141"
       y1="185.77299"
       x2="127.816"
       y2="185.77299"
       gradientUnits="userSpaceOnUse"
       gradientTransform="matrix(0.2794342,0,0,0.2794342,725.13824,19.154053)"
       spreadMethod="pad"
       id="linearGradient3100"><stop
         style="stop-opacity:1;stop-color:#444041"
         offset="0"
         id="stop3102" /><stop
         style="stop-opacity:1;stop-color:#d3d3d3"
         offset="0.179306"
         id="stop3104" /><stop
         style="stop-opacity:1;stop-color:#231f20"
         offset="1"
         id="stop3106" /></linearGradient><linearGradient
       x1="100.288"
       y1="163.52699"
       x2="110.19"
       y2="163.52699"
       gradientUnits="userSpaceOnUse"
       gradientTransform="matrix(0.2794342,0,0,0.2794342,725.13824,19.154053)"
       spreadMethod="pad"
       id="linearGradient3122"><stop
         style="stop-opacity:1;stop-color:#7b7979"
         offset="0"
         id="stop3124" /><stop
         style="stop-opacity:1;stop-color:#bdbcbc"
         offset="0.179306"
         id="stop3126" /><stop
         style="stop-opacity:1;stop-color:#444041"
         offset="1"
         id="stop3128" /></linearGradient><linearGradient
       x1="152.355"
       y1="224.87801"
       x2="153.43201"
       y2="222.50999"
       gradientUnits="userSpaceOnUse"
       gradientTransform="matrix(0.2794342,0,0,0.2794342,725.13824,19.154053)"
       spreadMethod="pad"
       id="linearGradient3144"><stop
         style="stop-opacity:1;stop-color:#ffffff"
         offset="0"
         id="stop3146" /><stop
         style="stop-opacity:1;stop-color:#eeeeee"
         offset="0.115372"
         id="stop3148" /><stop
         style="stop-opacity:1;stop-color:#5a5758"
         offset="0.906586"
         id="stop3150" /><stop
         style="stop-opacity:1;stop-color:#5a5758"
         offset="1"
         id="stop3152" /></linearGradient><clipPath
       clipPathUnits="userSpaceOnUse"
       id="clipPath3160"><path
         d="M 734.331,28.346 L 813.543,28.346 L 813.543,84.22 L 734.331,84.22 L 734.331,28.346 z"
         id="path3162" /></clipPath><linearGradient
       x1="138.748"
       y1="200.446"
       x2="178.752"
       y2="200.446"
       gradientUnits="userSpaceOnUse"
       gradientTransform="matrix(0.2794342,0,0,0.2794342,725.13824,19.154053)"
       spreadMethod="pad"
       id="linearGradient3180"><stop
         style="stop-opacity:1;stop-color:#ffffff"
         offset="0"
         id="stop3182" /><stop
         style="stop-opacity:1;stop-color:#231f20"
         offset="0.979645"
         id="stop3184" /><stop
         style="stop-opacity:1;stop-color:#231f20"
         offset="0.979645"
         id="stop3186" /><stop
         style="stop-opacity:1;stop-color:#231f20"
         offset="1"
         id="stop3188" /></linearGradient><linearGradient
       x1="136.133"
       y1="101.237"
       x2="150.961"
       y2="153.681"
       gradientUnits="userSpaceOnUse"
       gradientTransform="matrix(0.2794342,0,0,0.2794342,725.13824,19.154053)"
       spreadMethod="pad"
       id="linearGradient3204"><stop
         style="stop-opacity:1;stop-color:#e9e9e9"
         offset="0"
         id="stop3206" /><stop
         style="stop-opacity:1;stop-color:#5a5758"
         offset="0.0659332"
         id="stop3208" /><stop
         style="stop-opacity:1;stop-color:#918f90"
         offset="0.351715"
         id="stop3210" /><stop
         style="stop-opacity:1;stop-color:#b7b5b6"
         offset="0.604385"
         id="stop3212" /><stop
         style="stop-opacity:1;stop-color:#706d6e"
         offset="0.958618"
         id="stop3214" /><stop
         style="stop-opacity:1;stop-color:#b2b1b1"
         offset="1"
         id="stop3216" /></linearGradient><clipPath
       clipPathUnits="userSpaceOnUse"
       id="clipPath3224"><path
         d="M 734.331,28.346 L 813.543,28.346 L 813.543,84.22 L 734.331,84.22 L 734.331,28.346 z"
         id="path3226" /></clipPath><linearGradient
       inkscape:collect="always"
       xlink:href="#linearGradient2508"
       id="linearGradient3421"
       gradientUnits="userSpaceOnUse"
       gradientTransform="matrix(0.2794342,0,0,0.2794342,725.13824,19.154053)"
       spreadMethod="pad"
       x1="231.088"
       y1="213.375"
       x2="188.729"
       y2="148.49699" /><linearGradient
       inkscape:collect="always"
       xlink:href="#linearGradient2534"
       id="linearGradient3423"
       gradientUnits="userSpaceOnUse"
       gradientTransform="matrix(0.2794342,0,0,0.2794342,725.13824,19.154053)"
       spreadMethod="pad"
       x1="112.045"
       y1="166.30099"
       x2="119.725"
       y2="183.89101" /><linearGradient
       inkscape:collect="always"
       xlink:href="#linearGradient2560"
       id="linearGradient3425"
       gradientUnits="userSpaceOnUse"
       gradientTransform="matrix(0.2794342,0,0,0.2794342,725.13824,19.154053)"
       spreadMethod="pad"
       x1="216.937"
       y1="208.54201"
       x2="207.509"
       y2="209.433" /><linearGradient
       inkscape:collect="always"
       xlink:href="#linearGradient2586"
       id="linearGradient3427"
       gradientUnits="userSpaceOnUse"
       gradientTransform="matrix(0.2794342,0,0,0.2794342,725.13824,19.154053)"
       spreadMethod="pad"
       x1="131.957"
       y1="157.35001"
       x2="139.603"
       y2="174.862" /><linearGradient
       inkscape:collect="always"
       xlink:href="#linearGradient2610"
       id="linearGradient3429"
       gradientUnits="userSpaceOnUse"
       gradientTransform="matrix(0.2794342,0,0,0.2794342,725.13824,19.154053)"
       spreadMethod="pad"
       x1="207.619"
       y1="73.150398"
       x2="68.774696"
       y2="214.39999" /><radialGradient
       inkscape:collect="always"
       xlink:href="#radialGradient2646"
       id="radialGradient3431"
       gradientUnits="userSpaceOnUse"
       gradientTransform="matrix(0.2794342,0,0,0.2794342,725.13824,19.154053)"
       spreadMethod="pad"
       cx="147.383"
       cy="196.201"
       fx="147.383"
       fy="196.201"
       r="31.581499" /><radialGradient
       inkscape:collect="always"
       xlink:href="#radialGradient2674"
       id="radialGradient3433"
       gradientUnits="userSpaceOnUse"
       gradientTransform="matrix(0.2794342,0,0,0.2692719,725.13824,24.761673)"
       spreadMethod="pad"
       cx="154.47501"
       cy="189.20599"
       fx="154.47501"
       fy="189.20599"
       r="11.1532" /><radialGradient
       inkscape:collect="always"
       xlink:href="#radialGradient2696"
       id="radialGradient3435"
       gradientUnits="userSpaceOnUse"
       gradientTransform="matrix(0.2794342,0,0,0.2794342,725.13824,19.154053)"
       spreadMethod="pad"
       cx="147.48599"
       cy="219.95399"
       fx="147.48599"
       fy="219.95399"
       r="13.1434" /><radialGradient
       inkscape:collect="always"
       xlink:href="#radialGradient2722"
       id="radialGradient3437"
       gradientUnits="userSpaceOnUse"
       gradientTransform="matrix(0.2794342,0,0,0.2794342,725.13824,19.154053)"
       spreadMethod="pad"
       cx="169.539"
       cy="194.33299"
       fx="169.539"
       fy="194.33299"
       r="43.538601" /><linearGradient
       inkscape:collect="always"
       xlink:href="#linearGradient2752"
       id="linearGradient3439"
       gradientUnits="userSpaceOnUse"
       gradientTransform="matrix(0.2794342,0,0,0.2794342,725.13824,19.154053)"
       spreadMethod="pad"
       x1="138.567"
       y1="169.02499"
       x2="117.007"
       y2="163.63499" /><linearGradient
       inkscape:collect="always"
       xlink:href="#linearGradient2790"
       id="linearGradient3441"
       gradientUnits="userSpaceOnUse"
       gradientTransform="matrix(0.1224823,0,0,0.1224823,643.66855,95.584473)"
       spreadMethod="pad"
       x1="979.11902"
       y1="-114.084"
       x2="1205.83"
       y2="-390.298" /><linearGradient
       inkscape:collect="always"
       xlink:href="#linearGradient2824"
       id="linearGradient3443"
       gradientUnits="userSpaceOnUse"
       gradientTransform="matrix(0.2794342,0,0,0.2794342,725.13824,19.154053)"
       spreadMethod="pad"
       x1="112.229"
       y1="200.091"
       x2="213.89799"
       y2="103.525" /><linearGradient
       inkscape:collect="always"
       xlink:href="#linearGradient2846"
       id="linearGradient3445"
       gradientUnits="userSpaceOnUse"
       gradientTransform="matrix(0.2794342,0,0,0.2794342,725.13824,19.154053)"
       spreadMethod="pad"
       x1="161.073"
       y1="153.416"
       x2="121.641"
       y2="94.465103" /><linearGradient
       inkscape:collect="always"
       xlink:href="#linearGradient2878"
       id="linearGradient3447"
       gradientUnits="userSpaceOnUse"
       gradientTransform="matrix(0.2794342,0,0,0.2794342,725.13824,19.154053)"
       spreadMethod="pad"
       x1="156.856"
       y1="122.493"
       x2="167.226"
       y2="116.385" /><linearGradient
       inkscape:collect="always"
       xlink:href="#linearGradient2904"
       id="linearGradient3449"
       gradientUnits="userSpaceOnUse"
       gradientTransform="matrix(0.2794342,0,0,0.2794342,725.13824,19.154053)"
       spreadMethod="pad"
       x1="162.55701"
       y1="150.942"
       x2="173.545"
       y2="164.097" /><linearGradient
       inkscape:collect="always"
       xlink:href="#linearGradient2932"
       id="linearGradient3451"
       gradientUnits="userSpaceOnUse"
       gradientTransform="matrix(0.2794342,0,0,0.2794342,725.13824,19.154053)"
       spreadMethod="pad"
       x1="186.97501"
       y1="224.34599"
       x2="201.3"
       y2="209.69099" /><linearGradient
       inkscape:collect="always"
       xlink:href="#linearGradient2956"
       id="linearGradient3453"
       gradientUnits="userSpaceOnUse"
       gradientTransform="matrix(0.2794342,0,0,0.2794342,725.13824,19.154053)"
       spreadMethod="pad"
       x1="188.748"
       y1="163.34"
       x2="205.04401"
       y2="174.039" /><linearGradient
       inkscape:collect="always"
       xlink:href="#linearGradient2980"
       id="linearGradient3455"
       gradientUnits="userSpaceOnUse"
       gradientTransform="matrix(0.2794342,0,0,0.2794342,725.13824,19.154053)"
       spreadMethod="pad"
       x1="201.76199"
       y1="215.47501"
       x2="223.172"
       y2="215.47501" /><linearGradient
       inkscape:collect="always"
       xlink:href="#linearGradient3006"
       id="linearGradient3457"
       gradientUnits="userSpaceOnUse"
       gradientTransform="matrix(0.2794342,0,0,0.2794342,725.13824,19.154053)"
       spreadMethod="pad"
       x1="114.376"
       y1="104.141"
       x2="163.744"
       y2="104.141" /><linearGradient
       inkscape:collect="always"
       xlink:href="#linearGradient3030"
       id="linearGradient3459"
       gradientUnits="userSpaceOnUse"
       gradientTransform="matrix(0.2794342,0,0,0.2794342,725.13824,19.154053)"
       spreadMethod="pad"
       x1="177.19299"
       y1="123.087"
       x2="199.27299"
       y2="123.087" /><linearGradient
       inkscape:collect="always"
       xlink:href="#linearGradient3054"
       id="linearGradient3461"
       gradientUnits="userSpaceOnUse"
       gradientTransform="matrix(0.2794342,0,0,0.2794342,725.13824,19.154053)"
       spreadMethod="pad"
       x1="191.97701"
       y1="120.12"
       x2="232.533"
       y2="120.12" /><linearGradient
       inkscape:collect="always"
       xlink:href="#linearGradient3078"
       id="linearGradient3463"
       gradientUnits="userSpaceOnUse"
       gradientTransform="matrix(0.2794342,0,0,0.2794342,725.13824,19.154053)"
       spreadMethod="pad"
       x1="112.208"
       y1="159.73399"
       x2="154.483"
       y2="159.73399" /><linearGradient
       inkscape:collect="always"
       xlink:href="#linearGradient3100"
       id="linearGradient3465"
       gradientUnits="userSpaceOnUse"
       gradientTransform="matrix(0.2794342,0,0,0.2794342,725.13824,19.154053)"
       spreadMethod="pad"
       x1="113.141"
       y1="185.77299"
       x2="127.816"
       y2="185.77299" /><linearGradient
       inkscape:collect="always"
       xlink:href="#linearGradient3122"
       id="linearGradient3467"
       gradientUnits="userSpaceOnUse"
       gradientTransform="matrix(0.2794342,0,0,0.2794342,725.13824,19.154053)"
       spreadMethod="pad"
       x1="100.288"
       y1="163.52699"
       x2="110.19"
       y2="163.52699" /><linearGradient
       inkscape:collect="always"
       xlink:href="#linearGradient3144"
       id="linearGradient3469"
       gradientUnits="userSpaceOnUse"
       gradientTransform="matrix(0.2794342,0,0,0.2794342,725.13824,19.154053)"
       spreadMethod="pad"
       x1="152.355"
       y1="224.87801"
       x2="153.43201"
       y2="222.50999" /><linearGradient
       inkscape:collect="always"
       xlink:href="#linearGradient3180"
       id="linearGradient3471"
       gradientUnits="userSpaceOnUse"
       gradientTransform="matrix(0.2794342,0,0,0.2794342,725.13824,19.154053)"
       spreadMethod="pad"
       x1="138.748"
       y1="200.446"
       x2="178.752"
       y2="200.446" /><linearGradient
       inkscape:collect="always"
       xlink:href="#linearGradient3204"
       id="linearGradient3473"
       gradientUnits="userSpaceOnUse"
       gradientTransform="matrix(0.2794342,0,0,0.2794342,725.13824,19.154053)"
       spreadMethod="pad"
       x1="136.133"
       y1="101.237"
       x2="150.961"
       y2="153.681" /></defs><sodipodi:namedview
     inkscape:window-height="750"
     inkscape:window-width="1280"
     inkscape:pageshadow="2"
     inkscape:pageopacity="0.0"
     guidetolerance="10.0"
     gridtolerance="10.0"
     objecttolerance="10.0"
     borderopacity="1.0"
     bordercolor="#666666"
     pagecolor="#ffffff"
     id="base"
     showgrid="false"
     inkscape:zoom="1"
     inkscape:cx="49.506874"
     inkscape:cy="34.877579"
     inkscape:window-x="-8"
     inkscape:window-y="-8"
     inkscape:current-layer="g2452" /><g
     id="g2452"
     inkscape:groupmode="layer"
     inkscape:label="peu"
     transform="matrix(1.25,0,0,-1.25,-774.54957,206.1884)"><g
       id="g3256"
       transform="matrix(3.8554447,0,0,3.8554447,-2209.9329,-160.61495)"><g
         id="g2484"><g
           clip-path="url(#clipPath2488)"
           id="g2486"><g
             transform="translate(790.3613,47.4643)"
             id="g2492"><path
               id="path2494"
               style="fill:#231f20;fill-opacity:1;fill-rule:nonzero;stroke:none"
               d="M 0,0 C -0.734,2.189 -3.693,7.684 -6.019,10.776 C -6.522,11.45 -6.334,11.796 -6.065,12.014 C -5.797,12.232 -4.931,12.98 -3.907,14.152 C -2.872,15.335 -2.623,16.673 -3.355,18.608 C -4.083,20.525 -6.488,25.081 -6.993,26.591 C -7.572,28.331 -7.63,29.106 -7.281,30.054 C -6.87,31.171 -6.27,31.218 -5.818,31.211 C -5.575,31.206 -5.393,30.95 -5.392,30.833 C -5.38,30.341 -5.355,29.733 -4.875,28.461 C -4.108,26.436 -2.141,25.113 -1.52,24.846 C -1.088,24.659 -1.01,24.994 -1.048,25.156 C -1.088,25.316 -1.728,27.826 -2.209,29.712 C -2.711,31.689 -2.964,32.118 -3.411,32.537 C -4.123,33.213 -5.206,33.575 -6.122,33.54 C -8.165,33.46 -9.068,31.486 -9.18,31.303 C -9.277,31.139 -9.315,31.024 -9.523,31.168 C -10.107,31.576 -11.813,33.001 -11.97,33.893 C -12.062,34.421 -12.154,34.494 -12.681,34.699 C -14.731,35.499 -16.507,36.202 -18.473,36.549 C -19.261,36.688 -19.303,36.756 -20.223,36.585 C -21.785,36.293 -22.743,35.933 -23.916,35.318 C -24.563,34.975 -24.638,34.745 -24.764,34.583 C -24.861,34.455 -24.966,34.302 -25.2,34.226 C -25.59,34.099 -27.039,33.559 -27.536,33.27 C -27.846,33.09 -28.015,32.9 -27.856,32.55 C -27.578,31.932 -26.744,30.644 -26.38,30.32 C -26.159,30.125 -25.605,29.99 -25.473,29.962 C -25.342,29.93 -25.249,29.892 -25.2,29.99 C -25.146,30.098 -25.126,30.255 -24.866,30.437 C -24.477,30.71 -23.754,30.899 -23.369,30.933 C -23.074,30.958 -22.894,30.967 -22.742,30.858 C -22.591,30.747 -22.242,30.375 -22.121,30.001 C -22,29.627 -22.076,29.487 -22.285,29.399 C -22.495,29.311 -23.123,29.169 -23.851,29.11 C -24.576,29.051 -24.783,29.252 -24.834,29.297 C -24.872,29.338 -24.968,29.4 -25.042,29.302 C -25.164,29.132 -25.347,29.022 -25.631,28.881 C -25.792,28.803 -25.878,28.632 -25.725,28.365 C -25.263,27.566 -24.654,26.668 -24.089,26.497 C -23.639,26.357 -23.398,26.504 -22.892,26.865 C -22.44,27.192 -22.146,27.19 -22.022,27.099 C -21.886,26.997 -21.613,26.766 -21.683,26.535 C -21.803,26.134 -22.612,25.177 -22.767,24.98 C -22.913,24.794 -23.051,24.694 -23.312,24.819 C -23.695,25.002 -29.5,28.014 -30.276,28.316 C -31.121,28.641 -31.676,28.72 -32.508,28.758 C -33.181,28.788 -34.079,28.723 -34.641,28.621 C -35.051,28.545 -35.284,28.351 -35.666,27.998 C -36.192,27.512 -36.747,26.891 -36.799,26.373 C -36.837,26 -36.422,25.24 -36.377,25.187 C -36.332,25.13 -36.255,25.025 -36.03,25.05 C -35.801,25.075 -35.227,25.374 -34.541,25.255 C -33.92,25.147 -33.857,24.659 -33.825,24.285 C -33.82,24.221 -33.742,24.076 -33.566,24.079 C -33.319,24.082 -32.932,24.074 -32.485,23.86 C -31.934,23.599 -30.844,22.754 -30.676,22.567 C -30.54,22.414 -30.549,22.276 -30.808,22.251 C -32.193,22.128 -34.3,21.717 -35.274,21.397 C -35.966,21.171 -36.782,20.86 -37.07,20.359 C -37.397,19.791 -37.811,18.88 -37.928,18.229 C -38.047,17.582 -37.354,16.779 -37.169,16.6 C -37.044,16.479 -36.959,16.403 -36.738,16.524 C -36.4,16.718 -35.581,17.223 -34.797,17.27 C -34.321,17.297 -34.131,16.849 -34.017,16.685 C -33.902,16.523 -33.792,16.635 -33.366,16.75 C -32.611,16.953 -28.399,16.876 -26.912,16.806 C -26.232,16.777 -25.286,16.676 -24.59,16.292 C -23.898,15.911 -22.645,14.728 -22.645,14.728 C -22.645,14.728 -24.309,11.938 -25.205,10.284 C -26.035,8.756 -26.64,7.608 -26.939,6.943 C -27.214,6.335 -27.438,5.473 -27.389,4.794 C -27.314,3.8 -27.288,3.29 -27.3,2.84 C -27.313,2.444 -27.682,2.401 -28.205,2.272 C -28.927,2.088 -30.366,1.956 -31.532,1.669 C -32.592,1.405 -32.987,1.155 -33.179,0.336 C -33.327,-0.302 -33.546,-1.887 -33.572,-2.622 C -33.584,-2.918 -33.589,-3.063 -33.213,-2.985 C -32.997,-2.943 -32.373,-2.853 -31.579,-2.795 C -30.595,-2.72 -29.53,-2.735 -28.707,-2.733 C -27.192,-2.724 -22.72,-2.985 -22.419,-3.015 C -22.037,-3.053 -21.96,-3.006 -21.985,-2.739 C -22.022,-2.387 -22.086,-1.263 -22.102,-0.593 C -22.121,0.08 -22.222,0.761 -21.616,1.415 C -21.013,2.071 -16.455,7.153 -16.203,7.414 C -15.982,7.635 -15.834,7.871 -15.496,7.561 C -15.153,7.246 -11.401,4.541 -10.638,3.988 C -9.876,3.435 -9.167,3.247 -8.299,3.235 C -7.68,3.224 -7.507,2.144 -8.034,2.042 C -8.575,1.939 -9.398,1.769 -9.974,1.638 C -10.862,1.43 -11.134,1.141 -11.401,0.542 C -11.63,0.037 -11.881,-2.446 -11.889,-2.661 C -11.896,-2.815 -11.905,-3.039 -11.661,-2.988 C -10.566,-2.766 -8.83,-2.703 -6.973,-2.761 C -4.842,-2.827 -2.772,-3.003 -2.482,-3.02 C -2.168,-3.042 -2.138,-2.995 -1.98,-2.75 C -1.711,-2.329 -0.909,-1.402 -0.211,-0.83 C 0.138,-0.546 0.145,-0.428 0,0 M -8.187,15.013 C -8.728,14.836 -9.08,14.989 -9.343,15.24 C -9.608,15.492 -11.758,18.08 -12.45,18.871 C -12.798,19.27 -13.059,20.181 -12.01,20.569 C -11.15,20.882 -9.608,21.377 -9.18,21.603 C -8.751,21.829 -8.526,22.061 -8.485,22.5 C -8.451,22.941 -8.447,23.436 -8.445,23.601 C -8.442,23.767 -8.227,23.9 -8.117,23.705 C -8.041,23.567 -7.655,22.814 -7.184,21.943 C -6.48,20.635 -5.592,19 -5.303,18.297 C -5.03,17.626 -5.164,17.114 -5.58,16.598 C -6.144,15.9 -7.791,15.142 -8.187,15.013" /></g></g></g><g
         id="g2496"><g
           id="g2498"><g
             id="g2504"><g
               id="g2506"><path
                 id="path2520"
                 style="fill:url(#linearGradient3421);stroke:none"
                 d="M 784.373,80.601 C 782.695,80.609 780.995,78.664 781.319,75.764 L 781.319,75.764 C 781.52,73.988 781.791,73.179 782.317,72.031 L 782.317,72.031 C 782.579,71.465 785.443,66.01 785.576,65.433 L 785.576,65.433 C 785.754,64.607 785.596,64.091 784.962,63.514 L 784.962,63.514 C 784.261,62.88 783.102,62.16 782.32,61.891 L 782.32,61.891 C 782.134,61.828 781.964,61.796 781.81,61.796 L 781.81,61.796 C 781.633,61.796 781.19,61.857 780.352,62.889 L 780.352,62.889 L 784.054,57.95 C 783.581,58.582 783.337,59.059 783.423,59.477 L 783.423,59.477 C 783.508,59.89 784.183,60.34 784.957,60.951 L 784.957,60.951 C 785.735,61.554 786.595,62.317 786.989,63.348 L 786.989,63.348 C 787.104,63.642 787.154,63.946 787.154,64.265 L 787.154,64.265 C 787.154,65.25 786.677,66.365 786.102,67.575 L 786.102,67.575 C 785.362,69.143 783.264,72.566 782.626,74.965 L 782.626,74.965 C 782.471,75.554 782.4,76.083 782.4,76.554 L 782.4,76.554 C 782.4,77.914 782.979,78.776 783.687,79.07 L 783.687,79.07 C 784.026,79.206 784.331,79.253 784.583,79.253 L 784.583,79.253 C 784.973,79.253 785.244,79.144 785.354,79.087 L 785.354,79.087 C 785.552,78.974 785.582,78.737 785.582,78.55 L 785.582,78.55 L 785.582,78.509 C 785.58,78.467 785.576,78.366 785.576,78.216 L 785.576,78.216 C 785.576,77.657 785.651,76.427 786.302,75.233 L 786.302,75.233 C 787.126,73.718 788.507,72.872 789.051,72.644 L 789.051,72.644 C 789.098,72.624 787.779,77.509 787.543,78.43 L 787.543,78.43 C 787.269,79.504 786.512,80.58 784.393,80.601 L 784.393,80.601 C 784.391,80.602 784.388,80.602 784.385,80.602 L 784.385,80.602 C 784.382,80.602 784.378,80.602 784.373,80.601" /></g></g></g></g><g
         id="g2522"><g
           id="g2524"><g
             id="g2530"><g
               id="g2532"><path
                 id="path2546"
                 style="fill:url(#linearGradient3423);stroke:none"
                 d="M 761.337,69.748 C 761.66,69.424 761.098,69.442 759.392,69.295 L 759.392,69.295 C 757.653,69.143 755.903,68.792 754.987,68.449 L 754.987,68.449 C 754.318,68.197 753.913,68.018 753.645,67.404 L 753.645,67.404 C 753.645,67.404 753.088,66.194 753.014,65.716 L 753.014,65.716 C 752.977,65.489 752.99,65.36 753.108,65.17 L 753.108,65.17 C 753.173,65.068 753.333,68.323 757.533,68.537 L 757.533,68.537 C 761.249,68.727 762.163,69.116 761.437,69.827 L 761.437,69.827 L 761.337,69.748 z" /></g></g></g></g><g
         id="g2548"><g
           id="g2550"><g
             id="g2556"><g
               id="g2558"><path
                 id="path2572"
                 style="fill:url(#linearGradient3425);stroke:none"
                 d="M 784.564,79.105 C 784.337,79.105 784.064,79.064 783.756,78.936 L 783.756,78.936 C 783.171,78.699 782.633,77.964 782.608,76.713 L 782.608,76.713 L 782.615,76.428 C 782.615,76.428 782.695,77.279 782.845,77.679 L 782.845,77.679 C 783.218,78.763 783.913,78.988 784.391,78.988 L 784.391,78.988 C 784.708,78.988 784.854,78.912 784.99,78.768 L 784.99,78.768 C 785.095,78.653 785.166,78.547 785.179,78.384 L 785.179,78.384 C 785.191,77.9 785.209,77.344 785.679,76.09 L 785.679,76.09 C 785.708,76.014 785.738,75.938 785.77,75.865 L 785.77,75.865 C 785.372,76.877 785.323,77.818 785.323,78.297 L 785.323,78.297 C 785.322,78.451 785.33,78.63 785.33,78.631 L 785.33,78.631 C 785.332,78.997 784.93,79.105 784.569,79.105 L 784.569,79.105 C 784.567,79.105 784.566,79.105 784.564,79.105" /></g></g></g></g><g
         id="g2574"><g
           id="g2576"><g
             id="g2582"><g
               id="g2584"><path
                 id="path2596"
                 style="fill:url(#linearGradient3427);stroke:none"
                 d="M 761.483,69.606 C 761.61,69.263 761.108,69.344 759.402,69.196 L 759.402,69.196 C 757.663,69.044 755.912,68.708 754.996,68.364 L 754.996,68.364 C 754.325,68.111 753.921,67.934 753.653,67.318 L 753.653,67.318 C 753.653,67.318 753.096,66.108 753.02,65.63 L 753.02,65.63 C 752.985,65.405 753.041,65.273 753.16,65.084 L 753.16,65.084 C 753.338,64.803 753.452,64.742 753.712,64.892 L 753.712,64.892 C 753.923,65.012 754.852,65.539 755.46,65.55 L 755.46,65.55 C 756.016,65.563 756.259,65.224 756.341,64.935 L 756.341,64.935 C 756.391,64.755 756.636,64.848 756.678,64.859 L 756.678,64.859 C 756.922,64.92 757.159,64.993 758.027,65.057 L 758.027,65.057 C 759.059,65.132 763.085,65.097 764.562,65.063 L 764.562,65.063 C 765.891,65.032 771.125,60.926 771.203,60.905 L 771.203,60.905 L 771.466,61.437 C 769.688,62.906 763.083,68.144 761.485,69.705 L 761.485,69.705 L 761.483,69.606 z" /></g></g></g></g><g
         id="g2598"><g
           id="g2600"><g
             id="g2606"><g
               id="g2608"><path
                 id="path2632"
                 style="fill:url(#linearGradient3429);stroke:none"
                 d="M 756.198,75.679 C 755.87,75.638 755.646,75.622 755.301,75.3 L 755.301,75.3 C 754.961,74.984 754.37,74.554 754.141,74.117 L 754.141,74.117 C 754.053,73.951 754.009,73.836 754.032,73.686 L 754.032,73.686 C 754.066,73.472 754.166,73.248 754.224,73.178 L 754.224,73.178 C 754.286,73.103 754.37,73.068 754.544,73.116 L 754.544,73.116 C 754.896,73.211 755.522,73.293 755.901,73.283 L 755.901,73.283 C 756.171,73.278 756.56,73.21 756.738,73.006 L 756.738,73.006 C 756.977,72.728 756.961,72.499 756.968,72.379 L 756.968,72.379 C 756.969,72.327 756.988,72.226 757.103,72.209 L 757.103,72.209 C 757.34,72.176 757.598,72.176 757.873,72.114 L 757.873,72.114 C 758.645,71.945 759.685,71.286 760.655,70.394 L 760.655,70.394 C 762.534,68.659 764.87,66.064 767.11,64.275 L 767.11,64.275 C 768.244,63.374 770.102,62.244 770.716,61.629 L 770.716,61.629 C 770.829,61.515 770.584,61.43 770.398,61.525 L 770.398,61.525 C 770.313,61.567 769.257,62.395 769.027,62.453 L 769.027,62.453 C 768.831,62.501 768.627,62.453 768.426,62.172 L 768.426,62.172 C 766.669,59.745 764.647,55.671 763.823,53.74 L 763.823,53.74 C 763.63,53.281 763.464,52.705 763.489,52.185 L 763.489,52.185 C 763.515,51.663 763.57,50.622 763.579,50.133 L 763.579,50.133 C 763.584,49.655 763.467,49.462 762.898,49.371 L 762.898,49.371 C 761.854,49.21 759.535,48.793 758.944,48.648 L 758.944,48.648 C 758.499,48.541 758.126,48.338 757.954,47.822 L 757.954,47.822 C 757.707,47.074 757.508,45.923 757.49,45.643 L 757.49,45.643 C 757.478,45.47 757.539,45.35 757.741,45.4 L 757.741,45.4 C 758.591,45.614 759.906,45.787 761.717,45.751 L 761.717,45.751 C 763.529,45.712 766.758,45.393 767.176,45.355 L 767.176,45.355 C 767.321,45.343 767.495,45.341 767.493,45.508 L 767.493,45.508 C 767.489,45.701 767.443,46.575 767.429,47.691 L 767.429,47.691 C 767.418,48.806 768.389,49.624 769.735,51.019 L 769.735,51.019 C 771.084,52.419 774.337,55.626 774.46,55.738 L 774.46,55.738 C 774.541,55.819 774.628,55.897 774.464,56.057 L 774.464,56.057 C 774.236,56.275 773.198,57.346 773.08,57.469 L 773.08,57.469 C 773.021,57.535 772.888,57.701 772.94,57.758 L 772.94,57.758 C 772.988,57.817 773.113,57.722 773.273,57.59 L 773.273,57.59 C 773.902,57.079 780.779,51.541 781.258,51.326 L 781.258,51.326 C 781.748,51.112 782.046,51.048 782.485,50.971 L 782.485,50.971 C 782.815,50.911 783.104,50.423 783.151,50.06 L 783.151,50.06 C 783.199,49.696 783.177,49.214 782.67,49.089 L 782.67,49.089 C 782.165,48.963 780.916,48.731 780.476,48.61 L 780.476,48.61 C 780.034,48.488 779.737,48.29 779.549,47.784 L 779.549,47.784 C 779.359,47.274 779.112,45.89 779.107,45.772 L 779.107,45.772 C 779.102,45.466 779.182,45.442 779.417,45.5 L 779.417,45.5 C 779.707,45.568 780.048,45.665 781.362,45.709 L 781.362,45.709 C 783.576,45.788 786.943,45.502 787.377,45.468 L 787.377,45.468 C 787.525,45.454 787.647,45.605 787.699,45.697 L 787.699,45.697 C 788.168,46.507 788.035,46.714 788.665,47.226 L 788.665,47.226 C 788.992,47.488 789.148,47.54 788.943,48.006 L 788.943,48.006 C 786.886,52.688 784.932,55.865 781.764,59.922 L 781.764,59.922 C 779.733,62.524 777.362,65.405 776.565,66.361 L 776.565,66.361 L 767.007,71.829 C 766.441,72.098 762.021,74.36 761.26,74.738 L 761.26,74.738 C 760.497,75.114 759.882,75.423 759.102,75.598 L 759.102,75.598 C 758.556,75.722 758.014,75.765 757.509,75.765 L 757.509,75.765 C 757.029,75.765 756.583,75.726 756.198,75.679" /></g></g></g></g><g
         id="g2634"><g
           id="g2636"><g
             id="g2642"><g
               id="g2644"><path
                 id="path2660"
                 style="fill:url(#radialGradient3431);stroke:none"
                 d="M 766.853,80.162 C 765.478,79.792 763.72,79.075 763.656,79.04 L 763.656,79.04 C 763.619,79.016 763.625,78.981 763.644,78.939 L 763.644,78.939 C 763.66,78.902 763.844,78.584 763.844,78.584 L 763.844,78.584 C 763.844,78.584 763.936,78.368 764.202,78.219 L 764.202,78.219 C 764.465,78.07 764.724,78.008 764.79,77.992 L 764.79,77.992 C 764.859,77.978 764.89,78.007 764.914,78.043 L 764.914,78.043 C 764.934,78.073 765.193,78.57 766.145,78.817 L 766.145,78.817 C 766.66,78.947 766.987,78.962 767.146,78.962 L 767.146,78.962 C 767.394,78.956 767.778,78.834 767.992,78.625 L 767.992,78.625 C 768.34,78.282 768.645,77.714 768.697,77.442 L 768.697,77.442 C 768.753,77.178 768.709,76.849 768.446,76.712 L 768.446,76.712 C 768.182,76.578 767.414,76.396 766.931,76.348 L 766.931,76.348 C 766.431,76.298 765.945,76.323 765.656,76.489 L 765.656,76.489 C 765.611,76.514 765.578,76.519 765.534,76.484 L 765.534,76.484 C 765.425,76.393 765.359,76.319 765.146,76.192 L 765.146,76.192 C 765.097,76.164 765.067,76.104 765.113,76.012 L 765.113,76.012 C 765.159,75.92 765.762,74.919 766.128,74.65 L 766.128,74.65 C 766.491,74.378 766.685,74.5 767.12,74.741 L 767.12,74.741 C 767.557,74.982 767.852,75.277 768.304,75.262 L 768.304,75.262 C 768.763,75.25 769.152,74.86 769.223,74.407 L 769.223,74.407 C 769.309,73.856 768.956,73.497 768.741,73.157 L 768.741,73.157 C 768.531,72.824 768.1,72.328 767.878,72.05 L 767.878,72.05 C 767.596,71.694 767.058,71.803 767.058,71.803 L 767.058,71.803 C 767.058,71.803 769.604,70.509 771.069,69.773 L 771.069,69.773 C 771.649,69.479 772.56,69.752 773.178,70.909 L 773.178,70.909 C 773.322,71.178 774.238,73.116 774.467,73.693 L 774.467,73.693 C 774.697,74.268 775.022,74.907 774.499,76.006 L 774.499,76.006 C 773.974,77.101 772.348,79.127 771.701,79.904 L 771.701,79.904 C 771.361,80.31 770.962,80.559 770.104,80.605 L 770.104,80.605 C 769.993,80.611 769.878,80.614 769.759,80.614 L 769.759,80.614 C 768.975,80.614 768.027,80.479 766.853,80.162" /></g></g></g></g><g
         id="g2662"><g
           id="g2664"><g
             id="g2670"><g
               id="g2672"><path
                 id="path2682"
                 style="fill:url(#radialGradient3433);stroke:none"
                 d="M 766.924,76.276 C 766.434,76.231 765.958,76.253 765.675,76.406 L 765.675,76.406 C 765.631,76.429 765.599,76.433 765.556,76.402 L 765.556,76.402 C 765.448,76.317 765.384,76.249 765.175,76.132 L 765.175,76.132 C 765.128,76.107 765.097,76.051 765.144,75.966 L 765.144,75.966 C 765.188,75.881 765.733,74.966 766.103,74.704 L 766.103,74.704 C 766.473,74.437 766.67,74.557 767.113,74.793 L 767.113,74.793 C 767.557,75.029 767.857,75.317 768.316,75.303 L 768.316,75.303 L 768.408,76.613 C 768.151,76.488 767.397,76.32 766.924,76.276" /></g></g></g></g><g
         id="g2684"><g
           id="g2686"><g
             id="g2692"><g
               id="g2694"><path
                 id="path2708"
                 style="fill:url(#radialGradient3435);stroke:none"
                 d="M 763.748,78.994 C 763.713,78.971 763.718,78.9 763.736,78.863 L 763.736,78.863 C 763.752,78.829 763.927,78.54 763.927,78.54 L 763.927,78.54 C 763.927,78.54 764.014,78.343 764.266,78.208 L 764.266,78.208 C 764.516,78.074 764.724,78.008 764.79,77.992 L 764.79,77.992 C 764.859,77.978 764.89,78.007 764.914,78.043 L 764.914,78.043 C 764.934,78.073 765.193,78.57 766.145,78.817 L 766.145,78.817 C 766.66,78.947 766.987,78.962 767.146,78.962 L 767.146,78.962 L 766.785,80.014 C 765.478,79.677 763.808,79.026 763.748,78.994" /></g></g></g></g><g
         id="g2710"><g
           id="g2712"><g
             id="g2718"><g
               id="g2720"><path
                 id="path2738"
                 style="fill:url(#radialGradient3437);stroke:none"
                 d="M 768.75,73.041 C 768.541,72.709 768.108,72.212 767.887,71.935 L 767.887,71.935 C 767.605,71.579 767.195,71.734 767.195,71.734 L 767.195,71.734 C 767.195,71.734 769.604,70.509 771.069,69.773 L 771.069,69.773 C 771.649,69.479 772.526,69.679 773.144,70.837 L 773.144,70.837 C 773.288,71.105 774.205,73.044 774.432,73.62 L 774.432,73.62 L 769.232,74.328 C 769.318,73.778 768.964,73.381 768.75,73.041" /></g></g></g></g><g
         id="g2740"><g
           id="g2742"><g
             id="g2748"><g
               id="g2750"><path
                 id="path2764"
                 style="fill:url(#linearGradient3439);stroke:none"
                 d="M 760.904,66.593 C 760.289,66.558 758.84,66.424 758.427,66.331 L 758.427,66.331 C 758.026,66.236 757.361,65.695 757.273,65.601 L 757.273,65.601 C 757.122,65.443 757.125,65.31 757.237,65.265 L 757.237,65.265 C 757.333,65.228 757.543,65.26 757.714,65.274 L 757.714,65.274 C 758.221,65.318 759.602,65.361 761.166,65.363 L 761.166,65.363 C 761.977,65.364 762.86,65.355 763.557,65.346 L 763.557,65.346 C 764.282,65.336 764.806,65.327 764.842,65.33 L 764.842,65.33 C 764.239,65.986 763.727,66.783 763.524,66.793 L 763.524,66.793 C 763.519,66.793 763.514,66.793 763.507,66.793 L 763.507,66.793 C 763.219,66.793 761.074,66.602 760.904,66.593" /></g></g></g></g><g
         id="g2766"><g
           clip-path="url(#clipPath2770)"
           id="g2768"><g
             transform="translate(757.2253,65.2374)"
             id="g2774"><path
               id="path2776"
               style="fill:#7f7d7e;fill-opacity:1;fill-rule:nonzero;stroke:none"
               d="M 0,0 L 0.011,0.028 L 0,0 C -0.061,0.023 -0.1,0.078 -0.099,0.142 C -0.099,0.215 -0.057,0.297 0.026,0.384 C 0.12,0.483 0.779,1.023 1.196,1.123 C 1.614,1.217 3.059,1.35 3.677,1.385 C 3.846,1.394 5.987,1.585 6.281,1.586 C 6.288,1.586 6.294,1.586 6.3,1.585 C 6.369,1.58 6.439,1.523 6.527,1.436 C 6.614,1.348 6.717,1.227 6.831,1.085 C 7.06,0.802 7.338,0.439 7.638,0.113 L 7.681,0.067 L 7.618,0.062 C 7.612,0.062 7.602,0.062 7.585,0.062 C 7.33,0.062 5.666,0.096 4.162,0.096 C 4.088,0.096 4.015,0.096 3.941,0.096 C 2.377,0.093 0.997,0.05 0.492,0.007 C 0.38,-0.003 0.251,-0.02 0.146,-0.02 C 0.09,-0.02 0.04,-0.015 0,0 M 0.146,0.041 C 0.245,0.041 0.373,0.057 0.486,0.067 C 0.996,0.111 2.376,0.153 3.941,0.156 C 4.014,0.156 4.088,0.156 4.162,0.156 C 5.607,0.156 7.2,0.125 7.548,0.122 C 7.113,0.604 6.73,1.147 6.484,1.393 C 6.401,1.479 6.33,1.525 6.297,1.525 C 6.293,1.525 6.288,1.525 6.281,1.525 C 5.995,1.525 3.851,1.334 3.681,1.325 C 3.066,1.29 1.616,1.157 1.209,1.064 C 0.822,0.976 0.15,0.431 0.07,0.343 C -0.007,0.262 -0.039,0.19 -0.039,0.142 C -0.038,0.1 -0.02,0.075 0.023,0.056 C 0.049,0.046 0.094,0.04 0.146,0.041" /></g></g></g><g
         id="g2778"><g
           id="g2780"><g
             id="g2786"><g
               id="g2788"><path
                 id="path2810"
                 style="fill:url(#linearGradient3441);stroke:none"
                 d="M 766.59,82.265 C 766.05,81.937 766.027,81.535 765.648,81.315 L 765.648,81.315 C 765.272,81.095 764.406,80.898 763.496,80.491 L 763.496,80.491 C 762.993,80.267 762.991,80.23 763.111,79.947 L 763.111,79.947 C 763.158,79.829 763.485,79.234 763.651,79.234 L 763.651,79.234 C 763.815,79.229 764.014,79.314 764.215,79.395 L 764.215,79.395 C 764.484,79.501 766.278,80.196 767.703,80.5 L 767.703,80.5 C 769.29,80.84 770.996,80.869 771.602,80.228 L 771.602,80.228 C 772.524,79.252 774.142,77.065 774.632,76.117 L 774.632,76.117 C 775.115,75.178 775.066,74.722 774.745,73.76 L 774.745,73.76 C 774.45,72.869 773.332,70.557 773.003,70.078 L 773.003,70.078 C 772.672,69.598 772.272,69.332 771.315,69.723 L 771.315,69.723 C 770.289,70.145 766.51,72.084 765.688,72.499 L 765.688,72.499 C 765.132,72.779 762.797,73.962 761.029,74.848 L 761.029,74.848 C 760.378,75.176 759.839,75.414 759.252,75.562 L 759.252,75.562 C 757.952,75.893 756.556,75.744 755.912,75.638 L 755.912,75.638 C 755.618,75.589 755.435,75.117 755.448,74.925 L 755.448,74.925 C 755.46,74.768 755.763,74.788 756.131,74.808 L 756.131,74.808 C 756.321,74.819 756.528,74.83 756.723,74.816 L 756.723,74.816 C 757.183,74.784 758.758,74.614 759.667,74.245 L 759.667,74.245 C 760.627,73.857 765.433,71.268 766.646,70.616 L 766.646,70.616 C 775.891,65.585 779.847,62.347 786.992,50.34 L 786.992,50.34 C 787.311,49.803 787.465,49.145 786.96,48.995 L 786.96,48.995 C 786.228,48.782 783.181,48.201 782.259,47.899 L 782.259,47.899 C 781.484,47.644 781.381,47.583 781.268,47.2 L 781.268,47.2 C 781.141,46.762 780.944,45.896 780.991,45.721 L 780.991,45.721 C 781.011,45.649 780.95,45.556 781.107,45.556 L 781.107,45.556 C 781.964,45.556 785.039,45.553 787.408,45.329 L 787.408,45.329 C 787.694,45.299 787.71,45.306 787.89,45.579 L 787.89,45.579 C 788.097,45.897 788.917,46.835 789.456,47.234 L 789.456,47.234 C 789.682,47.402 789.53,47.715 789.493,47.817 L 789.493,47.817 C 788.816,49.522 786.903,53.221 784.284,57.068 L 784.284,57.068 C 781.713,60.853 777.355,65.978 776.753,66.829 L 776.753,66.829 C 776.164,67.664 775.933,68.603 777.161,68.99 L 777.161,68.99 C 777.963,69.245 779.894,69.645 780.684,69.866 L 780.684,69.866 C 781.453,70.077 781.509,70.326 781.573,70.921 L 781.573,70.921 C 781.638,71.564 781.463,74.686 781.076,76.546 L 781.076,76.546 C 780.995,76.932 780.736,77.254 780.426,77.474 L 780.426,77.474 C 780.151,77.665 779.091,78.59 778.505,79.259 L 778.505,79.259 C 777.831,80.028 777.525,80.753 777.415,81.311 L 777.415,81.311 C 777.415,81.311 777.396,81.43 777.264,81.555 L 777.264,81.555 C 777.215,81.607 777.177,81.632 777.094,81.68 L 777.094,81.68 C 775.939,82.391 771.856,83.507 771.023,83.579 L 771.023,83.579 C 770.979,83.583 770.926,83.585 770.865,83.585 L 770.865,83.585 C 770.141,83.586 768.29,83.286 766.59,82.265" /></g></g></g></g><g
         id="g2812"><g
           id="g2814"><g
             id="g2820"><g
               id="g2822"><path
                 id="path2832"
                 style="fill:url(#linearGradient3443);stroke:none"
                 d="M 755.657,74.757 C 755.943,74.757 756.61,74.778 757.057,74.729 L 757.057,74.729 C 757.918,74.634 759.004,74.396 759.688,74.132 L 759.688,74.132 C 760.657,73.755 765.21,71.041 766.387,70.383 L 766.387,70.383 C 769.933,68.373 772.629,66.525 775.159,64.487 L 775.159,64.487 C 779.027,61.371 782.366,57.758 786.552,50.427 L 786.552,50.427 C 786.717,50.143 786.805,49.925 786.805,49.659 L 786.805,49.659 C 786.82,49.25 786.468,49.102 786.349,49.07 L 786.349,49.07 C 785.628,48.853 782.673,48.187 781.798,47.885 L 781.798,47.885 C 781.055,47.623 780.917,47.458 780.811,47.114 L 780.811,47.114 C 780.772,46.97 780.646,46.273 780.499,46.087 L 780.499,46.087 C 780.353,45.897 780.012,45.858 779.65,45.858 L 779.65,45.858 C 779.427,45.858 779.316,45.845 779.339,46.093 L 779.339,46.093 C 779.36,46.34 779.507,47.011 779.591,47.396 L 779.591,47.396 C 779.674,47.783 779.835,48.073 780.187,48.285 L 780.187,48.285 C 780.539,48.5 781.764,48.698 782.454,48.867 L 782.454,48.867 C 783.141,49.036 783.18,49.356 783.167,49.875 L 783.167,49.875 C 783.167,49.325 782.976,49.191 782.284,49.036 L 782.284,49.036 C 781.582,48.88 780.403,48.728 780.015,48.462 L 780.015,48.462 C 779.638,48.206 779.492,47.848 779.422,47.565 L 779.422,47.565 C 779.187,46.585 779.026,45.868 779.053,45.627 L 779.053,45.627 C 779.076,45.413 779.161,45.383 779.4,45.41 L 779.4,45.41 C 779.638,45.437 780.232,45.521 781.123,45.554 L 781.123,45.554 C 781.387,45.554 781.369,45.875 781.366,46.229 L 781.366,46.229 C 781.366,46.357 781.372,46.739 781.438,46.926 L 781.438,46.926 C 781.504,47.111 781.646,47.283 781.871,47.352 L 781.871,47.352 C 782.366,47.506 785.112,48.247 786.507,48.663 L 786.507,48.663 C 787.118,48.845 787.374,49.039 787.318,49.595 L 787.318,49.595 C 787.269,50.084 786.822,50.809 786.027,52.053 L 786.027,52.053 C 785.227,53.307 784.222,55.019 782.884,56.913 L 782.884,56.913 C 780.508,60.277 778.169,62.903 775.263,65.202 L 775.263,65.202 C 773.116,66.899 770.865,68.26 769.213,69.227 L 769.213,69.227 C 767.561,70.195 760.587,74.01 759.505,74.349 L 759.505,74.349 C 758.522,74.657 757.741,74.758 757.042,74.829 L 757.042,74.829 C 756.566,74.877 756.169,74.842 755.747,74.842 L 755.747,74.842 C 755.347,74.842 755.488,75.166 755.544,75.295 L 755.544,75.295 C 755.502,75.203 755.263,74.757 755.657,74.757" /></g></g></g></g><g
         id="g2834"><g
           id="g2836"><g
             id="g2842"><g
               id="g2844"><path
                 id="path2864"
                 style="fill:url(#linearGradient3445);stroke:none"
                 d="M 768.366,62.179 C 768.099,61.856 766.731,59.684 765.621,57.654 L 765.621,57.654 C 764.818,56.184 763.856,54.1 763.669,53.595 L 763.669,53.595 C 763.498,53.135 763.467,52.712 763.483,52.194 L 763.483,52.194 C 763.5,51.679 763.586,50.842 763.615,50.24 L 763.615,50.24 C 763.645,49.664 763.498,49.409 762.898,49.3 L 762.898,49.3 C 762.389,49.209 759.685,48.755 759.019,48.593 L 759.019,48.593 C 758.351,48.431 758.142,48.1 758.012,47.611 L 758.012,47.611 C 757.88,47.123 757.689,46.198 757.681,45.986 L 757.681,45.986 C 757.676,45.78 757.702,45.739 757.895,45.765 L 757.895,45.765 C 758.087,45.792 758.496,45.828 758.662,45.84 L 758.662,45.84 C 758.836,45.852 758.801,45.981 758.853,46.164 L 758.853,46.164 C 758.902,46.328 758.937,46.604 759.037,47.029 L 759.037,47.029 C 759.136,47.453 759.27,47.783 759.857,47.956 L 759.857,47.956 C 760.445,48.13 763.105,48.558 763.555,48.681 L 763.555,48.681 C 764.004,48.806 764.292,48.999 764.341,49.449 L 764.341,49.449 C 764.392,49.895 764.3,50.849 764.287,51.624 L 764.287,51.624 C 764.275,52.437 764.265,52.799 764.722,53.678 L 764.722,53.678 C 765.605,55.364 768.347,59.356 770.198,61.667 L 770.198,61.667 C 770.198,61.667 770.024,61.796 769.804,61.956 L 769.804,61.956 C 769.531,62.156 769.185,62.403 768.994,62.464 L 768.994,62.464 C 768.935,62.482 768.881,62.491 768.831,62.491 L 768.831,62.491 C 768.659,62.491 768.533,62.384 768.366,62.179" /></g></g></g></g><g
         id="g2866"><g
           id="g2868"><g
             id="g2874"><g
               id="g2876"><path
                 id="path2890"
                 style="fill:url(#linearGradient3447);stroke:none"
                 d="M 768.023,50.516 C 767.524,49.419 767.382,48.794 767.382,48.25 L 767.382,48.25 C 767.382,47.777 767.43,47.61 767.43,47.61 L 767.43,47.61 C 767.406,48.089 767.584,48.527 767.888,48.966 L 767.888,48.966 C 768.297,49.554 768.929,50.154 769.704,50.959 L 769.704,50.959 C 771.061,52.367 774.37,55.606 774.489,55.723 L 774.489,55.723 C 774.563,55.798 774.652,55.903 774.469,56.08 L 774.469,56.08 C 774.141,56.394 773.969,56.596 773.452,57.114 L 773.452,57.114 C 773.137,57.43 772.918,57.621 772.93,57.731 L 772.93,57.731 C 772.93,57.731 772.93,57.731 772.93,57.731 L 772.93,57.731 C 772.918,57.731 769.23,53.584 768.023,50.516" /></g></g></g></g><g
         id="g2892"><g
           id="g2894"><g
             id="g2900"><g
               id="g2902"><path
                 id="path2918"
                 style="fill:url(#linearGradient3449);stroke:none"
                 d="M 755.705,74.757 L 786.284,49.05 C 786.595,49.118 786.787,49.344 786.802,49.564 L 786.802,49.564 C 786.82,49.815 786.77,50.044 786.604,50.333 L 786.604,50.333 C 782.349,57.767 779.163,61.238 775.284,64.372 L 775.284,64.372 C 774.613,64.915 773.934,65.456 773.226,65.981 L 773.226,65.981 C 771.262,67.437 769.105,68.837 766.494,70.322 L 766.494,70.322 C 765.745,70.742 763.634,71.986 761.943,72.942 L 761.943,72.942 C 760.968,73.493 760.132,73.948 759.779,74.094 L 759.779,74.094 C 759.101,74.378 758.025,74.609 757.148,74.718 L 757.148,74.718 C 756.867,74.753 756.572,74.761 756.264,74.761 L 756.264,74.761 C 756.083,74.761 755.896,74.758 755.705,74.757" /></g></g></g></g><g
         id="g2920"><g
           id="g2922"><g
             id="g2928"><g
               id="g2930"><path
                 id="path2942"
                 style="fill:url(#linearGradient3451);stroke:none"
                 d="M 777.289,81.956 C 777.371,81.907 777.448,81.858 777.507,81.796 L 777.507,81.796 C 777.712,81.603 777.758,81.413 777.764,81.372 L 777.764,81.372 C 777.865,80.87 778.143,80.196 778.781,79.469 L 778.781,79.469 C 779.33,78.836 780.464,77.899 780.701,77.733 L 780.701,77.733 C 780.852,77.631 781.001,77.528 781.127,77.387 L 781.127,77.387 C 781.2,77.767 781.32,78.186 781.49,78.596 L 781.49,78.596 C 781.462,78.552 781.435,78.493 781.384,78.428 L 781.384,78.428 C 781.327,78.35 781.212,78.25 781.043,78.242 L 781.043,78.242 L 781.038,78.242 L 781.025,78.242 C 780.88,78.243 780.774,78.305 780.687,78.366 L 780.687,78.366 C 780.074,78.823 778.356,80.159 778.109,81.292 L 778.109,81.292 C 777.954,81.823 778.149,81.581 777.597,81.86 L 777.597,81.86 C 777.443,81.921 777.295,81.981 777.143,82.037 L 777.143,82.037 C 777.195,82.01 777.245,81.983 777.289,81.956" /></g></g></g></g><g
         id="g2944"><g
           id="g2946"><g
             id="g2952"><g
               id="g2954"><path
                 id="path2966"
                 style="fill:url(#linearGradient3453);stroke:none"
                 d="M 780.859,69.549 C 780.051,69.327 778.059,68.921 777.291,68.682 L 777.291,68.682 C 776.719,68.475 776.646,68.293 776.628,68.007 L 776.628,68.007 L 776.628,68.004 C 776.628,67.739 776.75,67.326 777.007,66.972 L 777.007,66.972 C 777.304,66.547 778.746,64.909 780.352,62.889 L 780.352,62.889 C 780.538,62.664 780.613,62.578 780.768,62.421 L 780.768,62.421 C 780.709,62.498 778.44,65.369 777.744,66.162 L 777.744,66.162 C 777.546,66.395 777.319,66.707 777.316,67.117 L 777.316,67.117 C 777.314,67.525 777.627,68.107 778.273,68.33 L 778.273,68.33 C 779.136,68.645 780.706,69.154 781.063,69.348 L 781.063,69.348 C 781.41,69.548 781.514,69.635 781.565,69.872 L 781.565,69.872 C 781.386,69.727 781.154,69.632 780.859,69.549" /></g></g></g></g><g
         id="g2968"><g
           id="g2970"><g
             id="g2976"><g
               id="g2978"><path
                 id="path2992"
                 style="fill:url(#linearGradient3455);stroke:none"
                 d="M 784.384,80.644 C 782.851,80.608 781.818,79.306 781.519,78.089 L 781.519,78.089 C 781.83,79.177 782.82,80.462 784.391,80.462 L 784.391,80.462 C 786.389,80.462 787.222,79.707 787.502,78.582 L 787.502,78.582 C 787.154,80.131 785.827,80.645 784.504,80.645 L 784.504,80.645 C 784.464,80.645 784.424,80.645 784.384,80.644" /></g></g></g></g><g
         id="g2994"><g
           id="g2996"><g
             id="g3002"><g
               id="g3004"><path
                 id="path3016"
                 style="fill:url(#linearGradient3457);stroke:none"
                 d="M 769.957,50.793 C 768.408,49.209 767.706,48.717 767.737,47.732 L 767.737,47.732 C 767.756,47.152 767.802,45.721 767.804,45.508 L 767.804,45.508 C 767.804,45.363 767.818,45.224 767.573,45.096 L 767.573,45.096 C 767.453,45.031 767.244,45.031 767.138,45.031 L 767.138,45.031 C 766.716,45.031 762.636,45.429 761.204,45.429 L 761.204,45.429 C 759.772,45.429 758.544,45.27 757.806,45.085 L 757.806,45.085 C 757.685,45.057 757.376,45.076 757.251,45.261 L 757.251,45.261 C 757.185,45.357 757.163,45.455 757.157,45.54 L 757.157,45.54 C 757.126,45.261 757.1,44.934 757.1,44.794 L 757.1,44.794 C 757.357,44.844 757.965,44.928 758.748,44.987 L 758.748,44.987 C 759.751,45.066 760.887,45.052 761.643,45.052 L 761.643,45.052 C 762.4,45.052 768.016,44.761 768.037,44.76 L 768.037,44.76 C 768,45.192 767.944,46.219 767.928,46.86 L 767.928,46.86 C 767.923,47.026 767.923,47.024 767.909,47.483 L 767.909,47.483 C 767.909,47.985 768.005,48.571 768.499,49.094 L 768.499,49.094 C 768.765,49.383 769.8,50.531 770.895,51.75 L 770.895,51.75 C 770.536,51.388 770.212,51.055 769.957,50.793" /></g></g></g></g><g
         id="g3018"><g
           id="g3020"><g
             id="g3026"><g
               id="g3028"><path
                 id="path3040"
                 style="fill:url(#linearGradient3459);stroke:none"
                 d="M 774.653,55.485 C 774.812,55.462 774.949,55.372 775.072,55.259 L 775.072,55.259 C 775.363,54.99 779.148,52.252 779.9,51.71 L 779.9,51.71 C 780.221,51.482 780.517,51.321 780.823,51.215 L 780.823,51.215 C 780.566,51.395 780.187,51.683 779.69,52.065 L 779.69,52.065 C 778.966,52.625 778.042,53.354 777.112,54.091 L 777.112,54.091 C 776.327,54.714 775.54,55.343 774.87,55.884 L 774.87,55.884 C 774.859,55.648 774.713,55.522 774.653,55.485" /></g></g></g></g><g
         id="g3042"><g
           id="g3044"><g
             id="g3050"><g
               id="g3052"><path
                 id="path3064"
                 style="fill:url(#linearGradient3461);stroke:none"
                 d="M 783.73,59.417 C 783.69,59.319 783.642,59.186 783.642,58.996 L 783.642,58.996 C 783.642,58.761 783.718,58.435 784.02,57.999 L 784.02,57.999 C 784.201,57.743 784.376,57.49 784.544,57.247 L 784.544,57.247 C 787.174,53.375 789.007,49.631 789.7,47.883 L 789.7,47.883 C 789.852,47.46 789.821,47.251 789.684,47.062 L 789.684,47.062 C 789.684,47.062 788.315,45.661 788.15,45.399 L 788.15,45.399 C 788.079,45.294 788.026,45.206 787.931,45.124 L 787.931,45.124 C 787.838,45.039 787.596,44.985 787.367,45.004 L 787.367,45.004 C 785.344,45.193 783.148,45.274 782.047,45.274 L 782.047,45.274 C 780.615,45.274 779.78,45.135 779.304,45.123 L 779.304,45.123 C 779.046,45.116 778.866,45.176 778.835,45.219 L 778.835,45.219 C 778.831,45.226 778.828,45.232 778.822,45.238 L 778.822,45.238 C 778.802,45.037 778.789,44.886 778.784,44.818 L 778.784,44.818 C 779.651,44.975 780.82,45.041 782.118,45.041 L 782.118,45.041 C 782.53,45.041 782.954,45.034 783.389,45.023 L 783.389,45.023 C 785.524,44.957 788.006,44.76 788.012,44.76 L 788.012,44.76 C 788.018,44.763 789.203,46.273 789.937,46.882 L 789.937,46.882 C 790.067,46.985 790.117,46.977 790.117,47.078 L 790.117,47.078 C 790.117,47.147 790.079,47.276 790.016,47.452 L 790.016,47.452 C 789.252,49.639 786.34,55.04 784.076,58.042 L 784.076,58.042 C 783.86,58.329 783.716,58.712 783.716,58.979 L 783.716,58.979 C 783.715,59.326 783.896,59.579 784.082,59.723 L 784.082,59.723 C 784.238,59.852 784.623,60.18 785.127,60.681 L 785.127,60.681 C 784.345,60.094 783.797,59.628 783.73,59.417" /></g></g></g></g><g
         id="g3066"><g
           id="g3068"><g
             id="g3074"><g
               id="g3076"><path
                 id="path3086"
                 style="fill:url(#linearGradient3463);stroke:none"
                 d="M 757.997,64.805 C 757.135,64.742 756.716,64.638 756.632,64.617 L 756.632,64.617 C 756.548,64.598 756.497,64.604 756.493,64.604 L 756.493,64.604 C 756.514,64.57 756.547,64.505 756.563,64.479 L 756.563,64.479 C 756.585,64.487 756.618,64.5 756.682,64.518 L 756.682,64.518 C 757.201,64.666 758.357,64.736 759.8,64.741 L 759.8,64.741 C 761.175,64.741 762.677,64.731 763.455,64.694 L 763.455,64.694 C 764.151,64.661 765.134,64.567 765.919,64.138 L 765.919,64.138 C 766.649,63.731 768.232,62.633 768.307,62.699 L 768.307,62.699 C 767.665,63.152 766.985,63.612 766.369,63.988 L 766.369,63.988 C 765.557,64.497 764.785,64.848 764.555,64.841 L 764.555,64.841 C 762.085,64.88 762.085,64.88 760.631,64.88 L 760.631,64.88 C 759.499,64.88 758.424,64.837 757.997,64.805" /></g></g></g></g><g
         id="g3088"><g
           id="g3090"><g
             id="g3096"><g
               id="g3098"><path
                 id="path3108"
                 style="fill:url(#linearGradient3465);stroke:none"
                 d="M 756.897,71.856 C 756.935,71.852 756.992,71.854 757.062,71.855 L 757.062,71.855 C 757.299,71.861 757.691,71.865 758.047,71.695 L 758.047,71.695 C 758.675,71.384 760.272,70.204 760.518,69.948 L 760.518,69.948 C 760.819,69.6 761.123,69.635 760.855,69.867 L 760.855,69.867 C 759.919,70.737 758.502,71.74 757.836,71.878 L 757.836,71.878 C 757.601,71.932 757.272,71.958 757.003,71.969 L 757.003,71.969 C 756.799,71.982 756.814,72.221 756.754,72.265 L 756.754,72.265 C 756.761,72.223 756.773,71.864 756.897,71.856" /></g></g></g></g><g
         id="g3110"><g
           id="g3112"><g
             id="g3118"><g
               id="g3120"><path
                 id="path3130"
                 style="fill:url(#linearGradient3467);stroke:none"
                 d="M 755.428,65.299 C 754.987,65.29 753.869,64.734 753.698,64.622 L 753.698,64.622 C 753.438,64.477 753.325,64.473 753.162,64.652 L 753.162,64.652 C 753.237,64.471 753.363,64.362 753.477,64.4 L 753.477,64.4 C 753.592,64.44 754.933,65.138 755.527,65.138 L 755.527,65.138 C 755.72,65.138 755.777,65.133 755.93,65.071 L 755.93,65.071 C 755.838,65.227 755.736,65.3 755.458,65.3 L 755.458,65.3 C 755.448,65.3 755.438,65.3 755.428,65.299" /></g></g></g></g><g
         id="g3132"><g
           id="g3134"><g
             id="g3140"><g
               id="g3142"><path
                 id="path3154"
                 style="fill:url(#linearGradient3469);stroke:none"
                 d="M 768.524,82.146 C 768.22,82.097 767.247,81.835 767.145,81.8 L 767.145,81.8 C 767.04,81.767 766.984,81.733 766.915,81.62 L 766.915,81.62 C 766.846,81.51 766.816,81.267 766.845,81.175 L 766.845,81.175 C 766.874,81.078 766.972,81.006 767.122,81.069 L 767.122,81.069 C 767.328,81.155 768.533,81.598 768.745,81.665 L 768.745,81.665 C 768.837,81.696 768.875,81.742 768.893,81.79 L 768.893,81.79 C 768.924,81.869 768.933,81.973 768.924,82.055 L 768.924,82.055 C 768.912,82.149 768.852,82.177 768.765,82.177 L 768.765,82.177 C 768.698,82.177 768.614,82.16 768.524,82.146" /></g></g></g></g><g
         id="g3156"><g
           clip-path="url(#clipPath3160)"
           id="g3158"><g
             transform="translate(768.4899,82.0431)"
             id="g3164"><path
               id="path3166"
               style="fill:#231f20;fill-opacity:1;fill-rule:nonzero;stroke:none"
               d="M 0,0 C 0.135,0.024 0.201,0.011 0.208,-0.063 C 0.214,-0.14 0.208,-0.187 0.203,-0.217 C 0.195,-0.257 0.179,-0.28 0.112,-0.305 C -0.026,-0.353 -0.907,-0.667 -1.119,-0.756 C -1.314,-0.838 -1.413,-0.792 -1.43,-0.711 C -1.447,-0.627 -1.416,-0.496 -1.383,-0.437 C -1.348,-0.379 -1.297,-0.34 -1.225,-0.317 C -1.066,-0.26 -0.249,-0.046 0,0" /></g></g></g><g
         id="g3168"><g
           id="g3170"><g
             id="g3176"><g
               id="g3178"><path
                 id="path3190"
                 style="fill:url(#linearGradient3471);stroke:none"
                 d="M 769.804,80.768 C 767.308,80.703 765.132,79.646 763.91,79.146 L 763.91,79.146 C 764.781,79.445 766.897,80.312 769.257,80.453 L 769.257,80.453 C 770.554,80.532 771.074,80.422 771.549,79.889 L 771.549,79.889 C 772.239,79.129 773.845,76.972 774.417,75.877 L 774.417,75.877 C 774.643,75.443 774.743,75.054 774.713,74.722 L 774.713,74.722 C 774.667,74.219 774.487,73.85 774.345,73.519 L 774.345,73.519 C 774.096,72.948 773.177,71.081 773.018,70.81 L 773.018,70.81 C 772.349,69.651 771.708,69.691 771.026,69.849 L 771.026,69.849 C 771.061,69.83 771.374,69.682 771.661,69.566 L 771.661,69.566 C 772.455,69.241 772.958,69.692 773.412,70.545 L 773.412,70.545 C 773.559,70.811 774.534,72.873 774.769,73.468 L 774.769,73.468 C 774.918,73.841 775.089,74.211 775.089,74.685 L 775.089,74.685 C 775.089,74.995 775.003,75.472 774.791,75.914 L 774.791,75.914 C 774.254,77.046 772.555,79.197 771.877,80.008 L 771.877,80.008 C 771.351,80.63 770.871,80.771 770.042,80.771 L 770.042,80.771 C 769.966,80.771 769.886,80.77 769.804,80.768" /></g></g></g></g><g
         id="g3192"><g
           id="g3194"><g
             id="g3200"><g
               id="g3202"><path
                 id="path3218"
                 style="fill:url(#linearGradient3473);stroke:none"
                 d="M 766.86,57.344 C 765.974,55.934 764.697,53.83 764.497,53.367 L 764.497,53.367 C 764.312,52.942 764.252,52.555 764.246,52.053 L 764.246,52.053 C 764.246,52.048 764.319,49.777 764.319,49.764 L 764.319,49.764 C 764.319,49.483 764.277,49.253 764.127,49.075 L 764.127,49.075 C 763.974,48.899 763.743,48.812 763.423,48.766 L 763.423,48.766 C 762.897,48.69 760.416,48.307 759.734,48.168 L 759.734,48.168 C 759.073,48.026 758.799,47.722 758.652,47.283 L 758.652,47.283 C 758.545,46.967 758.423,46.43 758.425,46.194 L 758.425,46.194 C 758.425,46.194 758.416,46.065 758.425,46.065 L 758.425,46.065 C 758.406,45.814 758.496,45.828 758.496,45.828 L 758.496,45.828 C 758.496,45.828 761.368,46.049 763.077,45.947 L 763.077,45.947 C 764.787,45.847 767.146,45.624 767.146,45.624 L 767.146,45.624 C 767.146,45.624 764.663,46.088 762.974,46.193 L 762.974,46.193 C 762.132,46.243 761.152,46.223 760.38,46.202 L 760.38,46.202 C 759.604,46.182 759.036,46.161 759.026,46.213 L 759.026,46.213 C 759.011,46.283 758.968,46.39 758.986,46.597 L 758.986,46.597 C 759.014,46.731 759.049,46.884 759.096,47.045 L 759.096,47.045 C 759.206,47.465 759.402,47.835 760.056,47.987 L 760.056,47.987 C 760.683,48.146 763.094,48.545 763.551,48.657 L 763.551,48.657 C 764.003,48.771 764.296,48.939 764.358,49.308 L 764.358,49.308 C 764.375,49.421 764.39,49.675 764.389,49.91 L 764.389,49.91 C 764.389,50.395 764.303,51.68 764.306,51.76 L 764.306,51.76 C 764.321,52.551 764.356,52.969 764.873,53.824 L 764.873,53.824 C 765.674,55.156 768.69,59.741 770.19,61.332 L 770.19,61.332 C 770.286,61.433 770.33,61.519 770.496,61.492 L 770.496,61.492 C 770.464,61.499 770.431,61.509 770.398,61.525 L 770.398,61.525 C 770.372,61.538 770.252,61.627 770.094,61.744 L 770.094,61.744 C 769.72,61.322 768.035,59.218 766.86,57.344" /></g></g></g></g><g
         id="g3220"><g
           clip-path="url(#clipPath3224)"
           id="g3222"><g
             transform="translate(734.3307,35.2519)"
             id="g3228"><path
               id="path3230"
               style="fill:#0d224a;fill-opacity:1;fill-rule:nonzero;stroke:none"
               d="M 0,0 L 0,-6.693 L 1.843,-6.693 L 1.843,-4.634 L 3.494,-4.634 C 7.034,-4.634 8.838,-3.498 8.838,-2.242 C 8.838,-0.893 6.901,0 3.654,0 L 0,0 M 1.843,-3.912 L 1.843,-0.747 L 3.293,-0.747 C 4.791,-0.747 6.768,-1 6.768,-2.242 C 6.768,-3.085 6.126,-3.912 3.053,-3.912 L 1.843,-3.912 z" /></g><g
             transform="translate(753.678,28.559)"
             id="g3232"><path
               id="path3234"
               style="fill:#0d224a;fill-opacity:1;fill-rule:nonzero;stroke:none"
               d="M 0,0 L 0,0.842 L -4.542,0.842 C -5.518,0.842 -5.799,1.284 -5.799,2.032 L -5.799,3.012 L -0.468,3.012 L -0.468,3.852 L -5.799,3.852 L -5.799,5.853 L -0.227,5.853 L -0.227,6.693 L -7.642,6.693 L -7.642,1.992 C -7.642,0.735 -7.121,0 -5.424,0 L 0,0 z" /></g><g
             transform="translate(765.4728,35.2519)"
             id="g3236"><path
               id="path3238"
               style="fill:#0d224a;fill-opacity:1;fill-rule:nonzero;stroke:none"
               d="M 0,0 L -1.843,0 L -1.843,-5.649 C -2.351,-5.825 -3.031,-5.984 -4.021,-5.984 C -5.437,-5.984 -6.84,-5.624 -6.84,-4.38 L -6.84,0 L -8.683,0 L -8.683,-4.514 C -8.683,-6.359 -6.84,-6.905 -4.809,-6.905 C -2.872,-6.905 -1.295,-6.504 0,-5.958 L 0,0 z" /></g><g
             transform="translate(770.5976,31.8866)"
             id="g3240"><path
               id="path3242"
               style="fill:#0d224a;fill-opacity:1;fill-rule:nonzero;stroke:none"
               d="M 0,0 C 0,1.857 1.577,2.727 3.5,2.727 C 5.076,2.727 6.293,2.272 7.442,1.883 L 7.442,3.006 C 6.226,3.365 5.076,3.567 3.5,3.567 C 0.415,3.567 -2.097,2.151 -2.097,0 C -2.097,-2.273 0.415,-3.54 3.5,-3.54 C 5.038,-3.54 6.654,-3.221 7.643,-2.968 L 7.643,-0.315 L 5.826,-0.315 L 5.826,-2.299 C 5.158,-2.525 4.676,-2.7 3.635,-2.7 C 1.537,-2.7 0,-1.659 0,0" /></g><g
             transform="translate(789.2414,28.559)"
             id="g3244"><path
               id="path3246"
               style="fill:#0d224a;fill-opacity:1;fill-rule:nonzero;stroke:none"
               d="M 0,0 L 0,0.842 L -4.544,0.842 C -5.518,0.842 -5.799,1.284 -5.799,2.032 L -5.799,3.012 L -0.467,3.012 L -0.467,3.852 L -5.799,3.852 L -5.799,5.853 L -0.227,5.853 L -0.227,6.693 L -7.642,6.693 L -7.642,1.992 C -7.642,0.735 -7.122,0 -5.425,0 L 0,0 z" /></g><g
             transform="translate(797.2393,35.4538)"
             id="g3248"><path
               id="path3250"
               style="fill:#0d224a;fill-opacity:1;fill-rule:nonzero;stroke:none"
               d="M 0,0 C -3.085,0 -5.61,-1.443 -5.61,-3.602 C -5.61,-5.866 -3.085,-7.107 0,-7.107 C 3.087,-7.107 5.598,-5.866 5.598,-3.602 C 5.598,-1.443 3.087,0 0,0 M 0,-6.36 C -2.097,-6.36 -3.513,-5.278 -3.513,-3.602 C -3.513,-1.763 -1.936,-0.84 0,-0.84 C 1.924,-0.84 3.5,-1.763 3.5,-3.602 C 3.5,-5.278 2.084,-6.36 0,-6.36" /></g><g
             transform="translate(804.35,34.2918)"
             id="g3252"><path
               id="path3254"
               style="fill:#0d224a;fill-opacity:1;fill-rule:nonzero;stroke:none"
               d="M 0,0 L 3.674,0 L 3.674,-5.733 L 5.518,-5.733 L 5.518,0 L 9.192,0 L 9.192,0.96 L 0,0.96 L 0,0 z" /></g></g></g></g></g></svg>