<?xml version="1.0" encoding="UTF-8" standalone="no"?>
<!-- Created with Inkscape (http://www.inkscape.org/) -->

<svg
   xmlns:dc="http://purl.org/dc/elements/1.1/"
   xmlns:cc="http://creativecommons.org/ns#"
   xmlns:rdf="http://www.w3.org/1999/02/22-rdf-syntax-ns#"
   xmlns:svg="http://www.w3.org/2000/svg"
   xmlns="http://www.w3.org/2000/svg"
   xmlns:sodipodi="http://sodipodi.sourceforge.net/DTD/sodipodi-0.dtd"
   xmlns:inkscape="http://www.inkscape.org/namespaces/inkscape"
   version="1.1"
   width="400"
   height="400"
   viewBox="0 0 400.00001 400.00002"
   id="Ebene_1"
   xml:space="preserve"
   inkscape:version="0.48.1 "
   sodipodi:docname="Logo della Plymounth.svg"><sodipodi:namedview
   pagecolor="#ffffff"
   bordercolor="#666666"
   borderopacity="1"
   objecttolerance="10"
   gridtolerance="10"
   guidetolerance="10"
   inkscape:pageopacity="0"
   inkscape:pageshadow="2"
   inkscape:window-width="1280"
   inkscape:window-height="738"
   id="namedview24"
   showgrid="false"
   inkscape:zoom="1.2975"
   inkscape:cx="200"
   inkscape:cy="200"
   inkscape:window-x="-8"
   inkscape:window-y="-8"
   inkscape:window-maximized="1"
   inkscape:current-layer="Ebene_1" /><metadata
   id="metadata43"><rdf:RDF><cc:Work
       rdf:about=""><dc:format>image/svg+xml</dc:format><dc:type
         rdf:resource="http://purl.org/dc/dcmitype/StillImage" /><dc:title /></cc:Work></rdf:RDF></metadata><defs
   id="defs41" />

















<g
   transform="matrix(0.70377243,0,0,0.70377494,2.3121388,3.4585739)"
   id="g3020"><path
     d="M 0,280.629 C 0,125.641 125.641,0 280.629,0 c 154.989,0 280.632,125.641 280.632,280.629 0,154.991 -125.643,280.63 -280.632,280.63 C 125.641,561.259 0,435.62 0,280.629 l 0,0 z"
     id="path3"
     style="fill-rule:evenodd" /><path
     d="m 62.782,356.123 -2.965,-9.211 h 16.847 c -6.779,-20.871 -10.443,-43.148 -10.443,-66.283 0,-118.412 95.996,-214.408 214.408,-214.408 118.412,0 214.409,95.996 214.409,214.408 0,118.414 -95.997,214.408 -214.409,214.408 -85.05,0 -158.537,-49.523 -193.194,-121.307 -4.431,-1.433 -6.858,-0.624 -11.711,-0.894 -4.853,-0.27 -8.897,-5.391 -9.976,-8.625 l 17.398,0.053 -3.271,-8.183 -17.093,0.042 0,0 z"
     id="path5"
     style="fill:#ffffff;fill-rule:evenodd" /><path
     d="m 57.996,211.86 -12.898,-5.477 12.271,-27.681 c 1.192,-2.902 -3.721,-5.054 -4.787,-2.512 l -12.398,28.042 -4.915,-2.152 14.275,-32.405 c 1.343,-3.091 4.63,-4.356 9.926,-1.907 5.295,2.451 6.415,4.551 5.114,7.983 l -11.206,25.14 7.794,3.176 -3.176,7.793 0,0 z"
     id="path7"
     style="fill:#ffffff;fill-rule:evenodd" /><polygon
     points="510.34,164.193 510.34,164.193 513.161,171.806 505.626,175.163 514.699,197.492 522.372,194.333 525.501,202.175 502.816,211.711 499.688,203.87 509.786,199.75 500.607,177.054 490.646,181.373 487.547,173.363 "
     id="polygon9"
     style="fill:#ffffff;fill-rule:evenodd" /><polygon
     points="473.461,118.646 483.911,130.727 488.833,126.687 461.314,96.321 456.211,100.519 467.558,112.408 467.558,112.408 453.41,125.852 459.144,132.078 "
     id="polygon11"
     style="fill:#ffffff;fill-rule:evenodd" /><path
     d="m 397.767,49.44 -8.795,13.339 c -1.816,2.559 -3.946,8.971 1.664,12.825 l 27.287,18.337 14.065,-21.826 -6.917,-4.507 -10.626,16.068 -16.034,-10.966 c -2.575,-1.646 -3.346,-4.134 -1.699,-6.709 l 8.139,-12.035 -7.084,-4.526 0,0 z"
     id="path13"
     style="fill:#ffffff;fill-rule:evenodd" /><path
     d="m 209.952,32.043 4.102,23.928 8.546,-1.367 -3.589,-18.801 9.743,-1.538 c 2.394,-0.513 4.786,0.854 5.128,2.905 l 2.392,15.212 8.375,-1.368 -3.248,-18.8 9.23,-1.538 c 2.563,-0.684 5.127,0.854 5.47,3.076 l 2.562,15.212 8.205,-1.538 -2.905,-17.606 c -0.513,-2.905 -5.47,-5.982 -9.571,-5.298 l -15.382,2.563 c -1.54,0.171 -2.052,1.197 -2.394,1.881 -1.367,-1.025 -3.076,-1.197 -4.444,-0.855 l -22.22,3.932 0,0 z"
     id="path15"
     style="fill:#ffffff;fill-rule:evenodd" /><polygon
     points="94.036,142.063 75.23,124.787 75.23,124.787 80.769,118.232 95.215,131.271 117.171,107.118 121.711,111.514 "
     id="polygon17"
     style="fill:#ffffff;fill-rule:evenodd" /><path
     d="m 149.209,75.757 6.814,9.478 7.207,-5.269 -6.797,-9.299 6.738,-4.598 c 2.219,-1.778 5.029,-7.746 2.953,-11.137 l -5.052,-7.203 -7.033,5.036 3.39,4.456 c 0.993,1.27 1.251,5.367 -0.17,6.548 l -12.983,8.928 c -1.897,1.573 -5.232,0.894 -6.45,-0.87 l -3.649,-5.287 -6.863,5.017 5.205,7.015 c 2.158,2.524 7.739,3.311 11.282,1.047 l 5.408,-3.862 0,0 z"
     id="path19"
     style="fill:#ffffff;fill-rule:evenodd" /><path
     d="m 317.678,50.84 c -4.307,-0.896 -11.845,-1.077 -8.974,-15.971 1.614,-8.795 6.642,-10.589 15.794,-8.974 l 17.227,3.05 c 7.538,1.436 12.565,3.589 10.77,14 -1.796,10.408 -6.999,12.921 -14.537,11.484 l -20.28,-3.589 0,0 z"
     id="path21"
     style="fill:#ffffff;fill-rule:evenodd" /><path
     d="m 319.113,45.457 c -3.768,-0.718 -4.307,-3.59 -3.41,-9.511 0.765,-5.048 3.949,-5.565 6.999,-4.847 l 18.486,3.412 c 3.05,0.718 5.203,3.05 4.307,7.537 -0.896,4.487 -3.231,7.897 -7.896,6.82 l -18.486,-3.411 0,0 z"
     id="path23"
     style="fill-rule:evenodd" /><path
     d="m 430.787,417.538 c 3.976,-4.304 6.958,-7.696 10.556,-12.331 -44.78,-6.486 -112.453,-11.877 -131.057,31.529 -15.636,-11.593 -53.921,-12.401 -63.896,-4.854 -9.167,-7.547 -41.251,-12.671 -59.046,1.89 -15.097,-15.639 -41.789,-46.913 -87.195,-59.399 17.953,34.497 45.507,63.196 79.119,82.564 8.076,-14.271 40.699,-27.75 65.774,-9.955 11.054,-7.28 45.563,-12.671 72.255,10.515 0.808,-18.066 21.568,-56.89 113.49,-39.959 0,0 -91.922,-16.931 0,0 l 0,0 z"
     id="path25"
     style="fill-rule:evenodd" /><path
     d="m 245.312,454.531 c 30.735,-13.752 60.123,0.809 75.22,15.366 0.627,-6.038 5.663,-60.393 102.794,-44.414 -36.709,36.164 -87.097,58.479 -142.696,58.479 -34.148,0 -64.983,-8.147 -93.239,-23.024 5.344,-10.184 37.159,-22.046 57.921,-6.407 0,0 -20.762,-15.639 0,0 l 0,0 z"
     id="path27"
     style="fill-rule:evenodd" /><path
     d="m 321.609,81.426 c -13.239,-2.708 -26.944,-4.131 -40.98,-4.131 -112.295,0 -203.333,91.039 -203.333,203.333 0,18.338 2.429,36.113 6.98,53.011 6.546,-65.413 45.371,-113.943 65.862,-136.591 23.556,-26.035 97.054,-87.809 171.471,-115.622 0,0 -74.417,27.813 0,0 l 0,0 z"
     id="path29"
     style="fill-rule:evenodd" /><path
     d="m 295.729,346.956 c -8.628,-28.04 -18.334,-105.69 103.532,-218.927 l -80.886,218.927 h -22.646 l 0,0 z"
     id="path31"
     style="fill-rule:evenodd" /><path
     d="m 333.475,346.956 c 3.773,-17.795 52.304,-23.728 140.197,-4.315 l -0.539,4.315 H 333.475 l 0,0 z"
     id="path33"
     style="fill-rule:evenodd" /><path
     d="m 95.676,346.956 c 4.852,-19.951 38.284,-24.806 67.402,-23.728 29.118,1.078 82.503,9.167 119.708,23.728 H 95.676 l 0,0 z"
     id="path35"
     style="fill-rule:evenodd" /><polygon
     points="466.122,364.211 469.359,356.123 91.361,356.123 91.361,356.123 94.058,364.211 "
     id="polygon37"
     style="fill-rule:evenodd" /></g>
<g
   id="g2226"
   transform="matrix(0.02083333,0,0,0.02083333,274.95508,268.1958)"><g
     transform="translate(1138.3423,-331.30859)"
     id="g2193"><path
       sodipodi:type="arc"
       style="fill:#000000;fill-opacity:1;fill-rule:nonzero;stroke:none"
       id="path2185"
       sodipodi:cx="9.1521416"
       sodipodi:cy="536.14618"
       sodipodi:rx="124.41928"
       sodipodi:ry="173.17725"
       d="m 133.57142,536.14618 c 0,95.64315 -55.704407,173.17725 -124.4192784,173.17725 -68.7148716,0 -124.4192816,-77.5341 -124.4192816,-173.17725 0,-95.64315 55.70441,-173.17725 124.4192816,-173.17725 68.7148714,0 124.4192784,77.5341 124.4192784,173.17725 z"
       transform="matrix(3.857923,0,0,2.7717267,444.69175,-913.68849)" /><path
       sodipodi:type="arc"
       style="fill:#ffffff;fill-opacity:1;fill-rule:nonzero;stroke:none"
       id="path2181"
       sodipodi:cx="-128.12173"
       sodipodi:cy="452.47937"
       sodipodi:rx="7.4206352"
       sodipodi:ry="70.351921"
       d="m -120.7011,452.47937 c 0,38.85429 -3.32233,70.35192 -7.42063,70.35192 -4.09831,0 -7.42064,-31.49763 -7.42064,-70.35192 0,-38.85429 3.32233,-70.35192 7.42064,-70.35192 4.0983,0 7.42063,31.49763 7.42063,70.35192 z"
       transform="matrix(53.903741,0,0,5.6857012,7386.2408,-2000.3003)" /></g><path
     id="path2208"
     d="m 1408.9065,247.95354 0,-258.077615 113.75,0.4521298 c 113.2576,0.45018 121.6255,0.68672 150.25,4.24732 43.4856,5.40913996 69.5616,16.7217502 93.0224,40.3560202 11.8428,11.93029 19.8851,23.39588 27.0039,38.49823 9.6739,20.52292 13.1112,35.524225 13.0838,57.101535 -0.046,36.66965 -13.1041,69.17599 -38.7173,96.38482 -26.5612,28.21583 -56.5107,42.29502 -101.8565,47.88254 l -5.9638,0.73486 11.5834,5.76239 c 20.2239,10.06076 28.8548,17.18408 48.7508,40.23539 18.9579,21.96435 37.4999,48.58 68.2725,98 11.3015,18.15 27.2702,43.8 35.486,57 8.2158,13.2 15.7539,25.2375 16.7513,26.75 l 1.8136,2.75 -50.9216,0 -50.9217,0 -6.8641,-12.25 c -3.7753,-6.7375 -8.5083,-15.175 -10.5178,-18.75 -2.0095,-3.575 -5.93,-10.55 -8.7122,-15.5 -35.9574,-63.97408 -41.4747,-73.33846 -56.5612,-96 -23.8079,-35.76198 -43.657,-56.8924 -62.2315,-66.24873 -15.9837,-8.05133 -31.2999,-10.20543 -72.75,-10.23175 l -30.75,-0.0195 0,109.5 0,109.5 -41.5,0 -41.5,0 0,-258.07762 z"
     style="fill:#000000"
     inkscape:connector-curvature="0" /><path
     id="path2170"
     d="m 1633.8901,214.00931 c 22.0299,-2.95923 33.5286,-5.99999 46.9601,-12.41832 5.7033,-2.72537 9.3533,-5.47497 15.5,-11.67639 14.3954,-14.52357 20.3997,-28.38823 21.2818,-49.14219 0.4282,-10.07435 0.1683,-13.40827 -1.5976,-20.5 -5.2837,-21.217695 -17.9319,-37.138485 -37.1469,-46.758215 -11.8696,-5.94238 -21.1467,-8.56238 -38.4974,-10.87226 -9.6438,-1.28388 -25.4008,-1.68669 -80.25,-2.05151 l -68.25,-0.45394 0,78.169875 0,78.16988 65.25,-0.46108 c 51.1247,-0.36127 67.7396,-0.79549 76.75,-2.00585 z"
     style="fill:#ffffff"
     inkscape:connector-curvature="0" /></g></svg>