<?xml version="1.0" encoding="UTF-8" ?>
<!DOCTYPE svg PUBLIC "-//W3C//DTD SVG 1.1//EN" "http://www.w3.org/Graphics/SVG/1.1/DTD/svg11.dtd">
<svg width="70pt" height="146pt" viewBox="0 0 70 146" version="1.1" xmlns="http://www.w3.org/2000/svg">
<path fill="#c7c8ca" d=" M 0.00 0.00 L 2.40 0.00 C 4.37 0.87 6.23 1.94 8.06 3.07 C 5.64 2.48 3.25 1.77 0.86 1.06 C 1.35 1.87 1.84 2.69 2.36 3.49 C 2.09 5.17 1.84 6.84 1.62 8.53 C 1.11 6.76 0.52 5.02 0.00 3.26 L 0.00 0.00 Z" />
<path fill="#ffffff" d=" M 2.40 0.00 L 68.25 0.00 C 67.85 1.30 68.82 2.40 70.00 2.77 L 70.00 146.00 L 35.95 146.00 C 36.15 144.69 36.25 142.71 34.76 142.12 C 32.84 142.70 34.31 145.26 35.41 146.00 L 0.00 146.00 L 0.00 3.26 C 0.52 5.02 1.11 6.76 1.62 8.53 C 5.31 25.22 9.58 41.79 13.49 58.44 C 14.93 64.95 17.02 71.35 17.75 78.00 C 18.17 77.97 19.02 77.91 19.44 77.88 C 18.73 74.29 16.77 70.59 18.01 66.88 C 19.57 65.88 21.17 64.94 22.75 63.99 C 22.89 73.17 23.27 82.36 22.88 91.55 C 21.68 87.19 20.63 82.79 19.70 78.36 C 18.87 79.96 18.97 81.73 19.43 83.43 C 23.93 101.63 28.27 119.87 32.62 138.09 C 33.10 139.42 33.66 140.70 34.32 141.95 C 33.58 133.78 30.83 125.98 29.08 118.00 C 26.62 109.56 27.62 100.70 27.76 92.04 C 27.92 87.93 27.66 83.69 29.04 79.74 C 29.30 80.40 29.84 81.71 30.10 82.37 C 30.60 81.16 30.40 80.05 29.50 79.02 C 29.25 78.59 28.76 77.74 28.51 77.32 L 29.36 77.28 C 29.82 76.02 29.40 75.21 28.08 74.83 L 27.87 74.18 C 28.76 69.76 27.19 65.45 25.95 61.28 C 25.65 61.74 25.05 62.66 24.75 63.12 C 24.63 62.62 24.39 61.61 24.28 61.11 C 24.51 60.78 24.98 60.11 25.22 59.77 C 25.16 59.06 25.02 57.64 24.96 56.93 C 25.46 58.63 26.04 60.32 26.60 62.01 C 29.07 69.53 29.88 77.46 32.06 85.05 C 32.33 86.64 32.58 88.24 32.80 89.84 C 33.63 92.54 33.30 95.63 35.13 97.94 C 34.60 98.74 34.02 99.53 33.42 100.28 C 33.85 100.99 34.72 102.39 35.15 103.09 C 37.92 96.45 38.76 89.23 40.64 82.32 C 40.95 84.05 41.28 85.77 41.64 87.49 C 42.00 84.30 41.58 81.10 40.98 77.97 C 41.41 79.05 42.29 81.22 42.73 82.31 C 42.81 81.43 42.96 79.68 43.04 78.81 C 44.51 86.74 43.14 94.88 43.96 102.89 C 43.58 107.52 41.90 112.08 42.33 116.72 C 42.86 115.72 43.37 114.72 43.63 113.61 C 47.87 94.99 52.44 76.43 56.79 57.83 C 58.03 52.24 59.94 46.75 60.12 40.97 C 58.74 43.68 57.69 46.55 57.07 49.53 C 57.83 36.52 62.74 23.98 62.56 10.91 C 63.83 10.18 65.47 8.78 64.94 7.14 C 63.42 7.01 62.79 8.92 61.92 9.86 C 60.19 12.23 57.79 14.40 57.37 17.45 C 56.79 21.03 56.45 24.88 53.78 27.63 C 54.81 23.67 55.82 19.69 56.09 15.60 L 56.16 14.88 C 57.37 13.30 58.62 11.75 59.94 10.27 C 62.74 7.23 65.51 4.16 67.80 0.71 C 61.50 2.48 55.55 5.24 49.42 7.48 C 45.99 8.65 42.67 10.08 39.39 11.62 C 39.26 11.64 39.01 11.68 38.89 11.69 C 38.39 12.05 37.39 12.75 36.89 13.10 L 35.73 13.11 C 27.15 11.16 19.37 6.75 11.09 3.88 C 8.86 2.85 5.95 3.34 4.60 5.51 C 3.84 4.85 3.09 4.18 2.36 3.49 C 1.84 2.69 1.35 1.87 0.86 1.06 C 3.25 1.77 5.64 2.48 8.06 3.07 C 6.23 1.94 4.37 0.87 2.40 0.00 Z" />
<path fill="#c0bfbf" d=" M 68.25 0.00 L 70.00 0.00 L 70.00 2.77 C 68.82 2.40 67.85 1.30 68.25 0.00 Z" />
<path fill="#c2d2ea" d=" M 49.42 7.48 C 55.55 5.24 61.50 2.48 67.80 0.71 C 65.51 4.16 62.74 7.23 59.94 10.27 C 56.30 9.91 52.71 9.09 49.42 7.48 Z" />
<path fill="#b5b5bc" d=" M 4.60 5.51 C 5.95 3.34 8.86 2.85 11.09 3.88 C 19.37 6.75 27.15 11.16 35.73 13.11 C 35.15 15.61 34.82 18.17 34.54 20.72 C 25.76 16.69 17.91 10.95 9.26 6.67 C 10.26 8.61 11.26 10.55 12.25 12.50 C 10.56 10.79 8.79 9.16 6.99 7.57 C 6.19 6.88 5.40 6.19 4.60 5.51 Z" />
<path fill="#c4d3ea" d=" M 2.36 3.49 C 3.09 4.18 3.84 4.85 4.60 5.51 C 5.40 6.19 6.19 6.88 6.99 7.57 C 10.30 22.66 13.08 37.87 16.01 53.04 C 16.87 57.61 18.29 62.17 18.01 66.88 C 16.77 70.59 18.73 74.29 19.44 77.88 C 19.02 77.91 18.17 77.97 17.75 78.00 C 17.02 71.35 14.93 64.95 13.49 58.44 C 9.58 41.79 5.31 25.22 1.62 8.53 C 1.84 6.84 2.09 5.17 2.36 3.49 Z" />
<path fill="#b5b5bc" d=" M 64.59 17.43 C 66.90 13.10 67.06 8.08 68.95 3.60 C 68.32 10.74 65.85 17.56 64.43 24.56 C 63.23 28.91 62.79 33.47 60.95 37.62 C 61.74 30.82 63.53 24.19 64.59 17.43 Z" />
<path fill="#d6d7d8" d=" M 9.26 6.67 C 17.91 10.95 25.76 16.69 34.54 20.72 C 34.46 21.51 34.38 22.31 34.31 23.10 C 28.49 20.87 22.75 18.42 16.88 16.31 C 16.07 16.10 14.44 15.70 13.63 15.49 C 13.22 14.47 12.76 13.48 12.25 12.50 C 11.26 10.55 10.26 8.61 9.26 6.67 Z" />
<path fill="#d3def0" d=" M 39.39 11.62 C 42.67 10.08 45.99 8.65 49.42 7.48 C 52.71 9.09 56.30 9.91 59.94 10.27 C 58.62 11.75 57.37 13.30 56.16 14.88 C 50.41 14.91 44.58 14.25 39.39 11.62 Z" />
<path fill="#bfbbbc" d=" M 61.92 9.86 C 62.79 8.92 63.42 7.01 64.94 7.14 C 65.47 8.78 63.83 10.18 62.56 10.91 C 62.40 10.65 62.08 10.12 61.92 9.86 Z" />
<path fill="#dfe7f4" d=" M 6.99 7.57 C 8.79 9.16 10.56 10.79 12.25 12.50 C 12.76 13.48 13.22 14.47 13.63 15.49 C 16.68 30.81 20.69 45.92 24.28 61.11 C 24.39 61.61 24.63 62.62 24.75 63.12 C 24.76 63.56 24.77 64.43 24.78 64.86 C 24.48 65.19 23.88 65.85 23.58 66.18 C 23.36 75.97 24.07 85.76 23.70 95.55 C 23.42 94.21 23.15 92.88 22.88 91.55 C 23.27 82.36 22.89 73.17 22.75 63.99 C 21.17 64.94 19.57 65.88 18.01 66.88 C 18.29 62.17 16.87 57.61 16.01 53.04 C 13.08 37.87 10.30 22.66 6.99 7.57 Z" />
<path fill="#d7d7db" d=" M 57.37 17.45 C 57.79 14.40 60.19 12.23 61.92 9.86 C 62.08 10.12 62.40 10.65 62.56 10.91 C 62.74 23.98 57.83 36.52 57.07 49.53 C 56.97 50.18 56.77 51.46 56.67 52.11 C 54.51 52.20 52.32 52.40 50.19 51.97 C 49.23 48.24 51.67 44.22 52.01 40.34 C 52.44 36.07 51.92 31.64 53.78 27.63 C 56.45 24.88 56.79 21.03 57.37 17.45 Z" />
<path fill="#e6edf7" d=" M 38.89 11.69 C 39.01 11.68 39.26 11.64 39.39 11.62 C 44.58 14.25 50.41 14.91 56.16 14.88 L 56.09 15.60 C 55.67 15.71 54.83 15.93 54.41 16.05 C 47.57 17.98 41.03 20.79 34.31 23.10 C 34.38 22.31 34.46 21.51 34.54 20.72 C 34.82 18.17 35.15 15.61 35.73 13.11 L 36.89 13.10 C 37.39 12.75 38.39 12.05 38.89 11.69 Z" />
<path fill="#c5c5c7" d=" M 36.89 13.10 C 37.39 12.75 38.39 12.05 38.89 11.69 C 38.39 12.05 37.39 12.75 36.89 13.10 Z" />
<path fill="#988b8d" d=" M 13.63 15.49 C 14.44 15.70 16.07 16.10 16.88 16.31 C 16.10 16.91 15.31 17.51 14.51 18.09 L 15.89 18.30 C 16.34 23.96 18.00 29.39 19.27 34.89 C 20.73 40.91 21.83 47.03 23.89 52.88 C 24.24 54.23 24.60 55.58 24.96 56.93 C 25.02 57.64 25.16 59.06 25.22 59.77 C 24.98 60.11 24.51 60.78 24.28 61.11 C 20.69 45.92 16.68 30.81 13.63 15.49 Z" />
<path fill="#b59da0" d=" M 16.88 16.31 C 22.75 18.42 28.49 20.87 34.31 23.10 C 41.03 20.79 47.57 17.98 54.41 16.05 C 54.36 16.68 54.29 17.31 54.22 17.93 C 47.72 20.06 41.32 22.50 34.98 25.06 C 28.60 22.86 22.55 19.55 15.89 18.30 L 14.51 18.09 C 15.31 17.51 16.10 16.91 16.88 16.31 Z" />
<path fill="#887678" d=" M 54.41 16.05 C 54.83 15.93 55.67 15.71 56.09 15.60 C 55.82 19.69 54.81 23.67 53.78 27.63 C 51.92 31.64 52.44 36.07 52.01 40.34 C 51.93 38.95 51.81 37.57 51.67 36.19 C 48.61 48.55 46.06 61.04 42.75 73.34 C 42.58 73.78 42.24 74.64 42.06 75.08 C 42.09 75.49 42.15 76.33 42.18 76.75 C 42.39 77.26 42.82 78.29 43.04 78.81 C 42.96 79.68 42.81 81.43 42.73 82.31 C 42.29 81.22 41.41 79.05 40.98 77.97 C 41.58 81.10 42.00 84.30 41.64 87.49 C 41.28 85.77 40.95 84.05 40.64 82.32 C 38.76 89.23 37.92 96.45 35.15 103.09 C 34.72 102.39 33.85 100.99 33.42 100.28 C 34.02 99.53 34.60 98.74 35.13 97.94 C 36.23 95.44 36.95 92.80 37.53 90.14 C 40.17 78.05 43.41 66.11 45.97 54.00 C 48.47 41.93 52.14 30.09 54.22 17.93 C 54.29 17.31 54.36 16.68 54.41 16.05 Z" />
<path fill="#c4697e" d=" M 15.89 18.30 C 22.55 19.55 28.60 22.86 34.98 25.06 C 34.97 25.62 34.94 26.75 34.93 27.32 C 34.05 29.91 32.88 32.39 31.70 34.86 C 29.39 35.07 27.07 35.28 24.77 35.56 C 24.07 35.76 22.67 36.16 21.98 36.36 C 22.47 36.61 23.44 37.10 23.93 37.35 C 25.88 37.78 27.85 38.09 29.81 38.43 C 30.74 38.63 31.67 38.85 32.59 39.07 C 33.04 40.70 33.49 42.33 34.04 43.93 C 31.50 42.50 28.67 41.59 25.74 41.56 C 25.96 42.57 26.29 43.55 26.58 44.54 C 26.40 44.81 26.04 45.35 25.86 45.61 C 24.83 45.16 23.79 44.70 22.75 44.24 C 20.29 35.64 19.09 26.68 15.89 18.30 Z" />
<path fill="#a46873" d=" M 34.98 25.06 C 41.32 22.50 47.72 20.06 54.22 17.93 C 52.14 30.09 48.47 41.93 45.97 54.00 C 42.55 54.77 39.13 55.51 35.73 56.31 C 35.19 52.80 34.76 49.24 35.19 45.69 C 35.84 43.48 36.59 41.31 37.33 39.13 C 39.98 38.52 42.63 37.92 45.26 37.25 C 46.36 36.97 47.45 36.67 48.54 36.34 C 47.72 36.18 46.06 35.88 45.24 35.72 C 42.78 35.26 40.25 35.02 37.88 34.21 C 36.35 32.19 35.67 29.70 34.93 27.32 C 34.94 26.75 34.97 25.62 34.98 25.06 Z" />
<path fill="#d4a4aa" d=" M 15.89 18.30 C 19.09 26.68 20.29 35.64 22.75 44.24 C 23.46 47.07 23.70 49.98 23.89 52.88 C 21.83 47.03 20.73 40.91 19.27 34.89 C 18.00 29.39 16.34 23.96 15.89 18.30 Z" />
<path fill="#9e9da4" d=" M 31.70 34.86 C 32.88 32.39 34.05 29.91 34.93 27.32 C 35.67 29.70 36.35 32.19 37.88 34.21 C 40.25 35.02 42.78 35.26 45.24 35.72 C 42.94 35.64 40.63 35.80 38.35 36.07 C 40.50 37.14 42.87 37.57 45.26 37.25 C 42.63 37.92 39.98 38.52 37.33 39.13 C 36.59 41.31 35.84 43.48 35.19 45.69 C 34.90 45.25 34.33 44.37 34.04 43.93 C 33.49 42.33 33.04 40.70 32.59 39.07 C 31.67 38.85 30.74 38.63 29.81 38.43 C 30.23 38.27 31.07 37.95 31.49 37.79 C 31.57 36.81 31.64 35.83 31.70 34.86 Z" />
<path fill="#bfbdbe" d=" M 24.77 35.56 C 27.07 35.28 29.39 35.07 31.70 34.86 C 31.64 35.83 31.57 36.81 31.49 37.79 C 31.07 37.95 30.23 38.27 29.81 38.43 C 27.85 38.09 25.88 37.78 23.93 37.35 C 24.59 37.17 25.92 36.83 26.58 36.65 C 26.13 36.38 25.22 35.83 24.77 35.56 Z" />
<path fill="#e0e0e0" d=" M 21.98 36.36 C 22.67 36.16 24.07 35.76 24.77 35.56 C 25.22 35.83 26.13 36.38 26.58 36.65 C 25.92 36.83 24.59 37.17 23.93 37.35 C 23.44 37.10 22.47 36.61 21.98 36.36 Z" />
<path fill="#c4c4c8" d=" M 38.35 36.07 C 40.63 35.80 42.94 35.64 45.24 35.72 C 46.06 35.88 47.72 36.18 48.54 36.34 C 47.45 36.67 46.36 36.97 45.26 37.25 C 42.87 37.57 40.50 37.14 38.35 36.07 Z" />
<path fill="#ffffff" d=" M 51.67 36.19 C 51.81 37.57 51.93 38.95 52.01 40.34 C 51.67 44.22 49.23 48.24 50.19 51.97 C 52.32 52.40 54.51 52.20 56.67 52.11 C 54.77 61.30 52.39 70.38 50.25 79.51 C 49.98 75.58 49.74 71.64 49.65 67.70 C 49.73 62.90 50.28 58.08 49.60 53.30 C 46.95 59.25 46.67 65.94 44.51 72.08 C 44.07 72.39 43.19 73.03 42.75 73.34 C 46.06 61.04 48.61 48.55 51.67 36.19 Z" />
<path fill="#c2c1c1" d=" M 60.11 38.46 C 61.47 38.68 61.69 39.38 60.79 40.57 C 59.43 40.36 59.21 39.66 60.11 38.46 Z" />
<path fill="#c97486" d=" M 25.74 41.56 C 28.67 41.59 31.50 42.50 34.04 43.93 C 34.33 44.37 34.90 45.25 35.19 45.69 C 34.76 49.24 35.19 52.80 35.73 56.31 C 35.19 56.68 34.66 57.05 34.13 57.41 C 31.69 59.06 29.16 60.55 26.60 62.01 C 26.04 60.32 25.46 58.63 24.96 56.93 C 24.60 55.58 24.24 54.23 23.89 52.88 C 23.70 49.98 23.46 47.07 22.75 44.24 C 23.79 44.70 24.83 45.16 25.86 45.61 C 26.04 45.35 26.40 44.81 26.58 44.54 C 26.29 43.55 25.96 42.57 25.74 41.56 Z" />
<path fill="#d8d7d8" d=" M 57.07 49.53 C 57.69 46.55 58.74 43.68 60.12 40.97 C 59.94 46.75 58.03 52.24 56.79 57.83 C 52.44 76.43 47.87 94.99 43.63 113.61 C 43.37 114.72 42.86 115.72 42.33 116.72 C 41.90 112.08 43.58 107.52 43.96 102.89 C 47.10 91.39 45.89 79.11 49.65 67.70 C 49.74 71.64 49.98 75.58 50.25 79.51 C 52.39 70.38 54.77 61.30 56.67 52.11 C 56.77 51.46 56.97 50.18 57.07 49.53 Z" />
<path fill="#aca9ac" d=" M 44.51 72.08 C 46.67 65.94 46.95 59.25 49.60 53.30 C 50.28 58.08 49.73 62.90 49.65 67.70 C 45.89 79.11 47.10 91.39 43.96 102.89 C 43.14 94.88 44.51 86.74 43.04 78.81 C 42.82 78.29 42.39 77.26 42.18 76.75 L 43.02 76.60 C 45.32 76.90 44.74 73.26 42.72 74.82 L 42.06 75.08 C 42.24 74.64 42.58 73.78 42.75 73.34 C 43.19 73.03 44.07 72.39 44.51 72.08 Z" />
<path fill="#9a5767" d=" M 35.73 56.31 C 39.13 55.51 42.55 54.77 45.97 54.00 C 43.41 66.11 40.17 78.05 37.53 90.14 C 36.95 92.80 36.23 95.44 35.13 97.94 C 33.30 95.63 33.63 92.54 32.80 89.84 C 33.96 85.53 34.11 81.06 34.22 76.63 C 35.52 70.63 35.41 64.44 34.24 58.44 L 34.13 57.41 C 34.66 57.05 35.19 56.68 35.73 56.31 Z" />
<path fill="#8c1134" d=" M 26.60 62.01 C 29.16 60.55 31.69 59.06 34.13 57.41 L 34.24 58.44 C 33.91 64.50 33.85 70.57 34.22 76.63 C 34.11 81.06 33.96 85.53 32.80 89.84 C 32.58 88.24 32.33 86.64 32.06 85.05 C 29.88 77.46 29.07 69.53 26.60 62.01 Z" />
<path fill="#bb506c" d=" M 34.24 58.44 C 35.41 64.44 35.52 70.63 34.22 76.63 C 33.85 70.57 33.91 64.50 34.24 58.44 Z" />
<path fill="#94898b" d=" M 24.75 63.12 C 25.05 62.66 25.65 61.74 25.95 61.28 C 27.19 65.45 28.76 69.76 27.87 74.18 C 27.82 74.03 27.71 73.72 27.66 73.57 C 26.55 70.72 25.63 67.80 24.78 64.86 C 24.77 64.43 24.76 63.56 24.75 63.12 Z" />
<path fill="#ccd3dd" d=" M 23.58 66.18 C 23.88 65.85 24.48 65.19 24.78 64.86 C 25.63 67.80 26.55 70.72 27.66 73.57 C 27.71 73.72 27.82 74.03 27.87 74.18 L 28.08 74.83 C 28.19 75.45 28.41 76.69 28.51 77.32 C 28.76 77.74 29.25 78.59 29.50 79.02 L 29.04 79.74 C 27.66 83.69 27.92 87.93 27.76 92.04 C 27.62 100.70 26.62 109.56 29.08 118.00 C 30.83 125.98 33.58 133.78 34.32 141.95 C 33.66 140.70 33.10 139.42 32.62 138.09 C 28.27 119.87 23.93 101.63 19.43 83.43 C 18.97 81.73 18.87 79.96 19.70 78.36 C 20.63 82.79 21.68 87.19 22.88 91.55 C 23.15 92.88 23.42 94.21 23.70 95.55 C 24.07 85.76 23.36 75.97 23.58 66.18 Z" />
<path fill="#777172" d=" M 42.72 74.82 C 44.74 73.26 45.32 76.90 43.02 76.60 C 42.95 76.15 42.80 75.26 42.72 74.82 Z" />
<path fill="#887d80" d=" M 28.08 74.83 C 29.40 75.21 29.82 76.02 29.36 77.28 L 28.51 77.32 C 28.41 76.69 28.19 75.45 28.08 74.83 Z" />
<path fill="#dddde0" d=" M 42.06 75.08 L 42.72 74.82 C 42.80 75.26 42.95 76.15 43.02 76.60 L 42.18 76.75 C 42.15 76.33 42.09 75.49 42.06 75.08 Z" />
<path fill="#8b8082" d=" M 29.50 79.02 C 30.40 80.05 30.60 81.16 30.10 82.37 C 29.84 81.71 29.30 80.40 29.04 79.74 L 29.50 79.02 Z" />
<path fill="#8a7d7f" d=" M 30.01 83.71 C 32.14 82.78 31.16 87.13 29.62 85.48 C 29.72 85.03 29.91 84.15 30.01 83.71 Z" />
<path fill="#92878a" d=" M 31.73 90.64 C 30.22 90.55 30.39 87.67 31.48 87.02 C 32.34 88.17 32.43 89.37 31.73 90.64 Z" />
<path fill="#898183" d=" M 32.14 92.18 C 34.11 92.12 32.92 96.29 31.65 93.90 C 31.77 93.47 32.01 92.61 32.14 92.18 Z" />
<path fill="#8c8285" d=" M 32.90 96.56 C 34.27 95.91 34.61 98.77 33.36 98.97 C 33.24 98.37 33.01 97.16 32.90 96.56 Z" />
<path fill="#cac9ca" d=" M 41.31 118.25 L 41.81 118.24 C 42.34 119.49 41.58 120.93 41.43 122.21 C 39.76 129.11 38.13 136.03 36.52 142.95 C 35.25 140.71 36.41 138.25 36.93 135.97 C 38.55 130.11 39.56 124.07 41.31 118.25 Z" />
<path fill="#bebec1" d=" M 35.41 146.00 C 34.31 145.26 32.84 142.70 34.76 142.12 C 36.25 142.71 36.15 144.69 35.95 146.00 L 35.41 146.00 Z" />
</svg>
