<?xml version="1.0" encoding="UTF-8" standalone="no"?>
<!-- Created with Inkscape (http://www.inkscape.org/) -->
<svg
   xmlns:svg="http://www.w3.org/2000/svg"
   xmlns="http://www.w3.org/2000/svg"
   version="1.0"
   width="201.05988"
   height="209.12286"
   viewBox="0 0 201.05988 209.12286"
   id="svg2430">
  <defs
     id="defs2432" />
  <g
     transform="translate(-274.47006,-427.80075)"
     id="layer1">
    <g
       transform="matrix(1.25,0,0,1.25,294.34556,427.80075)"
       id="g8"
       style="fill:#e11418;fill-rule:evenodd;stroke:none;stroke-width:1;stroke-linecap:butt;stroke-linejoin:miter;stroke-dasharray:none">
      <path
         d="M 115.154,2.0371 C 106.887,1.2197 85.0665,0 64.4853,0 C 43.9033,0 22.083,1.2197 13.8203,2.0371 C 4.3867,2.999 0,7.791 0,17.1308 C 0,34.8603 0.6523,62.4882 1.8633,78.7168 C 2.9453,93.1823 3.79,104.604 21.8018,115.547 C 34.6875,123.38 47.5029,130.092 64.1894,138.702 C 64.1894,138.702 64.4766,138.864 64.4766,138.864 C 64.4766,138.864 64.7715,138.702 64.7715,138.702 C 81.4965,130.064 94.3345,123.351 107.168,115.547 C 125.19,104.594 126.04,93.1823 127.107,78.7168 C 128.328,62.4121 128.986,34.8125 128.986,17.1308 C 128.986,7.791 124.588,2.999 115.154,2.0371 z M 121.519,78.3222 C 120.49,92.1663 119.808,101.321 104.267,110.76 C 92.0695,118.173 81.3095,123.823 65.0439,132.27 C 65.0439,132.27 64.4853,132.538 64.4853,132.538 C 64.4853,132.538 63.9326,132.27 63.9326,132.27 C 48.1807,124.104 36.9434,118.192 24.71,110.76 C 9.1621,101.321 8.4717,92.1563 7.4512,78.3076 C 6.2441,62.164 5.5967,34.7412 5.5967,17.1308 C 5.5967,10.6806 7.8096,8.2871 14.3789,7.6142 C 22.5498,6.8086 44.1377,5.5976 64.4853,5.5976 C 84.8415,5.5976 106.416,6.8086 114.596,7.6142 C 121.166,8.2871 123.375,10.6806 123.375,17.1308 C 123.375,34.7314 122.726,62.1455 121.519,78.3222 z"
         id="path10" />
    </g>
    <g
       transform="matrix(1.25,0,0,1.25,317.06281,455.86587)"
       id="g12"
       style="fill:#e11418;fill-rule:evenodd;stroke:none;stroke-width:1;stroke-linecap:butt;stroke-linejoin:miter;stroke-dasharray:none">
      <path
         d="M 45.4483,19.0205 C 45.4483,19.0205 43.5078,25.5381 43.5078,25.5381 C 36.4795,11.1738 28.0908,3.6357 17.9346,3.6357 C 6.959,3.6357 1.5879,10.9834 0,13.3057 C 2.8213,6.2256 10.2637,0 20.1748,0 C 33.7588,0 41.4346,10.7256 45.4483,19.0205 z"
         id="path14" />
    </g>
    <g
       transform="matrix(1.25,0,0,1.25,310.22081,498.04487)"
       id="g16"
       style="fill:#e11418;fill-rule:evenodd;stroke:none;stroke-width:1;stroke-linecap:butt;stroke-linejoin:miter;stroke-dasharray:none">
      <path
         d="M 0.0244,0 C 0.1094,23.9277 7.0713,35.437 17.4639,35.437 C 22.2783,35.437 25.7295,32.405 25.7295,27.4756 C 25.7295,23.2695 23.9043,19.9336 23.1611,18.5937 C 23.4424,19.9716 23.7002,21.5351 23.7002,23.2978 C 23.7002,27.4228 20.915,28.7529 18.6367,28.7529 C 11.7236,28.7529 4.8115,15.3086 2.8555,0 C 1.9844,0 0,0 0.0244,0 z"
         id="path18" />
    </g>
    <g
       transform="matrix(1.25,0,0,1.25,376.05456,455.86587)"
       id="g20"
       style="fill:#e11418;fill-rule:evenodd;stroke:none;stroke-width:1;stroke-linecap:butt;stroke-linejoin:miter;stroke-dasharray:none">
      <path
         d="M 25.2683,0 C 35.1833,0 42.6123,6.2256 45.4493,13.3057 C 43.8613,10.9834 38.4883,3.6357 27.5003,3.6357 C 17.3643,3.6357 8.9723,11.1738 1.9404,25.5381 C 1.9404,25.5381 0,19.0205 0,19.0205 C 4.0053,10.7256 11.6943,0 25.2683,0 z"
         id="path22" />
    </g>
    <g
       transform="matrix(1.25,0,0,1.25,407.54369,498.04487)"
       id="g24"
       style="fill:#e11418;fill-rule:evenodd;stroke:none;stroke-width:1;stroke-linecap:butt;stroke-linejoin:miter;stroke-dasharray:none">
      <path
         d="M 22.874,0 C 20.926,15.3086 14.008,28.7529 7.084,28.7529 C 4.812,28.7529 2.037,27.4228 2.037,23.2978 C 2.037,21.5351 2.283,19.9716 2.562,18.5937 C 1.826,19.9336 0,23.2695 0,27.4756 C 0,32.405 3.447,35.437 8.267,35.437 C 18.651,35.437 25.626,23.9277 25.701,0 C 25.732,0 23.753,0 22.874,0 z"
         id="path26" />
    </g>
    <g
       transform="matrix(1.25,0,0,1.25,312.02006,472.3185)"
       id="g28"
       style="fill:#e11418;fill-rule:evenodd;stroke:none;stroke-width:1;stroke-linecap:butt;stroke-linejoin:miter;stroke-dasharray:none">
      <path
         d="M 85.1779,0 C 76.2999,0 67.6229,7.0801 62.4319,23.417 C 62.4319,23.417 65.7869,25.7578 65.7869,25.7578 C 65.7869,25.7578 64.1809,33.792 64.1809,33.792 C 64.1809,33.792 57.9019,36.3897 57.9019,36.3897 C 57.9019,36.3897 56.7629,44.2842 56.7629,44.2842 C 56.7629,44.2842 59.8229,40.5332 59.8229,40.5332 C 59.8229,40.5332 63.1039,39.1748 63.1039,39.1748 C 63.1039,39.1748 62.0829,44.2754 62.0829,44.2754 C 62.0829,44.2754 56.4249,46.625 56.4249,46.625 C 56.4249,46.625 54.4409,60.2761 54.4409,60.2761 C 54.4409,60.2761 55.8229,64.6341 55.8229,64.6341 C 55.8229,64.6341 50.3555,66.8031 50.3555,66.8031 C 50.3555,66.8031 44.8829,64.6341 44.8829,64.6341 C 44.8829,64.6341 46.2686,60.2761 46.2686,60.2761 C 46.2686,60.2761 44.2803,46.625 44.2803,46.625 C 44.2803,46.625 38.6172,44.2754 38.6172,44.2754 C 38.6172,44.2754 37.6075,39.1748 37.6075,39.1748 C 37.6075,39.1748 40.8819,40.5332 40.8819,40.5332 C 40.8819,40.5332 43.9522,44.2842 43.9522,44.2842 C 43.9522,44.2842 42.7979,36.3897 42.7979,36.3897 C 42.7979,36.3897 36.5293,33.792 36.5293,33.792 C 36.5293,33.792 34.9131,25.7578 34.9131,25.7578 C 34.9131,25.7578 38.2735,23.417 38.2735,23.417 C 33.087,7.0801 24.4151,0 15.5284,0 C 4.5489,0 0,10.4219 0.5918,19.0078 C 0.5918,19.0078 3.2383,19.0078 3.2383,19.0078 C 5.4356,31.1504 11.6094,41.4385 16.2539,41.4385 C 17.6739,41.4385 18.417,40.3565 18.417,38.5791 C 18.417,34.2979 15.4952,29.8164 15.4952,21.6299 C 15.4952,17.8594 16.7256,15.4942 19.5567,15.4942 C 21.4873,15.4942 23.0664,17.5254 24.0049,19.7412 C 22.2891,25.8584 22.5459,30.9785 27.4288,33.1582 C 29.8409,34.2305 32.7491,35.5088 32.7491,35.5088 C 32.7491,35.5088 35.8477,48.6377 36.0723,49.5772 C 36.2764,50.4356 36.8096,51.6081 37.2022,52.3321 C 37.7686,53.3191 41.836,60.2851 41.836,60.2851 C 41.836,60.2851 43.2188,67.2321 43.5137,68.7091 C 44.3106,72.6841 47.1475,72.6941 50.3555,72.6841 C 53.5547,72.6941 56.3909,72.6841 57.1929,68.7091 C 57.4869,67.2321 58.8749,60.2851 58.8749,60.2851 C 58.8749,60.2851 62.9319,53.3191 63.5129,52.3321 C 63.8999,51.6081 64.4289,50.4356 64.6239,49.5772 C 64.8489,48.6377 67.9519,35.5088 67.9519,35.5088 C 67.9519,35.5088 70.8639,34.2305 73.2819,33.1582 C 78.1589,30.9785 78.4219,25.8584 76.6999,19.7412 C 77.6399,17.5254 79.2239,15.4942 81.1529,15.4942 C 83.9849,15.4942 85.2099,17.8594 85.2099,21.6299 C 85.2099,29.8164 82.2879,34.2979 82.2879,38.5791 C 82.2879,40.3565 83.0319,41.4385 84.4519,41.4385 C 89.0859,41.4385 95.2709,31.1504 97.4769,19.0078 C 97.4769,19.0078 100.113,19.0078 100.113,19.0078 C 100.706,10.4219 96.1619,0 85.1779,0 z M 29.3389,30.794 C 25.8838,29.3252 25.5313,25.2334 26.6836,19.7901 C 26.6836,19.7901 30.4688,25.7393 30.4688,25.7393 C 30.4688,25.7393 31.876,31.876 31.876,31.876 C 31.876,31.876 30.5088,31.2891 29.3389,30.794 z M 71.3699,30.794 C 70.1939,31.2891 68.8239,31.876 68.8239,31.876 C 68.8239,31.876 70.2269,25.7393 70.2269,25.7393 C 70.2269,25.7393 74.0159,19.7901 74.0159,19.7901 C 75.1709,25.2334 74.8209,29.3252 71.3699,30.794 z"
         id="path30" />
    </g>
    <g
       transform="matrix(1.25,0,0,1.25,358.00407,615.55862)"
       id="g32"
       style="fill:#161413;fill-rule:evenodd;stroke:none;stroke-width:1;stroke-linecap:butt;stroke-linejoin:miter;stroke-dasharray:none">
      <path
         d="M 6.0878,6.546 C 6.0878,6.546 6.0878,13.115 6.0878,13.115 C 6.0878,13.115 12.7949,13.115 15.0361,13.115 C 19.9897,13.115 21.8637,11.133 21.8637,8.396 C 21.8637,6.598 20.9707,3.696 15.1132,3.696 C 13.0576,3.696 0,3.696 0,3.696 C 0,3.696 0,0 0,0 C 0,0 10.2392,0 15.7656,0 C 25.7967,0 28.1377,4.243 28.1377,8.396 C 28.1377,13.378 24.7717,16.825 15.7412,16.825 C 10.1923,16.825 0,16.825 0,16.825 C 0,16.825 0,6.546 0,6.546 C 0,6.546 6.0878,6.546 6.0878,6.546 z"
         id="path34" />
    </g>
    <g
       transform="matrix(1.25,0,0,1.25,274.47006,615.55862)"
       id="g36"
       style="fill:#161413;fill-rule:evenodd;stroke:none;stroke-width:1;stroke-linecap:butt;stroke-linejoin:miter;stroke-dasharray:none">
      <path
         d="M 6.0791,6.546 C 6.0791,6.546 6.0791,13.115 6.0791,13.115 C 6.0791,13.115 12.7959,13.115 15.0322,13.115 C 19.9854,13.115 21.8545,11.133 21.8545,8.396 C 21.8545,6.598 20.9678,3.696 15.1035,3.696 C 13.0479,3.696 0,3.696 0,3.696 C 0,3.696 0,0 0,0 C 0,0 10.2412,0 15.7617,0 C 25.8018,0 28.1426,4.243 28.1426,8.396 C 28.1426,13.378 24.7627,16.825 15.7432,16.825 C 10.1895,16.825 0,16.825 0,16.825 C 0,16.825 0,6.546 0,6.546 C 0,6.546 6.0791,6.546 6.0791,6.546 z"
         id="path38" />
    </g>
    <g
       transform="matrix(1.25,0,0,1.25,399.25369,615.55862)"
       id="g40"
       style="fill:#161413;fill-rule:evenodd;stroke:none;stroke-width:1;stroke-linecap:butt;stroke-linejoin:miter;stroke-dasharray:none">
      <path
         d="M 13.135,6.527 C 13.135,6.527 13.135,10.25 13.135,10.25 C 13.135,10.25 22.056,10.25 22.056,10.25 C 22.056,10.25 22.056,13.115 22.056,13.115 C 22.056,13.115 15.433,13.115 13.183,13.115 C 8.143,13.115 6.276,11.133 6.276,8.396 C 6.276,5.344 8.811,3.705 12.835,3.705 C 14.889,3.705 28.133,3.705 28.133,3.705 C 28.133,3.705 28.133,0 28.133,0 C 28.133,0 18.127,0 12.602,0 C 4.625,0 0,2.522 0,8.396 C 0,14.15 4.469,16.825 12.367,16.825 C 17.922,16.825 28.133,16.825 28.133,16.825 C 28.133,16.825 28.133,6.527 28.133,6.527 C 28.133,6.527 13.135,6.527 13.135,6.527 z"
         id="path42" />
    </g>
    <g
       transform="matrix(1.25,0,0,1.25,443.21619,615.55862)"
       id="g44"
       style="fill:#161413;fill-rule:evenodd;stroke:none;stroke-width:1;stroke-linecap:butt;stroke-linejoin:miter;stroke-dasharray:none">
      <path
         d="M 6.485,3.675 C 6.485,3.675 25.645,3.675 25.645,3.675 C 25.645,3.675 25.645,0 25.645,0 C 25.645,0 0,0 0,0 C 0,0 0,16.825 0,16.825 C 0,16.825 25.851,16.825 25.851,16.825 C 25.851,16.825 25.851,13.115 25.851,13.115 C 25.851,13.115 6.485,13.115 6.485,13.115 C 6.485,13.115 6.485,10.241 6.485,10.241 C 6.485,10.241 24.62,10.241 24.62,10.241 C 24.62,10.241 24.62,6.537 24.62,6.537 C 24.62,6.537 6.485,6.537 6.485,6.537 C 6.485,6.537 6.485,3.675 6.485,3.675 z"
         id="path46" />
    </g>
    <g
       transform="matrix(1.25,0,0,1.25,315.63831,615.20612)"
       id="g48"
       style="fill:#161413;fill-rule:evenodd;stroke:none;stroke-width:1;stroke-linecap:butt;stroke-linejoin:miter;stroke-dasharray:none">
      <path
         d="M 14.3398,17.374 C 3.9609,17.374 0,13.97 0,8.678 C 0,3.429 4.0908,0 14.3398,0 C 24.5869,0 28.6758,3.429 28.6758,8.678 C 28.6758,13.97 24.5869,17.374 14.3398,17.374 z M 22.3935,8.678 C 22.3935,5.803 19.6035,3.695 14.3398,3.695 C 9.0342,3.695 6.2832,5.803 6.2832,8.678 C 6.2832,11.424 8.7578,13.668 14.3398,13.668 C 20,13.668 22.3935,11.424 22.3935,8.678 z"
         id="path50" />
    </g>
  </g>
</svg>
