<?xml version="1.0" encoding="utf-8"?>
<!-- Generator: Adobe Illustrator 12.0.0, SVG Export Plug-In . SVG Version: 6.00 Build 51448)  -->
<!DOCTYPE svg PUBLIC "-//W3C//DTD SVG 1.1//EN" "http://www.w3.org/Graphics/SVG/1.1/DTD/svg11.dtd" [
	<!ENTITY ns_svg "http://www.w3.org/2000/svg">
	<!ENTITY ns_xlink "http://www.w3.org/1999/xlink">
]>
<svg  version="1.1" id="Ebene_1" xmlns="&ns_svg;" xmlns:xlink="&ns_xlink;" width="192.756" height="192.756"
	 viewBox="0 0 192.756 192.756" overflow="visible" enable-background="new 0 0 192.756 192.756" xml:space="preserve">
<g>
	<polygon fill-rule="evenodd" clip-rule="evenodd" fill="#FFFFFF" points="0,0 192.756,0 192.756,192.756 0,192.756 0,0 	"/>
	<polygon fill-rule="evenodd" clip-rule="evenodd" points="92.027,176.824 107.937,176.824 111.496,176.692 114.177,176.561 
		116.813,176.1 119.363,175.177 121.736,173.88 123.758,172.166 125.537,170.122 127.252,167.178 128.878,163.97 131.316,158.257 
		134.524,150.236 137.865,140.722 139.776,135.338 141.49,129.976 143.117,124.526 144.633,119.011 146.215,113.1 147.644,107.188 
		149.027,101.233 150.28,95.279 151.401,89.368 152.5,83.457 153.488,77.546 154.411,71.854 155.137,66.669 155.861,61.813 
		156.367,57.286 156.96,52.1 157.619,45.53 158.213,39.224 158.477,35.686 158.608,32.675 158.278,29.708 157.29,26.83 
		155.861,24.193 153.884,21.908 151.532,19.996 148.896,18.634 146.018,17.711 142.984,17.447 138.524,17.184 131.251,16.854 
		120.945,16.458 107.937,16.195 93.016,16.129 77.59,16.195 63.813,16.458 53.968,16.854 48.453,17.184 46.211,17.447 
		44.058,17.975 42.015,18.81 40.103,19.93 38.411,21.38 36.895,23.028 35.642,24.918 34.741,26.962 34.147,29.115 33.884,31.291 
		33.884,33.51 34.214,38.96 34.939,47.112 35.906,57.022 37.224,67.438 38.872,78.008 40.564,88.445 42.608,98.729 44.959,109.232 
		47.53,119.538 50.145,129.053 52.716,137.184 55.133,144.215 57.572,150.697 60.121,156.872 64.186,166.387 66.362,170.254 
		68.933,172.957 72.866,175.11 76.931,176.363 81.919,176.692 84.996,176.759 92.027,176.824 	"/>
	<path fill-rule="evenodd" clip-rule="evenodd" fill="#FCC652" d="M46.124,33.247v-7.581l0.593-0.11l0.747-0.11h0.791l0.594,0.11
		h0.043l0.527,0.176l0.528,0.308l0.527,0.417l0.417,0.483l0.33,0.527l0.198,0.571l0.154,0.637v0.527l-0.044,0.593l-0.11,0.572
		l-0.264,0.549l-0.308,0.461l-0.484,0.483l-0.571,0.483l-0.748,0.417l-0.197,0.066l-0.594,0.198l-0.747,0.154l-0.901,0.066H46.124
		L46.124,33.247z M140.326,32.851l0.109-0.044l0.682-0.373l0.637-0.461l0.484-0.528l0.351-0.527l0.22-0.549l0.154-0.572l0.065-0.483
		v-0.461l-0.109-0.593l-0.154-0.483l-0.219-0.417l-0.308-0.527l-0.484-0.483l-0.527-0.352l-0.593-0.264l-0.308-0.066l-0.264-0.044
		l-0.747-0.066h-0.747l-0.638,0.11l-0.308,0.066v7.603h0.571l0.594-0.044l0.571-0.11l0.549-0.154L140.326,32.851L140.326,32.851z
		 M140.326,24.083h0.835l0.703,0.044l0.835,0.11l0.791,0.154l0.791,0.33l0.747,0.374l0.527,0.417l0.483,0.527l0.418,0.637
		l0.373,0.791l0.22,0.747l0.11,0.725l-0.066,0.637l-0.109,0.704l-0.264,0.637l-0.308,0.615l-0.483,0.55l-0.571,0.527l-0.638,0.461
		l-0.703,0.33l-0.791,0.308l-0.681,0.154l-0.308,0.11l0.526,0.264l0.462,0.33l0.439,0.417l0.352,0.417l4.834,5.823l0.418,0.483
		l0.483,0.417l0.527,0.374l0.527,0.374l0.374,0.22l0.417,0.154l0.418,0.11v0.308h-4.329l-0.527-0.044l-0.55-0.11l-0.461-0.22
		l-0.418-0.308l-0.439-0.483l-4.966-6.395l-0.747-0.967l-0.264-0.264l-0.264-0.264l-0.308-0.198l-0.33-0.22l-0.373-0.11
		l-0.374-0.044l-0.044,9.625h-4.769v-0.308l0.22-0.22l0.154-0.22l0.153-0.264l0.11-0.308l0.11-0.33l0.109-0.308v-0.33v-14.92v-0.264
		l-0.065-0.264l-0.044-0.264l-0.154-0.22l-0.176-0.198l-0.154-0.22l-0.197-0.154l-0.439-0.264l-0.374-0.154l-0.197-0.066v-0.308
		H140.326L140.326,24.083z M71.635,41.707l0.439,0.044h0.637l0.527-0.044l0.638-0.22l0.725-0.374l0.594-0.417l0.461-0.484
		l0.439-0.571l0.417-0.748l0.308-0.681l0.264-0.791l0.176-0.792l0.11-0.901l0.044-0.857v-0.791l-0.11-0.835l-0.22-0.901
		l-0.198-0.901l-0.417-1.011l-0.483-0.901l-0.528-0.857l-0.637-0.725l-0.747-0.703l-0.748-0.527l-0.725-0.374l-0.967-0.264
		l-0.791-0.088l-0.835,0.088l-0.703,0.176l-0.637,0.352l-0.615,0.483l-0.483,0.483l-0.417,0.528l-0.374,0.747l-0.373,0.792
		l-0.264,0.791l-0.154,0.901l-0.11,1.011v0.989l0.11,1.011l0.154,1.055l0.264,0.967l0.373,0.944l0.638,1.208l0.571,0.813l0.33,0.352
		l0.154,0.22l0.154,0.219l0.264,0.264l0.527,0.417l0.593,0.374l0.681,0.308l0.637,0.176L71.635,41.707L71.635,41.707z
		 M71.635,23.709h0.704l1.099,0.154l0.966,0.22l0.945,0.308l0.857,0.439l0.835,0.461l0.857,0.593l0.791,0.725l0.681,0.747
		l0.593,0.792l0.461,0.857l0.484,1.01l0.373,1.208l0.198,1.011l0.109,0.945v1.011l-0.153,1.275l-0.22,1.098l-0.373,1.011
		l-0.528,1.165l-0.571,0.945l-0.637,0.813l-0.747,0.791l-0.901,0.725l-0.835,0.593l-0.857,0.483l-1.055,0.417l-1.274,0.374
		l-0.989,0.154h-0.813h-0.197l-1.011-0.044l-1.011-0.176l-0.901-0.198l-1.055-0.439l-1.054-0.527l-0.791-0.571l-0.637-0.527
		l-0.264-0.33l-0.33-0.264l-0.527-0.637l-0.461-0.681l-0.484-0.857l-0.417-0.879l-0.33-1.011l-0.198-1.165l-0.176-1.055v-1.077
		l0.11-1.055l0.22-1.099l0.374-1.12l0.374-0.945l0.528-0.901l0.571-0.857l0.681-0.791l0.704-0.681l0.791-0.637l0.901-0.593
		l1.165-0.572l1.011-0.329l0.945-0.198l0.945-0.11H71.635L71.635,23.709z M93.763,43.926h1.428l7.493-17.579l0.176-0.308
		l0.197-0.308l0.265-0.33l0.264-0.264l0.329-0.22l0.571-0.352l0.33-0.176v-0.308h-5.56v0.308l0.153,0.11l0.22,0.22l0.154,0.264
		l0.109,0.264l0.044,0.308l-0.044,0.374l-0.109,0.33l-4.637,10.79l-4.614-10.636l-0.154-0.417l-0.043-0.374v-0.264l0.043-0.264
		l0.154-0.264l0.176-0.264l0.264-0.176v-0.308h-6.834v0.308l0.198,0.11l0.549,0.264l0.461,0.33l0.417,0.417l0.33,0.417l0.11,0.22
		l0.11,0.198L93.763,43.926L93.763,43.926z M110.684,43.354v0.308h14.283l1.23-4.065l-0.265-0.11l-0.329,0.418l-0.373,0.483
		l-0.353,0.374l-0.373,0.308l-0.374,0.154l-0.417,0.066h-0.286h-7.933v-6.79h6.197H122l0.264,0.066l0.22,0.154l0.22,0.154
		l0.153,0.154l0.11,0.22h0.308v-3.758h-0.308l-0.066,0.044l-0.153,0.286l-0.154,0.154l-0.264,0.154l-0.264,0.11h-0.264h-6.307
		v-5.933h6.241l0.527,0.044l0.483,0.11l0.483,0.22l0.417,0.264l0.374,0.374l0.308,0.374l0.176,0.308h0.308l-0.11-3.911h-14.876
		v0.308h0.176l0.264,0.11l0.308,0.154l0.264,0.22l0.264,0.308l0.264,0.374l0.11,0.374l0.065,0.374l0.044,0.308l-0.044,14.679v0.308
		l-0.065,0.374l-0.154,0.483l-0.154,0.417l-0.22,0.264L110.684,43.354L110.684,43.354z M48.849,24.083h-8.372v0.308h0.154
		l0.417,0.176l0.374,0.154l0.264,0.198l0.22,0.264l0.154,0.374l0.11,0.374l0.044,0.374v0.154v14.767l-0.044,0.483l-0.11,0.417
		l-0.154,0.417l-0.22,0.439l-0.264,0.374v0.264h4.659l0.044-9.646h0.22l0.219,0.066l0.527,0.198l0.461,0.264l0.374,0.374
		l0.264,0.374l0.176,0.22l0.484,0.637l5.12,6.614l0.374,0.374l0.417,0.308l0.417,0.154l0.483,0.066h0.22h4.395v-0.264l-0.286-0.11
		l-0.681-0.33l-0.637-0.374l-0.725-0.681l-1.912-2.263l-1.692-2.022l-1.912-2.329l-0.308-0.308l-0.33-0.33l-0.308-0.264
		l-0.747-0.483l0.374-0.044l0.747-0.264l0.791-0.264l0.681-0.374l0.571-0.483l0.549-0.461l0.417-0.593l0.308-0.637l0.264-0.681
		l0.109-0.638v-0.747l-0.109-0.725l-0.154-0.703l-0.308-0.637l-0.374-0.571l-0.417-0.483l-0.593-0.461l-0.681-0.374l-0.703-0.33
		l-0.725-0.198l-0.747-0.11h-1.121H48.849L48.849,24.083z"/>
	<path fill-rule="evenodd" clip-rule="evenodd" d="M96.378,8.504H85.105L72.47,8.68L54.562,9.207l-8.021,0.549l-2.769,0.352
		l-2.769,0.835l-2.571,1.099l-2.439,1.407l-2.264,1.736l-2,2.065l-1.78,2.241l-1.362,2.483l-1.099,2.637l-0.747,2.791l-0.308,2.835
		v2.703l0.791,11.756l0.857,8.79L29.27,63.9l1.472,10.877l1.648,10.35l1.714,9.757l1.846,9.383l2.175,9.251l2.396,9.207l2.769,9.383
		l2.9,9.163l2.923,8.416l2.834,7.428l5.889,13.646l2.725,4.241l3.406,3.691l4.175,2.681l4.548,1.758l4.615,0.791l2.307,0.198
		l13.119,0.132h3.647h14.723l2.593-0.132l2.835-0.352l2.879-0.638l2.834-0.944l2.726-1.297l3.186-2.373l2.703-2.703l2.197-3.076
		l1.714-3.252l2.131-4.9l2.726-6.636l2.9-7.581l2.9-7.933l2.725-7.999l2.439-8.086l2.197-8.175l3.823-16.876l1.78-8.614l1.647-8.767
		l1.451-8.79l1.252-8.79l1.912-15.602l1.45-14.701l0.22-3.098l-0.22-3.252l-0.681-3.187l-1.188-3.12l-1.538-2.791l-1.911-2.659
		l-2.308-2.308l-2.659-2l-2.856-1.582l-3.12-1.033l-3.12-0.659l-3.604-0.33l-13.8-0.747L99.85,8.504H96.378L96.378,8.504z
		 M96.378,181.681h-3.625l-13.009-0.132l-2.087-0.197l-4.263-0.726l-4.087-1.582l-3.67-2.352l-3.01-3.273l-2.505-3.89l-3.208-7.339
		l-2.549-6.043l-2.834-7.34l-2.879-8.35l-2.9-9.12l-2.747-9.316l-2.373-9.119l-2.154-9.186l-1.846-9.294l-1.692-9.713l-1.648-10.306
		l-1.45-10.833l-1.187-10.372l-0.835-8.724l-0.527-7.076l-0.264-4.526v-2.505l0.264-2.483l0.659-2.439l0.967-2.351l1.187-2.176
		l1.582-1.978l1.758-1.824l1.978-1.516l2.175-1.253l2.286-0.967l2.438-0.725l2.483-0.33l7.867-0.527l7.625-0.264l10.24-0.264
		l12.591-0.198h11.25h3.428l15.558,0.396l13.844,0.396l9.317,0.461l4.395,0.264l3.428,0.33l2.813,0.594l2.747,0.901l2.505,1.384
		l2.352,1.78l2.043,2.021l1.715,2.373l1.362,2.483l1.055,2.769l0.593,2.813l0.198,2.901l-0.198,2.878l-0.659,6.504l-0.791,8.13
		l-1.164,9.778l-0.726,5.779l-1.253,8.724l-1.45,8.724l-1.626,8.724l-1.779,8.592l-1.978,8.658l-1.824,8.13l-2.176,8.064
		l-2.417,8.021l-2.703,7.933l-2.878,7.889l-2.9,7.537l-2.682,6.57l-2.109,4.79l-1.56,3.011l-1.978,2.747l-2.417,2.438l-2.835,2.109
		l-2.352,1.1l-2.57,0.856l-2.615,0.594l-2.637,0.329l-2.418,0.132H96.378L96.378,181.681z"/>
	<path fill-rule="evenodd" clip-rule="evenodd" fill="#FCC652" d="M73.151,161.267l-1.472-3.56c0.505,0.154,0.989,0.286,1.472,0.418
		c0.923,0.241,1.824,0.417,2.703,0.527c0.505,0.044,1.011,0.065,1.516,0.065c0.725,0,1.472-0.065,2.285-0.197
		c0.286-0.066,0.571-0.11,0.879-0.198c0.417-0.044,0.813-0.088,1.187-0.132c0.813-0.065,1.539-0.088,2.22-0.044
		c2.637,0.132,4.614,1.055,6.504,3.187c0.417,0.461,0.835,0.967,1.252,1.561c0.022,0.043,0.044,0.087,0.088,0.109
		c-0.044,0-0.066-0.022-0.088-0.022c-0.439-0.197-0.835-0.395-1.252-0.549c-2.241-0.945-4.263-1.45-6.504-1.296
		c-0.703,0.044-1.429,0.153-2.22,0.351c-0.308,0.066-0.637,0.176-0.966,0.264c-0.374,0.176-0.748,0.33-1.099,0.44
		c-0.791,0.264-1.538,0.396-2.285,0.439c-0.505,0-1.011-0.022-1.516-0.11c-0.813-0.132-1.648-0.373-2.505-0.77L73.151,161.267
		L73.151,161.267z M126.681,135.052c8.723-23.886,13.623-47.903,14.656-73.305h1.252l0.242-2.856h-23.578h-2.725h-1.517h-2.285
		h-2.065h-2.241h-6.482h-1.252h-1.539h-5.911h-1.538h-1.252h-6.504h-2.22h-2.065h-2.285h-1.516h-2.703h-23.49l0.176,2.461
		l1.252,0.154c1.252,25.314,5.845,49.705,14.546,73.481c2.22-3.45,4.747-6.373,7.515-8.79c0.879-0.769,1.78-1.494,2.703-2.153
		c0.505-0.352,1.011-0.703,1.516-1.033c0.747-0.483,1.516-0.944,2.285-1.362c0.681-0.373,1.384-0.703,2.065-1.032
		c0.747-0.33,1.495-0.638,2.22-0.923c1.626-0.615,3.252-1.077,4.9-1.429c-1.011,3.252-2.264,6.505-3.846,9.822l0.681,0.396
		c1.692-3.56,3.01-7.01,4.043-10.394c0.241-0.044,0.483-0.088,0.725-0.132c0.132-0.021,0.285-0.044,0.417-0.065
		c-0.132,0.505-0.263,0.988-0.417,1.494c-1.055,3.604-2.396,7.229-4.087,10.921c-0.901-0.879-1.692-1.341-2.417-1.45
		c-0.923-0.154-1.67,0.241-2.22,0.988c-1.165,1.582-1.296,4.681,0,6.614c0.528,0.747,1.253,1.341,2.22,1.583
		c0.044,0.021,0.088,0.021,0.132,0.044c2.834,0,3.252-2.857,3.252-5.099c1.736,2.791-0.198,6.241-3.384,6.109
		c-0.176,0-0.352-0.022-0.549-0.044c-0.088,1.714-0.637,2.988-1.67,3.713c-0.549,0.396-1.23,0.638-2.065,0.703
		c-0.374,0.022-0.769,0.022-1.187-0.021c-0.286,1.12-0.659,1.89-1.099,2.461s-0.945,0.945-1.516,1.274
		c-0.681,0.396-1.451,0.726-2.329,1.209l1.076,1.56c0.418-0.264,0.835-0.505,1.253-0.769c0.505-0.33,1.011-0.659,1.516-0.989
		c0.769-0.527,1.538-1.077,2.285-1.626c0.703-0.55,1.406-1.12,2.065-1.692c0.77-0.659,1.517-1.318,2.22-2.021
		c2.461-2.373,4.614-4.988,6.504-7.866c0.439-0.638,0.835-1.318,1.252-1.978c0.527-0.901,1.033-1.824,1.538-2.77
		c0.374-0.746,0.747-1.494,1.099-2.263l0.132-10.438c0.352,0,0.725-0.022,1.077-0.022v47.947h1.45v-47.925
		c0.308,0.021,0.615,0.021,0.901,0.044l0.132,10.503c0.373,0.77,0.725,1.517,1.12,2.264c0.483,0.944,1.011,1.868,1.539,2.769
		c0.395,0.682,0.834,1.341,1.252,2c1.89,2.879,4.043,5.493,6.482,7.845c0.726,0.703,1.472,1.384,2.241,2.043
		c0.681,0.571,1.362,1.121,2.065,1.671c0.747,0.549,1.494,1.099,2.285,1.626c0.483,0.329,0.989,0.659,1.517,0.988
		c0.396,0.264,0.813,0.527,1.253,0.77l1.076-1.561c-0.879-0.483-1.67-0.813-2.329-1.209c-0.594-0.329-1.099-0.702-1.517-1.274
		c-0.439-0.57-0.813-1.34-1.12-2.461c-0.418,0.044-0.813,0.044-1.165,0.022c-0.813-0.066-1.517-0.286-2.065-0.682
		c-1.033-0.725-1.582-2.021-1.67-3.735c-0.198,0.022-0.374,0.044-0.571,0.066c-3.187,0.109-5.12-3.341-3.362-6.109
		c0,2.241,0.418,5.076,3.252,5.076c0.044-0.021,0.066-0.021,0.11-0.044c0.988-0.242,1.736-0.835,2.241-1.604
		c1.297-1.934,1.143-4.966,0-6.548c-0.527-0.77-1.296-1.187-2.241-1.033c-0.703,0.132-1.517,0.571-2.396,1.473
		c-1.691-3.691-3.032-7.317-4.087-10.899c-0.153-0.527-0.286-1.032-0.439-1.538c0.153,0.022,0.308,0.044,0.439,0.066
		c0.308,0.065,0.615,0.109,0.923,0.175c1.032,3.362,2.329,6.769,4.021,10.307l0.681-0.396c-1.56-3.274-2.813-6.505-3.823-9.713
		c1.582,0.374,3.143,0.857,4.681,1.45c0.77,0.308,1.516,0.615,2.241,0.968c0.703,0.329,1.385,0.681,2.065,1.055
		c0.77,0.417,1.538,0.878,2.285,1.361c0.506,0.33,1.011,0.682,1.517,1.033c0.923,0.659,1.846,1.385,2.725,2.153
		C122.021,128.855,124.526,131.734,126.681,135.052L126.681,135.052z M119.253,158.278c0.505-0.132,0.989-0.285,1.494-0.461
		l-1.494,3.56l-0.22,0.549c-0.901,0.353-1.736,0.594-2.505,0.726c-0.527,0.088-1.011,0.109-1.517,0.109
		c-0.747-0.021-1.494-0.153-2.285-0.417c-0.352-0.109-0.725-0.242-1.12-0.418c-0.309-0.109-0.638-0.197-0.945-0.264
		c-0.77-0.197-1.516-0.308-2.241-0.373c-2.22-0.153-4.241,0.373-6.482,1.297c-0.418,0.175-0.835,0.351-1.252,0.549
		c-0.022,0.021-0.066,0.044-0.088,0.044c0.021-0.044,0.065-0.066,0.088-0.11c0.417-0.593,0.834-1.099,1.252-1.582
		c1.934-2.109,3.978-3.054,6.482-3.186c0.703-0.044,1.45-0.022,2.241,0.065c0.659,0.088,1.341,0.198,2.065,0.352
		c0.198,0.044,0.396,0.088,0.594,0.132c0.571,0.044,1.12,0.044,1.691,0.044c0.506-0.021,1.011-0.044,1.517-0.109
		C117.451,158.696,118.352,158.521,119.253,158.278L119.253,158.278z M119.253,146.677c1.473,1.274,2.944,2.505,4.461,3.735
		l-0.242,0.329c-1.406-1.143-2.813-2.264-4.219-3.428c-0.352-0.285-0.726-0.593-1.077-0.9c-0.637,0-1.187-0.132-1.647-0.353
		c-0.747-0.329-1.253-0.944-1.517-1.779c-0.109-0.33-0.176-0.682-0.197-1.077l0.197-0.132l0.132-0.088
		c0.462,0.418,0.923,0.835,1.385,1.253C117.429,145.05,118.33,145.863,119.253,146.677L119.253,146.677z M119.253,145.314
		c1.626,1.296,3.252,2.593,4.856,3.955l0.352-0.857c-1.802-1.318-3.516-2.659-5.208-4.021c-0.901-0.747-1.824-1.516-2.725-2.285
		c-0.088-0.065-0.154-0.132-0.242-0.197l-0.461,0.505c0.241,0.198,0.461,0.396,0.703,0.594
		C117.429,143.798,118.33,144.545,119.253,145.314L119.253,145.314z M119.253,143.183c1.846,1.494,3.691,2.966,5.537,4.417
		l0.813-1.759c-2.153-1.604-4.263-3.208-6.351-4.834c-0.923-0.725-1.824-1.45-2.725-2.197c-0.506-0.396-1.011-0.813-1.517-1.23
		c-0.769-0.638-1.538-1.274-2.285-1.912c-0.109-0.088-0.22-0.176-0.308-0.264l-0.703,1.538c0.352,0.286,0.681,0.55,1.011,0.836
		c0.747,0.658,1.517,1.296,2.285,1.911c0.506,0.418,1.011,0.835,1.517,1.253C117.429,141.688,118.352,142.436,119.253,143.183
		L119.253,143.183z M119.253,136.985c1.385,0.638,2,2.857,1.824,4.395l-0.967-0.614c0-0.968-0.286-1.604-0.857-2.022
		c-0.373-0.264-0.857-0.417-1.472-0.505c0.746,0.264,0.923,0.637,1.011,1.385l-1.539-1.253v-1.274
		C118.044,136.723,118.704,136.723,119.253,136.985L119.253,136.985z M119.253,56.473l11.427,1.384l-11.427-1.252l-2.725-0.308
		l-1.517-0.176l-2.285-0.241l-2.065-0.242l-2.241-0.242l-6.482-0.725l-1.252-0.132l-1.539-0.176l-0.879-0.088v-0.351l0.879,0.109
		l1.539,0.198l1.252,0.132l6.482,0.792l2.241,0.285l2.065,0.242l2.285,0.286l1.517,0.176L119.253,56.473L119.253,56.473z
		 M116.528,163.772c0.593-0.022,1.23-0.11,1.867-0.242l-1.867,4.087l-0.462,0.989c-0.373-0.022-0.725-0.044-1.055-0.088
		c-0.813-0.066-1.56-0.198-2.285-0.374c-0.681-0.153-1.362-0.329-2.065-0.549s-1.45-0.439-2.241-0.703
		c-2.615-0.615-4.549-0.242-6.482,0.308c-0.418,0.109-0.835,0.241-1.252,0.373c-0.506,0.154-1.012,0.286-1.539,0.418
		c-0.879,0.241-1.802,0.418-2.813,0.506c-1.077-0.133-2.109-0.418-3.098-0.726c-0.527-0.154-1.033-0.33-1.538-0.483
		c-0.417-0.132-0.835-0.264-1.252-0.396c-0.791-0.22-1.626-0.418-2.483-0.506c-1.406,0-2.725,0.22-4.021,0.527
		c-0.725,0.154-1.473,0.352-2.22,0.55c-0.681,0.176-1.362,0.352-2.065,0.483c-0.747,0.153-1.516,0.264-2.285,0.329
		c-0.198,0.022-0.396,0.044-0.593,0.044l-0.923-2.043l-1.362-3.033c0.483,0.089,0.923,0.154,1.362,0.198
		c0.527,0.066,1.011,0.088,1.516,0.066c0.615,0,1.252-0.044,1.956-0.154c0.11-0.044,0.22-0.065,0.33-0.11
		c0.725-0.22,1.406-0.417,2.065-0.57c0.77-0.176,1.517-0.286,2.22-0.352c2.241-0.221,4.285,0.153,6.504,1.362
		c0.417,0.22,0.813,0.461,1.252,0.747c0.132,0.088,0.286,0.197,0.417,0.285c0.396,0.22,0.769,0.418,1.121,0.615
		c2.109,1.121,3.494,1.604,5.911,0.396c0.198-0.088,0.396-0.197,0.594-0.329c0.329-0.198,0.637-0.396,0.945-0.594
		c0.417-0.285,0.834-0.527,1.252-0.769c2.132-1.188,4.175-1.912,6.482-1.758c0.726,0.044,1.472,0.176,2.241,0.396
		c0.417,0.132,0.857,0.285,1.297,0.461c0.264,0.065,0.505,0.132,0.769,0.198c0.77,0.197,1.538,0.352,2.285,0.417
		C115.518,163.794,116.001,163.794,116.528,163.772L116.528,163.772z M116.528,150.17c0.22,0.132,0.439,0.264,0.681,0.396
		l-0.681,0.923l-0.638,0.857c-0.308-0.176-0.593-0.352-0.879-0.506c-0.791-0.461-1.538-0.944-2.285-1.428
		c-0.703-0.439-1.385-0.923-2.065-1.406c-0.77-0.55-1.516-1.121-2.241-1.715c-2.352-1.889-4.483-3.977-6.482-6.306
		c-0.418-0.483-0.835-1.012-1.252-1.517c-0.528-0.659-1.033-1.318-1.539-2.021c-0.527-0.725-1.055-1.45-1.582-2.22v-6.284
		c0.462,1.12,0.989,2.219,1.582,3.318c0.462,0.879,0.989,1.735,1.539,2.593c0.395,0.615,0.813,1.23,1.252,1.846
		c1.89,2.615,4.109,5.098,6.482,7.34c0.747,0.681,1.494,1.34,2.241,1.977c0.681,0.572,1.362,1.121,2.065,1.627
		c0.747,0.571,1.517,1.099,2.285,1.604C115.518,149.577,116.022,149.885,116.528,150.17L116.528,150.17z M115.012,153.026
		c0.066,0.044,0.132,0.066,0.198,0.11l-0.198,0.197l-0.659,0.659l-1.538-0.9c-0.021-0.022-0.066-0.044-0.088-0.066
		c-0.703-0.396-1.406-0.813-2.065-1.23c-0.77-0.505-1.516-1.011-2.241-1.538c-2.352-1.735-4.439-3.647-6.482-5.823
		c-0.418-0.461-0.835-0.923-1.252-1.384c-0.198-0.242-0.396-0.462-0.594-0.703c-0.374-0.418-0.682-0.77-0.945-1.077
		c-1.165-1.362-1.582-2.087-1.582-4.504c0.527,0.746,1.055,1.494,1.582,2.219c0.506,0.703,1.011,1.385,1.539,2.088
		c0.417,0.527,0.834,1.055,1.252,1.56c0.044,0.066,0.088,0.132,0.154,0.176c1.978,2.264,4.064,4.197,6.328,5.934
		c0.726,0.549,1.472,1.099,2.241,1.604c0.681,0.462,1.362,0.901,2.065,1.341C113.474,152.147,114.221,152.587,115.012,153.026
		L115.012,153.026z M115.012,140.985l0.198,0.176c-0.066,0.109-0.132,0.197-0.198,0.285c-0.725,1.033-1.538,1.45-2.285,1.429
		c-0.791-0.044-1.517-0.571-2.065-1.385c-0.417-0.637-0.726-1.473-0.813-2.395l0.813-0.813l0.659-0.659l1.406,1.23l0.088,0.088
		c-0.021,0-0.066,0.022-0.088,0.044c-0.527,0.308-1.055-0.11-1.406-0.571c0,1.912,0.352,2.461,1.406,2.352
		c0.418-0.044,0.923-0.198,1.561-0.418L115.012,140.985L115.012,140.985z M115.012,133.426c1.055,0.77,1.406,2.483,1.274,4.021
		l-1.076-0.681c0-0.418-0.066-0.77-0.198-1.077c-0.352-0.791-1.099-1.209-2.153-1.209c0.615,0.198,1.011,0.659,1.209,1.253
		l-1.341-0.879l-0.308-0.198l0.285-1.494c0,0,0,0,0.022,0C113.693,132.876,114.463,133.03,115.012,133.426L115.012,133.426z
		 M115.012,128.218l1.099,4.725l-0.329-0.11l-0.77-3.229l-1.406-5.845h0.352L115.012,128.218L115.012,128.218z M112.727,153.95
		c0.33,0.175,0.659,0.373,0.989,0.549c-0.33,0.241-0.659,0.418-0.989,0.571c-0.637,0.286-1.274,0.439-2.065,0.615
		c-0.021,0-0.044,0.021-0.065,0.021c-0.748-0.482-1.473-0.944-2.176-1.406c-2.308-1.494-4.396-2.944-6.482-4.724
		c-0.418-0.352-0.835-0.726-1.252-1.1c-0.309-0.285-0.638-0.57-0.945-0.878c-0.22-0.242-0.418-0.462-0.594-0.659
		c-1.846-2.132-1.582-2.594-1.582-6.241c0.527,0.681,1.055,1.318,1.582,1.956c0.506,0.593,1.011,1.187,1.539,1.735
		c0.417,0.462,0.834,0.901,1.252,1.318c2.021,2.044,4.153,3.824,6.482,5.472c0.726,0.527,1.472,1.033,2.241,1.517
		C111.342,153.114,112.023,153.532,112.727,153.95L112.727,153.95z M110.661,123.143l1.055,5.69h-0.396l-0.659-3.384l-0.703-3.691
		h0.461L110.661,123.143L110.661,123.143z M110.661,52.43l0.044,0.022c-0.021,0-0.021,0-0.044,0
		c-0.77,0.264-1.516,0.439-2.241,0.527c-2.22,0.308-4.197-0.066-6.482-0.637c-0.396-0.088-0.813-0.198-1.23-0.308l-0.021,0.022
		l-1.539,0.11l-1.582,0.11v-3.033c0.55-0.198,1.077-0.308,1.582-0.352c0.527-0.044,1.033-0.044,1.539,0.022
		c0.417,0.044,0.834,0.132,1.252,0.242c1.099,0.242,2.197,0.637,3.34,0.945l3.143-0.176l2.044-0.11l-1.253,1.714L110.661,52.43
		L110.661,52.43z M108.42,134.679c1.099-0.33,1.934-2.527,0.22-4.241c1.296,0,1.89,1.143,1.89,2.329
		c0,2.308-1.055,3.406-2.109,3.582c-1.385,0.22-2.747-1.187-1.78-3.647C107.014,134.371,107.761,134.854,108.42,134.679
		L108.42,134.679z M108.42,156.213l0.857-0.22c-0.286-0.176-0.572-0.352-0.857-0.527c-2.264-1.385-4.461-2.9-6.482-4.614
		c-0.418-0.352-0.835-0.726-1.252-1.121c-0.528-0.505-1.056-1.011-1.539-1.538c-0.549-0.593-1.076-1.209-1.582-1.846v2.176
		c0.527,0.549,1.055,1.099,1.582,1.604c0.506,0.483,1.011,0.945,1.539,1.406c0.417,0.374,0.834,0.726,1.252,1.055
		c1.67,1.363,3.405,2.615,5.273,3.912L108.42,156.213L108.42,156.213z M101.938,129.91c0.747-0.374,1.494-2.109,0.374-2.681
		c0,0.637,0.175,1.34-0.374,1.582c-0.109,0.044-0.286,0.065-0.483,0.065l-0.462-0.505
		C100.992,129.844,101.476,130.151,101.938,129.91L101.938,129.91z M101.938,159.465l0.769-0.681
		c-0.264-0.132-0.526-0.242-0.769-0.374c-0.439-0.241-0.857-0.483-1.252-0.747c-0.528-0.329-1.033-0.703-1.539-1.099
		c-0.527-0.417-1.032-0.857-1.582-1.362v2.044l1.582,0.944l1.539,0.923l0.988,0.594L101.938,159.465L101.938,159.465z
		 M101.938,157.202c0.505,0.329,1.033,0.637,1.582,0.967c1.011-0.747,1.473-1.011,2.725-1.318c-1.538-1.121-2.966-2.088-4.307-3.143
		c-0.418-0.33-0.835-0.659-1.252-1.011c-0.528-0.462-1.033-0.923-1.539-1.406c-0.527-0.527-1.055-1.077-1.582-1.692v4.285
		c0.527,0.461,1.055,0.901,1.582,1.318c0.506,0.396,1.011,0.791,1.539,1.143C101.103,156.631,101.52,156.916,101.938,157.202
		L101.938,157.202z M100.686,124.79c0.417-0.153,0.526-0.747,0.132-1.318c1.076,0.527,0.505,1.78-0.132,2.153
		c-0.462,0.264-0.945,0.088-0.945-1.076C100.113,124.834,100.443,124.878,100.686,124.79L100.686,124.79z M100.686,160.344
		c0.021,0.022,0.065,0.022,0.087,0.044c-0.021,0.022-0.065,0.066-0.087,0.088c-0.55,0.572-1.056,1.165-1.539,1.759
		c-0.571,0.681-1.099,1.406-1.626,2.153l0.044-6.065c0.55,0.55,1.055,0.923,1.582,1.253
		C99.608,159.839,100.092,160.08,100.686,160.344L100.686,160.344z M99.146,120.879c0.923,0.549,0.989-0.198,0.77-1.055
		c0.747,0.373,0.527,2.109-0.638,1.823c-0.044-0.109-0.088-0.197-0.132-0.285c-0.088-0.176-0.153-0.33-0.153-0.571
		C99.059,120.813,99.103,120.857,99.146,120.879L99.146,120.879z M93.236,120.725c0.044-0.021,0.088-0.065,0.132-0.109
		c0,0.285-0.044,0.505-0.132,0.659c-0.461,0.747-1.78-0.22-0.879-1.582h0.11c-0.132,0.549-0.198,0.791,0.11,1.252
		C92.84,120.9,93.038,120.879,93.236,120.725L93.236,120.725z M93.236,159.443c0.527-0.33,1.033-0.726,1.56-1.23l0.066,5.999
		c-0.505-0.77-1.055-1.494-1.626-2.198c-0.505-0.571-1.011-1.143-1.538-1.714c-0.044-0.021-0.066-0.044-0.088-0.088
		c0.022,0,0.044-0.021,0.088-0.021C92.269,159.948,92.774,159.729,93.236,159.443L93.236,159.443z M93.236,156.389
		c0.527-0.396,1.033-0.856,1.56-1.362v2.044c-0.527,0.439-1.033,0.813-1.56,1.164c-0.505,0.308-1.011,0.594-1.538,0.857
		c-0.33,0.153-0.659,0.308-1.011,0.439l-0.241-0.22l-0.791-0.703c0.286-0.11,0.549-0.242,0.791-0.396
		c0.439-0.22,0.857-0.462,1.252-0.703C92.225,157.158,92.73,156.807,93.236,156.389L93.236,156.389z M93.236,151.115
		c0.527-0.527,1.055-1.077,1.56-1.692v4.352c-0.527,0.461-1.033,0.9-1.56,1.296c-0.505,0.396-1.033,0.769-1.538,1.143
		c-0.417,0.264-0.835,0.55-1.252,0.813c-0.505,0.329-1.033,0.637-1.583,0.967c-1.033-0.659-1.516-0.967-2.747-1.253
		c1.56-1.121,2.988-2.109,4.329-3.187c0.417-0.329,0.835-0.659,1.252-1.01C92.203,152.082,92.73,151.62,93.236,151.115
		L93.236,151.115z M93.236,148.061c0.549-0.593,1.077-1.23,1.56-1.89v2.176c-0.527,0.571-1.033,1.099-1.56,1.604
		c-0.505,0.506-1.033,0.989-1.538,1.45c-0.417,0.374-0.835,0.726-1.252,1.077c-1.648,1.362-3.362,2.615-5.296,3.867l-1.208-0.308
		l-0.835-0.22c0.286-0.176,0.572-0.33,0.835-0.505c2.263-1.385,4.482-2.879,6.504-4.593c0.417-0.352,0.835-0.726,1.252-1.099
		C92.225,149.115,92.73,148.61,93.236,148.061L93.236,148.061z M93.236,142.545c0.527-0.659,1.055-1.318,1.56-2.021
		c0,3.647,0.264,4.109-1.56,6.241c-0.176,0.197-0.374,0.417-0.593,0.659c-0.33,0.329-0.637,0.615-0.945,0.923
		c-0.417,0.373-0.835,0.747-1.252,1.099c-2.087,1.758-4.219,3.186-6.504,4.702c-0.681,0.461-1.385,0.901-2.087,1.385
		c-0.044,0-0.088,0-0.132-0.022c-0.813-0.153-1.428-0.329-2.065-0.637c-0.33-0.133-0.659-0.309-1.011-0.528
		c0.352-0.197,0.681-0.395,1.011-0.57c0.703-0.418,1.406-0.836,2.065-1.275c0.77-0.461,1.517-0.967,2.22-1.45
		c2.351-1.647,4.504-3.405,6.504-5.428c0.417-0.438,0.835-0.856,1.252-1.318C92.203,143.731,92.73,143.139,93.236,142.545
		L93.236,142.545z M93.236,138.81l1.56-2.153c0,2.396-0.439,3.099-1.56,4.461c-0.286,0.329-0.593,0.681-0.945,1.12
		c-0.198,0.242-0.396,0.462-0.593,0.682c-0.417,0.483-0.835,0.944-1.252,1.384c-2.087,2.198-4.175,4.044-6.504,5.735
		c-0.703,0.506-1.45,1.033-2.22,1.517c-0.659,0.439-1.362,0.879-2.065,1.318c-0.527,0.308-1.077,0.637-1.626,0.945l-0.659-0.616
		l-0.198-0.176c0.066-0.044,0.132-0.065,0.198-0.109c0.769-0.439,1.538-0.901,2.285-1.362c0.703-0.439,1.406-0.879,2.065-1.341
		c0.77-0.527,1.517-1.055,2.22-1.626c2.351-1.802,4.504-3.802,6.504-6.131c0.329-0.373,0.659-0.791,0.989-1.187l0.264-0.352
		L93.236,138.81L93.236,138.81z M93.236,132.107c0.593-1.099,1.121-2.22,1.56-3.34v6.284c-0.505,0.791-1.033,1.538-1.56,2.264
		c-0.505,0.703-1.033,1.384-1.538,2.044c-0.417,0.505-0.835,1.011-1.252,1.494c-2,2.329-4.131,4.395-6.504,6.306
		c-0.703,0.572-1.45,1.121-2.22,1.671c-0.659,0.483-1.362,0.967-2.065,1.428c-0.747,0.483-1.516,0.945-2.285,1.406
		c-0.286,0.176-0.593,0.33-0.879,0.506l-0.637-0.813l-0.681-0.9c0.22-0.132,0.461-0.264,0.681-0.396
		c0.505-0.308,1.011-0.638,1.516-0.967c0.769-0.506,1.516-1.033,2.285-1.604c0.703-0.527,1.384-1.076,2.065-1.648
		c0.77-0.637,1.495-1.296,2.22-1.978c2.395-2.219,4.614-4.724,6.504-7.339c0.439-0.594,0.857-1.209,1.252-1.824
		C92.247,133.844,92.752,132.986,93.236,132.107L93.236,132.107z M93.236,53.858l0.879-0.109V54.1l-0.879,0.088l-1.538,0.175
		l-1.252,0.132l-6.504,0.726l-2.22,0.242l-2.065,0.242l-2.285,0.241l-1.516,0.176l-2.703,0.308l-11.448,1.274l11.448-1.406
		l2.703-0.33l1.516-0.176l2.285-0.286l2.065-0.242l2.22-0.264l6.504-0.792l1.252-0.153L93.236,53.858L93.236,53.858z M95.653,57.704
		h0.945v-9.646l0.638-0.461v-0.462h-2.154v0.462l0.571,0.461V57.704L95.653,57.704z M91.698,124.658
		c0.242,0.132,0.571,0.088,0.945-0.285c0,1.208-0.505,1.384-0.945,1.12c-0.637-0.373-1.208-1.67-0.154-2.197
		C91.192,123.823,91.324,124.438,91.698,124.658L91.698,124.658z M90.445,128.68c0.22,0.088,0.527-0.022,0.922-0.418
		c0,1.362-0.461,1.692-0.922,1.517c-0.747-0.308-1.495-1.934-0.33-2.725C89.984,127.778,90.072,128.504,90.445,128.68L90.445,128.68
		z M83.941,136.261c0.417,0.065,0.879-0.044,1.384-0.352c0.901-1.077,0.901-2.109,0.396-3.362c-0.374,1.67-1.121,2.153-1.78,1.978
		c-1.099-0.308-1.934-2.549-0.22-4.263C80.843,130.262,81.567,135.909,83.941,136.261L83.941,136.261z M81.721,138.085l0.857,0.856
		l-0.33,1.582c-0.154,0.374-0.33,0.682-0.528,0.945c-0.571,0.813-1.296,1.208-2.065,1.208c-0.791-0.021-1.626-0.461-2.285-1.406
		c-0.066-0.088-0.132-0.176-0.198-0.285l0.198-0.154l0.769-0.637c0.593,0.352,1.099,0.527,1.516,0.527
		c1.011,0.044,1.45-0.967,1.45-2.483c-0.483,0.483-0.615,0.703-1.318,0.703l-0.132-0.154l-0.044-0.021l0.044-0.022l1.45-1.296
		L81.721,138.085L81.721,138.085z M81.721,122.834l0.242-1.252h0.462l-0.704,3.714l-0.615,3.428h-0.461L81.721,122.834
		L81.721,122.834z M79.656,135.491c0.088-0.088,0.198-0.176,0.308-0.264l0.681,1.539c-0.33,0.285-0.659,0.57-0.989,0.834
		c-0.769,0.66-1.516,1.297-2.285,1.935c-0.505,0.417-1.011,0.835-1.516,1.252c-0.901,0.726-1.802,1.473-2.703,2.197
		c-1.845,1.494-3.713,2.967-5.581,4.439l-0.792-1.759c2.176-1.582,4.285-3.186,6.373-4.834c0.901-0.703,1.802-1.428,2.703-2.176
		c0.505-0.417,1.011-0.813,1.516-1.252C78.14,136.788,78.887,136.129,79.656,135.491L79.656,135.491z M79.656,132.986h0.022
		l0.286,1.494l-0.308,0.198l-1.34,0.879c0.33-0.682,0.483-0.901,1.187-1.253c-1.033,0-1.802,0.483-2.131,1.274
		c-0.132,0.308-0.198,0.682-0.198,1.077l-1.099,0.615c-0.11-1.538,0.242-3.252,1.296-4.021
		C77.92,132.854,78.667,132.723,79.656,132.986L79.656,132.986z M77.371,142.963l0.198,0.132c-0.022,0.373-0.088,0.725-0.198,1.055
		c-0.264,0.813-0.791,1.406-1.516,1.758c-0.461,0.22-1.011,0.329-1.648,0.329c-0.352,0.309-0.704,0.594-1.055,0.879
		c-1.406,1.188-2.834,2.308-4.263,3.45l-0.176-0.285c1.494-1.274,2.966-2.549,4.438-3.823c0.901-0.792,1.802-1.583,2.703-2.374
		c0.461-0.417,0.923-0.813,1.362-1.208L77.371,142.963L77.371,142.963z M77.371,128.042l1.055-4.46h0.33l-1.384,6.042l-0.725,3.077
		l-0.396,0.065L77.371,128.042L77.371,128.042z M75.854,141.93c0.066-0.065,0.154-0.132,0.22-0.197l0.461,0.505
		c-0.22,0.198-0.461,0.396-0.681,0.594c-0.901,0.791-1.802,1.538-2.703,2.285c-1.626,1.318-3.274,2.615-4.878,3.978l-0.286-0.813
		c1.736-1.362,3.45-2.703,5.164-4.087C74.052,143.446,74.954,142.699,75.854,141.93L75.854,141.93z M73.151,138.546
		c0.352-0.264,0.835-0.417,1.45-0.417c-0.769,0.263-0.923,0.526-1.032,1.318l1.604-1.253v-1.253
		c-0.791-0.352-1.472-0.329-2.022-0.087c-1.406,0.614-2.043,2.702-1.868,4.351l0.967-0.571
		C72.251,139.711,72.558,138.985,73.151,138.546L73.151,138.546z"/>
	<path fill-rule="evenodd" clip-rule="evenodd" fill="#95062A" d="M66.494,106.815c-3.098-14.876-4.856-29.731-5.428-45.354H53.88
		c0.945,23.248,5.142,45.2,12.613,67.306c0.044,0.132,0.088,0.241,0.11,0.352l4.175-4.681
		C69.13,118.527,67.702,112.683,66.494,106.815L66.494,106.815z M125.889,107.365c3.187-14.987,4.967-29.907,5.406-45.729h7.186
		c-0.923,23.249-5.12,45.2-12.592,67.307c-0.044,0.109-0.088,0.241-0.132,0.352l-4.152-4.681
		C123.23,118.813,124.658,113.078,125.889,107.365L125.889,107.365z M125.889,102.421c2.483-13.272,3.517-26.413,4.264-40.74h-4.264
		h-5.778c0.835,15.404-0.528,31.005-3.297,46.189c-0.681,3.846-1.472,7.69-2.351,11.492l2.351,1.692l3.758,2.703
		C122.856,116.462,124.57,109.431,125.889,102.421L125.889,102.421z M116.813,101.322c1.912-13.097,2.637-26.281,2.264-39.686
		h-2.264h-6.966c0.901,15.689,0.484,30.896-1.911,46.233c-0.418,2.703-0.901,5.405-1.45,8.131l1.45,0.571l5.625,2.263
		C114.88,113.012,115.979,107.167,116.813,101.322L116.813,101.322z M107.937,61.505h0.944c0.945,12.789,0.55,25.577-0.944,38.256
		c-0.638,5.34-1.473,10.657-2.483,15.953c-0.856-0.176-1.735-0.329-2.614-0.439c-0.33-1.318-0.638-2.615-0.901-3.934
		c-1.384-6.855-1.802-13.865-1.802-21.468l-0.726,0.286l-0.176,0.066c0.022,1.912,0.088,3.779,0.176,5.581
		c0.286,6.768,0.967,12.943,2.527,19.14c0.022,0.065,0.044,0.153,0.066,0.22c-0.022,0-0.044,0-0.066,0
		c-0.396-0.044-0.791-0.088-1.187-0.132c-0.571-2.439-1.011-4.9-1.341-7.405c-0.769-5.516-1.011-11.163-0.923-17.184l-0.923,0.176
		l0.308,24.259c-0.285-0.021-0.571-0.021-0.879-0.021V90.225h-0.769h-0.681v24.633c-0.352,0-0.703,0.021-1.033,0.021l0.286-24.369
		l-0.901-0.176c0.066,5.713-0.132,11.075-0.813,16.326c-0.352,2.835-0.857,5.626-1.494,8.395c-0.352,0.044-0.703,0.066-1.055,0.11
		c1.516-5.934,2.219-11.822,2.549-18.239c0.11-2.175,0.198-4.439,0.242-6.768l-0.242-0.088l-0.681-0.242
		c0,7.756-0.417,14.876-1.89,21.886c-0.242,1.187-0.505,2.351-0.813,3.537c-0.945,0.11-1.89,0.242-2.835,0.396
		c-0.989-4.724-1.736-9.47-2.285-14.217c-1.538-13.206-1.517-26.544-1.077-39.926h1.077h5.933h2.571h3.142h3.186h2.527H107.937
		L107.937,61.505z M101.938,86.665c0.505,0.198,0.417-0.747,0-2.746c-0.264-1.231-0.638-2.835-1.12-4.835h-0.286
		c0,1.583-0.352,2.571-1.121,3.846c-0.065,0.088-0.132,0.176-0.176,0.264c0.044,0.044,0.11,0.088,0.176,0.154
		c0.879,0.747,1.538,1.912,2.044,2.945C101.651,86.489,101.806,86.6,101.938,86.665L101.938,86.665z M101.938,75.546
		c0.549-0.527,1.011-1.077,1.45-1.714l-0.682-1.406c-0.241,0.308-0.505,0.637-0.769,0.945c-0.462,0.549-0.967,1.077-1.45,1.604
		l0.856,1.099C101.542,75.898,101.74,75.722,101.938,75.546L101.938,75.546z M101.938,71.898c1.033-1.758,1.362-3.604,1.033-5.471
		c-0.286,0.923-0.616,1.89-1.033,2.813c-0.55,1.252-1.252,2.417-2.197,3.34h-0.33h-1.187l-0.703-0.33v0.33h-0.681v-1.472h-0.615
		h-0.461v1.472h-0.725v-0.439l-0.703,0.439h-1.252h-0.439c-0.989-0.967-1.67-2.109-2.132-3.34c-0.329-0.901-0.549-1.846-0.681-2.813
		c-0.263,2-0.219,3.912,0.681,5.647c0.396,0.725,0.923,1.406,1.67,2.043h0.901h0.571c-0.088,0.571-0.286,1.077-0.571,1.604
		c-0.044,0.088-0.11,0.198-0.176,0.286h0.176h1.956v-1.89h0.725v2.681l-2.681,0.308l-1.296,0.153v0.352h1.296h3.142h3.186h1.297
		V77.26l-1.297-0.132l-2.571-0.264v-2.747h0.681v1.89h1.89h0.11c-0.044-0.088-0.088-0.176-0.11-0.264
		c-0.241-0.571-0.396-1.077-0.483-1.626h0.483h0.791C100.904,73.393,101.498,72.668,101.938,71.898L101.938,71.898z M99.41,87.786
		c0.176,0.374,0.352,0.703,0.615,0.945c0.879-0.659,0.462-2.9-0.615-4.131c-0.791-0.879-1.89-1.23-3.12-0.198
		c-0.022-0.022-0.044-0.044-0.066-0.044c-1.252-0.879-2.417-0.286-3.142,0.725c-0.857,1.23-1.077,3.055,0,3.648
		c0.044,0.022,0.066,0.044,0.11,0.066c0.242-1.539,1.56-3.626,3.032-3.691c0.022,0,0.022,0,0.044,0
		C98.334,85.062,98.817,86.6,99.41,87.786L99.41,87.786z M99.41,78.689h0.154c0,0.637-0.044,1.164-0.154,1.648
		c-0.197,0.769-0.527,1.45-1.099,2.241c-0.593-0.505-0.747-0.857-0.856-1.604c0.9-0.286,1.208-0.572,1.779-1.318h-2.637
		c0.088,0.989,0.286,1.846,0.527,2.813c-0.308,0.374-0.439,0.549-0.637,1.011h-0.264h-0.396c-0.176-0.417-0.308-0.659-0.571-1.011
		c0.352-1.055,0.505-1.692,0.505-2.813h-2.439c0.483,0.791,0.835,1.055,1.714,1.318c-0.264,0.593-0.505,1.011-0.989,1.494
		c-0.461-0.791-0.769-1.538-0.967-2.329c-0.11-0.461-0.176-0.923-0.22-1.45h0.22h3.142H99.41L99.41,78.689z M96.224,89.126h1.56
		c1.406-0.33,0.088-2.263-0.549-2.901h-1.011h-0.615c-0.571,0.638-2.153,2.571-0.505,2.901H96.224L96.224,89.126z M93.082,83.457
		c0.088-0.132,0.176-0.22,0.242-0.308c-0.088-0.176-0.154-0.33-0.242-0.483c-0.593-1.252-0.879-2.264-1.143-3.735h-0.154
		c-0.154,0.659-0.879,2.769-1.275,4.592c-0.263,1.274-0.351,2.396,0,2.857c0.066,0.044,0.11,0.088,0.176,0.132
		C91.28,86.313,92.445,84.402,93.082,83.457L93.082,83.457z M90.511,75.305c0.132,0.132,0.264,0.286,0.418,0.417
		c0.374-0.374,0.659-0.615,0.967-1.077c-0.549-0.549-0.967-1.011-1.385-1.561c-0.219-0.285-0.439-0.593-0.681-0.944l-0.681,1.472
		C89.588,74.184,90.028,74.755,90.511,75.305L90.511,75.305z M84.578,116.396l1.318-0.528c-0.483-2.438-0.923-4.878-1.318-7.317
		c-2.527-15.557-3.208-31.313-2-47.089h-6.988h-2.308c-0.11,13.492,0.484,26.346,2.308,39.333c0.835,5.91,1.912,11.844,3.296,17.887
		L84.578,116.396L84.578,116.396z M75.591,107.958c0.703,3.758,1.472,7.515,2.307,11.229l-2.307,1.671l-3.78,2.725
		c-2.263-7.647-3.977-14.987-5.317-22.282c-2.373-12.942-3.538-25.753-4.285-39.794h4.285h5.757
		C71.416,76.975,72.8,92.686,75.591,107.958L75.591,107.958z"/>
</g>
</svg>
