<?xml version="1.0" encoding="UTF-8" ?>
<!DOCTYPE svg PUBLIC "-//W3C//DTD SVG 1.1//EN" "http://www.w3.org/Graphics/SVG/1.1/DTD/svg11.dtd">
<svg width="110pt" height="138pt" viewBox="0 0 110 138" version="1.1" xmlns="http://www.w3.org/2000/svg">
<path fill="#f6f7f7" d=" M 0.00 0.00 L 110.00 0.00 L 110.00 138.00 L 0.00 138.00 L 0.00 0.00 Z" />
<path fill="#bebfc1" d=" M 1.38 0.74 C 1.95 1.75 2.25 2.84 2.27 3.99 C 2.20 25.71 1.66 47.48 2.60 69.17 C 3.01 66.79 3.22 64.37 3.37 61.96 C 6.37 65.67 9.20 69.87 13.71 71.88 C 15.02 52.05 14.07 32.15 14.35 12.29 C 26.55 12.45 38.75 12.36 50.96 12.37 C 50.83 12.62 50.59 13.11 50.47 13.36 C 38.66 12.60 26.81 13.12 14.99 13.05 C 15.06 32.03 14.87 51.00 15.07 69.97 C 15.11 74.46 14.83 78.96 15.39 83.42 C 16.70 81.89 16.51 79.80 16.81 77.94 C 17.03 75.93 18.21 74.20 18.75 72.28 C 19.28 70.77 19.82 69.25 20.53 67.81 C 22.82 71.25 27.06 72.17 30.77 73.23 C 30.72 79.01 33.74 84.38 38.69 87.36 C 49.35 92.90 61.66 91.53 73.24 91.73 C 62.75 86.71 53.13 79.13 47.91 68.51 C 48.87 68.30 50.81 67.88 51.78 67.67 C 59.29 81.02 73.60 89.46 88.42 92.14 C 90.93 92.67 93.50 92.33 96.02 92.06 C 96.07 68.36 95.98 44.67 95.96 20.97 C 95.97 20.48 95.99 19.49 96.00 19.00 C 94.43 19.47 92.86 19.94 91.29 20.42 C 90.91 19.95 90.15 19.02 89.77 18.55 C 88.98 18.42 87.41 18.16 86.63 18.02 C 88.36 17.27 90.11 16.54 91.89 15.90 C 93.47 15.33 95.67 15.22 95.96 13.14 L 96.37 12.13 C 93.98 11.87 91.58 11.69 89.18 11.59 C 86.95 8.55 85.31 5.12 82.88 2.23 C 91.26 1.23 99.73 1.98 108.14 1.35 C 108.64 28.22 108.20 55.11 108.35 81.99 C 108.00 89.25 108.77 96.54 107.97 103.78 C 97.98 103.85 87.98 103.65 78.00 104.10 C 57.32 104.14 36.63 104.18 15.95 104.11 C 11.12 104.12 6.26 103.76 1.47 104.49 L 1.24 104.52 C 1.40 69.93 1.14 35.33 1.38 0.74 Z" />
<path fill="#0f0f0f" d=" M 108.14 1.35 L 108.87 1.12 C 109.18 23.09 108.93 45.06 109.08 67.02 C 108.78 79.61 109.35 92.22 108.67 104.78 C 73.76 105.01 38.84 104.97 3.93 104.94 C 3.31 104.82 2.08 104.60 1.47 104.49 C 6.26 103.76 11.12 104.12 15.95 104.11 C 36.63 104.18 57.32 104.14 78.00 104.10 C 87.98 103.65 97.98 103.85 107.97 103.78 C 108.77 96.54 108.00 89.25 108.35 81.99 C 108.20 55.11 108.64 28.22 108.14 1.35 Z" />
<path fill="#0f0f0f" d=" M 14.99 13.05 C 26.81 13.12 38.66 12.60 50.47 13.36 C 50.20 13.69 49.66 14.33 49.39 14.66 C 46.61 12.87 43.13 13.84 40.03 13.64 C 32.10 13.94 24.10 13.13 16.22 14.09 C 15.52 16.66 15.76 19.34 15.72 21.97 C 15.89 39.10 15.19 56.25 16.41 73.35 C 16.99 73.08 18.17 72.55 18.75 72.28 C 18.21 74.20 17.03 75.93 16.81 77.94 C 16.51 79.80 16.70 81.89 15.39 83.42 C 14.83 78.96 15.11 74.46 15.07 69.97 C 14.87 51.00 15.06 32.03 14.99 13.05 Z" />
<path fill="#0f0f0f" d=" M 53.23 15.20 C 53.90 14.32 54.47 12.74 55.87 13.05 C 69.23 13.01 82.60 12.97 95.96 13.14 C 95.67 15.22 93.47 15.33 91.89 15.90 C 89.29 13.95 85.99 14.42 82.96 14.37 C 74.33 14.51 65.71 13.12 57.09 13.88 C 56.72 14.04 55.99 14.37 55.63 14.54 C 50.40 21.05 47.83 29.48 47.18 37.73 L 49.01 37.18 C 47.81 38.22 46.55 39.19 45.24 40.10 C 44.95 31.17 48.70 22.70 53.23 15.20 Z" />
<path fill="#be232b" d=" M 16.22 14.09 C 24.10 13.13 32.10 13.94 40.03 13.64 C 43.13 13.84 46.61 12.87 49.39 14.66 C 44.47 23.27 41.66 33.08 41.77 43.03 C 33.27 49.91 25.63 58.06 20.53 67.81 C 19.82 69.25 19.28 70.77 18.75 72.28 C 18.17 72.55 16.99 73.08 16.41 73.35 C 15.19 56.25 15.89 39.10 15.72 21.97 C 15.76 19.34 15.52 16.66 16.22 14.09 Z" />
<path fill="#be232b" d=" M 55.63 14.54 C 55.99 14.37 56.72 14.04 57.09 13.88 C 65.71 13.12 74.33 14.51 82.96 14.37 C 85.99 14.42 89.29 13.95 91.89 15.90 C 90.11 16.54 88.36 17.27 86.63 18.02 C 77.35 21.55 68.22 25.53 59.64 30.54 C 59.60 30.56 59.53 30.60 59.49 30.62 C 58.74 31.08 57.24 31.98 56.49 32.43 C 56.45 32.46 56.38 32.50 56.34 32.52 C 53.85 33.99 51.60 35.87 49.01 37.18 L 47.18 37.73 C 47.83 29.48 50.40 21.05 55.63 14.54 Z" />
<path fill="#0f0f0f" d=" M 91.29 20.42 C 92.86 19.94 94.43 19.47 96.00 19.00 C 95.99 19.49 95.97 20.48 95.96 20.97 C 80.19 26.10 64.98 33.53 52.14 44.14 C 50.45 45.58 48.56 46.92 47.44 48.87 C 48.80 64.05 58.65 77.82 72.05 84.86 C 77.18 88.02 83.23 89.14 88.42 92.14 C 73.60 89.46 59.29 81.02 51.78 67.67 C 48.16 61.53 45.92 54.56 45.39 47.46 C 58.67 35.49 74.41 26.29 91.29 20.42 Z" />
<path fill="#be232b" d=" M 52.14 44.14 C 64.98 33.53 80.19 26.10 95.96 20.97 C 95.98 44.67 96.07 68.36 96.02 92.06 C 93.50 92.33 90.93 92.67 88.42 92.14 C 83.23 89.14 77.18 88.02 72.05 84.86 C 58.65 77.82 48.80 64.05 47.44 48.87 C 48.56 46.92 50.45 45.58 52.14 44.14 Z" />
<path fill="#bebfc1" d=" M 59.49 30.62 C 59.53 30.60 59.60 30.56 59.64 30.54 C 59.60 30.56 59.53 30.60 59.49 30.62 Z" />
<path fill="#bebfc1" d=" M 56.34 32.52 C 56.38 32.50 56.45 32.46 56.49 32.43 C 56.45 32.46 56.38 32.50 56.34 32.52 Z" />
<path fill="#be232b" d=" M 30.77 73.23 C 31.36 64.60 36.29 56.59 42.57 50.87 C 42.99 57.08 45.17 62.98 47.91 68.51 C 53.13 79.13 62.75 86.71 73.24 91.73 C 61.66 91.53 49.35 92.90 38.69 87.36 C 33.74 84.38 30.72 79.01 30.77 73.23 Z" />
<path fill="#0f0f0f" d=" M 3.90 127.15 C -0.68 124.96 -0.10 116.71 5.06 115.71 C 9.43 115.24 13.84 115.63 18.22 115.53 C 18.22 116.52 18.21 118.49 18.21 119.48 C 14.62 119.55 11.03 119.35 7.46 119.54 C 5.25 119.28 4.80 122.41 6.31 123.54 C 9.42 124.16 12.70 123.30 15.76 124.30 C 21.10 126.24 20.46 135.39 14.99 136.71 C 10.56 137.50 6.02 136.90 1.55 137.10 C 1.53 135.73 1.52 134.36 1.51 133.00 C 5.34 132.91 9.18 133.22 12.99 132.86 C 14.94 132.47 15.53 129.36 13.85 128.27 C 10.59 127.55 7.04 128.55 3.90 127.15 Z" />
<path fill="#0f0f0f" d=" M 26.92 116.87 C 27.69 114.40 30.92 115.84 32.79 115.66 C 35.17 122.91 38.15 129.95 40.60 137.17 C 39.01 137.17 37.42 137.11 35.83 136.99 C 33.41 131.83 32.15 126.18 29.74 120.99 C 27.94 126.38 25.85 131.66 23.90 136.99 C 22.36 137.09 20.82 137.17 19.27 137.25 C 21.47 130.34 24.45 123.69 26.92 116.87 Z" />
<path fill="#0f0f0f" d=" M 37.31 115.49 C 43.24 115.56 49.17 115.48 55.10 115.54 C 55.10 116.52 55.11 118.49 55.12 119.47 C 52.91 119.48 50.70 119.48 48.49 119.49 C 48.46 125.37 48.51 131.26 48.46 137.15 C 46.97 137.13 45.49 137.11 44.00 137.09 C 43.94 131.19 44.14 125.29 43.89 119.39 C 41.68 119.46 39.47 119.49 37.26 119.51 C 37.27 118.50 37.30 116.49 37.31 115.49 Z" />
<path fill="#0f0f0f" d=" M 55.85 115.50 C 57.51 115.50 59.17 115.58 60.82 115.65 C 60.77 120.75 60.54 125.87 60.89 130.96 C 62.15 134.31 67.77 134.20 68.56 130.58 C 69.10 125.60 68.62 120.54 68.79 115.53 C 73.48 115.72 78.26 115.06 82.90 115.87 C 88.45 117.76 87.82 126.48 82.50 128.33 C 84.19 131.31 86.18 134.13 87.75 137.18 C 85.94 137.11 84.13 137.02 82.33 136.90 C 80.33 132.97 78.07 129.17 75.95 125.31 C 78.41 125.34 82.51 125.46 82.31 121.93 C 81.51 117.76 76.20 119.59 73.23 119.23 C 73.09 123.48 73.50 127.76 73.00 131.99 C 70.98 139.68 57.20 139.21 56.17 131.09 C 55.80 125.91 56.15 120.70 55.85 115.50 Z" />
<path fill="#0f0f0f" d=" M 89.52 115.54 C 91.76 115.52 94.00 115.51 96.24 115.46 C 99.14 120.59 101.44 126.05 104.59 131.03 C 104.46 125.86 104.53 120.69 104.53 115.52 C 106.04 115.52 107.56 115.52 109.08 115.53 C 109.00 122.69 109.07 129.86 109.05 137.02 C 106.96 137.06 104.86 137.10 102.76 137.14 C 99.99 131.65 96.94 126.30 94.34 120.73 C 93.60 126.13 94.18 131.62 94.00 137.07 C 92.51 137.09 91.01 137.11 89.52 137.13 C 89.51 129.93 89.52 122.73 89.52 115.54 Z" />
</svg>
