<?xml version="1.0" encoding="UTF-8" standalone="no"?>
<!-- Generator: Adobe Illustrator 12.0.0, SVG Export Plug-In . SVG Version: 6.00 Build 51448)  -->
<svg
   xmlns:dc="http://purl.org/dc/elements/1.1/"
   xmlns:cc="http://web.resource.org/cc/"
   xmlns:rdf="http://www.w3.org/1999/02/22-rdf-syntax-ns#"
   xmlns:svg="http://www.w3.org/2000/svg"
   xmlns="http://www.w3.org/2000/svg"
   xmlns:sodipodi="http://sodipodi.sourceforge.net/DTD/sodipodi-0.dtd"
   xmlns:inkscape="http://www.inkscape.org/namespaces/inkscape"
   version="1.1"
   id="Layer_1"
   width="376.246"
   height="259.471"
   viewBox="0 0 376.246 259.471"
   overflow="visible"
   enable-background="new 0 0 376.246 259.471"
   xml:space="preserve"
   sodipodi:version="0.32"
   inkscape:version="0.44.1"
   sodipodi:docname="scion_svg.svg"
   sodipodi:docbase="C:\Documents and Settings\Compaq_Owner\My Documents"><metadata
   id="metadata2327"><rdf:RDF><cc:Work
       rdf:about=""><dc:format>image/svg+xml</dc:format><dc:type
         rdf:resource="http://purl.org/dc/dcmitype/StillImage" /></cc:Work></rdf:RDF></metadata><defs
   id="defs2325" /><sodipodi:namedview
   inkscape:window-height="573"
   inkscape:window-width="853"
   inkscape:pageshadow="2"
   inkscape:pageopacity="0.0"
   guidetolerance="10.0"
   gridtolerance="10.0"
   objecttolerance="10.0"
   borderopacity="1.0"
   bordercolor="#666666"
   pagecolor="#ffffff"
   id="base"
   inkscape:zoom="1.4568102"
   inkscape:cx="188.123"
   inkscape:cy="129.7355"
   inkscape:window-x="154"
   inkscape:window-y="154"
   inkscape:current-layer="Layer_1" />
<g
   id="g2235">
	<linearGradient
   id="XMLID_10_"
   gradientUnits="userSpaceOnUse"
   x1="188.1226"
   y1="259.4707"
   x2="188.1225"
   y2="4.882813e-004">
		<stop
   offset="0"
   style="stop-color:#717279"
   id="stop2238" />
		<stop
   offset="1"
   style="stop-color:#EEEDEC"
   id="stop2240" />
	</linearGradient>
	<path
   fill="url(#XMLID_10_)"
   d="M188.133,0C84.396,0,0,58.204,0,129.746c0,71.53,84.396,129.725,188.133,129.725   c50.18,0,97.37-13.453,132.876-37.881c35.62-24.505,55.236-57.123,55.236-91.844C376.246,58.204,291.859,0,188.133,0z    M188.131,239.669c-84.045,0-152.16-49.219-152.16-109.925c0-60.725,68.115-109.942,152.16-109.942   c84.012,0,152.144,49.218,152.144,109.942C340.275,190.45,272.161,239.669,188.131,239.669z"
   id="path2242" />
	<linearGradient
   id="XMLID_11_"
   gradientUnits="userSpaceOnUse"
   x1="188.1226"
   y1="258.4707"
   x2="188.1225"
   y2="1.0005">
		<stop
   offset="0.45"
   style="stop-color:#717279"
   id="stop2245" />
		<stop
   offset="0.55"
   style="stop-color:#EEEDEC"
   id="stop2247" />
	</linearGradient>
	<path
   fill="url(#XMLID_11_)"
   d="M188.133,1C84.771,1,1,58.636,1,129.746c0,71.088,83.771,128.725,187.133,128.725   c103.342,0,187.112-57.637,187.112-128.725C375.246,58.636,291.455,1,188.133,1z M188.131,239.669   c-84.045,0-152.16-49.219-152.16-109.925c0-60.725,68.115-109.942,152.16-109.942c84.012,0,152.144,49.218,152.144,109.942   C340.275,190.45,272.161,239.669,188.131,239.669z"
   id="path2249" />
	<linearGradient
   id="XMLID_12_"
   gradientUnits="userSpaceOnUse"
   x1="188.1226"
   y1="12.3574"
   x2="188.1225"
   y2="247.1138">
		<stop
   offset="0.45"
   style="stop-color:#717279"
   id="stop2252" />
		<stop
   offset="0.55"
   style="stop-color:#EEEDEC"
   id="stop2254" />
	</linearGradient>
	<path
   fill="url(#XMLID_12_)"
   d="M188.131,12.357c-89.417,0-161.886,52.551-161.886,117.387c0,64.817,72.47,117.369,161.886,117.369   c89.401,0,161.869-52.552,161.869-117.369C350,64.908,277.514,12.357,188.131,12.357z M188.131,239.669   c-84.045,0-152.16-49.219-152.16-109.925c0-60.725,68.115-109.942,152.16-109.942c84.012,0,152.144,49.218,152.144,109.942   C340.275,190.45,272.161,239.669,188.131,239.669z"
   id="path2256" />
	<linearGradient
   id="XMLID_13_"
   gradientUnits="userSpaceOnUse"
   x1="188.1226"
   y1="10.3574"
   x2="188.1225"
   y2="249.1138">
		<stop
   offset="0"
   style="stop-color:#717279"
   id="stop2259" />
		<stop
   offset="1"
   style="stop-color:#EEEDEC"
   id="stop2261" />
	</linearGradient>
	<path
   fill="url(#XMLID_13_)"
   d="M188.131,10.357c-90.367,0-163.886,53.557-163.886,119.387c0,65.82,73.519,119.369,163.886,119.369   c90.357,0,163.869-53.549,163.869-119.369C352,63.914,278.489,10.357,188.131,10.357z M188.131,247.113   c-89.417,0-161.886-52.552-161.886-117.369c0-64.836,72.47-117.387,161.886-117.387C277.514,12.357,350,64.908,350,129.744   C350,194.562,277.533,247.113,188.131,247.113z"
   id="path2263" />
	<linearGradient
   id="XMLID_14_"
   gradientUnits="userSpaceOnUse"
   x1="188.1226"
   y1="150.4854"
   x2="188.1226"
   y2="108.9858">
		<stop
   offset="0"
   style="stop-color:#717279"
   id="stop2266" />
		<stop
   offset="1"
   style="stop-color:#EEEDEC"
   id="stop2268" />
	</linearGradient>
	<path
   fill="url(#XMLID_14_)"
   d="M347.477,108.985H28.768c-1.658,6.738-2.523,13.675-2.523,20.759   c0,7.077,0.865,14.009,2.521,20.741H347.48c1.656-6.732,2.521-13.664,2.521-20.741C350,122.66,349.135,115.724,347.477,108.985z"
   id="path2270" />
	<path
   fill="#58585E"
   d="M336.852,106.485H39.394c0,0-10.419,1.663-10.625,2.5h9.923h298.863h9.923   C347.271,108.148,336.852,106.485,336.852,106.485z"
   id="path2272" />
	<g
   id="g2274">
		<g
   id="g2276">
			<g
   id="g2278">
				<path
   fill="#3A3B3E"
   d="M38.688,150.485h-9.921c0.206,0.837,10.623,2.5,10.623,2.5h297.466c0,0,10.415-1.664,10.621-2.5h-9.919      H38.688z"
   id="path2280" />
			</g>
			<g
   id="g2282">
				<path
   fill="#3A3B3E"
   d="M347.499,150.404c-0.007,0.027-0.015,0.054-0.021,0.081h0.003      C347.487,150.458,347.492,150.431,347.499,150.404z"
   id="path2284" />
			</g>
			<g
   id="g2286">
				<path
   fill="#3A3B3E"
   d="M28.766,150.485h0.001c-0.004-0.017-0.009-0.033-0.013-0.05      C28.758,150.452,28.762,150.469,28.766,150.485z"
   id="path2288" />
			</g>
		</g>
	</g>
	<linearGradient
   id="XMLID_15_"
   gradientUnits="userSpaceOnUse"
   x1="162.5894"
   y1="48.0752"
   x2="173.9228"
   y2="76.0752">
		<stop
   offset="0.0056"
   style="stop-color:#BFBFBB"
   id="stop2291" />
		<stop
   offset="1"
   style="stop-color:#F6F6F4"
   id="stop2293" />
	</linearGradient>
	<path
   fill="url(#XMLID_15_)"
   d="M192.745,14.607c0,0-41.77,42.677-49.203,94.378h36.43   C167.416,68.147,192.745,14.607,192.745,14.607z"
   id="path2295" />
	<linearGradient
   id="XMLID_16_"
   gradientUnits="userSpaceOnUse"
   x1="169.3213"
   y1="38.1885"
   x2="215.9878"
   y2="102.8545">
		<stop
   offset="0.0056"
   style="stop-color:#67676F"
   id="stop2298" />
		<stop
   offset="0.5"
   style="stop-color:#BBBCB8"
   id="stop2300" />
		<stop
   offset="1"
   style="stop-color:#959796"
   id="stop2302" />
	</linearGradient>
	<path
   fill="url(#XMLID_16_)"
   d="M179.972,108.985h29.773c-33.667-18.334-17-94.378-17-94.378S167.416,68.147,179.972,108.985z"
   id="path2304" />
	
		<linearGradient
   id="XMLID_17_"
   gradientUnits="userSpaceOnUse"
   x1="162.5894"
   y1="552.0752"
   x2="173.9228"
   y2="580.0752"
   gradientTransform="matrix(-1 0 0 -1 376.2451 763.4707)">
		<stop
   offset="0.0056"
   style="stop-color:#BFBFBB"
   id="stop2307" />
		<stop
   offset="1"
   style="stop-color:#F6F6F4"
   id="stop2309" />
	</linearGradient>
	<path
   fill="url(#XMLID_17_)"
   d="M183.5,244.863c0,0,41.77-42.677,49.203-94.378h-36.43C208.83,191.323,183.5,244.863,183.5,244.863   z"
   id="path2311" />
	
		<linearGradient
   id="XMLID_18_"
   gradientUnits="userSpaceOnUse"
   x1="169.3208"
   y1="542.1875"
   x2="215.9874"
   y2="606.8535"
   gradientTransform="matrix(-1 0 0 -1 376.2451 763.4707)">
		<stop
   offset="0.0056"
   style="stop-color:#67676F"
   id="stop2314" />
		<stop
   offset="0.5"
   style="stop-color:#BBBCB8"
   id="stop2316" />
		<stop
   offset="1"
   style="stop-color:#959796"
   id="stop2318" />
	</linearGradient>
	<path
   fill="url(#XMLID_18_)"
   d="M196.274,150.485H166.5c33.667,18.334,17,94.378,17,94.378S208.83,191.323,196.274,150.485z"
   id="path2320" />
	<path
   fill="#060506"
   d="M339.062,139.229c0,3.063-2.572,5.352-5.738,5.352h-3.47v-21.849c0-1.369-1.185-2.512-2.675-2.512h-44.475   v24.36h-9.434v-29.71h57.931c4.45,0,7.881,3.471,7.881,7.719L339.062,139.229L339.062,139.229z M37.164,139.212l53.743,0.018   c1.593,0,2.695-0.959,2.675-2.327l-0.02-4.45H37.225v-9.862c0-4.33,3.654-7.719,8.127-7.719h57.643v5.35H48.946   c-1.715,0-2.287,1.021-2.287,2.369l-0.062,4.514h56.418v9.799c0,4.35-3.594,7.679-8.106,7.679H42.901   C39.737,144.581,37.164,142.272,37.164,139.212L37.164,139.212L37.164,139.212z M119.8,136.739c0,1.348,1.185,2.49,2.715,2.49   h53.561v5.352h-57.583c-4.492,0-8.126-3.452-8.126-7.719V122.59c0-4.248,3.634-7.719,8.126-7.719h57.583v5.35h-53.561   c-1.53,0-2.715,1.164-2.715,2.512V136.739L119.8,136.739z M192.882,114.871V144.6h-9.476l0.02-29.729H192.882L192.882,114.871z    M265.921,122.59v14.272c0,4.267-3.635,7.719-8.108,7.719H208.36c-4.492,0-8.128-3.452-8.128-7.719V122.59   c0-4.248,3.636-7.719,8.128-7.719h49.453C262.287,114.871,265.921,118.342,265.921,122.59L265.921,122.59L265.921,122.59z    M253.77,120.221h-41.389c-1.531,0-2.737,1.143-2.737,2.49v14.008c0,1.368,1.206,2.511,2.737,2.511h41.389   c1.532,0,2.737-1.143,2.718-2.49l0.02-14.028C256.488,121.363,255.302,120.221,253.77,120.221L253.77,120.221L253.77,120.221z"
   id="path2322" />
</g>
</svg>