<?xml version="1.0" encoding="UTF-8" ?>
<!DOCTYPE svg PUBLIC "-//W3C//DTD SVG 1.1//EN" "http://www.w3.org/Graphics/SVG/1.1/DTD/svg11.dtd">
<svg width="250pt" height="250pt" viewBox="0 0 250 250" version="1.1" xmlns="http://www.w3.org/2000/svg">
<path fill="#ffffff" d=" M 0.00 0.00 L 250.00 0.00 L 250.00 250.00 L 0.00 250.00 L 0.00 144.66 C 4.56 171.32 18.65 196.13 39.02 213.90 C 62.66 234.89 94.44 246.28 126.00 245.58 C 157.84 245.27 189.52 232.63 212.47 210.49 C 231.80 192.22 244.73 167.31 248.34 140.94 C 252.31 113.65 245.71 85.15 230.89 61.97 C 215.30 37.53 190.75 19.11 163.10 10.55 C 134.75 1.47 103.31 2.66 75.69 13.74 C 49.08 24.26 26.17 44.17 12.54 69.38 C 6.44 80.60 2.26 92.82 0.00 105.37 L 0.00 0.00 Z" />
<path fill="#373536" d=" M 75.69 13.74 C 103.31 2.66 134.75 1.47 163.10 10.55 C 190.75 19.11 215.30 37.53 230.89 61.97 C 245.71 85.15 252.31 113.65 248.34 140.94 C 244.73 167.31 231.80 192.22 212.47 210.49 C 189.52 232.63 157.84 245.27 126.00 245.58 C 94.44 246.28 62.66 234.89 39.02 213.90 C 18.65 196.13 4.56 171.32 0.00 144.66 L 0.00 105.37 C 2.26 92.82 6.44 80.60 12.54 69.38 C 26.17 44.17 49.08 24.26 75.69 13.74 Z" />
<path fill="#ffffff" d=" M 106.55 9.90 C 134.65 5.92 164.09 11.85 188.38 26.56 C 210.89 40.12 228.91 61.24 237.96 85.98 C 247.28 110.87 247.28 139.10 237.97 164.00 C 228.01 191.28 207.13 214.12 181.38 227.37 C 156.89 240.04 128.14 244.34 101.03 239.21 C 72.83 234.10 46.47 218.91 28.41 196.59 C 9.44 173.52 0.03 142.71 3.42 112.99 C 6.16 86.99 18.35 62.20 37.04 43.95 C 55.67 25.40 80.55 13.49 106.55 9.90 Z" />
<path fill="#373536" d=" M 109.53 12.75 C 138.75 9.30 169.26 16.66 193.35 33.67 C 213.78 47.96 229.56 68.99 236.82 92.91 C 244.04 116.01 243.17 141.51 234.45 164.09 C 224.44 190.60 203.82 212.68 178.54 225.30 C 154.49 237.40 126.37 241.20 99.98 235.83 C 73.49 230.68 48.84 216.32 31.64 195.47 C 15.12 175.64 5.71 149.88 6.12 124.02 C 6.20 94.82 18.84 66.04 39.83 45.81 C 58.48 27.35 83.54 15.82 109.53 12.75 Z" />
<path fill="#ffffff" d=" M 107.47 17.84 C 132.23 14.25 158.09 18.98 180.01 31.01 C 204.47 44.41 223.85 67.25 232.00 94.03 C 238.94 116.10 238.16 140.44 229.91 162.05 C 220.52 187.19 201.13 208.19 177.32 220.41 C 153.73 232.58 125.92 236.37 99.95 230.82 C 73.36 225.40 48.83 210.19 32.51 188.45 C 18.40 169.83 10.64 146.41 11.19 123.02 C 11.54 94.52 24.40 66.62 45.32 47.35 C 62.30 31.35 84.42 21.11 107.47 17.84 Z" />
<path fill="#373536" d=" M 121.83 23.97 C 123.11 23.99 125.68 24.02 126.96 24.04 L 125.16 25.50 C 125.71 26.15 126.25 26.81 126.78 27.47 C 124.04 30.22 121.46 26.48 121.83 23.97 Z" />
<path fill="#373536" d=" M 114.66 27.62 C 114.50 25.01 119.13 24.00 121.11 24.73 C 121.13 25.55 121.18 27.18 121.20 27.99 C 122.65 29.83 125.51 28.75 127.51 28.59 C 128.08 27.19 127.12 25.71 127.19 24.26 C 128.11 24.51 129.94 25.01 130.85 25.26 C 130.49 26.06 129.89 26.70 129.04 27.19 C 129.76 28.38 130.84 29.22 132.09 29.82 C 128.26 32.21 133.56 36.39 136.15 34.14 C 136.86 33.00 136.35 31.77 135.62 30.81 C 135.50 31.38 135.27 32.52 135.16 33.08 C 134.53 33.06 133.27 33.01 132.63 32.99 C 132.58 32.19 132.48 30.58 132.42 29.78 C 133.04 29.75 134.29 29.70 134.91 29.67 C 136.17 28.61 134.55 27.75 133.99 26.88 C 133.76 27.39 133.30 28.40 133.07 28.91 L 131.17 27.49 C 131.93 26.51 132.71 25.53 133.45 24.53 L 133.26 25.85 C 138.35 27.14 143.13 29.40 148.18 30.84 C 151.40 31.89 154.83 32.39 157.87 33.95 C 161.17 35.98 163.56 39.11 166.09 41.97 C 168.36 44.59 171.38 46.37 174.26 48.22 C 173.26 50.15 171.22 51.24 170.27 53.20 C 168.02 57.37 165.94 62.02 161.87 64.74 C 158.68 63.95 161.68 60.74 163.49 60.19 C 166.46 56.68 167.64 52.01 169.68 47.93 C 166.92 47.60 164.13 47.21 161.36 47.70 C 159.03 45.92 156.85 43.92 154.26 42.51 C 154.01 41.98 153.51 40.92 153.26 40.40 C 154.95 40.55 157.41 41.16 158.49 39.31 C 155.75 37.82 152.83 36.71 149.80 35.99 C 150.29 37.41 151.18 38.41 152.47 38.97 C 152.00 39.48 151.51 39.98 151.03 40.48 C 149.44 39.55 147.78 38.74 146.09 38.02 C 144.62 35.78 142.71 33.89 140.54 32.32 C 138.02 42.09 139.56 52.29 140.97 62.11 C 141.82 66.51 142.54 71.14 144.87 75.04 C 146.35 77.45 149.21 76.59 151.31 75.70 C 150.44 73.99 148.35 75.13 146.92 74.99 C 144.05 69.85 143.52 63.75 143.65 57.97 C 143.69 52.96 143.25 47.94 143.75 42.95 C 143.76 41.45 145.57 40.15 147.00 40.74 C 152.37 42.05 156.65 45.80 160.78 49.26 C 161.88 49.99 162.00 51.40 161.42 52.50 C 160.31 54.85 159.41 57.58 157.13 59.06 C 157.58 55.94 159.60 53.31 159.89 50.15 C 158.62 49.89 157.35 49.65 156.08 49.45 C 153.45 56.75 153.96 64.54 153.37 72.13 C 155.16 70.75 157.01 69.44 158.91 68.20 C 159.32 68.39 160.15 68.77 160.57 68.96 C 161.61 68.34 162.66 67.73 163.73 67.15 C 163.46 70.31 160.01 71.73 157.68 73.26 C 156.67 74.20 154.52 73.65 155.08 71.82 C 154.13 72.96 155.04 74.48 154.16 75.57 C 151.73 77.85 148.16 78.33 145.01 77.62 C 142.66 76.66 142.29 73.83 141.39 71.77 C 140.58 72.51 139.97 73.41 139.65 74.46 C 137.28 80.73 135.28 87.28 135.32 94.05 C 135.27 99.86 136.50 105.56 137.63 111.23 C 135.57 110.09 135.51 107.41 134.88 105.41 C 133.27 96.01 133.48 86.32 135.25 76.97 C 135.15 75.13 135.51 72.22 133.26 71.60 C 128.65 77.68 128.55 85.72 128.47 93.02 C 128.02 99.24 129.94 105.24 130.87 111.32 C 127.86 111.11 124.63 111.87 121.78 110.67 C 124.46 109.69 130.37 108.88 127.91 104.66 C 120.71 103.09 112.63 104.44 105.98 107.71 C 106.22 108.66 106.70 110.55 106.95 111.49 C 104.61 109.82 103.84 106.90 102.54 104.48 C 96.87 91.79 97.74 77.54 98.22 63.99 C 97.90 63.49 97.26 62.47 96.95 61.97 C 94.17 65.73 94.60 70.60 94.73 75.00 C 95.09 81.23 95.34 87.60 97.63 93.49 C 95.21 93.63 92.78 92.96 90.52 92.15 C 91.68 89.04 94.51 86.12 93.15 82.58 C 90.57 85.15 90.59 89.43 87.70 91.74 C 85.18 92.08 82.63 91.31 80.34 90.31 C 82.61 86.96 85.20 83.84 87.59 80.57 C 88.77 78.78 91.05 78.35 92.71 77.15 C 92.10 76.66 90.86 75.68 90.24 75.19 C 93.08 69.74 93.59 63.44 96.50 58.02 C 93.37 60.57 90.27 63.22 86.50 64.79 C 86.57 63.95 86.71 62.27 86.78 61.43 C 84.58 64.68 81.70 69.61 76.96 67.37 C 76.83 68.15 76.57 69.71 76.44 70.49 C 77.54 70.25 79.74 69.78 80.84 69.55 C 80.80 73.10 78.96 76.24 76.65 78.80 C 76.59 79.58 76.48 81.12 76.43 81.89 C 79.05 80.75 81.85 79.84 84.76 80.29 C 83.63 84.19 80.47 86.96 78.13 90.14 C 78.88 93.79 83.40 93.04 85.93 94.71 C 84.92 96.53 83.86 98.32 82.74 100.07 C 83.46 101.42 84.02 102.89 84.99 104.09 C 87.20 104.97 89.49 105.69 91.54 106.95 C 90.52 108.69 89.45 110.41 88.20 112.00 C 85.77 109.84 84.61 106.76 83.02 104.02 C 80.25 98.81 76.78 93.79 75.70 87.88 C 73.45 78.86 73.45 68.96 77.35 60.39 C 81.17 52.99 87.53 47.41 93.01 41.28 C 93.91 42.21 94.82 43.15 95.74 44.07 C 93.10 44.56 91.11 46.53 89.54 48.57 C 89.67 51.35 92.99 52.37 94.92 53.74 C 98.34 52.33 103.60 47.77 98.50 44.56 C 98.66 45.48 98.98 47.33 99.15 48.26 C 97.37 49.57 95.47 52.20 92.97 51.00 C 92.39 50.56 91.25 49.67 90.68 49.23 C 91.87 46.85 94.14 43.98 97.22 45.33 C 97.35 45.06 97.61 44.54 97.74 44.28 C 96.41 42.96 95.47 41.36 94.50 39.78 C 100.51 35.01 106.42 29.91 113.39 26.57 L 113.93 27.14 C 114.12 27.26 114.48 27.50 114.66 27.62 Z" />
<path fill="#ffffff" d=" M 118.60 26.82 C 119.55 27.44 120.15 28.34 120.39 29.50 L 117.96 30.14 C 119.19 30.71 120.49 31.09 121.79 31.46 L 121.56 33.06 C 122.04 33.14 122.99 33.30 123.46 33.38 C 121.23 28.99 127.28 30.44 129.55 30.27 C 129.79 31.69 130.77 33.34 129.53 34.59 C 127.78 35.41 125.81 35.32 123.93 35.34 L 124.14 33.28 C 122.59 35.80 120.55 38.03 117.35 38.20 L 117.04 36.25 C 115.57 38.91 113.28 42.05 109.80 41.39 C 108.63 40.19 105.42 37.14 108.65 36.57 C 108.95 35.95 109.57 34.72 109.87 34.10 C 108.08 35.16 104.10 37.02 104.27 33.35 C 105.14 33.69 106.01 34.05 106.88 34.41 C 107.51 33.98 108.77 33.12 109.40 32.69 C 109.06 32.22 108.37 31.28 108.03 30.81 C 108.63 30.97 109.84 31.29 110.44 31.45 C 110.69 33.39 112.04 34.71 113.77 35.51 C 114.94 33.94 118.13 32.81 117.42 30.56 C 116.19 31.39 112.58 33.06 112.82 30.12 C 112.98 28.16 114.94 30.03 115.94 30.01 C 117.43 29.49 118.32 28.39 118.60 26.82 Z" />
<path fill="#373536" d=" M 124.97 30.94 C 126.63 29.84 128.26 30.74 129.43 32.04 C 129.05 35.18 122.97 34.15 124.97 30.94 Z" />
<path fill="#373536" d=" M 116.78 32.74 C 118.74 32.18 120.84 31.59 121.91 33.91 C 121.12 35.67 118.89 36.98 117.16 35.61 C 117.07 34.89 116.87 33.45 116.78 32.74 Z" />
<path fill="#ffffff" d=" M 102.22 35.25 C 102.71 35.75 103.20 36.26 103.70 36.76 C 101.66 37.68 98.89 39.54 100.67 42.05 C 101.60 45.67 105.49 44.51 107.05 42.04 C 105.88 39.71 103.54 39.50 101.20 39.54 C 103.44 38.91 106.80 38.39 107.73 41.22 C 109.04 43.86 105.86 45.68 103.81 46.52 C 99.88 46.46 100.19 40.92 96.71 40.01 C 97.89 39.02 99.22 38.23 100.68 37.72 C 101.20 36.90 101.71 36.08 102.22 35.25 Z" />
<path fill="#373536" d=" M 108.31 37.94 C 109.35 36.99 110.40 36.03 111.46 35.10 C 112.59 35.56 115.54 37.32 113.60 38.69 C 111.91 40.28 109.61 39.68 108.31 37.94 Z" />
<path fill="#ffffff" d=" M 121.02 41.92 C 124.87 40.03 128.68 37.64 133.06 37.30 C 132.24 38.99 130.21 38.65 128.68 39.02 C 129.20 41.48 131.25 43.11 132.78 44.96 C 129.62 43.75 126.79 39.49 123.22 41.99 C 126.00 45.08 129.49 47.38 132.83 49.81 C 128.54 48.46 125.16 45.32 121.01 43.65 C 119.61 43.62 118.27 45.22 119.55 46.32 C 123.43 49.87 128.60 51.56 132.80 54.69 C 127.84 52.54 123.08 49.92 118.01 48.00 C 115.47 46.76 113.51 49.48 111.99 51.06 C 113.70 53.58 117.00 53.45 119.56 54.53 C 124.15 55.93 128.29 58.70 133.02 59.58 C 135.16 58.94 134.23 56.44 134.28 54.87 C 135.62 55.15 136.11 56.32 135.44 57.50 C 133.76 61.28 134.35 66.03 130.78 68.81 C 130.89 71.37 130.76 74.50 128.12 75.79 C 128.45 73.31 130.71 69.86 127.64 68.28 C 120.93 64.97 113.34 63.67 105.93 63.10 C 101.62 61.99 99.51 68.55 103.10 70.73 L 101.12 71.10 C 103.42 72.64 106.30 72.21 108.90 72.63 C 114.68 73.37 120.51 74.21 126.12 75.82 C 127.98 76.29 127.79 78.32 127.80 79.81 C 122.88 79.29 118.00 78.38 113.04 78.51 C 108.94 78.28 104.54 79.06 100.70 77.35 C 98.62 76.30 100.23 73.57 101.72 72.83 C 100.97 72.39 100.21 71.95 99.46 71.51 C 99.05 68.38 99.59 65.02 101.70 62.56 C 102.90 61.24 103.29 59.51 103.65 57.81 C 108.02 54.73 110.35 49.58 114.95 46.83 C 117.12 45.36 118.53 42.95 121.02 41.92 Z" />
<path fill="#373536" d=" M 159.62 59.59 C 162.95 56.66 163.43 51.39 167.42 49.18 C 166.21 55.27 161.76 60.27 157.57 64.70 C 155.75 65.70 155.59 63.28 156.23 62.15 C 156.63 60.55 158.41 60.32 159.62 59.59 Z" />
<path fill="#ffffff" d=" M 85.48 51.65 C 88.31 49.62 90.08 52.93 91.24 55.02 C 89.08 58.33 85.35 60.93 81.29 60.81 C 79.71 57.24 83.20 54.00 85.48 51.65 Z" />
<path fill="#373536" d=" M 86.17 52.23 C 88.27 51.15 90.39 54.21 88.84 55.82 C 86.91 57.87 84.46 59.49 81.74 60.24 C 81.08 56.92 83.38 53.74 86.17 52.23 Z" />
<path fill="#373536" d=" M 106.62 56.63 C 108.31 53.79 111.99 53.36 114.91 54.22 C 121.20 55.92 127.25 58.50 132.87 61.81 C 132.82 63.66 132.23 65.92 130.06 66.23 C 126.57 66.60 123.34 64.87 120.04 64.05 C 115.61 62.63 110.92 62.47 106.43 61.39 C 104.05 60.68 105.52 57.87 106.62 56.63 Z" />
<path fill="#ffffff" d=" M 90.25 60.11 C 89.85 58.87 91.45 56.99 92.75 57.56 C 93.39 58.83 91.50 60.70 90.25 60.11 Z" />
<path fill="#373536" d=" M 80.38 77.77 C 81.02 71.55 85.63 65.49 92.36 65.61 C 90.85 71.30 87.60 78.82 80.38 77.77 Z" />
<path fill="#ffffff" d=" M 105.58 69.74 C 109.21 68.22 113.13 66.48 117.15 67.35 C 120.73 68.08 124.31 70.18 125.64 73.75 C 118.86 72.89 112.09 71.85 105.42 70.38 C 105.46 70.22 105.54 69.90 105.58 69.74 Z" />
<path fill="#ffffff" d=" M 85.08 73.93 C 85.03 71.87 86.02 69.97 87.92 69.09 C 87.42 70.93 86.34 72.52 85.08 73.93 Z" />
<path fill="#ffffff" d=" M 100.94 86.38 C 99.07 84.74 99.46 81.71 100.56 79.71 C 108.93 79.74 117.40 79.74 125.60 81.66 C 127.59 82.83 127.10 86.14 125.69 87.60 C 121.51 88.42 117.25 87.87 113.03 87.80 C 108.99 87.55 104.83 87.60 100.94 86.38 Z" />
<path fill="#ffffff" d=" M 77.18 86.86 C 77.75 85.35 78.65 84.00 79.97 83.04 C 80.21 84.90 78.99 86.50 77.18 86.86 Z" />
<path fill="#ffffff" d=" M 86.11 86.36 C 87.01 85.27 87.92 84.18 88.89 83.15 C 89.06 85.09 87.81 86.55 86.58 87.87 C 86.47 87.50 86.23 86.74 86.11 86.36 Z" />
<path fill="#ffffff" d=" M 101.44 89.48 C 102.75 88.48 104.47 88.79 106.00 88.75 C 112.35 89.08 118.87 88.13 125.04 90.08 C 128.15 91.11 127.37 96.69 123.92 96.40 C 116.99 96.39 109.97 96.91 103.09 96.13 C 101.69 94.42 99.30 91.46 101.44 89.48 Z" />
<path fill="#373536" d=" M 85.67 102.12 C 85.18 97.45 89.78 93.53 94.35 94.54 C 94.74 94.94 95.52 95.73 95.92 96.13 C 96.61 95.53 97.31 94.93 98.00 94.32 C 98.97 99.54 101.52 104.27 104.02 108.88 C 101.32 107.42 98.49 106.24 95.67 105.03 C 95.71 102.57 99.38 99.68 96.58 97.72 C 95.05 100.02 94.20 103.75 91.02 104.19 C 89.11 103.87 87.41 102.89 85.67 102.12 Z" />
<path fill="#ffffff" d=" M 102.30 99.80 C 106.28 96.23 112.21 98.55 117.02 97.86 C 120.64 98.04 127.74 96.51 127.37 102.20 C 123.94 102.93 120.46 103.44 116.96 103.61 C 112.72 103.82 108.69 105.28 104.53 105.93 C 103.85 103.86 103.10 101.82 102.30 99.80 Z" />
<path fill="#373536" d=" M 91.16 110.97 C 92.09 109.76 93.04 108.56 94.01 107.38 C 97.32 108.44 101.41 108.44 103.84 111.24 C 99.63 111.53 95.30 112.02 91.16 110.97 Z" />
<path fill="#373536" d=" M 24.22 119.94 C 24.26 117.35 25.99 114.27 28.89 114.30 C 35.48 114.29 42.10 114.01 48.67 114.51 C 52.01 115.31 53.09 118.89 52.28 121.91 C 50.17 121.85 48.06 121.82 45.95 121.82 C 45.73 121.33 45.28 120.34 45.06 119.84 C 40.75 119.84 36.44 119.84 32.13 119.84 C 32.13 120.70 32.12 122.41 32.12 123.26 C 37.39 123.31 42.68 123.12 47.94 123.54 C 50.27 123.67 52.86 125.35 52.70 127.94 C 52.77 131.26 53.68 136.17 49.67 137.58 C 43.85 138.74 37.91 137.68 32.03 137.89 C 29.80 137.72 27.02 138.55 25.37 136.57 C 23.49 134.98 24.39 132.32 24.27 130.20 C 26.42 130.16 28.56 130.15 30.71 130.15 C 30.94 130.76 31.39 131.96 31.61 132.57 C 36.03 132.79 40.46 132.64 44.89 132.71 C 45.31 131.41 45.40 130.08 45.16 128.73 C 39.13 128.33 32.99 129.24 27.05 127.98 C 23.54 127.10 24.00 122.72 24.22 119.94 Z" />
<path fill="#373536" d=" M 93.58 114.46 C 102.90 114.36 112.22 114.48 121.54 114.40 C 121.54 116.18 121.54 117.97 121.54 119.75 C 114.90 119.73 108.26 119.79 101.62 119.71 C 101.58 121.01 101.54 122.31 101.51 123.61 C 107.66 123.62 113.81 123.58 119.96 123.63 C 119.93 125.36 119.91 127.09 119.89 128.83 C 113.79 128.78 107.69 128.88 101.59 128.76 C 101.51 130.00 101.45 131.25 101.37 132.50 C 108.04 132.52 114.70 132.53 121.37 132.49 C 121.35 134.37 121.31 136.25 121.26 138.13 C 112.05 137.96 102.83 138.34 93.62 137.87 C 93.60 130.07 93.67 122.26 93.58 114.46 Z" />
<path fill="#373536" d=" M 126.37 114.40 C 129.12 114.42 131.87 114.42 134.62 114.41 C 134.58 120.44 134.62 126.47 134.59 132.50 C 140.29 132.53 145.98 132.51 151.68 132.51 C 151.69 134.34 151.69 136.17 151.70 138.00 C 143.25 138.15 134.79 138.20 126.33 137.97 C 126.43 130.12 126.37 122.26 126.37 114.40 Z" />
<path fill="#373536" d=" M 154.85 114.17 C 163.24 114.20 171.63 114.12 180.01 114.20 C 186.08 113.55 186.93 122.63 183.34 125.90 C 186.45 127.43 185.96 131.24 185.67 134.10 C 185.56 136.44 183.26 138.09 181.01 137.97 C 172.31 138.51 163.57 138.19 154.86 138.27 C 154.85 130.24 154.86 122.20 154.85 114.17 Z" />
<path fill="#373536" d=" M 187.93 114.43 C 191.12 114.40 194.30 114.42 197.49 114.42 C 200.02 117.41 202.50 120.44 205.00 123.44 C 207.67 120.39 210.17 117.20 212.87 114.18 C 215.93 114.27 219.00 114.25 222.07 114.23 C 217.80 119.59 213.26 124.74 208.90 130.02 C 208.86 132.62 208.87 135.22 208.87 137.82 C 206.30 137.82 203.72 137.82 201.15 137.82 C 201.13 135.16 201.14 132.51 201.17 129.86 C 196.86 124.63 192.29 119.63 187.93 114.43 Z" />
<path fill="#373536" d=" M 57.38 137.89 C 57.43 130.08 57.34 122.27 57.44 114.47 C 60.01 114.51 62.58 114.52 65.15 114.53 C 65.15 117.31 65.14 120.09 65.14 122.87 C 70.63 122.85 76.13 122.90 81.62 122.83 C 81.59 120.02 81.57 117.21 81.58 114.40 C 84.23 114.42 86.88 114.42 89.53 114.41 C 89.49 122.23 89.57 130.05 89.48 137.86 C 86.78 137.82 84.07 137.82 81.37 137.80 C 81.39 135.13 81.40 132.47 81.38 129.80 C 75.96 129.80 70.54 129.80 65.12 129.80 C 65.06 132.45 65.10 135.09 65.18 137.74 C 62.58 137.89 59.98 137.93 57.38 137.89 Z" />
<path fill="#ffffff" d=" M 162.50 120.27 C 167.70 120.24 172.89 120.30 178.09 120.23 C 178.18 121.42 179.35 124.08 177.15 123.82 C 172.25 123.92 167.34 123.86 162.44 123.79 C 162.46 122.62 162.48 121.44 162.50 120.27 Z" />
<path fill="#ffffff" d=" M 162.50 128.73 C 167.76 128.76 173.02 128.70 178.29 128.77 C 178.31 129.66 178.35 131.44 178.37 132.33 C 173.08 132.33 167.79 132.32 162.50 132.34 C 162.50 131.44 162.50 129.63 162.50 128.73 Z" />
<path fill="#373536" d=" M 107.75 140.96 C 110.36 140.93 112.99 141.95 115.48 140.72 C 116.92 144.38 113.14 144.82 110.80 143.26 C 111.23 143.89 112.11 145.16 112.54 145.79 C 112.07 146.48 111.59 147.18 111.11 147.87 C 109.96 145.58 108.73 143.33 107.75 140.96 Z" />
<path fill="#373536" d=" M 118.18 141.11 C 124.40 140.36 130.71 141.22 136.96 140.83 C 139.58 140.87 142.28 140.54 144.84 141.17 C 146.59 145.38 147.81 149.79 149.53 154.02 C 152.15 161.44 156.48 168.27 157.67 176.15 C 158.96 176.80 161.73 177.69 160.25 179.52 L 161.57 179.34 C 161.48 180.36 161.29 182.39 161.20 183.41 L 160.09 182.23 L 159.85 183.53 C 161.63 183.39 164.37 183.55 163.55 186.18 C 162.84 186.21 161.43 186.27 160.72 186.30 L 162.30 186.66 C 161.20 188.23 161.33 190.14 161.51 191.97 C 160.53 190.94 158.18 190.51 158.33 188.71 C 158.68 188.10 159.39 186.87 159.74 186.26 C 156.68 186.69 157.72 190.14 156.00 191.84 C 156.43 192.09 157.28 192.61 157.70 192.86 C 157.03 193.93 156.37 195.01 155.72 196.10 C 156.32 195.87 157.52 195.43 158.12 195.20 C 158.04 194.04 159.39 192.41 160.62 193.20 C 161.32 194.08 161.71 195.16 162.28 196.14 C 162.75 194.80 162.72 192.68 164.70 192.92 C 165.50 193.58 166.29 194.24 167.07 194.92 C 166.11 191.85 161.83 191.08 162.48 187.27 C 164.00 187.10 165.23 184.95 163.49 184.04 C 164.05 183.52 164.61 183.00 165.18 182.49 C 162.64 182.76 160.45 178.64 164.11 178.86 C 169.54 185.58 177.83 190.17 181.98 198.06 C 183.56 201.07 183.58 204.82 181.71 207.71 C 179.37 211.92 174.22 212.90 169.97 214.12 C 161.29 215.51 152.48 214.22 143.96 212.43 C 135.37 217.88 124.76 217.83 115.04 216.54 C 102.51 218.48 89.61 219.09 77.13 216.41 C 70.75 215.89 64.93 212.91 59.85 209.18 C 57.91 207.74 55.98 205.65 56.49 203.02 C 57.45 200.04 59.25 197.44 60.79 194.75 C 59.16 192.53 58.68 189.70 60.20 187.28 C 63.20 180.71 68.78 174.98 75.92 173.14 C 85.05 171.86 94.76 173.37 102.67 178.28 C 107.22 181.11 112.14 183.50 116.09 187.19 C 118.88 185.50 120.43 182.20 120.34 178.99 C 120.50 168.24 116.90 157.79 111.80 148.44 C 112.52 148.52 113.97 148.67 114.70 148.75 L 114.35 147.17 C 116.21 147.99 118.58 148.41 119.77 150.25 C 120.58 152.32 118.29 154.59 116.20 153.67 C 116.64 154.76 117.05 155.86 117.48 156.96 C 118.11 156.76 119.39 156.37 120.02 156.17 C 121.26 157.46 122.48 158.77 123.69 160.10 C 122.89 161.66 121.74 162.85 119.87 162.86 C 119.41 166.63 123.93 163.32 125.18 165.87 C 127.67 168.01 124.30 172.36 121.45 171.16 C 121.67 171.71 122.10 172.79 122.32 173.34 C 124.73 173.92 126.14 175.94 127.35 177.94 C 126.56 178.67 125.76 179.39 124.96 180.12 C 124.19 180.21 122.64 180.40 121.87 180.49 C 123.40 182.59 126.33 183.29 127.17 186.01 C 125.53 187.01 122.93 186.52 121.80 188.07 C 122.91 190.03 124.19 191.91 125.14 193.96 C 123.41 194.52 121.59 194.68 119.79 194.80 C 120.19 196.79 120.82 198.72 121.48 200.63 C 120.57 200.49 118.75 200.22 117.84 200.09 C 116.70 201.55 116.24 203.28 116.39 205.13 C 115.52 204.97 113.77 204.66 112.90 204.51 C 114.73 206.09 117.60 207.23 116.80 210.29 C 118.23 206.69 121.79 208.43 124.62 208.68 C 124.94 208.26 125.59 207.42 125.91 207.00 C 125.52 205.61 125.19 204.19 124.86 202.79 C 126.54 202.16 129.46 203.21 130.11 200.96 C 129.66 199.30 129.20 197.65 128.95 195.94 C 130.31 195.37 131.71 194.86 132.99 194.11 C 133.91 191.67 131.95 189.35 131.34 187.07 C 132.23 186.47 133.09 185.82 133.91 185.13 C 134.50 182.41 131.86 180.80 130.45 178.90 C 131.20 177.75 131.96 176.61 132.73 175.48 C 132.32 173.05 131.42 170.74 129.78 168.87 C 129.86 168.00 130.01 166.25 130.09 165.38 C 127.82 168.80 125.12 164.95 123.48 163.01 C 123.92 162.56 124.79 161.67 125.22 161.22 C 126.89 161.32 127.86 163.24 129.22 164.09 C 128.54 162.52 127.61 161.08 126.59 159.72 C 126.57 159.03 126.53 157.64 126.51 156.95 C 126.04 157.26 125.10 157.88 124.63 158.19 C 124.06 157.89 122.92 157.29 122.35 156.99 C 122.94 156.44 123.54 155.89 124.14 155.34 C 123.06 153.54 121.67 154.90 120.43 155.58 C 120.78 154.63 121.48 152.73 121.83 151.78 C 122.89 152.23 123.96 152.68 125.04 153.12 C 123.77 151.27 122.64 149.30 122.38 147.03 C 121.68 147.60 120.97 148.17 120.27 148.74 C 118.89 147.88 117.33 147.24 116.20 146.02 C 116.01 144.20 117.23 142.57 118.18 141.11 Z" />
<path fill="#ffffff" d=" M 122.48 142.81 C 127.77 140.88 133.46 141.82 138.96 141.71 C 143.48 142.08 144.65 147.51 145.58 151.10 C 145.16 151.47 144.34 152.20 143.92 152.57 C 138.34 152.89 132.66 153.06 127.09 152.54 C 124.94 149.65 123.44 146.28 122.48 142.81 Z" />
<path fill="#ffffff" d=" M 128.14 155.20 C 133.82 152.79 140.07 154.23 146.01 154.29 C 148.63 156.03 151.07 160.53 149.47 163.45 C 145.39 164.37 141.09 163.67 136.94 164.27 C 135.20 164.22 132.88 165.00 131.55 163.57 C 130.16 160.89 129.22 158.01 128.14 155.20 Z" />
<path fill="#ffffff" d=" M 132.66 166.91 C 138.01 165.87 143.48 165.09 148.94 165.42 C 152.87 165.38 154.97 170.72 152.95 173.72 C 147.10 174.71 141.01 175.27 135.11 174.48 C 133.41 172.34 132.71 169.60 132.66 166.91 Z" />
<path fill="#373536" d=" M 125.16 171.98 C 126.34 171.29 127.52 170.59 128.70 169.90 C 129.96 171.44 131.06 173.11 131.95 174.90 C 131.16 175.33 129.56 176.20 128.77 176.63 C 126.86 175.78 125.91 173.80 125.16 171.98 Z" />
<path fill="#ffffff" d=" M 128.15 172.52 C 131.53 172.72 126.59 175.38 128.15 172.52 Z" />
<path fill="#ffffff" d=" M 76.17 174.95 C 78.56 175.80 80.16 179.66 76.86 180.53 C 78.42 178.37 76.38 176.99 76.17 174.95 Z" />
<path fill="#ffffff" d=" M 79.80 175.30 C 80.32 175.47 81.36 175.80 81.88 175.97 C 82.49 175.74 83.70 175.27 84.30 175.04 C 83.95 177.73 80.30 178.21 79.80 175.30 Z" />
<path fill="#ffffff" d=" M 87.37 177.61 C 88.73 177.13 90.12 176.73 91.51 176.37 C 92.54 177.65 94.80 178.47 94.71 180.31 C 92.97 180.92 91.17 181.34 89.37 181.71 C 88.69 180.35 88.02 178.98 87.37 177.61 Z" />
<path fill="#ffffff" d=" M 123.08 176.15 C 126.47 176.24 121.63 179.07 123.08 176.15 Z" />
<path fill="#ffffff" d=" M 135.38 177.26 C 141.66 176.28 148.00 175.57 154.36 175.60 C 154.79 176.40 155.18 177.22 155.53 178.07 C 156.75 180.58 152.58 182.62 155.49 184.80 C 155.43 186.97 155.28 189.87 152.74 190.58 C 147.41 191.97 141.74 192.55 136.26 191.73 C 135.53 189.54 135.93 187.29 137.18 185.39 C 142.85 185.83 148.41 184.53 154.01 183.89 C 148.58 180.82 142.28 185.52 136.61 183.50 C 135.12 181.78 135.55 179.34 135.38 177.26 Z" />
<path fill="#ffffff" d=" M 67.17 179.39 C 69.52 178.79 71.87 178.14 74.31 178.02 C 73.81 181.51 69.54 179.59 67.21 179.75 L 68.07 180.91 C 67.29 181.22 65.73 181.83 64.95 182.13 C 65.69 181.22 66.43 180.31 67.17 179.39 Z" />
<path fill="#ffffff" d=" M 81.53 180.91 C 81.86 178.61 83.84 178.31 85.67 178.18 C 86.25 179.46 86.84 180.72 87.35 182.03 C 86.86 183.59 84.74 183.88 83.65 184.93 C 81.82 183.74 83.37 182.38 83.90 181.19 L 84.44 183.01 C 88.23 182.02 83.44 176.23 83.23 180.91 C 82.80 180.91 81.96 180.91 81.53 180.91 Z" />
<path fill="#373536" d=" M 89.65 178.02 C 90.51 176.98 92.69 177.49 92.78 178.91 C 92.35 180.72 88.71 179.88 89.65 178.02 Z" />
<path fill="#ffffff" d=" M 96.40 178.28 C 97.31 177.51 99.47 178.54 98.74 179.81 C 97.84 180.63 95.72 179.49 96.40 178.28 Z" />
<path fill="#373536" d=" M 125.50 181.52 C 126.66 180.59 127.87 179.73 129.07 178.87 C 130.32 180.26 131.52 181.69 132.66 183.18 C 131.61 183.98 130.71 185.95 129.08 185.34 C 127.72 184.23 126.64 182.84 125.50 181.52 Z" />
<path fill="#ffffff" d=" M 72.99 184.01 C 71.87 183.07 71.75 181.72 71.71 180.37 C 73.41 182.38 78.80 181.62 77.43 185.51 C 77.04 185.19 76.26 184.55 75.87 184.23 L 75.53 182.32 C 75.07 182.52 74.14 182.90 73.68 183.09 C 74.73 186.39 70.46 187.30 68.14 188.05 C 68.17 185.78 68.24 183.44 69.63 181.53 C 70.28 182.01 70.93 182.50 71.57 183.00 L 69.78 183.19 L 69.79 185.58 C 70.88 185.10 71.94 184.57 72.99 184.01 Z" />
<path fill="#ffffff" d=" M 81.03 184.06 C 79.62 184.57 77.21 181.60 79.04 180.72 C 80.49 180.84 81.33 182.77 81.03 184.06 Z" />
<path fill="#ffffff" d=" M 98.27 181.53 C 99.71 181.49 101.21 181.10 102.63 181.55 C 103.55 182.55 103.60 184.10 104.47 185.17 C 103.37 186.34 101.70 186.68 100.20 187.06 C 99.40 185.27 98.70 183.44 98.27 181.53 Z" />
<path fill="#ffffff" d=" M 90.67 183.88 C 92.01 182.72 93.89 182.38 95.61 182.45 C 97.35 183.83 97.84 186.22 98.84 188.13 C 96.76 190.20 93.84 189.91 91.33 188.93 C 91.04 187.27 90.21 185.57 90.67 183.88 Z" />
<path fill="#373536" d=" M 101.11 182.22 C 102.80 181.82 103.77 184.69 101.98 185.17 C 100.44 185.46 99.44 182.65 101.11 182.22 Z" />
<path fill="#ffffff" d=" M 129.02 182.27 C 129.54 182.87 129.54 182.87 129.02 182.27 Z" />
<path fill="#ffffff" d=" M 105.90 183.20 C 107.49 182.79 108.12 183.39 107.78 184.99 C 106.18 185.40 105.55 184.81 105.90 183.20 Z" />
<path fill="#ffffff" d=" M 61.63 192.70 C 60.62 189.22 62.39 183.98 66.63 184.06 C 66.58 187.67 65.32 191.38 61.63 192.70 Z" />
<path fill="#373536" d=" M 94.02 189.41 C 91.52 188.77 90.48 183.52 93.99 183.44 C 96.17 182.87 96.69 185.70 97.60 187.02 C 96.54 187.99 95.46 189.04 94.02 189.41 Z" />
<path fill="#ffffff" d=" M 123.27 184.24 C 123.83 184.78 123.83 184.78 123.27 184.24 Z" />
<path fill="#ffffff" d=" M 84.09 186.66 C 85.19 185.89 86.27 185.10 87.37 184.33 C 88.51 185.45 88.76 187.01 89.07 188.50 C 87.44 187.81 85.79 187.18 84.09 186.66 Z" />
<path fill="#ffffff" d=" M 75.53 186.64 C 76.74 186.29 77.95 185.93 79.16 185.58 C 80.35 186.42 81.53 187.28 82.71 188.16 C 80.55 189.57 78.34 190.91 76.02 192.06 C 75.64 190.27 75.53 188.45 75.53 186.64 Z" />
<path fill="#ffffff" d=" M 108.15 189.70 C 106.04 188.92 107.47 185.24 109.52 186.09 C 109.78 187.24 109.55 189.41 108.15 189.70 Z" />
<path fill="#373536" d=" M 63.34 186.94 C 65.11 185.29 65.11 188.65 64.02 189.33 C 62.39 191.03 62.08 187.54 63.34 186.94 Z" />
<path fill="#373536" d=" M 77.41 187.50 C 78.24 186.25 80.85 187.24 79.57 188.71 C 78.78 190.18 76.11 188.93 77.41 187.50 Z" />
<path fill="#ffffff" d=" M 101.01 190.01 C 101.75 188.20 103.85 188.00 105.45 187.39 C 105.60 187.98 105.91 189.16 106.06 189.75 C 105.54 189.43 104.49 188.79 103.97 188.47 C 102.99 189.00 102.00 189.51 101.01 190.01 Z" />
<path fill="#ffffff" d=" M 115.06 190.43 C 116.57 189.06 118.22 187.83 120.03 186.88 C 119.94 188.05 119.64 189.15 119.15 190.18 C 117.80 190.45 116.42 190.40 115.06 190.43 Z" />
<path fill="#ffffff" d=" M 166.11 186.90 C 166.53 186.92 167.36 186.96 167.77 186.98 C 167.37 187.50 166.57 188.54 166.16 189.06 C 167.33 190.26 168.58 191.44 169.16 193.05 C 166.65 192.35 163.89 189.38 166.11 186.90 Z" />
<path fill="#ffffff" d=" M 69.38 188.97 C 70.83 188.74 72.27 188.51 73.72 188.27 C 73.75 190.18 73.78 192.09 73.79 194.01 C 72.11 195.35 70.44 196.70 68.77 198.06 C 67.92 195.49 67.02 192.75 68.04 190.05 C 68.82 191.46 69.30 193.00 70.06 194.42 C 71.27 194.00 71.98 193.16 72.21 191.89 C 71.54 190.68 70.36 189.91 69.38 188.97 Z" />
<path fill="#373536" d=" M 126.38 192.61 C 125.01 191.30 123.88 188.06 126.85 188.19 C 129.86 186.92 131.06 190.39 132.29 192.34 C 130.70 193.65 127.76 194.82 126.38 192.61 Z" />
<path fill="#ffffff" d=" M 84.41 189.38 C 86.62 189.08 87.48 190.50 86.84 192.60 C 88.74 192.46 90.09 190.47 92.13 191.36 C 90.60 193.33 88.39 194.59 86.31 195.91 C 85.34 193.84 84.66 191.65 84.41 189.38 Z" />
<path fill="#ffffff" d=" M 76.70 194.72 C 77.72 192.47 80.22 191.55 82.22 190.40 C 84.03 192.52 83.77 195.43 84.21 198.02 C 82.65 199.88 80.98 201.67 78.97 203.06 C 77.76 200.49 75.74 197.71 76.70 194.72 Z" />
<path fill="#ffffff" d=" M 109.15 193.22 C 109.92 192.61 110.42 191.41 111.53 191.36 C 112.75 193.29 111.30 195.72 110.61 197.63 C 108.12 198.37 106.68 195.25 106.04 193.29 C 106.82 193.27 108.37 193.24 109.15 193.22 Z" />
<path fill="#ffffff" d=" M 97.86 197.00 C 96.61 195.31 94.55 192.61 97.66 191.70 C 97.93 192.43 98.47 193.88 98.74 194.61 C 100.30 193.52 100.73 191.18 103.15 192.38 C 101.69 194.24 99.71 195.57 97.86 197.00 Z" />
<path fill="#ffffff" d=" M 114.49 192.18 C 116.02 192.17 117.54 192.17 119.07 192.17 C 118.65 193.73 118.22 195.28 117.83 196.85 C 117.38 196.22 116.49 194.96 116.05 194.34 C 115.60 195.03 114.72 196.42 114.27 197.11 C 114.81 197.56 115.89 198.47 116.43 198.92 C 115.68 199.83 114.94 200.75 114.20 201.67 C 111.00 199.17 113.96 195.24 114.49 192.18 Z" />
<path fill="#ffffff" d=" M 171.25 192.10 C 172.82 192.18 174.39 192.27 175.97 192.37 C 175.05 192.89 174.14 193.41 173.22 193.93 C 173.08 198.62 178.97 196.83 180.36 200.05 C 179.49 200.10 177.74 200.18 176.87 200.23 C 176.53 203.27 176.94 206.31 177.61 209.27 C 176.25 210.15 174.81 211.76 173.01 211.16 C 171.62 210.53 170.32 209.71 168.89 209.16 C 165.87 209.10 165.29 213.76 161.97 213.12 C 163.09 211.28 164.31 209.51 165.60 207.79 C 164.64 206.11 163.49 204.55 162.14 203.16 C 160.20 204.17 158.33 205.32 156.63 206.72 C 157.26 208.79 157.74 210.92 157.81 213.10 C 156.06 212.50 155.32 210.71 154.29 209.35 C 152.10 210.62 149.80 212.31 147.11 211.51 C 148.91 210.05 151.46 209.33 152.44 207.06 C 152.07 205.37 151.48 203.75 151.06 202.09 C 153.00 202.09 153.66 204.19 155.07 205.17 C 157.27 205.01 158.40 202.58 159.74 201.09 C 158.90 199.87 158.08 198.65 157.28 197.42 C 158.99 197.26 160.40 198.30 161.88 198.95 C 164.56 195.98 168.73 195.11 172.47 196.49 C 172.05 195.02 171.65 193.56 171.25 192.10 Z" />
<path fill="#ffffff" d=" M 64.11 193.04 C 65.62 191.93 67.01 194.67 65.83 195.70 C 64.37 196.54 62.82 194.08 64.11 193.04 Z" />
<path fill="#ffffff" d=" M 136.14 193.95 C 141.95 192.58 148.07 193.75 153.95 192.55 C 152.85 195.33 152.50 199.25 149.10 200.23 C 144.04 202.11 138.41 202.48 133.08 201.72 C 133.48 198.94 134.50 196.24 136.14 193.95 Z" />
<path fill="#373536" d=" M 80.61 198.92 C 77.84 198.53 78.11 194.79 80.14 193.59 C 82.52 194.44 82.22 197.46 80.61 198.92 Z" />
<path fill="#ffffff" d=" M 87.21 199.04 C 88.55 196.30 91.51 195.15 94.01 193.75 C 94.75 195.33 96.16 196.87 95.83 198.74 C 94.34 201.62 92.41 204.24 90.73 207.01 C 88.41 205.06 87.55 201.92 87.21 199.04 Z" />
<path fill="#ffffff" d=" M 99.21 198.89 C 100.75 197.47 102.39 196.16 104.10 194.94 C 105.87 196.85 107.83 198.67 109.01 201.03 C 109.68 204.08 105.80 206.90 103.05 205.95 C 100.98 204.12 99.86 201.51 99.21 198.89 Z" />
<path fill="#373536" d=" M 122.05 196.81 C 123.60 196.19 125.24 195.35 126.95 195.86 C 128.88 196.89 128.78 199.35 128.59 201.22 C 127.66 201.22 125.81 201.21 124.88 201.21 C 122.95 200.65 122.88 198.30 122.05 196.81 Z" />
<path fill="#ffffff" d=" M 59.58 199.56 C 61.36 199.32 62.87 198.47 64.24 197.41 C 64.86 198.09 65.46 198.79 66.04 199.52 C 64.11 200.48 63.30 202.32 63.17 204.45 L 65.71 205.12 C 65.49 204.29 65.04 202.65 64.82 201.83 C 65.59 202.84 66.35 203.87 67.17 204.85 C 67.92 203.63 68.68 202.46 69.38 201.23 C 69.49 201.92 69.70 203.30 69.80 203.99 C 71.61 205.09 74.34 203.14 75.69 204.94 C 75.84 206.42 75.91 207.92 75.92 209.42 C 77.82 209.77 79.39 208.70 80.92 207.76 C 82.17 209.22 83.47 210.64 84.83 212.01 C 85.83 211.60 86.85 211.20 87.86 210.82 C 87.53 211.43 86.86 212.63 86.52 213.23 C 87.60 214.05 88.67 214.87 89.75 215.68 C 89.36 215.73 88.57 215.83 88.18 215.88 C 85.74 213.49 82.96 215.53 80.15 215.57 C 80.89 214.53 81.90 213.74 82.88 212.94 C 82.03 211.64 81.08 210.42 80.03 209.28 C 79.89 210.40 79.75 211.52 79.62 212.64 L 80.96 213.00 C 79.35 213.43 78.11 212.84 77.28 211.43 C 76.99 212.27 76.41 213.94 76.12 214.78 C 75.22 214.01 74.32 213.25 73.42 212.49 C 71.37 213.59 69.26 212.77 67.31 211.92 C 67.46 209.95 67.25 207.99 66.67 206.10 C 64.71 206.20 63.03 207.13 61.80 208.65 C 60.83 207.81 59.86 206.97 58.89 206.13 C 60.15 205.29 62.12 204.87 62.31 203.08 C 62.66 201.27 60.77 200.42 59.58 199.56 Z" />
<path fill="#ffffff" d=" M 70.54 199.81 C 71.55 198.75 72.31 196.70 74.02 196.78 C 75.31 198.43 75.43 200.73 75.22 202.75 C 73.65 201.78 72.09 200.79 70.54 199.81 Z" />
<path fill="#373536" d=" M 88.78 199.05 C 89.92 198.26 90.92 196.18 92.48 197.47 C 93.74 199.37 91.94 201.27 90.98 202.81 C 90.05 201.67 89.35 200.39 88.78 199.05 Z" />
<path fill="#373536" d=" M 163.34 200.98 C 164.73 198.99 166.77 195.83 169.62 197.49 C 171.61 200.03 168.39 203.11 167.19 205.41 C 165.49 204.33 164.23 202.77 163.34 200.98 Z" />
<path fill="#373536" d=" M 102.27 199.90 C 102.80 198.99 103.82 198.60 104.68 198.10 C 105.41 199.47 106.73 201.87 104.69 202.80 C 103.18 202.84 102.47 201.15 102.27 199.90 Z" />
<path fill="#ffffff" d=" M 154.35 199.19 C 155.94 198.79 156.52 199.41 156.11 201.06 C 154.55 201.44 153.96 200.81 154.35 199.19 Z" />
<path fill="#ffffff" d=" M 167.12 199.17 C 168.28 199.80 168.20 200.52 166.89 201.33 C 165.70 200.68 165.78 199.96 167.12 199.17 Z" />
<path fill="#373536" d=" M 169.41 206.05 C 170.27 203.58 170.47 199.82 173.01 198.64 C 176.54 200.97 175.23 206.42 174.94 210.07 C 172.67 209.58 170.28 208.31 169.41 206.05 Z" />
<path fill="#ffffff" d=" M 80.78 204.77 C 81.92 202.98 83.63 201.71 85.26 200.41 C 86.31 202.27 87.08 204.25 87.52 206.34 C 85.24 205.97 82.97 205.50 80.78 204.77 Z" />
<path fill="#ffffff" d=" M 93.38 207.04 C 94.07 204.72 95.34 202.46 97.47 201.19 C 98.17 202.86 100.40 204.68 99.67 206.51 C 97.60 206.94 95.48 206.92 93.38 207.04 Z" />
<path fill="#373536" d=" M 117.20 201.51 C 120.76 200.96 123.38 203.34 123.88 206.71 C 120.42 207.47 116.78 205.44 117.20 201.51 Z" />
<path fill="#ffffff" d=" M 179.65 206.13 C 177.99 205.73 177.37 202.34 179.45 202.49 C 179.84 203.67 179.91 204.88 179.65 206.13 Z" />
<path fill="#ffffff" d=" M 132.94 203.95 C 138.71 203.99 144.44 203.29 150.10 202.13 C 148.57 205.11 146.73 208.91 143.00 209.46 C 137.38 210.35 131.68 210.95 125.98 210.70 C 128.12 208.33 129.91 205.25 132.94 203.95 Z" />
<path fill="#ffffff" d=" M 127.26 204.22 C 127.80 204.78 127.80 204.78 127.26 204.22 Z" />
<path fill="#373536" d=" M 68.95 205.87 C 70.59 205.09 72.43 205.02 74.20 204.84 C 74.90 206.53 74.55 208.30 74.18 210.02 C 72.31 210.55 70.41 212.62 68.45 211.38 C 68.01 209.59 67.89 207.47 68.95 205.87 Z" />
<path fill="#ffffff" d=" M 108.06 209.00 C 108.91 208.02 109.75 207.03 110.61 206.05 C 110.05 208.99 111.79 211.63 114.84 211.85 C 115.55 211.29 116.98 210.15 117.70 209.59 C 117.59 210.70 117.38 212.93 117.27 214.05 C 114.32 214.60 112.07 212.01 109.15 212.03 C 108.63 213.20 108.05 214.36 107.14 215.28 C 107.51 213.87 107.64 212.45 107.53 211.02 C 106.40 210.00 105.17 209.11 103.96 208.20 C 105.32 208.47 106.69 208.74 108.06 209.00 Z" />
<path fill="#ffffff" d=" M 71.26 207.33 C 72.48 208.05 72.42 208.75 71.09 209.44 C 69.90 208.70 69.96 208.00 71.26 207.33 Z" />
<path fill="#ffffff" d=" M 112.51 207.29 C 114.09 206.85 114.66 207.46 114.22 209.12 C 112.67 209.54 112.10 208.93 112.51 207.29 Z" />
<path fill="#ffffff" d=" M 160.13 207.26 C 161.75 206.62 162.24 207.13 161.59 208.80 C 159.95 209.45 159.47 208.93 160.13 207.26 Z" />
<path fill="#ffffff" d=" M 64.10 208.49 C 67.42 208.78 62.41 211.41 64.10 208.49 Z" />
<path fill="#ffffff" d=" M 89.81 208.72 C 91.49 208.68 93.17 208.67 94.85 208.74 C 95.97 209.63 97.17 210.44 98.54 210.92 C 99.54 209.43 100.93 208.32 102.84 208.30 C 101.89 209.94 100.14 211.64 101.17 213.76 C 98.19 213.24 95.30 212.26 92.95 210.29 C 91.28 210.63 90.24 210.11 89.81 208.72 Z" />
<path fill="#ffffff" d=" M 121.03 214.62 C 121.49 212.92 123.19 211.80 124.93 211.85 C 130.37 211.69 135.81 211.68 141.26 211.65 C 135.64 216.23 127.75 214.69 121.03 214.62 Z" />
</svg>
