<?xml version="1.0" encoding="UTF-8" standalone="no"?>
<!-- Created with Inkscape (http://www.inkscape.org/) -->

<svg
   xmlns:dc="http://purl.org/dc/elements/1.1/"
   xmlns:cc="http://creativecommons.org/ns#"
   xmlns:rdf="http://www.w3.org/1999/02/22-rdf-syntax-ns#"
   xmlns:svg="http://www.w3.org/2000/svg"
   xmlns="http://www.w3.org/2000/svg"
   xmlns:xlink="http://www.w3.org/1999/xlink"
   xmlns:sodipodi="http://sodipodi.sourceforge.net/DTD/sodipodi-0.dtd"
   xmlns:inkscape="http://www.inkscape.org/namespaces/inkscape"
   version="1.1"
   width="270"
   height="320"
   viewBox="0 0 270 320"
   id="svg17053"
   inkscape:version="0.48.1 "
   sodipodi:docname="Logo_Skoda_Auto.svg">
  <sodipodi:namedview
     pagecolor="#ffffff"
     bordercolor="#666666"
     borderopacity="1"
     objecttolerance="10"
     gridtolerance="10"
     guidetolerance="10"
     inkscape:pageopacity="0"
     inkscape:pageshadow="2"
     inkscape:window-width="1280"
     inkscape:window-height="738"
     id="namedview62"
     showgrid="false"
     inkscape:zoom="2.4283072"
     inkscape:cx="190"
     inkscape:cy="159.11048"
     inkscape:window-x="-8"
     inkscape:window-y="-8"
     inkscape:window-maximized="1"
     inkscape:current-layer="svg17053" />
  <defs
     id="defs17055">
    <linearGradient
       id="linearGradient3906">
      <stop
         style="stop-color:#99a2a7;stop-opacity:1;"
         offset="0"
         id="stop3908" />
      <stop
         id="stop3914"
         offset="0.47583982"
         style="stop-color:#98a3a8;stop-opacity:1;" />
      <stop
         style="stop-color:#e6e6e6;stop-opacity:1;"
         offset="0.53524292"
         id="stop3916" />
      <stop
         style="stop-color:#e6e6e6;stop-opacity:1;"
         offset="1"
         id="stop3910" />
    </linearGradient>
    <clipPath
       id="clipPath36">
      <path
         inkscape:connector-curvature="0"
         id="path38"
         d="M 85.721,183.017 C 74.993,178.48 65.36,171.984 57.086,163.711 l 0,0 C 48.813,155.438 42.317,145.804 37.782,135.077 l 0,0 c -4.697,-11.105 -7.079,-22.902 -7.079,-35.064 l 0,0 c 0,-12.159 2.382,-23.958 7.079,-35.061 l 0,0 C 42.317,54.225 48.813,44.59 57.086,36.319 l 0,0 C 65.36,28.045 74.993,21.549 85.721,17.013 l 0,0 c 11.105,-4.697 22.901,-7.081 35.063,-7.081 l 0,0 c 12.16,0 23.957,2.384 35.061,7.081 l 0,0 c 10.727,4.536 20.362,11.032 28.634,19.306 l 0,0 c 8.274,8.271 14.768,17.906 19.305,28.633 l 0,0 c 4.699,11.103 7.081,22.902 7.081,35.061 l 0,0 c 0,12.162 -2.382,23.959 -7.081,35.064 l 0,0 c -4.537,10.727 -11.031,20.361 -19.305,28.634 l 0,0 c -8.272,8.273 -17.907,14.769 -28.634,19.306 l 0,0 c -11.104,4.697 -22.901,7.078 -35.061,7.078 l 0,0 c -12.162,0 -23.958,-2.381 -35.063,-7.078 M 62.943,42.175 C 47.494,57.625 38.985,78.166 38.985,100.013 l 0,0 c 0,21.852 8.509,42.392 23.958,57.842 l 0,0 c 15.45,15.45 35.99,23.958 57.841,23.958 l 0,0 c 21.848,0 42.39,-8.508 57.84,-23.958 l 0,0 c 15.448,-15.45 23.957,-35.99 23.957,-57.842 l 0,0 c 0,-21.847 -8.509,-42.388 -23.957,-57.838 l 0,0 c -15.45,-15.45 -35.992,-23.959 -57.84,-23.959 l 0,0 c -21.851,0 -42.391,8.509 -57.841,23.959" />
    </clipPath>
    <clipPath
       id="clipPath50">
      <path
         inkscape:connector-curvature="0"
         id="path52"
         d="m 0,271.333 242,0 L 242,0 0,0 0,271.333 z" />
    </clipPath>
    <linearGradient
       gradientTransform="matrix(1.2923203,0,0,-1.2923203,8.1558038,348.49395)"
       gradientUnits="userSpaceOnUse"
       xlink:href="#linearGradient3784-189-732-961"
       id="linearGradient13624-886"
       y2="165.13622"
       x2="165.4158"
       y1="58.761986"
       x1="49.156662" />
    <linearGradient
       id="linearGradient3784-189-732-961">
      <stop
         offset="0"
         style="stop-color:#151313;stop-opacity:1"
         id="stop15672" />
      <stop
         offset="0.08500097"
         style="stop-color:#151313;stop-opacity:1"
         id="stop15674" />
      <stop
         offset="0.12779818"
         style="stop-color:#f8f1f1;stop-opacity:1"
         id="stop15676" />
      <stop
         offset="0.22874093"
         style="stop-color:#151313;stop-opacity:1"
         id="stop15678" />
      <stop
         offset="0.30410233"
         style="stop-color:#141414;stop-opacity:1"
         id="stop15680" />
      <stop
         offset="0.38174221"
         style="stop-color:#f8f1f1;stop-opacity:1"
         id="stop15682" />
      <stop
         offset="0.44969416"
         style="stop-color:#151313;stop-opacity:1"
         id="stop15684" />
      <stop
         offset="0.56549591"
         style="stop-color:#f8f1f4;stop-opacity:1"
         id="stop15686" />
      <stop
         offset="0.62680489"
         style="stop-color:#141414;stop-opacity:1"
         id="stop15688" />
      <stop
         offset="0.78704685"
         style="stop-color:#f8f1f1;stop-opacity:1"
         id="stop15690" />
      <stop
         offset="1"
         style="stop-color:#f8f1f2;stop-opacity:1"
         id="stop15692" />
    </linearGradient>
    <linearGradient
       gradientTransform="matrix(0.98947063,-0.14473382,0.14473382,0.98947063,-32.288106,26.187326)"
       gradientUnits="userSpaceOnUse"
       xlink:href="#linearGradient14555-699"
       id="linearGradient16864"
       y2="252.95729"
       x2="175.916"
       y1="232.187"
       x1="164.36034" />
    <linearGradient
       id="linearGradient14555-699">
      <stop
         offset="0"
         style="stop-color:#151313;stop-opacity:1"
         id="stop15652" />
      <stop
         offset="0.16256312"
         style="stop-color:#ccc4c4;stop-opacity:1"
         id="stop15654" />
      <stop
         offset="0.49613944"
         style="stop-color:#b7acad;stop-opacity:1"
         id="stop15656" />
      <stop
         offset="1"
         style="stop-color:#151313;stop-opacity:1"
         id="stop15658" />
    </linearGradient>
    <linearGradient
       gradientTransform="matrix(-0.91331112,-0.40726257,-0.40726257,0.91331112,409.17404,87.096236)"
       gradientUnits="userSpaceOnUse"
       xlink:href="#linearGradient14394-5-612"
       id="linearGradient16861"
       y2="245.77814"
       x2="178.71741"
       y1="229.01163"
       x1="162.60649" />
    <linearGradient
       id="linearGradient14394-5-612">
      <stop
         offset="0"
         style="stop-color:#151313;stop-opacity:1"
         id="stop15662" />
      <stop
         offset="0.25"
         style="stop-color:#ccc4c4;stop-opacity:1"
         id="stop15664" />
      <stop
         offset="0.5"
         style="stop-color:#b7acad;stop-opacity:1"
         id="stop15666" />
      <stop
         offset="1"
         style="stop-color:#151313;stop-opacity:1"
         id="stop15668" />
    </linearGradient>
    <linearGradient
       y2="165.13622"
       x2="165.4158"
       y1="58.761986"
       x1="49.156662"
       gradientTransform="matrix(1.2923203,0,0,-1.2923203,8.1558038,348.49395)"
       gradientUnits="userSpaceOnUse"
       id="linearGradient3138"
       xlink:href="#linearGradient3784-189-732-961"
       inkscape:collect="always" />
    <linearGradient
       y2="252.95729"
       x2="175.916"
       y1="232.187"
       x1="164.36034"
       gradientTransform="matrix(0.98947063,-0.14473382,0.14473382,0.98947063,-32.288106,26.187326)"
       gradientUnits="userSpaceOnUse"
       id="linearGradient3140"
       xlink:href="#linearGradient14555-699"
       inkscape:collect="always" />
    <linearGradient
       y2="245.77814"
       x2="178.71741"
       y1="229.01163"
       x1="162.60649"
       gradientTransform="matrix(-0.91331112,-0.40726257,-0.40726257,0.91331112,409.17404,87.096236)"
       gradientUnits="userSpaceOnUse"
       id="linearGradient3142"
       xlink:href="#linearGradient14394-5-612"
       inkscape:collect="always" />
    <linearGradient
       y2="165.13622"
       x2="165.4158"
       y1="58.761986"
       x1="49.156662"
       gradientTransform="matrix(1.2923203,0,0,-1.2923203,8.1558038,348.49395)"
       gradientUnits="userSpaceOnUse"
       id="linearGradient3198"
       xlink:href="#linearGradient3784-189-732-961"
       inkscape:collect="always" />
    <linearGradient
       y2="252.95729"
       x2="175.916"
       y1="232.187"
       x1="164.36034"
       gradientTransform="matrix(0.98947063,-0.14473382,0.14473382,0.98947063,-32.288106,26.187326)"
       gradientUnits="userSpaceOnUse"
       id="linearGradient3200"
       xlink:href="#linearGradient14555-699"
       inkscape:collect="always" />
    <linearGradient
       y2="245.77814"
       x2="178.71741"
       y1="229.01163"
       x1="162.60649"
       gradientTransform="matrix(-0.91331112,-0.40726257,-0.40726257,0.91331112,409.17404,87.096236)"
       gradientUnits="userSpaceOnUse"
       id="linearGradient3202"
       xlink:href="#linearGradient14394-5-612"
       inkscape:collect="always" />
    <linearGradient
       inkscape:collect="always"
       xlink:href="#linearGradient3784-189-732-961"
       id="linearGradient4126"
       gradientUnits="userSpaceOnUse"
       gradientTransform="matrix(1.2923203,0,0,-1.2923203,8.1558038,348.49395)"
       x1="49.156662"
       y1="58.761986"
       x2="165.4158"
       y2="165.13622" />
    <linearGradient
       inkscape:collect="always"
       xlink:href="#linearGradient14555-699"
       id="linearGradient4128"
       gradientUnits="userSpaceOnUse"
       gradientTransform="matrix(0.98947063,-0.14473382,0.14473382,0.98947063,-32.288106,26.187326)"
       x1="164.36034"
       y1="232.187"
       x2="175.916"
       y2="252.95729" />
    <linearGradient
       inkscape:collect="always"
       xlink:href="#linearGradient14394-5-612"
       id="linearGradient4130"
       gradientUnits="userSpaceOnUse"
       gradientTransform="matrix(-0.91331112,-0.40726257,-0.40726257,0.91331112,409.17404,87.096236)"
       x1="162.60649"
       y1="229.01163"
       x2="178.71741"
       y2="245.77814" />
    <linearGradient
       inkscape:collect="always"
       xlink:href="#linearGradient3784-189-732-961"
       id="linearGradient4155"
       gradientUnits="userSpaceOnUse"
       gradientTransform="matrix(1.2923203,0,0,-1.2923203,8.1558038,348.49395)"
       x1="49.156662"
       y1="58.761986"
       x2="165.4158"
       y2="165.13622" />
    <linearGradient
       inkscape:collect="always"
       xlink:href="#linearGradient3784-189-732-961"
       id="linearGradient3072"
       gradientUnits="userSpaceOnUse"
       gradientTransform="matrix(1.8399676,0,0,-1.8398909,-13.346215,477.38114)"
       x1="49.156662"
       y1="58.761986"
       x2="165.4158"
       y2="165.13622" />
    <linearGradient
       inkscape:collect="always"
       xlink:href="#linearGradient14555-699"
       id="linearGradient3074"
       gradientUnits="userSpaceOnUse"
       gradientTransform="matrix(0.98947063,-0.14473382,0.14473382,0.98947063,-32.288106,26.187326)"
       x1="164.36034"
       y1="232.187"
       x2="175.916"
       y2="252.95729" />
    <linearGradient
       inkscape:collect="always"
       xlink:href="#linearGradient14394-5-612"
       id="linearGradient3076"
       gradientUnits="userSpaceOnUse"
       gradientTransform="matrix(-0.91331112,-0.40726257,-0.40726257,0.91331112,409.17404,87.096236)"
       x1="162.60649"
       y1="229.01163"
       x2="178.71741"
       y2="245.77814" />
    <linearGradient
       inkscape:collect="always"
       xlink:href="#linearGradient3906"
       id="linearGradient3912"
       x1="-188.63554"
       y1="285.69363"
       x2="85.456345"
       y2="285.69363"
       gradientUnits="userSpaceOnUse" />
    <linearGradient
       inkscape:collect="always"
       xlink:href="#linearGradient3906"
       id="linearGradient3957"
       gradientUnits="userSpaceOnUse"
       x1="-188.63554"
       y1="285.69363"
       x2="85.456345"
       y2="285.69363" />
    <linearGradient
       inkscape:collect="always"
       xlink:href="#linearGradient3784-189-732-961"
       id="linearGradient3959"
       gradientUnits="userSpaceOnUse"
       gradientTransform="matrix(1.8399676,0,0,-1.8398909,-13.346215,477.38114)"
       x1="49.156662"
       y1="58.761986"
       x2="165.4158"
       y2="165.13622" />
    <linearGradient
       inkscape:collect="always"
       xlink:href="#linearGradient14555-699"
       id="linearGradient3961"
       gradientUnits="userSpaceOnUse"
       gradientTransform="matrix(0.98947063,-0.14473382,0.14473382,0.98947063,-32.288106,26.187326)"
       x1="164.36034"
       y1="232.187"
       x2="175.916"
       y2="252.95729" />
    <linearGradient
       inkscape:collect="always"
       xlink:href="#linearGradient14394-5-612"
       id="linearGradient3963"
       gradientUnits="userSpaceOnUse"
       gradientTransform="matrix(-0.91331112,-0.40726257,-0.40726257,0.91331112,409.17404,87.096236)"
       x1="162.60649"
       y1="229.01163"
       x2="178.71741"
       y2="245.77814" />
    <linearGradient
       inkscape:collect="always"
       xlink:href="#linearGradient3906"
       id="linearGradient3987"
       gradientUnits="userSpaceOnUse"
       x1="-188.63554"
       y1="285.69363"
       x2="85.456345"
       y2="285.69363" />
    <linearGradient
       inkscape:collect="always"
       xlink:href="#linearGradient3784-189-732-961"
       id="linearGradient3989"
       gradientUnits="userSpaceOnUse"
       gradientTransform="matrix(1.8399676,0,0,-1.8398909,-13.346215,477.38114)"
       x1="49.156662"
       y1="58.761986"
       x2="165.4158"
       y2="165.13622" />
    <linearGradient
       inkscape:collect="always"
       xlink:href="#linearGradient14555-699"
       id="linearGradient3991"
       gradientUnits="userSpaceOnUse"
       gradientTransform="matrix(0.98947063,-0.14473382,0.14473382,0.98947063,-32.288106,26.187326)"
       x1="164.36034"
       y1="232.187"
       x2="175.916"
       y2="252.95729" />
    <linearGradient
       inkscape:collect="always"
       xlink:href="#linearGradient14394-5-612"
       id="linearGradient3993"
       gradientUnits="userSpaceOnUse"
       gradientTransform="matrix(-0.91331112,-0.40726257,-0.40726257,0.91331112,409.17404,87.096236)"
       x1="162.60649"
       y1="229.01163"
       x2="178.71741"
       y2="245.77814" />
    <linearGradient
       inkscape:collect="always"
       xlink:href="#linearGradient3906"
       id="linearGradient3086"
       gradientUnits="userSpaceOnUse"
       x1="-188.63554"
       y1="285.69363"
       x2="85.456345"
       y2="285.69363" />
    <linearGradient
       inkscape:collect="always"
       xlink:href="#linearGradient3784-189-732-961"
       id="linearGradient3088"
       gradientUnits="userSpaceOnUse"
       gradientTransform="matrix(1.8399676,0,0,-1.8398909,-13.346215,477.38114)"
       x1="49.156662"
       y1="58.761986"
       x2="165.4158"
       y2="165.13622" />
    <linearGradient
       inkscape:collect="always"
       xlink:href="#linearGradient14555-699"
       id="linearGradient3090"
       gradientUnits="userSpaceOnUse"
       gradientTransform="matrix(0.98947063,-0.14473382,0.14473382,0.98947063,-32.288106,26.187326)"
       x1="164.36034"
       y1="232.187"
       x2="175.916"
       y2="252.95729" />
    <linearGradient
       inkscape:collect="always"
       xlink:href="#linearGradient14394-5-612"
       id="linearGradient3092"
       gradientUnits="userSpaceOnUse"
       gradientTransform="matrix(-0.91331112,-0.40726257,-0.40726257,0.91331112,409.17404,87.096236)"
       x1="162.60649"
       y1="229.01163"
       x2="178.71741"
       y2="245.77814" />
    <linearGradient
       inkscape:collect="always"
       xlink:href="#linearGradient3906"
       id="linearGradient3116"
       gradientUnits="userSpaceOnUse"
       x1="-188.63554"
       y1="285.69363"
       x2="85.456345"
       y2="285.69363" />
    <linearGradient
       inkscape:collect="always"
       xlink:href="#linearGradient3784-189-732-961"
       id="linearGradient3118"
       gradientUnits="userSpaceOnUse"
       gradientTransform="matrix(1.8399676,0,0,-1.8398909,-13.346215,477.38114)"
       x1="49.156662"
       y1="58.761986"
       x2="165.4158"
       y2="165.13622" />
    <linearGradient
       inkscape:collect="always"
       xlink:href="#linearGradient14555-699"
       id="linearGradient3120"
       gradientUnits="userSpaceOnUse"
       gradientTransform="matrix(0.98947063,-0.14473382,0.14473382,0.98947063,-32.288106,26.187326)"
       x1="164.36034"
       y1="232.187"
       x2="175.916"
       y2="252.95729" />
    <linearGradient
       inkscape:collect="always"
       xlink:href="#linearGradient14394-5-612"
       id="linearGradient3122"
       gradientUnits="userSpaceOnUse"
       gradientTransform="matrix(-0.91331112,-0.40726257,-0.40726257,0.91331112,409.17404,87.096236)"
       x1="162.60649"
       y1="229.01163"
       x2="178.71741"
       y2="245.77814" />
  </defs>
  <metadata
     id="metadata17058">
    <rdf:RDF>
      <cc:Work
         rdf:about="">
        <dc:format>image/svg+xml</dc:format>
        <dc:type
           rdf:resource="http://purl.org/dc/dcmitype/StillImage" />
        <dc:title />
      </cc:Work>
    </rdf:RDF>
  </metadata>
  <g
     id="g3094"
     transform="matrix(1,0,0,1.0000124,-9.9869835e-7,-130.30555)">
    <g
       transform="matrix(1.2629247,0,0,-1.2628717,16.336607,133.76116)"
       id="g7658"
       style="fill:#141414;fill-opacity:1">
      <path
         d="M 0,0 3.824,-4.363 C 4.032,-4.613 4.244,-4.7 4.578,-4.7 l 8.023,0 c 0.338,0 0.547,0.087 0.755,0.337 L 17.18,0 c 0.334,0.382 0.209,0.758 -0.337,0.758 l -5.414,0 c -0.341,0 -0.553,-0.125 -0.762,-0.376 l -1.635,-2.355 -0.887,0 L 6.51,0.382 C 6.301,0.633 6.091,0.758 5.713,0.758 l -5.375,0 C -0.213,0.758 -0.33,0.382 0,0 m 70.784,-21.919 0,-0.421 c 0,-14.654 2.401,-15.541 19.994,-15.541 17.598,0 19.992,0.887 19.992,15.586 l 0,0.376 c 0,14.654 -2.394,15.538 -19.992,15.538 -17.593,0 -19.994,-0.884 -19.994,-15.538 M 69.002,-36.493 52.285,-20.155 67.99,-7.766 c 0.465,0.335 0.292,0.756 -0.295,0.756 l -10.247,0 c -0.292,0 -0.504,-0.084 -0.755,-0.293 l -16.042,-12.814 0,12.477 c 0,0.417 -0.210091,0.63 -0.630091,0.63 l -7.810909,0 c -0.421,0 -0.633,-0.213 -0.633,-0.63 l 0,-28.978 c 0,-0.421 0.212,-0.63 0.633,-0.63 l 7.812,0 c 0.42,0 0.629,0.209 0.629,0.63 l 0,7.306 4.745,3.74 11.506,-11.342 c 0.254,-0.25 0.463,-0.334 0.796,-0.334 l 11.006,0 c 0.546,0 0.716,0.376 0.298,0.755 m 64.874,29.483 -16.756,0 c -0.418,0 -0.634,-0.213 -0.634,-0.63 l 0,-28.978 c 0,-0.421 0.216,-0.63 0.634,-0.63 l 16.756,0 c 17.936,0 20.286,0.884 20.286,14.995 l 0,0.25 c 0,14.112 -2.35,14.993 -20.286,14.993 m 64.91,-29.483 -14.489,29.02 c -0.127,0.334 -0.38,0.463 -0.714,0.463 l -12.849,0 c -0.342,0 -0.592,-0.129 -0.717,-0.463 l -14.49,-29.02 c -0.213,-0.463 -0.039,-0.755 0.458,-0.755 l 8.361,0 c 0.333,0 0.589,0.125 0.712,0.463 l 2.187,4.283 19.824,0 2.181,-4.283 c 0.13,-0.338 0.379,-0.463 0.718,-0.463 l 8.355,0 c 0.505,0 0.673,0.292 0.463,0.755 m -97.761,14.574 0,-0.421 c 0,-8.485 -0.335,-8.61 -10.247,-8.61 -9.912,0 -10.25,0.125 -10.25,8.61 l 0,0.421 c 0,8.483 0.338,8.608 10.25,8.608 9.912,0 10.247,-0.125 10.247,-8.608 m 43.605,0 0,-0.421 c 0,-7.769 -0.634,-8.022 -10.709,-8.022 l -8.316,0 0,16.466 8.316,0 c 10.075,0 10.709,-0.254 10.709,-8.023 m 39.245,-4.244 -13.439,0 6.175,12.226 1.091,0 z M -9.95,-37.293 c 4.453,-0.205 11.714,-0.414 15.909,-0.414 18.315,0 20.5,0.038 20.5,9.991 0,7.854 -2.307,8.483 -12.01,8.775 l -11.255,0.338 c -5.163,0.17 -5.25,0.713 -5.25,3.023 0,2.394 0.63,2.394 13.019,2.394 2.348,0 9.825,-0.125 13.777,-0.209 0.414,0 0.63,0.209 0.63,0.63 l 0,5.125 c 0,0.417 -0.216,0.63 -0.592,0.668 -3.907,0.215 -10.287,0.424 -14.866,0.424 -17.973,0 -20.868,-0.338 -20.868,-9.616 0,-7.94 1.76,-8.991 13.267,-9.37 l 10.328,-0.334 c 4.833,-0.167 4.92,-0.754 4.92,-2.56 0,-2.481 -0.212,-2.606 -11.638,-2.606 -5.333,0 -10.834,0.209 -15.83,0.379 -0.42,0.042 -0.629,-0.17 -0.629,-0.588 l 0,-5.375 c 0,-0.421 0.209,-0.63 0.588,-0.675"
         id="path7660"
         style="fill:#141414;fill-opacity:1;fill-rule:nonzero;stroke:none"
         inkscape:connector-curvature="0"
         sodipodi:nodetypes="ccssccssccccssccsssssccccssccsssssssscccssccssssssscccssccssccccssccsssssccssccscccccccssccsscsscssccsscssc" />
    </g>
    <g
       transform="matrix(1.2576641,0,0,-1.2575974,-317.13502,445.13551)"
       id="g32">
      <g
         clip-path="url(#clipPath36)"
         id="g34">
        <g
           id="g40">
          <g
             transform="matrix(181.116,0,0,181.116,30.15332,9.3937683)"
             id="g42" />
        </g>
      </g>
    </g>
    <g
       transform="matrix(0.70666668,0,0,0.70665873,0.73333458,131.49587)"
       id="g3942">
      <g
         id="g3935">
        <path
           transform="matrix(-0.00406547,-1.1783894,1.1709548,-0.00403982,-144.74403,226.47407)"
           d="m 84.971104,285.69363 c 0,75.89925 -61.140308,137.42775 -136.5607,137.42775 -75.420394,0 -136.560704,-61.5285 -136.560704,-137.42775 0,-75.89925 61.14031,-137.42775 136.560704,-137.42775 75.420392,0 136.5607,61.5285 136.5607,137.42775 z"
           sodipodi:ry="137.42775"
           sodipodi:rx="136.5607"
           sodipodi:cy="285.69363"
           sodipodi:cx="-51.589596"
           id="path3112"
           style="fill:url(#linearGradient3116);fill-opacity:1;fill-rule:nonzero;stroke:#141414;stroke-width:0.97048271;stroke-linecap:square;stroke-linejoin:miter;stroke-miterlimit:4;stroke-opacity:1;stroke-dasharray:none"
           sodipodi:type="arc" />
        <g
           transform="matrix(1.7797133,0,0,-1.779639,190.00214,430.60606)"
           id="g24"
           style="fill:#141414;fill-opacity:1">
          <path
             d="m 0,0 c -21.688,0 -42.077,8.444 -57.412,23.781 -15.336,15.334 -23.782,35.726 -23.782,57.411 0,21.69 8.446,42.079 23.782,57.413 15.335,15.337 35.724,23.782 57.412,23.782 21.688,0 42.077,-8.445 57.412,-23.782 15.336,-15.334 23.78,-35.723 23.78,-57.413 0,-21.685 -8.444,-42.074 -23.78,-57.411 C 42.077,8.444 21.688,0 0,0"
             id="path26"
             style="fill:#141414;fill-opacity:1;fill-rule:nonzero;stroke:none"
             inkscape:connector-curvature="0" />
        </g>
        <g
           transform="matrix(1.7797133,0,0,-1.779639,190.00214,418.8786)"
           id="g28">
          <path
             d="m 0,0 c -19.928,0 -38.662,7.76 -52.752,21.85 -14.092,14.091 -21.852,32.826 -21.852,52.752 0,19.928 7.76,38.663 21.852,52.754 14.09,14.09 32.824,21.852 52.752,21.852 19.928,0 38.662,-7.762 52.752,-21.852 C 66.844,113.265 74.604,94.53 74.604,74.602 74.604,54.676 66.844,35.941 52.752,21.85 38.662,7.76 19.928,0 0,0"
             id="path30"
             style="fill:#ffffff;fill-opacity:1;fill-rule:nonzero;stroke:none"
             inkscape:connector-curvature="0" />
        </g>
      </g>
      <g
         id="g4188">
        <path
           d="m 290.79413,349.89633 c -9.8161,-9.21259 -22.19136,-15.37377 -35.6726,-17.52577 -1.92312,-0.29783 -3.66514,1.18673 -3.66514,3.13372 0,1.5848 0,3.30282 0,4.89362 0,1.45462 -1.11197,3.10379 -2.57264,3.10379 -1.05808,0 -2.11617,0.0289 -3.18023,0 -3.75943,-0.0587 -4.44337,-4.67664 -3.68909,-7.39583 8.01422,-28.73772 9.97325,-46.16921 9.88047,-58.86123 -0.10024,-13.49116 -0.43851,-26.93143 -6.51914,-44.72509 -5.85763,-17.11722 -11.20644,-33.87679 -39.49638,-59.49276 -1.92311,-1.7315 -3.86419,-2.57253 -6.45328,-2.75961 -2.78216,-0.19318 -5.05698,-0.29193 -7.887,-0.29193 -11.74371,0 -23.07886,1.72401 -33.78991,4.93854 -4.00935,1.2107 -3.40772,3.99872 -1.20326,5.89932 10.67963,9.13625 25.16061,22.86836 35.15179,40.02001 -6.32607,0.61356 -11.16003,-2.90476 -15.22327,-6.79872 -13.35252,-12.70847 -27.25432,-21.76991 -38.29761,-27.97151 -1.92311,-1.07599 -3.8178,-1.52646 -5.72294,-0.43248 -12.17173,7.07853 -20.37302,13.73656 -30.03648,24.94404 -1.64325,1.90506 -0.57917,3.38962 1.02816,4.24265 10.5644,5.60146 27.10765,16.22828 42.27854,30.03071 -3.09194,2.60096 -7.99176,1.74795 -15.09456,-1.9754 -13.65036,-7.17283 -26.77392,-11.30025 -36.789065,-13.87875 -2.144607,-0.54923 -4.443362,0.0524 -5.547843,1.9709 -6.412871,11.14162 -10.83827,24.46965 -12.931247,37.98476 -0.397658,2.59646 1.368627,4.89362 3.957719,5.34408 23.343736,4.08551 64.954806,15.05803 71.866046,62.99314 0.59563,4.19775 -3.22215,7.88668 -8.24919,5.52517 -7.016,-3.28637 -14.0245,-6.56524 -21.03452,-9.8561 -0.73631,-0.33971 -1.57291,-0.63154 -2.37956,-0.63154 -11.28874,0 -21.781306,0 -33.064064,0 -4.700774,0 -6.635857,4.49557 -3.578336,7.99743 7.949864,9.15423 15.241228,19.03278 21.4775,29.50395 0.55074,0.92934 1.1823,1.28551 2.26284,1.28551 4.81152,0 9.62903,0 14.43457,0 0.98176,0 1.82284,-0.22747 2.6714,-0.73031 4.53615,-2.66081 9.0723,-5.31414 13.62042,-7.97346 0.84259,-0.50284 1.68366,-0.49236 2.66692,-0.49236 34.80758,0 72.15187,0 108.80028,0 1.46066,0 2.64296,0.94131 2.64296,2.40342 0,1.78234 0,3.56621 0,5.35455 0,1.94698 1.74202,3.42555 3.66514,3.12774 13.48124,-2.152 25.8565,-8.31318 35.6726,-17.5198 1.56094,-1.45612 1.56094,-3.93436 0,-5.38449"
           id="path22-7"
           style="fill:url(#linearGradient3118);fill-opacity:1;fill-rule:nonzero;stroke:#141414;stroke-width:1.13899279;stroke-miterlimit:4;stroke-opacity:1;stroke-dasharray:none"
           inkscape:connector-curvature="0" />
        <path
           d="m 209.73906,334.22923 c -10.71704,0 -19.39125,-8.67983 -19.39125,-19.37848 0,-10.70911 8.67421,-19.38445 19.39125,-19.38445 10.69162,0 19.37929,8.67534 19.37929,19.38445 0,10.69865 -8.68767,19.37848 -19.37929,19.37848 z m 71.25093,18.34439 c -7.36018,-6.00257 -15.11851,-9.88454 -24.54249,-11.8375 -0.85306,-0.17511 -1.26761,0.15265 -1.26761,1.02959 0,0.16315 0,0.30979 0,0.47292 0,2.31511 -2.31522,5.01035 -4.64242,5.01035 -2.03384,0 -4.09166,0 -6.12102,0 -5.16771,0 -9.78017,-4.25611 -7.86755,-11.09074 22.11504,-78.92361 -2.59658,-127.72373 -33.80188,-155.04128 -8.47666,-7.40627 -9.23693,-7.81632 -17.68514,-7.4946 -6.65831,0.25147 -14.46302,1.07003 -21.06295,2.67132 -1.29754,0.31576 -2.37958,1.34535 -0.66598,2.78354 16.01794,13.49713 37.4311,36.76357 47.67372,72.97793 0.35171,1.25708 -0.3921,1.17028 -1.34991,1.22266 -9.17257,0.5552 -12.26453,-5.06273 -15.13048,-8.63494 -20.79356,-25.87937 -44.10737,-41.62129 -61.55756,-51.96376 -1.73603,-1.0401 -2.0174,-1.02213 -3.33889,-0.24994 -7.01449,4.0511 -14.88952,10.51609 -20.43736,16.39741 -1.15686,1.24511 -0.86503,1.82876 0.41455,2.51267 15.78449,8.45985 39.78822,25.12513 62.09632,53.38397 1.38585,1.74793 1.48012,2.55457 0.69592,3.017 -4.29072,2.55455 -11.45187,2.51865 -19.29697,-2.36752 -21.26798,-13.26517 -42.86969,-22.65884 -59.770635,-27.52854 -1.800393,-0.52527 -2.116173,-0.42052 -2.852493,1.12242 -4.121595,8.66335 -8.611352,19.9232 -10.230659,29.68502 -0.205033,1.27503 -0.315778,1.37381 0.865028,1.61325 46.510879,9.44754 72.029159,34.95877 74.940019,69.06304 0.50884,5.91575 -6.18389,11.61451 -12.84369,9.51039 -7.2315,-2.29715 -14.25199,-4.87567 -21.48947,-7.16684 -0.77674,-0.2574 -1.56094,-0.36815 -2.38557,-0.36815 -9.99568,-0.006 -20.004852,-0.0114 -30.012518,-0.0114 -1.333457,0 -2.116174,0.83656 -0.790197,2.51416 7.553266,9.55231 11.944245,14.96523 17.269095,23.89798 0.54476,0.92934 1.17482,1.28551 2.26883,1.28551 3.67112,0 7.35422,-0.006 11.04331,-0.006 1.46066,0 2.71181,-0.33822 3.98092,-1.08648 4.00485,-2.34505 7.98577,-4.53148 11.99064,-6.88101 1.27359,-0.74826 2.36161,-1.19872 3.83424,-1.19872 36.31614,-0.0114 75.23934,0 111.54801,-0.006 2.31521,0 4.71274,2.7072 4.71274,5.03879 0,0.26338 0,0.53276 0,0.80213 0,0.87547 0.41455,1.20321 1.26761,1.03411 9.42398,-1.95296 17.18231,-6.47696 24.54249,-12.48101 0.66601,-0.54922 0.66601,-1.07599 0,-1.63121"
           id="path24"
           style="fill:#42bd3b;fill-opacity:1;fill-rule:nonzero;stroke:none"
           inkscape:connector-curvature="0" />
        <g
           transform="matrix(1.4237706,0,0,1.4237112,-24.958209,-18.7736)"
           id="g16866">
          <path
             d="m 179.03453,232.78097 c 1.22834,8.39755 -4.58264,16.18987 -12.98021,17.41821 -8.39029,1.22729 -16.18969,-4.57418 -17.41803,-12.97174 -1.22835,-8.39756 4.58142,-16.1982 12.97171,-17.42548 8.39756,-1.22834 16.19818,4.58145 17.42653,12.97901"
             id="path26-4"
             style="fill:url(#linearGradient3120);fill-opacity:1;fill-rule:nonzero;stroke:none"
             inkscape:connector-curvature="0" />
          <path
             d="m 166.29797,219.82787 -4.61824,30.3947 c 6.61599,0.94214 13.32575,-2.5563 16.18492,-8.96818 3.4564,-7.75121 -0.022,-16.82351 -7.76653,-20.27693 -1.24435,-0.55487 -2.51598,-0.94123 -3.80015,-1.14959 z"
             id="path26-4-9"
             style="fill:url(#linearGradient3122);fill-opacity:1;fill-rule:nonzero;stroke:none"
             inkscape:connector-curvature="0" />
        </g>
        <path
           d="m 226.76721,315.24284 c 0,8.08422 -6.56401,14.65546 -14.66653,14.65546 -8.09652,0 -14.65007,-6.57124 -14.65007,-14.65546 0,-8.10217 6.55355,-14.66743 14.65007,-14.66743 8.10252,0 14.66653,6.56526 14.66653,14.66743"
           id="path28"
           style="fill:#ffffff;fill-opacity:1;fill-rule:nonzero;stroke:#141414;stroke-width:1.13899279;stroke-miterlimit:4;stroke-opacity:1;stroke-dasharray:none"
           inkscape:connector-curvature="0" />
      </g>
    </g>
  </g>
</svg>
