<?xml version="1.0" encoding="UTF-8" standalone="no"?>
<!-- Created with Inkscape (http://www.inkscape.org/) -->
<svg
   xmlns:dc="http://purl.org/dc/elements/1.1/"
   xmlns:cc="http://creativecommons.org/ns#"
   xmlns:rdf="http://www.w3.org/1999/02/22-rdf-syntax-ns#"
   xmlns:svg="http://www.w3.org/2000/svg"
   xmlns="http://www.w3.org/2000/svg"
   xmlns:xlink="http://www.w3.org/1999/xlink"
   xmlns:sodipodi="http://sodipodi.sourceforge.net/DTD/sodipodi-0.dtd"
   xmlns:inkscape="http://www.inkscape.org/namespaces/inkscape"
   width="423.51038"
   height="221.81276"
   viewBox="0 0 423.51038 221.81276"
   id="svg2735"
   sodipodi:version="0.32"
   inkscape:version="0.46"
   version="1.0"
   sodipodi:docname="Spyker Car logo.svg"
   inkscape:output_extension="org.inkscape.output.svg.inkscape">
  <defs
     id="defs2737">
    <clipPath
       id="SVGID_2_">
		<use
   xlink:href="#SVGID_1_"
   overflow="visible"
   id="use19"
   style="overflow:visible"
   x="0"
   y="0"
   width="744.09448"
   height="1052.3622" />

	</clipPath>
    <inkscape:perspective
       sodipodi:type="inkscape:persp3d"
       inkscape:vp_x="0 : 526.18109 : 1"
       inkscape:vp_y="0 : 1000 : 0"
       inkscape:vp_z="744.09448 : 526.18109 : 1"
       inkscape:persp3d-origin="372.04724 : 350.78739 : 1"
       id="perspective2743" />
  </defs>
  <sodipodi:namedview
     id="base"
     pagecolor="#ffffff"
     bordercolor="#666666"
     borderopacity="1.0"
     gridtolerance="10000"
     guidetolerance="10"
     objecttolerance="10"
     inkscape:pageopacity="0.0"
     inkscape:pageshadow="2"
     inkscape:zoom="1"
     inkscape:cx="212.5"
     inkscape:cy="263.48414"
     inkscape:document-units="px"
     inkscape:current-layer="layer1"
     showgrid="false"
     inkscape:window-width="1280"
     inkscape:window-height="750"
     inkscape:window-x="-8"
     inkscape:window-y="-8" />
  <metadata
     id="metadata2740">
    <rdf:RDF>
      <cc:Work
         rdf:about="">
        <dc:format>image/svg+xml</dc:format>
        <dc:type
           rdf:resource="http://purl.org/dc/dcmitype/StillImage" />
      </cc:Work>
    </rdf:RDF>
  </metadata>
  <g
     inkscape:label="Layer 1"
     inkscape:groupmode="layer"
     id="layer1"
     transform="translate(-111.75865,-490.03575)">
    <text
       transform="scale(0.9998001,1.0002)"
       font-size="8.9962"
       id="text11"
       x="578.28992"
       y="459.91217"
       style="font-size:21.19684029px;fill:#8f817d;font-family:Helvetica"></text>
    <g
       transform="matrix(2.3557284,0,0,2.3557284,93.047047,405.69112)"
       id="g13">
	<defs
   id="defs15">
		<polyline
   id="SVGID_1_"
   points="9.375,36.435 186.375,36.435 186.375,129.375 9.375,129.375   " />

	</defs>

	<clipPath
   id="clipPath2752">
		<use
   xlink:href="#SVGID_1_"
   overflow="visible"
   id="use2754"
   style="overflow:visible"
   x="0"
   y="0"
   width="744.09448"
   height="1052.3622" />

	</clipPath>

	
	
	
	
	
	
	
	
	
	
	
	
	
	
	
	
	
	
	
	
	
	
	
	
	
	
	
	<g
   id="g2817">
  <path
     style="fill:#000000"
     id="path21"
     d="M 65.636,64.3 C 66.121,64.599 66.591,64.735 67.046,64.711 C 67.898,64.656 68.716,64.071 69.5,62.959 C 69.851,62.461 70.11,61.964 70.277,61.467 C 70.601,60.509 70.464,59.818 69.864,59.392 C 69.415,59.073 68.978,59.016 68.553,59.22 C 68.131,59.431 67.596,59.854 66.948,60.484 L 65.759,61.651 C 64.984,62.414 64.367,62.905 63.91,63.126 C 63.126,63.512 62.389,63.461 61.702,62.973 C 60.963,62.449 60.574,61.707 60.536,60.748 C 60.498,59.79 60.881,58.742 61.682,57.604 C 62.42,56.557 63.254,55.815 64.184,55.377 C 65.115,54.939 66.036,55.044 66.948,55.691 L 66.025,57.003 C 65.545,56.762 65.11,56.667 64.721,56.717 C 64.012,56.82 63.315,57.357 62.633,58.325 C 62.082,59.108 61.824,59.769 61.859,60.307 C 61.896,60.846 62.094,61.243 62.457,61.501 C 62.862,61.788 63.299,61.795 63.771,61.521 C 64.075,61.337 64.647,60.842 65.489,60.034 L 66.728,58.825 C 67.327,58.243 67.867,57.849 68.348,57.643 C 69.174,57.285 69.953,57.365 70.685,57.884 C 71.594,58.529 71.959,59.394 71.783,60.479 C 71.606,61.562 71.142,62.639 70.39,63.706 C 69.513,64.951 68.566,65.74 67.549,66.074 C 66.536,66.412 65.59,66.259 64.711,65.613 L 65.636,64.3"
     clip-path="url(#SVGID_2_)" />
  <polyline
     style="fill:#000000"
     id="polyline23"
     points="84.1,41.079 86.006,40.688 90.516,44.729 93.081,39.24 94.987,38.85    91.585,45.714 92.395,49.703 90.727,50.045 89.917,46.055 84.1,41.079  "
     clip-path="url(#SVGID_2_)" />
  <polyline
     style="fill:#000000"
     id="polyline25"
     points="102.004,39.15 103.67,39.502 102.658,44.331 109.748,40.785    112.07,41.274 106.03,44.172 109.898,51.142 107.821,50.747 104.623,44.849 102.319,45.954 101.596,49.399 99.931,49.048    102.004,39.15  "
     clip-path="url(#SVGID_2_)" />
  <polyline
     style="fill:#000000"
     id="polyline27"
     points="118.125,43.897 125.793,49.043 125.131,50.038 118.877,45.84    117.156,48.426 122.929,52.3 122.266,53.293 116.493,49.42 114.602,52.26 120.941,56.514 120.279,57.509 112.525,52.306    118.125,43.897  "
     clip-path="url(#SVGID_2_)" />
  <path
     style="fill:#000000"
     id="path29"
     d="M 76.864,45.329 C 76.481,45.445 76.032,45.704 75.517,46.104 L 72.855,48.17 L 74.979,50.927 L 77.641,48.861 C 78.241,48.395 78.649,47.914 78.865,47.417 C 79.081,46.921 78.989,46.414 78.589,45.894 C 78.138,45.308 77.562,45.119 76.864,45.329 M 70.78,48.27 L 75.23,44.815 C 76.109,44.132 76.977,43.782 77.834,43.761 C 78.691,43.742 79.4,44.097 79.963,44.827 C 80.448,45.457 80.627,46.195 80.498,47.037 C 80.37,47.882 79.809,48.69 78.814,49.461 L 75.709,51.873 L 78.292,55.223 L 76.945,56.269 L 70.78,48.27 z"
     clip-path="url(#SVGID_2_)" />
  <path
     style="fill:#000000"
     id="path31"
     d="M 131.043,61.784 L 128.532,58.184 L 131.391,56.175 L 133.868,59.726 C 133.868,59.726 135.221,61.838 133.813,62.7 C 132.404,63.562 131.043,61.784 131.043,61.784 M 130.509,62.883 C 130.491,62.483 132.533,65.485 134.695,63.966 C 136.856,62.445 135.12,59.645 135.12,59.645 L 131.423,54.344 L 123.083,60.206 L 123.93,61.42 L 127.66,58.797 C 127.66,58.797 128.356,59.795 129.166,60.957 C 130.171,62.398 128.086,67.378 128.086,67.378 L 129.102,68.837 C 129.103,68.837 130.652,65.886 130.509,62.883 z"
     clip-path="url(#SVGID_2_)" />
  <polyline
     style="fill:#000000"
     id="polyline33"
     points="57.479,94.584 57.482,94.6 64.355,92.817 64.483,93.313    56.479,95.391 56.324,94.786 62.627,90.881 62.623,90.866 55.772,92.644 55.644,92.146 63.647,90.069 63.807,90.689 57.479,94.584     "
     clip-path="url(#SVGID_2_)" />
  <path
     style="fill:#000000"
     id="path35"
     d="M 64.848,94.387 L 65.039,94.864 L 59.478,97.116 C 58.395,97.555 57.852,97.979 58.185,98.808 C 58.53,99.665 59.332,99.562 60.365,99.144 L 65.865,96.916 L 66.056,97.392 L 60.72,99.553 C 59.228,100.158 58.076,100.249 57.598,99.062 C 57.174,98.006 57.805,97.239 59.205,96.672 L 64.848,94.387"
     clip-path="url(#SVGID_2_)" />
  <polyline
     style="fill:#000000"
     id="polyline37"
     points="59.419,102.649 66.596,98.53 66.85,98.976 60.228,102.777    61.314,104.684 60.76,105.002 59.419,102.649  "
     clip-path="url(#SVGID_2_)" />
  <polyline
     style="fill:#000000"
     id="polyline39"
     points="61.742,106.562 68.527,101.82 68.819,102.242 62.559,106.617    63.81,108.419 63.285,108.786 61.742,106.562  "
     clip-path="url(#SVGID_2_)" />
  <path
     style="fill:#000000"
     id="path41"
     d="M 68.328,109.857 L 70.956,106.504 L 70.946,106.492 L 67.29,108.668 L 68.328,109.857 M 71.828,106.126 L 66.654,112.791 L 66.312,112.399 L 67.92,110.363 L 66.737,109.008 L 64.506,110.33 L 64.179,109.955 L 71.439,105.681 L 71.828,106.126 z"
     clip-path="url(#SVGID_2_)" />
  <polyline
     style="fill:#000000"
     id="polyline43"
     points="75.56,111.001 76.061,110.301 78.649,112.17 78.148,112.871    77.061,112.086 72.734,118.121 72.319,117.821 76.646,111.786 75.56,111.001  "
     clip-path="url(#SVGID_2_)" />
  <polyline
     style="fill:#000000"
     id="polyline45"
     points="75.479,119.981 79.569,112.77 82.088,114.202 81.681,114.925    79.609,113.748 78.225,116.177 80.127,117.258 79.773,117.905 77.871,116.825 76.317,119.576 78.424,120.773 78.031,121.433    75.479,119.981  "
     clip-path="url(#SVGID_2_)" />
  <polyline
     style="fill:#000000"
     id="polyline47"
     points="82.765,122.27 82.78,122.277 85.539,115.71 86.01,115.91    82.797,123.556 82.224,123.313 82.958,115.915 82.943,115.908 80.193,122.453 79.722,122.254 82.934,114.607 83.522,114.856    82.765,122.27  "
     clip-path="url(#SVGID_2_)" />
  <path
     style="fill:#000000"
     id="path49"
     d="M 87.505,121.688 L 87.915,117.442 L 87.901,117.437 L 85.992,121.25 L 87.505,121.688 M 88.447,116.651 L 87.672,125.065 L 87.173,124.921 L 87.433,122.336 L 85.709,121.836 L 84.54,124.158 L 84.063,124.019 L 87.879,116.488 L 88.447,116.651 z"
     clip-path="url(#SVGID_2_)" />
  <path
     style="fill:#000000"
     id="path51"
     d="M 92.979,123.161 C 92.773,124.562 92.01,126.051 90.844,125.857 C 89.158,125.577 89.615,122.794 89.901,121.058 C 90.178,119.377 90.724,117.022 92.271,117.278 C 93.32,117.452 93.656,118.708 93.435,120.095 L 92.93,120.012 C 93.044,119.032 92.936,118.038 92.151,117.908 C 90.923,117.705 90.561,120.201 90.38,121.304 C 90.173,122.559 89.72,125.019 91.003,125.232 C 91.873,125.376 92.286,124.076 92.474,123.076 L 92.979,123.161"
     clip-path="url(#SVGID_2_)" />
  <polyline
     style="fill:#000000"
     id="polyline53"
     points="94.306,126.106 94.69,117.816 95.202,117.84 94.817,126.13    94.306,126.106  "
     clip-path="url(#SVGID_2_)" />
  <polyline
     style="fill:#000000"
     id="polyline55"
     points="100.793,126.144 99.967,117.887 100.477,117.835 101.302,126.093    100.793,126.144  "
     clip-path="url(#SVGID_2_)" />
  <polyline
     style="fill:#000000"
     id="polyline57"
     points="105.438,124.395 105.453,124.391 104.281,117.364 104.786,117.279    106.151,125.464 105.539,125.567 102.211,118.924 102.195,118.926 103.364,125.932 102.859,126.017 101.493,117.832    102.122,117.726 105.438,124.395  "
     clip-path="url(#SVGID_2_)" />
  <polyline
     style="fill:#000000"
     id="polyline59"
     points="105.85,117.135 106.364,116.981 109.73,123.651 109.746,123.646    108.943,116.207 109.418,116.064 110.284,124.465 109.735,124.631 105.85,117.135  "
     clip-path="url(#SVGID_2_)" />
  <polyline
     style="fill:#000000"
     id="polyline61"
     points="113.675,123.271 110.436,115.638 110.906,115.437 114.146,123.071    113.675,123.271  "
     clip-path="url(#SVGID_2_)" />
  <path
     style="fill:#000000"
     id="path63"
     d="M 116.343,118.506 L 113.757,115.119 L 113.742,115.128 L 114.937,119.221 L 116.343,118.506 M 113.607,114.179 L 118.76,120.861 L 118.297,121.096 L 116.731,119.029 L 115.13,119.845 L 115.854,122.342 L 115.411,122.568 L 113.081,114.448 L 113.607,114.179 z"
     clip-path="url(#SVGID_2_)" />
  <path
     style="fill:#000000"
     id="path65"
     d="M 125.339,110.125 C 126.303,109.847 127.019,109.635 128.107,110.672 C 129.138,111.654 129.337,112.761 128.627,113.512 C 127.883,114.297 126.718,113.969 125.671,112.938 L 126.018,112.571 C 126.765,113.293 127.6,113.665 128.158,113.075 C 128.651,112.554 128.513,111.768 127.77,111.059 C 126.868,110.198 126.28,110.53 125.541,110.764 C 124.674,111.037 123.924,111.107 122.964,110.192 C 121.991,109.262 121.707,108.196 122.369,107.497 C 123.004,106.827 124.068,107.004 124.995,107.92 L 124.654,108.281 C 124.012,107.625 123.283,107.463 122.827,107.944 C 122.365,108.431 122.63,109.165 123.285,109.789 C 123.877,110.354 124.238,110.437 124.833,110.275 L 125.339,110.125"
     clip-path="url(#SVGID_2_)" />
  <polyline
     style="fill:#000000"
     id="polyline67"
     points="125.041,106.318 124.403,105.835 126.331,103.286 126.968,103.767    126.159,104.837 132.109,109.37 131.8,109.779 125.85,105.246 125.041,106.318  "
     clip-path="url(#SVGID_2_)" />
  <polyline
     style="fill:#000000"
     id="polyline69"
     points="128.911,99.174 129.129,98.684 136.361,100.469 136.368,100.455    130.226,96.215 130.428,95.76 137.339,100.578 137.105,101.105 128.911,99.174  "
     clip-path="url(#SVGID_2_)" />
  <polyline
     style="fill:#000000"
     id="polyline71"
     points="138.694,97.206 130.792,94.768 130.942,94.277 138.844,96.715    138.694,97.206  "
     clip-path="url(#SVGID_2_)" />
  <path
     style="fill:#000000"
     id="path73"
     d="M 136.66,92.125 L 132.417,91.876 L 132.414,91.892 L 136.282,93.66 L 136.66,92.125 M 131.609,91.375 L 140.014,91.827 L 139.89,92.334 L 137.307,92.172 L 136.875,93.922 L 139.231,95.005 L 139.112,95.488 L 131.468,91.95 L 131.609,91.375 z"
     clip-path="url(#SVGID_2_)" />
  <polyline
     style="fill:#000000"
     id="polyline75"
     points="123.67,117.662 118.542,111.153 120.807,109.344 121.323,109.994    119.459,111.483 121.185,113.68 122.895,112.314 123.361,112.887 121.651,114.252 123.609,116.729 125.504,115.216    125.967,115.828 123.67,117.662  "
     clip-path="url(#SVGID_2_)" />
</g>

	<path
   clip-path="url(#SVGID_2_)"
   d="M 101.637,78.6 C 101.637,78.6 106.112,81.49 111.712,80.75"
   id="path77"
   style="fill:none;stroke:#000000;stroke-width:0.98989999;stroke-opacity:1" />

	<path
   clip-path="url(#SVGID_2_)"
   d="M 94.148,87.19 C 94.148,87.19 89.709,84.314 84.108,85.056"
   id="path79"
   style="fill:none;stroke:#000000;stroke-width:0.98989999;stroke-opacity:1" />

	<path
   clip-path="url(#SVGID_2_)"
   d="M 70.211,72.838 C 69.949,74.07 71.395,75.554 72.697,75.75 C 75.011,76.096 86.13,77.76 86.13,77.76 C 86.13,77.76 89.893,77.76 92.484,76.236 C 95.095,74.698 96.142,74.551 97.285,74.551 C 99.334,74.551 100.619,74.816 102.43,76.028 C 103.836,76.968 106.125,77.76 108.3,77.83 C 110.31,77.894 123.784,75.81 123.784,75.81 C 123.784,75.81 126.464,74.441 125.329,71.977 C 124.149,69.421 117.239,53.635 98.058,53.498 C 77.939,53.355 70.627,70.878 70.211,72.838 z"
   id="path81"
   style="fill:none;stroke:#000000;stroke-width:1.42299998;stroke-opacity:1" />

	<polyline
   clip-path="url(#SVGID_2_)"
   points="76.285,76.214 70.211,72.838    90.612,76.714 83.957,56.856 97.341,74.438  "
   id="polyline83"
   style="fill:none;stroke:#000000;stroke-width:0.69599998;stroke-opacity:1" />

	<polyline
   clip-path="url(#SVGID_2_)"
   points="96.307,74.512 104.944,54.383    103.329,76.417  "
   id="polyline85"
   style="fill:none;stroke:#000000;stroke-width:0.69599998;stroke-opacity:1" />

	<polyline
   clip-path="url(#SVGID_2_)"
   points="102.073,75.749 122.372,66.566    110.693,77.648  "
   id="polyline87"
   style="fill:none;stroke:#000000;stroke-width:0.69599998;stroke-opacity:1" />

	<polyline
   clip-path="url(#SVGID_2_)"
   points="84.946,77.491 73.433,66.504    93.284,75.673  "
   id="polyline89"
   style="fill:none;stroke:#000000;stroke-width:0.69599998;stroke-opacity:1" />

	<polyline
   clip-path="url(#SVGID_2_)"
   points="92.33,75.992 90.785,54.388    99.443,74.578  "
   id="polyline91"
   style="fill:none;stroke:#000000;stroke-width:0.69599998;stroke-opacity:1" />

	<polyline
   clip-path="url(#SVGID_2_)"
   points="98.557,74.235 111.784,56.851    105.034,76.973  "
   id="polyline93"
   style="fill:none;stroke:#000000;stroke-width:0.69599998;stroke-opacity:1" />

	<polyline
   clip-path="url(#SVGID_2_)"
   points="104.36,76.889 125.338,72.949    119.349,76.481  "
   id="polyline95"
   style="fill:none;stroke:#000000;stroke-width:0.69599998;stroke-opacity:1" />

	<polyline
   clip-path="url(#SVGID_2_)"
   points="88.42,77.178 78.149,61.117    95.33,74.806  "
   id="polyline97"
   style="fill:none;stroke:#000000;stroke-width:0.69599998;stroke-opacity:1" />

	<polyline
   clip-path="url(#SVGID_2_)"
   points="94.239,74.988 97.898,53.454    101.42,75.17  "
   id="polyline99"
   style="fill:none;stroke:#000000;stroke-width:0.69599998;stroke-opacity:1" />

	<polyline
   clip-path="url(#SVGID_2_)"
   points="100.602,74.806 117.692,60.936    107.057,77.635  "
   id="polyline101"
   style="fill:none;stroke:#000000;stroke-width:0.69599998;stroke-opacity:1" />

	<path
   clip-path="url(#SVGID_2_)"
   d="M 70.17,93.181 C 69.907,91.946 71.356,90.46 72.66,90.264 C 74.977,89.917 86.112,88.25 86.112,88.25 C 86.112,88.25 89.881,88.25 92.475,89.777 C 95.091,91.317 96.14,91.464 97.283,91.464 C 99.336,91.464 100.623,91.198 102.436,89.986 C 103.846,89.043 106.138,88.25 108.315,88.18 C 110.327,88.117 123.821,90.205 123.821,90.205 C 123.821,90.205 126.507,91.574 125.369,94.043 C 124.188,96.604 117.266,112.413 98.056,112.55 C 77.911,112.693 70.587,95.143 70.17,93.181 z"
   id="path103"
   style="fill:none;stroke:#000000;stroke-width:1.42299998;stroke-opacity:1" />

	<polyline
   clip-path="url(#SVGID_2_)"
   points="76.254,89.8 70.17,93.181    90.602,89.299 83.936,109.186 97.339,91.579  "
   id="polyline105"
   style="fill:none;stroke:#000000;stroke-width:0.69599998;stroke-opacity:1" />

	<polyline
   clip-path="url(#SVGID_2_)"
   points="96.306,91.504 104.955,111.664    103.338,89.596  "
   id="polyline107"
   style="fill:none;stroke:#000000;stroke-width:0.69599998;stroke-opacity:1" />

	<polyline
   clip-path="url(#SVGID_2_)"
   points="102.079,90.266 122.409,99.463    110.712,88.364  "
   id="polyline109"
   style="fill:none;stroke:#000000;stroke-width:0.69599998;stroke-opacity:1" />

	<polyline
   clip-path="url(#SVGID_2_)"
   points="84.927,88.52 73.396,99.524    93.278,90.342  "
   id="polyline111"
   style="fill:none;stroke:#000000;stroke-width:0.69599998;stroke-opacity:1" />

	<polyline
   clip-path="url(#SVGID_2_)"
   points="92.322,90.022 90.774,111.659    99.445,91.439  "
   id="polyline113"
   style="fill:none;stroke:#000000;stroke-width:0.69599998;stroke-opacity:1" />

	<polyline
   clip-path="url(#SVGID_2_)"
   points="98.558,91.782 111.804,109.191    105.044,89.039  "
   id="polyline115"
   style="fill:none;stroke:#000000;stroke-width:0.69599998;stroke-opacity:1" />

	<polyline
   clip-path="url(#SVGID_2_)"
   points="104.37,89.124 125.379,93.069    119.382,89.532  "
   id="polyline117"
   style="fill:none;stroke:#000000;stroke-width:0.69599998;stroke-opacity:1" />

	<polyline
   clip-path="url(#SVGID_2_)"
   points="88.407,88.833 78.119,104.918    95.326,91.209  "
   id="polyline119"
   style="fill:none;stroke:#000000;stroke-width:0.69599998;stroke-opacity:1" />

	<polyline
   clip-path="url(#SVGID_2_)"
   points="94.234,91.027 97.899,112.595    101.426,90.844  "
   id="polyline121"
   style="fill:none;stroke:#000000;stroke-width:0.69599998;stroke-opacity:1" />

	<polyline
   clip-path="url(#SVGID_2_)"
   points="100.607,91.209 117.722,105.102    107.07,88.376  "
   id="polyline123"
   style="fill:none;stroke:#000000;stroke-width:0.69599998;stroke-opacity:1" />

	
		<ellipse
   clip-path="url(#SVGID_2_)"
   cx="97.876999"
   cy="82.883003"
   rx="5.6900001"
   ry="5.7129998"
   id="ellipse125"
   sodipodi:cx="97.876999"
   sodipodi:cy="82.883003"
   sodipodi:rx="5.6900001"
   sodipodi:ry="5.7129998"
   style="fill:none;stroke:#000000;stroke-width:0.98989999;stroke-opacity:1" />

	<polyline
   clip-path="url(#SVGID_2_)"
   points="94.678,78.238 101.059,87.544 99.857,88.222 98.356,88.485    97.081,88.447 95.842,88.071 94.979,87.581 100.983,78.125 99.857,77.447 98.732,77.183 97.681,77.183 96.518,77.297    95.541,77.711 94.678,78.238  "
   id="polyline127"
   style="fill:#000000;fill-opacity:1;stroke:none;stroke-opacity:1" />

	<path
   clip-path="url(#SVGID_2_)"
   d="M 142.905,89.897 C 139.542,111.827 120.664,128.619 97.878,128.619 C 74.978,128.619 56.024,111.658 52.801,89.568"
   id="path129"
   style="fill:none;stroke:#000000;stroke-width:0.98989999;stroke-opacity:1" />

	<path
   clip-path="url(#SVGID_2_)"
   d="M 52.859,75.803 C 56.249,53.907 75.113,37.148 97.877,37.148 C 120.731,37.148 139.655,54.04 142.935,76.065"
   id="path131"
   style="fill:none;stroke:#000000;stroke-width:0.98989999;stroke-opacity:1" />

	<path
   clip-path="url(#SVGID_2_)"
   d="M 128.94,87.91 C 126.541,102.963 113.548,114.463 97.877,114.463 C 82.055,114.463 68.961,102.738 66.748,87.471"
   id="path133"
   style="fill:none;stroke:#000000;stroke-width:0.98989999;stroke-opacity:1" />

	<path
   clip-path="url(#SVGID_2_)"
   d="M 66.812,77.875 C 69.203,62.815 82.201,51.304 97.877,51.304 C 113.676,51.304 126.753,62.994 128.996,78.227"
   id="path135"
   style="fill:none;stroke:#000000;stroke-width:0.98989999;stroke-opacity:1" />

	<path
   clip-path="url(#SVGID_2_)"
   d="M 185.426,72.735 C 184.323,69.941 178.849,70.672 177.835,71.068 L 143.089,76.231 L 142.992,76.245 L 129.27,78.222 L 110.731,80.892 C 110.731,80.892 106.881,81.909 104.045,84.715 C 103.005,85.744 101.837,86.985 101.837,86.985 C 101.837,86.985 106.742,84.568 111.024,85.16 C 115.772,85.817 129.151,87.984 129.151,87.984 L 129.168,87.986 L 143.049,89.957 L 148.362,90.711 C 148.362,90.711 165.708,94.035 181.473,79.96 C 184.355,77.386 186.209,74.72 185.426,72.735 z"
   id="path137"
   style="fill:none;stroke:#000000;stroke-width:0.98989999;stroke-opacity:1" />

	<path
   clip-path="url(#SVGID_2_)"
   d="M 66.379,87.61 L 84.935,84.937 C 84.935,84.937 88.785,83.92 91.62,81.114 C 92.662,80.083 93.828,78.844 93.828,78.844 C 93.828,78.844 88.923,81.261 84.641,80.669 C 79.893,80.012 66.514,77.845 66.514,77.845 L 66.398,77.828 L 52.619,75.872 L 47.303,75.118 C 47.303,75.118 29.958,71.794 14.192,85.868 C 11.31,88.442 9.456,91.107 10.239,93.093 C 11.342,95.888 16.816,95.157 17.829,94.762 L 52.562,89.601 L 52.673,89.584 L 66.379,87.61 z"
   id="path139"
   style="fill:none;stroke:#000000;stroke-width:0.98989999;stroke-opacity:1" />

</g>
  </g>
</svg>
