<?xml version="1.0" encoding="UTF-8" ?>
<!DOCTYPE svg PUBLIC "-//W3C//DTD SVG 1.1//EN" "http://www.w3.org/Graphics/SVG/1.1/DTD/svg11.dtd">
<svg width="206pt" height="232pt" viewBox="0 0 206 232" version="1.1" xmlns="http://www.w3.org/2000/svg">
<path fill="#fefffb" d=" M 0.00 0.00 L 206.00 0.00 L 206.00 232.00 L 0.00 232.00 L 0.00 0.00 Z" />
<path fill="#fc02a6" d=" M 93.40 22.32 C 103.07 20.71 112.84 22.35 122.45 23.55 C 151.55 29.69 177.67 49.92 189.73 77.28 C 205.00 109.70 199.44 150.81 175.80 177.81 C 157.43 199.85 128.65 212.84 99.94 211.57 C 93.98 211.34 88.05 210.54 82.14 209.75 C 65.07 205.46 48.73 197.30 36.10 184.89 C 19.36 168.78 8.67 146.31 7.37 123.06 C 4.89 89.56 21.88 55.31 50.17 37.15 C 57.17 32.72 64.64 29.03 72.54 26.49 C 79.14 23.68 86.33 22.97 93.40 22.32 Z" />
<path fill="#fefffb" d=" M 95.41 25.62 C 104.43 24.60 113.46 25.80 122.27 27.73 C 130.91 28.84 138.78 32.76 146.53 36.51 C 165.22 46.52 180.25 63.23 187.98 83.00 C 196.39 104.01 196.63 128.24 188.26 149.30 C 180.82 168.90 166.23 185.70 147.87 195.82 C 135.47 203.03 121.30 206.65 107.08 207.75 C 96.61 208.46 86.26 206.34 76.15 203.91 C 63.90 200.03 52.36 193.81 42.66 185.33 C 25.93 171.19 14.87 150.65 11.92 128.97 C 8.93 107.30 14.05 84.55 26.38 66.44 C 39.92 46.04 61.90 31.07 86.19 27.18 C 89.25 26.61 92.31 25.99 95.41 25.62 Z" />
<path fill="#fc02a6" d=" M 84.89 34.56 C 86.33 40.95 86.07 47.54 86.41 54.04 C 87.87 73.34 88.43 92.69 89.97 111.98 C 90.57 118.88 89.27 126.60 94.15 132.29 C 94.14 139.00 92.44 145.72 93.27 152.48 C 94.50 143.67 93.67 134.09 98.12 126.05 C 99.21 123.81 102.21 121.09 104.55 123.42 C 108.17 127.31 108.55 132.97 109.29 137.98 C 110.05 142.80 108.78 147.87 110.47 152.53 C 111.14 145.75 110.64 138.91 109.58 132.19 C 112.01 129.77 114.38 126.99 114.39 123.35 C 117.07 96.94 119.06 70.47 121.80 44.07 C 122.28 41.38 121.53 38.18 123.38 35.94 C 126.79 69.00 130.38 102.05 134.01 135.09 C 134.62 139.44 134.72 144.81 130.54 147.48 C 124.27 151.33 117.77 154.85 111.19 158.17 C 111.72 159.78 112.64 161.29 112.77 163.01 C 112.46 164.99 111.56 166.83 110.89 168.71 C 109.44 167.86 108.00 166.99 106.54 166.15 C 108.04 163.21 108.43 159.53 106.24 156.80 C 104.78 155.15 103.04 152.28 100.44 153.35 C 96.51 156.23 94.05 161.68 96.73 166.23 C 95.52 167.08 94.30 167.91 93.08 168.73 C 92.19 166.52 91.16 164.37 90.16 162.21 C 91.18 160.90 92.14 159.56 93.08 158.19 C 89.12 155.73 85.09 153.38 81.14 150.91 C 77.71 148.84 73.88 146.94 71.60 143.51 C 70.58 140.25 71.04 136.76 71.44 133.43 C 75.20 104.58 79.11 75.75 82.98 46.92 C 83.47 42.78 83.85 38.61 84.89 34.56 Z" />
<path fill="#fc02a6" d=" M 101.58 165.99 C 105.32 173.29 109.49 180.37 112.98 187.79 C 105.98 191.17 97.85 190.63 90.79 187.74 C 93.94 180.28 98.14 173.32 101.58 165.99 Z" />
</svg>
