<?xml version="1.0" encoding="utf-8"?>
<!-- Generator: Adobe Illustrator 13.0.0, SVG Export Plug-In . SVG Version: 6.00 Build 14948)  -->
<!DOCTYPE svg PUBLIC "-//W3C//DTD SVG 1.0//EN" "http://www.w3.org/TR/2001/REC-SVG-20010904/DTD/svg10.dtd">
<svg version="1.0" id="Layer_1" xmlns="http://www.w3.org/2000/svg" xmlns:xlink="http://www.w3.org/1999/xlink" x="0px" y="0px"
	 width="411.689px" height="239.616px" viewBox="0 0 411.689 239.616" enable-background="new 0 0 411.689 239.616"
	 xml:space="preserve">
<path d="M48.282,183.671c4.251,0.545,8.6,1.271,11.133,5.342c2.173,3.078,2.083,7.062,2.263,11.044H48.282
	c0-1.536,0-2.986-0.725-4.163c-2.896-2.174-6.971-1.176-10.684-1.449c-7.454,0.044-14.484-0.179-21.365,0.544
	c-0.813,0.271-1.809,1.269-2.079,2.082c-0.274,1.268-0.274,2.808,0.813,3.711l1.448,1.088c11.768,0.996,23.176,1.179,35.033,2.084
	c3.981,0.54,7.965,2.079,10.231,5.974c3.348,5.885,2.711,15.119-1.54,20.458c-3.167,3.711-7.602,4.345-12.222,4.436
	c-11.226,0.544-23.174,0.727-34.31-0.179c-3.891-0.452-7.513-1.631-10.049-4.981c-2.263-3.62-2.607-8.263-2.694-12.792l13.468,0.118
	c-0.089,2.265-0.089,4.62,2.082,5.793c10.413,0.729,21.906,0.907,32.228-0.179c0.994-0.363,1.722-1.448,1.99-2.444
	c0.275-1.811-0.087-3.529-1.626-4.527l-2.265-0.542l-33.676-1.993c-4.618-0.724-9.869-3.077-11.408-8.058
	c-1.357-4.886-1.537-10.863,1.54-15.027c5.703-7.874,15.844-5.885,24.536-6.698L48.282,183.671z"/>
<path d="M81.564,219.042c0.546,1.177,1.54,2.534,2.805,3.17c9.059,0.905,19.827,1.355,28.705-0.454
	c1.446-0.814,2.35-2.353,2.256-4.073v-34.039l13.803-0.009l-0.181,39.108c-0.727,3.892-2.1,7.866-6.736,10.964
	c-2.903,1.81-6.521,1.899-10.053,1.993l-31.684-0.184c-4.345-0.362-8.69-3.892-10.772-7.968l-1.356-4.073l-0.184-39.832h13.216
	L81.564,219.042z"/>
<path d="M349.924,219.137c0.546,1.175,1.446,2.532,2.722,3.166c8.687,1.088,18.646,0.906,27.426,0.183
	c1.269-0.271,2.354-1.357,3.167-2.443l0.365-1.901v-34.4l13.598,0.043v39.386c-0.716,3.803-2.697,7.809-6.5,9.891
	c-2.896,1.81-6.649,2.27-10.182,2.362l-31.684-0.183c-4.345-0.361-8.777-3.52-10.862-7.596c-0.904-2.17-1.45-4.616-1.536-7.24
	v-36.663l13.546,0.043L349.924,219.137z"/>
<g>
	<g>
		<path d="M324.768,210.784l1.87-1.336c5.166-6.059,3.733-13.939,1.109-19.553c-3.782-5.931-8.593-5.842-10.821-6.111l-46.575-0.043
			l-0.114,51.459h13.633l0.052-18.239l0.007-0.094h27.43c5.263,0.574,5.568,3.985,5.652,8.617c0,3.299,0.052,6.952,0.052,9.759
			h13.49C330.556,226.11,332.266,215.397,324.768,210.784z M313.985,204.546l-0.816,0.016l-29.474,0.074l0.052-9.581l29.609,0.183
			c1.171,0.451,2.346,1.265,2.802,2.441C316.426,199.583,317.371,202.944,313.985,204.546z"/>
	</g>
</g>
<g>
	<g>
		<path d="M239.053,183.784l-15.507-0.043l-28.152,51.682h15.573c1.626-2.986,2.961-5.75,4.98-9.052h29.96
			c1.961,3.214,3.212,5.707,4.905,8.827l16.125,0.089L239.053,183.784z M221.464,215.508c2.813-6.25,6.435-12.043,9.333-18.199
			c3.528,5.704,6.153,12.041,9.504,18.015L221.464,215.508z"/>
	</g>
</g>
<g>
	<g>
		<path d="M190.743,207.634c4.891-3.077,4.71-9.688,3.716-14.846c-1.088-4.708-6.156-8.419-10.592-8.961l-47.628-0.077v51.635
			l0.459,0.011h41.917c3.893,0,7.695-0.363,10.953-1.814c3.89-1.898,5.787-5.882,6.521-9.685
			C196.813,217.832,196.354,210.712,190.743,207.634z M149.486,194.961l29.241,0.179c0.994,0.363,2.263,1.179,2.628,2.267
			c0.271,1.447,0.271,3.257-0.907,4.253c-0.904,1.086-2.177,1.267-3.348,1.54h-27.614V194.961z M181.174,222.211
			c-2.177,1.629-5.166,1.538-8.058,1.446c-7.786-0.091-15.663,0.183-23.453-0.181v-9.506l28.883,0.181
			c1.269,0.454,2.628,1.087,3.351,2.444C182.529,218.317,182.529,220.762,181.174,222.211z"/>
	</g>
</g>
<g>
	<path d="M407.212,230.483c2.496,0,4.478,2.026,4.478,4.557c0,2.572-1.981,4.576-4.498,4.576c-2.488,0-4.516-2.004-4.516-4.576
		c0-2.53,2.027-4.557,4.516-4.557H407.212z M407.191,231.192c-2.002,0-3.643,1.721-3.643,3.848c0,2.166,1.641,3.869,3.663,3.869
		c2.027,0.019,3.646-1.703,3.646-3.848c0-2.148-1.619-3.869-3.646-3.869H407.191z M406.34,237.69h-0.803v-5.082
		c0.42-0.059,0.823-0.121,1.432-0.121c0.771,0,1.279,0.163,1.582,0.386c0.303,0.221,0.466,0.568,0.466,1.055
		c0,0.666-0.445,1.072-0.991,1.234v0.038c0.445,0.083,0.748,0.488,0.849,1.237c0.121,0.789,0.243,1.093,0.323,1.253h-0.852
		c-0.122-0.16-0.24-0.625-0.345-1.293c-0.118-0.65-0.441-0.892-1.088-0.892h-0.573V237.69z M406.34,234.876h0.588
		c0.667,0,1.237-0.242,1.237-0.871c0-0.443-0.323-0.89-1.237-0.89c-0.261,0-0.441,0.02-0.588,0.042V234.876z"/>
</g>
<g>
	<path fill="#004489" d="M333.041,78.306c0,37.757-59.238,68.367-132.322,68.367c-73.08,0-132.321-30.61-132.321-68.367
		c0-37.755,59.242-68.363,132.321-68.363C273.803,9.943,333.041,40.551,333.041,78.306z"/>
</g>
<g>
	<path fill="#004489" d="M270.212,58.453c0.452,16.295-41.417,55.675-103.203,55.675c-61.79,0-101.948-11.773-101.948-45.988
		c0-34.216,50.134-59.567,111.883-61.953C253.468,3.23,269.252,24.017,270.212,58.453z"/>
	<path fill="#004489" d="M269.481,58.4c0.449,16.221-41.191,55.367-102.629,55.367c-61.441,0-101.382-11.723-101.382-45.744
		C65.47,34,115.321,8.79,176.722,6.419C252.8,3.483,268.528,24.159,269.481,58.4z"/>
	<path fill="#004589" d="M268.752,58.347c0.446,16.146-40.967,55.059-102.056,55.059c-61.092,0-100.817-11.672-100.817-45.5
		c0-33.83,49.568-58.899,110.62-61.253C252.131,3.735,267.805,24.3,268.752,58.347z"/>
	<path fill="#00468A" d="M268.021,58.294c0.443,16.072-40.741,54.751-101.481,54.751c-60.744,0-100.251-11.621-100.251-45.256
		c0-33.637,49.285-58.565,109.988-60.904C251.463,3.987,267.081,24.442,268.021,58.294z"/>
	<path fill="#00468A" d="M267.292,58.241c0.439,15.998-40.517,54.443-100.908,54.443c-60.395,0-99.686-11.57-99.686-45.012
		c0-33.444,49.002-58.231,109.357-60.554C250.795,4.239,266.357,24.584,267.292,58.241z"/>
	<path fill="#00468A" d="M266.562,58.188c0.438,15.923-40.291,54.135-100.334,54.135c-60.046,0-99.12-11.519-99.12-44.768
		c0-33.25,48.719-57.897,108.726-60.205C250.127,4.491,265.634,24.726,266.562,58.188z"/>
	<path fill="#00478B" d="M265.832,58.135c0.434,15.849-40.066,53.827-99.76,53.827c-59.698,0-98.555-11.468-98.555-44.524
		c0-33.058,48.437-57.564,108.094-59.855C249.458,4.744,264.91,24.867,265.832,58.135z"/>
	<path fill="#00488C" d="M265.102,58.083c0.432,15.774-39.841,53.519-99.186,53.519c-59.35,0-97.989-11.417-97.989-44.28
		c0-32.865,48.153-57.23,107.463-59.505C248.79,4.996,264.187,25.009,265.102,58.083z"/>
	<path fill="#00488C" d="M264.372,58.029c0.428,15.7-39.616,53.21-98.612,53.21c-59,0-97.424-11.367-97.424-44.036
		c0-32.671,47.871-56.896,106.832-59.156C248.122,5.248,263.463,25.15,264.372,58.029z"/>
	<path fill="#00498C" d="M263.642,57.977c0.425,15.625-39.391,52.902-98.038,52.902c-58.652,0-96.858-11.316-96.858-43.792
		c0-32.478,47.587-56.562,106.201-58.806C247.454,5.5,262.739,25.292,263.642,57.977z"/>
	<path fill="#00498C" d="M262.912,57.924c0.422,15.551-39.166,52.594-97.465,52.594c-58.303,0-96.292-11.265-96.292-43.548
		c0-32.285,47.305-56.229,105.569-58.457C246.785,5.752,262.016,25.434,262.912,57.924z"/>
	<path fill="#00498D" d="M262.182,57.871c0.419,15.477-38.939,52.286-96.891,52.286c-57.954,0-95.727-11.214-95.727-43.304
		c0-32.092,47.021-55.895,104.938-58.107C246.117,6.004,261.292,25.576,262.182,57.871z"/>
	<path fill="#004A8D" d="M261.451,57.818c0.417,15.402-38.714,51.978-96.316,51.978c-57.605,0-95.161-11.163-95.161-43.061
		c0-31.899,46.739-55.561,104.307-57.757C245.449,6.257,260.568,25.717,261.451,57.818z"/>
	<path fill="#004A8D" d="M260.722,57.765c0.413,15.328-38.489,51.67-95.743,51.67c-57.257,0-94.595-11.113-94.595-42.817
		c0-31.706,46.456-55.227,103.675-57.407C244.78,6.509,259.845,25.859,260.722,57.765z"/>
	<path fill="#004B8E" d="M259.991,57.712c0.41,15.253-38.264,51.362-95.169,51.362c-56.908,0-94.03-11.062-94.03-42.573
		c0-31.513,46.173-54.893,103.043-57.058C244.112,6.761,259.121,26,259.991,57.712z"/>
	<path fill="#004B8E" d="M259.262,57.659c0.407,15.179-38.039,51.054-94.595,51.054c-56.56,0-93.465-11.011-93.465-42.329
		c0-31.319,45.89-54.559,102.412-56.708C243.444,7.013,258.396,26.142,259.262,57.659z"/>
	<path fill="#004C8E" d="M258.531,57.606c0.404,15.105-37.813,50.746-94.021,50.746c-56.211,0-92.899-10.96-92.899-42.085
		c0-31.126,45.607-54.225,101.781-56.358C242.776,7.265,257.673,26.284,258.531,57.606z"/>
	<path fill="#004D8F" d="M257.802,57.553c0.401,15.03-37.589,50.438-93.447,50.438c-55.862,0-92.333-10.909-92.333-41.841
		c0-30.933,45.324-53.891,101.149-56.009C242.107,7.518,256.949,26.425,257.802,57.553z"/>
	<path fill="#004D90" d="M257.071,57.5c0.398,14.956-37.363,50.129-92.873,50.129c-55.514,0-91.768-10.858-91.768-41.597
		c0-30.74,45.041-53.558,100.518-55.66C241.439,7.77,256.226,26.567,257.071,57.5z"/>
	<path fill="#004E90" d="M256.342,57.447c0.395,14.881-37.139,49.822-92.3,49.822c-55.165,0-91.202-10.808-91.202-41.353
		c0-30.547,44.758-53.224,99.887-55.31C240.771,8.022,255.502,26.709,256.342,57.447z"/>
	<path fill="#004E90" d="M255.611,57.395c0.393,14.807-36.913,49.514-91.726,49.514c-54.816,0-90.636-10.757-90.636-41.109
		c0-30.354,44.475-52.89,99.255-54.96C240.104,8.274,254.778,26.851,255.611,57.395z"/>
	<path fill="#014F90" d="M254.882,57.342c0.389,14.732-36.688,49.205-91.152,49.205c-54.467,0-90.071-10.706-90.071-40.865
		c0-30.161,44.192-52.556,98.624-54.611C239.435,8.526,254.055,26.992,254.882,57.342z"/>
	<path fill="#044F91" d="M254.151,57.289c0.387,14.658-36.463,48.897-90.578,48.897c-54.119,0-89.505-10.655-89.505-40.621
		c0-29.968,43.909-52.222,97.992-54.261C238.767,8.778,253.331,27.134,254.151,57.289z"/>
	<path fill="#085091" d="M253.422,57.236c0.383,14.583-36.238,48.589-90.005,48.589c-53.77,0-88.939-10.604-88.939-40.377
		c0-29.774,43.626-51.888,97.361-53.911C238.099,9.03,252.607,27.275,253.422,57.236z"/>
	<path fill="#0B5092" d="M252.691,57.183c0.38,14.509-36.013,48.281-89.43,48.281c-53.422,0-88.375-10.554-88.375-40.134
		c0-29.582,43.343-51.554,96.73-53.561C237.431,9.283,251.884,27.417,252.691,57.183z"/>
	<path fill="#0E5192" d="M251.962,57.13c0.377,14.435-35.788,47.973-88.856,47.973c-53.073,0-87.809-10.502-87.809-39.889
		c0-29.389,43.061-51.221,96.098-53.212C236.762,9.535,251.16,27.559,251.962,57.13z"/>
	<path fill="#145292" d="M251.231,57.077c0.374,14.36-35.563,47.665-88.282,47.665c-52.724,0-87.243-10.452-87.243-39.646
		c0-29.195,42.777-50.887,95.467-52.862C236.094,9.787,250.437,27.701,251.231,57.077z"/>
	<path fill="#165293" d="M250.501,57.024c0.372,14.286-35.337,47.357-87.708,47.357c-52.375,0-86.678-10.401-86.678-39.402
		c0-29.002,42.495-50.553,94.836-52.512C235.426,10.039,249.713,27.842,250.501,57.024z"/>
	<path fill="#185394" d="M249.771,56.971c0.368,14.212-35.112,47.049-87.135,47.049c-52.027,0-86.112-10.35-86.112-39.158
		c0-28.809,42.211-50.219,94.205-52.163C234.758,10.292,248.989,27.984,249.771,56.971z"/>
	<path fill="#1B5394" d="M249.041,56.918c0.365,14.137-34.886,46.741-86.561,46.741c-51.678,0-85.546-10.299-85.546-38.914
		c0-28.616,41.929-49.885,93.573-51.813C234.089,10.543,248.266,28.125,249.041,56.918z"/>
	<path fill="#1C5494" d="M248.312,56.866c0.362,14.063-34.661,46.433-85.987,46.433c-51.329,0-84.98-10.249-84.98-38.67
		c0-28.423,41.646-49.551,92.941-51.463C233.421,10.796,247.542,28.267,248.312,56.866z"/>
	<path fill="#1E5495" d="M247.581,56.813c0.359,13.988-34.436,46.125-85.413,46.125c-50.98,0-84.415-10.197-84.415-38.426
		c0-28.229,41.363-49.217,92.311-51.114C232.753,11.048,246.818,28.409,247.581,56.813z"/>
	<path fill="#1F5595" d="M246.852,56.76c0.356,13.914-34.211,45.816-84.839,45.816c-50.632,0-83.85-10.146-83.85-38.182
		c0-28.036,41.08-48.883,91.678-50.764C232.084,11.3,246.095,28.55,246.852,56.76z"/>
	<path fill="#225595" d="M246.121,56.707c0.354,13.839-33.985,45.508-84.265,45.508c-50.283,0-83.284-10.096-83.284-37.938
		c0-27.844,40.797-48.55,91.047-50.415C231.416,11.552,245.371,28.692,246.121,56.707z"/>
	<path fill="#235696" d="M245.392,56.654c0.35,13.765-33.761,45.2-83.692,45.2c-49.935,0-82.718-10.044-82.718-37.694
		c0-27.65,40.514-48.216,90.416-50.065C230.748,11.804,244.647,28.834,245.392,56.654z"/>
	<path fill="#255796" d="M244.661,56.601c0.348,13.69-33.535,44.892-83.118,44.892c-49.586,0-82.153-9.994-82.153-37.45
		c0-27.457,40.231-47.882,89.785-49.715C230.08,12.057,243.924,28.976,244.661,56.601z"/>
	<path fill="#285897" d="M243.932,56.548c0.344,13.616-33.311,44.584-82.544,44.584c-49.237,0-81.587-9.943-81.587-37.207
		c0-27.264,39.948-47.548,89.153-49.365C229.411,12.309,243.2,29.117,243.932,56.548z"/>
	<path fill="#295897" d="M243.201,56.495c0.342,13.542-33.085,44.276-81.97,44.276c-48.889,0-81.022-9.893-81.022-36.962
		c0-27.071,39.665-47.214,88.522-49.016C228.743,12.561,242.477,29.259,243.201,56.495z"/>
	<path fill="#2A5998" d="M242.472,56.442c0.338,13.467-32.86,43.968-81.396,43.968c-48.54,0-80.456-9.841-80.456-36.718
		c0-26.878,39.382-46.88,87.891-48.667C228.075,12.813,241.753,29.4,242.472,56.442z"/>
	<path fill="#2C5998" d="M241.741,56.39c0.335,13.393-32.635,43.66-80.822,43.66c-48.191,0-79.891-9.791-79.891-36.475
		c0-26.685,39.099-46.546,87.26-48.316C227.407,13.065,241.029,29.542,241.741,56.39z"/>
	<path fill="#2D5A99" d="M241.012,56.336c0.332,13.318-32.41,43.352-80.249,43.352c-47.842,0-79.325-9.74-79.325-36.23
		c0-26.492,38.816-46.213,86.627-47.967C226.738,13.317,240.306,29.684,241.012,56.336z"/>
	<path fill="#2E5B99" d="M240.281,56.284c0.329,13.244-32.185,43.043-79.674,43.043c-47.494,0-78.76-9.689-78.76-35.986
		c0-26.298,38.533-45.879,85.997-47.618C226.07,13.57,239.582,29.825,240.281,56.284z"/>
	<path fill="#2F5B99" d="M239.551,56.231c0.327,13.169-31.959,42.735-79.1,42.735c-47.145,0-78.194-9.638-78.194-35.743
		c0-26.105,38.25-45.545,85.365-47.268C225.402,13.822,238.858,29.967,239.551,56.231z"/>
	<path fill="#315C9A" d="M238.821,56.178c0.323,13.095-31.734,42.428-78.527,42.428c-46.796,0-77.628-9.587-77.628-35.499
		c0-25.912,37.967-45.211,84.734-46.918C224.734,14.074,238.135,30.109,238.821,56.178z"/>
	<path fill="#325C9A" d="M238.091,56.125c0.32,13.021-31.509,42.119-77.953,42.119c-46.448,0-77.063-9.536-77.063-35.254
		c0-25.719,37.684-44.877,84.102-46.568C224.065,14.326,237.411,30.25,238.091,56.125z"/>
	<path fill="#335D9B" d="M237.361,56.072c0.317,12.947-31.284,41.812-77.379,41.812c-46.099,0-76.497-9.485-76.497-35.011
		c0-25.526,37.401-44.543,83.471-46.219C223.397,14.578,236.688,30.392,237.361,56.072z"/>
	<path fill="#355D9B" d="M236.631,56.019c0.314,12.872-31.059,41.503-76.805,41.503c-45.75,0-75.932-9.435-75.932-34.767
		c0-25.333,37.118-44.21,82.84-45.869C222.729,14.831,235.964,30.534,236.631,56.019z"/>
	<path fill="#375F9C" d="M235.901,55.966c0.312,12.797-30.833,41.195-76.231,41.195c-45.402,0-75.366-9.384-75.366-34.523
		c0-25.14,36.835-43.876,82.208-45.519C222.062,15.083,235.24,30.675,235.901,55.966z"/>
	<path fill="#38609D" d="M235.171,55.913c0.309,12.723-30.607,40.887-75.657,40.887c-45.053,0-74.8-9.333-74.8-34.279
		c0-24.947,36.552-43.542,81.577-45.17C221.393,15.335,234.517,30.817,235.171,55.913z"/>
	<path fill="#3A609D" d="M234.441,55.86c0.305,12.649-30.383,40.579-75.084,40.579c-44.704,0-74.234-9.282-74.234-34.035
		c0-24.753,36.269-43.208,80.945-44.82C220.725,15.587,233.793,30.959,234.441,55.86z"/>
	<path fill="#3B609D" d="M233.711,55.808c0.303,12.574-30.157,40.271-74.509,40.271c-44.356,0-73.669-9.231-73.669-33.792
		c0-24.561,35.986-42.875,80.314-44.47C220.057,15.839,233.069,31.101,233.711,55.808z"/>
	<path fill="#3C619D" d="M232.981,55.754c0.299,12.5-29.933,39.963-73.936,39.963c-44.007,0-73.104-9.181-73.104-33.547
		c0-24.367,35.703-42.541,79.682-44.121C219.388,16.091,232.346,31.242,232.981,55.754z"/>
	<path fill="#3D619D" d="M232.251,55.702c0.297,12.425-29.707,39.655-73.362,39.655c-43.658,0-72.538-9.13-72.538-33.303
		c0-24.174,35.42-42.207,79.051-43.771C218.72,16.344,231.622,31.384,232.251,55.702z"/>
	<path fill="#3E629E" d="M231.521,55.649c0.293,12.351-29.482,39.347-72.789,39.347c-43.31,0-71.972-9.079-71.972-33.06
		c0-23.981,35.137-41.873,78.42-43.421C218.052,16.596,230.898,31.525,231.521,55.649z"/>
	<path fill="#3F639F" d="M230.791,55.596c0.29,12.277-29.257,39.039-72.214,39.039c-42.96,0-71.407-9.028-71.407-32.815
		s34.854-41.539,77.789-43.072C217.384,16.848,230.175,31.667,230.791,55.596z"/>
	<path fill="#40649F" d="M230.061,55.543c0.288,12.202-29.031,38.73-71.64,38.73c-42.612,0-70.841-8.977-70.841-32.571
		c0-23.595,34.571-41.206,77.157-42.723C216.715,17.1,229.451,31.809,230.061,55.543z"/>
	<path fill="#41649F" d="M229.331,55.49c0.284,12.127-28.807,38.422-71.066,38.422c-42.264,0-70.276-8.927-70.276-32.328
		c0-23.402,34.289-40.872,76.526-42.373C216.047,17.352,228.728,31.95,229.331,55.49z"/>
	<path fill="#4365A0" d="M228.601,55.437c0.282,12.054-28.581,38.114-70.492,38.114c-41.915,0-69.71-8.875-69.71-32.083
		c0-23.208,34.005-40.538,75.895-42.023C215.379,17.604,228.003,32.092,228.601,55.437z"/>
	<path fill="#4566A1" d="M227.871,55.384c0.278,11.979-28.356,37.806-69.919,37.806c-41.566,0-69.145-8.825-69.145-31.84
		s33.723-40.204,75.264-41.673C214.711,17.856,227.279,32.234,227.871,55.384z"/>
	<path fill="#4666A1" d="M227.141,55.332c0.275,11.904-28.131,37.498-69.345,37.498c-41.217,0-68.579-8.774-68.579-31.596
		c0-22.823,33.439-39.87,74.631-41.324C214.042,18.109,226.556,32.375,227.141,55.332z"/>
	<path fill="#4767A2" d="M226.411,55.278c0.272,11.83-27.906,37.19-68.771,37.19c-40.869,0-68.014-8.723-68.014-31.352
		c0-22.629,33.157-39.536,74-40.974C213.374,18.361,225.832,32.517,226.411,55.278z"/>
	<path fill="#4868A2" d="M225.681,55.226c0.27,11.755-27.681,36.882-68.197,36.882c-40.52,0-67.448-8.672-67.448-31.108
		s32.874-39.202,73.369-40.624C212.706,18.613,225.108,32.659,225.681,55.226z"/>
	<path fill="#4968A2" d="M224.951,55.173c0.267,11.681-27.456,36.574-67.624,36.574c-40.171,0-66.882-8.622-66.882-30.864
		s32.591-38.868,72.738-40.274C212.038,18.865,224.385,32.8,224.951,55.173z"/>
	<path fill="#4A69A3" d="M224.221,55.12c0.264,11.607-27.23,36.266-67.049,36.266c-39.822,0-66.316-8.571-66.316-30.62
		c0-22.05,32.308-38.535,72.106-39.925C211.369,19.118,223.661,32.942,224.221,55.12z"/>
	<path fill="#4B6AA4" d="M223.491,55.067c0.26,11.532-27.006,35.958-66.476,35.958c-39.474,0-65.751-8.52-65.751-30.376
		c0-21.857,32.025-38.201,71.475-39.575C210.701,19.37,222.938,33.084,223.491,55.067z"/>
	<path fill="#4C6BA4" d="M222.761,55.014c0.258,11.458-26.779,35.649-65.901,35.649c-39.125,0-65.186-8.469-65.186-30.132
		s31.742-37.867,70.843-39.226C210.033,19.622,222.214,33.226,222.761,55.014z"/>
	<path fill="#4D6BA4" d="M222.031,54.961c0.254,11.384-26.555,35.342-65.328,35.342c-38.776,0-64.62-8.418-64.62-29.889
		c0-21.47,31.459-37.533,70.212-38.876C209.365,19.874,221.49,33.367,222.031,54.961z"/>
	<path fill="#4F6CA5" d="M221.301,54.908c0.252,11.309-26.329,35.033-64.754,35.033c-38.428,0-64.054-8.367-64.054-29.644
		c0-21.277,31.176-37.199,69.581-38.526C208.696,20.126,220.767,33.509,221.301,54.908z"/>
	<path fill="#506DA6" d="M220.571,54.855c0.248,11.234-26.104,34.725-64.181,34.725c-38.079,0-63.489-8.316-63.489-29.4
		c0-21.084,30.893-36.865,68.95-38.177C208.028,20.378,220.043,33.65,220.571,54.855z"/>
	<path fill="#516EA6" d="M219.841,54.802c0.245,11.16-25.879,34.417-63.606,34.417c-37.731,0-62.923-8.266-62.923-29.157
		s30.61-36.531,68.318-37.827C207.36,20.63,219.319,33.792,219.841,54.802z"/>
	<path fill="#526EA7" d="M219.11,54.75c0.243,11.086-25.653,34.109-63.032,34.109c-37.382,0-62.358-8.214-62.358-28.913
		c0-20.698,30.327-36.197,67.687-37.477C206.692,20.883,218.596,33.934,219.11,54.75z"/>
	<path fill="#536FA7" d="M218.381,54.697c0.239,11.011-25.429,33.801-62.458,33.801c-37.033,0-61.792-8.164-61.792-28.668
		s30.044-35.864,67.055-37.128C206.023,21.135,217.872,34.075,218.381,54.697z"/>
	<path fill="#546FA7" d="M217.65,54.644c0.237,10.937-25.203,33.493-61.884,33.493c-36.685,0-61.227-8.113-61.227-28.425
		c0-20.312,29.761-35.53,66.424-36.778C205.355,21.387,217.148,34.217,217.65,54.644z"/>
	<path fill="#5570A8" d="M216.921,54.591c0.233,10.862-24.979,33.185-61.311,33.185c-36.335,0-60.661-8.063-60.661-28.181
		s29.479-35.196,65.792-36.428C204.688,21.639,216.425,34.359,216.921,54.591z"/>
	<path fill="#5671A9" d="M216.19,54.538c0.23,10.789-24.753,32.877-60.736,32.877c-35.987,0-60.096-8.011-60.096-27.937
		c0-19.926,29.196-34.862,65.162-36.079C204.019,21.891,215.701,34.5,216.19,54.538z"/>
	<path fill="#5771A9" d="M215.461,54.485c0.228,10.714-24.528,32.569-60.163,32.569c-35.639,0-59.53-7.96-59.53-27.693
		s28.913-34.528,64.53-35.729C203.351,22.144,214.978,34.642,215.461,54.485z"/>
	<path fill="#5872A9" d="M214.73,54.432c0.225,10.639-24.303,32.261-59.589,32.261c-35.29,0-58.964-7.91-58.964-27.449
		s28.63-34.194,63.899-35.379C202.683,22.396,214.254,34.784,214.73,54.432z"/>
	<path fill="#5A74AA" d="M214.001,54.379c0.222,10.565-24.078,31.953-59.016,31.953c-34.941,0-58.398-7.858-58.398-27.205
		c0-19.346,28.347-33.86,63.267-35.03C202.015,22.648,213.53,34.925,214.001,54.379z"/>
	<path fill="#5B74AB" d="M213.271,54.326c0.219,10.491-23.853,31.645-58.441,31.645c-34.592,0-57.833-7.808-57.833-26.961
		c0-19.153,28.063-33.527,62.636-34.681C201.346,22.9,212.807,35.067,213.271,54.326z"/>
	<path fill="#5C75AB" d="M212.541,54.273c0.215,10.416-23.628,31.336-57.868,31.336c-34.244,0-57.268-7.757-57.268-26.717
		S125.187,25.7,159.41,24.562C200.678,23.152,212.083,35.209,212.541,54.273z"/>
	<path fill="#5D76AC" d="M211.811,54.22c0.213,10.342-23.402,31.028-57.293,31.028c-33.895,0-56.702-7.706-56.702-26.473
		s27.498-32.859,61.373-33.981C200.01,23.404,211.359,35.351,211.811,54.22z"/>
	<path fill="#5E76AC" d="M211.081,54.167c0.209,10.267-23.178,30.72-56.72,30.72c-33.546,0-56.136-7.655-56.136-26.229
		c0-18.574,27.215-32.525,60.742-33.631C199.342,23.657,210.636,35.492,211.081,54.167z"/>
	<path fill="#5F77AC" d="M210.351,54.115c0.207,10.192-22.952,30.412-56.146,30.412c-33.197,0-55.57-7.604-55.57-25.985
		s26.932-32.191,60.11-33.282C198.673,23.909,209.912,35.634,210.351,54.115z"/>
	<path fill="#6078AD" d="M209.621,54.062c0.203,10.119-22.727,30.104-55.572,30.104c-32.849,0-55.005-7.554-55.005-25.742
		s26.649-31.857,59.479-32.932C198.005,24.161,209.188,35.775,209.621,54.062z"/>
	<path fill="#6179AE" d="M208.891,54.009c0.2,10.044-22.501,29.796-54.998,29.796c-32.5,0-54.439-7.503-54.439-25.498
		c0-17.994,26.366-31.523,58.847-32.582C197.337,24.413,208.465,35.917,208.891,54.009z"/>
	<path fill="#6279AE" d="M208.161,53.956c0.197,9.969-22.276,29.488-54.425,29.488c-32.151,0-53.874-7.452-53.874-25.254
		c0-17.801,26.083-31.189,58.216-32.232C196.669,24.665,207.741,36.059,208.161,53.956z"/>
	<path fill="#637AAE" d="M207.431,53.903c0.194,9.895-22.051,29.18-53.851,29.18c-31.803,0-53.308-7.401-53.308-25.01
		s25.8-30.856,57.584-31.883C196,24.917,207.018,36.2,207.431,53.903z"/>
	<path fill="#647BAF" d="M206.7,53.85c0.192,9.821-21.825,28.872-53.276,28.872c-31.454,0-52.743-7.35-52.743-24.766
		c0-17.415,25.517-30.522,56.954-31.533C195.332,25.169,206.294,36.342,206.7,53.85z"/>
	<path fill="#667CB0" d="M205.971,53.797c0.188,9.746-21.601,28.563-52.703,28.563c-31.105,0-52.177-7.299-52.177-24.522
		c0-17.222,25.234-30.188,56.322-31.184C194.664,25.422,205.57,36.484,205.971,53.797z"/>
	<path fill="#677DB0" d="M205.24,53.744C205.426,63.416,183.865,82,153.112,82c-30.757,0-51.612-7.249-51.612-24.278
		c0-17.029,24.951-29.854,55.691-30.834C193.996,25.674,204.847,36.625,205.24,53.744z"/>
	<path fill="#687EB1" d="M204.511,53.691c0.183,9.597-21.15,27.947-51.555,27.947c-30.408,0-51.046-7.198-51.046-24.034
		s24.668-29.521,55.059-30.484C193.327,25.926,204.123,36.767,204.511,53.691z"/>
	<path fill="#697EB1" d="M203.78,53.639c0.18,9.523-20.925,27.639-50.981,27.639c-30.059,0-50.48-7.147-50.48-23.79
		c0-16.643,24.385-29.187,54.428-30.135C192.659,26.178,203.399,36.909,203.78,53.639z"/>
	<path fill="#6A7FB1" d="M203.051,53.585c0.177,9.449-20.7,27.332-50.408,27.332c-29.71,0-49.915-7.096-49.915-23.546
		c0-16.449,24.102-28.853,53.796-29.785C191.991,26.431,202.676,37.05,203.051,53.585z"/>
	<path fill="#6B80B2" d="M202.32,53.533c0.174,9.374-20.475,27.023-49.833,27.023c-29.362,0-49.35-7.045-49.35-23.302
		s23.819-28.519,53.166-29.436C191.323,26.683,201.952,37.192,202.32,53.533z"/>
	<path fill="#6C81B3" d="M201.591,53.48c0.189,9.299-20.25,26.715-49.26,26.715c-29.013,0-48.784-6.995-48.784-23.058
		s23.536-28.185,52.534-29.086C190.654,26.935,201.262,37.333,201.591,53.48z"/>
	<path fill="#6D81B3" d="M200.86,53.427c0.187,9.225-20.024,26.407-48.686,26.407c-28.665,0-48.218-6.944-48.218-22.814
		c0-15.87,23.253-27.851,51.903-28.736C189.986,27.187,200.537,37.475,200.86,53.427z"/>
	<path fill="#6E82B4" d="M200.131,53.374c0.184,9.15-19.8,26.099-48.112,26.099c-28.316,0-47.652-6.893-47.652-22.571
		c0-15.677,22.97-27.517,51.271-28.386C189.318,27.439,199.814,37.617,200.131,53.374z"/>
	<path fill="#6F83B4" d="M199.4,53.321c0.181,9.076-19.574,25.791-47.538,25.791c-27.967,0-47.087-6.842-47.087-22.326
		c0-15.484,22.688-27.184,50.64-28.037C188.649,27.691,199.09,37.758,199.4,53.321z"/>
	<path fill="#7184B5" d="M198.671,53.268c0.178,9.001-19.35,25.483-46.964,25.483c-27.619,0-46.521-6.791-46.521-22.083
		c0-15.291,22.404-26.85,50.008-27.688C187.981,27.943,198.367,37.9,198.671,53.268z"/>
	<path fill="#7285B6" d="M197.94,53.215c0.175,8.927-19.124,25.175-46.39,25.175c-27.27,0-45.956-6.74-45.956-21.839
		c0-15.098,22.122-26.516,49.377-27.337C187.313,28.196,197.643,38.042,197.94,53.215z"/>
	<path fill="#7386B6" d="M197.211,53.163c0.172,8.853-18.898,24.866-45.817,24.866c-26.921,0-45.39-6.689-45.39-21.595
		c0-14.904,21.838-26.182,48.746-26.988C186.646,28.448,196.92,38.183,197.211,53.163z"/>
	<path fill="#7486B6" d="M196.48,53.109c0.169,8.778-18.673,24.559-45.243,24.559c-26.572,0-44.825-6.639-44.825-21.351
		c0-14.711,21.556-25.848,48.114-26.638C185.977,28.7,196.196,38.325,196.48,53.109z"/>
	<path fill="#7587B7" d="M195.75,53.057c0.166,8.704-18.447,24.25-44.668,24.25c-26.224,0-44.259-6.588-44.259-21.107
		c0-14.519,21.272-25.514,47.483-26.289C185.309,28.952,195.471,38.467,195.75,53.057z"/>
	<path fill="#7688B7" d="M195.021,53.004c0.163,8.629-18.223,23.942-44.095,23.942c-25.875,0-43.694-6.537-43.694-20.863
		c0-14.325,20.99-25.18,46.852-25.939C184.641,29.204,194.748,38.608,195.021,53.004z"/>
	<path fill="#7788B8" d="M194.29,52.951c0.161,8.555-17.997,23.634-43.521,23.634c-25.526,0-43.128-6.486-43.128-20.619
		c0-14.132,20.707-24.847,46.22-25.589C183.973,29.457,194.023,38.75,194.29,52.951z"/>
	<path fill="#7889B8" d="M193.561,52.898c0.157,8.48-17.772,23.326-42.947,23.326c-25.178,0-42.563-6.436-42.563-20.375
		c0-13.939,20.424-24.513,45.589-25.24C183.304,29.708,193.301,38.892,193.561,52.898z"/>
	<path fill="#798AB9" d="M192.83,52.845c0.154,8.406-17.547,23.019-42.373,23.019c-24.829,0-41.997-6.385-41.997-20.131
		c0-13.746,20.141-24.179,44.958-24.89C182.636,29.961,192.576,39.033,192.83,52.845z"/>
	<path fill="#7A8BB9" d="M192.101,52.792c0.151,8.332-17.322,22.71-41.799,22.71c-24.48,0-41.432-6.333-41.432-19.887
		c0-13.553,19.858-23.845,44.326-24.54C181.968,30.213,191.853,39.175,192.101,52.792z"/>
	<path fill="#7C8CBA" d="M191.37,52.739c0.148,8.257-17.097,22.402-41.225,22.402c-24.132,0-40.866-6.283-40.866-19.643
		c0-13.36,19.575-23.511,43.695-24.191C181.3,30.465,191.129,39.316,191.37,52.739z"/>
	<path fill="#7D8DBB" d="M190.641,52.686c0.146,8.183-16.872,22.094-40.652,22.094c-23.783,0-40.3-6.232-40.3-19.399
		c0-13.167,19.292-23.177,43.063-23.841C180.631,30.717,190.405,39.458,190.641,52.686z"/>
	<path fill="#7E8EBB" d="M189.91,52.633c0.143,8.108-16.646,21.786-40.078,21.786c-23.434,0-39.734-6.181-39.734-19.155
		c0-12.973,19.009-22.843,42.432-23.491C179.963,30.97,189.681,39.6,189.91,52.633z"/>
	<path fill="#7F8EBC" d="M189.181,52.581c0.14,8.034-16.422,21.478-39.504,21.478c-23.085,0-39.169-6.13-39.169-18.912
		c0-12.78,18.726-22.509,41.801-23.142C179.295,31.222,188.958,39.742,189.181,52.581z"/>
	<path fill="#808FBC" d="M188.45,52.527c0.137,7.96-16.196,21.17-38.93,21.17c-22.737,0-38.604-6.08-38.604-18.667
		c0-12.587,18.443-22.176,41.169-22.792C178.627,31.474,188.233,39.883,188.45,52.527z"/>
	<path fill="#8090BD" d="M187.721,52.475c0.134,7.885-15.972,20.861-38.356,20.861c-22.388,0-38.038-6.028-38.038-18.423
		c0-12.394,18.16-21.842,40.538-22.442C177.958,31.726,187.51,40.025,187.721,52.475z"/>
	<path fill="#8291BD" d="M186.99,52.422c0.131,7.811-15.746,20.553-37.782,20.553c-22.04,0-37.472-5.978-37.472-18.18
		c0-12.201,17.877-21.508,39.907-22.093C177.29,31.978,186.785,40.167,186.99,52.422z"/>
	<path fill="#8392BE" d="M186.261,52.369c0.127,7.736-15.521,20.246-37.209,20.246c-21.691,0-36.906-5.927-36.906-17.936
		c0-12.008,17.594-21.174,39.275-21.743C176.622,32.23,186.063,40.308,186.261,52.369z"/>
	<path fill="#8492BE" d="M185.53,52.316c0.124,7.662-15.296,19.938-36.634,19.938c-21.342,0-36.341-5.876-36.341-17.692
		c0-11.815,17.311-20.84,38.644-21.394C175.954,32.482,185.338,40.45,185.53,52.316z"/>
	<path fill="#8493BF" d="M184.801,52.263c0.121,7.587-15.07,19.629-36.061,19.629c-20.994,0-35.775-5.825-35.775-17.448
		c0-11.622,17.028-20.506,38.012-21.044C175.285,32.735,184.614,40.592,184.801,52.263z"/>
	<path fill="#8795C0" d="M184.07,52.21c0.118,7.513-14.845,19.321-35.487,19.321c-20.645,0-35.21-5.774-35.21-17.204
		c0-11.428,16.745-20.173,37.381-20.694C174.617,32.987,183.89,40.733,184.07,52.21z"/>
	<path fill="#8896C0" d="M183.34,52.157c0.115,7.438-14.619,19.013-34.913,19.013c-20.296,0-34.644-5.724-34.644-16.96
		c0-11.235,16.462-19.839,36.75-20.344C173.949,33.239,183.165,40.875,183.34,52.157z"/>
	<path fill="#8896C1" d="M182.61,52.104c0.112,7.364-14.395,18.705-34.339,18.705c-19.947,0-34.079-5.672-34.079-16.716
		c0-11.042,16.179-19.505,36.118-19.995C173.281,33.491,182.441,41.017,182.61,52.104z"/>
	<path fill="#8997C1" d="M181.88,52.051c0.108,7.29-14.169,18.397-33.765,18.397c-19.599,0-33.513-5.622-33.513-16.472
		c0-10.849,15.896-19.171,35.487-19.645C172.612,33.744,181.718,41.158,181.88,52.051z"/>
	<path fill="#8A98C2" d="M181.15,51.999c0.105,7.215-13.944,18.089-33.191,18.089c-19.25,0-32.948-5.571-32.948-16.229
		c0-10.656,15.613-18.837,34.855-19.295C171.944,33.996,180.994,41.3,181.15,51.999z"/>
	<path fill="#8B99C2" d="M180.42,51.946c0.103,7.141-13.719,17.78-32.617,17.78c-18.901,0-32.382-5.52-32.382-15.984
		c0-10.463,15.33-18.504,34.224-18.946C171.276,34.248,180.27,41.441,180.42,51.946z"/>
	<path fill="#8C99C3" d="M179.69,51.893c0.1,7.067-13.494,17.473-32.044,17.473c-18.553,0-31.816-5.469-31.816-15.74
		c0-10.27,15.047-18.17,33.593-18.596C170.607,34.5,179.545,41.583,179.69,51.893z"/>
	<path fill="#8D9AC3" d="M178.96,51.84c0.096,6.993-13.269,17.165-31.47,17.165c-18.204,0-31.25-5.418-31.25-15.497
		c0-10.077,14.765-17.836,32.961-18.247C169.939,34.752,178.821,41.725,178.96,51.84z"/>
	<path fill="#8E9BC4" d="M178.23,51.787c0.093,6.918-13.044,16.856-30.896,16.856c-17.855,0-30.686-5.368-30.686-15.253
		c0-9.883,14.482-17.502,32.33-17.897C169.271,35.004,178.098,41.867,178.23,51.787z"/>
	<path fill="#8F9BC4" d="M177.5,51.734c0.09,6.844-12.818,16.548-30.322,16.548c-17.507,0-30.12-5.317-30.12-15.008
		c0-9.69,14.199-17.168,31.699-17.547C168.604,35.256,177.372,42.008,177.5,51.734z"/>
	<path fill="#919DC5" d="M176.771,51.681c0.086,6.769-12.594,16.24-29.749,16.24c-17.158,0-29.554-5.266-29.554-14.765
		c0-9.498,13.916-16.834,31.067-17.198C167.935,35.509,176.649,42.15,176.771,51.681z"/>
	<path fill="#929EC6" d="M176.04,51.628c0.083,6.695-12.368,15.932-29.174,15.932c-16.809,0-28.988-5.215-28.988-14.521
		c0-9.304,13.633-16.5,30.436-16.848C167.267,35.761,175.924,42.292,176.04,51.628z"/>
	<path fill="#939FC6" d="M175.311,51.575c0.08,6.621-12.144,15.624-28.601,15.624c-16.461,0-28.423-5.164-28.423-14.277
		c0-9.111,13.35-16.167,29.805-16.498C166.599,36.013,175.2,42.433,175.311,51.575z"/>
	<path fill="#94A0C7" d="M174.58,51.522c0.076,6.546-11.918,15.316-28.026,15.316c-16.112,0-27.857-5.113-27.857-14.033
		c0-8.918,13.067-15.833,29.173-16.149C165.931,36.265,174.476,42.575,174.58,51.522z"/>
	<path fill="#95A0C7" d="M173.851,51.47c0.073,6.471-11.693,15.008-27.453,15.008c-15.763,0-27.292-5.063-27.292-13.789
		c0-8.725,12.784-15.499,28.542-15.799C165.262,36.517,173.752,42.717,173.851,51.47z"/>
	<path fill="#96A1C8" d="M173.12,51.417c0.069,6.397-11.467,14.7-26.879,14.7c-15.415,0-26.726-5.012-26.726-13.545
		c0-8.532,12.501-15.165,27.911-15.449C164.594,36.77,173.027,42.858,173.12,51.417z"/>
	<path fill="#97A2C8" d="M172.391,51.364c0.066,6.323-11.243,14.392-26.306,14.392c-15.065,0-26.161-4.961-26.161-13.301
		c0-8.338,12.218-14.831,27.279-15.1C163.926,37.021,172.303,43,172.391,51.364z"/>
	<path fill="#98A3C9" d="M171.66,51.311c0.063,6.248-11.017,14.083-25.731,14.083c-14.717,0-25.595-4.91-25.595-13.057
		c0-8.146,11.935-14.498,26.647-14.75C163.258,37.274,171.578,43.142,171.66,51.311z"/>
	<path fill="#99A4C9" d="M170.93,51.258c0.06,6.174-10.792,13.776-25.157,13.776c-14.369,0-25.03-4.859-25.03-12.813
		c0-7.953,11.652-14.164,26.017-14.4C162.589,37.526,170.854,43.284,170.93,51.258z"/>
	<path fill="#9AA4C9" d="M170.2,51.205c0.056,6.1-10.567,13.467-24.583,13.467c-14.02,0-24.464-4.808-24.464-12.569
		c0-7.759,11.369-13.83,25.385-14.051C161.921,37.778,170.129,43.425,170.2,51.205z"/>
	<path fill="#9AA5CA" d="M169.47,51.152c0.052,6.025-10.341,13.16-24.009,13.16c-13.671,0-23.898-4.758-23.898-12.325
		c0-7.566,11.086-13.496,24.754-13.702C161.253,38.03,169.404,43.567,169.47,51.152z"/>
	<path fill="#9DA7CC" d="M168.74,51.099c0.049,5.951-10.116,12.852-23.436,12.852c-13.322,0-23.333-4.707-23.333-12.082
		c0-7.373,10.803-13.162,24.122-13.352C160.584,38.283,168.68,43.708,168.74,51.099z"/>
	<path fill="#9EA8CC" d="M168.01,51.046c0.033,5.876-9.891,12.543-22.861,12.543c-12.974,0-22.768-4.656-22.768-11.837
		c0-7.18,10.521-12.828,23.491-13.002C159.917,38.535,167.94,43.851,168.01,51.046z"/>
	<path fill="#9EA8CC" d="M167.28,50.993c0.041,5.802-9.666,12.235-22.288,12.235c-12.625,0-22.202-4.605-22.202-11.594
		c0-6.987,10.237-12.494,22.859-12.652C159.248,38.787,167.23,43.992,167.28,50.993z"/>
	<path fill="#9FA9CD" d="M166.55,50.94c0.027,5.728-9.44,11.927-21.714,11.927c-12.276,0-21.636-4.554-21.636-11.35
		c0-6.794,9.955-12.161,22.229-12.303C158.58,39.039,166.493,44.134,166.55,50.94z"/>
	<path fill="#A0AACD" d="M165.82,50.888c0.023,5.653-9.216,11.619-21.141,11.619c-11.928,0-21.07-4.503-21.07-11.105
		c0-6.601,9.671-11.827,21.597-11.953C157.912,39.291,165.77,44.275,165.82,50.888z"/>
	<path fill="#A2ABCE" d="M165.09,50.834c0.021,5.579-8.99,11.311-20.566,11.311c-11.579,0-20.505-4.453-20.505-10.862
		c0-6.407,9.389-11.493,20.966-11.603C157.244,39.543,165.046,44.417,165.09,50.834z"/>
	<path fill="#A2ACCE" d="M164.36,50.782c0.018,5.504-8.766,11.003-19.993,11.003c-11.23,0-19.939-4.402-19.939-10.618
		c0-6.214,9.105-11.159,20.334-11.253C156.575,39.795,164.322,44.559,164.36,50.782z"/>
	<path fill="#A3ADCF" d="M163.63,50.729c0.015,5.43-8.54,10.695-19.418,10.695c-10.882,0-19.374-4.351-19.374-10.374
		c0-6.021,8.823-10.825,19.703-10.904C155.907,40.048,163.599,44.7,163.63,50.729z"/>
	<path fill="#A4ADCF" d="M162.9,50.676c0.012,5.355-8.315,10.387-18.845,10.387c-10.533,0-18.808-4.3-18.808-10.13
		c0-5.828,8.54-10.491,19.071-10.554C155.239,40.3,162.875,44.842,162.9,50.676z"/>
	<path fill="#A5AECF" d="M162.17,50.623c0.009,5.281-8.089,10.079-18.271,10.079c-10.184,0-18.243-4.249-18.243-9.886
		c0-5.635,8.257-10.157,18.44-10.205C154.571,40.552,162.151,44.984,162.17,50.623z"/>
	<path fill="#A7B0D1" d="M161.44,50.57c0.006,5.207-7.864,9.771-17.697,9.771c-9.836,0-17.677-4.199-17.677-9.643
		c0-5.442,7.974-9.823,17.809-9.855C153.902,40.804,161.427,45.125,161.44,50.57z"/>
	<path fill="#A8B1D1" d="M160.71,50.517c0.003,5.132-7.639,9.462-17.123,9.462c-9.487,0-17.112-4.147-17.112-9.398
		c0-5.249,7.691-9.49,17.178-9.505C153.234,41.057,160.704,45.267,160.71,50.517z"/>
	<path fill="#A9B1D2" d="M159.98,50.464c0,5.058-7.414,9.154-16.549,9.154c-9.138,0-16.546-4.097-16.546-9.154
		c0-5.056,7.408-9.156,16.546-9.156C152.566,41.309,159.98,45.409,159.98,50.464z"/>
</g>
<linearGradient id="SVGID_1_" gradientUnits="userSpaceOnUse" x1="212.0107" y1="152.7319" x2="184.9056" y2="-28.9214">
	<stop  offset="0.0055" style="stop-color:#000000"/>
	<stop  offset="0.0063" style="stop-color:#040404"/>
	<stop  offset="0.0524" style="stop-color:#444550"/>
	<stop  offset="0.0993" style="stop-color:#4C536A"/>
	<stop  offset="0.1465" style="stop-color:#455378"/>
	<stop  offset="0.1938" style="stop-color:#344F80"/>
	<stop  offset="0.2411" style="stop-color:#1D4B84"/>
	<stop  offset="0.2886" style="stop-color:#004787"/>
	<stop  offset="0.3363" style="stop-color:#004588"/>
	<stop  offset="0.3846" style="stop-color:#004489"/>
	<stop  offset="1" style="stop-color:#004489"/>
</linearGradient>
<path fill="url(#SVGID_1_)" d="M234.61,12.211c20.157,10.472,32.646,24.991,32.646,41.042c0,31.918-49.38,57.794-110.294,57.794
	c-35.369,0-66.847-8.727-87.033-22.292c9.736,32.798,64.584,57.917,130.789,57.917c73.084,0,132.322-30.61,132.322-68.367
	C333.041,46.604,291.266,19.943,234.61,12.211z"/>
<g>
	<path fill="none" stroke="#000000" stroke-width="1.8107" d="M331.57,88.642"/>
	<g>
		<path fill="none" stroke="#000000" stroke-width="1.8107" d="M343.754,78.156c0,42.665-64.174,77.251-143.341,77.251
			c-79.159,0-143.333-34.586-143.333-77.251S121.254,0.905,200.413,0.905C279.58,0.905,343.754,35.492,343.754,78.156z"/>
		<path fill="none" stroke="#000000" stroke-width="0.9052" d="M331.987,77.855c0,37.498-58.838,67.896-131.421,67.896
			c-72.576,0-131.418-30.398-131.418-67.896c0-37.501,58.842-67.899,131.418-67.899C273.149,9.957,331.987,40.354,331.987,77.855z"
			/>
		<path fill="none" d="M343.754,78.156c0,42.665-64.174,77.251-143.341,77.251c-79.159,0-143.333-34.586-143.333-77.251
			S121.254,0.905,200.413,0.905C279.58,0.905,343.754,35.492,343.754,78.156z"/>
		<path fill="none" d="M341.342,77.4c0,41.248-63.031,74.688-140.775,74.688c-77.745,0-140.769-33.439-140.769-74.688
			c0-41.247,63.023-74.686,140.769-74.686C278.311,2.714,341.342,36.154,341.342,77.4z"/>
		<linearGradient id="SVGID_2_" gradientUnits="userSpaceOnUse" x1="57.0796" y1="78.1563" x2="343.7539" y2="78.1563">
			<stop  offset="0.0055" style="stop-color:#808080"/>
			<stop  offset="0.1538" style="stop-color:#FFFFFF"/>
			<stop  offset="0.1942" style="stop-color:#F4F4F4"/>
			<stop  offset="0.3001" style="stop-color:#DDDDDD"/>
			<stop  offset="0.3991" style="stop-color:#CECECE"/>
			<stop  offset="0.4835" style="stop-color:#C9C9C9"/>
			<stop  offset="0.4885" style="stop-color:#C0C0C0"/>
			<stop  offset="0.5136" style="stop-color:#979797"/>
			<stop  offset="0.5394" style="stop-color:#757575"/>
			<stop  offset="0.5654" style="stop-color:#5A5A5A"/>
			<stop  offset="0.5919" style="stop-color:#474747"/>
			<stop  offset="0.6192" style="stop-color:#3C3C3C"/>
			<stop  offset="0.6484" style="stop-color:#383838"/>
			<stop  offset="0.8352" style="stop-color:#383838"/>
			<stop  offset="1" style="stop-color:#7A7A7A"/>
		</linearGradient>
		<path fill="url(#SVGID_2_)" d="M200.413,0.905c-79.159,0-143.333,34.586-143.333,77.251s64.174,77.251,143.333,77.251
			c79.167,0,143.341-34.586,143.341-77.251S279.58,0.905,200.413,0.905z M200.566,152.088c-77.745,0-140.769-33.439-140.769-74.688
			c0-41.247,63.023-74.686,140.769-74.686c77.744,0,140.775,33.439,140.775,74.686C341.342,118.648,278.311,152.088,200.566,152.088
			z"/>
		<path fill="none" d="M331.987,77.855c0,37.498-58.838,67.896-131.421,67.896c-72.576,0-131.418-30.398-131.418-67.896
			c0-37.501,58.842-67.899,131.418-67.899C273.149,9.957,331.987,40.354,331.987,77.855z"/>
		<linearGradient id="SVGID_3_" gradientUnits="userSpaceOnUse" x1="57.0796" y1="78.1563" x2="343.7539" y2="78.1563">
			<stop  offset="0.0055" style="stop-color:#D1D1D1"/>
			<stop  offset="0.456" style="stop-color:#4D4D4D"/>
			<stop  offset="1" style="stop-color:#A6A6A6"/>
		</linearGradient>
		<path fill="url(#SVGID_3_)" d="M200.413,0.905c-79.159,0-143.333,34.586-143.333,77.251s64.174,77.251,143.333,77.251
			c79.167,0,143.341-34.586,143.341-77.251S279.58,0.905,200.413,0.905z M200.566,145.751c-72.576,0-131.418-30.398-131.418-67.896
			c0-37.501,58.842-67.899,131.418-67.899c72.583,0,131.421,30.398,131.421,67.899C331.987,115.353,273.149,145.751,200.566,145.751
			z"/>
		<linearGradient id="SVGID_4_" gradientUnits="userSpaceOnUse" x1="139.9087" y1="15.562" x2="257.1418" y2="136.8689">
			<stop  offset="0.0055" style="stop-color:#E6E6E6"/>
			<stop  offset="0.456" style="stop-color:#595959"/>
			<stop  offset="0.8352" style="stop-color:#808080"/>
			<stop  offset="1" style="stop-color:#D9D9D9"/>
		</linearGradient>
		<path fill="url(#SVGID_4_)" d="M199.961,4.075c-76.66,0-138.808,32.963-138.808,73.627c0,40.666,62.148,73.629,138.808,73.629
			c76.668,0,138.812-32.963,138.812-73.629C338.772,37.039,276.629,4.075,199.961,4.075z M200.566,145.751
			c-72.576,0-131.418-30.398-131.418-67.896c0-37.501,58.842-67.899,131.418-67.899c72.583,0,131.421,30.398,131.421,67.899
			C331.987,115.353,273.149,145.751,200.566,145.751z"/>
		<linearGradient id="SVGID_5_" gradientUnits="userSpaceOnUse" x1="147.0874" y1="46.6934" x2="300.3859" y2="136.0173">
			<stop  offset="0.0055" style="stop-color:#F2F2F2"/>
			<stop  offset="0.3462" style="stop-color:#1A1A1A"/>
			<stop  offset="0.5879" style="stop-color:#3D3D3D"/>
			<stop  offset="0.6956" style="stop-color:#484848"/>
			<stop  offset="0.7692" style="stop-color:#525252"/>
			<stop  offset="1" style="stop-color:#BDBDBD"/>
		</linearGradient>
		<path fill="url(#SVGID_5_)" d="M200.566,8.867c-73.744,0-133.525,30.887-133.525,68.989c0,38.101,59.781,68.989,133.525,68.989
			c73.747,0,133.527-30.888,133.527-68.989C334.094,39.753,274.313,8.867,200.566,8.867z M200.566,145.751
			c-72.576,0-131.418-30.398-131.418-67.896c0-37.501,58.842-67.899,131.418-67.899c72.583,0,131.421,30.398,131.421,67.899
			C331.987,115.353,273.149,145.751,200.566,145.751z"/>
		<path fill="none" stroke="#000000" stroke-width="1.8107" d="M176.804,114.368c0,0-13.803,1.055-13.729,2.563
			c0.076,1.509,11.391,2.64,13.274,2.868c1.888,0.226,9.281,1.057,11.395,1.811c2.11,0.756,3.546,1.359,4.376,3.699
			c0.827,2.336,2.864,9.277,2.864,9.277s0.98,3.846,1.812,3.846c0.83,0,1.808-4.072,1.808-4.072s2.04-8.676,3.549-10.259
			c1.509-1.587,1.734-2.188,8.45-3.245c6.712-1.057,13.348-2.263,18.405-2.263s6.038,0.075,9.125,0.45
			c3.101,0.379,9.736,1.211,12.374,2.039c2.643,0.829,3.55,2.717,4.228,4.453c0.681,1.732,2.189,6.335,2.189,6.335
			s0.376,1.887,1.283,1.887c0.903,0,1.278-1.962,1.278-1.962s2.416-7.694,3.771-8.902c1.363-1.208,2.344-2.339,9.056-3.167
			c6.716-0.833,10.713-1.662,13.053-1.813c2.335-0.151,3.997-0.454,3.997-1.206c0-0.756-0.907-1.057-4.224-1.51
			c-3.319-0.452-13.202-1.51-18.412-2.642c-5.2-1.128-5.503-5.278-6.264-7.315c-0.751-2.037-1.276-5.282-2.485-5.282
			c-1.21,0-1.506,2.188-1.735,2.868c-0.226,0.678-1.432,4.978-2.335,6.412c-0.908,1.434-1.589,3.017-5.131,3.698
			c-3.546,0.678-10.185,2.11-16.445,2.261c-6.261,0.149-9.81-0.301-14.714-0.905c-4.901-0.605-9.427-0.829-12.823-2.341
			c-3.396-1.507-5.131-6.484-6.038-9.501c-0.903-3.018-1.505-4.451-2.037-4.451c-0.528,0-1.505,2.263-2.109,4.223
			c-0.602,1.962-2.19,7.772-4.526,9.207C187.743,112.859,183.818,113.687,176.804,114.368z"/>
		<linearGradient id="SVGID_6_" gradientUnits="userSpaceOnUse" x1="222.8193" y1="125.6885" x2="259.4844" y2="125.6885">
			<stop  offset="0.0824" style="stop-color:#999999"/>
			<stop  offset="0.1746" style="stop-color:#7C7C7C"/>
			<stop  offset="0.3242" style="stop-color:#525252"/>
			<stop  offset="0.6374" style="stop-color:#4A4A4A"/>
			<stop  offset="0.7857" style="stop-color:#B0B0B0"/>
			<stop  offset="0.8901" style="stop-color:#7A7A7A"/>
			<stop  offset="1" style="stop-color:#9E9E9E"/>
		</linearGradient>
		<path fill="url(#SVGID_6_)" d="M259.335,127.797c-0.149,0.678-0.451,1.886-1.129,1.886c-0.682,0-0.911-0.754-1.21-1.736
			c-0.303-0.983-0.602-3.545-1.734-6.262c-1.134-2.716-6.035-3.019-9.504-3.319s-17.529-0.956-20.445-0.678
			c-0.403,0.038-1.116,0.054-2.034,0.116l-0.459,1.217c2.229-0.263,4.321-0.428,6.188-0.428c5.058,0,6.038,0.075,9.125,0.45
			c3.101,0.379,9.736,1.211,12.374,2.039c2.643,0.829,3.55,2.717,4.228,4.453c0.681,1.732,2.189,6.335,2.189,6.335
			s0.376,1.887,1.283,1.887c0.903,0,1.278-1.962,1.278-1.962L259.335,127.797z"/>
		<linearGradient id="SVGID_7_" gradientUnits="userSpaceOnUse" x1="276.6484" y1="115.5737" x2="276.6484" y2="117.4222">
			<stop  offset="0.1374" style="stop-color:#E6E6E6"/>
			<stop  offset="0.5055" style="stop-color:#CCCCCC"/>
			<stop  offset="0.9121" style="stop-color:#E0E0E0"/>
		</linearGradient>
		<path fill="url(#SVGID_7_)" d="M263.935,114.065c2.871,1.131,9.969,1.618,11.099,1.618c1.133,0,3.083-0.11,3.083,0.871
			c0,0.982-1.126,1.059-2.485,1.133l9.733,0.226c2.335-0.151,3.997-0.454,3.997-1.206c0-0.756-0.907-1.057-4.224-1.51
			c-3.319-0.452-13.202-1.51-18.412-2.642L263.935,114.065z"/>
		<linearGradient id="SVGID_8_" gradientUnits="userSpaceOnUse" x1="235.4346" y1="108.7769" x2="256.1769" y2="107.4192">
			<stop  offset="0.0824" style="stop-color:#999999"/>
			<stop  offset="0.1282" style="stop-color:#A4A4A4"/>
			<stop  offset="0.3242" style="stop-color:#CFCFCF"/>
			<stop  offset="0.5604" style="stop-color:#D9D9D9"/>
			<stop  offset="0.7582" style="stop-color:#E0E0E0"/>
		</linearGradient>
		<path fill="url(#SVGID_8_)" d="M259.335,106.672c-0.229-1.283-0.754-2.414-1.358-2.414c-0.602,0-1.13,1.434-1.359,2.491
			c-0.223,1.055-0.146,4.751-2.562,6.335c-2.413,1.585-5.058,2.231-13.438,2.687c-8.37,0.45-15.382,0.179-17.943,0.106l-0.087-1.01
			c2.847,0.28,5.742,0.426,9.743,0.33c6.261-0.151,12.899-1.583,16.445-2.261c3.542-0.681,4.223-2.265,5.131-3.698
			c0.903-1.434,2.109-5.734,2.335-6.412c0.229-0.68,0.525-2.868,1.735-2.868c1.209,0,1.734,3.245,2.485,5.282L259.335,106.672z"/>
		<linearGradient id="SVGID_9_" gradientUnits="userSpaceOnUse" x1="209.6689" y1="107.2065" x2="220.7866" y2="118.1545">
			<stop  offset="0.0824" style="stop-color:#EDEDED"/>
			<stop  offset="0.2054" style="stop-color:#BCBCBC"/>
			<stop  offset="0.3242" style="stop-color:#919191"/>
			<stop  offset="0.5604" style="stop-color:#8C8C8C"/>
			<stop  offset="0.7582" style="stop-color:#999999"/>
		</linearGradient>
		<path fill="url(#SVGID_9_)" d="M203.736,111.34c0.33,0.241,0.685,0.448,1.057,0.61c3.396,1.512,7.922,1.736,12.823,2.341
			c4.904,0.604,8.453,1.055,14.714,0.905l0.052,0.737c-4.532,0.071-8.061-0.01-9.708-0.057c-2.569-0.077-15.92-0.454-20.144-1.888
			c-0.407-0.163-0.778-0.36-1.126-0.596L203.736,111.34z"/>
		<linearGradient id="SVGID_10_" gradientUnits="userSpaceOnUse" x1="199.147" y1="131.3696" x2="221.2136" y2="113.2637">
			<stop  offset="0.0824" style="stop-color:#949494"/>
			<stop  offset="0.1639" style="stop-color:#7C7C7C"/>
			<stop  offset="0.3242" style="stop-color:#525252"/>
			<stop  offset="0.5604" style="stop-color:#4A4A4A"/>
			<stop  offset="0.7582" style="stop-color:#999999"/>
		</linearGradient>
		<path fill="url(#SVGID_10_)" d="M225.313,117.688c-2.489,0.073-16.373,1.283-20.067,1.508c-3.695,0.228-4.978,2.563-5.506,3.622
			c-0.532,1.055-2.037,8.374-2.19,8.977c-0.152,0.603-0.379,1.811-0.754,1.811v4.826c0.83,0,1.808-4.072,1.808-4.072
			s2.04-8.676,3.549-10.259c1.509-1.587,1.734-2.188,8.45-3.245c5.2-0.819,10.355-1.726,14.77-2.095L225.313,117.688z"/>
		<linearGradient id="SVGID_11_" gradientUnits="userSpaceOnUse" x1="190.2261" y1="124.4214" x2="200.7788" y2="142.7259">
			<stop  offset="0" style="stop-color:#D9D9D9"/>
			<stop  offset="0.2033" style="stop-color:#6B6B6B"/>
			<stop  offset="0.206" style="stop-color:#6C6C6C"/>
			<stop  offset="0.4451" style="stop-color:#969696"/>
			<stop  offset="0.5604" style="stop-color:#969696"/>
			<stop  offset="0.7582" style="stop-color:#A8A8A8"/>
		</linearGradient>
		<path fill="url(#SVGID_11_)" d="M183.742,118.744c0,0,4.529,0.224,6.34,1.055c1.808,0.829,3.393,1.735,3.845,3.546
			c0.452,1.809,1.964,8.297,2.113,8.9c0.149,0.604,0.379,1.361,0.755,1.361c0.375,0,0.602-1.208,0.754-1.811l1.054,2.565
			c0,0-0.978,4.072-1.808,4.072c-0.831,0-1.812-3.846-1.812-3.846s-2.037-6.941-2.864-9.277c-0.83-2.339-2.266-2.942-4.376-3.699
			c-0.807-0.288-2.381-0.589-4.123-0.858L183.742,118.744z"/>
		<linearGradient id="SVGID_12_" gradientUnits="userSpaceOnUse" x1="195.7065" y1="135.3384" x2="197.9516" y2="135.3384">
			<stop  offset="0.2143" style="stop-color:#969696"/>
			<stop  offset="0.3626" style="stop-color:#ADADAD"/>
			<stop  offset="0.5055" style="stop-color:#C9C9C9"/>
			<stop  offset="0.7418" style="stop-color:#A3A3A3"/>
			<stop  offset="0.8846" style="stop-color:#9E9E9E"/>
		</linearGradient>
		<path fill="url(#SVGID_12_)" d="M196.04,132.245c0.149,0.604,0.379,1.361,0.755,1.361c0.285,0,0.483-0.678,0.625-1.274
			l0.198,5.078c-0.268,0.587-0.549,1.022-0.823,1.022c-0.271,0-0.563-0.414-0.827-0.97L196.04,132.245z"/>
		<linearGradient id="SVGID_13_" gradientUnits="userSpaceOnUse" x1="173.7935" y1="116.8643" x2="187.3731" y2="124.7857">
			<stop  offset="0" style="stop-color:#A8A8A8"/>
			<stop  offset="0.0879" style="stop-color:#6B6B6B"/>
			<stop  offset="0.3681" style="stop-color:#5E5E5E"/>
			<stop  offset="0.4626" style="stop-color:#626262"/>
			<stop  offset="0.5417" style="stop-color:#6C6C6C"/>
			<stop  offset="0.6149" style="stop-color:#7D7D7D"/>
			<stop  offset="0.6846" style="stop-color:#969696"/>
			<stop  offset="0.6868" style="stop-color:#969696"/>
			<stop  offset="0.8462" style="stop-color:#D9D9D9"/>
		</linearGradient>
		<path fill="url(#SVGID_13_)" d="M187.743,121.61c-2.113-0.754-9.507-1.585-11.395-1.811c-1.884-0.228-13.198-1.359-13.274-2.868
			c-0.073-1.508,13.729-2.563,13.729-2.563l0.379,1.432c-2.263,0.302-4.153,0.228-4.153,0.982s1.436,1.281,4.227,1.434
			c2.791,0.149,6.486,0.528,6.486,0.528s4.529,0.224,6.34,1.055L187.743,121.61z"/>
		<linearGradient id="SVGID_14_" gradientUnits="userSpaceOnUse" x1="163.0737" y1="107.4644" x2="198.7549" y2="107.4644">
			<stop  offset="0" style="stop-color:#A8A8A8"/>
			<stop  offset="1" style="stop-color:#FFFFFF"/>
		</linearGradient>
		<path fill="url(#SVGID_14_)" d="M163.074,116.931c-0.073-1.508,13.729-2.563,13.729-2.563c7.015-0.681,10.939-1.508,13.278-2.94
			c2.336-1.434,3.925-7.244,4.526-9.207c0.604-1.96,1.581-4.223,2.109-4.223c0.532,0,1.134,1.434,2.037,4.451l-0.754,3.167
			c-0.452-2.715-0.678-3.395-1.355-3.395c-0.682,0-1.134,2.037-1.513,3.848c-0.375,1.811-0.938,6.818-4.521,7.92
			c-3.925,1.208-6.111,1.585-13.429,1.811c-2.263,0.302-4.153,0.228-4.153,0.982L163.074,116.931z"/>
		<linearGradient id="SVGID_15_" gradientUnits="userSpaceOnUse" x1="196.7988" y1="101.4521" x2="204.5502" y2="116.0496">
			<stop  offset="0" style="stop-color:#C7C7C7"/>
			<stop  offset="0.0824" style="stop-color:#BDBDBD"/>
			<stop  offset="0.1429" style="stop-color:#8C8C8C"/>
			<stop  offset="0.2151" style="stop-color:#7E7E7E"/>
			<stop  offset="0.3297" style="stop-color:#6B6B6B"/>
			<stop  offset="0.3907" style="stop-color:#595959"/>
			<stop  offset="0.544" style="stop-color:#2E2E2E"/>
			<stop  offset="0.5738" style="stop-color:#323232"/>
			<stop  offset="0.6042" style="stop-color:#3E3E3E"/>
			<stop  offset="0.6351" style="stop-color:#535353"/>
			<stop  offset="0.6661" style="stop-color:#707070"/>
			<stop  offset="0.6973" style="stop-color:#959595"/>
			<stop  offset="0.7283" style="stop-color:#C1C1C1"/>
			<stop  offset="0.7473" style="stop-color:#E0E0E0"/>
			<stop  offset="0.8901" style="stop-color:#FFFFFF"/>
		</linearGradient>
		<path fill="url(#SVGID_15_)" d="M202.53,113.989c-2.416-0.979-3.698-3.09-4.529-8.374c-0.452-2.715-0.678-3.395-1.355-3.395
			l0.072-4.223c0.532,0,1.134,1.434,2.037,4.451c0.907,3.017,2.642,7.995,6.038,9.501L202.53,113.989z"/>
		<linearGradient id="SVGID_16_" gradientUnits="userSpaceOnUse" x1="196.1895" y1="100.2319" x2="197.2012" y2="100.2319">
			<stop  offset="0" style="stop-color:#FFFFFF"/>
			<stop  offset="0.4505" style="stop-color:#BFBFBF"/>
			<stop  offset="0.8242" style="stop-color:#C2C2C2"/>
		</linearGradient>
		<path fill="url(#SVGID_16_)" d="M196.252,102.466c0.119-0.156,0.251-0.245,0.394-0.245c0.201,0,0.364,0.061,0.497,0.217
			l0.059-4.077c-0.167-0.244-0.33-0.363-0.483-0.363c-0.146,0-0.33,0.175-0.528,0.476L196.252,102.466z"/>
		<linearGradient id="SVGID_17_" gradientUnits="userSpaceOnUse" x1="168.4204" y1="117.729" x2="168.4359" y2="115.752">
			<stop  offset="0" style="stop-color:#A6A6A6"/>
			<stop  offset="0.4505" style="stop-color:#E6E6E6"/>
			<stop  offset="0.8242" style="stop-color:#B8B8B8"/>
		</linearGradient>
		<path fill="url(#SVGID_17_)" d="M173.776,117.597c-0.497-0.225-0.747-0.499-0.747-0.815c0-0.283,0.268-0.45,0.72-0.563
			l-8.61-0.314c-1.255,0.309-2.086,0.655-2.064,1.027c0.017,0.386,0.761,0.746,1.901,1.073L173.776,117.597z"/>
		<linearGradient id="SVGID_18_" gradientUnits="userSpaceOnUse" x1="275.876" y1="116.4595" x2="268.5659" y2="140.1211">
			<stop  offset="0.0055" style="stop-color:#FFFFFF"/>
			<stop  offset="0.0062" style="stop-color:#FEFEFE"/>
			<stop  offset="0.0353" style="stop-color:#CBCBCB"/>
			<stop  offset="0.064" style="stop-color:#A1A1A1"/>
			<stop  offset="0.0918" style="stop-color:#818181"/>
			<stop  offset="0.1185" style="stop-color:#6A6A6A"/>
			<stop  offset="0.1434" style="stop-color:#5C5C5C"/>
			<stop  offset="0.1648" style="stop-color:#575757"/>
			<stop  offset="0.2037" style="stop-color:#686868"/>
			<stop  offset="0.2809" style="stop-color:#959595"/>
			<stop  offset="0.3407" style="stop-color:#BDBDBD"/>
			<stop  offset="0.4544" style="stop-color:#A1A1A1"/>
			<stop  offset="0.511" style="stop-color:#919191"/>
			<stop  offset="0.8571" style="stop-color:#B8B8B8"/>
		</linearGradient>
		<path fill="url(#SVGID_18_)" d="M258.206,133.757c0.903,0,1.278-1.962,1.278-1.962s2.416-7.694,3.771-8.902
			c1.363-1.208,2.344-2.339,9.056-3.167c6.716-0.833,10.713-1.662,13.053-1.813c2.335-0.151,3.997-0.454,3.997-1.206l-11.245-0.153
			c0,0.982-1.126,1.059-2.485,1.133c-1.359,0.076-7.467,0.603-11.391,1.355c-3.925,0.756-4.756,8.075-4.905,8.754
			c-0.149,0.678-0.451,1.886-1.129,1.886V133.757z"/>
		<linearGradient id="SVGID_19_" gradientUnits="userSpaceOnUse" x1="258.4854" y1="104.7793" x2="270.065" y2="116.6237">
			<stop  offset="0.0824" style="stop-color:#DEDEDE"/>
			<stop  offset="0.2443" style="stop-color:#7D7D7D"/>
			<stop  offset="0.3242" style="stop-color:#525252"/>
			<stop  offset="0.5604" style="stop-color:#737373"/>
			<stop  offset="0.6696" style="stop-color:#A0A0A0"/>
			<stop  offset="0.8242" style="stop-color:#E6E6E6"/>
		</linearGradient>
		<path fill="url(#SVGID_19_)" d="M269.176,115.129c-2.002-0.24-4.021-0.582-5.241-1.063c-2.864-1.13-3.922-3.094-4.6-7.394
			c-0.229-1.283-0.754-2.414-1.358-2.414c-0.602,0-1.13,1.434-1.359,2.491l-0.376-3.923c0.229-0.68,0.525-2.868,1.735-2.868
			c1.209,0,1.734,3.245,2.485,5.282c0.761,2.037,1.063,6.188,6.264,7.315c0.952,0.207,2.051,0.41,3.239,0.61L269.176,115.129z"/>
		<linearGradient id="SVGID_20_" gradientUnits="userSpaceOnUse" x1="257.1865" y1="102.8135" x2="258.9194" y2="102.8135">
			<stop  offset="0" style="stop-color:#E3E3E3"/>
			<stop  offset="0.4505" style="stop-color:#BABABA"/>
			<stop  offset="0.7637" style="stop-color:#DADADA"/>
			<stop  offset="0.8242" style="stop-color:#E0E0E0"/>
		</linearGradient>
		<path fill="url(#SVGID_20_)" d="M256.961,100.693c0.236-0.422,0.563-0.735,1.016-0.735c0.333,0,0.615,0.245,0.861,0.646
			l0.202,4.941c-0.011-0.028-0.024-0.057-0.031-0.083c-0.265-0.709-0.629-1.205-1.032-1.205c-0.41,0-0.782,0.66-1.05,1.411
			L256.961,100.693z"/>
		<linearGradient id="SVGID_21_" gradientUnits="userSpaceOnUse" x1="283.2324" y1="116.0088" x2="283.2324" y2="117.0828">
			<stop  offset="0" style="stop-color:#E6E6E6"/>
			<stop  offset="0.0539" style="stop-color:#DDDDDD"/>
			<stop  offset="0.2029" style="stop-color:#CBCBCB"/>
			<stop  offset="0.3603" style="stop-color:#C0C0C0"/>
			<stop  offset="0.5385" style="stop-color:#BDBDBD"/>
			<stop  offset="0.6449" style="stop-color:#C2C2C2"/>
			<stop  offset="0.7716" style="stop-color:#D0D0D0"/>
			<stop  offset="0.9081" style="stop-color:#E8E8E8"/>
			<stop  offset="1" style="stop-color:#FCFCFC"/>
		</linearGradient>
		<path fill="url(#SVGID_21_)" d="M287.651,117.663c1.063-0.191,1.71-0.485,1.71-0.956c0-0.5-0.396-0.803-1.645-1.081l-10.612,0.073
			c0.581,0.12,1.012,0.367,1.012,0.855c0,0.278-0.087,0.483-0.247,0.636L287.651,117.663z"/>
		<linearGradient id="SVGID_22_" gradientUnits="userSpaceOnUse" x1="256.9229" y1="130.7773" x2="259.8984" y2="130.7773">
			<stop  offset="0.0165" style="stop-color:#878787"/>
			<stop  offset="0.0642" style="stop-color:#8A8A8A"/>
			<stop  offset="0.0934" style="stop-color:#919191"/>
			<stop  offset="0.4286" style="stop-color:#E0E0E0"/>
			<stop  offset="0.7692" style="stop-color:#9E9E9E"/>
			<stop  offset="1" style="stop-color:#ADADAD"/>
		</linearGradient>
		<path fill="url(#SVGID_22_)" d="M259.335,127.797c-0.149,0.678-0.451,1.886-1.129,1.886c-0.682,0-0.911-0.754-1.21-1.736
			l-0.073,3.923c0,0,0.376,1.856,1.283,1.887c1.129,0.037,1.692-3.321,1.692-3.321L259.335,127.797z"/>
		<path fill="none" stroke="#000000" stroke-width="1.8107" d="M271.217,90.611c-5.055-0.01-11.693,1.229-18.409,2.305
			c-6.713,1.078-6.938,1.691-8.443,3.304c-1.516,1.617-3.549,10.453-3.549,10.453s-0.98,4.15-1.812,4.15s-1.811-3.919-1.811-3.919
			s-2.037-7.07-2.864-9.453c-0.835-2.381-2.263-2.996-4.377-3.768c-2.116-0.767-9.507-1.611-11.394-1.842
			c-1.885-0.229-13.199-1.384-13.275-2.92c-0.073-1.537,13.73-2.611,13.73-2.611c7.011-0.693,10.938-1.54,13.274-2.998
			c2.343-1.46,3.925-7.379,4.529-9.376c0.602-1.997,1.582-4.301,2.11-4.301c0.531,0,1.137,1.456,2.037,4.533
			c0.907,3.074,2.638,8.147,6.037,9.682c3.393,1.535,7.926,1.768,12.823,2.383c0,0,5.851,1.13,12.034,0.977
			c6.188-0.149,10.035-1.207,12.451-1.583c2.412-0.377,6.938-1.133,8.367-4.451c1.436-3.318,2.867-8.147,3.928-8.223
			c1.053-0.073,2.711,5.282,2.711,5.282s1.206,5.205,5.284,6.109c4.07,0.906,10.486,2.416,13.807,2.866
			c3.315,0.455,4.372,0.756,4.372,1.662c0,0.903-4.445,1.357-4.445,1.357s-11.999,1.356-14.412,2.866
			c-2.415,1.509-3.851,2.565-5.662,10.713c-0.678,2.114-0.827,3.092-1.509,3.092c-0.678,0-1.811-3.395-3.166-8.071
			c-1.356-4.675-2.489-5.958-9.205-6.94C277.661,90.906,274.804,90.62,271.217,90.611z"/>
		<linearGradient id="SVGID_23_" gradientUnits="userSpaceOnUse" x1="249.0479" y1="81.4575" x2="256.9682" y2="89.2569">
			<stop  offset="0.0824" style="stop-color:#EDEDED"/>
			<stop  offset="0.2054" style="stop-color:#BCBCBC"/>
			<stop  offset="0.3242" style="stop-color:#919191"/>
			<stop  offset="0.5604" style="stop-color:#8C8C8C"/>
			<stop  offset="0.7582" style="stop-color:#999999"/>
		</linearGradient>
		<path fill="url(#SVGID_23_)" d="M264.998,87.908c-2.572-0.078-15.986-0.46-20.23-1.915c-0.41-0.166-0.782-0.365-1.134-0.61
			l2.347-2.08c0.33,0.243,0.682,0.452,1.057,0.622c3.413,1.533,7.957,1.761,12.886,2.374"/>
		<linearGradient id="SVGID_24_" gradientUnits="userSpaceOnUse" x1="241.2842" y1="103.5806" x2="263.5426" y2="85.3173">
			<stop  offset="0.0824" style="stop-color:#949494"/>
			<stop  offset="0.1639" style="stop-color:#7C7C7C"/>
			<stop  offset="0.3242" style="stop-color:#525252"/>
			<stop  offset="0.5604" style="stop-color:#4A4A4A"/>
			<stop  offset="0.7582" style="stop-color:#999999"/>
		</linearGradient>
		<path fill="url(#SVGID_24_)" d="M267.65,89.747c-2.503,0.077-16.445,1.304-20.161,1.533c-3.706,0.229-4.999,2.604-5.53,3.678
			c-0.532,1.071-2.041,8.504-2.197,9.118c-0.152,0.61-0.382,1.837-0.758,1.837v4.905c0.834,0,1.821-4.136,1.821-4.136
			s2.041-8.812,3.56-10.421c1.516-1.607,1.741-2.219,8.488-3.293c5.225-0.833,10.404-1.755,14.833-2.127L267.65,89.747z"/>
		<linearGradient id="SVGID_25_" gradientUnits="userSpaceOnUse" x1="232.4258" y1="96.5894" x2="243.1094" y2="115.121">
			<stop  offset="0" style="stop-color:#D9D9D9"/>
			<stop  offset="0.2033" style="stop-color:#6B6B6B"/>
			<stop  offset="0.206" style="stop-color:#6C6C6C"/>
			<stop  offset="0.4451" style="stop-color:#969696"/>
			<stop  offset="0.5604" style="stop-color:#969696"/>
			<stop  offset="0.7582" style="stop-color:#A8A8A8"/>
		</linearGradient>
		<path fill="url(#SVGID_25_)" d="M225.896,90.821c0,0,4.546,0.226,6.36,1.07c1.825,0.843,3.414,1.764,3.865,3.603
			c0.459,1.837,1.972,8.428,2.124,9.04c0.149,0.612,0.379,1.378,0.758,1.378c0.376,0,0.605-1.227,0.758-1.837l1.063,2.605
			c0,0-0.987,4.136-1.821,4.136s-1.817-3.909-1.817-3.909s-2.048-7.046-2.875-9.422c-0.841-2.375-2.28-2.989-4.4-3.756
			c-0.807-0.293-2.389-0.596-4.141-0.873L225.896,90.821z"/>
		<linearGradient id="SVGID_26_" gradientUnits="userSpaceOnUse" x1="237.9092" y1="107.6753" x2="240.1702" y2="107.6753">
			<stop  offset="0.2143" style="stop-color:#969696"/>
			<stop  offset="0.3626" style="stop-color:#ADADAD"/>
			<stop  offset="0.5055" style="stop-color:#C9C9C9"/>
			<stop  offset="0.7418" style="stop-color:#A3A3A3"/>
			<stop  offset="0.8846" style="stop-color:#9E9E9E"/>
		</linearGradient>
		<path fill="url(#SVGID_26_)" d="M238.246,104.534c0.149,0.612,0.379,1.378,0.758,1.378c0.289,0,0.486-0.686,0.626-1.29
			l0.205,5.155c-0.271,0.596-0.557,1.039-0.831,1.039c-0.271,0-0.56-0.419-0.831-0.987L238.246,104.534z"/>
		<linearGradient id="SVGID_27_" gradientUnits="userSpaceOnUse" x1="215.8936" y1="88.9297" x2="229.5421" y2="96.8913">
			<stop  offset="0" style="stop-color:#A8A8A8"/>
			<stop  offset="0.0879" style="stop-color:#6B6B6B"/>
			<stop  offset="0.3681" style="stop-color:#5E5E5E"/>
			<stop  offset="0.4626" style="stop-color:#626262"/>
			<stop  offset="0.5417" style="stop-color:#6C6C6C"/>
			<stop  offset="0.6149" style="stop-color:#7D7D7D"/>
			<stop  offset="0.6846" style="stop-color:#969696"/>
			<stop  offset="0.6868" style="stop-color:#969696"/>
			<stop  offset="0.8462" style="stop-color:#D9D9D9"/>
		</linearGradient>
		<path fill="url(#SVGID_27_)" d="M229.911,93.73c-2.121-0.766-9.549-1.609-11.443-1.839c-1.895-0.231-13.258-1.378-13.338-2.911
			c-0.08-1.533,13.793-2.605,13.793-2.605l0.379,1.455c-2.276,0.308-4.164,0.233-4.164,0.996c0,0.769,1.436,1.304,4.241,1.458
			c2.805,0.155,6.518,0.537,6.518,0.537s4.546,0.226,6.36,1.07L229.911,93.73z"/>
		<linearGradient id="SVGID_28_" gradientUnits="userSpaceOnUse" x1="205.1299" y1="79.3647" x2="240.9746" y2="79.3647">
			<stop  offset="0" style="stop-color:#A8A8A8"/>
			<stop  offset="1" style="stop-color:#FFFFFF"/>
		</linearGradient>
		<path fill="url(#SVGID_28_)" d="M205.13,88.98c-0.08-1.533,13.793-2.605,13.793-2.605c7.046-0.69,10.988-1.531,13.334-2.988
			c2.357-1.457,3.945-7.354,4.554-9.349c0.605-1.99,1.585-4.29,2.12-4.29c0.528,0,1.141,1.457,2.044,4.522l-0.758,3.217
			c-0.455-2.758-0.681-3.45-1.362-3.45c-0.685,0-1.14,2.072-1.516,3.909c-0.382,1.839-0.949,6.922-4.547,8.045
			c-3.941,1.223-6.139,1.607-13.49,1.837c-2.276,0.308-4.164,0.233-4.164,0.996L205.13,88.98z"/>
		<linearGradient id="SVGID_29_" gradientUnits="userSpaceOnUse" x1="238.959" y1="73.2808" x2="246.8181" y2="88.0812">
			<stop  offset="0" style="stop-color:#C7C7C7"/>
			<stop  offset="0.0824" style="stop-color:#BDBDBD"/>
			<stop  offset="0.1429" style="stop-color:#8C8C8C"/>
			<stop  offset="0.2151" style="stop-color:#7E7E7E"/>
			<stop  offset="0.3297" style="stop-color:#6B6B6B"/>
			<stop  offset="0.3907" style="stop-color:#595959"/>
			<stop  offset="0.544" style="stop-color:#2E2E2E"/>
			<stop  offset="0.5738" style="stop-color:#323232"/>
			<stop  offset="0.6042" style="stop-color:#3E3E3E"/>
			<stop  offset="0.6351" style="stop-color:#535353"/>
			<stop  offset="0.6661" style="stop-color:#707070"/>
			<stop  offset="0.6973" style="stop-color:#959595"/>
			<stop  offset="0.7283" style="stop-color:#C1C1C1"/>
			<stop  offset="0.7473" style="stop-color:#E0E0E0"/>
			<stop  offset="0.8901" style="stop-color:#FFFFFF"/>
		</linearGradient>
		<path fill="url(#SVGID_29_)" d="M244.768,85.993c-2.43-0.998-3.713-3.143-4.551-8.504c-0.455-2.758-0.681-3.45-1.362-3.45
			l0.076-4.29c0.528,0,1.141,1.457,2.044,4.522c0.907,3.064,2.652,8.118,6.063,9.653L244.768,85.993z"/>
		<path fill="none" d="M267.65,89.747c-2.503,0.063-16.445,1.304-20.161,1.533c-3.706,0.229-4.999,2.604-5.53,3.678
			c-0.532,1.071-2.041,8.504-2.197,9.118c-0.152,0.61-0.382,1.837-0.758,1.837c-0.379,0-0.608-0.766-0.758-1.378
			c-0.152-0.612-1.665-7.203-2.124-9.04c-0.451-1.839-2.04-2.76-3.865-3.603c-1.814-0.844-6.36-1.07-6.36-1.07
			s-3.713-0.382-6.518-0.537c-2.806-0.155-4.241-0.69-4.241-1.458c0-0.763,1.888-0.688,4.164-0.996
			c7.352-0.229,9.549-0.614,13.49-1.837c3.598-1.123,4.165-6.207,4.547-8.045c0.376-1.837,0.831-3.909,1.516-3.909
			c0.682,0,0.907,0.691,1.362,3.45c0.838,5.362,2.121,7.507,4.551,8.504c4.244,1.455,17.658,1.837,20.23,1.915
			c0,0,7.994,0.13,12.138-0.096c4.154-0.228,11.475-0.98,13.129-1.355c1.658-0.38,3.998-1.286,4.453-4.001
			c0.452-2.715,1.13-5.81,1.961-5.81c0.827,0,1.282,2.339,1.432,2.942c0,0,0.629,5.216,3.591,6.287
			c2.969,1.067,7.477,1.423,9.319,1.542c1.842,0.118,3.438,0.476,3.438,1.305c0,0.833-2.37,1.364-3.379,1.364
			c-1.004,0-6.229,0.179-8.071,1.01c-1.839,0.833-3.444,1.425-4.153,4.986c-0.713,3.561-1.071,4.749-1.071,4.749
			s-0.114,1.482-1.063,1.482c-0.956,0-1.192-1.9-1.192-1.9s-1.126-5.579-1.895-6.825c-0.771-1.246-1.664-3.027-8.964-3.262
			C277.365,90.086,274.133,89.583,267.65,89.747z"/>
		<linearGradient id="SVGID_30_" gradientUnits="userSpaceOnUse" x1="313.0674" y1="92.2529" x2="294.0586" y2="96.6091">
			<stop  offset="0" style="stop-color:#B8B8B8"/>
			<stop  offset="0.1073" style="stop-color:#A0A0A0"/>
			<stop  offset="0.3187" style="stop-color:#757575"/>
			<stop  offset="0.4341" style="stop-color:#767676"/>
			<stop  offset="0.5604" style="stop-color:#737373"/>
			<stop  offset="0.6297" style="stop-color:#787878"/>
			<stop  offset="0.7097" style="stop-color:#868686"/>
			<stop  offset="0.7747" style="stop-color:#969696"/>
		</linearGradient>
		<path fill="url(#SVGID_30_)" d="M298.854,96.082c0.709-3.561,2.314-4.154,4.153-4.986c1.843-0.831,7.067-1.01,8.071-1.01
			c1.009,0,3.379-0.532,3.379-1.364l8.321,0.148c0,0.903-4.445,1.357-4.445,1.357s-11.999,1.356-14.412,2.866
			c-1.811,1.131-3.072,2.007-4.352,5.813L298.854,96.082z"/>
		<linearGradient id="SVGID_31_" gradientUnits="userSpaceOnUse" x1="309.2813" y1="84.2329" x2="314.6995" y2="89.6511">
			<stop  offset="0" style="stop-color:#E6E6E6"/>
			<stop  offset="0.1017" style="stop-color:#C8C8C8"/>
			<stop  offset="0.2692" style="stop-color:#9C9C9C"/>
			<stop  offset="0.43" style="stop-color:#A6A6A6"/>
			<stop  offset="0.7532" style="stop-color:#B7B7B7"/>
			<stop  offset="1" style="stop-color:#BDBDBD"/>
		</linearGradient>
		<path fill="url(#SVGID_31_)" d="M301.701,85.875c2.969,1.067,7.477,1.423,9.319,1.542c1.842,0.118,3.438,0.476,3.438,1.305
			c0,0.833-2.37,1.364-3.379,1.364l7.255,0.141c0,0,4.445-0.454,4.445-1.357c0-0.906-1.057-1.207-4.372-1.662
			c-3.32-0.45-9.736-1.96-13.807-2.866L301.701,85.875z"/>
		<linearGradient id="SVGID_32_" gradientUnits="userSpaceOnUse" x1="296.3955" y1="75.3433" x2="302.5808" y2="89.5251">
			<stop  offset="0.1429" style="stop-color:#DEDEDE"/>
			<stop  offset="0.236" style="stop-color:#A0A0A0"/>
			<stop  offset="0.3077" style="stop-color:#757575"/>
			<stop  offset="0.5769" style="stop-color:#737373"/>
			<stop  offset="0.6174" style="stop-color:#787878"/>
			<stop  offset="0.6642" style="stop-color:#868686"/>
			<stop  offset="0.7143" style="stop-color:#9D9D9D"/>
			<stop  offset="0.7665" style="stop-color:#BDBDBD"/>
			<stop  offset="0.8187" style="stop-color:#E6E6E6"/>
		</linearGradient>
		<path fill="url(#SVGID_32_)" d="M305.205,86.754c-1.237-0.221-2.465-0.506-3.504-0.879c-2.962-1.071-3.591-6.287-3.591-6.287
			c-0.149-0.603-0.604-2.942-1.432-2.942c-0.831,0-1.509,3.095-1.961,5.81l-2.04-1.283c1.436-3.318,2.867-8.147,3.928-8.223
			c1.053-0.073,2.711,5.282,2.711,5.282s1.206,5.205,5.284,6.109c0.671,0.149,1.418,0.316,2.196,0.496L305.205,86.754z"/>
		<linearGradient id="SVGID_33_" gradientUnits="userSpaceOnUse" x1="258.96" y1="80.4482" x2="296.6787" y2="80.4482">
			<stop  offset="0.0824" style="stop-color:#999999"/>
			<stop  offset="0.1282" style="stop-color:#A4A4A4"/>
			<stop  offset="0.3242" style="stop-color:#CFCFCF"/>
			<stop  offset="0.5604" style="stop-color:#D9D9D9"/>
			<stop  offset="0.7582" style="stop-color:#E0E0E0"/>
		</linearGradient>
		<path fill="url(#SVGID_33_)" d="M296.605,72.951c-1.061,0.075-2.492,4.905-3.928,8.223c-1.429,3.318-5.955,4.074-8.367,4.451
			c-2.416,0.377-6.264,1.434-12.451,1.583c-6.184,0.153-12.034-0.977-12.034-0.977l-0.865,1.441
			c2.788,0.143,5.109,0.208,6.038,0.236c0,0,7.994,0.13,12.138-0.096c4.154-0.228,11.475-0.98,13.129-1.355
			c1.658-0.38,3.998-1.286,4.453-4.001c0.452-2.715,1.13-5.81,1.961-5.81L296.605,72.951z"/>
		<linearGradient id="SVGID_34_" gradientUnits="userSpaceOnUse" x1="295.8604" y1="75.1523" x2="297.397" y2="75.1523">
			<stop  offset="0" style="stop-color:#E3E3E3"/>
			<stop  offset="0.1097" style="stop-color:#DBDBDB"/>
			<stop  offset="0.2807" style="stop-color:#C5C5C5"/>
			<stop  offset="0.4505" style="stop-color:#A8A8A8"/>
			<stop  offset="0.6708" style="stop-color:#C8C8C8"/>
			<stop  offset="0.8242" style="stop-color:#E0E0E0"/>
		</linearGradient>
		<path fill="url(#SVGID_34_)" d="M295.99,77.355c0.215-0.443,0.444-0.709,0.688-0.709c0.284,0,0.521,0.271,0.716,0.652v-3.676
			c-0.274-0.422-0.55-0.69-0.789-0.671c-0.243,0.016-0.497,0.275-0.771,0.704L295.99,77.355z"/>
		<linearGradient id="SVGID_35_" gradientUnits="userSpaceOnUse" x1="295.3057" y1="100.5347" x2="300.0918" y2="100.5347">
			<stop  offset="0" style="stop-color:#BABABA"/>
			<stop  offset="0.1147" style="stop-color:#A0A0A0"/>
			<stop  offset="0.3187" style="stop-color:#757575"/>
			<stop  offset="0.4341" style="stop-color:#767676"/>
			<stop  offset="0.5604" style="stop-color:#737373"/>
			<stop  offset="0.6627" style="stop-color:#787878"/>
			<stop  offset="0.7747" style="stop-color:#858585"/>
		</linearGradient>
		<path fill="url(#SVGID_35_)" d="M300.092,97.513c-0.602,1.44-1.188,3.429-1.832,6.293c-0.678,2.114-0.827,3.092-1.509,3.092
			c-0.364,0-0.854-0.979-1.445-2.609l0.222-3.876c0,0,0.236,1.9,1.192,1.9c0.949,0,1.063-1.482,1.063-1.482s0.358-1.188,1.071-4.749
			c0.149-0.763,0.344-1.389,0.569-1.91L300.092,97.513z"/>
		<linearGradient id="SVGID_36_" gradientUnits="userSpaceOnUse" x1="261.8281" y1="94.271" x2="294.7598" y2="94.271">
			<stop  offset="0.0824" style="stop-color:#999999"/>
			<stop  offset="0.1746" style="stop-color:#7C7C7C"/>
			<stop  offset="0.3242" style="stop-color:#525252"/>
			<stop  offset="0.5604" style="stop-color:#404040"/>
			<stop  offset="0.7473" style="stop-color:#999999"/>
			<stop  offset="0.8681" style="stop-color:#D1D1D1"/>
		</linearGradient>
		<path fill="url(#SVGID_36_)" d="M294.76,97.017c-0.358-1.418-0.779-2.864-1.127-3.429c-0.771-1.246-1.664-3.027-8.964-3.262
			c-7.304-0.24-10.536-0.742-17.019-0.579c-0.869,0.021-3.111,0.184-5.822,0.396l0.149,1.307c3.382-0.494,6.538-0.845,9.239-0.839
			c3.587,0.009,6.444,0.295,13.163,1.276c6.716,0.982,7.849,2.265,9.205,6.94L294.76,97.017z"/>
		<linearGradient id="SVGID_37_" gradientUnits="userSpaceOnUse" x1="298.0283" y1="103.1641" x2="290.9009" y2="96.5457">
			<stop  offset="0" style="stop-color:#3B3B3B"/>
			<stop  offset="0.0258" style="stop-color:#3D3D3D"/>
			<stop  offset="0.2555" style="stop-color:#4C4C4C"/>
			<stop  offset="0.4396" style="stop-color:#525252"/>
			<stop  offset="0.4973" style="stop-color:#585858"/>
			<stop  offset="0.5737" style="stop-color:#686868"/>
			<stop  offset="0.6264" style="stop-color:#787878"/>
			<stop  offset="0.7473" style="stop-color:#999999"/>
			<stop  offset="0.8681" style="stop-color:#D1D1D1"/>
		</linearGradient>
		<path fill="url(#SVGID_37_)" d="M293.995,94.396c0.716,1.972,1.532,6.017,1.532,6.017s0.236,1.9,1.192,1.9l0.031,4.585
			c-0.678,0-1.811-3.395-3.166-8.071c-0.296-1.008-0.574-1.862-0.907-2.586L293.995,94.396z"/>
		<linearGradient id="SVGID_38_" gradientUnits="userSpaceOnUse" x1="210.7832" y1="88.0229" x2="210.7832" y2="89.9309">
			<stop  offset="0" style="stop-color:#BDBDBD"/>
			<stop  offset="0.4505" style="stop-color:#D9D9D9"/>
			<stop  offset="0.8242" style="stop-color:#A8A8A8"/>
		</linearGradient>
		<path fill="url(#SVGID_38_)" d="M207.251,90.126c-1.255-0.348-2.097-0.732-2.121-1.146c-0.017-0.398,0.9-0.765,2.273-1.088
			l9.034,0.254c-0.799,0.116-1.3,0.287-1.3,0.679c0,0.268,0.17,0.508,0.521,0.713L207.251,90.126z"/>
		<linearGradient id="SVGID_39_" gradientUnits="userSpaceOnUse" x1="238.3955" y1="72.019" x2="239.4111" y2="72.019">
			<stop  offset="0" style="stop-color:#FFFFFF"/>
			<stop  offset="0.4505" style="stop-color:#BFBFBF"/>
			<stop  offset="0.8242" style="stop-color:#C2C2C2"/>
		</linearGradient>
		<path fill="url(#SVGID_39_)" d="M238.458,74.289c0.122-0.16,0.254-0.25,0.396-0.25c0.202,0,0.365,0.063,0.504,0.221l0.053-4.14
			c-0.167-0.247-0.327-0.37-0.48-0.37c-0.152,0-0.333,0.181-0.535,0.485L238.458,74.289z"/>
		<path fill="none" stroke="#000000" stroke-width="1.8107" d="M100.043,57.674l-16.521,2.263c0,0-2.944,0.113-2.944,1.247
			c0,1.131,2.493,1.131,3.396,1.244c0.907,0.113,18.558,2.489,18.558,2.489s28.18,3.848,30.892,4.3
			c2.718,0.454,10.299,1.471,13.581,4.415c3.282,2.941,6.111,9.278,8.148,18.67c2.034,9.394,4.185,17.427,4.185,17.427
			s0.341,2.828,1.467,2.828c1.141,0,1.478-2.941,1.478-2.941s5.544-22.066,6.903-25.914c1.355-3.846,3.281-11.996,15.614-13.918
			c12.333-1.924,35.306-4.526,35.306-4.526s22.407-2.717,30.106-2.265c7.688,0.454,16.292,1.585,18.443,1.924
			c2.148,0.341,5.617,0.716,7.13,4.489c1.505,3.771,3.166,10.863,3.166,10.863s0.528,2.188,1.356,2.188
			c0.83,0,1.358-2.037,1.358-2.037s2.489-8.6,3.396-10.788c0.907-2.19,2.718-4.072,9.431-4.905
			c6.715-0.831,13.807-2.337,13.807-2.337s3.393-0.075,3.393-1.359c0-1.283-3.622-1.355-3.622-1.355l-15.392-2.491
			c0,0-6.185-0.452-7.766-4.526c-1.585-4.074-3.247-8.526-3.247-8.526s-0.302-1.81-1.206-1.81c-0.907,0-1.359,2.187-1.359,2.187
			s-1.811,6.262-3.243,8.299c-1.432,2.037-3.166,4.074-10.786,4.829c-7.619,0.754-11.616,1.583-14.634,1.66
			c-3.021,0.076-9.284,0.076-14.262-0.527c-4.975-0.603-37.19-4.527-37.19-4.527s-12.899-1.434-16.977-2.791
			c-4.07-1.357-10.035-1.585-14.634-15.995c-4.603-14.408-4.901-15.465-4.901-15.465s-0.383-2.638-1.669-2.638
			c-1.272,0-1.651,2.94-1.651,2.94s-5.134,16.675-7.55,21.652c-2.413,4.978-4.147,9.656-24.287,11.919
			C109.435,56.204,100.043,57.674,100.043,57.674z"/>
		<linearGradient id="SVGID_40_" gradientUnits="userSpaceOnUse" x1="96.3594" y1="62.876" x2="158.1458" y2="72.3816">
			<stop  offset="0" style="stop-color:#A8A8A8"/>
			<stop  offset="0.0879" style="stop-color:#6B6B6B"/>
			<stop  offset="0.3681" style="stop-color:#4D4D4D"/>
			<stop  offset="0.4521" style="stop-color:#505050"/>
			<stop  offset="0.5222" style="stop-color:#5A5A5A"/>
			<stop  offset="0.5875" style="stop-color:#6C6C6C"/>
			<stop  offset="0.6494" style="stop-color:#848484"/>
			<stop  offset="0.6868" style="stop-color:#969696"/>
			<stop  offset="0.8462" style="stop-color:#F0F0F0"/>
		</linearGradient>
		<path fill="url(#SVGID_40_)" d="M149.809,69.706c-2.263-1.62-4.783-2.195-7.105-2.638c-5.314-1.021-25.573-3.057-25.573-3.057
			l-20.029-1.696c0,0-3.852-0.341-3.852-1.245c0-0.905,3.852-1.02,3.852-1.02l-13.581-0.113c0,0-2.944,0.113-2.944,1.247
			c0,1.131,2.493,1.131,3.396,1.244c0.907,0.113,18.558,2.489,18.558,2.489s28.18,3.848,30.892,4.3
			c2.718,0.454,10.299,1.471,13.581,4.415L149.809,69.706z"/>
		<linearGradient id="SVGID_41_" gradientUnits="userSpaceOnUse" x1="80.5771" y1="39.2676" x2="162.4727" y2="39.2676">
			<stop  offset="0" style="stop-color:#A8A8A8"/>
			<stop  offset="0.6099" style="stop-color:#F0F0F0"/>
			<stop  offset="0.7363" style="stop-color:#FFFFFF"/>
			<stop  offset="0.8005" style="stop-color:#FBFBFB"/>
			<stop  offset="0.8712" style="stop-color:#EDEDED"/>
			<stop  offset="0.9447" style="stop-color:#D7D7D7"/>
			<stop  offset="1" style="stop-color:#C2C2C2"/>
		</linearGradient>
		<path fill="url(#SVGID_41_)" d="M162.473,19.99c0,0-0.383-2.638-1.669-2.638c-1.272,0-1.651,2.94-1.651,2.94
			s-5.134,16.675-7.55,21.652c-2.413,4.978-4.147,9.656-24.287,11.919c-17.881,2.339-27.273,3.81-27.273,3.81l-16.521,2.263
			c0,0-2.944,0.113-2.944,1.247l12.674-0.113c0-0.905,3.852-1.02,3.852-1.02l15.162-1.357c0,0,17.203-1.417,25.462-2.263
			c8.259-0.85,14.37-5.488,16.629-10.185c2.266-4.696,4.814-19.066,4.814-19.066s0.448-4.641,1.633-4.641
			c1.196,0,1.533,4.526,1.533,4.526L162.473,19.99z"/>
		<linearGradient id="SVGID_42_" gradientUnits="userSpaceOnUse" x1="159.1528" y1="37.3716" x2="195.6475" y2="37.3716">
			<stop  offset="0" style="stop-color:#CFCFCF"/>
			<stop  offset="0.0824" style="stop-color:#D9D9D9"/>
			<stop  offset="0.1429" style="stop-color:#6B6B6B"/>
			<stop  offset="0.1918" style="stop-color:#5F5F5F"/>
			<stop  offset="0.2857" style="stop-color:#4D4D4D"/>
			<stop  offset="0.3002" style="stop-color:#505050"/>
			<stop  offset="0.5165" style="stop-color:#7A7A7A"/>
			<stop  offset="0.5764" style="stop-color:#7F7F7F"/>
			<stop  offset="0.6378" style="stop-color:#8B8B8B"/>
			<stop  offset="0.6997" style="stop-color:#9F9F9F"/>
			<stop  offset="0.7619" style="stop-color:#BCBCBC"/>
			<stop  offset="0.8242" style="stop-color:#E0E0E0"/>
			<stop  offset="0.9725" style="stop-color:#EDEDED"/>
		</linearGradient>
		<path fill="url(#SVGID_42_)" d="M195.647,53.838c-4.112-0.521-10.887-1.47-13.64-2.388c-4.07-1.357-10.035-1.585-14.634-15.995
			c-4.603-14.408-4.901-15.465-4.901-15.465s-0.383-2.638-1.669-2.638c-1.272,0-1.651,2.94-1.651,2.94l0.018,6.886
			c0,0,0.448-4.641,1.633-4.641c0.793,0,1.21,1.978,1.401,3.318c0.094,0.688,0.143,1.125,0.143,1.125s0.056,0.362,0.167,0.852
			c0.612,2.717,2.714,11.9,3.674,15.639c1.126,4.415,4.24,8.94,9.273,11.035c5.037,2.094,17.092,2.83,19.24,2.885L195.647,53.838z"
			/>
		<linearGradient id="SVGID_43_" gradientUnits="userSpaceOnUse" x1="159.7749" y1="20.647" x2="161.8989" y2="20.647">
			<stop  offset="0" style="stop-color:#D4D4D4"/>
			<stop  offset="0.5275" style="stop-color:#9E9E9E"/>
			<stop  offset="0.8242" style="stop-color:#D9D9D9"/>
		</linearGradient>
		<path fill="url(#SVGID_43_)" d="M159.799,23.911c0.25-0.77,0.584-1.373,1.004-1.373c0.449,0,0.772,0.621,1.001,1.404l0.094-5.754
			c-0.254-0.466-0.605-0.836-1.095-0.836c-0.445,0-0.782,0.363-1.029,0.836L159.799,23.911z"/>
		<linearGradient id="SVGID_44_" gradientUnits="userSpaceOnUse" x1="271.2832" y1="44.5146" x2="264.2303" y2="57.641">
			<stop  offset="0" style="stop-color:#D1D1D1"/>
			<stop  offset="0.6209" style="stop-color:#FFFFFF"/>
			<stop  offset="0.7991" style="stop-color:#D6D6D6"/>
			<stop  offset="1" style="stop-color:#ABABAB"/>
		</linearGradient>
		<path fill="url(#SVGID_44_)" d="M281.707,49.603c-0.306-1.585-0.49-2.982-1.248-2.982s-1.099,1.849-1.32,3.021
			c-0.227,1.168-0.939,6.147-2.903,7.467c-1.964,1.321-5.735,2.299-10.185,2.527s-13.845,0.603-16.372,0.603l0.758-0.942
			c3.018-0.077,7.015-0.905,14.634-1.66c7.62-0.754,9.354-2.792,10.786-4.829c1.433-2.037,3.243-8.299,3.243-8.299
			s0.452-2.187,1.359-2.187c0.904,0,1.206,1.81,1.206,1.81L281.707,49.603z"/>
		<linearGradient id="SVGID_45_" gradientUnits="userSpaceOnUse" x1="299.2412" y1="55.9863" x2="301.1282" y2="67.0409">
			<stop  offset="0.0659" style="stop-color:#FFFFFF"/>
			<stop  offset="0.2637" style="stop-color:#8C8C8C"/>
			<stop  offset="0.3083" style="stop-color:#777777"/>
			<stop  offset="0.4066" style="stop-color:#4D4D4D"/>
			<stop  offset="0.6394" style="stop-color:#494949"/>
			<stop  offset="0.6868" style="stop-color:#474747"/>
			<stop  offset="1" style="stop-color:#EBEBEB"/>
		</linearGradient>
		<path fill="url(#SVGID_45_)" d="M288.103,58.682c1.62,0.361,3.323,0.474,4.575,0.575c2.339,0.189,7.209,0.719,7.209,0.719
			s2.718,0.224,2.718,1.017c0,0.792-2.606,1.095-2.606,1.095l8.301,0.301c0,0,3.393-0.075,3.393-1.359
			c0-1.283-3.622-1.355-3.622-1.355l-15.392-2.491c0,0-0.682-0.048-1.655-0.268L288.103,58.682z"/>
		<linearGradient id="SVGID_46_" gradientUnits="userSpaceOnUse" x1="286.1855" y1="62.0591" x2="279.3957" y2="88.1992">
			<stop  offset="0.0604" style="stop-color:#E0E0E0"/>
			<stop  offset="0.2582" style="stop-color:#EBEBEB"/>
			<stop  offset="0.2667" style="stop-color:#E4E4E4"/>
			<stop  offset="0.4092" style="stop-color:#787878"/>
			<stop  offset="0.4725" style="stop-color:#4D4D4D"/>
			<stop  offset="0.6701" style="stop-color:#4D4D4D"/>
			<stop  offset="0.6868" style="stop-color:#4D4D4D"/>
			<stop  offset="1" style="stop-color:#5E5E5E"/>
		</linearGradient>
		<path fill="url(#SVGID_46_)" d="M284.567,65.142c-1.696,1.47-2.256,6.186-2.412,7.093c-0.149,0.905-0.827,3.921-0.827,3.921
			s-0.264,1.474-0.827,1.474l-0.194,4.826c0.83,0,1.358-2.037,1.358-2.037s2.489-8.6,3.396-10.788
			c0.295-0.718,0.691-1.404,1.324-2.03L284.567,65.142z"/>
		<linearGradient id="SVGID_47_" gradientUnits="userSpaceOnUse" x1="170.8945" y1="75.1523" x2="159.2397" y2="114.6432">
			<stop  offset="0" style="stop-color:#BDBDBD"/>
			<stop  offset="0.2253" style="stop-color:#828282"/>
			<stop  offset="0.2596" style="stop-color:#777777"/>
			<stop  offset="0.4066" style="stop-color:#4D4D4D"/>
			<stop  offset="0.4804" style="stop-color:#505050"/>
			<stop  offset="0.5421" style="stop-color:#5A5A5A"/>
			<stop  offset="0.5995" style="stop-color:#6C6C6C"/>
			<stop  offset="0.6539" style="stop-color:#848484"/>
			<stop  offset="0.6868" style="stop-color:#969696"/>
			<stop  offset="1" style="stop-color:#9C9C9C"/>
		</linearGradient>
		<path fill="url(#SVGID_47_)" d="M160.804,106.22c1.366,0,1.478-3.058,1.478-3.058s2.947-17.992,3.393-20.14
			c0.452-2.15,1.922-9.393,5.089-12.109l3.428,3.657c-3.209,3.099-4.206,6.862-5.006,9.13c-1.359,3.848-6.903,25.914-6.903,25.914
			s-0.337,2.941-1.478,2.941V106.22z"/>
		<linearGradient id="SVGID_48_" gradientUnits="userSpaceOnUse" x1="150.5659" y1="79.124" x2="158.0341" y2="118.0489">
			<stop  offset="0" style="stop-color:#B5B5B5"/>
			<stop  offset="0.2253" style="stop-color:#6B6B6B"/>
			<stop  offset="0.4066" style="stop-color:#4D4D4D"/>
			<stop  offset="0.4804" style="stop-color:#505050"/>
			<stop  offset="0.5421" style="stop-color:#5A5A5A"/>
			<stop  offset="0.5995" style="stop-color:#6C6C6C"/>
			<stop  offset="0.6539" style="stop-color:#848484"/>
			<stop  offset="0.6868" style="stop-color:#969696"/>
			<stop  offset="1" style="stop-color:#C2C2C2"/>
		</linearGradient>
		<path fill="url(#SVGID_48_)" d="M162.281,103.163c0,0-0.111,3.058-1.478,3.058c-1.352,0-1.352-3.058-1.352-3.058
			s-1.244-6.674-3.167-20.027c-1.929-13.353-8.263-15.051-13.581-16.068l-0.792,3.971c1.988,0.633,3.848,1.474,5.092,2.591
			c3.282,2.941,6.111,9.278,8.148,18.67c2.034,9.394,4.185,17.427,4.185,17.427s0.341,2.828,1.467,2.828
			c1.141,0,1.478-2.941,1.478-2.941V103.163z"/>
		<linearGradient id="SVGID_49_" gradientUnits="userSpaceOnUse" x1="159.9043" y1="108.7358" x2="161.7176" y2="108.7358">
			<stop  offset="0" style="stop-color:#999999"/>
			<stop  offset="0.4505" style="stop-color:#E6E6E6"/>
			<stop  offset="0.8242" style="stop-color:#A3A3A3"/>
		</linearGradient>
		<path fill="url(#SVGID_49_)" d="M159.646,111.135c0.226,0.709,0.594,1.42,1.157,1.42c0.518,0,0.873-0.61,1.102-1.276l0.045-6.231
			c-0.216,0.627-0.567,1.172-1.147,1.172c-0.604,0-0.945-0.623-1.126-1.304L159.646,111.135z"/>
		<linearGradient id="SVGID_50_" gradientUnits="userSpaceOnUse" x1="88.8398" y1="59.8232" x2="88.8398" y2="62.4647">
			<stop  offset="0" style="stop-color:#A8A8A8"/>
			<stop  offset="0.0434" style="stop-color:#B2B2B2"/>
			<stop  offset="0.2581" style="stop-color:#DCDCDC"/>
			<stop  offset="0.4268" style="stop-color:#F5F5F5"/>
			<stop  offset="0.5275" style="stop-color:#FFFFFF"/>
			<stop  offset="0.6462" style="stop-color:#EBEBEB"/>
			<stop  offset="0.8878" style="stop-color:#B8B8B8"/>
			<stop  offset="1" style="stop-color:#9E9E9E"/>
		</linearGradient>
		<path fill="url(#SVGID_50_)" d="M97.103,62.314c0,0-3.852-0.341-3.852-1.245c0-0.905,3.852-1.02,3.852-1.02l-13.581-0.113
			c0,0-2.944,0.113-2.944,1.247c0,1.131,2.493,1.131,3.396,1.244L97.103,62.314z"/>
		<linearGradient id="SVGID_51_" gradientUnits="userSpaceOnUse" x1="177.6895" y1="79.8115" x2="231.7894" y2="54.6856">
			<stop  offset="0" style="stop-color:#BDBDBD"/>
			<stop  offset="0.2637" style="stop-color:#6B6B6B"/>
			<stop  offset="0.4066" style="stop-color:#4D4D4D"/>
			<stop  offset="0.6394" style="stop-color:#494949"/>
			<stop  offset="0.6868" style="stop-color:#474747"/>
			<stop  offset="1" style="stop-color:#545454"/>
		</linearGradient>
		<path fill="url(#SVGID_51_)" d="M173.818,74.943c2.235-2.319,5.628-4.326,10.98-5.16c12.333-1.924,35.306-4.526,35.306-4.526
			s11.662-1.413,21.048-2.032l0.118-1.364c-4.415,0-35.424,2.716-50.135,3.733c-14.711,1.019-17.196,2.604-20.373,5.32
			L173.818,74.943z"/>
		<linearGradient id="SVGID_52_" gradientUnits="userSpaceOnUse" x1="275.0938" y1="67.1045" x2="253.0663" y2="63.0308">
			<stop  offset="0" style="stop-color:#BFBFBF"/>
			<stop  offset="0.2637" style="stop-color:#737373"/>
			<stop  offset="0.4066" style="stop-color:#4D4D4D"/>
			<stop  offset="0.6394" style="stop-color:#494949"/>
			<stop  offset="0.6868" style="stop-color:#474747"/>
			<stop  offset="1" style="stop-color:#545454"/>
		</linearGradient>
		<path fill="url(#SVGID_52_)" d="M274.592,67.433c-1.728-1.957-4.244-2.25-5.938-2.517c-2.151-0.339-10.755-1.47-18.443-1.924
			c-2.614-0.153-6.917,0.057-11.471,0.403l-0.149-1.423c1.227-0.073,2.147-0.111,2.68-0.111c4.407,0,10.978,0,17.085,0.454
			c6.11,0.452,13.24,0.565,16.521,2.037c0.751,0.343,1.352,0.934,1.832,1.645L274.592,67.433z"/>
		<linearGradient id="SVGID_53_" gradientUnits="userSpaceOnUse" x1="275.957" y1="64" x2="280.1459" y2="81.7851">
			<stop  offset="0" style="stop-color:#D1D1D1"/>
			<stop  offset="0.2418" style="stop-color:#9C9C9C"/>
			<stop  offset="0.3284" style="stop-color:#777777"/>
			<stop  offset="0.4396" style="stop-color:#4D4D4D"/>
			<stop  offset="0.645" style="stop-color:#494949"/>
			<stop  offset="0.6868" style="stop-color:#474747"/>
			<stop  offset="1" style="stop-color:#4D4D4D"/>
		</linearGradient>
		<path fill="url(#SVGID_53_)" d="M274.153,66.988c0.65,0.594,1.214,1.376,1.631,2.417c1.505,3.771,3.166,10.863,3.166,10.863
			s0.528,2.188,1.356,2.188c0.83,0,1.358-2.037,1.358-2.037l-0.337-4.263c0,0-0.264,1.474-0.827,1.474
			c-0.57,0-0.682-0.793-0.907-1.474c-0.233-0.678-0.646-2.868-0.869-3.883c-0.191-0.85-0.615-4.817-2.517-6.924L274.153,66.988z"/>
		<linearGradient id="SVGID_54_" gradientUnits="userSpaceOnUse" x1="279.3252" y1="79.3062" x2="281.4373" y2="79.3062">
			<stop  offset="0" style="stop-color:#4A4A4A"/>
			<stop  offset="0.1028" style="stop-color:#4D4D4D"/>
			<stop  offset="0.1881" style="stop-color:#575757"/>
			<stop  offset="0.267" style="stop-color:#696969"/>
			<stop  offset="0.3421" style="stop-color:#818181"/>
			<stop  offset="0.4146" style="stop-color:#A0A0A0"/>
			<stop  offset="0.4841" style="stop-color:#C6C6C6"/>
			<stop  offset="0.5055" style="stop-color:#D4D4D4"/>
			<stop  offset="0.5481" style="stop-color:#CACACA"/>
			<stop  offset="0.6198" style="stop-color:#B0B0B0"/>
			<stop  offset="0.711" style="stop-color:#868686"/>
			<stop  offset="0.7527" style="stop-color:#707070"/>
			<stop  offset="0.9396" style="stop-color:#4F4F4F"/>
		</linearGradient>
		<path fill="url(#SVGID_54_)" d="M278.95,80.268c0,0,0.528,2.188,1.356,2.188c0.83,0,1.358-2.037,1.358-2.037l-0.337-4.263
			c0,0-0.264,1.474-0.827,1.474c-0.57,0-0.682-0.793-0.907-1.474L278.95,80.268z"/>
		<linearGradient id="SVGID_55_" gradientUnits="userSpaceOnUse" x1="285.8818" y1="66.0659" x2="303.9477" y2="61.8045">
			<stop  offset="0" style="stop-color:#E6E6E6"/>
			<stop  offset="0.2308" style="stop-color:#737373"/>
			<stop  offset="0.4505" style="stop-color:#4D4D4D"/>
			<stop  offset="0.6319" style="stop-color:#474747"/>
			<stop  offset="0.6923" style="stop-color:#666666"/>
			<stop  offset="0.7893" style="stop-color:#929292"/>
			<stop  offset="0.8763" style="stop-color:#B2B2B2"/>
			<stop  offset="0.9496" style="stop-color:#C5C5C5"/>
			<stop  offset="1" style="stop-color:#CCCCCC"/>
		</linearGradient>
		<path fill="url(#SVGID_55_)" d="M286.014,68.008c0.129-0.158,0.271-0.309,0.428-0.458c1.304-1.258,3.594-2.27,8.051-2.823
			c6.715-0.831,13.807-2.337,13.807-2.337s3.393-0.075,3.393-1.359l-9.087-0.036c0,0.792-2.606,1.095-2.606,1.095
			s-2.374,0.603-6.827,0.904c-4.449,0.302-6.903,0.68-8.604,2.15c-0.094,0.083-0.184,0.177-0.271,0.28L286.014,68.008z"/>
		<linearGradient id="SVGID_56_" gradientUnits="userSpaceOnUse" x1="306.5576" y1="61.8018" x2="306.5295" y2="60.2599">
			<stop  offset="0" style="stop-color:#C9C9C9"/>
			<stop  offset="0.2457" style="stop-color:#C6C6C6"/>
			<stop  offset="0.4489" style="stop-color:#BCBCBC"/>
			<stop  offset="0.5055" style="stop-color:#B8B8B8"/>
			<stop  offset="0.5541" style="stop-color:#AEAEAE"/>
			<stop  offset="0.6358" style="stop-color:#949494"/>
			<stop  offset="0.7253" style="stop-color:#707070"/>
			<stop  offset="0.9396" style="stop-color:#4F4F4F"/>
		</linearGradient>
		<path fill="url(#SVGID_56_)" d="M301.381,60.22c0.626,0.156,1.224,0.401,1.224,0.773c0,0.255-0.274,0.458-0.64,0.619l9.125,0.212
			c0.354-0.193,0.602-0.45,0.602-0.794c0-0.747-1.234-1.084-2.26-1.234L301.381,60.22z"/>
		<linearGradient id="SVGID_57_" gradientUnits="userSpaceOnUse" x1="288.249" y1="58.0591" x2="282.3271" y2="44.2149">
			<stop  offset="0" style="stop-color:#FFFFFF"/>
			<stop  offset="0.1264" style="stop-color:#A6A6A6"/>
			<stop  offset="0.2743" style="stop-color:#777777"/>
			<stop  offset="0.4231" style="stop-color:#4D4D4D"/>
			<stop  offset="0.7308" style="stop-color:#474747"/>
			<stop  offset="0.9916" style="stop-color:#515151"/>
			<stop  offset="1" style="stop-color:#525252"/>
		</linearGradient>
		<path fill="url(#SVGID_57_)" d="M280.459,46.62c0.758,0,0.942,1.397,1.248,2.982c0.299,1.583,0.751,5.619,2.75,7.43
			c1.063,0.959,2.651,1.472,4.261,1.772l2.973-1.755c-1.818-0.318-5.593-1.338-6.778-4.392c-1.585-4.074-3.247-8.526-3.247-8.526
			s-0.302-1.81-1.206-1.81V46.62z"/>
		<linearGradient id="SVGID_58_" gradientUnits="userSpaceOnUse" x1="279.2871" y1="44.7949" x2="281.2881" y2="44.7949">
			<stop  offset="0" style="stop-color:#D4D4D4"/>
			<stop  offset="0.2026" style="stop-color:#D0D0D0"/>
			<stop  offset="0.3703" style="stop-color:#C6C6C6"/>
			<stop  offset="0.5055" style="stop-color:#B8B8B8"/>
			<stop  offset="0.5466" style="stop-color:#AEAEAE"/>
			<stop  offset="0.6157" style="stop-color:#949494"/>
			<stop  offset="0.7036" style="stop-color:#6A6A6A"/>
			<stop  offset="0.7253" style="stop-color:#5E5E5E"/>
			<stop  offset="0.9396" style="stop-color:#4D4D4D"/>
		</linearGradient>
		<path fill="url(#SVGID_58_)" d="M279.813,42.732c0.178-0.243,0.396-0.41,0.646-0.41c0.296,0,0.528,0.195,0.706,0.457l-0.028,4.442
			c-0.163-0.375-0.372-0.601-0.678-0.601c-0.285,0-0.511,0.262-0.691,0.648L279.813,42.732z"/>
		<linearGradient id="SVGID_59_" gradientUnits="userSpaceOnUse" x1="190.1055" y1="55.2603" x2="250.4239" y2="59.5607">
			<stop  offset="0" style="stop-color:#E8E8E8"/>
			<stop  offset="0.6209" style="stop-color:#FFFFFF"/>
			<stop  offset="0.7991" style="stop-color:#D6D6D6"/>
			<stop  offset="1" style="stop-color:#ABABAB"/>
		</linearGradient>
		<path fill="url(#SVGID_59_)" d="M256.662,58.635c-2.652,0.355-4.585,0.619-6.226,0.661c-3.021,0.076-9.284,0.076-14.262-0.527
			c-4.975-0.603-37.19-4.527-37.19-4.527s-1.953-0.217-4.581-0.563l-0.098,3.77c2.148,0.056,32.289,2.187,37.082,2.414
			c4.787,0.228,15.765,0.375,18.291,0.375c1.23,0,4.085-0.088,7.206-0.205L256.662,58.635z"/>
		<linearGradient id="SVGID_60_" gradientUnits="userSpaceOnUse" x1="295.3057" y1="103.6558" x2="298.2598" y2="103.6558">
			<stop  offset="0.0275" style="stop-color:#4A4A4A"/>
			<stop  offset="0.0894" style="stop-color:#575757"/>
			<stop  offset="0.2055" style="stop-color:#7B7B7B"/>
			<stop  offset="0.3571" style="stop-color:#B2B2B2"/>
			<stop  offset="0.489" style="stop-color:#D4D4D4"/>
			<stop  offset="0.55" style="stop-color:#C7C7C7"/>
			<stop  offset="0.6618" style="stop-color:#A5A5A5"/>
			<stop  offset="0.7198" style="stop-color:#919191"/>
			<stop  offset="0.8736" style="stop-color:#757575"/>
		</linearGradient>
		<path fill="url(#SVGID_60_)" d="M295.527,100.413c0,0,0.236,1.9,1.192,1.9c0.949,0,1.063-1.482,1.063-1.482l0.477,2.975
			c-0.678,2.114-0.827,3.092-1.509,3.092c-0.364,0-0.854-0.979-1.445-2.609L295.527,100.413z"/>
		<radialGradient id="SVGID_61_" cx="149.2109" cy="52.7217" r="107.6706" gradientUnits="userSpaceOnUse">
			<stop  offset="0.0714" style="stop-color:#FFFFFF"/>
			<stop  offset="0.075" style="stop-color:#FDFDFD"/>
			<stop  offset="0.144" style="stop-color:#D5D5D5"/>
			<stop  offset="0.2073" style="stop-color:#B8B8B8"/>
			<stop  offset="0.2621" style="stop-color:#A7A7A7"/>
			<stop  offset="0.3022" style="stop-color:#A1A1A1"/>
			<stop  offset="0.3748" style="stop-color:#8F8F8F"/>
			<stop  offset="0.483" style="stop-color:#7D7D7D"/>
			<stop  offset="0.5947" style="stop-color:#717171"/>
			<stop  offset="0.7143" style="stop-color:#6E6E6E"/>
			<stop  offset="1" style="stop-color:#696969"/>
		</radialGradient>
		<path fill="url(#SVGID_61_)" d="M112.265,58.692L97.103,60.05c0,0-3.852,0.115-3.852,1.02c0,0.904,3.852,1.245,3.852,1.245
			l20.029,1.696c0,0,20.258,2.037,25.573,3.057c5.318,1.017,11.652,2.715,13.581,16.068c1.922,13.353,3.167,20.027,3.167,20.027
			s0,3.058,1.352,3.058c1.366,0,1.478-3.058,1.478-3.058s2.947-17.992,3.393-20.14c0.452-2.15,1.922-9.393,5.089-12.109
			c3.177-2.717,5.662-4.302,20.373-5.32c14.711-1.017,45.72-3.733,50.135-3.733c4.407,0,10.978,0,17.085,0.454
			c6.11,0.452,13.24,0.565,16.521,2.037c3.055,1.394,3.618,6.903,3.848,7.922c0.223,1.015,0.636,3.205,0.869,3.883
			c0.226,0.681,0.337,1.474,0.907,1.474c0.563,0,0.827-1.474,0.827-1.474s0.678-3.016,0.827-3.921
			c0.156-0.907,0.716-5.623,2.412-7.093c1.7-1.47,4.154-1.848,8.604-2.15c4.453-0.301,6.827-0.904,6.827-0.904
			s2.606-0.302,2.606-1.095c0-0.793-2.718-1.017-2.718-1.017s-4.87-0.53-7.209-0.719c-2.336-0.186-6.219-0.414-8.221-2.225
			c-1.999-1.811-2.451-5.847-2.75-7.43c-0.306-1.585-0.49-2.982-1.248-2.982s-1.099,1.849-1.32,3.021
			c-0.227,1.168-0.939,6.147-2.903,7.467c-1.964,1.321-5.735,2.299-10.185,2.527s-13.845,0.603-16.372,0.603
			c-2.526,0-13.504-0.147-18.291-0.375c-4.793-0.228-34.534-2.414-36.686-2.471c-2.148-0.056-14.203-0.791-19.24-2.885
			c-5.033-2.094-8.147-6.62-9.273-11.035c-1.137-4.411-3.761-16.48-3.761-16.48s-0.598-4.494-1.624-4.453
			c-1.182,0.049-1.633,4.641-1.633,4.641s-2.548,14.37-4.814,19.066c-2.259,4.696-8.37,9.335-16.629,10.185
			C129.468,57.276,112.265,58.692,112.265,58.692z"/>
		<linearGradient id="SVGID_62_" gradientUnits="userSpaceOnUse" x1="256.4912" y1="77.5439" x2="280.9335" y2="110.5863">
			<stop  offset="0" style="stop-color:#ADADAD"/>
			<stop  offset="0.0918" style="stop-color:#999999"/>
			<stop  offset="0.1538" style="stop-color:#919191"/>
			<stop  offset="0.1679" style="stop-color:#8F8F8F"/>
			<stop  offset="0.3421" style="stop-color:#7D7D7D"/>
			<stop  offset="0.5219" style="stop-color:#717171"/>
			<stop  offset="0.7143" style="stop-color:#6E6E6E"/>
			<stop  offset="1" style="stop-color:#8A8A8A"/>
		</linearGradient>
		<path fill="url(#SVGID_62_)" d="M267.65,89.747c-2.503,0.063-16.445,1.304-20.161,1.533c-3.706,0.229-4.999,2.604-5.53,3.678
			c-0.532,1.071-2.041,8.504-2.197,9.118c-0.152,0.61-0.382,1.837-0.758,1.837c-0.379,0-0.608-0.766-0.758-1.378
			c-0.152-0.612-1.665-7.203-2.124-9.04c-0.451-1.839-2.04-2.76-3.865-3.603c-1.814-0.844-6.36-1.07-6.36-1.07
			s-3.713-0.382-6.518-0.537c-2.806-0.155-4.241-0.69-4.241-1.458c0-0.763,1.888-0.688,4.164-0.996
			c7.352-0.229,9.549-0.614,13.49-1.837c3.598-1.123,4.165-6.207,4.547-8.045c0.376-1.837,0.831-3.909,1.516-3.909
			c0.682,0,0.907,0.691,1.362,3.45c0.838,5.362,2.121,7.507,4.551,8.504c4.244,1.455,17.658,1.837,20.23,1.915
			c0,0,7.994,0.13,12.138-0.096c4.154-0.228,11.475-0.98,13.129-1.355c1.658-0.38,3.998-1.286,4.453-4.001
			c0.452-2.715,1.13-5.81,1.961-5.81c0.827,0,1.282,2.339,1.432,2.942c0,0,0.629,5.216,3.591,6.287
			c2.969,1.067,7.477,1.423,9.319,1.542c1.842,0.118,3.438,0.476,3.438,1.305c0,0.833-2.37,1.364-3.379,1.364
			c-1.004,0-6.229,0.179-8.071,1.01c-1.839,0.833-3.444,1.425-4.153,4.986c-0.713,3.561-1.071,4.749-1.071,4.749
			s-0.114,1.482-1.063,1.482c-0.956,0-1.192-1.9-1.192-1.9s-1.126-5.579-1.895-6.825c-0.771-1.246-1.664-3.027-8.964-3.262
			C277.365,90.086,274.133,89.583,267.65,89.747z"/>
	</g>
	<linearGradient id="SVGID_63_" gradientUnits="userSpaceOnUse" x1="255.6182" y1="139.1011" x2="243.0936" y2="129.7446">
		<stop  offset="0" style="stop-color:#E6E6E6"/>
		<stop  offset="0.2444" style="stop-color:#C6C6C6"/>
		<stop  offset="0.564" style="stop-color:#A4A4A4"/>
		<stop  offset="0.8273" style="stop-color:#8F8F8F"/>
		<stop  offset="1" style="stop-color:#878787"/>
	</linearGradient>
	<path fill="url(#SVGID_63_)" d="M183.742,118.744c0,0,4.529,0.224,6.34,1.055c1.808,0.829,3.393,1.735,3.845,3.546
		c0.452,1.809,1.964,8.297,2.113,8.9c0.149,0.604,0.379,1.361,0.755,1.361c0.375,0,0.602-1.208,0.754-1.811
		c0.153-0.603,1.658-7.922,2.19-8.977c0.528-1.059,1.811-3.394,5.506-3.622c3.694-0.226,17.578-1.436,20.067-1.508
		c2.488-0.075,16.977,0.377,20.445,0.678s8.37,0.603,9.504,3.319c1.133,2.717,1.432,5.279,1.734,6.262
		c0.299,0.982,0.528,1.736,1.21,1.736c0.678,0,0.979-1.208,1.129-1.886c0.149-0.68,0.98-7.999,4.905-8.754
		c3.924-0.752,10.031-1.279,11.391-1.355c1.359-0.075,2.485-0.151,2.485-1.133c0-0.98-1.734-0.98-2.867-0.98
		c-1.127,0-8.443-0.377-11.314-1.508c-2.864-1.13-3.922-3.094-4.6-7.394c-0.229-1.283-0.754-2.414-1.358-2.414
		c-0.602,0-1.13,1.434-1.359,2.491c-0.223,1.055-0.146,4.751-2.562,6.335c-2.413,1.585-4.981,2.113-13.355,2.567
		c-8.37,0.452-15.465,0.299-18.026,0.226c-2.569-0.077-15.92-0.454-20.144-1.888c-2.416-0.979-3.698-3.09-4.529-8.374
		c-0.452-2.715-0.678-3.395-1.355-3.395c-0.682,0-1.134,2.037-1.513,3.848c-0.375,1.811-0.938,6.818-4.521,7.92
		c-3.925,1.208-6.111,1.585-13.429,1.811c-2.263,0.302-4.153,0.228-4.153,0.982s1.436,1.281,4.227,1.434
		C180.047,118.365,183.742,118.744,183.742,118.744z"/>
	<linearGradient id="SVGID_64_" gradientUnits="userSpaceOnUse" x1="318.123" y1="87.8311" x2="318.123" y2="89.6429">
		<stop  offset="0" style="stop-color:#C2C2C2"/>
		<stop  offset="0.1258" style="stop-color:#BABABA"/>
		<stop  offset="0.3218" style="stop-color:#A4A4A4"/>
		<stop  offset="0.4505" style="stop-color:#919191"/>
		<stop  offset="0.7154" style="stop-color:#B1B1B1"/>
		<stop  offset="0.8242" style="stop-color:#BFBFBF"/>
	</linearGradient>
	<path fill="url(#SVGID_64_)" d="M314.114,88.129c0.226,0.165,0.344,0.36,0.344,0.593c0,0.351-0.421,0.65-0.99,0.879l6.896,0.325
		c1.171-0.228,2.415-0.579,2.415-1.057c0-0.659-0.553-0.994-2.12-1.306L314.114,88.129z"/>
</g>
</svg>
