<?xml version="1.0" encoding="UTF-8" standalone="no"?>
<!-- Created with Inkscape (http://www.inkscape.org/) -->
<svg xmlns:dc="http://purl.org/dc/elements/1.1/" xmlns:cc="http://creativecommons.org/ns#" xmlns:rdf="http://www.w3.org/1999/02/22-rdf-syntax-ns#" xmlns:svg="http://www.w3.org/2000/svg" xmlns="http://www.w3.org/2000/svg" xmlns:sodipodi="http://sodipodi.sourceforge.net/DTD/sodipodi-0.dtd" xmlns:inkscape="http://www.inkscape.org/namespaces/inkscape" id="svg2985" version="1.1" inkscape:version="0.48.2 r9819" width="1000" height="496.0043" viewBox="0 0 1000 496.0043" xml:space="preserve" sodipodi:docname="vaux99-sus-uk.pdf"><metadata id="metadata2991"><rdf:RDF><cc:Work rdf:about=""><dc:format>image/svg+xml</dc:format><dc:type rdf:resource="http://purl.org/dc/dcmitype/StillImage"/><dc:title/></cc:Work></rdf:RDF></metadata><defs id="defs2989"><clipPath clipPathUnits="userSpaceOnUse" id="clipPath3003"><path d="m 21.6,806.394 549.9,0 0,-772.2 -549.9,0 0,772.2 z" id="path3005" inkscape:connector-curvature="0"/></clipPath><clipPath clipPathUnits="userSpaceOnUse" id="clipPath3009"><path d="m 0.5,842.5 595,0 0,-842 -595,0 0,842 z" id="path3011" inkscape:connector-curvature="0"/></clipPath><clipPath clipPathUnits="userSpaceOnUse" id="clipPath3019"><path d="m 80.226,546.627 161.487,0 0,-133.938 -161.487,0 0,133.938 z" clip-rule="evenodd" id="path3021" inkscape:connector-curvature="0"/></clipPath><clipPath clipPathUnits="userSpaceOnUse" id="clipPath3031"><path d="m 21.6,806.394 549.9,0 0,-772.2 -549.9,0 0,772.2 z" id="path3033" inkscape:connector-curvature="0"/></clipPath><clipPath clipPathUnits="userSpaceOnUse" id="clipPath3037"><path d="m 0.5,842.5 595,0 0,-842 -595,0 0,842 z" id="path3039" inkscape:connector-curvature="0"/></clipPath><clipPath clipPathUnits="userSpaceOnUse" id="clipPath3047"><path d="m 241.713,278.751 161.496,0 0,-135.207 -161.496,0 0,135.207 z" clip-rule="evenodd" id="path3049" inkscape:connector-curvature="0"/></clipPath><clipPath clipPathUnits="userSpaceOnUse" id="clipPath3059"><path d="m 21.6,806.394 549.9,0 0,-772.2 -549.9,0 0,772.2 z" id="path3061" inkscape:connector-curvature="0"/></clipPath><clipPath clipPathUnits="userSpaceOnUse" id="clipPath3065"><path d="m 0.5,842.5 595,0 0,-842 -595,0 0,842 z" id="path3067" inkscape:connector-curvature="0"/></clipPath><clipPath clipPathUnits="userSpaceOnUse" id="clipPath3075"><path d="m 80.226,412.689 161.487,0 0,-133.938 -161.487,0 0,133.938 z" clip-rule="evenodd" id="path3077" inkscape:connector-curvature="0"/></clipPath><clipPath clipPathUnits="userSpaceOnUse" id="clipPath3087"><path d="m 21.6,806.394 549.9,0 0,-772.2 -549.9,0 0,772.2 z" id="path3089" inkscape:connector-curvature="0"/></clipPath><clipPath clipPathUnits="userSpaceOnUse" id="clipPath3093"><path d="m 0.5,842.5 595,0 0,-842 -595,0 0,842 z" id="path3095" inkscape:connector-curvature="0"/></clipPath><clipPath clipPathUnits="userSpaceOnUse" id="clipPath3103"><path d="m 241.713,546.627 161.496,0 0,-133.938 -161.496,0 0,133.938 z" clip-rule="evenodd" id="path3105" inkscape:connector-curvature="0"/></clipPath><clipPath clipPathUnits="userSpaceOnUse" id="clipPath3115"><path d="m 21.6,806.394 549.9,0 0,-772.2 -549.9,0 0,772.2 z" id="path3117" inkscape:connector-curvature="0"/></clipPath><clipPath clipPathUnits="userSpaceOnUse" id="clipPath3121"><path d="m 0.5,842.5 595,0 0,-842 -595,0 0,842 z" id="path3123" inkscape:connector-curvature="0"/></clipPath><clipPath clipPathUnits="userSpaceOnUse" id="clipPath3131"><path d="m 241.713,412.689 161.496,0 0,-133.938 -161.496,0 0,133.938 z" clip-rule="evenodd" id="path3133" inkscape:connector-curvature="0"/></clipPath><clipPath clipPathUnits="userSpaceOnUse" id="clipPath3143"><path d="m 21.6,806.394 549.9,0 0,-772.2 -549.9,0 0,772.2 z" id="path3145" inkscape:connector-curvature="0"/></clipPath><clipPath clipPathUnits="userSpaceOnUse" id="clipPath3149"><path d="m 0.5,842.5 595,0 0,-842 -595,0 0,842 z" id="path3151" inkscape:connector-curvature="0"/></clipPath><clipPath clipPathUnits="userSpaceOnUse" id="clipPath3159"><path d="m 403.209,546.627 169.398,0 0,-133.938 -169.398,0 0,133.938 z" clip-rule="evenodd" id="path3161" inkscape:connector-curvature="0"/></clipPath><clipPath clipPathUnits="userSpaceOnUse" id="clipPath3165"><path d="m 21.6,806.394 549.9,0 0,-772.2 -549.9,0 0,772.2 z" id="path3167" inkscape:connector-curvature="0"/></clipPath><clipPath clipPathUnits="userSpaceOnUse" id="clipPath3171"><path d="m 0.5,842.5 595,0 0,-842 -595,0 0,842 z" id="path3173" inkscape:connector-curvature="0"/></clipPath><clipPath clipPathUnits="userSpaceOnUse" id="clipPath3183"><path d="m 21.6,806.394 549.9,0 0,-772.2 -549.9,0 0,772.2 z" id="path3185" inkscape:connector-curvature="0"/></clipPath><clipPath clipPathUnits="userSpaceOnUse" id="clipPath3189"><path d="m 0.5,842.5 595,0 0,-842 -595,0 0,842 z" id="path3191" inkscape:connector-curvature="0"/></clipPath><clipPath clipPathUnits="userSpaceOnUse" id="clipPath3199"><path d="m 403.209,278.751 169.398,0 0,-135.207 -169.398,0 0,135.207 z" clip-rule="evenodd" id="path3201" inkscape:connector-curvature="0"/></clipPath><clipPath clipPathUnits="userSpaceOnUse" id="clipPath3205"><path d="m 21.6,806.394 549.9,0 0,-772.2 -549.9,0 0,772.2 z" id="path3207" inkscape:connector-curvature="0"/></clipPath><clipPath clipPathUnits="userSpaceOnUse" id="clipPath3211"><path d="m 0.5,842.5 595,0 0,-842 -595,0 0,842 z" id="path3213" inkscape:connector-curvature="0"/></clipPath><clipPath clipPathUnits="userSpaceOnUse" id="clipPath3223"><path d="m 21.6,806.394 549.9,0 0,-772.2 -549.9,0 0,772.2 z" id="path3225" inkscape:connector-curvature="0"/></clipPath><clipPath clipPathUnits="userSpaceOnUse" id="clipPath3229"><path d="m 0.5,842.5 595,0 0,-842 -595,0 0,842 z" id="path3231" inkscape:connector-curvature="0"/></clipPath><clipPath clipPathUnits="userSpaceOnUse" id="clipPath3239"><path d="m 403.209,412.689 169.137,0 0,-133.938 -169.137,0 0,133.938 z" clip-rule="evenodd" id="path3241" inkscape:connector-curvature="0"/></clipPath><clipPath clipPathUnits="userSpaceOnUse" id="clipPath3245"><path d="m 21.6,806.394 549.9,0 0,-772.2 -549.9,0 0,772.2 z" id="path3247" inkscape:connector-curvature="0"/></clipPath><clipPath clipPathUnits="userSpaceOnUse" id="clipPath3251"><path d="m 0.5,842.5 595,0 0,-842 -595,0 0,842 z" id="path3253" inkscape:connector-curvature="0"/></clipPath><clipPath clipPathUnits="userSpaceOnUse" id="clipPath3263"><path d="m 21.6,806.394 549.9,0 0,-772.2 -549.9,0 0,772.2 z" id="path3265" inkscape:connector-curvature="0"/></clipPath><clipPath clipPathUnits="userSpaceOnUse" id="clipPath3269"><path d="m 0.5,842.5 595,0 0,-842 -595,0 0,842 z" id="path3271" inkscape:connector-curvature="0"/></clipPath><clipPath clipPathUnits="userSpaceOnUse" id="clipPath3279"><path d="m 80.226,278.751 161.487,0 0,-135.207 -161.487,0 0,135.207 z" clip-rule="evenodd" id="path3281" inkscape:connector-curvature="0"/></clipPath><clipPath clipPathUnits="userSpaceOnUse" id="clipPath3291"><path d="m 21.6,806.394 549.9,0 0,-772.2 -549.9,0 0,772.2 z" id="path3293" inkscape:connector-curvature="0"/></clipPath><clipPath clipPathUnits="userSpaceOnUse" id="clipPath3297"><path d="m 0.5,842.5 595,0 0,-842 -595,0 0,842 z" id="path3299" inkscape:connector-curvature="0"/></clipPath><clipPath clipPathUnits="userSpaceOnUse" id="clipPath3331"><path d="m 21.6,806.394 549.9,0 0,-772.2 -549.9,0 0,772.2 z" id="path3333" inkscape:connector-curvature="0"/></clipPath><clipPath clipPathUnits="userSpaceOnUse" id="clipPath3337"><path d="m 0.5,842.5 595,0 0,-842 -595,0 0,842 z" id="path3339" inkscape:connector-curvature="0"/></clipPath></defs><sodipodi:namedview pagecolor="#ffffff" bordercolor="#666666" borderopacity="1" objecttolerance="10" gridtolerance="10" guidetolerance="10" inkscape:pageopacity="0" inkscape:pageshadow="2" inkscape:window-width="1920" inkscape:window-height="1028" id="namedview2987" showgrid="false" fit-margin-left="0.5" fit-margin-bottom="0.5" fit-margin-top="0.5" fit-margin-right="0.5" inkscape:zoom="0.42783459" inkscape:cx="679.56602" inkscape:cy="146.70727" inkscape:window-x="-8" inkscape:window-y="-8" inkscape:window-maximized="1" inkscape:current-layer="g2993"><inkscape:grid type="xygrid" id="grid3368" empspacing="5" visible="true" enabled="true" snapvisiblegridlinesonly="true"/></sodipodi:namedview><g id="g2993" inkscape:groupmode="layer" inkscape:label="vaux99-sus-uk" transform="matrix(1.25,0,0,-1.25,110.085,-99.474909)"><g id="g2995" transform="matrix(0.99860804,0,0,0.99860804,-0.12203062,-0.66255131)"><g id="g3380" transform="matrix(10.100802,0,0,10.100802,-649.62983,-1017.2528)"><path id="path3303" style="fill:#ed1c24;fill-opacity:1;fill-rule:nonzero;stroke:none" d="m 95.5,67.179 c 7.083,0.347 12.545,6.37 12.198,13.453 -0.346,7.084 -6.369,12.545 -13.453,12.199 C 87.162,92.485 81.701,86.461 82.047,79.378 82.393,72.295 88.416,66.833 95.5,67.179" inkscape:connector-curvature="0"/><path id="path3305" style="fill:#ffffff;fill-opacity:1;fill-rule:nonzero;stroke:none" d="m 105.796,79.52 c -0.028,0.564 -0.55,1.15 -1.308,1.112 -0.943,-0.046 -2.27,-0.945 -2.165,-3.098 0.032,-0.65 0.253,-2.067 -0.01,-2.724 -0.182,0.599 -0.423,0.971 -0.851,1.359 -0.561,0.509 -1.277,0.766 -1.933,0.973 -1.101,0.347 -2.145,0.742 -2.751,1.111 0.193,0.006 1.494,0.011 1.73,0.022 3.047,0.149 3.337,1.114 3.761,1.712 -0.918,-0.44 -1.75,-0.494 -2.783,-0.465 0.051,0.057 0.215,0.226 0.215,0.226 1.789,0.087 4.286,0.966 4.23,3.006 -0.537,-0.875 -1.88,-1.455 -3.024,-1.511 0.03,0.045 0.118,0.235 0.118,0.235 2.148,0.452 3.001,2.038 2.946,3.152 -0.039,0.795 -0.519,1.657 -1.013,1.961 0.071,-0.192 0.121,-0.525 0.129,-0.703 0.068,-1.378 -1.006,-2.521 -1.739,-2.998 l -0.042,0.259 c 0.711,0.699 1.353,1.634 1.284,3.047 -0.103,2.102 -1.827,3.182 -3.109,3.395 1.024,-0.928 1.469,-1.925 1.532,-3.191 0.034,-0.712 -0.126,-1.614 -0.38,-2.112 l -0.225,0.124 c 0.112,0.363 0.179,1.268 0.161,1.645 -0.125,2.556 -2.153,4.711 -4.959,4.573 -0.317,-0.015 -0.701,-0.08 -0.866,-0.148 2.448,-0.606 4.224,-2.612 4.353,-5.25 0.006,-0.14 -0.007,-0.376 -0.01,-0.433 -0.066,-0.003 -0.254,0.038 -0.254,0.038 -0.14,2.873 -3.012,5.46 -5.919,5.318 -1.647,-0.081 -2.616,-0.817 -3.175,-1.405 0.253,0.049 0.903,0.084 1.011,0.09 3.513,0.172 6.472,-2.036 6.606,-4.774 0.098,-2.013 -1.638,-3.099 -2.624,-3.724 -0.529,0.675 -1.074,1.642 -1.113,2.43 -0.032,0.664 0.233,1.286 0.736,1.31 0.207,0.01 0.503,-0.042 0.677,-0.174 0.036,0.339 -0.15,0.499 -0.682,0.667 l 0.178,0.18 c 0.992,-0.316 1.127,-0.575 1.234,-0.805 0.121,0.241 0.262,0.66 0.248,0.955 -0.025,0.513 -0.375,0.822 -0.997,0.901 -0.1,0.341 -0.14,0.42 -0.693,0.488 -0.439,0.054 -0.787,0.089 -0.969,0.11 -0.089,0.01 -0.102,0.062 -0.125,0.094 -0.05,0.071 -0.082,0.588 -0.087,0.754 -0.39,-0.319 -0.8,-0.828 -1.221,-1.401 -0.495,-0.119 -1.154,-0.582 -1.329,-0.952 0.09,0.022 0.647,0.068 0.76,0.077 -0.045,-0.046 -0.184,-0.286 -0.201,-0.324 -0.681,-0.121 -1.319,-0.709 -1.523,-1.2 0.205,0.083 0.797,0.214 1.015,0.243 -0.034,-0.045 -0.143,-0.298 -0.156,-0.336 -0.638,-0.184 -1.489,-1.066 -1.596,-1.574 0.308,0.114 0.835,0.246 1.103,0.292 -0.282,-0.862 -0.403,-0.988 -1.035,-1.019 -0.201,-0.01 -2.199,10e-4 -2.327,-0.002 -0.669,-0.013 -0.843,0.181 -1.297,0.511 0,0 -0.006,0 -0.007,0.001 0.12,0.998 0.375,1.945 0.792,2.775 0.952,0.207 2.745,0.246 3.729,0.254 0.519,1.063 1.025,1.921 1.717,2.868 -0.659,0.067 -1.439,0.093 -2.232,0.052 -0.755,-0.039 -1.651,-0.154 -2.134,-0.287 -1.312,-1.554 -2.225,-3.595 -2.566,-5.605 -0.101,-0.04 -0.575,-0.241 -0.617,-0.287 0.005,-0.122 0.235,-0.478 0.263,-0.517 -0.267,-0.359 -0.231,-0.976 -0.072,-1.225 -0.099,-0.115 -0.252,-0.363 -0.306,-0.463 0.077,-0.039 0.516,-0.138 0.637,-0.165 0.102,-1.026 0.349,-2.004 0.723,-2.916 -0.092,-0.122 -0.348,-0.474 -0.361,-0.543 0.069,-0.1 0.45,-0.286 0.493,-0.305 -0.042,-0.445 0.31,-0.953 0.574,-1.083 -0.011,-0.136 -0.027,-0.442 -0.021,-0.556 0.079,0.011 0.503,0.148 0.626,0.188 1.062,-1.41 2.468,-2.54 4.091,-3.264 1.38,0.357 6.644,0.552 8.565,0.015 2.03,1.271 4.181,2.338 4.042,5.198 -0.028,0.557 -0.294,1.52 -0.314,1.936 -0.022,0.444 -0.01,1.039 0.545,1.066 0.263,0.013 0.411,-0.191 0.454,-0.425 0.457,0.282 0.426,0.995 -0.082,0.962 0.028,0.058 0.083,0.172 0.083,0.172 0.314,0.227 0.825,-0.03 0.695,-0.444 -0.092,-0.292 -0.106,-0.519 -0.061,-0.705 0.042,-0.169 0.36,-0.695 1.046,-0.388 -0.095,0.074 -0.178,0.235 -0.185,0.363 -0.016,0.339 0.375,0.705 0.347,1.281 z M 85.533,79.228 c 0.084,-0.176 0.583,-0.779 1.093,-0.825 -0.084,0.235 -0.135,0.524 -0.163,0.777 l 0.263,-0.012 c 0.095,-0.197 0.65,-0.875 1.223,-0.927 -0.095,0.264 -0.151,0.588 -0.183,0.872 l 0.263,-0.012 c 0.114,-0.238 0.664,-1.037 1.355,-1.1 -0.06,0.223 -0.137,0.728 -0.144,1.039 l 0.363,-0.022 c 0.069,-0.408 0.19,-0.916 0.345,-1.212 -0.156,-0.081 -2.411,-1.269 -2.518,-1.318 -0.582,-0.266 -0.658,-0.242 -1.286,-0.081 -0.042,0.01 -0.117,0.056 -0.188,0.058 -0.343,0.817 -0.573,1.695 -0.664,2.623 l 0.241,0.14 z m 3.429,-6.717 c -0.618,0.505 -1.184,1.079 -1.679,1.711 l 0.142,0.169 c 0.152,-0.123 0.86,-0.454 1.342,-0.278 -0.177,0.176 -0.346,0.416 -0.479,0.633 l 0.242,0.102 c 0.169,-0.138 0.962,-0.514 1.501,-0.316 -0.198,0.198 -0.388,0.467 -0.537,0.71 l 0.242,0.102 c 0.205,-0.167 1,-0.673 1.652,-0.434 -0.151,0.166 -0.498,0.539 -0.659,0.84 l 0.303,0.125 c 0.526,-0.473 1.203,-0.842 2.222,-1.035 0.613,-0.116 2.347,-0.009 2.984,-0.044 1.809,-0.098 2.449,-0.623 2.517,-2.011 -3.485,0.413 -6.449,0.425 -9.793,-0.274" inkscape:connector-curvature="0"/><path id="path3307" style="fill:#ed1c24;fill-opacity:1;fill-rule:nonzero;stroke:none" d="m 88.65,85.675 c 0,0 -0.015,0.056 -0.028,0.088 -0.015,0.034 -0.469,1.112 -0.491,1.167 -0.087,-0.004 -0.646,-0.055 -0.788,-0.091 0.053,-0.107 0.702,-1.782 0.718,-1.814 0.184,0.029 0.858,0.055 1.072,0.049 0.024,0.041 1.113,1.903 1.147,1.934 -0.149,0.006 -0.707,0.017 -0.893,0.002 -0.034,-0.061 -0.696,-1.229 -0.705,-1.247 -0.013,-0.026 -0.032,-0.088 -0.032,-0.088" inkscape:connector-curvature="0"/><path id="path3309" style="fill:#ed1c24;fill-opacity:1;fill-rule:nonzero;stroke:none" d="m 94.773,85.777 c -0.055,-0.085 -0.164,-0.191 -0.269,-0.263 -0.101,-0.069 -0.252,-0.058 -0.373,0.033 -0.103,0.078 -0.328,0.203 -0.456,0.183 0.094,0.164 0.2,0.258 0.539,0.155 0.164,-0.05 0.396,-0.108 0.559,-0.108" inkscape:connector-curvature="0"/></g><g id="g3370" transform="matrix(8.4505935,0,0,8.4505935,-1035.3001,-1106.5482)"><path id="path3311" style="fill:#333333;fill-opacity:1;fill-rule:nonzero;stroke:none" d="m 118.345,77.198 3.072,7.95 2.752,0 c 0.645,0 0.87,-0.36 0.647,-0.948 l -3.614,-8.503 c -0.329,-0.774 -0.837,-0.827 -1.494,-0.827 l -2.771,0 c -0.657,0 -1.184,0.067 -1.493,0.827 l -3.217,8.5 c -0.231,0.607 -0.013,0.951 0.658,0.951 l 2.753,0 2.707,-7.95" inkscape:connector-curvature="0"/><path id="path3313" style="fill:#333333;fill-opacity:1;fill-rule:nonzero;stroke:none" d="m 143.087,74.618 c 4.982,0.028 5.48,3.124 5.48,5.14 l 0,4.448 c 0,0.648 -0.275,0.942 -0.912,0.942 l -2.607,0 0,-5.558 c 0,-1.15 -0.495,-2.269 -1.961,-2.269 -1.505,0 -1.952,1.05 -1.952,2.269 l 0,5.558 -2.454,0 c -0.809,0 -1.064,-0.333 -1.064,-0.942 l 0,-4.448 c 0,-2.016 0.488,-5.168 5.47,-5.14" inkscape:connector-curvature="0"/><path id="path3315" style="fill:#333333;fill-opacity:1;fill-rule:nonzero;stroke:none" d="m 155.371,82.553 2.017,2.595 3.097,0 c 0.828,0 0.77,-0.602 0.511,-0.909 l -3.541,-3.872 3.547,-4.573 c 0.24,-0.294 0.312,-0.926 -0.56,-0.926 l -3.055,0 -2.108,2.963 -2.314,-2.963 -3.071,0 c -0.873,0 -0.8,0.632 -0.56,0.926 l 3.884,4.638 -3.22,3.807 c -0.258,0.307 -0.317,0.909 0.511,0.909 l 3.055,0 1.807,-2.595" inkscape:connector-curvature="0"/><path id="path3317" style="fill:#333333;fill-opacity:1;fill-rule:nonzero;stroke:none" d="m 169.777,78.87 0,-4 2.46,0 c 0.205,0 1.065,-0.084 1.065,0.926 l 0,8.523 c 0,0.855 -0.868,0.828 -1.065,0.828 l -2.46,0 0,-3.564 -3.968,0 0,3.564 -2.459,0 c -0.198,0 -1.066,0.027 -1.066,-0.828 l 0,-8.587 c 0,-0.909 0.876,-0.864 1.066,-0.864 l 2.459,0 0,4.002 3.968,0" inkscape:connector-curvature="0"/><path id="path3319" style="fill:#333333;fill-opacity:1;fill-rule:nonzero;stroke:none" d="m 197.119,77.644 -5.14,0 0,7.502 -2.521,0 c -0.418,0 -1.039,-0.037 -1.039,-0.935 l 0,-8.416 c 0,-0.898 0.586,-0.927 0.926,-0.927 l 6.729,0 c 0.405,0 1.045,0.063 1.045,0.904 l 0,1.872" inkscape:connector-curvature="0"/><path id="path3321" style="fill:#333333;fill-opacity:1;fill-rule:nonzero;stroke:none" d="m 206.843,77.644 -5.14,0 0,7.502 -2.521,0 c -0.418,0 -1.039,-0.037 -1.039,-0.935 l 0,-8.416 c 0,-0.898 0.586,-0.927 0.926,-0.927 l 6.729,0 c 0.405,0 1.045,0.063 1.045,0.904 l 0,1.872" inkscape:connector-curvature="0"/><path id="path3323" style="fill:#333333;fill-opacity:1;fill-rule:nonzero;stroke:none" d="m 127.943,76.514 -0.663,-1.644 -2.659,0 c -0.273,0 -1.063,-0.015 -0.655,1.054 l 3.549,8.359 c 0.171,0.367 0.353,0.865 1.426,0.865 l 3.309,0 c 1.023,0 1.247,-0.323 1.533,-1.008 l 3.153,-8.224 c 0.405,-1.062 -0.438,-1.046 -0.69,-1.046 l -2.644,0 -0.595,1.644 -5.064,0 z m 4.094,2.68 -1.426,3.941 -1.589,-3.941 3.015,0" inkscape:connector-curvature="0"/><path id="path3325" style="fill:#333333;fill-opacity:1;fill-rule:nonzero;stroke:none" d="m 178.319,76.513 -0.663,-1.644 -2.66,0 c -0.272,0 -1.062,-0.014 -0.654,1.055 l 3.549,8.359 c 0.171,0.367 0.353,0.865 1.426,0.865 l 3.31,0 c 1.022,0 1.246,-0.323 1.532,-1.009 l 3.153,-8.223 c 0.405,-1.062 -0.438,-1.047 -0.69,-1.047 l -2.644,0 -0.595,1.644 -5.064,0 z m 4.094,2.681 -1.426,3.941 -1.589,-3.941 3.015,0" inkscape:connector-curvature="0"/></g></g></g></svg>