<?xml version="1.0" encoding="utf-8"?>
<!DOCTYPE svg PUBLIC "-//W3C//DTD SVG 1.1//EN" "http://www.w3.org/Graphics/SVG/1.1/DTD/svg11.dtd">
<svg version="1.1" id="Volvo_Logo" xmlns="http://www.w3.org/2000/svg" width="210" height="210" viewBox="0 0 210 210" xml:space="preserve">
  <title>Volvo Logo</title>
  <desc>For more information see: http://de.wikipedia.org/wiki/Datei:Volvo_logo1.svg</desc>
  <path id="Path_01" fill="#c5c5c1" d="M105.001,41.602L105.001,41.602L105.001,41.602
    c17.646,0,33.332,7.189,44.771,18.627c11.766,11.438,18.627,27.45,18.627,45.099l0,0l0,0l0,0l0,0
    c0,17.319-6.861,33.332-18.627,44.77c-11.438,11.438-27.125,18.628-44.771,18.628l0,0l0,0l0,0l0,0
    c-17.648,0-33.334-7.189-45.098-18.628c-11.438-11.438-18.627-27.45-18.627-44.77l0,0l0,0l0,0l0,0
    c0-17.648,7.189-33.66,18.627-45.099C71.667,48.791,87.353,41.602,105.001,41.602L105.001,41.602L105.001,41.602L105.001,41.602z
     M105.001,42.581L105.001,42.581L105.001,42.581L105.001,42.581L105.001,42.581c-17.32,0-33.006,7.189-44.119,18.302
    C49.444,72.32,42.255,88.007,42.255,105.327l0,0l0,0l0,0l0,0c0,17.319,7.189,33.006,18.627,44.116
    c11.112,11.438,26.799,18.302,44.119,18.302l0,0l0,0l0,0l0,0c17.319,0,33.007-6.863,44.116-18.302
    c11.438-11.11,18.302-26.797,18.302-44.116l0,0l0,0l0,0l0,0c0-17.32-6.864-33.007-18.302-44.444
    C138.008,49.771,122.32,42.581,105.001,42.581z" />
  <radialGradient id="Path_02_1_" cx="35.603" cy="85.855" r="202.7294" gradientUnits="userSpaceOnUse">
    <stop offset="0" stop-color="#fff" />
    <stop offset="0.0469" stop-color="#FCFCFB" />
    <stop offset="0.2247" stop-color="#fafaf9" />
    <stop offset="0.3719" stop-color="#B9B9B8" />
    <stop offset="0.4972" stop-color="#888887" />
    <stop offset="0.5923" stop-color="#6A6A69" />
    <stop offset="0.6461" stop-color="#5F5F5E" />
    <stop offset="0.7275" stop-color="#555554" />
    <stop offset="0.8673" stop-color="#3A3939" />
    <stop offset="1" stop-color="#1B1919" />
  </radialGradient>
  <path id="Path_02" fill="url(#Path_02_1_)" d="M105.001,7.941
    c22.222,0,42.812,7.515,59.149,19.935l10.783-10.784l18.956,18.953l-10.784,11.112c12.092,16.341,18.953,36.273,18.953,57.842
    c0,53.595-43.463,97.386-97.058,97.386c-53.595,0-97.06-43.791-97.06-97.386C7.941,51.406,51.406,7.941,105.001,7.941L105.001,7.941
    z M105.001,30.817c-40.85,0-74.184,33.332-74.184,74.182c0,41.178,33.334,74.184,74.184,74.184s74.182-33.006,74.182-74.184
    C179.183,64.149,145.851,30.817,105.001,30.817z" />
  <linearGradient id="Path_03_1_" gradientUnits="userSpaceOnUse" x1="66.6929" y1="92.1035" x2="139.3777" y2="117.1309">
    <stop offset="0" stop-color="#E2E2DC" />
    <stop offset="1" stop-color="#fff" />
  </linearGradient>
  <path id="Path_03" fill="url(#Path_03_1_)" d="M105.001,30.489L105.001,30.489
    L105.001,30.489c20.589,0,39.216,8.171,52.941,21.896c13.397,13.399,21.895,32.026,21.895,52.941l0,0l0,0l0,0l0,0
    c0,20.589-8.497,39.214-21.895,52.941c-13.726,13.397-32.353,21.895-52.941,21.895l0,0l0,0l0,0l0,0
    c-20.589,0-39.542-8.497-52.941-21.895c-13.399-13.728-21.896-32.353-21.896-52.941l0,0l0,0l0,0l0,0
    c0-20.915,8.497-39.542,21.896-52.941l0,0C65.459,38.66,84.412,30.489,105.001,30.489L105.001,30.489L105.001,30.489L105.001,30.489
    z M105.001,31.471L105.001,31.471L105.001,31.471L105.001,31.471L105.001,31.471c-20.261,0-38.889,8.169-52.288,21.568l0,0
    c-13.399,13.397-21.569,31.699-21.569,52.288l0,0l0,0l0,0l0,0c0,20.261,8.169,38.888,21.569,52.287
    c13.399,13.071,32.027,21.568,52.288,21.568l0,0l0,0l0,0l0,0c20.261,0,38.888-8.497,52.288-21.568
    c13.396-13.399,21.568-32.026,21.568-52.287l0,0l0,0l0,0l0,0c0-20.589-8.172-38.891-21.568-52.288
    C143.889,39.64,125.262,31.471,105.001,31.471z" />
  <radialGradient id="Path_04_1_" cx="162.6895" cy="167.5557" r="222.4881" gradientUnits="userSpaceOnUse">
    <stop offset="0" stop-color="#C5C6C2" />
    <stop offset="1" stop-color="#868680" />
  </radialGradient>
  <path id="Path_04" fill="url(#Path_04_1_)" d="M105.001,7.287L105.001,7.287L105.001,7.287
    c22.222,0,43.137,7.516,59.478,20.261l-0.328,0.328c-16.338-12.42-36.928-19.935-59.149-19.935c-53.595,0-97.06,43.465-97.06,97.058
    c0,53.595,43.465,97.386,97.06,97.386c53.595,0,97.058-43.791,97.058-97.386c0-21.568-6.861-41.501-18.953-57.842l0.326-0.328
    c12.092,16.341,19.281,36.275,19.281,58.17l0,0l0,0l0,0l0,0c0,27.124-11.11,51.634-28.758,69.281
    c-17.648,17.648-41.83,28.433-68.954,28.433l0,0l0,0l0,0l0,0c-26.799,0-51.308-10.784-68.954-28.433
    c-17.648-17.974-28.76-42.157-28.76-69.281l0,0l0,0l0,0l0,0c0-26.797,11.112-51.306,28.76-68.954
    C53.693,18.397,77.876,7.287,105.001,7.287L105.001,7.287L105.001,7.287z" />
  <radialGradient id="Path_05_1_" cx="139.999" cy="140.3252" r="156.2407" gradientUnits="userSpaceOnUse">
    <stop offset="0" stop-color="#fff" />
    <stop offset="0.1986" stop-color="#F2F2F3" />
    <stop offset="0.2978" stop-color="#EAEAEB" />
    <stop offset="0.2992" stop-color="#E9E9EA" />
    <stop offset="0.3715" stop-color="#C3C3C3" />
    <stop offset="0.443" stop-color="#A5A5A5" />
    <stop offset="0.5126" stop-color="#8F8F8F" />
    <stop offset="0.5794" stop-color="#828281" />
    <stop offset="0.6404" stop-color="#7E7E7D" />
    <stop offset="0.7534" stop-color="#545352" />
    <stop offset="0.8551" stop-color="#353333" />
    <stop offset="0.9408" stop-color="#222020" />
    <stop offset="1" stop-color="#1B1919" />
  </radialGradient>
  <path id="Path_05" fill="url(#Path_05_1_)" d="M105.001,31.143
    c40.85,0,74.182,33.007,74.182,74.185c0,40.85-33.332,74.182-74.182,74.182s-74.184-33.332-74.184-74.182
    C30.817,64.149,64.151,31.143,105.001,31.143L105.001,31.143z M105.001,41.602c-34.968,0-63.4,28.432-63.4,63.726
    c0,34.968,28.432,63.397,63.4,63.397s63.397-28.43,63.397-63.397C168.398,70.033,139.969,41.602,105.001,41.602z" />
  <linearGradient id="Path_06_1_" gradientUnits="userSpaceOnUse" x1="30.1108" y1="137.5889" x2="30.1108" y2="130.5919">
    <stop offset="0" stop-color="#fff" stop-opacity="0" />
    <stop offset="0.17" stop-color="#fafaf9" stop-opacity="0" />
    <stop offset="0.427" stop-color="#bbbbb8" stop-opacity=".1" />
    <stop offset="0.5232" stop-color="#8f8f8c" stop-opacity=".2" />
    <stop offset="0.6238" stop-color="#686866" stop-opacity=".3" />
    <stop offset="0.7234" stop-color="#4a4948" stop-opacity=".6" />
    <stop offset="0.8206" stop-color="#343432" stop-opacity=".8" />
    <stop offset="0.9141" stop-color="#272625" stop-opacity=".9" />
    <stop offset="1" stop-color="#232221" />
  </linearGradient>
  <path id="Path_06" opacity="0.67" fill="url(#Path_06_1_)" d="M44.801,125.106h-34.75
    c0.857,4.083,2.045,8.036,3.399,11.915h36.721C47.995,133.27,46.18,129.291,44.801,125.106z" />
  <linearGradient id="Path_07_1_" gradientUnits="userSpaceOnUse" x1="-98.3613" y1="137.5889" x2="-98.3613" y2="130.5919" gradientTransform="matrix(-1 0 0 1 81.5762 0)">
    <stop offset="0" stop-color="#fff" stop-opacity="0" />
    <stop offset="0.17" stop-color="#fafaf9" stop-opacity="0" />
    <stop offset="0.427" stop-color="#bbbbb8" stop-opacity="0" />
    <stop offset="0.5232" stop-color="#8f8f8c" stop-opacity="0" />
    <stop offset="0.6238" stop-color="#686866" stop-opacity="0" />
    <stop offset="0.7234" stop-color="#4a4948" stop-opacity=".25" />
    <stop offset="0.8206" stop-color="#343432" stop-opacity=".5" />
    <stop offset="0.9141" stop-color="#272625" stop-opacity=".75" />
    <stop offset="1" stop-color="#232221" />
  </linearGradient>
  <path id="Path_07" opacity="0.86" fill="url(#Path_07_1_)" d="M165.247,125.106h34.751
    c-0.858,4.083-2.046,8.036-3.4,11.915h-36.721C162.054,133.27,163.869,129.291,165.247,125.106z" />
  <path id="Path_08" fill="#1A171B" d="M201.733,80.489L201.733,80.489
    c2.287,7.844,3.267,16.013,3.267,24.51c0,8.825-1.306,17.322-3.267,25.491H8.595v-0.328h192.811
    c2.289-8.169,3.269-16.666,3.269-25.489C204.674,96.176,203.694,88.007,201.733,80.489z" />
  <radialGradient id="Path_09_1_" cx="14.0508" cy="85.8643" r="126.1281" gradientUnits="userSpaceOnUse">
    <stop offset="0" stop-color="#006AB1" />
    <stop offset="0.0016" stop-color="#006AB1" />
    <stop offset="0.1275" stop-color="#0061A4" />
    <stop offset="0.2416" stop-color="#005E9F" />
    <stop offset="0.5062" stop-color="#00548E" />
    <stop offset="0.8371" stop-color="#004374" />
    <stop offset="0.9588" stop-color="#004173" />
    <stop offset="1" stop-color="#003B6F" />
  </radialGradient>
  <path id="Path_09" fill="url(#Path_09_1_)" d="M8.269,80.164h193.465
    c1.961,7.843,2.94,16.012,2.94,24.509c0,8.823-0.979,17.32-3.269,25.489H8.595C6.307,121.993,5,113.496,5,104.673
    C5,96.176,6.307,88.007,8.269,80.164z" />
  <linearGradient id="Path_10_1_" gradientUnits="userSpaceOnUse" x1="198.5127" y1="59.1338" x2="149.3586" y2="9.9797">
    <stop offset="0.0056" stop-color="#212111" />
    <stop offset="0.6461" stop-color="#41403F" />
    <stop offset="0.6508" stop-color="#454443" />
    <stop offset="0.6558" stop-color="#52514F" />
    <stop offset="0.6608" stop-color="#666564" />
    <stop offset="0.6659" stop-color="#838281" />
    <stop offset="0.6711" stop-color="#A9A8A6" />
    <stop offset="0.6762" stop-color="#D6D5D2" />
    <stop offset="0.68" stop-color="#FDFCF9" />
    <stop offset="0.6826" stop-color="#FAF9F6" />
    <stop offset="0.6842" stop-color="#F2F1EE" />
    <stop offset="0.6856" stop-color="#E3E2DF" />
    <stop offset="0.6869" stop-color="#CECECA" />
    <stop offset="0.688" stop-color="#B3B3AF" />
    <stop offset="0.6891" stop-color="#93938E" />
    <stop offset="0.69" stop-color="#70706B" />
    <stop offset="0.6924" stop-color="#6D6D68" />
    <stop offset="0.7145" stop-color="#535250" />
    <stop offset="0.7396" stop-color="#3E3C3D" />
    <stop offset="0.7692" stop-color="#2E2B2D" />
    <stop offset="0.8059" stop-color="#222023" />
    <stop offset="0.8573" stop-color="#1C191D" />
    <stop offset="1" stop-color="#1A171B" />
  </linearGradient>
  <polygon id="Path_10" fill="url(#Path_10_1_)" points="178.857,10.556 200.426,32.125 
    184.413,48.137 185.393,49.444 173.955,58.596 170.359,59.903 193.89,36.045 174.934,17.092 151.406,40.622 152.387,37.353 " />
  <radialGradient id="Path_11_1_" cx="194.4697" cy="13.2397" r="52.7106" gradientUnits="userSpaceOnUse">
    <stop offset="0" stop-color="#555552" />
    <stop offset="1" stop-color="#50504D" />
  </radialGradient>
  <path id="Path_11" fill="url(#Path_11_1_)" d="M157.289,8.267
    c18.953,10.131,34.313,25.817,44.77,44.444V8.267H157.289z" />
  <path id="Path_12" fill="none" stroke="#B1B0A8" stroke-width="0.3402" stroke-linecap="round" d="
    M157.289,8.267c18.953,10.131,34.313,25.817,44.77,44.444" />
  <path id="Path_13" fill="none" stroke="#CBCAC4" stroke-width="0.2361" stroke-linecap="round" d="
    M157.289,8.267c18.627,10.131,34.313,25.817,44.444,44.444" />
  <path id="Path_14" fill="none" stroke="#E6E6E1" stroke-width="0.1324" stroke-linecap="round" d="
    M156.961,8.267c18.955,10.131,34.313,25.817,44.772,44.772" />
  <path id="Path_15" fill="none" stroke="#fff" stroke-width="0.0283" stroke-linecap="round" d="
    M156.961,8.267c18.627,10.459,34.313,25.817,44.444,44.772" />
  <linearGradient id="Path_16_1_" gradientUnits="userSpaceOnUse" x1="156.6348" y1="7.7769" x2="202.7129" y2="7.7769">
    <stop offset="0" stop-color="#5D5D5F" />
    <stop offset="0.0852" stop-color="#505051" />
    <stop offset="0.2581" stop-color="#3C3C3C" />
    <stop offset="0.4497" stop-color="#2E2D2D" />
    <stop offset="0.6724" stop-color="#262524" />
    <stop offset="1" stop-color="#232221" />
  </linearGradient>
  <path id="Path_16" fill="url(#Path_16_1_)" d="M202.059,7.287
    c0.328,0,0.654,0.326,0.654,0.979l0,0h-45.424h-0.654c0-0.653,0.326-0.979,0.654-0.979H202.059z" />
  <linearGradient id="Path_17_1_" gradientUnits="userSpaceOnUse" x1="202.2227" y1="53.6934" x2="202.2227" y2="7.2871">
    <stop offset="0" stop-color="#5D5D5F" />
    <stop offset="0.096" stop-color="#555456" />
    <stop offset="0.4584" stop-color="#393939" />
    <stop offset="0.7723" stop-color="#292827" />
    <stop offset="1" stop-color="#232221" />
  </linearGradient>
  <path id="Path_17" fill="url(#Path_17_1_)" d="M202.713,52.711
    c0,0.654-0.326,0.982-0.654,0.982l-0.325-0.654V7.287c0,0,0,0,0.325,0c0.328,0,0.654,0.326,0.654,0.979V52.711z" />
  <linearGradient id="Path_18_1_" gradientUnits="userSpaceOnUse" x1="31.7163" y1="64.8818" x2="61.2207" y2="104.7876">
    <stop offset="0" stop-color="#fff" />
    <stop offset="0.1091" stop-color="#D8E8F3" />
    <stop offset="0.3376" stop-color="#8CBCDC" />
    <stop offset="0.5419" stop-color="#5099C9" />
    <stop offset="0.7143" stop-color="#257FBC" />
    <stop offset="0.8481" stop-color="#0A70B4" />
    <stop offset="0.927" stop-color="#006AB1" />
    <stop offset="0.9288" stop-color="#046BB2" />
    <stop offset="0.9489" stop-color="#2678B8" />
    <stop offset="0.968" stop-color="#3E81BD" />
    <stop offset="0.9856" stop-color="#4D86C0" />
    <stop offset="1" stop-color="#5288C1" />
  </linearGradient>
  <path id="Path_18" fill="url(#Path_18_1_)" d="M8.621,80.54c-1.961,7.844-3.269,16.013-3.269,24.51c0,0.703,0.242,4.867,0.259,5.565
    l0.567,6.312c-0.009-0.51-0.257-10.798-0.257-11.31c0-8.497,1.416-16.378,3.377-24.222l68.462-0.288l29.549-0.567H8.621z" />
  <g id="VOLVO">
    <path fill="#fff" d="M174.934,117.121c-8.664,0-15.714-5.291-15.714-11.794
        c0-6.505,7.05-11.796,15.714-11.796c8.848,0,16.046,5.292,16.046,11.796C190.979,111.83,183.781,117.121,174.934,117.121
        L174.934,117.121z M174.934,96.86c-3.2,0-5.522,3.561-5.522,8.467c0,4.64,2.374,8.139,5.522,8.139c2.996,0,5.526-3.727,5.526-8.139
        C180.46,100.658,177.981,96.86,174.934,96.86L174.934,96.86z M75.589,117.121c-8.666,0-15.716-5.291-15.716-11.794
        c0-6.217,7.197-11.468,15.716-11.468c8.846,0,16.042,5.145,16.042,11.468C91.631,111.83,84.435,117.121,75.589,117.121
        L75.589,117.121z M75.589,97.185c-3.15,0-5.526,3.5-5.526,8.142c0,4.64,2.376,8.139,5.526,8.139c2.996,0,5.526-3.727,5.526-8.139
        C81.116,100.914,78.585,97.185,75.589,97.185L75.589,97.185z M133.759,116.467l-10.156-18.969l-5.202,0.016l-0.03-2.97l22.253-0.03
        l0.03,2.97l-5.587,0.03l7.87,13.354l6.809-13.397l-3.895,0.043l-0.03-2.97l15.389-0.03l0.03,2.97l-5.259,0.03l-10.112,18.954
        H133.759z M92.909,116.467l-0.03-3.625l5.258-0.03l-0.03-15.328l-5.198,0.03l-0.03-2.97l20.619-0.03l0.03,2.97l-5.261,0.03
        l0.03,15.329l5.526-0.03c1.787,0,6.498-1.169,6.833-6.507l3.297-0.028l0.03,10.19H92.909z M34.412,116.467L24.255,97.498
        l-5.202,0.016l-0.03-2.97l22.252-0.03l0.03,2.97l-5.586,0.03l7.869,13.354l7.137-13.398l-4.222,0.044l-0.03-2.97l15.391-0.03
        l0.03,2.97l-5.26,0.03l-10.112,18.954H34.412z" />
    <path fill="#1D2D28" d="M174.934,93.561c8.826,0,16.016,5.23,16.016,11.767c0,6.535-7.189,11.764-16.016,11.764
        c-8.494,0-15.684-5.229-15.684-11.764C159.25,98.791,166.439,93.561,174.934,93.561 M174.934,113.496
        c2.941,0,5.557-3.595,5.557-8.169c0-4.902-2.615-8.497-5.557-8.497c-3.266,0-5.553,3.595-5.553,8.497
        C169.381,109.901,171.668,113.496,174.934,113.496 M75.589,93.889c8.823,0,16.012,5.229,16.012,11.438
        c0,6.535-7.189,11.764-16.012,11.764c-8.497,0-15.687-5.229-15.687-11.764C59.903,99.117,67.092,93.889,75.589,93.889
         M75.589,113.496c2.941,0,5.556-3.595,5.556-8.169s-2.615-8.172-5.556-8.172c-3.269,0-5.556,3.598-5.556,8.172
        S72.32,113.496,75.589,113.496 M161.209,94.543v2.94h-5.229l-10.13,18.953h-12.092l-10.13-18.953H118.4v-2.94h22.223v2.94h-5.557
        l7.844,13.399l6.861-13.399h-3.921v-2.94H161.209 M113.498,94.543v2.94h-5.23v15.358c0,0,3.595,0,5.557,0
        c1.961,0,6.535-1.305,6.863-6.535c2.613,0,3.267,0,3.267,0v10.13H98.137h-5.228v-3.595h5.228V97.483h-5.228v-2.94H113.498
         M61.864,94.543v2.94h-5.23l-10.13,18.953H34.412l-10.13-18.953h-5.229v-2.94h22.223v2.94h-5.556l7.843,13.399l7.189-13.399h-4.249
        v-2.94H61.864 M174.934,93.5c-8.681,0-15.743,5.306-15.743,11.827c0,6.52,7.063,11.823,15.743,11.823
        c8.864,0,16.075-5.304,16.075-11.823C191.009,98.806,183.798,93.5,174.934,93.5L174.934,93.5z M174.934,113.437
        c-3.132,0-5.493-3.486-5.493-8.109c0-4.889,2.311-8.437,5.493-8.437c3.031,0,5.497,3.785,5.497,8.437
        C180.431,109.723,177.913,113.437,174.934,113.437L174.934,113.437z M75.589,93.829c-8.536,0-15.747,5.266-15.747,11.499
        c0,6.52,7.064,11.823,15.747,11.823c8.862,0,16.072-5.304,16.072-11.823C91.662,98.987,84.452,93.829,75.589,93.829L75.589,93.829z
         M75.589,113.437c-3.133,0-5.496-3.486-5.496-8.109c0-4.625,2.363-8.112,5.496-8.112c2.979,0,5.496,3.715,5.496,8.112
        C81.085,109.723,78.568,113.437,75.589,113.437L75.589,113.437z M161.269,94.483h-0.06h-15.358h-0.06v0.06v2.94v0.06h0.06h3.823
        l-6.768,13.214l-7.735-13.214h5.452h0.06v-0.06v-2.94v-0.06h-0.06H118.4h-0.06v0.06v2.94v0.06h0.06h5.192l10.113,18.921
        l0.017,0.031h0.036h12.092h0.036l0.017-0.031l10.113-18.921h5.192h0.06v-0.06v-2.94V94.483L161.269,94.483z M113.558,94.483h-0.06
        H92.909h-0.06v0.06v2.94v0.06h0.06h5.168v15.239h-5.168h-0.06v0.06v3.595v0.06h0.06h5.228h25.817h0.06v-0.06v-10.13v-0.06h-0.06
        h-3.267h-0.057l-0.003,0.056c-0.334,5.315-5.024,6.479-6.804,6.479h-5.497V97.543h5.171h0.06v-0.06v-2.94V94.483L113.558,94.483z
         M61.924,94.483h-0.06H46.503h-0.06v0.06v2.94v0.06h0.06h4.148L43.56,110.76l-7.736-13.216h5.452h0.06v-0.06v-2.94v-0.06h-0.06
        H19.053h-0.06v0.06v2.94v0.06h0.06h5.192l10.114,18.921l0.017,0.031h0.036h12.092h0.036l0.017-0.031L56.67,97.543h5.194h0.06v-0.06
        v-2.94V94.483L61.924,94.483z" />
  </g>
</svg>